<svg xmlns="http://www.w3.org/2000/svg" viewBox="0 0 710 1022.7"><title>1Recurso 1</title><g id="Capa_2" data-name="Capa 2"><g id="Capa_1-2" data-name="Capa 1"><path d="M710,281c-15.8,5.5-30.4,13.3-44.7,21.8-29.5,17.5-55.5,39.2-74.9,67.8-38.3,56.6-35,122.5,8.5,175.9a191.7,191.7,0,0,0,20.4,21.9c2.9,2.5,3,4,.3,6.9A1168.5,1168.5,0,0,0,501,728.2a1380,1380,0,0,0-143.9,290.3l-1.5,4.2c-1.8-1.2-1.9-3.2-2.5-4.9C305.2,884.6,239.4,761.1,153,648.8c-19.4-25.2-39.9-49.6-61.6-72.9-2.9-3.2-3.1-4.8.2-8,21.1-19.7,37.9-42.5,47.3-70,15.9-46.8,7.3-90-20.6-129.8C94.5,334.2,62,310.4,25.4,291.9,17.2,287.8,9.1,283.2,0,281v-4c1.7-.7,1.5-2.5,1.8-3.8C23.7,192.8,67.2,126.5,131.3,73.4l6.9-5.4c.4,2.6.6,4.2.8,5.8,3.5,26.2,10.4,51.2,25.2,73.4,13.2,19.7,30.3,31.1,55.5,29.8,23.5-1.3,42.4-9.9,57-28.2,6.8-8.6,6.9-15.5.6-24.5a114.1,114.1,0,0,1-11.4-20.5C252,70.4,249,35.6,253,0h1a8,8,0,0,0,1.3,1.3c30,17.2,53,41.1,68.4,72.1,1.3,2.5,2.4,2.6,5,2.1a118.5,118.5,0,0,1,53-.1c3.3.8,4.2-.2,5.5-2.7A165.3,165.3,0,0,1,413,34.9C425.7,20.8,440.8,9.7,457,0h1c.1,1.8,0,3.6.2,5.5,2.9,43-1.5,84.4-26.6,121.4-4.3,6.4-4.2,13.6,1,20.4,13.6,17.5,30.9,27.9,53.4,29.3,16.5,1,32.3-.3,45.3-12.2a98.8,98.8,0,0,0,14-15.6c10.7-15.4,17.2-32.6,21.7-50.6,2.5-9.7,3.9-19.7,5.4-30.1l3.6,2.7c57.7,46.5,99.2,104.4,124,174.2,3.6,10.3,6.7,20.7,10,31ZM355.3,988.1c2.6-8,4.9-14.8,7.1-21.6L618.9,198.6c1.7-5.2,1.7-5.2-3.9-5.2H95.1c-1.6,0-3.3-.4-5,.6Q222.6,590.8,355.3,988.1Z" style="fill:#010101"/><path d="M355.3,988.1Q222.4,590,90.1,194c1.7-1,3.4-.6,5-.6H615c5.6,0,5.6,0,3.9,5.2L362.4,966.5C360.2,973.3,357.9,980.1,355.3,988.1Zm-.1-27c.9-2.4,1.4-3.6,1.8-4.8L606.9,207.9c2-5.9,2-6-4.4-6h-495c-5.8,0-5.8,0-4.1,5.4q117,350,233.8,700C343,924.8,348.9,942.3,355.2,961.1Z" style="fill:#f7f4f5"/><path d="M355.2,961.1c-6.3-18.8-12.2-36.3-18-53.8q-116.8-349.9-233.8-700c-1.7-5.4-1.7-5.4,4.1-5.4h495c6.4,0,6.4.1,4.4,6L357,956.3C356.6,957.5,356.1,958.7,355.2,961.1Zm0-55.1.8-1.7Q469.6,564.1,583.2,224.1c1.7-5-.2-5-4.1-5h-448c-5.1,0-5,1.2-3.6,5.4Q233.4,541.3,339.2,858.3C344.4,873.9,349.6,889.5,355.2,906Z" style="fill:#ab1d27"/><path d="M355.2,906c-5.6-16.5-10.8-32.1-16-47.7Q233.3,541.4,127.5,224.5c-1.4-4.2-1.5-5.4,3.6-5.4h448c3.9,0,5.8,0,4.1,5Q469.5,564.2,356,904.3Zm8-52c2.3-1.1,2.1-2.9,2.6-4.1,27.8-83.3,55.4-166.6,83.4-249.7,4.6-13.6,6.8-26.7,1.2-40.3-.7-1.4-.7-2.3,1.2-2.9,10.7-3.6,15.6-12.3,19.3-22,2.4-6.5,4.4-13.2,6.6-19.8,5-15.1,10.3-30,14.7-45.3,4-13.8-8.4-30.8-23.7-30.3-33.1.9-66.3.4-99.5.1-4.8,0-5.9,1.2-5.9,6q.1,201.5.1,402.9ZM346.1,729.7l.9-.2V729c.1-95.2,0-190.3.2-285.5,0-3.9-1.8-3.7-4.5-3.7h-103a18.9,18.9,0,0,0-10.3,3.1c-9.9,6.4-14.2,19.3-10.2,31.2Q282.1,662.2,345,850.3c.4,1.2.2,2.8,2.1,3.4V762.4a16.7,16.7,0,0,0-1.2-5.8Q327.8,702,309.4,647.4c-7.9-23.7-15.7-47.5-23.7-71.1-1.5-4.1-.5-4.7,3.4-4.6,7.6.3,15.3.3,22.9,0,3.8-.1,4.8.9,4.8,4.7-.2,20-.1,40-.2,60a32.5,32.5,0,0,0,1.8,10.7c5.3,15.5,10.4,31.1,15.6,46.6C338.1,705.7,342.1,717.7,346.1,729.7ZM257.5,397.1c14.8,0,29.7-.1,44.5.1,4.3.1,5.4-1.3,5.2-5.4-.3-6.6-.1-13.3-.1-19.9,0-10.2-3.4-15.5-13-18.8-3.8-1.3-4.4-3.3-4.3-6.8s.6-5.5,4.3-6.4a16.8,16.8,0,0,0,7-3.6c6.6-5.4,6.3-12.8,5.9-20.1-.2-3.8.7-4.7,4.5-4.6H396c7.3,0,7.3,0,7.3,7.3,0,12.1,3,17.2,13,20.8,3.6,1.3,4.6,3.1,4.7,6.8s-1.4,5.5-4.9,6.6c-6.7,2-11.4,6.5-12.3,13.5-1.3,9.3-.4,18.7-.5,28,0,2.6,2.2,2.4,4,2.4h91c3.2,0,4-1.2,3.9-4.1-.2-6.3-.3-12.7,0-19,.5-10.5-2.4-18.1-14.6-21.7-3.5-1-2.8-3.3-2.6-5.4s-1.6-5.3,2.5-6.5a22.1,22.1,0,0,0,8.5-4c6.2-5.1,6.4-12,6.1-19.1,0-2,.8-5.1-1.9-5.4-4.5-.5-9.2-1.2-13.7.6-.4.1-.4,1.5-.5,2.3a22.6,22.6,0,0,0,.1,4.5c.7,4-1.2,5.3-4.9,4.7a17.8,17.8,0,0,0-4,0c-2,.2-2.4-.8-2.5-2.6-.7-9.9-.8-9.9-10.6-9.8h-2c-2.6-.3-3.8.7-3.6,3.4a21.6,21.6,0,0,0,0,4.4c1,5.8-3,4.4-6.1,4.6s-5.7.1-5.5-4.7c.4-8.6,1.5-7.6-7.5-7.7h-2c-6.4,0-6.9,0-6.3,6.4s-1.4,6.9-6.2,6a10.5,10.5,0,0,0-2.5,0c-2.2.3-2.8-.6-2.9-2.8-.5-9.6-.6-9.6-10.3-9.6h-1c-2.6.4-3.7-.3-3.5-3.4.3-6.7-.2-13.3.2-20,.5-9.8-3.5-18.6-14.5-21.4-2.3-.5-3-1.8-3.2-4.2-.5-4.8.7-7.4,5.8-9,7.6-2.3,11.6-8.7,11.8-16.6.2-11.1.2-11-11-11.2-4-.1-5.5.9-5.4,5.2.3,7.7,0,7.6-7.7,7.5-2.8,0-3.7-.7-3.7-3.6-.1-9-.2-9-9.3-9h-1c-4.7-.8-6.1,1.1-5.8,5.8.4,6.9.1,6.7-7.2,6.8-3.3.1-4.2-.9-4.2-4.2.1-8.4,0-8.4-8.4-8.4h-1c-6.8,0-7,0-6.7,6.7.2,4.2-.4,6.1-5.4,6.1s-6.9-1.5-6-6.3a20.9,20.9,0,0,0,0-2.5c.1-2.2,0-4.6-2.9-3.9-4.4,1-10.9-3.3-12.9,2.5-3.8,11.3,1.9,21.8,13.2,25.8,4,1.4,3.6,3.8,3.8,6.8s-.5,4.9-4,6.2c-10.1,3.5-13.3,8.6-13.3,19.5v16c0,8.8,0,9-9,8.7-5-.3-6.3,1.4-6,6.1.4,6.4.1,6.4-6.6,6.4a13.3,13.3,0,0,0-2,0c-2.3.3-2.6-.9-2.7-2.9-.5-9.6-.5-9.6-10.4-9.5h-2c-2.7-.3-4,.8-3.9,3.6s.1,4,.1,6,.4,2.5-.9,2.6c-3.1.2-6.4.7-9.4-.1s-1-3.4-1-5.2c-.2-7.6.9-6.9-7-6.9s-8.9,0-9.2,8.7c-.1,1.3,1,3.4-1.4,3.6s-6.6.6-9.3-.5-.5-4.2-.7-6.5,0-2-.1-3-.3-2.1-1.5-2.2c-4.2-.1-8.4-.1-12.5,0a2.9,2.9,0,0,0-2.2,2.5c-2.7,10.8,2.6,21.8,12.8,25.5,3.5,1.2,4.8,2.7,4.9,6.5s-1.4,5.7-5.1,7c-8.7,3-12.6,9-12.6,18.1,0,7,.2,14-.1,21-.1,3.8,1.2,4.9,4.9,4.8C227.8,397,242.7,397.1,257.5,397.1Z" style="fill:#fcfcfc"/><path d="M363.2,854v-5.4q0-201.5-.1-402.9c0-4.8,1.1-6,5.9-6,33.2.3,66.4.8,99.5-.1,15.3-.5,27.7,16.5,23.7,30.3-4.4,15.3-9.7,30.2-14.7,45.3-2.2,6.6-4.2,13.3-6.6,19.8-3.7,9.7-8.6,18.4-19.3,22-1.9.6-1.9,1.5-1.2,2.9,5.6,13.6,3.4,26.7-1.2,40.3-28,83.1-55.6,166.4-83.4,249.7C365.3,851.1,365.5,852.9,363.2,854ZM394,505.8c0,10.5,0,21-.1,31.5,0,2.5.2,3.9,3.4,3.8,9.5-.2,19,.1,28.5-.1,5.7-.2,11.2-2.2,13.3-8,6.2-17.4,12-35,17.7-52.6,1.9-5.8-1.5-10.1-7.3-10.2-17.4,0-34.7.1-52,0-2.9-.1-3.6.9-3.6,3.6C394.1,484.5,394,495.2,394,505.8Zm0,160.3h.8c4.2-12.7,8.5-25.3,12.7-38q8-23.7,15.8-47.6c2-6,.1-8.7-5.7-8.8s-13.3.1-20,0c-2.7-.1-3.7.4-3.7,3.4Q394.1,620.7,394,666.1Z" style="fill:#010101"/><path d="M346.1,729.7c-4-12-8-24-12.1-36-5.2-15.5-10.3-31.1-15.6-46.6a32.5,32.5,0,0,1-1.8-10.7c.1-20,0-40,.2-60,0-3.8-1-4.8-4.8-4.7-7.6.3-15.3.3-22.9,0-3.9-.1-4.9.5-3.4,4.6,8,23.6,15.8,47.4,23.7,71.1q18.3,54.6,36.5,109.2a16.7,16.7,0,0,1,1.2,5.8v91.3c-1.9-.6-1.7-2.2-2.1-3.4Q282,662.2,219.2,474.1c-4-11.9.3-24.8,10.2-31.2a18.9,18.9,0,0,1,10.3-3.1h103c2.7,0,4.5-.2,4.5,3.7-.2,95.2-.1,190.3-.2,285.5v.5ZM316.7,506c0-10.5-.2-21,.1-31.4,0-3.6-1.1-4.5-4.6-4.5-16.8.2-33.6.1-50.4.1-6.9,0-10,4.2-7.9,10.8,6.3,19,12.8,38,19,57,.7,2.4,1.8,3.1,4.2,3.1,12-.1,24-.2,35.9,0,3.4.1,3.8-1.3,3.7-4.1C316.6,526.7,316.7,516.4,316.7,506Z" style="fill:#010101"/><path d="M257.5,397.1c-14.8,0-29.7-.1-44.5.1-3.7.1-5-1-4.9-4.8.3-7,.1-14,.1-21,0-9.1,3.9-15.1,12.6-18.1,3.7-1.3,5.2-2.8,5.1-7s-1.4-5.3-4.9-6.5c-10.2-3.7-15.5-14.7-12.8-25.5a2.9,2.9,0,0,1,2.2-2.5c4.1-.1,8.3-.1,12.5,0,1.2.1,1.5,1.2,1.5,2.2s0,2,.1,3-1.1,5.8.7,6.5,6.2.6,9.3.5,1.3-2.3,1.4-3.6c.3-8.7.2-8.8,9.2-8.7s6.8-.7,7,6.9c0,1.8-1.2,4.7,1,5.2s6.3.3,9.4.1c1.3-.1.8-1.6.9-2.6s.1-4-.1-6,1.2-3.9,3.9-3.6h2c9.9-.1,9.9-.1,10.4,9.5.1,2,.4,3.2,2.7,2.9a13.3,13.3,0,0,1,2,0c6.7,0,7,0,6.6-6.4-.3-4.7,1-6.4,6-6.1,9,.3,9,.1,9-8.7v-16c0-10.9,3.2-16,13.3-19.5,3.5-1.3,4.1-3,4-6.2s.2-5.4-3.8-6.8c-11.3-4-17-14.5-13.2-25.8,2-5.8,8.5-1.5,12.9-2.5,2.9-.7,3,1.7,2.9,3.9a20.9,20.9,0,0,1,0,2.5c-.9,4.8.8,6.3,6,6.3s5.6-1.9,5.4-6.1c-.3-6.7-.1-6.7,6.7-6.7h1c8.4,0,8.5,0,8.4,8.4,0,3.3.9,4.3,4.2,4.2,7.3-.1,7.6.1,7.2-6.8-.3-4.7,1.1-6.6,5.8-5.8h1c9.1,0,9.2,0,9.3,9,0,2.9.9,3.6,3.7,3.6,7.7.1,8,.2,7.7-7.5-.1-4.3,1.4-5.3,5.4-5.2,11.2.2,11.2.1,11,11.2-.2,7.9-4.2,14.3-11.8,16.6-5.1,1.6-6.3,4.2-5.8,9,.2,2.4.9,3.7,3.2,4.2,11,2.8,15,11.6,14.5,21.4-.4,6.7.1,13.3-.2,20-.2,3.1.9,3.8,3.5,3.4h1c9.7,0,9.8,0,10.3,9.6.1,2.2.7,3.1,2.9,2.8a10.5,10.5,0,0,1,2.5,0c4.8.9,6.6-.8,6.2-6s-.1-6.4,6.3-6.4h2c9,.1,7.9-.9,7.5,7.7-.2,4.8,2,5,5.5,4.7s7.1,1.2,6.1-4.6a21.6,21.6,0,0,1,0-4.4c-.2-2.7,1-3.7,3.6-3.4h2c9.8-.1,9.9-.1,10.6,9.8.1,1.8.5,2.8,2.5,2.6a17.8,17.8,0,0,1,4,0c3.7.6,5.6-.7,4.9-4.7a22.6,22.6,0,0,1-.1-4.5c.1-.8.1-2.2.5-2.3,4.5-1.8,9.2-1.1,13.7-.6,2.7.3,1.9,3.4,1.9,5.4.3,7.1.1,14-6.1,19.1a22.1,22.1,0,0,1-8.5,4c-4.1,1.2-2.3,4.2-2.5,6.5s-.9,4.4,2.6,5.4c12.2,3.6,15.1,11.2,14.6,21.7-.3,6.3-.2,12.7,0,19,.1,2.9-.7,4.1-3.9,4.1h-91c-1.8,0-4,.2-4-2.4.1-9.3-.8-18.7.5-28,.9-7,5.6-11.5,12.3-13.5,3.5-1.1,4.9-2.7,4.9-6.6s-1.1-5.5-4.7-6.8c-10-3.6-13-8.7-13-20.8,0-7.3,0-7.3-7.3-7.3H311.5c-3.8-.1-4.7.8-4.5,4.6.4,7.3.7,14.7-5.9,20.1a16.8,16.8,0,0,1-7,3.6c-3.7.9-4.3,3-4.3,6.4s.5,5.5,4.3,6.8c9.6,3.3,13,8.6,13,18.8,0,6.6-.2,13.3.1,19.9.2,4.1-.9,5.5-5.2,5.4C287.2,397,272.3,397.1,257.5,397.1Zm-29.4-54.4c1.3,7.4-1.2,11.8-9,14-5.7,1.6-8.2,7-8.3,13s.1,14.4,0,21.5c-.1,2.8.7,3.8,3.6,3.7h29c2.9.1,3.6-.9,3.6-3.7-.2-6.8-.1-13.7-.1-20.5s3.4-8.8,10.6-8.8,11.1,2.8,11.2,8.9.1,13.4-.1,20c0,2.8.4,4.2,3.8,4.2,9.6-.3,19.3-.2,28.9,0,3,0,3.7-1.1,3.6-3.8-.1-5.3-.2-10.7,0-16,.5-10.9-2.1-17.5-14-20.9-5-1.4-3.2-5.5-3.4-8.6s-.5-6,3.6-7.2c13-3.7,14.2-11.2,13.8-21.4,0-2.3-.6-3.4-3.1-3.1a17,17,0,0,1-4.5-.1c-3.3-.5-4.1,1-4.1,4.2.1,8.4-.1,8.4-8.5,8.5a20.9,20.9,0,0,0-2.5,0c-4,.6-5.6-1.1-5.1-5.1a26.7,26.7,0,0,0,0-4.9c0-1,.3-2.4-1-2.5-3.2-.1-6.5-.7-9.4.3s-1,4-.7,6c.7,5.2-1.6,6.5-6.5,6.3-9.3-.4-9.3-.1-9.8-9.4-.1-1.4.5-2.9-1.8-3.3-7.5-1.6-9.6,0-9.7,7.5a7.5,7.5,0,0,0,0,1.5c.2,2.6-1,4-3.5,3.5-4.2-.8-9.2,2.6-12.6-2.3-.3-.4-.1-1.3-.1-2a20.8,20.8,0,0,1,.1-3.5c.7-4-1.1-5.3-4.9-4.7a17.8,17.8,0,0,1-4,0c-1.7-.1-2.2.6-2.4,2.3-1.6,11.8,1.8,17.7,12.9,22,2.1.7,4.3,1.2,4.4,4Zm253.6-.4c1.3-2.9,4.1-3.6,6.7-4.6,9.2-3.5,14-12.7,11.5-22-.1-.5-.3-1.2-.6-1.3a21.6,21.6,0,0,0-9.8-.1c-2.2.4-1,3.1-1,4.8-.2,7.4-.1,7.4-7.2,7.5-8.9,0-8.8,0-9.2-9,0-1.2.9-2.9-1.4-3.6-6.4-1.9-9.8.3-9.8,6.8v2c.3,2.8-1,3.9-3.8,3.8s-3,0-4.5,0c-9.1,0-7.7.4-7.8-7.7-.1-1.6.9-4.1-.9-4.5a21.3,21.3,0,0,0-9.4-.1c-2.5.5-1.2,3.4-1.2,5.1-.2,7.2-.1,7.2-7.4,7.2s-8.8,0-8.7-8.8c0-3.1-.9-4.3-4-3.8a17.8,17.8,0,0,1-4,0c-2.5-.3-3.3.6-3.4,3.3-.4,13.1,1.5,16.2,13.9,21.3,1.4.6,2.8,1,3.3,2.7,2,6.6-.4,11.9-6.7,14.4s-10.4,7.3-10.4,15.2.1,13.3-.1,20c-.1,2.8.5,4.1,3.8,4,9.5-.2,19-.1,28.5,0,3,.1,4-.7,3.9-3.8-.2-6.7-.1-13.4,0-20s3.3-9.2,10.7-9.2,11,2.8,11,9.1.1,13.7,0,20.5c0,2.6.7,3.5,3.4,3.4,9.8-.1,19.7-.1,29.5.1,2.6,0,3.4-.9,3.4-3.5-.2-7.3.1-14.6-.1-22-.2-5.3-2.4-10.7-7.2-12.2-8-2.3-11.4-6.7-10.9-14.7ZM384,309.2c4.7,0,9.4-.3,14,0s4.5-1.1,4.3-4.5c-.2-6.1-.1-12.3-.1-18.5,0-9.2-2.6-13.8-11.4-16.3-6.4-1.9-5.6-6-5.9-10.7s2.4-5.8,5.8-7.1c8.7-3.2,11.6-7.3,11.5-16.5s1.6-7.1-7.4-7.4c-3-.1-4,.8-4,3.9,0,8.8-.1,8.8-9,8.8h-2c-4.8.8-6.1-1.3-5.9-5.9.4-7.4.1-7.3-7.5-6.9-2.3.2-3.1.9-3.2,3.3-.6,9.5-.7,9.5-10.4,9.5h-1c-3.9.5-5.1-1.4-4.7-4.9.1-1.7,0-3.4,0-5s.1-2.5-1-2.6c-3.1-.1-6.5-.5-9.4.3s-.8,3.6-.8,5.5c-.1,6.7,0,6.7-6.9,6.7-9,0-9.2,0-9.2-8.8-.1-3-1-4.2-4-3.9a22.6,22.6,0,0,1-4.5.1c-2.4-.2-3.1.9-3.2,3.2-.7,12.3,2.2,17,13.5,21.2,1.8.7,3.4,1.3,4,3.3,2,6.5-.4,11.4-6.7,13.9s-10.7,7.7-10.7,15.6.1,13-.1,19.5c-.1,2.8.4,4.2,3.8,4.1,9.6-.2,19.3-.2,28.9,0,3.1,0,3.6-1.1,3.6-3.8-.2-5.8-.1-11.7-.1-17.5,0-9.4,5.6-13.6,14.9-11.2,4.6,1.2,7.2,3.5,6.9,8.7s.2,12.4-.1,18.5c-.2,4,.6,5.8,5,5.3A112.8,112.8,0,0,1,384,309.2Z" style="fill:#010101"/><path d="M394,505.8c0-10.6.1-21.3-.1-32,0-2.7.7-3.7,3.6-3.6,17.3.1,34.6,0,52,0,5.8.1,9.2,4.4,7.3,10.2-5.7,17.6-11.5,35.2-17.7,52.6-2.1,5.8-7.6,7.8-13.3,8-9.5.2-19-.1-28.5.1-3.2.1-3.4-1.3-3.4-3.8C394,526.8,394,516.3,394,505.8Z" style="fill:#fcfcfc"/><path d="M394,666.1q0-45.5-.1-90.9c0-3,1-3.5,3.7-3.4,6.7.1,13.3,0,20,0s7.7,2.8,5.7,8.8q-7.8,23.9-15.8,47.6c-4.2,12.7-8.5,25.3-12.7,38Z" style="fill:#fcfcfc"/><path d="M316.7,506c0,10.4-.1,20.7,0,31,.1,2.8-.3,4.2-3.7,4.1-11.9-.2-23.9-.1-35.9,0-2.4,0-3.5-.7-4.2-3.1-6.2-19-12.7-38-19-57-2.1-6.6,1-10.8,7.9-10.8,16.8,0,33.6.1,50.4-.1,3.5,0,4.6.9,4.6,4.5C316.5,485,316.7,495.5,316.7,506Z" style="fill:#fcfcfc"/><path d="M481.8,342.3v.3c-.5,8,2.9,12.4,10.9,14.7,4.8,1.5,7,6.9,7.2,12.2.2,7.4-.1,14.7.1,22,0,2.6-.8,3.5-3.4,3.5-9.8-.2-19.7-.2-29.5-.1-2.7.1-3.4-.8-3.4-3.4.1-6.8.1-13.7,0-20.5s-3.5-9.1-11-9.1-10.7,2.8-10.7,9.2-.2,13.3,0,20c.1,3.1-.9,3.9-3.9,3.8-9.5-.1-19-.2-28.5,0-3.3.1-3.9-1.2-3.8-4,.2-6.7,0-13.4.1-20s3-12.3,10.4-15.2,8.7-7.8,6.7-14.4c-.5-1.7-1.9-2.1-3.3-2.7-12.4-5.1-14.3-8.2-13.9-21.3.1-2.7.9-3.6,3.4-3.3a17.8,17.8,0,0,0,4,0c3.1-.5,4,.7,4,3.8-.1,8.8.1,8.8,8.7,8.8s7.2,0,7.4-7.2c0-1.7-1.3-4.6,1.2-5.1a21.3,21.3,0,0,1,9.4.1c1.8.4.8,2.9.9,4.5.1,8.1-1.3,7.7,7.8,7.7,1.5,0,3-.1,4.5,0s4.1-1,3.8-3.8v-2c0-6.5,3.4-8.7,9.8-6.8,2.3.7,1.4,2.4,1.4,3.6.4,9,.3,9,9.2,9,7.1-.1,7-.1,7.2-7.5,0-1.7-1.2-4.4,1-4.8a21.6,21.6,0,0,1,9.8.1c.3.1.5.8.6,1.3,2.5,9.3-2.3,18.5-11.5,22-2.6,1-5.4,1.7-6.6,4.6m-7.8,4.5v-8c-.1-4.8-2.1-7-6.4-7s-6.2,2.2-6.2,7.1.3,9.1-.1,13.5,1.2,6.3,6,5.9c6.7-.4,6.7-.1,6.7-7Zm-29.9-.5v-8.5c.1-4.2-2.4-5.9-6.2-6s-6.3,1.8-6.3,6,0,9,0,13.4c0,6.9.1,6.5,6.8,7,5,.4,6.5-1.3,5.8-6A38.8,38.8,0,0,1,444.1,346.3Zm44,14.4-.2-.6h-72v.6Zm-78.3,11.6v.4h29.1v-.4Zm56.9,0v.4h28.7v-.4Z" style="fill:#f6bd0c"/><path d="M384,309.1c-4.3,0-8.7-.3-13,.1s-5.2-1.3-5-5.3c.3-6.1-.2-12.3.1-18.5s-2.3-7.5-6.9-8.7c-9.3-2.4-14.9,1.8-14.9,11.2,0,5.8-.1,11.7.1,17.5,0,2.7-.5,3.8-3.6,3.8-9.6-.2-19.3-.2-28.9,0-3.4.1-3.9-1.3-3.8-4.1.2-6.5,0-13,.1-19.5s3.4-12.7,10.7-15.6,8.7-7.4,6.7-13.9c-.6-2-2.2-2.6-4-3.3-11.3-4.2-14.2-8.9-13.5-21.2.1-2.3.8-3.4,3.2-3.2a22.6,22.6,0,0,0,4.5-.1c3-.3,3.9.9,4,3.9,0,8.8.2,8.8,9.2,8.8,6.9,0,6.8,0,6.9-6.7,0-1.9-1-4.9.8-5.5s6.3-.4,9.4-.3c1.1.1,1,1.6,1,2.6s.1,3.3,0,5c-.4,3.5.8,5.4,4.7,4.9h1c9.7,0,9.8,0,10.4-9.5.1-2.4.9-3.1,3.2-3.3,7.6-.4,7.9-.5,7.5,6.9-.2,4.6,1.1,6.7,5.9,5.9h2c8.9,0,9,0,9-8.8,0-3.1,1-4,4-3.9,9,.3,7.3-.8,7.4,7.4s-2.8,13.3-11.5,16.5c-3.4,1.3-6.2,2.3-5.8,7.1s-.5,8.8,5.9,10.7c8.8,2.5,11.4,7.1,11.4,16.3,0,6.2-.1,12.4.1,18.5.2,3.4-.6,4.8-4.3,4.5S388.7,309.2,384,309.1Zm-20.1-48.7v3.5c0,9.5.5,9.8,10,8.7,1.9-.2,2.6-.9,2.6-2.7-.1-6.2.1-12.3-.1-18.4-.2-4-3-5.4-6.5-5.3s-6,1.7-6,5.8Zm-29.9.3c0,12.6,0,12.5,9.3,11.9,2.6-.1,3.5-1,3.5-3.5-.2-5.7,0-11.3-.1-17-.1-4.1-2.6-6-6.5-6s-6.3,1.9-6.2,6.2Zm64.2,26.7v-.8H369v.8Zm-56.8.2v-.9H312.5v.9Zm20-30.1v-.6H349.6v.6Z" style="fill:#f6bd0c"/><path d="M474,346.8v4.5c0,6.9,0,6.6-6.7,7-4.8.4-6.5-1-6-5.9s0-9,.1-13.5,2-7.1,6.2-7.1,6.3,2.2,6.4,7Z" style="fill:#010101"/><path d="M444.1,346.3a38.8,38.8,0,0,0,.1,5.9c.7,4.7-.8,6.4-5.8,6-6.7-.5-6.8-.1-6.8-7,0-4.4.1-8.9,0-13.4s2.4-6,6.3-6,6.3,1.8,6.2,6Z" style="fill:#010101"/><path d="M488.1,360.7H415.9v-.6h72Z" style="fill:#010101"/><ellipse cx="424.3" cy="372.5" rx="20.6" ry="0.3" style="fill:#010101"/><ellipse cx="481" cy="372.5" rx="20.2" ry="0.3" style="fill:#010101"/><path d="M266.3,346.2c0-2.8-.1-5.7,0-8.5s2.6-6,6.5-5.8,6.2,1.9,6.2,6.1c-.1,5.7-.1,11.3,0,17,0,2.2-.6,3.1-3,3.3-9.8.7-9.7.8-9.7-9.1Z" style="fill:#010101"/><path d="M236,342.6v-.2a32.7,32.7,0,0,0,.4-4.4c.1-4.4,2.6-6.3,6.7-6.2s6.1,2.2,6,6.3c-.1,5.7-.1,11.3,0,16.9.1,2.4-.7,3-3.1,3.1-9.6.4-9.5.5-9.6-9.1C236.4,346.9,236.8,344.7,236,342.6Z" style="fill:#010101"/><path d="M222,360h72.1v.7h-72Z" style="fill:#010101"/><ellipse cx="229.3" cy="372.5" rx="20.7" ry="0.3" style="fill:#010101"/><path d="M272,372.3h28.2v.4H271.9Z" style="fill:#010101"/><path d="M363.9,260.4V252c0-4.1,2.5-5.7,6-5.8s6.3,1.3,6.5,5.3c.2,6.1,0,12.2.1,18.4,0,1.8-.7,2.5-2.6,2.7-9.5,1.1-10,.8-10-8.7Z" style="fill:#010101"/><path d="M334,260.7v-8.4c-.1-4.3,2.5-6.1,6.2-6.2s6.4,1.9,6.5,6c.1,5.7-.1,11.3.1,17,0,2.5-.9,3.4-3.5,3.5C334,273.2,334,273.3,334,260.7Z" style="fill:#010101"/><path d="M398.2,287.4H369v-.8h29.2Z" style="fill:#010101"/><path d="M341.4,287.6H312.6v-.9h28.8Z" style="fill:#010101"/><path d="M361.4,257.5H349.6v-.6h11.8Z" style="fill:#010101"/><rect x="327" y="256.9" width="5.7" height="0.7" style="fill:#010101"/><rect x="377.8" y="256.9" width="5.7" height="0.7" style="fill:#010101"/><rect x="319.8" y="274" width="72.5" height="0.7" style="fill:#010101"/><path d="M290.9,354.3c-5-1.4-3.2-5.5-3.4-8.6s-.5-6,3.6-7.2c13-3.7,14.2-11.2,13.8-21.4,0-2.3-.6-3.4-3.1-3.1a17,17,0,0,1-4.5-.1c-3.3-.5-4.1,1-4.1,4.2.1,8.4-.1,8.4-8.5,8.5a20.9,20.9,0,0,0-2.5,0c-4,.6-5.6-1.1-5.1-5.1a26.7,26.7,0,0,0,0-4.9c0-1,.3-2.4-1-2.5-3.2-.1-6.5-.7-9.4.3s-1,4-.7,6c.7,5.2-1.6,6.5-6.5,6.3-9.3-.4-9.3-.1-9.8-9.4-.1-1.4.5-2.9-1.8-3.3-7.5-1.6-9.6,0-9.7,7.5a7.5,7.5,0,0,0,0,1.5c.2,2.6-1,4-3.5,3.5-4.2-.8-9.2,2.6-12.6-2.3-.3-.4-.1-1.3-.1-2a20.8,20.8,0,0,1,.1-3.5c.7-4-1.1-5.3-4.9-4.7a17.8,17.8,0,0,1-4,0c-1.7-.1-2.2.6-2.4,2.3-1.6,11.8,1.8,17.7,12.9,22,2.1.7,4.3,1.2,4.4,4v.4c1.3,7.4-1.2,11.8-9,14-5.7,1.6-8.2,7-8.3,13s.1,14.4,0,21.5c-.1,2.8.7,3.8,3.6,3.7h29c2.9.1,3.6-.9,3.6-3.7-.2-6.8-.1-13.7-.1-20.5s3.4-8.8,10.6-8.8,11.1,2.8,11.2,8.9.1,13.4-.1,20c0,2.8.4,4.2,3.8,4.2,9.6-.3,19.3-.2,28.9,0,3,0,3.7-1.1,3.6-3.8-.1-5.3-.2-10.7,0-16C305.4,364.3,302.8,357.7,290.9,354.3Zm-24.6-16.6c.1-4.1,2.6-6,6.5-5.8s6.2,1.9,6.2,6.1c-.1,5.7-.1,11.3,0,17,0,2.2-.6,3.1-3,3.3-9.8.7-9.7.8-9.7-9.1v-3C266.3,343.4,266.2,340.5,266.3,337.7Zm-23.2-5.9c4,.2,6.1,2.2,6,6.3-.1,5.7-.1,11.3,0,16.9.1,2.4-.7,3-3.1,3.1-8.3.4-9.4.5-9.5-5.7v-4.7c0-1.1.1-2.1,0-3.1V338C236.5,333.6,239,331.7,243.1,331.8Zm-28.4,40.9v-.4H244v.4Zm7.4-12a2,2,0,0,0-.1-.7h72.1v.7Zm49.8,12v-.4h28.2v.4Z" style="fill:#f6bd0c"/><rect x="229.4" y="344.9" width="5.7" height="0.7" style="fill:#010101"/><rect x="280.3" y="344.9" width="5.7" height="0.7" style="fill:#010101"/><rect x="252.2" y="344.9" width="11.1" height="0.7" style="fill:#010101"/><rect x="423.6" y="342.9" width="5.7" height="0.7" style="fill:#010101"/><rect x="474.5" y="342.9" width="5.7" height="0.7" style="fill:#010101"/><rect x="446.4" y="342.9" width="11.1" height="0.7" style="fill:#010101"/></g></g></svg>