<?xml version="1.0" encoding="utf-8"?>
<!-- Generator: Adobe Illustrator 22.0.1, SVG Export Plug-In . SVG Version: 6.00 Build 0)  -->
<svg version="1.2" baseProfile="tiny" id="Capa_1" xmlns="http://www.w3.org/2000/svg" xmlns:xlink="http://www.w3.org/1999/xlink"
	 x="0px" y="0px" viewBox="0 0 400 400" xml:space="preserve">
<g>
	<path fill="#FFFFFF" d="M52.7,257.7c0.2,17.9,8.7,35,22.8,45.7l115.9,87.9l8.9,6.8l8.9-6.8l115.9-88c14.2-10.8,22.8-27.8,22.8-45.7
		v-216c0-15.4-10.5-20.1-25.3-24c-21.9-5.7-66.7-15.2-122.3-15.2S99.9,11.8,78,17.6c-14.9,3.9-25.3,8.6-25.3,24"/>
	<g>
		<path fill="#B03828" d="M99.2,249.3L84,260.8l-16,12.3c2.8,7.8,7.5,14.8,14.2,19.7l0,0l16.9,12.8L99.2,249.3L99.2,249.3z"/>
		<polygon fill="#B03828" points="139.6,218.3 139.6,218.3 139.6,336.4 180,367.1 180,187.4 		"/>
		<polygon fill="#B03828" points="261,125.4 261,125.4 220.5,156.4 220.5,367.2 220.5,367.2 261,336.5 		"/>
		<g>
			<path fill="#B03828" d="M335.4,235V68.4l-9.2,7.1l-24.8,19v211.4l17.1-13l0,0c2.9-2.2,5.5-4.8,7.8-7.7c5.8-7.5,9.2-16.8,9.2-26.4
				V235z"/>
			<path fill="#2E3361" d="M326.3,285.2c-2.2,2.8-4.9,5.4-7.8,7.7l0,0c0,0,0,0-0.1,0.1l-118.1,89.4L82.3,292.9l0,0l0,0
				c-6.6-5-11.5-11.9-14.2-19.7l16-12.3l15.2-11.6l40.5-31l40.5-31l40.5-31l40.5-31l40.5-31l34-26v190.3
				C335.4,268.5,332.1,277.7,326.3,285.2 M65,247.1l3.5-10.8l-9.2-6.7h11.4l3.5-10.8l0,0l0,0l3.5,10.8h11.4l-9.2,6.7l3.5,10.8l0,0
				l0,0l-9.4-6.7L65,247.1L65,247.1L65,247.1z M89.1,132.2l-9.2,6.7l3.5,10.8l-9.3-6.7l-9.2,6.7l3.5-10.8l-9.2-6.7h11.4l3.5-10.8
				l0,0l0,0l3.5,10.8H89.1L89.1,132.2L89.1,132.2z M59.3,40.1h11.4l3.5-10.8l0,0l3.5,10.8h11.4l-9.2,6.7l3.5,10.8l-9.3-6.7L65,57.6
				l0,0l3.5-10.8L59.3,40.1L59.3,40.1z M174.5,168.1l-9.2,6.7l3.5,10.8l0,0l0,0l-9.2-6.7l-9.2,6.7l3.5-10.8l-9.2-6.7h11.4l3.5-10.8
				l0,0l3.5,10.8H174.5z M94.5,55.2L94.5,55.2c4.2-1,8.9-2,14.1-3.1c4.1-0.8,8.4-1.7,13.1-2.4c0.1,1.1,0.3,2.2,0.6,3.2
				c0,0.1,0,0.1,0.1,0.2c0,0.1,0,0.1,0.1,0.2c3.4,10.3,17.2,15.6,29.9,11.9c2.4,4.8,8.1,9,16,10.1c5.3,0.7,11.7,0.1,18.7-2.8v52.5
				l-48.6,36.9l0,0c0.2-1.2,0.2-2.4,0.2-3.8v-0.4c0-0.2,0-0.6,0-0.8v-0.3c5.3-3.3,10-9.7,12.3-17.8c1-3.6,1.5-7.2,1.4-10.5
				c-0.9,0.4-2,0.7-3,0.9c-2.6,0.5-4.8,0.3-4.8,0.3l0,0c4.2-0.3,7.3-2,9.4-3.5c0.6-0.5,1.3-1.1,1.9-1.8c4.2-4.3,7-9.3,8.6-15
				l7.9-27.9c-4.2-0.4-8.2,1.6-10.5,5.1l-3.9,6.1l-3.8,6c-0.9,1.4-2.4,2.8-4.1,3.7c-2.7-2-4.7-3.7-6.4-5c-0.2-0.2-0.5-0.4-0.7-0.6
				l-2.5-10.5l3.6-6.5c1-1.9,1.4-4.1,1-6.1c-0.2-1.3-0.7-2.5-1.5-3.6c-0.6-0.9-1.8-1.1-2.8-0.6l-9.2,5.9c-0.2-0.2-0.5-0.5-0.8-0.6
				c-0.6-0.4-1.2-0.5-1.8-0.3c-0.9,0.2-2,0.8-3.1,1.6l-2.4,1.7l-3.5,2.5l-2.7-0.1l-1.9-0.1c-1.8,0-2.5,3.3-0.9,5.7
				c1.4,2,2.5,4.6,3.2,7.7c0,0.1,0,0.1,0,0.2c0.1,0.2,0.1,0.5,0.2,0.7c0.1,0.2,0.1,0.4,0.2,0.6c0.6,2.9,0.9,6.2,0.9,9.9
				c0,8.3-4.5,25.9-10.1,37.4c-0.3,0.5-0.6,1-0.9,1.5l-4.3,7.2c-0.7,1-0.6,2.6,0.3,3.8c0.6,0.8,1.5,1.4,2.8,1.4
				c0,0,3.5,4.3,4.6,12.7c0.5,3.8,0.5,8.5-0.6,13.9l-8.2,6.2l-8.6,6.6L94.5,55.2z M182.2,24.3h11.4l3.5-10.8l3.5,10.8h11.4l0,0l0,0
				l-9.2,6.7l3.5,10.8l-9.2-6.7l-9.2,6.7l3.5-10.8L182.2,24.3z M248.3,128.2L248.3,128.2L248.3,128.2l-9.2-6.7l-9.2,6.7l0,0
				l3.5-10.8l-9.2-6.7h11.4l3.5-10.8l3.5,10.8h11.4l0,0l0,0l-9.2,6.7L248.3,128.2z M232.9,72.4c3.1-2,5.1-4.7,6.4-7.4
				c13.2,3.9,27.9-4.3,24.4-17.6c1.1,0.2,2.1,0.3,3.2,0.5c3.1,0.5,6.2,0.9,9.1,1.4c3,0.5,5.8,1,8.6,1.5l0,0l-77.6,58.9V69.4
				C219.4,76.5,227.7,75.8,232.9,72.4 M314,40.1l3.5-10.8l0,0l3.5,10.8h11.4l-9.2,6.7l3.5,10.8l0,0l0,0l-9.4-6.7l-9.2,6.7l0,0l0,0
				l3.5-10.8l-9.2-6.7H314z M348,41.5c0-15.4-10.5-20.1-25.3-24C300.8,11.9,256,2.3,200.4,2.3S99.9,11.8,78.1,17.6
				c-14.9,3.9-25.3,8.6-25.3,24v216v0.1v0.1c0.2,17.9,8.7,35,22.8,45.7l115.9,87.9l8.9,6.8l8.9-6.8l115.9-88
				c14.2-10.8,22.8-27.8,22.8-45.7L348,41.5z"/>
		</g>
	</g>
</g>
<g>
</g>
<g>
</g>
<g>
</g>
<g>
</g>
<g>
</g>
<g>
</g>
<g>
</g>
<g>
</g>
<g>
</g>
<g>
</g>
<g>
</g>
<g>
</g>
<g>
</g>
<g>
</g>
<g>
</g>
</svg>
