<svg xmlns="http://www.w3.org/2000/svg" width="424" height="567" viewBox="0 0 424 567">
  <g fill="none" transform="translate(-1)">
    <path fill="#AD8F1F" d="M310.68246,172.37194 C310.10946,172.26494 309.55846,172.16794 308.98946,172.06194 C308.25046,162.50294 300.27846,154.97394 290.53146,154.97394 C282.97146,154.97394 276.48146,159.50694 273.60046,165.99894 C258.35446,163.68994 243.92646,162.03594 230.26246,161.28394 C227.96546,153.65794 220.89746,148.09794 212.52246,148.09794 C204.14746,148.09794 197.07746,153.65794 194.78346,161.28394 C181.11946,162.03594 166.69046,163.68994 151.44746,165.99894 C148.56646,159.50694 142.07446,154.97394 134.51446,154.97394 C124.76746,154.97394 116.79746,162.50294 116.05746,172.05994 C115.48646,172.16694 114.93446,172.26394 114.36146,172.37094 C69.492466,183.82594 28.021466,195.76894 0.9864659,203.24794 C20.548466,371.24594 134.10546,501.71694 212.52146,566.85194 C290.93746,501.71694 404.49446,371.24594 424.05646,203.24794 C397.02146,195.76894 355.55046,183.82594 310.68246,172.37194 Z"/>
    <path fill="#16274C" d="M400.49646,208.76494 C374.70446,201.53894 342.62546,192.55394 308.16946,183.75294 C307.51246,183.62894 306.84446,183.51094 306.18546,183.38894 C303.91746,186.97494 300.45846,189.72794 296.35546,191.08594 L296.35546,239.26894 C303.73246,241.71094 309.06246,248.65394 309.06246,256.85294 C309.06246,265.05094 303.73346,271.99294 296.35546,274.43494 L296.35546,287.67194 C296.35546,303.28994 294.08246,317.75094 290.29446,331.00294 C293.62546,334.35294 295.68646,338.96894 295.68646,344.06794 C295.68646,354.19194 287.56446,362.40494 277.48346,362.58094 C263.88146,387.94894 245.37946,406.42294 230.47646,416.86594 C230.83746,418.31094 231.05146,419.81594 231.05146,421.37394 C231.05146,431.60694 222.75646,439.90294 212.52246,439.90294 L212.52246,551.57194 C261.59446,509.19294 386.80646,385.58194 411.13846,211.73494 C405.82446,210.25194 400.49646,208.76494 400.49646,208.76494 L400.49646,208.76494 Z"/>
    <path fill="#AD272B" d="M193.99246,421.37294 C193.99246,419.81494 194.20546,418.31094 194.56646,416.86494 C179.66246,406.42194 161.16246,387.94794 147.56246,362.57994 C137.47946,362.40394 129.35746,354.19094 129.35746,344.06694 C129.35746,338.96794 131.41946,334.35194 134.75046,331.00194 C130.96246,317.74994 128.68946,303.28994 128.68946,287.67194 L128.68946,274.43394 C121.31246,271.99094 115.98346,265.04894 115.98346,256.85194 C115.98346,248.65294 121.31246,241.71094 128.68946,239.26794 L128.68946,191.08494 C124.58746,189.72594 121.12846,186.97494 118.85946,183.38794 C118.19846,183.50994 117.53146,183.62894 116.87346,183.75194 C82.418466,192.55294 50.339466,201.53794 24.546466,208.76394 C24.546466,208.76394 19.217466,210.25094 13.906466,211.73394 C38.237466,385.58194 163.44946,509.19194 212.52146,551.57194 L212.52146,439.90194 C202.28746,439.90194 193.99246,431.60594 193.99246,421.37294 L193.99246,421.37294 Z"/>
    <path fill="#FFF" d="M140.33646,191.08494 L140.33646,239.26794 C147.71446,241.71094 153.04246,248.65294 153.04246,256.85194 C153.04246,265.04894 147.71446,271.99094 140.33646,274.43394 L140.33646,287.67194 C140.33646,301.20694 142.25646,313.92094 145.48846,325.70894 C146.27446,325.60794 147.07146,325.53694 147.88646,325.53694 C158.11946,325.53694 166.41746,333.83294 166.41746,344.06694 C166.41746,350.12494 163.49646,355.48894 158.99946,358.86894 C171.23846,381.04194 187.37946,397.61594 200.76146,407.05494 C203.96046,404.42394 208.05546,402.84394 212.52046,402.84394 C216.98546,402.84394 221.07946,404.42394 224.27746,407.05294 C237.65946,397.61494 253.80246,381.04194 266.04446,358.86894 C261.54646,355.48894 258.62446,350.12494 258.62446,344.06694 C258.62446,333.83294 266.92246,325.53694 277.15546,325.53694 C277.97046,325.53694 278.76746,325.60794 279.55446,325.70894 C282.78546,313.91994 284.70646,301.20594 284.70646,287.67094 L284.70646,274.43394 C277.33046,271.99094 272.00146,265.04894 272.00146,256.85194 C272.00146,248.65394 277.33046,241.71194 284.70646,239.26794 L284.70646,191.08494 C278.60046,189.06294 273.90946,183.95494 272.47246,177.60394 C258.02046,175.40494 243.67146,173.67394 229.93946,172.89694 C227.36846,180.04294 220.55146,185.15994 212.52146,185.15994 C204.48746,185.15994 197.66846,180.03694 195.09946,172.88894 C181.40346,173.66194 167.04846,175.39694 152.57246,177.60194 C151.13646,183.95394 146.44446,189.06194 140.33646,191.08494 L140.33646,191.08494 Z"/>
    <path fill="#AD8F1F" d="M171.57846 291.44194C168.89846 291.50294 167.06046 293.10994 166.51546 294.46094L162.93846 304.73694C162.93846 304.73694 160.99746 312.77194 169.08646 314.59594 169.08646 314.59594 170.50346 309.97694 171.78246 306.10894 171.78246 306.10894 172.38646 302.41994 175.47146 302.41994L183.56246 302.50194C183.56246 302.50194 185.48946 302.78894 186.03946 301.45094L186.04546 291.110929C186.04646 291.10894 174.52546 291.37894 171.57846 291.44194zM258.88946 254.74794C254.80646 250.70494 249.88846 246.33594 243.50446 246.43094 238.41746 246.50594 236.18646 248.50594 234.71946 251.28294 233.35746 253.85394 232.65746 257.66394 237.01746 262.02194 240.76546 265.76994 247.16746 268.95094 247.16746 274.49594 247.16746 278.30694 244.34246 278.07594 244.34246 278.07594L214.81046 277.44994 219.18246 285.84394 206.80046 286.02194 206.64046 298.75394 196.30646 291.01094 187.62846 300.66294 185.87746 321.46194C185.87746 321.46194 186.01046 322.94094 183.59846 322.94094L178.91146 322.94094C178.91146 322.94094 176.49746 326.25294 176.49746 330.39394L191.50146 330.18394C191.50146 330.18394 192.15846 329.76994 194.17946 326.04294 196.89046 321.04294 204.24546 308.16294 204.24546 308.16294 204.24546 308.16294 204.16646 302.28694 204.22646 302.00794 204.22646 302.00794 206.37446 303.65594 206.77946 303.69794L206.77946 306.53694C206.77946 306.53694 217.39946 299.41294 227.32146 302.97594 227.32146 302.97594 240.85346 306.60294 243.10946 316.10294L244.22246 322.66394C244.22246 322.66394 238.38646 322.17994 237.36846 324.47394 237.36846 324.47394 235.90546 327.75994 235.90546 330.12594 235.90546 330.12594 248.94146 330.12594 252.13446 330.12594L255.41346 322.66494 252.45146 305.90994C252.45146 305.90994 243.10946 297.09494 243.50346 288.29794 243.50346 288.29794 253.34046 287.48994 253.34046 276.34594 253.34046 265.20194 243.62946 260.53694 240.53146 258.23994 238.13046 255.83894 238.30046 253.60794 239.84646 252.06394 242.22846 249.68194 246.74646 252.03594 246.74646 253.36294 246.74646 253.36294 247.42946 258.61694 254.02046 262.42994L255.53846 260.63794C255.53846 260.63794 256.68946 262.60094 262.23646 262.60094 262.23846 262.59994 262.96946 258.78994 258.88946 254.74794L258.88946 254.74794z"/>
    <path fill="#AD8F1F" d="M217.88746 304.23494L219.82946 310.48394C219.82946 315.87594 216.21446 322.66194 216.21446 322.66194L208.73146 322.66194C208.73146 322.66194 205.51846 324.94594 205.51846 330.12294L220.87146 330.12294 231.31746 318.51794C231.31746 318.51794 233.57446 316.64994 233.90746 314.94494 234.39146 312.44594 235.20146 308.87594 235.20146 308.87594 226.13846 302.80494 217.88746 304.23494 217.88746 304.23494L217.88746 304.23494zM218.89646 276.48294L213.91746 269.02994 213.91746 259.68894C213.91746 256.13694 212.39346 254.95194 212.39346 254.95194 212.39346 254.95194 204.88546 246.92194 203.36146 245.23994 201.95046 243.68294 199.69146 243.88794 199.36546 243.92694 199.41246 243.83694 199.46746 243.51194 199.46746 242.43894 199.46746 240.57094 197.77646 240.94594 197.77646 240.94594 197.77646 240.94594 189.98946 241.13194 189.98946 240.19794 189.98946 240.19794 189.65046 237.39594 186.94346 238.70494 184.23546 240.00894 177.06546 248.97594 173.67946 252.52494 170.29446 256.07394 171.81846 257.19394 171.81846 257.19394L174.52646 261.74494 178.90446 258.43294C178.90446 258.43294 180.62746 257.20394 182.61646 259.00394L176.03046 264.14894C176.87546 265.82994 178.08146 265.66694 178.08146 265.66694L183.83646 265.66694 185.92846 270.06594 190.18246 270.06594 190.18246 262.22194 192.55046 262.22194 192.55046 254.39094 193.88246 254.39094 193.88246 263.98394 191.51346 263.98394 191.51346 271.83094 185.75946 271.83094 175.33646 281.57994 182.82546 281.41694 179.02746 289.87794 187.38946 290.12294 187.32746 299.01494 196.27146 288.97894 205.15846 295.61694 205.15846 284.22794 216.68746 284.19094 212.10346 276.52194 218.89646 276.48294 218.89646 276.48294z"/>
    <path fill="#FFF" d="M183.29546,248.83094 C182.33946,249.10194 181.71446,249.63194 181.55346,249.79494 C180.77746,250.57094 182.35846,251.77994 183.35246,251.77994 C184.34546,251.77994 185.15146,250.89194 185.15146,249.79494 C185.15246,248.69794 185.33146,248.25994 183.29546,248.83094 L183.29546,248.83094 Z"/>
    <polygon fill="#D91A21" points="193.338 227.183 192.033 226.001 190.727 227.183 192.033 228.365"/>
    <circle cx="200.284" cy="227.847" r="1" fill="#AD8F1F"/>
    <circle cx="183.782" cy="227.847" r="1" fill="#AD8F1F"/>
    <polygon fill="#D91A21" points="207.349 230.816 208.079 228.57 208.355 229.833"/>
    <polygon fill="#D91A21" points="176.714 230.816 175.984 228.57 175.708 229.833"/>
    <path fill="#AD8F1F" d="M192.03646 228.69294C189.70146 228.75394 181.70546 229.10794 176.69046 231.12794L176.63046 231.15194 176.64446 231.21494C177.05446 232.99394 177.06246 232.99794 177.10546 233.01894L177.13546 233.03394 177.16646 233.02194C182.92146 230.82694 190.55746 230.53194 192.03446 230.49494 193.51046 230.53194 201.14446 230.82694 206.90046 233.02194L206.93046 233.03294 206.95946 233.01894C207.00446 232.99794 207.00946 232.99494 207.41946 231.21394L207.43446 231.15094 207.37446 231.12694C202.36146 229.10694 194.36746 228.75294 192.03646 228.69294L192.03646 228.69294zM208.47646 226.41794C203.13646 224.26794 194.00746 223.86894 192.03346 223.88594 190.06146 223.86894 180.93046 224.26794 175.58946 226.41894 175.51946 226.44994 175.51946 226.44994 175.92846 228.18094L175.94846 228.26494 176.02946 228.23394C181.62446 226.09794 189.66046 225.66794 192.03446 225.68594L192.03646 225.68594C194.41046 225.66794 202.44546 226.09794 208.03746 228.23394L208.11846 228.26494 208.13846 228.18094C208.54746 226.44694 208.54746 226.44694 208.47646 226.41794L208.47646 226.41794z"/>
    <path fill="#AD8F1F" d="M210.19846,219.48794 C209.83346,218.95194 209.21646,218.59994 208.52746,218.59994 C207.43246,218.59994 206.54846,219.48494 206.54846,220.57794 C206.54846,221.22794 206.86146,221.77494 207.34446,222.13294 C207.34446,222.13294 207.89846,222.47794 208.01246,222.70894 C208.17946,223.05594 208.02346,223.29194 207.67046,223.34994 C207.31646,223.40594 203.97046,222.27594 202.27646,222.09494 C201.88946,222.05694 201.92646,221.40694 202.74446,221.57994 C203.56146,221.75494 204.36746,221.23294 204.54046,220.41294 C204.71546,219.59594 204.19046,218.79194 203.37346,218.61694 C203.44846,218.48394 203.54046,218.34194 203.57546,218.18594 C203.76246,217.30794 203.20246,216.44794 202.32746,216.25994 C201.45146,216.07594 200.59046,216.63494 200.40346,217.50994 C200.37146,217.66894 200.36346,217.82494 200.37546,217.97894 C199.55846,217.80394 198.78946,218.33494 198.61446,219.15494 C198.44246,219.97294 198.98046,220.71094 199.78146,220.95094 C200.47046,221.15594 200.20746,221.65894 199.82546,221.63594 C199.55046,221.61494 195.18546,221.24694 193.95146,221.21194 C193.30746,221.15594 193.03346,219.99594 194.26746,219.99594 C195.49946,219.99594 196.49846,218.99494 196.49846,217.75994 C196.49846,216.52794 195.49946,215.52694 194.26746,215.52694 C194.33046,215.30994 194.42646,215.07994 194.42646,214.84194 C194.42646,213.52094 193.35546,212.44994 192.03346,212.44994 C190.71246,212.44994 189.64246,213.52094 189.64246,214.84194 C189.64246,215.07894 189.73446,215.30994 189.80146,215.52694 C188.56746,215.52694 187.56646,216.52794 187.56646,217.75994 C187.56646,218.99394 188.56746,219.99594 189.80146,219.99594 C191.03446,219.99594 190.75946,221.15594 190.11546,221.21194 C188.88046,221.24694 184.51646,221.61494 184.24046,221.63594 C183.86046,221.65894 183.59646,221.15594 184.28546,220.95094 C185.08746,220.71094 185.62646,219.97294 185.45246,219.15494 C185.27846,218.33494 184.50846,217.80394 183.69046,217.97894 C183.70246,217.82494 183.69846,217.66894 183.66446,217.50994 C183.47746,216.63494 182.61646,216.07494 181.74046,216.25994 C180.86546,216.44794 180.30446,217.30794 180.49046,218.18594 C180.52446,218.34194 180.61846,218.48394 180.69346,218.61694 C179.87546,218.79194 179.35346,219.59594 179.52646,220.41294 C179.69946,221.23294 180.50546,221.75394 181.32146,221.57994 C182.13946,221.40794 182.17546,222.05794 181.78946,222.09494 C180.09546,222.27594 176.74846,223.40594 176.39546,223.34994 C176.04246,223.29194 175.88546,223.05694 176.05446,222.70894 C176.16846,222.47894 176.72246,222.13294 176.72246,222.13294 C177.20546,221.77494 177.51746,221.22794 177.51746,220.57794 C177.51746,219.48494 176.63246,218.59994 175.53846,218.59994 C174.84946,218.59994 174.23246,218.95194 173.86846,219.48794 C172.97346,215.97994 169.38146,217.76894 169.38146,217.76894 L171.23146,220.76394 C171.65046,220.46094 172.29646,220.50994 172.69546,220.90894 C173.14846,221.36294 173.14846,222.09694 172.69546,222.54894 C172.62046,222.62594 172.53646,222.68894 172.44746,222.73994 L174.01046,225.26894 C174.01046,225.26894 174.46346,226.45194 176.45246,225.69494 C181.49146,223.77794 189.80346,223.43394 192.03246,223.45194 C194.26146,223.43294 202.57146,223.77794 207.61146,225.69494 C209.60046,226.45194 210.05246,225.26894 210.05246,225.26894 L211.61546,222.73994 C211.52746,222.68894 211.44546,222.62594 211.36846,222.54894 C210.91446,222.09694 210.91446,221.36294 211.36846,220.90894 C211.76646,220.51094 212.41146,220.46194 212.83146,220.76394 L214.68046,217.76894 C214.68246,217.76894 211.09146,215.97994 210.19846,219.48794 L210.19846,219.48794 Z M182.40346,220.36994 C181.86446,220.36994 181.42746,219.93194 181.42746,219.39194 C181.42746,218.85394 181.86446,218.41594 182.40346,218.41594 C182.94346,218.41594 183.37946,218.85394 183.37946,219.39194 C183.37946,219.93194 182.94346,220.36994 182.40346,220.36994 Z M192.03346,218.76094 C191.30946,218.76094 190.72046,218.17394 190.72046,217.44994 C190.72046,216.72494 191.30846,216.13594 192.03346,216.13594 C192.75746,216.13594 193.34646,216.72494 193.34646,217.44994 C193.34546,218.17394 192.75646,218.76094 192.03346,218.76094 Z M200.68746,219.39194 C200.68746,218.85394 201.12346,218.41594 201.66046,218.41594 C202.20146,218.41594 202.63646,218.85394 202.63646,219.39194 C202.63646,219.93194 202.20146,220.36994 201.66046,220.36994 C201.12346,220.36994 200.68746,219.93194 200.68746,219.39194 Z"/>
    <polygon fill="#D91A21" points="221.324 100.217 212.521 92.251 203.717 100.217 212.521 108.184"/>
    <circle cx="268.157" cy="104.695" r="6.538" fill="#AD8F1F"/>
    <circle cx="156.885" cy="104.695" r="6.54" fill="#AD8F1F"/>
    <polygon fill="#D91A21" points="320.731 109.565 315.81 124.718 322.592 118.089"/>
    <polygon fill="#D91A21" points="109.231 124.718 104.308 109.565 102.45 118.089"/>
    <path fill="#AD8F1F" d="M212.54746 110.30994C196.79246 110.71394 142.86346 113.08894 109.02446 126.71994L108.54446 126.91294 108.66046 127.41794C111.43146 139.47594 111.46046 139.48994 111.81846 139.66394L112.05446 139.77794 112.30146 139.68494C151.02146 124.91394 202.55846 122.89594 212.53246 122.64094 222.50246 122.89594 274.02246 124.91394 312.74446 139.68494L312.98746 139.77694 313.22546 139.66494C313.58346 139.49394 313.61146 139.47894 316.38546 127.41794L316.50146 126.91294 316.02046 126.71994C282.17746 113.08894 228.26346 110.71294 212.54746 110.30994L212.54746 110.30994zM323.46646 94.976946C287.44446 80.465943 225.84346 77.770943 212.52646 77.881943 199.21346 77.770943 137.59946 80.465943 101.59146 94.969946 101.03746 95.211946 101.03646 95.213946 103.82046 106.95594L103.98046 107.62994 104.62746 107.38294C142.44146 92.958943 196.55146 90.089943 212.52546 90.222943L212.53446 90.222943C228.50546 90.089943 282.60046 92.958943 320.41346 107.38294L321.06146 107.62994 321.21946 106.95594C324.00546 95.212946 324.00546 95.212946 323.46646 94.976946L323.46646 94.976946z"/>
    <path fill="#AD8F1F" d="M335.00646,48.318943 C332.54946,44.713943 328.38546,42.333943 323.73646,42.333943 C316.37246,42.333943 310.39846,48.304943 310.39846,55.671943 C310.39846,60.045943 312.50346,63.737943 315.75446,66.168943 C315.75446,66.168943 319.49946,68.490943 320.26346,70.050943 C321.40446,72.377943 320.34446,73.967943 317.95946,74.352943 C315.57746,74.736943 293.01346,67.123943 281.58646,65.895943 C278.97846,65.648943 279.22446,61.253943 284.74246,62.427943 C290.25946,63.598943 295.68146,60.077943 296.85346,54.560943 C298.02646,49.043943 294.50546,43.620943 288.98746,42.446943 C289.48646,41.540943 290.12146,40.594943 290.34846,39.530943 C291.60546,33.621943 287.83246,27.815943 281.92646,26.558943 C276.01746,25.305943 270.21146,29.076943 268.95346,34.982943 C268.73046,36.044943 268.69746,37.106943 268.77846,38.135943 C263.26146,36.966943 258.07046,40.548943 256.89646,46.066943 C255.72446,51.583943 259.35546,56.572943 264.76146,58.179943 C269.41746,59.563943 267.63546,62.963943 265.07146,62.790943 C263.20846,62.667943 233.77946,60.184943 225.45746,59.935943 C221.11346,59.562943 219.25746,51.737943 227.57646,51.737943 C235.89846,51.737943 242.64046,44.992943 242.64046,36.673943 C242.64046,28.354943 235.89846,21.609943 227.57646,21.609943 C228.01946,20.147943 228.64646,18.588943 228.64646,16.984943 C228.64646,8.0739428 221.43046,0.85194369 212.52046,0.85194369 C203.61146,0.85194369 196.39646,8.0739428 196.39646,16.984943 C196.39646,18.588943 197.02046,20.147943 197.46346,21.609943 C189.14246,21.609943 182.39746,28.354943 182.39746,36.673943 C182.39746,44.992943 189.14246,51.737943 197.46346,51.737943 C205.78146,51.737943 203.92846,59.563943 199.57946,59.935943 C191.26046,60.184943 161.82946,62.667943 159.96846,62.790943 C157.40546,62.963943 155.62246,59.562943 160.27646,58.179943 C165.68246,56.572943 169.31446,51.584943 168.14246,46.066943 C166.96946,40.548943 161.77846,36.966943 156.26246,38.135943 C156.34446,37.106943 156.31046,36.044943 156.08646,34.982943 C154.82946,29.076943 149.02246,25.305943 143.11446,26.558943 C137.20746,27.815943 133.43546,33.622943 134.69146,39.530943 C134.91846,40.594943 135.55246,41.540943 136.05046,42.446943 C130.53446,43.620943 127.01346,49.042943 128.18646,54.560943 C129.35846,60.077943 134.78046,63.598943 140.29846,62.427943 C145.81546,61.253943 146.06146,65.648943 143.45346,65.895943 C132.02746,67.123943 109.46346,74.736943 107.07946,74.352943 C104.69746,73.968943 103.63746,72.377943 104.77746,70.050943 C105.54246,68.490943 109.28446,66.168943 109.28446,66.168943 C112.53846,63.737943 114.64346,60.045943 114.64346,55.671943 C114.64346,48.305943 108.67046,42.333943 101.30446,42.333943 C96.655464,42.333943 92.491466,44.713943 90.033466,48.318943 C84.005466,24.669943 59.778466,36.724943 59.778466,36.724943 L72.257466,56.919943 C75.084466,54.891943 79.442466,55.217943 82.125466,57.900943 C85.180466,60.956943 85.180466,65.909943 82.125466,68.965943 C81.615466,69.475943 81.051466,69.897943 80.454466,70.237943 L90.992466,87.301943 C90.992466,87.301943 94.050464,95.282946 107.46346,90.177943 C141.44246,77.241943 197.49746,74.927943 212.52646,75.050943 C227.55346,74.926943 283.59646,77.241943 317.57646,90.177943 C330.98946,95.282946 334.04746,87.301943 334.04746,87.301943 L344.58646,70.237943 C343.98546,69.897943 343.42446,69.475943 342.91446,68.965943 C339.86046,65.909943 339.86046,60.956943 342.91446,57.900943 C345.59746,55.217943 349.95546,54.891943 352.78246,56.919943 L365.26146,36.724943 C365.26246,36.725943 341.03646,24.670943 335.00646,48.318943 L335.00646,48.318943 Z M147.58446,54.262943 C143.95046,54.262943 141.00346,51.316943 141.00346,47.680943 C141.00346,44.047943 143.95046,41.098943 147.58446,41.098943 C151.21946,41.098943 154.16646,44.047943 154.16646,47.680943 C154.16646,51.316943 151.21946,54.262943 147.58446,54.262943 Z M212.52146,43.418943 C207.63346,43.418943 203.67246,39.457943 203.67246,34.570943 C203.67246,29.684943 207.63346,25.722943 212.52146,25.722943 C217.40746,25.722943 221.37146,29.684943 221.37146,34.570943 C221.37146,39.456943 217.40746,43.418943 212.52146,43.418943 Z M270.87646,47.680943 C270.87646,44.047943 273.82446,41.098943 277.45846,41.098943 C281.09146,41.098943 284.04046,44.047943 284.04046,47.680943 C284.04046,51.316943 281.09246,54.262943 277.45846,54.262943 C273.82546,54.262943 270.87646,51.316943 270.87646,47.680943 Z"/>
    <path fill="#FFF" d="M55.558466 257.40894C55.558466 246.65794 64.272466 237.94294 75.023466 237.94294L88.837466 237.95494 88.837466 230.02694 75.023466 230.00994C59.891466 230.00994 47.626466 242.27694 47.626466 257.40894 47.626466 272.53994 59.886466 284.81294 75.017466 284.81294L89.072466 284.81294 89.121466 276.86494 74.972466 276.86494C64.221466 276.86494 55.558466 268.15894 55.558466 257.40894L55.558466 257.40894zM355.65946 227.31794C346.06446 227.31794 335.26246 235.87494 334.35846 250.28194L334.22346 283.24394 341.62946 283.18094 341.62946 271.70594 369.36746 271.76694 369.36746 282.96694 377.10046 282.96694 377.10046 250.49094C376.19946 236.08594 365.81646 227.31794 355.65946 227.31794L355.65946 227.31794zM369.29846 263.92494L341.62946 263.92494 341.60646 250.38594C341.62946 239.72794 349.18846 235.22394 355.50646 235.35194 363.35046 235.51094 369.29846 241.95494 369.29846 250.28094L369.29846 263.92494 369.29846 263.92494zM212.52146 462.59394C197.38846 462.59394 185.12346 474.86094 185.12346 489.99194 185.12346 505.12394 197.38846 517.38894 212.52146 517.38894 227.65146 517.38894 239.91946 505.12394 239.91946 489.99194 239.91946 474.86094 227.65146 462.59394 212.52146 462.59394L212.52146 462.59394zM212.52146 509.45594C201.77146 509.45594 193.05646 500.74394 193.05646 489.99294 193.05646 479.24294 201.77146 470.52794 212.52146 470.52794 223.27146 470.52794 231.98646 479.24294 231.98646 489.99294 231.98646 500.74394 223.27146 509.45594 212.52146 509.45594z"/>
    <circle cx="212.521" cy="421.373" r="10.595" fill="#FFF"/>
    <circle cx="290.531" cy="256.851" r="10.596" fill="#FFF"/>
    <circle cx="134.513" cy="256.852" r="10.596" fill="#FFF"/>
    <circle cx="147.888" cy="344.066" r="10.596" fill="#FFF"/>
    <circle cx="290.531" cy="173.502" r="10.596" fill="#FFF"/>
    <circle cx="134.513" cy="173.502" r="10.596" fill="#FFF"/>
    <circle cx="212.521" cy="166.63" r="10.596" fill="#FFF"/>
    <circle cx="277.155" cy="344.066" r="10.596" fill="#FFF"/>
  </g>
</svg>
