<svg xmlns="http://www.w3.org/2000/svg" xmlns:xlink="http://www.w3.org/1999/xlink" viewBox="0 0 124.9 167"><defs><clipPath id="clip-path"><path d="M58.2,84.4v-.7c-.1.3-.2.5.1.7" style="fill:none"/></clipPath><clipPath id="clip-path-2"><path d="M58.5,86.5c-.1-.3-.4-.3-.7-.4s.3.2.3.5.4.3.5,0Z" style="fill:none"/></clipPath><clipPath id="clip-path-3"><polygon points="58.6 87.2 58.3 87.6 58.4 87.6 58.6 87.2" style="fill:none"/></clipPath><clipPath id="clip-path-4"><path d="M60.1,88.6c-.2-.5.1-1.2-.6-1.3s.3.9.6,1.3" style="fill:none"/></clipPath><clipPath id="clip-path-5"><path d="M59.1,88.1h-.2v.4c.2-.1.1-.3.2-.4" style="fill:none"/></clipPath><clipPath id="clip-path-6"><path d="M59.6,89.8c-.2-.1,0-.5-.2-.6s.1.6.2.6" style="fill:none"/></clipPath><clipPath id="clip-path-7"><path d="M60.8,90c0-.2-.2-.1-.3-.1s.1.3.3.3Z" style="fill:none"/></clipPath><clipPath id="clip-path-8"><path d="M65.9,82.8c.1-.3-.4-.6-.6-.7s-1,.5-1.2.8-.7.7-1,1.1-1.3-.1-1.7.5h-.6c-.1-.3.2-.3,0-.6a2.3,2.3,0,0,1,1.8-.4c0-.3.4-.8.5-1l-1,.6h-.9c-.2.1-.1.4-.3.5s-.5,0-.6-.1a1.4,1.4,0,0,1,.7-1.1c-.3,0-.4.4-.6.3s-.6.9-.4,1.3.6.7.7,1.1a4,4,0,0,1-1.9-.2l.4.4c-.8.5.3.7,0,1.3s.5.1.7.1.9,1.6.9,2.5.8-.2,1.1-.4l.4.5h-.2v.3h.7c.5-.4.3-.9.2-1.4s0-1.3.7-1.4.2-1,.4-1.6-.2-.3-.2-.5.3-.3.5-.3.2-.5.1-.8-.6.8-.8,1.1-.5,0-.5-.3a2,2,0,0,1,.8-1.4c.3.1.8-.2,1,0l.3.4c-.3,1.2,1,1.3,1.5,2.2h-.2c-.5.4-.5,1.2-1.1,1.7s-.1-.9-.5-1.4-.1.4-.2.5.2.5.5.8l-.2.3c-.2.4-.6,0-.9-.1l.3.9c0,.1.3.1.3.3s-.6.7-.9.2-.1.8-.2,1.1-.4.7-.6,1.3a13.7,13.7,0,0,1,1.8,1.6c.3-.2.1-.6.2-.9s-1.2-1.6-.2-2,.5.5.7.5h0c.3-.8-.3-1.5.1-2.1s.6.2.7.5-.2.6.2.6-.2-.6.1-.9.2-.5.2-.9.5,0,.6.1h0c-.3.9.1,1.5.1,2.3s-.8-.2-1.1-.1a5.2,5.2,0,0,0,.4,2.1c-.3.3-.6-.5-1-.4s.1.7.3.9.5,2.8,1.7,2.8.7.1.4.6-.6.3-.6.1-.1.6-.6.7l.4.4-.4.6A2.1,2.1,0,0,0,69,97.1a10.6,10.6,0,0,1-.3-2,1,1,0,0,1-.5-.6c0-.2-.1-.6.1-.7s-.8-1.1-.9-1.8.8.4,1.2.4.2-2.2.2-3.6.2-1.2-.3-1.7.3-.4.6-.3a4.7,4.7,0,0,1,.4,1.6c.1-.3.1-.7.4-.9s.1.2.2.2.2,0,.3.1-.1.3-.1.6a4.7,4.7,0,0,0-1.2,3c.8-.1.9-1,1.6-1.3s.1-2.2-.4-3.2a2.5,2.5,0,0,1-.1-1.2,8.8,8.8,0,0,1,0-2.3c-.9-.7-1.9-.2-2.7-.1s.3.7.5,1-.4.7,0,.9-.2.6-.5.7,0-.5-.3-.6a1.1,1.1,0,0,1,.1-1.1c-.3-.7-1.1-.8-1.4-1.4" style="fill:none"/></clipPath><clipPath id="clip-path-9"><path d="M82.6,74.3h-1a2.9,2.9,0,0,0-2.5,1.3c.1.1-.1.2-.1.4s1.2.8,1.3-.2.5.4.8.4.4.8,0,1.1-.6.5-1.2.2-.9-.5-1.3.1,0,.3.1.4h.1l.3.3c-.3.2,0,.5-.4.5s-.9-.4-.9-.9-.2,1.9,0,2.5l.7-.6a1.9,1.9,0,0,1,1.3.1c-.1,1,1,1.3,1.4,2.1a6.5,6.5,0,0,0,.4,1.3,3,3,0,0,0,1.3-.2c.4-.7-.7-.6-.8-1.1s.9,0,1.2,0,.2-.7.3-1.2-.2-.8-.1-1.3a4.5,4.5,0,0,1,1.2-.6c-.8-1,.2-1.8.7-2.6s-.5-.2-.2-.5-1-.9-1.9-1.1-.4.3,0,.5.6.9.3,1.4-.5.7-.9.8-.9.4-1.2,0a4.1,4.1,0,0,0,.5-.9c-.1-.5-.8-.3-1.1-.4s.2-.9.4-1.4a.9.9,0,0,1,.6.3c-.4.8.8.6.9,1.4a1.2,1.2,0,0,0-.7-1.2Z" style="fill:none"/></clipPath><clipPath id="clip-path-10"><path d="M85.8,77.8c.1-.2.2-.6,0-.8s-.8.5-.6,1Z" style="fill:none"/></clipPath><clipPath id="clip-path-11"><path d="M85.8,78.5c-.2.3-.4-.2-.6-.3s0,.5.4.7.4-.1.3-.4Z" style="fill:none"/></clipPath><clipPath id="clip-path-12"><path d="M84.4,80v-.3h-.1V80c.1.1,0,.3,0,.3V80h.1" style="fill:none"/></clipPath><clipPath id="clip-path-13"><path d="M85.5,80.2c-.2,0-.4,0-.3.2s.3,0,.3-.2" style="fill:none"/></clipPath><clipPath id="clip-path-14"><path d="M79.1,80.4c-.6-.3-.8,1.1-1.2.3a4.6,4.6,0,0,0,.1,2c.3-.3.4-.7.7-.9s-.2,1,.1,1.5l.3-.7c.2,0,.5-.1.6.1s.9,2-.2,2.7.1.6-.2.8h-.4c-.9-.8.8-1.2.2-2.2-.1.7-.8.5-1,1a1.2,1.2,0,0,0-.2,1,8.1,8.1,0,0,0-1,3.6c.5.6.3,1.3.8,1.8s.5.4.7.3-.2-.2-.4-.5a1.6,1.6,0,0,1-.4-1.4c.5-.6-.7-.9-.2-1.4s.8.3,1.1.5-.4,1-.1,1.5-.4-1.1.4-1.3.3.9.3,1.3,1.3.9,1.7,1.6.5,1.4,1.1,2v-.2h.7c-.3.8-.7,1.8-.2,2.6s0-.5.2-.7.8-.2.8.3.2-.5.6-.8.1.4.4.1-.4-.9-.6-1.4-1.5-2.9-2.7-3.9v-.2c-.6-1,.1-2,.3-2.9s0,1,1.1.8a2,2,0,0,1-.9,1.1c.1.4-.2.8.2,1.1a3.5,3.5,0,0,0,1.8-.6,1.9,1.9,0,0,0,.3-1.3c.2-.2,0-.8.5-.8s.3.5.3.7.7.7.8,1.1l.5-.9a1.6,1.6,0,0,1-.2-1.5c.3.1.9,0,.7.3s.4-.9.8-1.3a3,3,0,0,1,1.8-.3c.1-.5-.5-.5-.7-.8v.2c-.6.3-1.2-.1-1.7.5s-.3-.4-.4-.6-1.3,1.1-1.7,1.9l-.5-.5a.8.8,0,0,0,.3-.7c-.2-.3,0-.9-.3-1.3s.2-.7.6-.5.2.2.2.3l.3-.2c0-.4-.2-.8,0-1.1s.6,0,.7.2l-.2-.8c-.4-.2,0-1.3-.8-.8v1c-.3.7-.6,1.5-1.3,1.8s-.1.5-.3.6-1.5,0-2-.4-.6-1.9-1.5-2.4a.6.6,0,0,1-.9-.1.4.4,0,0,0,.1-.3c-.2-.1-.4,0-.6-.3a1.3,1.3,0,0,1,.4-.7" style="fill:none"/></clipPath><clipPath id="clip-path-15"><polygon points="82 63.6 82 63.7 82.1 63.7 82 63.6" style="fill:none"/></clipPath><clipPath id="clip-path-16"><path d="M83.6,63.7c-.1-.2-.3-.1-.3,0h.3" style="fill:none"/></clipPath><clipPath id="clip-path-17"><polygon points="80.8 63.7 80.6 63.7 80.8 63.8 80.8 63.7" style="fill:none"/></clipPath><clipPath id="clip-path-18"><path d="M87.5,63l-.4-.6c-2.6,0-5.6.1-8,0-.7.1-.9.7-.9,1.3s.4.5.6.5.7-.2.9-.5a.5.5,0,0,0-.5-.4l.3.2c-.2.2-.4.5-.6.5a1,1,0,0,1-.4-.9c.3-.2.4-.4.7-.5s.8,0,1.1.4h5.4c.1-.3.5-.4.7-.5s.7.1.9.5.1.8-.3,1-.7-.4-.5-.7h-.2c-.3.3,0,.7.3.8s.6.1.9-.1.3-.7,0-1" style="fill:none"/></clipPath><clipPath id="clip-path-19"><path d="M65.3,63.8h-.2c.1,0,.2.1.2,0" style="fill:none"/></clipPath><clipPath id="clip-path-20"><path d="M66.7,63.8c-.1-.2-.1,0-.2,0h.2Z" style="fill:none"/></clipPath><clipPath id="clip-path-21"><path d="M62.6,63.8h-.3c-.1.2.3.1.3,0" style="fill:none"/></clipPath><clipPath id="clip-path-22"><path d="M64,63.8h0Z" style="fill:none"/></clipPath><clipPath id="clip-path-23"><path d="M84.9,70.7a3.8,3.8,0,0,0,1,1.2h0c.3-.2,0-.6.1-.8s.2-1.3-.1-1.8a16.8,16.8,0,0,1-8,1.5.8.8,0,0,0,.2.8c.2-.1.5-.1.6-.3s.2.5.4.6h.1c.1-.1,0-.2-.1-.4s.2-.3.4-.2.8-.1,1.2-.1a.9.9,0,0,0,.1,1.1h.4v.3c-.1.4-.4.3-.7.4s-.1-.7-.7-1.2,0,1.3-.8,1.4l-.8-1.2h-.1c0,.6-.4.9-.3,1.5a44.1,44.1,0,0,0,5.4-.7c.2-.1.2.1.3.1s1.1-.2,1.5-.5h.5c0-.1.1-.1,0-.2s-.9.2-.7-.3h-.3c.1.1.2.3,0,.4a10.8,10.8,0,0,0-1.9.3,1.8,1.8,0,0,0-.2-1.4c-.2.1.1.2-.1.3s-.2,0-.3,0a1,1,0,0,0,.3,1.1c-.3.1-.7.3-1,.1a1.4,1.4,0,0,0,0-1.1l-.3.2c-.1-.1-.3-.2-.2-.4s1.6-.3,2.4-.6.2.3.3,0h.1a1.4,1.4,0,0,1,0,.9c.9.5.3-.9.8-1.3a.4.4,0,0,1,.4.4" style="fill:none"/></clipPath><clipPath id="clip-path-24"><path d="M69.4,63.4c-.2-.3-.1-.7-.5-.8-2.7-.2-5.5,0-8.6,0l-.2.4c-.1.4-.4,1,.1,1.3s.8.1,1-.2.3-.5.1-.6-.3-.1-.3,0v.2c-.2.1-.2.5-.4.4s-.3-.3-.4-.4,0-.8.5-1,.8-.1,1,.4a24.1,24.1,0,0,0,3.8,0c.8-.1,1.8.4,2.3-.4s.8,0,1,.3a.8.8,0,0,1-.3,1.1c-.3-.2-.5-.5-.4-.7s0,.3-.3.4a.8.8,0,0,0,.9.5c.5,0,.4-.6.6-.9" style="fill:none"/></clipPath><clipPath id="clip-path-25"><path d="M65.8,70.9a22.2,22.2,0,0,1-3.9-1.1c-.2.9,0,2-.2,2.9a.9.9,0,0,1,.7.1,35.5,35.5,0,0,0,4.7.8v-.4c.3-.8,1.4-.9,1.1-1.8L67,71.2a2.4,2.4,0,0,1-1.2-.3" style="fill:none"/></clipPath><clipPath id="clip-path-26"><path d="M85.4,72.9l-3.2.6.9.2,2,1,.3.3Z" style="fill:none"/></clipPath><clipPath id="clip-path-27"><path d="M62.2,76.9V80c.1.5.9-.1,1.2.4s.7.2,1.1-.2l1.1-3.8c.4-.8,1.4-1.1,1.3-2.2a24.3,24.3,0,0,1-4.7-.8v3.5Z" style="fill:none"/></clipPath><clipPath id="clip-path-28"><path d="M67.4,82.6V78.9a5.2,5.2,0,0,0-1.5,2.7c.6.2.5,1.5,1.5,1" style="fill:none"/></clipPath><clipPath id="clip-path-29"><path d="M62.2,64.5v4.7c.6.5,1.6.4,2.1.9h.2c1,.1,1.6.6,2.7.6V64.4c-.2,0-.4.2-.6.1s-1.4.5-1.9-.1-.5.2-.8.2-1.1,0-1.7-.1" style="fill:none"/></clipPath><clipPath id="clip-path-30"><path d="M85.4,68.8V64.4c-.3.1-.7-.1-1-.1s-.8.3-1.2,0-.8.4-1.2.1-1.1.3-1.6,0v5.7c.2.2.5-.1.7-.1a16.2,16.2,0,0,0,4.3-1.2" style="fill:none"/></clipPath><clipPath id="clip-path-31"><path d="M79.2,61.4l.2.3h6c.3-.2,1.1.2,1.2-.3Z" style="fill:none"/></clipPath><clipPath id="clip-path-32"><path d="M68.3,61.4H60.9c-.1.1.2.3.2.4,2.2.2,4.2,0,6.4,0,.4,0,.8,0,.8-.4" style="fill:none"/></clipPath><clipPath id="clip-path-33"><path d="M82,63.7h0Zm1.6,0c-.1-.2-.3-.1-.3,0Zm-2.8.1h0Zm6.7-.8-.4-.6c-2.6,0-5.6.1-8,0-.7.1-.9.7-.9,1.3s.4.5.6.5.7-.2.9-.5a.5.5,0,0,0-.5-.4l.3.2c-.2.2-.4.5-.6.5a1,1,0,0,1-.4-.9c.3-.2.4-.5.7-.5s.8,0,1.1.4h5.4c.1-.3.5-.4.7-.5s.7.1.9.5.1.8-.3,1-.7-.4-.5-.7h-.2c-.3.3,0,.7.3.8s.6.1.9-.1S87.8,63.3,87.5,63ZM69.6,71c-.1-.4.2-.9-.1-1.3s-.6,1.5-.6,2.5-1.1,2.2-1.5,3.1-1.6,3.4-2.3,5.1a1.2,1.2,0,0,1-1.2.6l.3.2c.1.2.3.4.1.6a2.3,2.3,0,0,0,1.1-.8c.1-1.8,2-2.7,2.4-4.5-.4.4-.6,0-.7-.3s.7-.3,1.1-.6A8.2,8.2,0,0,0,69.6,71Zm5.2-7c-.2-.5-1-.7-1.4-.8s-1.4.3-1.4.8.4,0,.7-.1,1.6-.2,2,.7,0,1,.3,1.1S74.8,64.5,74.8,64Zm-.7,1.1c-.4-.5-1-.5-1.7-.5s-.2.3,0,.5.4.7.6,1.1,1.1,1.3,1.5.2l-.4-.8-.7.2c-.4-.1-.1-.5-.1-.7s.5-.1.7-.1-.2.3.1.4Zm-.2,3.3c-.6.1-1.2.4-1.8,0s-.7.4-.6.8l1.5.3c0-.3-.3-.6,0-.8h.6c-.1.3.3.5,0,.8s-.5.2-.5,0l-.3.5-1.2-.2a9.3,9.3,0,0,0,.4,2.3c.6.1.3.7.4,1h.1c.3.3.5-.2.8-.2s.3-.9,0-1.4.3-.5.5-.4a2.1,2.1,0,0,1,.3,1.6c.2.9-.8,1-1.4,1.1a7.6,7.6,0,0,0,1.1,1.4c.1-.3.4-.8.1-1.2a.6.6,0,0,1,.6-.3c.8.8-.4,1.8.2,2.5v-.3c.3-.4.6-.8,1.1-.3V74c-.1-.7-1.2-.2-1.3-.9s1-.1,1.3-.1.1-.5.2-.7-.1-1.3,1.1-1.2v-.5a1.4,1.4,0,0,0-1.2-1.1V70a3.7,3.7,0,0,1-1.5.1c-.1-.9.9-.4,1.3-.8S74,69.3,73.9,68.4Zm-3,2.1c-.2-.4.4-1.5-.5-1.1s-.2,1.3-.2,2a15.7,15.7,0,0,0,1,6.8c.4.2.8,0,1,.4s.9.4,1.3.1A6.6,6.6,0,0,1,72,77.3c-.2,0-.5.2-.7,0s.1-.6.2-.9.7-.4,1,0,1,1.9,2.1,1.9a.6.6,0,0,0,.7-.4,20.1,20.1,0,0,1-2.8-3.1C71.5,73.8,71.2,72,70.9,70.5Zm6.4,1h-.1c.1.9-.5,1.4-.9,2.1a2.7,2.7,0,0,1,.3,1.5c-.6.7.2,1.4.6,1.9s.1-2,.2-3S77.8,72.4,77.3,71.5Zm-12-7.7h-.2C65.2,63.8,65.3,63.9,65.3,63.8Zm1.4,0c-.1-.2-.1,0-.2,0h.2Zm-4.1,0h-.3C62.2,64,62.6,63.9,62.6,63.8Zm1.4,0h0Zm20.9,6.9a3.8,3.8,0,0,0,1,1.2h0c.3-.2,0-.6.1-.8s.2-1.3-.1-1.8a16.8,16.8,0,0,1-8,1.5.6.6,0,0,0,.2.7c.2,0,.5,0,.6-.2s.2.5.4.6h.1c.1-.1,0-.3-.1-.4s.2-.3.4-.2.8-.1,1.2-.1a.9.9,0,0,0,.1,1.1h.4v.3c-.1.4-.4.3-.7.4s-.1-.7-.7-1.3,0,1.4-.8,1.5l-.8-1.2h-.1c0,.6-.4.9-.3,1.5a44.1,44.1,0,0,0,5.4-.7c.2-.2.2.1.3.1s1.1-.2,1.5-.5h.5c0-.1.1-.1,0-.2s-.9.2-.7-.3h-.3c.1.1.2.3,0,.4a10.8,10.8,0,0,0-1.9.3,1.8,1.8,0,0,0-.2-1.4c-.2.1.1.2-.1.3s-.2,0-.3,0a1,1,0,0,0,.3,1.1c-.3.1-.7.3-1,0a1.2,1.2,0,0,0,0-1h-.3c-.1,0-.3-.1-.2-.3s1.6-.3,2.4-.6.2.3.3,0h.1a1.1,1.1,0,0,1,0,.8c.9.6.3-.8.8-1.2A.4.4,0,0,1,84.9,70.7ZM69.4,63.4c-.2-.3-.1-.7-.5-.8-2.7-.2-5.5,0-8.6,0l-.2.4c-.1.4-.4,1,.1,1.3s.8.1,1-.2.3-.5.1-.6-.3-.1-.3,0v.2c-.2.1-.2.5-.4.4s-.3-.3-.4-.4,0-.8.5-1,.8-.1,1,.4a24.1,24.1,0,0,0,3.8,0c.8-.1,1.8.4,2.3-.4s.8,0,1,.3a.8.8,0,0,1-.3,1.1c-.3-.2-.5-.5-.4-.7s0,.3-.3.4a.8.8,0,0,0,.9.5C69.3,64.3,69.2,63.7,69.4,63.4Zm-3.6,7.5a22.2,22.2,0,0,1-3.9-1.1c-.2.9,0,2-.2,2.9a.9.9,0,0,1,.7.1,35.5,35.5,0,0,0,4.7.8v-.4c.3-.8,1.4-.9,1.1-1.8L67,71.2A2.4,2.4,0,0,1,65.8,70.9Zm19.6,2-3.2.6.9.2,2,1,.3.3Zm-23.2,4V80c.1.5.9-.1,1.2.4s.7.2,1.1-.2l1.1-3.8c.4-.8,1.4-1.1,1.3-2.2a24.3,24.3,0,0,1-4.7-.8v3.5Zm17.5-3c-.4-.1-.7.1-1-.1l-.5.3.2,1.2.8-.8C79.4,74.4,79.7,74.1,79.7,73.9Zm2.9.4h-1a2.9,2.9,0,0,0-2.5,1.3c.1.1-.1.2-.1.4s1.2.8,1.3-.2.5.4.8.4.4.8,0,1.1-.6.5-1.2.2-.9-.5-1.3.1,0,.3.1.4h.1l.3.3c-.3.2,0,.5-.4.5s-.9-.4-.9-.9-.2,1.9,0,2.5l.7-.6a1.9,1.9,0,0,1,1.3.1c-.1,1,1,1.3,1.4,2.1a6.5,6.5,0,0,0,.4,1.3,3,3,0,0,0,1.3-.2c.4-.7-.7-.6-.8-1.1s.9,0,1.2,0,.2-.7.3-1.2-.2-.8-.1-1.3a4.5,4.5,0,0,1,1.2-.6c-.8-1,.2-1.8.7-2.6s-.5-.2-.2-.5-1-.9-1.9-1.1-.4.3,0,.5.6.9.3,1.3-.5.8-.9.9-.9.4-1.2,0a4.1,4.1,0,0,0,.5-.9c-.1-.5-.8-.3-1.1-.4s.2-.9.4-1.4a.9.9,0,0,1,.6.3c-.4.8.8.6.9,1.4a1.2,1.2,0,0,0-.7-1.2Zm-13,.3h-.2c-.5,1-.9,2-1.3,3V82h.2c-.3.1,0,.3-.1.5h.2a2.7,2.7,0,0,1,1.8-.1c-.2-.2.3-.4.1-.7s-.3-.9,0-1.3.3-1.3.4-1.8S69.7,76,69.6,74.6Zm6.2,1.3c-.6,0-.3.6-.5.9a4.6,4.6,0,0,0,.7.7V76.4C76,76.1,75.5,76.2,75.8,75.9Zm3.2.8a.4.4,0,0,1-.2-.4l-.4.5c.3-.2,1,.1,1.4.2h0A.8.8,0,0,0,79,76.7Zm6.8,1.1c.1-.2.2-.6,0-.8s-.8.5-.6,1Zm-8.9,0c.1-.1,0-.4-.2-.3s-.1.5.1.6Zm8.9.7c-.2.3-.4-.2-.6-.3s0,.5.4.7.4-.1.3-.4Zm-9,1c-.3-.3-.5-1.4-1.1-.8l.3.4-2,1.4c-1.1.5-1.6-.4-2.5-.5s-.4-.1-.6-.1v.8c.5.6-.2,1.2,0,1.9a3.3,3.3,0,0,1,2.2.1c.2-.2,0-.9.5-.9a16.9,16.9,0,0,0,.8,2.4,4.3,4.3,0,0,0,.6-1.8c.2-.2-.1-.4.2-.6s.6.2.7.4l.7-.7c.4-.1.4-.5.5-.7Zm-9.4,3.1V78.9a5.2,5.2,0,0,0-1.5,2.7C66.5,81.8,66.4,83.1,67.4,82.6Zm5.7-3.2c-.7.2-1.1-.4-1.8-.4s-.4.3-.2.5,1.2.1,1.7.4,1.2-.3,1.8-.7S73.6,79.6,73.1,79.4Zm11.3.6v-.3h-.1V80c.1.1,0,.3,0,.3V80Zm1.1.2c-.1,0-.4,0-.3.2S85.5,80.4,85.5,80.2Zm-6.4.2c-.6-.3-.8,1.1-1.3.3s-.1,1.4.2,2,.4-.7.7-.9-.2,1,.1,1.5l.3-.7c.2,0,.5-.1.6.1s.9,2-.2,2.7.1.6-.2.8h-.4c-.9-.8.8-1.2.2-2.2-.1.7-.8.5-1,1a1.2,1.2,0,0,0-.2,1,8.1,8.1,0,0,0-1,3.6c.5.6.3,1.3.8,1.8s.5.4.7.3-.2-.2-.4-.5a1.6,1.6,0,0,1-.4-1.4c.5-.6-.7-.9-.2-1.4s.8.3,1.1.5-.4,1-.1,1.5-.4-1.1.4-1.3.3.9.3,1.3,1.3.9,1.7,1.6.5,1.4,1.1,2v-.2h.7c-.3.8-.7,1.8-.2,2.6s0-.5.2-.7.8-.2.8.3.2-.5.6-.8.1.4.4.1-.4-.9-.6-1.4-1.5-2.9-2.7-3.9v-.2c-.6-1,.1-2,.3-2.9s0,1,1.1.8a2,2,0,0,1-.9,1.1c.1.4-.2.8.2,1.1a3.5,3.5,0,0,0,1.8-.6,1.9,1.9,0,0,0,.3-1.3c.2-.2,0-.8.5-.8s.3.5.3.7.7.7.8,1.1l.5-.9a1.6,1.6,0,0,1-.2-1.5c.3.1.9,0,.7.3s.4-.9.8-1.3a3.1,3.1,0,0,1,1.8-.4c.1-.4-.5-.4-.7-.7v.2c-.6.3-1.2-.1-1.7.5s-.3-.4-.4-.6-1.3,1.1-1.7,1.9l-.5-.5a.8.8,0,0,0,.3-.7c-.2-.3,0-.9-.3-1.3s.2-.7.6-.5.2.2.2.3l.3-.2c0-.4-.2-.8,0-1.1s.6,0,.7.2l-.2-.8c-.4-.2,0-1.3-.8-.8v1c-.3.7-.6,1.5-1.3,1.8s-.1.4-.3.6-1.5,0-2-.4-.6-1.9-1.5-2.4a.6.6,0,0,1-.9-.1.4.4,0,0,0,.1-.3c-.2-.1-.4,0-.6-.3A1.3,1.3,0,0,1,79.1,80.4Zm-16.3.5c-.5-.4-1.1.1-1.7,0s-1.5.4-2,.9.4.4.3.8l.8-.7c.6.1,1-.6,1.4-.4s0,.5-.1.7h-.1l-.2.2h.7C62.6,82.2,62.3,81.3,62.8,80.9Zm3.1,1.9c.1-.3-.4-.6-.6-.7s-1,.5-1.2.8-.7.7-1,1.1-1.3-.1-1.7.5h-.6c-.1-.3.2-.3,0-.6a2.3,2.3,0,0,1,1.8-.4c0-.3.4-.8.5-1l-1,.6h-.9c-.2.1-.1.4-.3.5s-.5,0-.6-.1a1.4,1.4,0,0,1,.7-1.1c-.3,0-.4.4-.6.3s-.6.9-.4,1.3.6.7.7,1.1a4,4,0,0,1-1.9-.2l.4.4c-.8.5.3.7,0,1.3s.5.1.7.1.9,1.6.9,2.5.8-.2,1.1-.4l.4.5h-.2v.3h.7c.5-.4.3-.9.2-1.4s0-1.3.7-1.4.2-1,.4-1.6-.2-.3-.2-.5.3-.3.5-.3.2-.5.1-.8-.6.8-.8,1.1-.5,0-.5-.3a2,2,0,0,1,.8-1.4c.3.1.8-.2,1,0l.3.4c-.3,1.2,1,1.3,1.5,2.2h-.2c-.5.4-.5,1.2-1.1,1.7s-.1-.9-.5-1.4-.1.4-.2.5.2.5.5.8l-.2.3c-.2.4-.6,0-.9-.1l.3.9c0,.1.3.1.3.3s-.6.7-.9.2-.1.8-.2,1.1-.4.7-.6,1.3a13.7,13.7,0,0,1,1.8,1.6c.3-.2.1-.6.2-.9s-1.2-1.6-.2-2,.5.5.7.5h0c.3-.8-.3-1.5.1-2.1s.6.2.7.5-.2.6.2.6-.2-.6.1-.9.2-.5.2-.9.5,0,.6.1h0c-.3.9.1,1.5.1,2.3s-.8-.2-1.1-.1a5.2,5.2,0,0,0,.4,2.1c-.3.3-.6-.5-1-.4s.1.7.3.9.5,2.8,1.7,2.8.7.1.4.6-.6.3-.6.1-.1.6-.6.7l.4.4-.4.6A2.3,2.3,0,0,0,69,97.1a10.6,10.6,0,0,1-.3-2,1,1,0,0,1-.5-.6c0-.2-.1-.6.1-.7s-.8-1.1-.9-1.8.8.4,1.2.4.2-2.2.2-3.6.2-1.2-.3-1.7.3-.4.6-.3a4.7,4.7,0,0,1,.4,1.6c.1-.3.1-.7.4-.9s.1.2.2.2.2,0,.3.1-.1.3-.1.6a4.7,4.7,0,0,0-1.2,3c.8-.1.9-1,1.6-1.3s.1-2.2-.4-3.2a2.5,2.5,0,0,1-.1-1.2,8.8,8.8,0,0,1,0-2.3c-.9-.7-1.9-.2-2.7-.1s.3.7.5,1-.4.7,0,.9-.2.6-.5.7,0-.5-.3-.6a1.1,1.1,0,0,1,.1-1.1C67,83.5,66.2,83.4,65.9,82.8Zm10.7,4.1a6.7,6.7,0,0,0,.5-4.8l-.8.7c-1.4.1-.7,1.9-1.9,2.3s.3,2.5.5,3.8h.4c.4.4.2.7.5,1.1l-.5.2c-.4,0-.4-.2-.4-.5l-.4,1.2c-.7,1.7,1,3.1.4,4.8s-.2.8.2,1l-.5.5c-.1.6.7.2.9.4s.4.9.9.5.1-.6.1-.8c-1.6-.8-.7-2.6-.6-3.9s-.3-2.6.4-3.9S76.5,87.7,76.6,86.9ZM83.8,83c.3-.1.7-.6.5-.9l-.6.5C83.7,82.7,83.5,83.1,83.8,83Zm-25-.3c-.4-.2-.4.6-.5.8A1.2,1.2,0,0,0,58.8,82.7Zm30.4,1c-.2-.2-.9-.5-.6-.9s-.7.6-1.1.3a2.7,2.7,0,0,0-.9,1.5h.3c.7-.1.7-.9,1.4-.8s0,.5.2.7l.3-.4ZM72.8,92.1c.7-1.5-.5-3.3,0-4.7l.2-.3-.2.3c-.3.2-.9,1.4-1.2.4a6.4,6.4,0,0,0,1-1.8c.2,0,.6,0,.6.2a5.3,5.3,0,0,0,.3-2.2c-.5.2-.8-.4-1.1-.8a1.6,1.6,0,0,0-1.5.2,15.8,15.8,0,0,0,.1,3.1,27,27,0,0,1,.4,2.8c.1.1.4-.3.6.1s.2.4,0,.5-.5.8-.8,1.2,1.6,3.4.5,5.3-1.6.6-2.1,1.3.5-.4.7-.5.4.3.5.5a.3.3,0,0,0-.3.3A11.2,11.2,0,0,0,73,96.9l-.4-.4c.3-.3.2-.8.2-1.1S73,93.1,72.8,92.1ZM59.3,83.6c-.2.2-.5.2-.4.5s.2.2.3.2S59.1,83.9,59.3,83.6Zm18.9.5c.2-.1,0-.2-.1-.3v-.2c-.1.1,0,.1,0,.2S78,84,78.2,84.1Zm-20,.3v-.7C58,84,57.9,84.2,58.2,84.4Zm25.4-.7c-.5-.1-.9.2-1.3.1V84c.2,0,.5.4.8,0h.1Zm1.6,1.4a1.8,1.8,0,0,0,.7-.8C85.6,84.4,85.4,84.8,85.2,85.1Zm-19.8.3c-.1-.6-.5-.2-.8-.1S65,85.3,65.4,85.4Zm-6.9,1.1c-.1-.3-.4-.3-.6-.4s.2.2.2.5.4.3.5,0Zm15.5.6-.2-.2c-.1,1-.6,2-.1,3h-.1c.1.2.1.6.3.6S74,88.3,74,87.1Zm-15.7.5h.1l.2-.4Zm1.8,1c-.2-.5.1-1.2-.6-1.3S59.8,88.2,60.1,88.6Zm-1-.5h-.2v.4C59.1,88.4,59,88.2,59.1,88.1Zm26.2,1.6h-.2c-.4-2.2-.4.8-1.3.6s.4.5.5.6l.7.3Zm-25.7.1c-.2-.1,0-.5-.2-.6S59.5,89.8,59.6,89.8Zm1.2.2c0-.2-.2-.1-.3-.1s.1.3.3.3Zm2.2.4c-.4.3-.8-.2-1.3-.1s-.5.3-.2.5.5.2.8.2S63,90.7,63,90.4Zm21.1,1.4L83,90.5c-.2.1-.5-.1-.4.2L83.7,92c.4.9.6,1.7,1.5,2.2a3.5,3.5,0,0,0,.6-1.8l-.9-.5a.4.4,0,0,1-.5.2C84.2,92.2,84.1,91.9,84.1,91.8Zm-22.5-.1c-.3,0-.6-.3-.8-.6s.1.9.4,1.2Zm9.2,1c0-.5-.2-1.1-.2-1.5A1.2,1.2,0,0,0,70.8,92.7Zm7.4-.3a2.4,2.4,0,0,1-1.5-1.1c.2.4-.1.7-.1,1a4.8,4.8,0,0,1,0,1.2h0a5.5,5.5,0,0,0-.2,2.2c.5-.4,1.1.6,1.6-.1l-.9-.6C76.5,94,78.1,93.5,78.2,92.4ZM71,93.8l-.8-.9c-.5,0-.2-1.2-.9-.9s-.2.5,0,.7a4.7,4.7,0,0,0-.4,1.6c.8.5.4,1.7.7,2.4s.7-.3,1-.3a1.3,1.3,0,0,0,.8-1.7C71.3,94.4,71.3,93.9,71,93.8Zm-7.7-1.2a1,1,0,0,0-.7-.4c-1.3,1.6,1.1,1.9.6,3.5.2,0,.7.5.8.1s.3,0,.5.1-.1-.5.1-.8-.5-.6-.6-.8-.3,0-.5.2.1-.5-.1-.9h-.3c-.2-.1-.2-.3-.3-.5S63.3,92.9,63.3,92.6Zm10.3.8c.1-.3.5-.7,0-1S73.5,93,73.6,93.4Zm7.5.9c.1-.5-.4-1-.5-1.4s-.1,2.1,0,3.1l1,.2C81.7,95.6,81.2,94.9,81.1,94.3ZM66.7,96.1a9.7,9.7,0,0,1-1.1-2.6h-.1c-.3.4-.4.9.1,1.2s.2.4-.1.6-.3.6-.4,1,.8.1,1.2.2S66.8,96.4,66.7,96.1Zm7.4-.5c.6-.7-.6-.5-.7-1.2v1C73.6,95.4,73.9,95.7,74.1,95.6ZM62.2,64.5v4.7c.6.5,1.6.4,2.1.9h.2c1,.1,1.6.6,2.7.6V64.4c-.2,0-.4.2-.6.1s-1.4.5-1.9-.1-.5.2-.8.2S62.8,64.6,62.2,64.5Zm23.2,4.3V64.4c-.3.1-.7-.1-1-.1s-.8.3-1.2,0-.8.4-1.2.1-1.1.3-1.6,0v5.7c.2.2.5-.1.7-.1A16.2,16.2,0,0,0,85.4,68.8Zm-6.2-7.4.2.3h6c.3-.2,1.1.2,1.2-.3Zm-10.9,0H60.9c-.1.1.2.3.2.4,2.2.2,4.2,0,6.4,0C67.9,61.8,68.3,61.8,68.3,61.4Zm-8.1-.3h8.5v.2h.4c-.4.6.3.7.7,1.2a2.9,2.9,0,0,1,.1,1.6c-.4.8-1.2.8-1.9.8v5.8h.2a3.4,3.4,0,0,1,.3-.8c.5-1,1.7-1.1,2.5-1.3s.5-1.5.5-2-.3-1.4-.5-2.2.9-1.3,1.5-1.7h.1c.6-.5,1.2,0,1.8-.1a3.3,3.3,0,0,1,1.4,2.1c.6,1.4-1.8,2.4-1.1,3.8a2.8,2.8,0,0,1,1.5.4c.7,0,1,.8,1.4,1.2s1-.2,1.1.1h.8V64.9a1.9,1.9,0,0,1-1.8-.7,2.1,2.1,0,0,1,.4-2c.1-.3.6-.1.5-.6s-.1-.2-.1-.3h.2v-.2h8.5v.2h.1a4.3,4.3,0,0,0-.1.5c.4-.1.6.4.9.6s.3,1.1,0,1.7-1.2.7-1.9.7v2.8h.3a1.3,1.3,0,0,1,.5.9c-.4.5-.2.9-.4,1.5s.5,2.1-.4,2.7v3.5a4.8,4.8,0,0,1,.4,1.5c.6,1.4-1.1,2.8,0,4.1s0,.9.4,1l.3-.3v.2c.2,0,.2-.2.3-.2s1-.4,1.4-.6.2.6.1.9a2.3,2.3,0,0,0,1,.7c-.2.5-.9,1.2-.1,1.5s.2,1.5-.6,1.2-1.3-.2-1.8.4a21.9,21.9,0,0,1-1.3,2.7v3.2c-.2,2.7-1.1,3.7-2.6,5.3h-.6c.1-.2.3-.5.1-.7l-1.2.5c-.3-.1-.2-.4-.2-.6a4.6,4.6,0,0,1-2-.5c-.1-1.6,0-3-.1-4.4s-.3-.4-.6-.2a9.4,9.4,0,0,1-1.5,2.8c.4.6,1.2.4,1.5,1s-.3.6-.1,1a5.7,5.7,0,0,1-2.6-.2c.5.5,1.3,1,1.8,1.6a2.6,2.6,0,0,1-1.9.7c-.9.4-1.1-1.1-1.9-.6s-.3-1.4-.4-1.9h-.4c-.3.3.2,1-.4,1.3l-2.7,1.2-1.5-.6a3.9,3.9,0,0,1-2,.8c-.5,0-.9-.7-1.5-.4s.3-.8.5-1.2H64.8c-.4.1-.7-.4-1,0a.8.8,0,0,0,.2.4H62.7l-.3-.5c-1.9-3.2-3.2-5.7-5-9l-.3-2.8c0-.5.1-.7.1-1.1s.7-2.7,1.7-3.2.6-.2,1-.3.9-.4,1.4-.6V74.1l-.3-.3c-.2-.8.4-1.7.2-2.7s.3-1-.1-1.4-.1-.7.2-1V64.9a2.6,2.6,0,0,1-1.5-.1,1.7,1.7,0,0,1-.4-1.9,1.8,1.8,0,0,1,.9-.8c.2-.3-.2-.6-.3-.8h.2ZM67.4,72c-.4.3,0,.8-.3,1.2s-.7.1-.9-.2.6-.4.2-.8S67.2,71.7,67.4,72ZM64,71.1a9,9,0,0,1,1.6.3c-.3.2-.2.4-.1.6h0l.3-.3h0c.1-.2.5,0,.7,0s-.7,1-1.2,1.4-.1-1.9-.9-1.6l-.2,1h.5c-.1.1,0,.3-.2.3l-1-.2c.2,0,.2-.4.4-.7s.2-.5-.2-.7-.2.3-.1.4-.8.1-.8.6l.2.2a.5.5,0,0,1-.7-.1h-.2c.5-.1.3-.5.5-.8l-.2-.5c.3-.4.6.2,1,.1S63.8,71,64,71.1Zm17,8.6h1.1l-.2.4H81ZM61.8,86.4l.3-.3.6-.3v.4l-.7.5Z" style="fill:none"/></clipPath><clipPath id="clip-path-34"><path d="M74.8,64c-.2-.5-1-.7-1.4-.8s-1.4.3-1.4.8.4,0,.7-.1,1.6-.2,2,.7,0,1,.3,1.1-.2-1.2-.2-1.7" style="fill:none"/></clipPath><clipPath id="clip-path-35"><path d="M70.9,70.5c-.2-.4.4-1.5-.5-1.1s-.2,1.3-.2,2a15.7,15.7,0,0,0,1,6.8c.4.2.8,0,1,.4s.9.4,1.3.1A6.6,6.6,0,0,1,72,77.3c-.2,0-.5.2-.7,0s.1-.6.2-.9.7-.4,1,0,1,1.9,2.1,1.9a.6.6,0,0,0,.7-.4,20.1,20.1,0,0,1-2.8-3.1c-1-1-1.3-2.8-1.6-4.3" style="fill:none"/></clipPath><clipPath id="clip-path-36"><path d="M76.8,79.5c-.3-.3-.5-1.4-1.1-.8l.3.4-2,1.4c-1.1.5-1.6-.4-2.5-.5s-.4-.1-.6-.1v.8c.5.6-.2,1.2,0,1.9a3.3,3.3,0,0,1,2.2.1c.2-.2,0-.9.5-.9a16.9,16.9,0,0,0,.8,2.4,4.3,4.3,0,0,0,.6-1.8c.2-.2-.1-.4.2-.6s.6.2.7.4l.7-.7c.4-.1.4-.5.5-.7Z" style="fill:none"/></clipPath><clipPath id="clip-path-37"><path d="M73.1,79.4c-.7.2-1.1-.4-1.8-.4s-.4.3-.2.5,1.2.1,1.7.4,1.2-.3,1.8-.7-1,.4-1.5.2" style="fill:none"/></clipPath><clipPath id="clip-path-38"><path d="M79,76.7c-.2-.1-.2-.2-.2-.4l-.4.5c.3-.2,1,.1,1.4.2h0a.8.8,0,0,0-.8-.2" style="fill:none"/></clipPath><clipPath id="clip-path-39"><path d="M83.8,83c.3-.1.7-.6.5-.9l-.6.5c0,.1-.2.5.1.4" style="fill:none"/></clipPath><clipPath id="clip-path-40"><path d="M89.2,83.7c-.2-.2-.9-.5-.6-.9s-.7.6-1.1.3a2.7,2.7,0,0,0-.9,1.5h.3c.7-.1.7-.9,1.4-.8s0,.5.2.8l.3-.5Z" style="fill:none"/></clipPath><clipPath id="clip-path-41"><path d="M78.2,84.1c.2-.1,0-.2-.1-.3v-.2c-.1.1,0,.1,0,.2s-.1.2.1.3" style="fill:none"/></clipPath><clipPath id="clip-path-42"><path d="M83.6,83.7c-.5-.1-.9.2-1.3.1V84c.2,0,.5.4.8,0h.1l.3-.4" style="fill:none"/></clipPath><clipPath id="clip-path-43"><path d="M85.2,85.1a1.8,1.8,0,0,0,.7-.8c-.3.1-.5.5-.7.8" style="fill:none"/></clipPath><clipPath id="clip-path-44"><path d="M85.3,89.7h-.2c-.4-2.2-.4.8-1.3.6s.4.5.5.6l.7.3Z" style="fill:none"/></clipPath><clipPath id="clip-path-45"><path d="M84.1,91.8,83,90.5c-.2.1-.5-.1-.4.2L83.7,92c.4.9.6,1.7,1.5,2.2a3.5,3.5,0,0,0,.6-1.8l-.9-.5a.4.4,0,0,1-.5.2c-.2.1-.3-.2-.3-.3" style="fill:none"/></clipPath><clipPath id="clip-path-46"><path d="M78.2,92.4a2.4,2.4,0,0,1-1.5-1.1c.2.4-.1.7-.1,1a4.8,4.8,0,0,1,0,1.2h0a5.5,5.5,0,0,0-.2,2.2c.5-.4,1.1.6,1.6-.1l-.9-.6c-.6-1.1,1-1.6,1.1-2.7" style="fill:none"/></clipPath><clipPath id="clip-path-47"><path d="M81.1,94.3c.1-.5-.4-.9-.5-1.4,0,1.1-.1,2.1,0,3.1l1,.2c.1-.6-.4-1.3-.5-1.9" style="fill:none"/></clipPath><clipPath id="clip-path-48"><path d="M69.6,71c-.1-.4.2-.9-.1-1.3s-.6,1.5-.6,2.5-1.1,2.2-1.5,3.1-1.6,3.4-2.3,5.1a1.2,1.2,0,0,1-1.2.6l.3.2c.1.2.3.4.1.6a2.3,2.3,0,0,0,1.1-.8c.1-1.8,2-2.7,2.4-4.5-.4.4-.6,0-.7-.3s.7-.3,1.1-.6A8.2,8.2,0,0,0,69.6,71" style="fill:none"/></clipPath><clipPath id="clip-path-49"><path d="M74.1,65.1c-.4-.5-1-.5-1.7-.5s-.2.3,0,.5.4.7.6,1.1,1.1,1.3,1.5.2l-.4-.8-.7.2c-.4-.1-.1-.5-.1-.7s.5-.1.7-.1-.2.3.1.4Z" style="fill:none"/></clipPath><clipPath id="clip-path-50"><path d="M73.9,68.4c-.6.1-1.2.4-1.8,0s-.7.4-.6.8l1.5.3c0-.3-.3-.6,0-.8h.6c-.1.3.3.5,0,.8s-.5.2-.5,0l-.3.5-1.2-.2a9.3,9.3,0,0,0,.4,2.3c.6.1.3.7.4,1h.1c.3.3.5-.2.8-.2s.3-.9,0-1.4.3-.5.5-.4a2.1,2.1,0,0,1,.3,1.6c.2.9-.8,1-1.4,1.1a7.6,7.6,0,0,0,1.1,1.4c.1-.3.4-.8.1-1.2a.6.6,0,0,1,.6-.3c.8.8-.4,1.8.2,2.5v-.3c.3-.3.6-.8,1.1-.3V74c-.1-.7-1.2-.2-1.3-.9s1-.1,1.3-.1.1-.5.2-.7-.1-1.3,1.1-1.2v-.5a1.4,1.4,0,0,0-1.2-1.1V70a3.7,3.7,0,0,1-1.5.1c-.1-.9.9-.4,1.3-.8s-1.5,0-1.6-.9" style="fill:none"/></clipPath><clipPath id="clip-path-51"><path d="M77.3,71.5h-.1c.1.9-.5,1.4-.9,2.1a2.7,2.7,0,0,1,.3,1.5c-.6.7.2,1.3.6,1.9s.1-2,.2-3,.4-1.6-.1-2.5" style="fill:none"/></clipPath><clipPath id="clip-path-52"><path d="M75.8,75.9c-.6,0-.3.6-.5.9a4.6,4.6,0,0,0,.7.7V76.4c.1-.3-.4-.2-.1-.5" style="fill:none"/></clipPath><clipPath id="clip-path-53"><path d="M76.6,86.9a6.7,6.7,0,0,0,.5-4.8l-.8.7c-1.4.1-.7,1.9-1.9,2.3s.3,2.5.5,3.8h.4c.4.4.2.7.5,1.1l-.5.2c-.4,0-.4-.2-.4-.5l-.4,1.2c-.7,1.7,1,3.1.4,4.8s-.2.8.2,1l-.5.5c-.1.6.7.2.9.4s.4.9.9.5.1-.6.1-.8c-1.6-.8-.7-2.6-.6-3.9s-.3-2.6.4-3.9.2-1.8.3-2.6" style="fill:none"/></clipPath><clipPath id="clip-path-54"><path d="M72.8,92.1c.7-1.5-.5-3.3,0-4.7l.2-.3-.2.3c-.3.2-.9,1.4-1.2.4a6.4,6.4,0,0,0,1-1.8c.2,0,.6,0,.6.2a5.3,5.3,0,0,0,.3-2.2c-.5.2-.8-.4-1.1-.8a1.6,1.6,0,0,0-1.5.2,15.8,15.8,0,0,0,.1,3.1,27,27,0,0,1,.4,2.8c.1.1.4-.3.6.1s.2.4,0,.5-.5.8-.8,1.2,1.6,3.4.5,5.3-1.6.6-2.1,1.3.5-.4.7-.5.4.3.5.5a.3.3,0,0,0-.3.3A11.2,11.2,0,0,0,73,96.9l-.4-.4c.3-.3.2-.8.2-1.1s.2-2.3,0-3.3" style="fill:none"/></clipPath><clipPath id="clip-path-55"><path d="M62.8,80.9c-.5-.4-1.1.1-1.7,0s-1.5.4-2,.9.4.4.3.8l.8-.7c.6.1,1-.6,1.4-.4s0,.5-.1.7h-.1l-.2.2h.7c.7-.2.4-1.1.9-1.5" style="fill:none"/></clipPath><clipPath id="clip-path-56"><path d="M58.8,82.7c-.4-.2-.4.6-.5.8a1.2,1.2,0,0,0,.5-.8" style="fill:none"/></clipPath><clipPath id="clip-path-57"><path d="M59.3,83.6c-.2.2-.5.2-.4.5s.2.2.3.2-.1-.4.1-.7" style="fill:none"/></clipPath><clipPath id="clip-path-58"><path d="M63,90.4c-.4.3-.8-.2-1.3-.1s-.5.3-.2.5.5.2.8.2.7-.3.7-.6" style="fill:none"/></clipPath><clipPath id="clip-path-59"><path d="M70.8,92.7c0-.5-.2-1.1-.2-1.5a1.2,1.2,0,0,0,.2,1.5" style="fill:none"/></clipPath><clipPath id="clip-path-60"><path d="M63.3,92.6a1,1,0,0,0-.7-.4c-1.3,1.6,1.1,1.9.6,3.5.2,0,.7.5.8.1s.3,0,.5.1-.1-.5.1-.8-.5-.6-.6-.8-.3,0-.5.2.1-.5-.1-.9h-.3c-.2-.1-.2-.3-.3-.5s.5-.3.5-.6" style="fill:none"/></clipPath><clipPath id="clip-path-61"><path d="M73.6,93.4c.1-.3.5-.7,0-1s-.1.6,0,1" style="fill:none"/></clipPath><clipPath id="clip-path-62"><path d="M66.7,96.1a9.7,9.7,0,0,1-1.1-2.6h-.1c-.3.4-.4.9.1,1.2s.2.4-.1.6-.3.6-.4,1,.8.1,1.2.2.5-.2.4-.5" style="fill:none"/></clipPath><clipPath id="clip-path-63"><path d="M74.1,95.6c.6-.7-.6-.5-.7-1.2v1c.2,0,.5.3.7.2" style="fill:none"/></clipPath><clipPath id="clip-path-64"><path d="M65.4,85.4c-.1-.6-.5-.2-.8-.1s.4,0,.8.1" style="fill:none"/></clipPath><clipPath id="clip-path-65"><path d="M74,87.1l-.2-.2c-.1,1-.6,2-.1,3h-.1c.1.2.1.6.3.6s.1-2.3.1-3.5" style="fill:none"/></clipPath><clipPath id="clip-path-66"><path d="M54.8,51.7s5.9-4.1,19.4-4.1,20.8,4,20.8,4Z" style="fill:none"/></clipPath><clipPath id="clip-path-67"><path d="M77.7,42.1l-4.3-1.7-1.9.7h0l-2.4,1c0,.1-.3.2-.2.5s2.1.8,3,1.3,1.1.6,1.7.4,3-1,4.2-1.7a.4.4,0,0,0-.1-.5m.5-1.7c.8-.2,1.8.2,2.4.1s.5-.1.8,0-.4.1-.6.2-1.2.9-1.5,1.5a2.5,2.5,0,0,0,.3,1.9l.8.7c-1.4-.2-3.1-.1-4.6-.3H70.4c-.1-.2-.1.1-.3.1a13.1,13.1,0,0,0-3.4.3c.2-.4.6-.5.8-1a1.9,1.9,0,0,0,.2-1.8,1.9,1.9,0,0,0-1.9-1.4h0a19.2,19.2,0,0,0,2.2-.3h.1c.1-.2.2.1.3-.1l3.2-.2c2.1.1,4.5-.1,6.6.2" style="fill:none"/></clipPath><clipPath id="clip-path-68"><path d="M74.2,22c-.3-.3-.5-.7-.9-.7a1.8,1.8,0,0,0-.9,1.9,14,14,0,0,0,0,5c.2.2.1.5.2.6s.3.8.7.8a1.1,1.1,0,0,0,.8-.3,12.1,12.1,0,0,0,.1-7.3m3.4-1.6a2.4,2.4,0,0,0-2.3-.4c-.4.1-.2.5-.3.8v1.9a23.8,23.8,0,0,0,.1,3.8,2.8,2.8,0,0,0,0,1.3c.2.2.2.1.5.1a5.2,5.2,0,0,0,1.9-2.7,2.9,2.9,0,0,0,.5-1.9c.4-.3-.1-.7.2-1a3.3,3.3,0,0,0-.6-1.9m-5.8,0c-.3-.6-1.1-.5-1.4-.6a2.2,2.2,0,0,0-1.7,1.4c.1.2-.1.5,0,.6h-.1c.1,1.2.2,2.9.9,3.8s.9,1.3,1.2,1.8.5.6.8.5.3-.4.3-.7a24.4,24.4,0,0,0-.1-2.8c.1-1.4,0-2.6.1-4.1m2.8-4.1a4.5,4.5,0,0,1,0,2.3c.3.5,1.1.2,1.5.3s2.5.8,2.8,2.3a8.1,8.1,0,0,1-.5,3.1,13.8,13.8,0,0,1-2.5,4.8.5.5,0,0,0-.4.2c-.1,1.5-.4,2.8.7,3.9a3.3,3.3,0,0,0,3.3-.5c.6-.4,1-1.1,1.5-1.4a1.3,1.3,0,0,0,.9.2c.5,1.3,1.4,3,2.9,3.5h1.5c.1-.1.2,0,.3,0a4.8,4.8,0,0,0,2.9-1.7c.5-.3.7-.8,1.4-.4h0c.1.3.7,0,.6.4s.5,1.2.8,1.9a3.7,3.7,0,0,0,3.6,2.1h.5a9.9,9.9,0,0,0,3.2-2.1l.8.2c.2,1.4.2,2.9,1.4,3.9s.1.3.3.2.8.1,1.2.2a4.5,4.5,0,0,0,3.2-1.9,1.7,1.7,0,0,1,.6.6c-1.4,1.5-2.8,3.2-5,3.5-.4-.3-1.2-.2-1.4-.7a1.5,1.5,0,0,1-.5-.6A14.5,14.5,0,0,1,99.1,38c-.1-.2-.3-.2-.6-.1a5.3,5.3,0,0,1-3.4,1.5l-.9-.2c-.1.1-.3-.1-.4-.1s-.2-.1-.3-.1-.5.1-.6-.2a2.9,2.9,0,0,1-1.5-1.4,7.4,7.4,0,0,1-1-2.2.6.6,0,0,0-.6,0,5.3,5.3,0,0,1-2.4,2.1c-1.3.7-2.5-.1-3.6-.1a3.3,3.3,0,0,1-1.9-2.6c-.1,0-.2-.1-.1-.2s0-.7-.5-.8-.6.9-.9,1.4a3.9,3.9,0,0,1-3.1,1.7c-1.7.1-2.6-1.5-3.3-2.9a.9.9,0,0,0-.1-.5c-.2-.2-.4-.6-.7-.3l-.2.3h.1c-.6,1.5-1.4,3.3-3.3,3.4-.1-.1-.2.1-.3,0a2.5,2.5,0,0,1-1.2-.2,4.3,4.3,0,0,1-2.2-2.4c-.1-.2-.4-.5-.7-.3s-.4.4-.2.7A3.6,3.6,0,0,1,63,37.4c-1.5.3-3.1.6-4.5-.5A10.6,10.6,0,0,1,57,35.4c-.2-.1-.6,0-.6.3a5,5,0,0,1-2.6,3.6,4.6,4.6,0,0,1-3.8-.1c0-.1-.3,0-.4-.1s-1-1.3-1.7-.7-.9,3.3-2.6,3.7h-1a10.7,10.7,0,0,1-4.4-3.3c0-.3.4-.4.5-.6s1,.8,1.5,1.3.5.3.8.4a3.4,3.4,0,0,0,2.8-.4,5,5,0,0,0,1-3.3c.1-.1,0-.3.1-.5l.8-.3c1.1,1.3,3.1,2.6,4.9,2.1s2.7-2.4,3.1-4,.5-.2.8-.2.9.2,1.3.4a2,2,0,0,0,.7.6,3.8,3.8,0,0,0,3.3.9c.1.1.4,0,.5-.1a3.5,3.5,0,0,0,2-1.4h0c.3-.3.3-.6.6-1s.2-1.4.9-1.1H66c1.1,1.3,2.9,2.4,4.5,1.9s1.2-2.6.9-3.9a12.4,12.4,0,0,1-2.7-4.3,3.6,3.6,0,0,1-.4-.9,9.3,9.3,0,0,1-.4-2.4c.1-.2,0-.6.1-.8a2.6,2.6,0,0,1,2-2,11,11,0,0,1,1.8-.2c.6-.4.2-1.1.2-1.7h-.1l.3-.8a1.9,1.9,0,0,1,1.9-.3c.1.1.3.3.5.2" style="fill:none"/></clipPath><clipPath id="clip-path-69"><path d="M48.7,61.5l24.9,60.8L98.8,61.5ZM27,49.4h92.9L73.5,159Z" style="fill:none"/></clipPath><clipPath id="clip-path-70"><polygon points="117.5 50.7 73.4 156.8 73.1 125.1 100.3 60.4 73 60.4 73 50.7 117.5 50.7" style="fill:none"/></clipPath><clipPath id="clip-path-71"><polygon points="29 50.7 74.6 50.7 74.6 60.4 47.3 60.4 73.6 124 73.6 156.8 29 50.7" style="fill:none"/></clipPath><clipPath id="clip-path-72"><path d="M82.7,42.4c-.3-.7-.7-.8-1.4-.9a1.1,1.1,0,0,0-1,.7,1.3,1.3,0,0,0,0,1.2c0,.4.5.6.8.7s.3.3.4,0,.6-.2.9-.3a1.8,1.8,0,0,0,.3-1.4" style="fill:none"/></clipPath><clipPath id="clip-path-73"><path d="M66.9,42.4c-.3-.1-.4-.6-.8-.7a1.4,1.4,0,0,0-1.6.5,2.2,2.2,0,0,0-.1,1.4c.1.2.4.3.6.5a1.3,1.3,0,0,0,1.2,0c.3-.2.7-.5.7-.9v-.8" style="fill:none"/></clipPath><clipPath id="clip-path-74"><path d="M96.5,44.7a1.7,1.7,0,0,0-1.8-.2,1.8,1.8,0,0,0-.5,1.7c.4.7,1,.7,1.7.7a1.6,1.6,0,0,0,.9-.9,2.8,2.8,0,0,0-.3-1.3" style="fill:none"/></clipPath><clipPath id="clip-path-75"><path d="M52.8,45.3c-.2-.5-.6-.5-1-.7s-.3-.1-.5,0-.5.1-.7.6a1.4,1.4,0,0,0,1.1,2.2c.3-.2.7-.1,1-.5a1.8,1.8,0,0,0,.1-1.6" style="fill:none"/></clipPath><clipPath id="clip-path-76"><path d="M40.9,39.9a7.7,7.7,0,0,0,3.4,2.2,2.7,2.7,0,0,0,.9,0h.1a3.4,3.4,0,0,0,2.1-2.4h.9a3.4,3.4,0,0,1-.6,1.2l2.6-.8-.9-.4h5.5l-1.6.4c-.2.2-.7.1-1,.3a63.5,63.5,0,0,0-8,2.8,2.1,2.1,0,0,0-.3.7,1.3,1.3,0,0,0,.9,1.1l6.4-2.4a12.9,12.9,0,0,0,2.1-.6l4.1-1h.2A42.8,42.8,0,0,1,65,39.9H84.7a83.7,83.7,0,0,1,10.2,2.1c1.5.4,3,1.1,4.5,1.5s1,.3,1.4.6,1,.4,1.5.4a1,1,0,0,0,.7-.5c.3-.4,0-.8-.2-1.2l-3.3-1.3c-.9-.3-1.9-.5-2.8-.9h0c-.2-.2-.5-.1-.7-.3a8.1,8.1,0,0,1-2.2-.7.9.9,0,0,1-.7,0h3.7c.3.4.9.2,1.2.5a2.8,2.8,0,0,0,1.3.3,3,3,0,0,1-.4-.8h.9l.4.6a1.5,1.5,0,0,0,.5.6c.2.5,1,.4,1.4.7a6,6,0,0,0,3.5-1.9h1.2a8.5,8.5,0,0,1-3.5,2.4,2.3,2.3,0,0,1,.6,1.9c-.3.6-.9,1.3-1.6,1.3s.7,2,.6,3-1.3,1.1-2,1.6-14-.4-12.4-.5c0-.3-.2,0-.3-.1s0,0,0-.1a.3.3,0,0,1-.4,0L85.5,49a13.5,13.5,0,0,0-2.8-.4h-.8a4.9,4.9,0,0,0-2.1-.2,53.9,53.9,0,0,0-12.7,0c-.1.1-.3-.1-.4.1a26.4,26.4,0,0,1-2.8.2h0c-1.8.4-3.7.6-5.4,1.1a.1.1,0,0,1,.1.1H46.1c-.5-.7-2.2-.6-1.8-1.8l.6-2.2c-.4-.2-.9-.2-1.1-.6s-.4-.5-.5-.8a1.8,1.8,0,0,1,.5-1.8,10,10,0,0,1-3.9-2.9Zm3.9,0a3.8,3.8,0,0,1-2.1,0h2.1Zm33.4.5c-2.1-.3-4.5-.1-6.6-.2l-3.2.2c-.1.2-.2-.1-.3.1H68a19.2,19.2,0,0,1-2.2.3h0a1.9,1.9,0,0,1,1.9,1.4,1.9,1.9,0,0,1-.2,1.8c-.2.5-.6.6-.8,1a13.1,13.1,0,0,1,3.4-.3c.2,0,.2-.3.3-.1h5.4c1.5.2,3.2.1,4.6.3l-.8-.7a2.5,2.5,0,0,1-.3-1.9c.3-.6.7-1.4,1.5-1.5s.5.1.6-.2-.5.1-.8,0S79,40.2,78.2,40.4Zm5.2.5a2.7,2.7,0,0,0-1.3-.2h.4l.7.7a2.7,2.7,0,0,1,.3,2.3A2.8,2.8,0,0,1,81.9,45l2.5.3c-.1-.5-.4-.9-.3-1.5a2.1,2.1,0,0,1,1.2-1.4c.2.1.5,0,.7,0s.6,0,.7.2l3.2.4c.5.2,1,.2,1.4.6a1.8,1.8,0,0,1,.4,1.9c-.2.4-.4.8-.9.9a2.8,2.8,0,0,0,1.2.4c.3-.1.6.4.9.2s.7.2,1.2.4-.3-.1-.3-.3-.1-.5-.4-.7a2.3,2.3,0,0,1,.5-2.4c.5-.3.9-.7,1.5-.6h0l-2.9-.8c-1.2-.2-2-.5-3-.6l-1.2-.3A27.6,27.6,0,0,0,83.4,40.9Zm-18.2-.2h0Zm-.2.1c-2,0-4.1.7-6.2,1-.3,0-.7.3-1.1.2-1.9.6-4.3,1-6.2,1.7.3.2,1,0,1.4.4a3.1,3.1,0,0,1,.9,1.2,3.2,3.2,0,0,1-.6,2.4c.3,0,.7-.4,1.1-.3s1.1-.2,1.7-.5a1.9,1.9,0,0,1-1.7-.9,1.7,1.7,0,0,1,0-1.7,2.1,2.1,0,0,1,1.7-1c.1,0,.5-.2.6-.1h.2c1.4-.2,2.6-.7,3.9-.3a2,2,0,0,1,1.1,1.3,2.3,2.3,0,0,1-.6,1.6l2.3-.4,1.5-.2a2.2,2.2,0,0,1-1.3-1,2.1,2.1,0,0,1-.1-2A2.2,2.2,0,0,1,65,40.8Zm17.7,1.6c-.3-.7-.7-.8-1.4-.9a1.1,1.1,0,0,0-1,.7,1.3,1.3,0,0,0,0,1.2c0,.4.5.6.8.7s.3.3.4,0,.6-.2.9-.3A1.8,1.8,0,0,0,82.7,42.4Zm-15.8,0c-.3-.1-.4-.6-.8-.7a1.4,1.4,0,0,0-1.6.5,2.2,2.2,0,0,0-.1,1.4c.1.2.4.3.6.5a1.3,1.3,0,0,0,1.2,0c.3-.2.7-.5.7-.9ZM90,43.9H88.9c-1.3,0-2.5-.9-3.7-.3a1.3,1.3,0,0,0-.2.9.9.9,0,0,0,.7.6c.8.3,1.7.2,2.6.5a4.5,4.5,0,0,0,2.3.1c.3-.2.3-.7.3-1S90.4,44,90,43.9Zm-29.1.2c-.3-.5-.7-.8-1.2-.6l-4.2.8a.8.8,0,0,0-.5.7c0,.3,0,.8.4.9a12.7,12.7,0,0,0,2.8-.3C59.3,45.1,61,45.7,60.9,44.1Zm37,0-1.3-.4c.4.2.6.6.9.9s.4,1.5-.1,2a2.3,2.3,0,0,1-1.8,1.3l2.7.8c.1,0,.4.3.6.2h-.1c-.1-.8-.5-1.8-.6-2.6s.9-.6,1.3-.9l.8-.3c0-.2-.2-.1-.3-.3s-1.2-.5-1.7-.5S97.9,44.2,97.9,44.1Zm-47.6,0-1.6.5c-.6.4-1.4.4-1.9.8s1.8.5,2.1,1.4a25,25,0,0,1-.7,2.6l2.6-1c.2-.1.5,0,.5-.3a2.3,2.3,0,0,1-1.7-1.3A2.6,2.6,0,0,1,50.3,44.1Zm46.2.6a1.7,1.7,0,0,0-1.8-.2,1.8,1.8,0,0,0-.5,1.7c.4.7,1,.7,1.7.7a1.6,1.6,0,0,0,.9-.9A2.8,2.8,0,0,0,96.5,44.7Zm-43.7.6c-.2-.5-.6-.5-1-.7s-.3-.1-.5,0-.5.1-.7.6a1.4,1.4,0,0,0,1.1,2.2c.3-.2.7-.1,1-.5A1.8,1.8,0,0,0,52.8,45.3Zm19.4.1a3.3,3.3,0,0,1-1,0c-2.6.3-5,.3-7.5.8-.8,0-1.7.3-2.4.3l-5.2,1.2a3,3,0,0,1-1.2.3c-1.1.5-2.2.6-3.4,1.2h-.7a2.7,2.7,0,0,1-1.4.5h1.7c1.2-.1,2.4.1,3.6-.1h.7a66.9,66.9,0,0,1,9.7-2,13.1,13.1,0,0,1,3.4-.3,22.2,22.2,0,0,1,4.6-.3h0c.5.1,1.2-.1,1.8,0s2.4.1,3.7.1.4.2.6.1a67.2,67.2,0,0,1,7.5,1,14.7,14.7,0,0,1,3.5.8c.2-.1.6.1.8.1a8,8,0,0,0,3,.4h3.4c.1-.1.4,0,.3-.1s-.5-.2-.7-.3-2.9-.8-4.3-1.3a13.8,13.8,0,0,1-2.9-.8h0a61.7,61.7,0,0,0-6.2-1.1h0a35.4,35.4,0,0,0-4.8-.5c-.1.1-.3-.3-.5,0C76.3,45.4,74,45.4,72.2,45.4Zm29.3.7v-.5c-.7,0-1.5.7-2.2,1s.3,1.6.7,2.5l1.8-.8.4-.2c0-.2,0-.3-.1-.4S101.6,46.6,101.5,46.1Zm-53.6.8a13.3,13.3,0,0,0-2.1-.9,23.3,23.3,0,0,0-.7,2.5,17.2,17.2,0,0,1,1.9.9c.2,0,.3.3.3,0A18.3,18.3,0,0,0,47.9,46.9Zm29.8-4.8a.4.4,0,0,1,.1.5c-1.2.7-2.8,1-4.2,1.7s-1.2-.3-1.7-.4-2.1-.7-3-1.3.2-.4.2-.5l2.4-1h0l1.9-.7Zm-1.5.3-2.8-1.1-2.8,1.1a7.5,7.5,0,0,1,1.3.6,6.5,6.5,0,0,1,1.3.4c.4.3.9-.3,1.3-.3Z" style="fill:none"/></clipPath><clipPath id="clip-path-77"><path d="M39.9,39.9a6,6,0,0,0-.8-.8H38a2.7,2.7,0,0,1-1.9-1.8,3.9,3.9,0,0,1,.4-2.1c-1.1-1.4-2.4-3.2-4-4h-.3c.1-.3-.4.1-.1-.2H32c0-.1.1,0,.1-.2s.7-.2.9-.5.4.1.5-.2h.4c.2-.2.6-.2.8-.3s1,0,1.7-.1.3,0,.4.2h.6a4,4,0,0,1,2.4,2.7c.8-.2,1.8-.6,2.6,0s1.7,2.4,1.9,3.7-.1,1.1-.5,1.4-1.5.4-2.2.6A2.6,2.6,0,0,0,44,39.2a1.6,1.6,0,0,0,1.3-.8,9,9,0,0,0,.4-2.8,2.8,2.8,0,0,1-1.8-1.9,3.8,3.8,0,0,1,.5-2.1,2.5,2.5,0,0,1,2.6-.7,2.2,2.2,0,0,1,1.6,1.6c.1.4.3,1.2-.1,1.6l-.4.8c.9.9,1.9,1.9,3.2,2a3.1,3.1,0,0,0,2.5-1.5c.2-.3.2-.7.5-1h-.1a3.7,3.7,0,0,1-3.8-.1c-1.5-1.2-1.9-2.9-2.2-4.6l.2-.2a1.2,1.2,0,0,1,.3-1.1c.7-.6,1.4-.4,2.1-.4s.5.2.8-.1a7.9,7.9,0,0,1-1.4-2.3h0c-.3-.3-.2-.8-.4-1.2a2.5,2.5,0,0,1,1.5-2.4c.5-.3,1.1-.3,1.6-.6s3.2-.7,4.3.6a2.9,2.9,0,0,1,.5,1.3c.3,1.1-.1,2.3-.1,3.4h.1a5,5,0,0,1,2.4-1.2c.1.2.3-.1.4,0,1.6.6,1.6,2.7,1.7,4.3a3.5,3.5,0,0,1-1.5,2.9,5.1,5.1,0,0,1-2.4.7h0a3.7,3.7,0,0,0,2,1.1,3.6,3.6,0,0,0,1.8-.2c.4-.4,1-.7,1.3-1.2a5.3,5.3,0,0,0,.8-1.7,2.9,2.9,0,0,1-1.4-2,2.5,2.5,0,0,1,1.1-2.5,4.1,4.1,0,0,1,1.5-.2,2.3,2.3,0,0,1,2,1.5,2.7,2.7,0,0,1-.6,2.8,3.6,3.6,0,0,0,3.3,1.7c.8-.7.7-1.9.5-2.9a14.9,14.9,0,0,1-1.2-1.4h.1a9.7,9.7,0,0,1-1.8-3.5c-.6-1.6-.9-3.5,0-5s.1-.2,0-.2a3.9,3.9,0,0,1,1.9-1.2c.4-.2.9-.1,1.3-.4s.4.2.4-.1a.1.1,0,0,1-.1-.1c.3-.3,0-.7.1-.9s.6-1.2.7-1.4.7-.4,1.2-.3.5-.2.7.1a1.5,1.5,0,0,1,1.3.7c.4.7.2,1.2.3,1.9l.2.2h.1c1.5.2,3,.6,3.7,2.2a6.1,6.1,0,0,1,0,3c-.2.1.1.3-.1.4a13.2,13.2,0,0,1-3.1,6.1,4,4,0,0,0,.4,2.8c1.4.4,2.7-.7,3.4-1.7s-.9-1.1-.7-1.9a.8.8,0,0,1,.1-.8,2,2,0,0,1,1.7-1.6,2.3,2.3,0,0,1,2.6,1.1c0,.1.2.3.2.5s0,1.5-.3,2.2-1.4.6-.8,1.3a3.8,3.8,0,0,0,2.4,2.5h.1c.3-.1.6.1.9,0a3.5,3.5,0,0,0,2.4-1.2A4,4,0,0,1,85,30.9a3.2,3.2,0,0,1-.3-1.4h-.1a6.1,6.1,0,0,1,1.1-3.8c.4-.5,1-.3,1.5-.3h.1c.1-.1.4,0,.5.2l1.5.7L89,24.2c0-.3-.1-.6.1-.9s0-.4,0-.6a2.6,2.6,0,0,1,1.8-2h.8a9.8,9.8,0,0,1,3.4.7l.2.2h0a2.9,2.9,0,0,1,1.6,1.8c-.1.1.1.2.1.3a6.8,6.8,0,0,1-1.7,4h.1a8.1,8.1,0,0,1,2.2,0l.7.5.2.2c-.1.2.3.3,0,.6s-.2,1.5-.2,2.3-1.5,3.2-3.3,3.2a4.3,4.3,0,0,1-2.2-.4c-.2.3.1.5.1.7a4.7,4.7,0,0,0,1.9,1.8c1.6.4,3-.8,4.1-1.9s-.6-1.1-.7-1.5A3,3,0,0,1,99,31a3.3,3.3,0,0,1,1-.6h0a2.4,2.4,0,0,1,2,.2,2.9,2.9,0,0,1,1.1,1.9,2.5,2.5,0,0,1-.7,1.9c-.4.4-1,.4-1.2.8s.2,2.6,1.2,3.3,1.9,0,2.7-.6l.3-.4h-1.3a2.9,2.9,0,0,1-1.2-.7,5.4,5.4,0,0,1,.7-4.1,2.7,2.7,0,0,1,2.2-1.1h.3v.2c.2-.2.6.2.9.2a7.1,7.1,0,0,1,.8-1.5,4.1,4.1,0,0,1,1.4-1.2c1.4-.7,2.7-.3,4.3,0s.6.1.6.4.4.1.7.2-.7.6-1.1,1a13,13,0,0,0-3.2,3.8c.1.7.7,1.3.3,2.1a2.4,2.4,0,0,1-2,1.7,2.7,2.7,0,0,1-.9,0l-1.2,1.4h-1.2a11,11,0,0,0,1.5-1.6,1.7,1.7,0,0,0-.6-.6,4.5,4.5,0,0,1-3.2,1.9c-.4-.1-.8.1-1.2-.2s-.2-.3-.3-.2-1.2-2.5-1.4-3.9l-.8-.2a9.9,9.9,0,0,1-3.2,2.1h-.5a3.7,3.7,0,0,1-3.6-2.1c-.3-.7-.6-1.3-.8-1.9s-.5-.1-.6-.4h0c-.7-.4-.9.1-1.4.4a4.8,4.8,0,0,1-2.9,1.7c-.1,0-.2-.1-.3,0H84.8c-1.5-.5-2.4-2.2-2.9-3.5a1.3,1.3,0,0,1-.9-.2c-.5.3-.9,1-1.5,1.4a3.3,3.3,0,0,1-3.3.5c-1.1-1.1-.8-2.4-.7-3.9a.5.5,0,0,1,.4-.2,13.8,13.8,0,0,0,2.5-4.8,8.1,8.1,0,0,0,.5-3.1c-.3-1.5-1.5-2-2.8-2.3s-1.2.2-1.5-.3a4.5,4.5,0,0,0,0-2.3c-.2.1-.4-.1-.5-.2a2.1,2.1,0,0,0-2,.3,2.4,2.4,0,0,1-.2.8H72c0,.6.4,1.3-.2,1.7a11,11,0,0,0-1.8.2,2.6,2.6,0,0,0-2,2c-.1.2,0,.6-.1.8a9.3,9.3,0,0,0,.4,2.4,3.6,3.6,0,0,0,.4.9,12.4,12.4,0,0,0,2.7,4.3c.3,1.3.4,2.9-.9,3.9s-3.4-.6-4.5-1.9h-.5c-.7-.4-.6.6-.9,1s-.3.7-.6,1h0a3.9,3.9,0,0,1-2,1.4c-.1.1-.4.2-.5.1a3.8,3.8,0,0,1-3.3-.9,2,2,0,0,1-.7-.6c-.4-.2-.7-1.1-1.3-.4s-.7-.1-.8.2-1.3,3.7-3.1,4-3.8-.8-4.9-2.1l-.8.3c-.1.2,0,.4-.1.5a5,5,0,0,1-1,3.3l-.7.3H42.6c-.2-.1-.5-.4-.7-.4s-1.1-.8-1.5-1.3-.5.3-.5.6a9.4,9.4,0,0,0,1,1Zm7.5,0c.2-.5.3-1.1.5-1.5s1.1.5,1.7.7.4,0,.4.1a4.6,4.6,0,0,0,3.8.1,5,5,0,0,0,2.6-3.6c0-.3.4-.4.6-.3a10.6,10.6,0,0,0,1.5,1.5c1.4,1.1,3,.8,4.5.5a3.6,3.6,0,0,0,2.2-2.9c-.2-.3.1-.5.2-.7s.6.1.7.3a4.3,4.3,0,0,0,2.2,2.4,2.5,2.5,0,0,0,1.2.2c.1.1.2-.1.3,0,1.9-.1,2.7-1.9,3.3-3.4H73l.2-.3c.3-.3.5.1.7.3a.9.9,0,0,1,.1.5c.7,1.4,1.6,3,3.3,2.9A3.9,3.9,0,0,0,80.4,35c.3-.5.3-1.2.9-1.4s.4.5.5.8,0,.2.1.2a3.3,3.3,0,0,0,1.9,2.6c1.1,0,2.3.8,3.6.1a5.3,5.3,0,0,0,2.4-2.1.6.6,0,0,1,.6,0,7.4,7.4,0,0,0,1,2.2,2.9,2.9,0,0,0,1.5,1.4c.1.3.4.1.6.2s.1.3.3.1.3.2.4.1l.9.2a5.3,5.3,0,0,0,3.4-1.5c.3-.1.5-.1.6.2a13.4,13.4,0,0,1,.7,1.8h-.9l-.3-.9-1.6.8H92.9c-.2-.1-.5,0-.7-.2s-.8-.3-1.2-.2-.3-.3-.5-.1c-2.3-.7-4.9-.8-7.4-1.4h-.2l-4.2-.5H76.6c-.7.2-1.4-.2-2.1.1s-.9,0-1.4-.1a5.4,5.4,0,0,1-1.8,0c-.7.2-1.2,0-1.8.2a62.5,62.5,0,0,0-9.8,1.2c-.2-.1-.3.3-.5,0s-1.4.3-2.1.6H57l-2.1.6H49.4l-.9-.5c-.1.1-.1.3-.2.4Zm17.6,0a86.7,86.7,0,0,1,8.8-.6c.2.2.4-.1.6.1h.8c2.5.1,4.9.2,7.4.5ZM92.9,21.6a3.8,3.8,0,0,0-1-.3c-.8.1-1.7.3-1.9,1.1s.1.3-.1.4h0a1.5,1.5,0,0,1-.2.9,10,10,0,0,1,.2,1.6,1.4,1.4,0,0,0,.2.7l.6,2c.3,0,.8.2.9-.3s.1-.7.1-.9h.1c.2-1,.4-2.1.7-3.1l.4-.2a1,1,0,0,1,.4.5c-.3,1.3-.5,2.4-.8,3.6s.2.9.6,1.1,1.4-1.4,2-2.2a5.8,5.8,0,0,0,1.1-3.1C95.7,22,94.2,21.8,92.9,21.6ZM56.4,22c-1-.8-2.3-.3-3.4,0a3.4,3.4,0,0,0-2.2,1.3c-.5,1.9.8,3.3,2,4.7s.9,1.5,1.6.6-.2-1-.2-1.5-.3-.8-.3-1.2a8.5,8.5,0,0,0-.4-1.7.5.5,0,0,1,.5-.3c.3-.1.3.3.4.4s.7,2.7,1,4h.8l.3-1.2c0-.2.2-.4.1-.5S57.4,23.2,56.4,22Zm32.5,5.1-1.6-1c-.2,0-.4-.2-.5,0s-.8.8-1.1,1.2-.4,1.1-.2,1.6.2.3,0,.5a3.7,3.7,0,0,0,.5,1.7,3.1,3.1,0,0,0,2.7,1.1c.2-.1.5.1.6-.2a2.7,2.7,0,0,1-.4-1.9c0-.2-.3-.2-.4-.2a12.2,12.2,0,0,1-2.3-1c-.1-.2.1-.3.1-.5s.3,0,.4-.1.3-.1.3.2a.4.4,0,0,1,.5.1l1.4.5c.5.3.6-.4,1-.5S89.6,27.3,88.9,27.1Zm-28.6-.9c-.1,0-.2.1-.3-.1v.2c-1.1.5-2.8.9-2.9,2.4l.7.7,2.4-.9c.1.1.3-.2.4.1s.2.3.2.6-1.8.6-2.7,1.1a6.9,6.9,0,0,1-.3,2l.9.2c.1-.2.3,0,.5-.1h.1a3.2,3.2,0,0,1,.9-.3c1.1-.6,1.3-2,1.3-3A3.9,3.9,0,0,0,60.3,26.2ZM83,28a1.6,1.6,0,0,0-1.5-.7,1.8,1.8,0,0,0-1.4,1.3,1.9,1.9,0,0,0,.7,1.7,1.6,1.6,0,0,0,1.2.2,1.5,1.5,0,0,0,1.1-.8A1.5,1.5,0,0,0,83,28Zm-16.3.4a2.2,2.2,0,0,0-1.2-.9A1.5,1.5,0,0,0,64,28a1.7,1.7,0,0,0-.3,1.8,1.6,1.6,0,0,0,1.5.9,1.3,1.3,0,0,0,1.2-.6A1.7,1.7,0,0,0,66.7,28.4Zm30.9.2c-.9-.6-2.2-.2-3.1-.1l-.9,1a1.3,1.3,0,0,1,.2.8H94l2.4.2c.3,0,.4.3.4.5s-.9.3-1.1.4a12.5,12.5,0,0,0-1.9-.3,3.1,3.1,0,0,1-1,1.5c-.3-.1-.2.2-.3.3a3.7,3.7,0,0,0,2.4.8,3,3,0,0,0,2.3-1.8C97.6,30.9,98.1,29.6,97.6,28.6Zm-45.2.2-1.6-.2a2.1,2.1,0,0,0-1.5.3,1.1,1.1,0,0,0-.2.8c.1,1.6.8,3.6,2.4,4.2a3.4,3.4,0,0,0,2.9-.8c-.8-.4-.9-1.2-1.4-1.7l-2.5.3c-.2-.1-.5-.2-.4-.5s1.1-.4,1.6-.5.9,0,1.4-.3,0-.3.2-.5S52.8,29.2,52.4,28.8Zm40.1.7a1.5,1.5,0,0,0-1.9-.4c-.3.3-.8.6-.8,1.1a1.4,1.4,0,0,0,.4,1.5,1.8,1.8,0,0,0,1.6.5c.3-.3.8-.4.9-.9a1.4,1.4,0,0,0,.2-.6A1.1,1.1,0,0,0,92.5,29.5Zm-35.8.2a1.8,1.8,0,0,0-.7-.5,1.9,1.9,0,0,0-1.5.4,1.7,1.7,0,0,0-.4,2,3.5,3.5,0,0,0,1,.8,1.4,1.4,0,0,0,1.3-.2l.3-.2a1.7,1.7,0,0,0,.4-1.7C57,30.1,56.9,29.8,56.7,29.7Zm56.2.2h-.5a4.5,4.5,0,0,0-2.8.3c-1.5.7-1.8,2.4-2,3.7l.8-.2a5.3,5.3,0,0,1,1.6.4l1.2-1.6a24.9,24.9,0,0,1,2.3-2.3Zm-74,2.3a7.5,7.5,0,0,0-.7-1.2,4.3,4.3,0,0,0-3.3-.7c-.4.2-1.1.2-1.4.4a10,10,0,0,0,1,.9h0c.4,0,.7.6.9.9h.1a20.3,20.3,0,0,1,1.3,1.8c.2,0,.1.2.3.2s.7-.5,1.1-.4a2.6,2.6,0,0,1,1.2.1A7.2,7.2,0,0,0,38.9,32.2Zm63.2-.2a1.8,1.8,0,0,0-1.7-.9,1.7,1.7,0,0,0-.5,3.2c.2-.1.4.2.5.1s1.1,0,1.5-.6A1.7,1.7,0,0,0,102.1,32Zm-54.3.5a1.7,1.7,0,0,0-1.1-.9,1.8,1.8,0,0,0-1.8.7,1.8,1.8,0,0,0,.2,2c.3.2.7.6,1.1.4h0a1.5,1.5,0,0,0,1.3-.5A1.9,1.9,0,0,0,47.8,32.5Zm59,.4a2,2,0,0,0-1.4-.5c-1.2.4-1.6,1.7-1.9,2.8s-.1,1,.3,1.4a3,3,0,0,0,2.3,0c-.2-.4.1-.7,0-1.2l-1.2-.5a.4.4,0,0,1-.1-.7,2.6,2.6,0,0,1,1.7.5A13.5,13.5,0,0,0,106.8,32.9ZM43.3,35a3.9,3.9,0,0,0-1.5-2.1c-.6-.2-1.1.2-1.7.4s.1,1.3.3,1.8l1.5-.5c.3,0,.4.3.4.5a2.7,2.7,0,0,1-1.4.7c-.1.1,0,.3,0,.4s-.1.9.3,1a4,4,0,0,0,1.9-.1C43.7,36.5,43.4,35.8,43.3,35Zm66.7.4a1.8,1.8,0,0,0-.9-.8c-.5-.4-1,0-1.6.2a1.9,1.9,0,0,0-.5,1,1.6,1.6,0,0,0,.7,1.7,1.7,1.7,0,0,0,1.4.2,3.2,3.2,0,0,0,1-1A1.5,1.5,0,0,0,110,35.4ZM74.8,36.5a5.5,5.5,0,0,1-1.3-1.8,6.2,6.2,0,0,1-1.4,1.9c.4-.1.8.1,1.2,0A3.7,3.7,0,0,0,74.8,36.5Zm-35-.7c-.2-.6-.8-.7-1.3-.8a1.7,1.7,0,0,0-1.6,1.1,2.1,2.1,0,0,0,.3,1.5,1.9,1.9,0,0,0,.7.6c1,.1,1.3.1,1.9-.7A1.4,1.4,0,0,0,39.8,35.8ZM82,36.9a6,6,0,0,1-.9-1.5,5.8,5.8,0,0,1-1.3,1.4L82,37Zm-14.8,0a9.3,9.3,0,0,1-1.4-1.4,3.7,3.7,0,0,1-.9,1.6,7.5,7.5,0,0,1,1.5,0C66.6,36.9,67,37,67.2,36.9ZM91,38.5l-1.1-2A9.4,9.4,0,0,1,88,37.9h.3Zm-32.1-.4A6.4,6.4,0,0,1,57,36.8a6.9,6.9,0,0,1-1,1.9,7.9,7.9,0,0,0,2.2-.5ZM74.2,22a13,13,0,0,1-.1,7.3,1.1,1.1,0,0,1-.8.3c-.4,0-.6-.4-.7-.8s0-.4-.2-.6a14,14,0,0,1,0-5,1.8,1.8,0,0,1,.9-1.9C73.7,21.3,73.9,21.7,74.2,22Zm-.3,3.2a10.4,10.4,0,0,0-.5-2.9l-.2.4a11.8,11.8,0,0,0,.3,5.9,14.5,14.5,0,0,0,.4-2.9C74,25.6,73.8,25.3,73.9,25.2ZM77.1,21c-.3-.5-.8-.4-1.3-.3,0,1.9,0,3.8.1,5.7C76.9,24.9,77.8,22.9,77.1,21Zm.5-.6a3.3,3.3,0,0,1,.6,1.9c-.3.3.2.7-.2,1a2.9,2.9,0,0,1-.5,1.9,5.2,5.2,0,0,1-1.9,2.7c-.3,0-.3.1-.5-.1a2.8,2.8,0,0,1,0-1.3,23.8,23.8,0,0,1-.1-3.8V20.8c.1-.3-.1-.7.3-.8A2.4,2.4,0,0,1,77.6,20.4Zm-6.7.3c-.4,0-.9-.1-1.2.4s-.1,2.1.1,3.3a5.1,5.1,0,0,0,1.2,2c-.1-.4.1-.8-.1-1.2S70.8,22.1,70.9,20.7Zm.9-.3c-.1,1.5,0,2.7-.1,4.1a24.4,24.4,0,0,1,.1,2.8c0,.3,0,.5-.3.7s-.5-.4-.8-.5-1.1-1.2-1.2-1.8-.8-2.6-.9-3.8h.1c-.1-.1.1-.4,0-.6a2.2,2.2,0,0,1,1.7-1.4C70.7,19.9,71.5,19.8,71.8,20.4Z" style="fill:none"/></clipPath><clipPath id="clip-path-78"><path d="M38.9,32.2a7.5,7.5,0,0,0-.7-1.2,4.3,4.3,0,0,0-3.3-.7c-.4.2-1.1.2-1.4.4a10,10,0,0,0,1,.9h0c.4,0,.7.6.9.9h.1a20.3,20.3,0,0,1,1.3,1.8c.2,0,.1.2.3.2s.7-.5,1.1-.4a2.6,2.6,0,0,1,1.2.1,12.9,12.9,0,0,0-.5-2.1" style="fill:none"/></clipPath><clipPath id="clip-path-79"><path d="M47.8,32.5a1.7,1.7,0,0,0-1.1-.9,1.8,1.8,0,0,0-1.8.7,1.8,1.8,0,0,0,.2,2c.3.2.7.6,1.1.4h0a1.5,1.5,0,0,0,1.3-.5,1.9,1.9,0,0,0,.3-1.8" style="fill:none"/></clipPath><clipPath id="clip-path-80"><path d="M43.3,35a3.9,3.9,0,0,0-1.5-2.1c-.6-.2-1.1.2-1.7.4s.1,1.3.3,1.8l1.5-.5c.3,0,.4.3.4.5a2.7,2.7,0,0,1-1.4.7c-.1.1,0,.3,0,.4s-.1.9.3,1a4,4,0,0,0,1.9-.1c.6-.6.3-1.3.2-2.1" style="fill:none"/></clipPath><clipPath id="clip-path-81"><path d="M39.8,35.8c-.2-.6-.8-.7-1.3-.8a1.7,1.7,0,0,0-1.6,1.1,2.1,2.1,0,0,0,.3,1.5,1.9,1.9,0,0,0,.7.6c1,.1,1.3.1,1.9-.7a1.4,1.4,0,0,0,0-1.7" style="fill:none"/></clipPath><clipPath id="clip-path-82"><path d="M74.5,37.5c-.5-.2-.9,0-1.4-.1a5.4,5.4,0,0,1-1.8,0c-.7.2-1.2,0-1.8.2a62.5,62.5,0,0,0-9.8,1.2c-.2-.1-.3.3-.5,0s-1.4.3-2.1.6H57l-3.6,1c-.3.2-.8.1-1.1.3a63.5,63.5,0,0,0-8,2.8,2.1,2.1,0,0,0-.3.7,1.3,1.3,0,0,0,.9,1.1l6.4-2.4a12.9,12.9,0,0,0,2.1-.6l4.1-1h.2a65.1,65.1,0,0,1,16.1-1.9c.2.2.4-.1.6.1h.8a70,70,0,0,1,7.9.6h1.6a83.7,83.7,0,0,1,10.2,2.1c1.5.4,3,1.1,4.5,1.5s1,.3,1.4.6,1,.4,1.5.4a1,1,0,0,0,.7-.5c.3-.4,0-.8-.2-1.2l-3.3-1.3c-.9-.3-1.9-.5-2.8-.9h0c-.2-.2-.5-.1-.7-.3a8.1,8.1,0,0,1-2.2-.7c-.2.2-.7,0-.9-.1s-.5,0-.7-.2-.8-.3-1.2-.2-.3-.3-.5-.1c-2.3-.7-4.9-.8-7.4-1.4h-.2l-4.2-.5H76.6c-.7.2-1.4-.2-2.1.1" style="fill:none"/></clipPath><clipPath id="clip-path-83"><path d="M83.4,40.9a2.7,2.7,0,0,0-1.3-.2h.4l.7.7a2.7,2.7,0,0,1,.3,2.3A2.8,2.8,0,0,1,81.9,45l2.5.3c-.1-.5-.4-.9-.3-1.5a2.1,2.1,0,0,1,1.2-1.4c.2.1.5,0,.7,0s.6,0,.7.2l3.2.4c.5.2,1,.2,1.4.6a1.8,1.8,0,0,1,.4,1.9c-.2.4-.4.8-.9.9a2.8,2.8,0,0,0,1.2.4c.3-.1.6.4.9.2s.7.2,1.2.4-.3-.1-.3-.3-.1-.5-.4-.7a2.3,2.3,0,0,1,.5-2.4c.5-.3.9-.7,1.5-.6h0l-2.9-.8c-1.2-.2-2-.5-3-.6l-1.2-.3a27.6,27.6,0,0,0-4.9-.7" style="fill:none"/></clipPath><clipPath id="clip-path-84"><path d="M65,40.8c-2,0-4.1.7-6.2,1-.3,0-.7.3-1.1.2-1.9.6-4.3,1-6.2,1.7.3.2,1,0,1.4.4a3.1,3.1,0,0,1,.9,1.2,3.2,3.2,0,0,1-.6,2.4c.3,0,.7-.4,1.1-.3s1.1-.2,1.7-.5a1.9,1.9,0,0,1-1.7-.9,1.7,1.7,0,0,1,0-1.7,2.1,2.1,0,0,1,1.7-1c.1,0,.5-.2.6-.1h.2c1.4-.2,2.6-.7,3.9-.3a2,2,0,0,1,1.1,1.3,2.3,2.3,0,0,1-.6,1.6l2.3-.4,1.5-.2a2.2,2.2,0,0,1-1.3-1,2.1,2.1,0,0,1-.1-2A2.2,2.2,0,0,1,65,40.8" style="fill:none"/></clipPath><clipPath id="clip-path-85"><path d="M90,43.9H88.9c-1.3,0-2.5-.9-3.7-.3a1.3,1.3,0,0,0-.2.9.9.9,0,0,0,.7.6c.8.3,1.7.2,2.6.5a4.5,4.5,0,0,0,2.3.1c.3-.2.3-.7.3-1s-.5-.6-.9-.7" style="fill:none"/></clipPath><clipPath id="clip-path-86"><path d="M60.9,44.1a1.1,1.1,0,0,0-1.2-.6l-4.2.8a.8.8,0,0,0-.5.7c0,.3,0,.8.4.9a12.7,12.7,0,0,0,2.8-.3c1.1-.5,2.8.1,2.7-1.5" style="fill:none"/></clipPath><clipPath id="clip-path-87"><path d="M97.9,44.1l-1.3-.4c.4.2.6.6.9.9s.4,1.5-.1,2a2.3,2.3,0,0,1-1.8,1.3l2.7.8c.1,0,.4.3.6.2h-.1c-.1-.8-.5-1.8-.6-2.6s.9-.6,1.3-.9l.8-.3c0-.2-.2-.1-.3-.3s-1.2-.5-1.7-.5-.4-.1-.4-.2" style="fill:none"/></clipPath><clipPath id="clip-path-88"><path d="M50.3,44.1l-1.6.5c-.6.4-1.4.4-1.9.8s1.8.5,2.1,1.4a25,25,0,0,1-.7,2.6l2.6-1c.2-.1.5,0,.5-.3a2.3,2.3,0,0,1-1.7-1.3,2.6,2.6,0,0,1,.7-2.7" style="fill:none"/></clipPath><clipPath id="clip-path-89"><path d="M72.2,45.4a3.3,3.3,0,0,1-1,0c-2.6.3-5,.3-7.5.8-.8,0-1.7.3-2.4.3l-5.2,1.2a3,3,0,0,1-1.2.3c-1.1.5-2.2.6-3.4,1.2h-.7a2.7,2.7,0,0,1-1.4.5h1.7c1.2-.1,2.4.1,3.6-.1h.7a66.9,66.9,0,0,1,9.7-2,13.1,13.1,0,0,1,3.4-.3,22.2,22.2,0,0,1,4.6-.3h0c.5.1,1.2-.1,1.8,0s2.4.1,3.7.1.4.2.6.1a67.2,67.2,0,0,1,7.5,1,14.7,14.7,0,0,1,3.5.8c.2-.1.6.1.8.1a8,8,0,0,0,3,.4h3.4c.1-.1.4,0,.3-.1s-.5-.2-.7-.3-2.9-.8-4.3-1.3a13.8,13.8,0,0,1-2.9-.8h0a61.7,61.7,0,0,0-6.2-1.1h0a35.4,35.4,0,0,0-4.8-.5c-.1.1-.3-.3-.5,0-2-.2-4.3-.2-6.1-.2" style="fill:none"/></clipPath><clipPath id="clip-path-90"><path d="M101.5,46.1v-.5c-.7,0-1.5.7-2.2,1s.3,1.6.7,2.5l1.8-.8.4-.2c0-.2,0-.3-.1-.4s-.4-1.1-.5-1.6" style="fill:none"/></clipPath><clipPath id="clip-path-91"><path d="M47.9,46.9a13.3,13.3,0,0,0-2.1-.9,23.3,23.3,0,0,0-.7,2.5,17.2,17.2,0,0,1,1.9.9c.2,0,.3.3.3,0a18.3,18.3,0,0,0,.6-2.5" style="fill:none"/></clipPath><clipPath id="clip-path-92"><path d="M76.2,42.4l-2.8-1.1-2.8,1.1a7.5,7.5,0,0,1,1.3.6,6.5,6.5,0,0,1,1.3.4c.4.3.9-.3,1.3-.3l1.7-.7" style="fill:none"/></clipPath><clipPath id="clip-path-93"><path d="M92.9,21.6a3.8,3.8,0,0,0-1-.3c-.8.1-1.7.3-1.9,1.1s.1.3-.1.4h0a1.5,1.5,0,0,1-.2.9,10,10,0,0,1,.2,1.6,1.4,1.4,0,0,0,.2.7l.6,2c.3-.1.8.2.9-.3s.1-.7.1-.9h.1c.2-1,.4-2.1.7-3.1l.4-.2a1,1,0,0,1,.4.5c-.3,1.3-.5,2.4-.8,3.6s.2.9.6,1.1,1.4-1.4,2-2.2a5.8,5.8,0,0,0,1.1-3.1c-.5-1.4-2-1.6-3.3-1.8" style="fill:none"/></clipPath><clipPath id="clip-path-94"><path d="M56.4,22c-1-.8-2.3-.3-3.4,0a3.4,3.4,0,0,0-2.2,1.3c-.5,1.9.8,3.3,2,4.7s.9,1.5,1.6.6-.2-1-.2-1.5-.3-.8-.3-1.2a8.5,8.5,0,0,0-.4-1.7.5.5,0,0,1,.5-.3c.3-.1.3.3.4.4s.7,2.7,1,4h.8l.3-1.2c0-.2.2-.4.1-.5s.8-3.5-.2-4.7" style="fill:none"/></clipPath><clipPath id="clip-path-95"><path d="M88.9,27.1l-1.6-1c-.2,0-.4-.2-.5,0s-.8.8-1.1,1.2-.4,1.1-.2,1.6.2.3,0,.5a3.7,3.7,0,0,0,.5,1.7,3.1,3.1,0,0,0,2.7,1.1c.2-.1.5.1.6-.2a2.7,2.7,0,0,1-.4-1.9c0-.2-.3-.2-.4-.2a12.2,12.2,0,0,1-2.3-1c-.1-.2.1-.3.1-.5s.3,0,.4-.1.3-.1.3.2a.4.4,0,0,1,.5.1l1.4.5c.5.3.6-.4,1-.5s-.3-1.3-1-1.5" style="fill:none"/></clipPath><clipPath id="clip-path-96"><path d="M60.3,26.2c-.1,0-.2.1-.3-.1v.2c-1.1.5-2.8.9-2.9,2.4l.7.7,2.4-.9c.1.1.3-.2.4.1s.2.3.2.6-1.8.6-2.6,1.1a14.2,14.2,0,0,1-.4,2l.9.2c.1-.2.3,0,.5-.1h.1a3.2,3.2,0,0,1,.9-.3c1.1-.6,1.3-2,1.3-3a3.9,3.9,0,0,0-1.1-2.9" style="fill:none"/></clipPath><clipPath id="clip-path-97"><path d="M83,28a1.6,1.6,0,0,0-1.5-.7,2,2,0,0,0-1.4,1.3,1.9,1.9,0,0,0,.7,1.7,1.6,1.6,0,0,0,1.2.2,1.5,1.5,0,0,0,1.1-.8A1.5,1.5,0,0,0,83,28" style="fill:none"/></clipPath><clipPath id="clip-path-98"><path d="M66.7,28.4a2.2,2.2,0,0,0-1.2-.9A1.5,1.5,0,0,0,64,28a1.7,1.7,0,0,0-.3,1.8,1.6,1.6,0,0,0,1.5.9,1.3,1.3,0,0,0,1.2-.6,1.7,1.7,0,0,0,.3-1.7" style="fill:none"/></clipPath><clipPath id="clip-path-99"><path d="M97.6,28.6c-.9-.6-2.2-.2-3.1-.1l-.9,1a1.3,1.3,0,0,1,.2.8H94l2.4.2c.3,0,.4.3.4.5s-.9.3-1.1.4a12.5,12.5,0,0,0-1.9-.3,3.1,3.1,0,0,1-1,1.5c-.3-.1-.2.2-.3.3a3.7,3.7,0,0,0,2.4.8,3,3,0,0,0,2.3-1.8c.4-1,.9-2.3.4-3.3" style="fill:none"/></clipPath><clipPath id="clip-path-100"><path d="M52.4,28.8l-1.6-.2a2.1,2.1,0,0,0-1.5.3,1.1,1.1,0,0,0-.2.8c.1,1.6.8,3.6,2.4,4.2a3.4,3.4,0,0,0,2.9-.8c-.8-.4-.9-1.2-1.4-1.7l-2.5.3c-.2-.1-.5-.2-.4-.5s1.1-.4,1.6-.5.9,0,1.4-.3,0-.3.2-.5-.5-.7-.9-1.1" style="fill:none"/></clipPath><clipPath id="clip-path-101"><path d="M92.5,29.5a1.5,1.5,0,0,0-1.9-.4c-.3.3-.8.6-.8,1.1a1.4,1.4,0,0,0,.4,1.5,1.8,1.8,0,0,0,1.6.5c.3-.3.8-.4.9-.9a1.4,1.4,0,0,0,.2-.6,1.1,1.1,0,0,0-.4-1.2" style="fill:none"/></clipPath><clipPath id="clip-path-102"><path d="M56.7,29.7a1.8,1.8,0,0,0-.7-.5,1.9,1.9,0,0,0-1.5.4,1.7,1.7,0,0,0-.4,2,3.5,3.5,0,0,0,1,.8,1.2,1.2,0,0,0,1.3-.3c.1.1.2-.1.3-.1a1.7,1.7,0,0,0,.4-1.7c-.1-.2-.2-.5-.4-.6" style="fill:none"/></clipPath><clipPath id="clip-path-103"><path d="M112.9,29.9h-.5a4.5,4.5,0,0,0-2.8.3c-1.5.7-1.8,2.4-2,3.7l.8-.2a5.3,5.3,0,0,1,1.6.4l1.2-1.6a24.9,24.9,0,0,1,2.3-2.3Z" style="fill:none"/></clipPath><clipPath id="clip-path-104"><path d="M102.1,32a1.8,1.8,0,0,0-1.7-.9,1.7,1.7,0,0,0-.5,3.2c.2-.1.4.2.5.1s1.1,0,1.5-.6.4-1.3.2-1.8" style="fill:none"/></clipPath><clipPath id="clip-path-105"><path d="M106.8,32.9a2,2,0,0,0-1.4-.5c-1.2.4-1.6,1.7-1.9,2.8s-.1,1,.3,1.4a3,3,0,0,0,2.3,0c-.2-.4.1-.7,0-1.2l-1.2-.5a.4.4,0,0,1-.1-.7,2.6,2.6,0,0,1,1.7.5,13.5,13.5,0,0,0,.3-1.8" style="fill:none"/></clipPath><clipPath id="clip-path-106"><path d="M110,35.4a1.8,1.8,0,0,0-.9-.8c-.5-.4-1,0-1.6.2a1.9,1.9,0,0,0-.5,1,1.6,1.6,0,0,0,.7,1.7,1.7,1.7,0,0,0,1.4.2,3.2,3.2,0,0,0,1-1,1.5,1.5,0,0,0-.1-1.3" style="fill:none"/></clipPath><clipPath id="clip-path-107"><path d="M58.5,52.6l-.5-.2H56.9a1.9,1.9,0,0,0-1.2.4,2.9,2.9,0,0,0-1.1,1.1,5.4,5.4,0,0,0-.4,2,4,4,0,0,0,.8,2.6,3,3,0,0,0,2,1h1l.5-.2V57.7l-.4.2-.9.2a1.9,1.9,0,0,1-1.1-.7,3.4,3.4,0,0,1,0-3.2,1.3,1.3,0,0,1,1.1-.6H58l.5.3Z" style="fill:none"/></clipPath><clipPath id="clip-path-108"><path d="M62.9,59.2h1.5l-2-6.8H60.9l-2.1,6.8h1.4l.4-1.5h1.9l.4,1.5Zm-.6-2.6H60.9l.7-2.9h0Z" style="fill:none"/></clipPath><clipPath id="clip-path-109"><path d="M65,59.2h2a3.2,3.2,0,0,0,1.4-.3,2.9,2.9,0,0,0,1.1-1.1,4.9,4.9,0,0,0,.4-1.9,6,6,0,0,0-.4-2.1,2.4,2.4,0,0,0-1-1,2.2,2.2,0,0,0-1.3-.4H65Zm1.4-5.6h.4a1.4,1.4,0,0,1,1.2.6,2.9,2.9,0,0,1,.4,1.7,2.4,2.4,0,0,1-.4,1.5,1.4,1.4,0,0,1-1.1.7h-.5Z" style="fill:none"/></clipPath><clipPath id="clip-path-110"><rect x="70.8" y="52.4" width="1.4" height="6.82" style="fill:none"/></clipPath><clipPath id="clip-path-111"><polygon points="77 52.4 73.1 52.4 73.1 53.7 75.4 53.7 73.1 57.9 73.1 59.2 77.1 59.2 77.1 58 74.7 58 77 53.7 77 52.4" style="fill:none"/></clipPath><clipPath id="clip-path-112"><path d="M84.3,52.6l-.5-.2H82.7a1.9,1.9,0,0,0-1.2.4,2.3,2.3,0,0,0-1.1,1.1,4,4,0,0,0-.4,2,4,4,0,0,0,.8,2.6,3,3,0,0,0,2,1h1l.5-.2V57.7l-.4.2-.9.2a1.9,1.9,0,0,1-1.1-.7,2.8,2.8,0,0,1,0-3.2,1.1,1.1,0,0,1,1.1-.6h.8l.4.3Z" style="fill:none"/></clipPath><clipPath id="clip-path-113"><rect x="85.1" y="57.8" width="1.3" height="1.47" style="fill:none"/></clipPath><clipPath id="clip-path-114"><polygon points="88.8 55.2 88.8 53.6 90.8 53.6 90.8 52.4 87.4 52.4 87.4 59.2 88.8 59.2 88.8 56.4 90.7 56.4 90.7 55.2 88.8 55.2" style="fill:none"/></clipPath><clipPath id="clip-path-115"><rect x="90.9" y="57.8" width="1.3" height="1.47" style="fill:none"/></clipPath></defs><title>1Recurso 1</title><g id="Capa_2" data-name="Capa 2"><g id="Capa_1-2" data-name="Capa 1"><g style="clip-path:url(#clip-path)"><rect x="52.8" y="78.9" width="10.6" height="10.24" transform="translate(-37.8 119.3) rotate(-75.5)" style="fill:#ffdf07"/></g><g style="clip-path:url(#clip-path-2)"><rect x="53" y="81" width="10.5" height="10.89" transform="matrix(0.25, -0.97, 0.97, 0.25, -40.06, 121.13)" style="fill:#ffdf07"/></g><g style="clip-path:url(#clip-path-3)"><rect x="53.3" y="82.3" width="10.4" height="10.14" transform="translate(-40.8 122.1) rotate(-75.5)" style="fill:#ffdf07"/></g><g style="clip-path:url(#clip-path-4)"><rect x="54.2" y="82.4" width="11.1" height="10.97" transform="translate(-40.3 123.8) rotate(-75.5)" style="fill:#ffdf07"/></g><g style="clip-path:url(#clip-path-5)"><rect x="53.7" y="83.2" width="10.4" height="10.17" transform="translate(-41.3 123.3) rotate(-75.5)" style="fill:#ffdf07"/></g><g style="clip-path:url(#clip-path-6)"><rect x="54.2" y="84.3" width="10.5" height="10.42" transform="translate(-42.1 124.7) rotate(-75.5)" style="fill:#ffdf07"/></g><g style="clip-path:url(#clip-path-7)"><rect x="55.5" y="84.8" width="10.3" height="10.37" transform="translate(-41.7 126.2) rotate(-75.5)" style="fill:#ffdf07"/></g><g style="clip-path:url(#clip-path-8)"><rect x="51.6" y="78.1" width="25.3" height="22.96" transform="translate(-38.6 129.4) rotate(-75.5)" style="fill:#ffdf07"/></g><g style="clip-path:url(#clip-path-9)"><rect x="71.7" y="69.9" width="18.8" height="17.14" transform="matrix(0.25, -0.97, 0.97, 0.25, -15.18, 137.38)" style="fill:#ffdf07"/></g><g style="clip-path:url(#clip-path-10)"><rect x="80" y="72.2" width="11.1" height="10.65" transform="translate(-10.9 141) rotate(-75.5)" style="fill:#ffdf07"/></g><g style="clip-path:url(#clip-path-11)"><rect x="80.3" y="73.2" width="10.5" height="10.78" transform="translate(-12 141.7) rotate(-75.5)" style="fill:#ffdf07"/></g><g style="clip-path:url(#clip-path-12)"><rect x="79" y="74.9" width="10.6" height="10.15" transform="translate(-14.3 141.6) rotate(-75.5)" style="fill:#ffdf07"/></g><g style="clip-path:url(#clip-path-13)"><rect x="80.2" y="75.2" width="10.3" height="10.31" transform="translate(-13.8 142.8) rotate(-75.5)" style="fill:#ffdf07"/></g><g style="clip-path:url(#clip-path-14)"><rect x="69.4" y="77.2" width="25.7" height="22.27" transform="translate(-23.9 145.8) rotate(-75.5)" style="fill:#ffdf07"/></g><g style="clip-path:url(#clip-path-15)"><rect x="77" y="58.6" width="10.1" height="10.19" transform="translate(-0.1 127.1) rotate(-75.5)" style="fill:#e8e8e8"/></g><g style="clip-path:url(#clip-path-16)"><rect x="78.4" y="58.5" width="10.2" height="10.29" transform="translate(0.9 128.5) rotate(-75.5)" style="fill:#e8e8e8"/></g><g style="clip-path:url(#clip-path-17)"><rect x="75.7" y="58.6" width="10.1" height="10.19" transform="matrix(0.25, -0.97, 0.97, 0.25, -1.17, 125.9)" style="fill:#e8e8e8"/></g><g style="clip-path:url(#clip-path-18)"><rect x="76" y="53.8" width="13.8" height="19.14" transform="translate(0.9 127.8) rotate(-75.5)" style="fill:#e8e8e8"/></g><g style="clip-path:url(#clip-path-19)"><rect x="60.1" y="58.7" width="10.1" height="10.21" transform="translate(-12.9 110.9) rotate(-75.5)" style="fill:#e8e8e8"/></g><g style="clip-path:url(#clip-path-20)"><rect x="61.5" y="58.7" width="10.2" height="10.22" transform="translate(-11.8 112.3) rotate(-75.5)" style="fill:#e8e8e8"/></g><g style="clip-path:url(#clip-path-21)"><rect x="57.4" y="58.7" width="10.2" height="10.26" transform="matrix(0.25, -0.97, 0.97, 0.25, -14.98, 108.29)" style="fill:#e8e8e8"/></g><g style="clip-path:url(#clip-path-22)"><rect x="58.8" y="58.7" width="10.1" height="10.26" transform="translate(-13.9 109.6) rotate(-75.5)" style="fill:#e8e8e8"/></g><g style="clip-path:url(#clip-path-23)"><rect x="74" y="62.3" width="15.8" height="18.07" transform="translate(-7.6 132.8) rotate(-75.5)" style="fill:#e8e8e8"/></g><g style="clip-path:url(#clip-path-24)"><rect x="57.8" y="53.9" width="13.8" height="19.08" transform="translate(-13 110.2) rotate(-75.5)" style="fill:#e8e8e8"/></g><g style="clip-path:url(#clip-path-25)"><rect x="58.3" y="63.7" width="12.9" height="16.64" transform="translate(-21.2 116.6) rotate(-75.5)" style="fill:#e8e8e8"/></g><g style="clip-path:url(#clip-path-26)"><rect x="77.9" y="66.9" width="12.1" height="13.48" transform="translate(-8.3 136.5) rotate(-75.5)" style="fill:#e8e8e8"/></g><g style="clip-path:url(#clip-path-27)"><rect x="55.3" y="69.6" width="16.9" height="14.86" transform="translate(-26.7 119.5) rotate(-75.5)" style="fill:#e8e8e8"/></g><g style="clip-path:url(#clip-path-28)"><rect x="60.1" y="74.9" width="13.8" height="11.67" transform="matrix(0.25, -0.97, 0.97, 0.25, -27.99, 125.38)" style="fill:#e8e8e8"/></g><g style="clip-path:url(#clip-path-29)"><rect x="56.7" y="58.8" width="16.2" height="16.33" transform="translate(-16.3 113) rotate(-75.5)" style="fill:#e8e8e8"/></g><g style="clip-path:url(#clip-path-30)"><rect x="74.3" y="59.2" width="16.8" height="15.92" transform="translate(-3 130.5) rotate(-75.5)" style="fill:#e8e8e8"/></g><g style="clip-path:url(#clip-path-31)"><rect x="76.8" y="52.9" width="12.1" height="17.19" transform="translate(2.6 126.4) rotate(-75.5)" style="fill:#e8e8e8"/></g><g style="clip-path:url(#clip-path-32)"><rect x="58.4" y="53" width="12.3" height="17.23" transform="matrix(0.25, -0.97, 0.97, 0.25, -11.21, 108.66)" style="fill:#e8e8e8"/></g><g style="clip-path:url(#clip-path-33)"><rect x="47.7" y="56.3" width="51.7" height="45.48" transform="translate(-21.5 130.5) rotate(-75.5)"/></g><g style="clip-path:url(#clip-path-34)"><rect x="67.6" y="57.6" width="12" height="13.37" transform="translate(-7.1 119.5) rotate(-75.5)" style="fill:#d59404"/></g><g style="clip-path:url(#clip-path-35)"><rect x="63.4" y="65.8" width="18.6" height="16.87" transform="translate(-17.4 126) rotate(-75.5)" style="fill:#d59404"/></g><g style="clip-path:url(#clip-path-36)"><rect x="65.9" y="72.9" width="15.9" height="16.23" transform="translate(-23.1 132.2) rotate(-75.5)" style="fill:#d59404"/></g><g style="clip-path:url(#clip-path-37)"><rect x="67.3" y="72.6" width="11.1" height="13.45" transform="translate(-22.2 130) rotate(-75.5)" style="fill:#d59404"/></g><g style="clip-path:url(#clip-path-38)"><rect x="73.9" y="71" width="10.6" height="11.35" transform="translate(-14.9 134.1) rotate(-75.5)" style="fill:#ffdf07"/></g><g style="clip-path:url(#clip-path-39)"><rect x="78.5" y="77.3" width="11" height="10.58" transform="matrix(0.25, -0.97, 0.97, 0.25, -16.96, 143.21)" style="fill:#ffdf07"/></g><g style="clip-path:url(#clip-path-40)"><rect x="81.9" y="77.7" width="12.2" height="12.28" transform="translate(-15.2 148.1) rotate(-75.5)" style="fill:#ffdf07"/></g><g style="clip-path:url(#clip-path-41)"><rect x="73" y="78.7" width="10.4" height="10.33" transform="matrix(0.25, -0.97, 0.97, 0.25, -22.61, 138.55)" style="fill:#ffdf07"/></g><g style="clip-path:url(#clip-path-42)"><rect x="77.6" y="78.2" width="10.6" height="11.23" transform="matrix(0.25, -0.97, 0.97, 0.25, -19.05, 143.12)" style="fill:#ffdf07"/></g><g style="clip-path:url(#clip-path-43)"><rect x="80.1" y="79.5" width="11" height="10.45" transform="translate(-17.8 146.3) rotate(-75.5)" style="fill:#ffdf07"/></g><g style="clip-path:url(#clip-path-44)"><rect x="78.5" y="84.1" width="12.2" height="11.44" transform="matrix(0.25, -0.97, 0.97, 0.25, -23.57, 149.28)" style="fill:#ffdf07"/></g><g style="clip-path:url(#clip-path-45)"><rect x="77.5" y="85.5" width="13" height="13.61" transform="matrix(0.25, -0.97, 0.97, 0.25, -26.4, 150.56)" style="fill:#ffdf07"/></g><g style="clip-path:url(#clip-path-46)"><rect x="70.1" y="87.6" width="14.4" height="12.31" transform="translate(-32.8 145.1) rotate(-75.5)" style="fill:#ffdf07"/></g><g style="clip-path:url(#clip-path-47)"><rect x="74.5" y="88.7" width="13" height="11.77" transform="translate(-30.8 149.4) rotate(-75.5)" style="fill:#e8e8e8"/></g><g style="clip-path:url(#clip-path-48)"><rect x="55.4" y="69.1" width="23.1" height="13.31" transform="translate(-23.2 121.6) rotate(-75.5)" style="fill:#fff9d7"/></g><g style="clip-path:url(#clip-path-49)"><rect x="67.4" y="59.4" width="11.9" height="12.52" transform="matrix(0.25, -0.97, 0.97, 0.25, -8.57, 120.21)" style="fill:#fff9d7"/></g><g style="clip-path:url(#clip-path-50)"><rect x="65.1" y="64.2" width="17.3" height="15.93" transform="translate(-14.6 125.5) rotate(-75.5)" style="fill:#fff9d7"/></g><g style="clip-path:url(#clip-path-51)"><rect x="69.6" y="68.1" width="15.3" height="12.26" transform="translate(-14 130.5) rotate(-75.5)" style="fill:#fff9d7"/></g><g style="clip-path:url(#clip-path-52)"><rect x="70" y="71.2" width="11.5" height="10.94" transform="matrix(0.25, -0.97, 0.97, 0.25, -17.46, 130.82)" style="fill:#fff9d7"/></g><g style="clip-path:url(#clip-path-53)"><rect x="62.9" y="82.3" width="25.9" height="15.19" transform="translate(-30.2 140.8) rotate(-75.5)" style="fill:#fff9d7"/></g><g style="clip-path:url(#clip-path-54)"><rect x="59.4" y="83" width="24.8" height="15.38" transform="translate(-34 137.5) rotate(-75.5)" style="fill:#fff9d7"/></g><g style="clip-path:url(#clip-path-55)"><rect x="54.6" y="75" width="12.6" height="13.38" transform="translate(-33.4 120.1) rotate(-75.5)" style="fill:#ffdf07"/></g><g style="clip-path:url(#clip-path-56)"><rect x="53.1" y="77.9" width="10.9" height="10.3" transform="translate(-36.5 119) rotate(-75.5)" style="fill:#ffdf07"/></g><g style="clip-path:url(#clip-path-57)"><rect x="53.8" y="78.7" width="10.7" height="10.45" transform="translate(-37 120.1) rotate(-75.5)" style="fill:#ffdf07"/></g><g style="clip-path:url(#clip-path-58)"><rect x="56.7" y="84.9" width="10.8" height="11.5" transform="translate(-41.2 128.1) rotate(-75.5)" style="fill:#ffdf07"/></g><g style="clip-path:url(#clip-path-59)"><rect x="65" y="86.6" width="11.4" height="10.7" transform="matrix(0.25, -0.97, 0.97, 0.25, -36.04, 137.35)" style="fill:#ffdf07"/></g><g style="clip-path:url(#clip-path-60)"><rect x="56.7" y="87.7" width="13.4" height="12.92" transform="translate(-43.6 132) rotate(-75.5)" style="fill:#ffdf07"/></g><g style="clip-path:url(#clip-path-61)"><rect x="68.2" y="87.8" width="11" height="10.32" transform="translate(-34.8 140.9) rotate(-75.5)" style="fill:#ffdf07"/></g><g style="clip-path:url(#clip-path-62)"><rect x="59.4" y="89.2" width="13.1" height="11.98" transform="matrix(0.25, -0.97, 0.97, 0.25, -42.71, 135.25)" style="fill:#ffdf07"/></g><g style="clip-path:url(#clip-path-63)"><rect x="68.3" y="89.5" width="11" height="11.06" transform="translate(-36.7 142.7) rotate(-75.5)" style="fill:#ffdf07"/></g><g style="clip-path:url(#clip-path-64)"><rect x="59.8" y="79.9" width="10.4" height="10.8" transform="translate(-33.8 126.9) rotate(-75.5)" style="fill:#ffdf07"/></g><g style="clip-path:url(#clip-path-65)"><rect x="67.1" y="83.2" width="13.6" height="11.01" transform="translate(-30.5 138) rotate(-75.5)" style="fill:#ffdf07"/></g><g style="clip-path:url(#clip-path-66)"><rect x="64.6" y="26.9" width="20.8" height="48.96" transform="translate(6.5 111.1) rotate(-75.5)" style="fill:#cd1425"/></g><g style="clip-path:url(#clip-path-67)"><rect x="64.2" y="29.9" width="18" height="25.24" transform="translate(13.7 102.7) rotate(-75.5)" style="fill:#d8b80a"/></g><g style="clip-path:url(#clip-path-68)"><rect x="53.6" y="-4.4" width="42.6" height="74.97" transform="matrix(0.25, -0.97, 0.97, 0.25, 24.09, 97.37)" style="fill:#d8b80a"/></g><g style="clip-path:url(#clip-path-69)"><rect x="22" y="44.4" width="102.9" height="119.55"/></g><g style="clip-path:url(#clip-path-70)"><rect x="20.5" y="73.9" width="123.8" height="53.07" transform="translate(-35.4 155) rotate(-75.5)" style="fill:#18499a"/></g><g style="clip-path:url(#clip-path-71)"><rect x="-3.7" y="58.4" width="113" height="79.72" transform="translate(-55.6 124.7) rotate(-75.5)" style="fill:#fde609"/></g><g style="clip-path:url(#clip-path-72)"><rect x="75.1" y="36.5" width="12.6" height="12.61" transform="translate(19.5 111) rotate(-75.5)" style="fill:#cd1425"/></g><g style="clip-path:url(#clip-path-73)"><rect x="59.3" y="36.6" width="12.7" height="12.67" transform="translate(7.6 95.7) rotate(-75.5)" style="fill:#cd1425"/></g><g style="clip-path:url(#clip-path-74)"><rect x="89.2" y="39.3" width="12.6" height="12.65" transform="translate(27.4 126.7) rotate(-75.5)" style="fill:#cd1425"/></g><g style="clip-path:url(#clip-path-75)"><rect x="45.3" y="39.7" width="12.7" height="12.61" transform="translate(-5.8 84.5) rotate(-75.5)" style="fill:#cd1425"/></g><g style="clip-path:url(#clip-path-76)"><rect x="54.7" y="6.5" width="35.1" height="74.8" transform="matrix(0.25, -0.97, 0.97, 0.25, 11.7, 102.88)"/></g><g style="clip-path:url(#clip-path-77)"><rect x="52" y="-13.3" width="42.3" height="90.25" transform="matrix(0.25, -0.97, 0.97, 0.25, 24.07, 94.65)"/></g><g style="clip-path:url(#clip-path-78)"><rect x="29.4" y="24" width="14.1" height="16.66" transform="translate(-4 59.6) rotate(-75.5)" style="fill:#d8b80a"/></g><g style="clip-path:url(#clip-path-79)"><rect x="39.6" y="26.6" width="13.3" height="13.2" transform="translate(2.6 69.7) rotate(-75.5)" style="fill:#d8b80a"/></g><g style="clip-path:url(#clip-path-80)"><rect x="34.6" y="28.1" width="14.3" height="14.03" transform="matrix(0.25, -0.97, 0.97, 0.25, -2.72, 66.7)" style="fill:#d8b80a"/></g><g style="clip-path:url(#clip-path-81)"><rect x="31.8" y="30" width="13.3" height="13.25" transform="matrix(0.25, -0.97, 0.97, 0.25, -6.65, 64.68)" style="fill:#d8b80a"/></g><g style="clip-path:url(#clip-path-82)"><rect x="60" y="10.1" width="27.3" height="67.2" transform="translate(12.9 104) rotate(-75.5)" style="fill:#d8b80a"/></g><g style="clip-path:url(#clip-path-83)"><rect x="80.7" y="32.2" width="15" height="23.61" transform="translate(23.5 118.4) rotate(-75.5)" style="fill:#d8b80a"/></g><g style="clip-path:url(#clip-path-84)"><rect x="48.5" y="32.3" width="19.7" height="23.47" transform="translate(1.1 89.5) rotate(-75.5)" style="fill:#d8b80a"/></g><g style="clip-path:url(#clip-path-85)"><rect x="81.9" y="36.5" width="12.1" height="16.01" transform="translate(22.8 118.5) rotate(-75.5)" style="fill:#d8b80a"/></g><g style="clip-path:url(#clip-path-86)"><rect x="51.1" y="37" width="13.6" height="15.54" transform="matrix(0.25, -0.97, 0.97, 0.25, 0.1, 89.62)" style="fill:#d8b80a"/></g><g style="clip-path:url(#clip-path-87)"><rect x="90.7" y="39.4" width="14.5" height="13.89" transform="translate(28.5 129.6) rotate(-75.5)" style="fill:#d8b80a"/></g><g style="clip-path:url(#clip-path-88)"><rect x="41.3" y="39.2" width="15.7" height="15.05" transform="matrix(0.25, -0.97, 0.97, 0.25, -8.42, 82.53)" style="fill:#d8b80a"/></g><g style="clip-path:url(#clip-path-89)"><rect x="62.2" y="21.2" width="22.8" height="56.73" transform="matrix(0.25, -0.97, 0.97, 0.25, 7.18, 108.41)" style="fill:#d8b80a"/></g><g style="clip-path:url(#clip-path-90)"><rect x="93.7" y="40.7" width="13.8" height="13.19" transform="translate(29.6 132.9) rotate(-75.5)" style="fill:#d8b80a"/></g><g style="clip-path:url(#clip-path-91)"><rect x="40" y="41.5" width="13.1" height="12.41" transform="translate(-11.3 80.8) rotate(-75.5)" style="fill:#d8b80a"/></g><g style="clip-path:url(#clip-path-92)"><rect x="67.4" y="34.6" width="12.1" height="15.46" transform="translate(14 102.8) rotate(-75.5)" style="fill:#d8b80a"/></g><g style="clip-path:url(#clip-path-93)"><rect x="84.1" y="16.8" width="17" height="16.45" transform="translate(45.2 108.4) rotate(-75.5)" style="fill:#d8b80a"/></g><g style="clip-path:url(#clip-path-94)"><rect x="44.9" y="16.8" width="17.5" height="16.56" transform="translate(16 70.8) rotate(-75.5)" style="fill:#d8b80a"/></g><g style="clip-path:url(#clip-path-95)"><rect x="79.7" y="21.9" width="15.7" height="14.6" transform="translate(37.4 106.7) rotate(-75.5)" style="fill:#d8b80a"/></g><g style="clip-path:url(#clip-path-96)"><rect x="50.9" y="22" width="16.7" height="14.57" transform="translate(16 79.3) rotate(-75.5)" style="fill:#d8b80a"/></g><g style="clip-path:url(#clip-path-97)"><rect x="75.1" y="22.3" width="13.3" height="13.24" transform="translate(33.2 100.8) rotate(-75.5)" style="fill:#d8b80a"/></g><g style="clip-path:url(#clip-path-98)"><rect x="58.5" y="22.4" width="13.3" height="13.21" transform="translate(20.7 84.9) rotate(-75.5)" style="fill:#d8b80a"/></g><g style="clip-path:url(#clip-path-99)"><rect x="87.4" y="23.7" width="15.9" height="14.38" transform="translate(41.5 115.4) rotate(-75.5)" style="fill:#d8b80a"/></g><g style="clip-path:url(#clip-path-100)"><rect x="44.2" y="23.3" width="15.1" height="16.05" transform="translate(8.5 73.5) rotate(-75.5)" style="fill:#d8b80a"/></g><g style="clip-path:url(#clip-path-101)"><rect x="84.7" y="24" width="13.3" height="13.19" transform="translate(38.9 111.3) rotate(-75.5)" style="fill:#d8b80a"/></g><g style="clip-path:url(#clip-path-102)"><rect x="48.9" y="24.2" width="13.3" height="13.24" transform="matrix(0.25, -0.97, 0.97, 0.25, 11.82, 76.88)" style="fill:#d8b80a"/></g><g style="clip-path:url(#clip-path-103)"><rect x="102.9" y="24.5" width="15.1" height="14.9" transform="translate(51.9 130.9) rotate(-75.5)" style="fill:#d8b80a"/></g><g style="clip-path:url(#clip-path-104)"><rect x="94" y="26.2" width="13.4" height="13.25" transform="translate(43.7 122) rotate(-75.5)" style="fill:#d8b80a"/></g><g style="clip-path:url(#clip-path-105)"><rect x="97.8" y="28.2" width="14.6" height="12.78" transform="translate(45.3 127.7) rotate(-75.5)" style="fill:#d8b80a"/></g><g style="clip-path:url(#clip-path-106)"><rect x="101.9" y="29.5" width="13.3" height="13.24" transform="translate(46.4 132.1) rotate(-75.5)" style="fill:#d8b80a"/></g><g style="clip-path:url(#clip-path-107)"><rect x="48.2" y="48.1" width="17" height="15.21" transform="translate(-11.4 96.7) rotate(-75.5)"/></g><g style="clip-path:url(#clip-path-108)"><rect x="53.8" y="47.4" width="15.5" height="16.82"/></g><g style="clip-path:url(#clip-path-109)"><rect x="58.4" y="48.2" width="17.2" height="15.75" transform="translate(-4 106.9) rotate(-75.5)"/></g><g style="clip-path:url(#clip-path-110)"><rect x="65.8" y="47.4" width="11.4" height="16.82"/></g><g style="clip-path:url(#clip-path-111)"><rect x="66.3" y="48.1" width="17.6" height="15.51" transform="translate(2.2 114.6) rotate(-75.5)"/></g><g style="clip-path:url(#clip-path-112)"><rect x="74" y="48.1" width="17" height="15.21" transform="translate(7.9 121.7) rotate(-75.5)"/></g><g style="clip-path:url(#clip-path-113)"><rect x="80.1" y="52.8" width="11.3" height="11.47"/></g><g style="clip-path:url(#clip-path-114)"><rect x="80" y="48.6" width="17.4" height="14.17" transform="translate(12.5 127.7) rotate(-75.5)"/></g><g style="clip-path:url(#clip-path-115)"><rect x="85.9" y="52.8" width="11.3" height="11.47"/></g></g></g></svg>