<svg xmlns="http://www.w3.org/2000/svg" viewBox="0 0 170.2 200"><title>1Recurso 1</title><g id="Capa_2" data-name="Capa 2"><g id="svg2"><path id="path45" d="M71.4,2.6h36V4h5.8V6.7h13.9v4.1h12.3v2.4h5.8c0,1-.1,2,0,3.1H154V20h3.4v5.3a5.4,5.4,0,0,1,2.9,4.2,6.1,6.1,0,0,1-.3,3,1.7,1.7,0,0,1,.1.7v4.3a16.2,16.2,0,0,0,.1,2.2,14.2,14.2,0,0,1,.2,2.9h1.8c0,1.2-.1,2.5,0,3.8h1.7c0,4.3-.1,8.5,0,12.8a16.6,16.6,0,0,1,1.3,1.4,5.4,5.4,0,0,1,1,4.6c-.1.7.2,1.4.1,2.1a3.8,3.8,0,0,0-.1,1.5,4.8,4.8,0,0,1-.4,2.9,5.5,5.5,0,0,1,.7,2.4,17.4,17.4,0,0,1,.1,3.2c0,.4-.3.9-.1,1.3a5.4,5.4,0,0,1,.2,3.1c-.1.4-.3.8-.1,1.1a6.2,6.2,0,0,1,.1,3.3,6.7,6.7,0,0,1,0,3.7c-.3.7,0,1.3,0,1.9s-.3,1.4-.3,2.1-.3,2.5-.3,3.8,0,3,0,4.5h-1.6v5.4h-1.3V115h-1.6c-.4.8-.2,1.8-.4,2.6a5.1,5.1,0,0,1-2.1,3.4c-.3.2-.3.6-.4,1a8.3,8.3,0,0,1-.3,2.7,8.3,8.3,0,0,1-.3,2.2,5.9,5.9,0,0,0-.2,1.3,5.7,5.7,0,0,1-2.5,4.6,6.4,6.4,0,0,1-1.5,3.8c-.5.6-1.2.9-1.6,1.5a9.3,9.3,0,0,1-1.4,1.4,11.3,11.3,0,0,1-1,1.3c-.7.6-.9,1.4-1.4,2a11.2,11.2,0,0,1-2.2,1.6,6.1,6.1,0,0,1-1.8,3.1v2.4h-2.1a6.7,6.7,0,0,0-1.2,1.6,4.3,4.3,0,0,0-.3,2.5h-1a5.3,5.3,0,0,1-2.3,1.6,2.6,2.6,0,0,0-1.1.7c-.1,1.9,0,3.7,0,5.6h-3.8a9.6,9.6,0,0,1-1.7,1.8,5.8,5.8,0,0,1-3.6,2.7c-.1,1.1,0,2.2,0,3.3h-4.1a5.5,5.5,0,0,1-3,4.8c-.5.4-1.2.4-1.7.9a4.9,4.9,0,0,0-1.5,1c-.5.6-1.4.9-1.9,1.6a5.8,5.8,0,0,1-3.3,1.9,6.3,6.3,0,0,1-3.2,2.8c-.5.1-.7.6-1,.9a5.7,5.7,0,0,1-2.8,1.7c-.4,0-.6.4-.8.6A5.6,5.6,0,0,1,101,188a5.6,5.6,0,0,1-3.5,3.7c-.6.3-1.4.2-1.9.7a6.5,6.5,0,0,1-2.3.9,5.7,5.7,0,0,1-2.8,2.7,6.9,6.9,0,0,0-1.5.7,5.6,5.6,0,0,1-5.1,1.4,5.7,5.7,0,0,1-3.3-2.2l-.6-.6a5.2,5.2,0,0,1-2.3-1.8,5.8,5.8,0,0,1-5.1-3.3,5.9,5.9,0,0,1-3.9-2c-.4-.6-1.1-.8-1.6-1.3s-.7-1-1.3-1.3a8.7,8.7,0,0,1-1.7-1.6,8.6,8.6,0,0,1-2-1.3,8.7,8.7,0,0,1-4.4-2.4c-.5-.6-1.2-.7-1.8-1.2a8.7,8.7,0,0,1-1.6-1.7,12.9,12.9,0,0,1-1.6-1.7,4.2,4.2,0,0,0-3.1-2.4,5.8,5.8,0,0,1-3.9-2.2h-.5c0-.5-.5-.6-.8-.9s-.8-1-1.3-1.4a12.1,12.1,0,0,0-1.4-1,5.6,5.6,0,0,1-3-3.4,6.9,6.9,0,0,0-.5-1.3c-.6-.9-.6-2.2-1.5-2.9H32.4v-2.7a6.9,6.9,0,0,1-1.7-1.7,5.7,5.7,0,0,1-2.4-2.7,6.9,6.9,0,0,1-1.6-2.2c-.2-.8-.9-1.4-1.2-2.1s-.4-.5-.7-.6a6,6,0,0,1-2.3-1.9c-.5-1-1.5-1.5-1.9-2.6s-1-1.1-1.4-1.8-1.1-1.1-1.5-1.7-.7-1.4-1.2-1.9a12.7,12.7,0,0,1-1.3-2.2,6,6,0,0,1-1.4-3.6c-.1-1.2-1.2-2-1.5-3.1a8,8,0,0,1-.3-3.1c-.2-1.4-1.7-1.9-2.3-3s-.6-1.7-1.1-2.4a5.6,5.6,0,0,1-.9-4.5H7.1v-4.5a6.5,6.5,0,0,1-.5-2A5.3,5.3,0,0,0,5,105.8a5.5,5.5,0,0,1-1.4-4.3A6.1,6.1,0,0,1,4,96.4,7.3,7.3,0,0,1,3.3,94c0-10.6.2-21.3,1.9-31.8A118.2,118.2,0,0,1,10.8,41c.4-.8.1-1.8.3-2.6A19.3,19.3,0,0,1,11,36a11.4,11.4,0,0,1-.2-2.6,7.4,7.4,0,0,0-.1-2.1c-.1-.7.2-1.3,0-2a8.2,8.2,0,0,1,.2-2.7,11,11,0,0,0,.2-1.8,5.6,5.6,0,0,1,2.5-4c.6-.4.9-1,1.4-1.4s1.2-1.4,2-1.8a6,6,0,0,1,3.9-1l2.2-.4,1.8-.5a6.8,6.8,0,0,1,2.2-1.2c.6-.1,1.1-.7,1.6-.9a6.5,6.5,0,0,0,1.6-.9A5.9,5.9,0,0,1,34,11.4v-.6h8.3A5.7,5.7,0,0,1,48.4,7c.7.2,1.3-.3,1.9-.4a12.9,12.9,0,0,0,1.9-.4,6.2,6.2,0,0,1,3-.6,5.7,5.7,0,0,1,2.9-.4c1,.2,2.1-.2,3.1,0a8.9,8.9,0,0,1,2.9-.9,11.3,11.3,0,0,1,1.8-1.2,6,6,0,0,1,5.5.6V2.6Z" style="fill:#fff;fill-rule:evenodd"/><g id="_172654432" data-name=" 172654432"><path id="path11" d="M11.4,17.9C36.3,6.1,60.6.2,84.3,0c25.3-.2,52.5,7.3,74.3,17.8,8.4,23.8,13.1,51.1,7.5,79.9,1.4-20.1-1-41.9-9.5-62.1-24.4-10.4-47.6-16-71.8-15.9s-50,6.1-72,16.1c-8,20.3-9.6,33.8-9.5,59-4.5-27.1-.2-52.5,8.1-76.9Z" style="fill:#029ce4;fill-rule:evenodd"/><path id="path13" d="M0,94.4l6.1-.9c4.9,32.1,24.8,60.4,50.2,81.7l-3.5,4.7C25.9,159.4,4.3,127.7,0,94.4Z" style="fill-rule:evenodd"/><path id="path15" d="M170.2,98l-6.1-1c-6.4,32.2-25.4,56.1-46.7,75.8l3.4,4.7C143.4,160.3,166.1,127.1,170.2,98Z" style="fill-rule:evenodd"/><path id="path17" d="M85.2,197.2a313.2,313.2,0,0,0,34.2-24l.9-.8,1.5,1.9-.9.8a282.8,282.8,0,0,1-35.1,24.5l-.6.4-.6-.4a317.4,317.4,0,0,1-31.8-22.2l-1-.8,1.6-1.9.9.8a300.9,300.9,0,0,0,30.9,21.7Z" style="fill-rule:evenodd"/><path id="path19" d="M8.9,68.7h22l-.3,13a115.9,115.9,0,0,0,6,37.2l-6.2,9.7L14.7,117c-6-15.4-8.4-31.8-5.8-48.3Zm131.2.1h22a101.1,101.1,0,0,1-5.5,46.8l-15.1,13.7-7.1-10.5a121.5,121.5,0,0,0,5.7-36v-14Z" style="fill:#029ce4;fill-rule:evenodd"/><path id="path21" d="M34.2,68.8h8.9v57.3c-5.9-15.2-9-30.5-8.9-44.3Zm21.3,0H67.1v98.5a148.3,148.3,0,0,1-11.6-16.4V68.8Zm24,0H91.3V181.1c-2,1.9-3.9,3.6-5.9,5.3-2-1.8-4-3.6-5.9-5.5Zm24.2,0h11.6v82.6a143.7,143.7,0,0,1-11.6,16.3Zm24,0h8.8v14a119.3,119.3,0,0,1-8.8,44.2V68.8Z" style="fill:#f40b21;fill-rule:evenodd"/><g id="g23"><path id="path25" d="M12.7,111.3l16.2,14.2,6.7-9.7c.6,2.2,1.4,4.4,2.1,6.5s1.3,3.6,2,5.4l-3.1,4.6,8.4,7.4c2.7,5.3,5.7,10.6,8.9,15.6L33.1,137.2l-4,5.8a101.9,101.9,0,0,1-6-9.1l2.4-3.4-8-6.9a108.6,108.6,0,0,1-4.9-12.3Z" style="fill-rule:evenodd"/><path id="path27" d="M158.2,110.8l-16.8,14.7-6.3-9.1c-1.2,4.1-2.5,8-4.1,12l2.7,3.9-7.2,6.3c-1,2.1-2.1,4.3-3.3,6.4s-3.5,6.2-5.5,9.3l19.5-17.1,4.3,6.2a88,88,0,0,0,6-9l-2.7-3.9,8.8-7.6A103.8,103.8,0,0,0,158.2,110.8Z" style="fill-rule:evenodd"/></g><path id="path29" d="M16.5,86.1h8.3a8.5,8.5,0,0,1-2.9,6.5v3l4.4,2.5v1.2H15V98.1l4.5-2.5V92.8a9,9,0,0,1-3-6.7Z" style="fill:#fff;fill-rule:evenodd"/><path id="path31" d="M20.7,86.1h4.1a8.5,8.5,0,0,1-2.9,6.5v3l4.4,2.5v1.2H20.7Z" style="fill-rule:evenodd"/><circle id="circle33" cx="20.7" cy="81.7" r="2.9" style="fill:#fff"/><circle id="circle35" cx="150.3" cy="93.3" r="5.9" style="fill:#fff"/><circle id="circle37" cx="150.3" cy="93.3" r="4.5" style="fill:#fff"/><path id="path39" d="M150.3,88.8a4.5,4.5,0,0,1,0,9h0V88.7h0Z" style="fill-rule:evenodd"/><rect id="rect41" x="147" y="83.5" width="6.6" height="4.02" style="fill:#fff"/><polygon id="polygon43" points="152.7 83.3 147.8 83.3 145.8 79.6 148.6 81.5 149 78.3 150.3 80.8 151.6 78.3 151.9 81.4 154.7 79.6 152.7 83.3" style="fill:#fff;fill-rule:evenodd"/><g id="g45"><polygon id="polygon47" points="22.2 41.2 22.2 61 30 63 45 63 50.6 49.2 42.1 50 42.1 52 39 56.8 32.7 57.2 32.7 35.3 22.2 41.2" style="fill-rule:evenodd"/><path id="path49" d="M58.9,32.2,48.3,36.4V52.1c0,7.2,4.3,11.4,15.8,11.3,5.4,0,15.4-1.3,15.4-11.2V33.8l-8-2.9V52.7c0,2.8-3.2,4-5.8,4s-6.8.2-6.8-3.9Z" style="fill-rule:evenodd"/><path id="path51" d="M104.8,43.6h5.9l-2.2-7.2c-3.6-3.5-7.9-4.9-12.9-5A16.5,16.5,0,0,0,79.1,47.6c-.1,8.1,5.5,15.8,17.1,15.9,5.9.1,14.1-3,15.9-9.4V46.6L97,45.9v6.8h5.8c-.1,2.7-3.3,4.2-6.3,4.1s-5.2-1.6-5.8-4.3a29.6,29.6,0,0,1-.3-8.4c.2-3,1.9-5.9,6.4-5.6a9.9,9.9,0,0,1,8,5.1Z" style="fill-rule:evenodd"/><path id="path53" d="M126.6,34.1c11.5.1,22.2,8.2,22.2,16.3s-8.6,13.2-18.9,13.2-18.5-6.2-19-14.8S116.6,34,126.6,34.1Zm10.7,13.7v3.4c0,5.1-3.2,6.1-7.1,6s-7.6-1.3-7.6-6V46.5c0-4.7,3.1-5.9,6.8-5.8s7.9,2.1,7.9,7.1Z" style="fill-rule:evenodd"/></g><g id="g55"><path id="path57" d="M62.1,8.1l2.1-1,2.2-.2c4.6-.5,5.4,2.4,5.3,4-.3,3.7-3.2,5.3-6.4,5.5H63.4L61.6,16Zm7.3,3c.2-1.8-.5-3.4-3.1-3.3l-2,.3-.5,7.4h1.5C68.6,15.2,69.2,12.8,69.4,11.1Z" style="fill:#fff;fill-rule:evenodd"/><path id="path59" d="M35.5,13.9l2.4-1.2-.7,5.9c-.2,1.5-.1,2.2,1.8,2A4.1,4.1,0,0,0,42.7,17l.5-6.1,1.6.3-.6,5.5c-.3,3.7-3.4,4.9-5.3,5.2s-4.2.1-4-1.9l.6-6.1Z" style="fill:#fff;fill-rule:evenodd"/><polygon id="polygon61" points="28.6 15.5 27 24.4 29.1 23.8 31.6 20.7 31.7 20.1 33.2 19.9 31 24.5 26.1 26 24.7 25.3 26 17.4 28.6 15.5" style="fill:#fff;fill-rule:evenodd"/><polygon id="polygon63" points="75.8 6 80.8 5.8 82.6 8.9 81.1 9 81.1 8.7 79.9 6.9 75.9 7 75.8 10 79.1 9.9 79.1 11 75.8 11.1 75.7 14.2 80 14.1 81.3 11.9 81.3 11.5 82.9 11.4 81.5 15 74.9 15.2 73.5 14.3 73.7 7.1 75.8 6" style="fill:#fff;fill-rule:evenodd"/><path id="path65" d="M46.6,11l2-1.1,2.8-.6c2.9-.6,4.3-.2,4.1,1.4a3.2,3.2,0,0,1-2.3,2.5c2.5.2,2.6,1.7,2.3,2.5s-2.6,2.6-5.7,3.1l-2.1.4-1.8-.3Zm1.9,2.9,2-.4a4.9,4.9,0,0,0,1.9-.7,2.3,2.3,0,0,0,.9-1.4c.2-1.1-.4-1.6-2-1.2l-2.5.6Zm2.4.4-2.5.5-.3,3.5,1.5-.3c2.3-.4,3.3-.9,3.6-2.1s-.6-1.9-2.4-1.6Z" style="fill:#fff;fill-rule:evenodd"/><path id="path67" d="M84.7,7l2-1.1h2.8c2.8-.1,4,1.4,4,2.8s-1.5,2.6-3.8,2.6H86.9v3.9l-2.1-.7Zm2.2,3.3h2c1.5,0,2.5.1,2.5-1.7s-.5-1.9-2.1-1.8H86.9v3.5Z" style="fill:#fff;fill-rule:evenodd"/><path id="path69" d="M108.2,8.5l2-.6,2.9.4c2.8.3,4.1,1.9,4.1,3.4s-1.1,1.4-1.9,1.4a3.8,3.8,0,0,1,2.3,2.5l.5,2.6-2.2-.2-.5-2.7c-.3-1.5-1.4-1.7-2.6-1.9l-2.2-.3.2,4-2.2-.9-.4-7.7Zm2.4,3.7,2,.2c1.6.2,2.5.4,2.5-1.3s-.6-1.8-2.2-2l-2.6-.2Z" style="fill:#fff;fill-rule:evenodd"/><polygon id="polygon71" points="119.2 9.4 129 11.8 129.1 12.7 125.2 11.8 125.9 20 123.5 18.8 123 11.2 119.3 10.3 119.2 9.4" style="fill:#fff;fill-rule:evenodd"/><polygon id="polygon73" points="133 13.2 134.2 22.7 131.8 21.3 130.7 12.4 133 13.2" style="fill:#fff;fill-rule:evenodd"/><polygon id="polygon75" points="141.4 25.3 139.4 24.6 134.9 13.8 137.2 14.1 140.5 23 142 16 143.7 16.8 141.4 25.3" style="fill:#fff;fill-rule:evenodd"/><path id="path77" d="M100.3,6.2a6.2,6.2,0,0,1,6.2,5.3c.3,2.9-2,4.8-5.3,4.7S95.3,14,95,11.1s1.9-5.1,5.3-4.9Zm.3,1a3.2,3.2,0,0,1,3,2.4,8.1,8.1,0,0,1,.3,3.8,2.6,2.6,0,0,1-2.9,1.7,3.4,3.4,0,0,1-3.1-2.5,7.9,7.9,0,0,1-.2-3.1,2.4,2.4,0,0,1,2.9-2.3Z" style="fill:#fff;fill-rule:evenodd"/><path id="path79" d="M150.1,18.8c3.3,1.3,6,4.4,6.5,7.4s-1.6,4.2-4.9,2.9-5.9-4.2-6.4-7.2,1.5-4.4,4.8-3.1Zm.4,1.1a5.8,5.8,0,0,1,3.1,3.4,9.1,9.1,0,0,1,.5,3.9c-.2,1.2-1.4,1.3-2.7.7a5.6,5.6,0,0,1-3.2-3.5,8.5,8.5,0,0,1-.4-3.2c0-1.4.9-2.1,2.7-1.3Z" style="fill:#fff;fill-rule:evenodd"/><path id="path81" d="M20.8,18.8c-2.9.7-5.8,4.2-6.3,7.2s1.4,4.5,4.7,3a10,10,0,0,0,4.3-5.4h-1c-1.1,2.5-2.4,3.7-3.6,4.2s-1.7.5-1.9-.7a7.3,7.3,0,0,1,.5-3.5c.6-1.6,2-3.4,3.4-3.8s1.9.7,1.9,1.8l.9-.2-.2-1.9c-.5-.9-1.8-.9-2.6-.7Z" style="fill:#fff;fill-rule:evenodd"/></g></g></g></g></svg>