<svg xmlns="http://www.w3.org/2000/svg" width="499" height="568" viewBox="0 0 499 568">
  <g fill="none">
    <path fill="#000" d="M0.5429,0.3555499 L498.7829,0.3555499 L498.7829,194.39555 C497.5589,256.09955 482.8709,316.57955 454.5749,371.44355 C425.7029,427.45955 383.7989,475.62755 334.0469,514.07555 C307.8389,534.37955 279.3989,551.51555 250.094898,566.99555 L249.662898,567.28355 L249.230898,566.99555 C219.926898,551.51555 191.486898,534.37955 165.278898,514.07555 C115.526898,475.62755 73.622898,427.45955 44.7509,371.44355 C16.4549,316.57955 1.7669,256.09955 0.5429,194.39555 L0.5429,0.3555499 Z"/>
    <path fill="#126CCD" d="M19.5509,19.36355 L19.5509,194.03555 C20.7749,255.16355 35.3909,311.89955 61.5989,362.80355 C88.526898,414.93155 127.550898,460.93955 176.870898,499.09955 C199.694898,516.73955 224.246898,532.14755 249.662898,545.82755 C275.0789,532.14755 299.6309,516.73955 322.4549,499.09955 C371.7749,460.93955 410.7989,414.93155 437.7269,362.80355 C463.9349,311.89955 478.5509,255.16355 479.7749,194.03555 L479.7749,19.36355 L19.5509,19.36355 L19.5509,19.36355 Z M1.6229,1.4355499 L497.7029,1.4355499 L497.7029,194.39555 C496.4789,258.25955 481.1429,317.65955 453.6389,371.01155 C425.5589,425.44355 384.8069,473.53955 333.3989,513.28355 C307.1909,533.51555 278.9669,550.57955 249.662898,566.05955 C220.358898,550.57955 192.134898,533.51555 165.926898,513.28355 C114.518898,473.53955 73.766898,425.44355 45.6869,371.01155 C18.1829,317.65955 2.8469,258.25955 1.6229,194.39555 L1.6229,1.4355499 Z"/>
    <path fill="#FFF" d="M20.5589,20.44355 L20.5589,194.03555 C21.7109,252.64355 35.6789,310.09955 62.5349,362.29955 C90.038898,415.72355 130.070898,461.58755 177.518898,498.23555 C200.126898,515.80355 224.534898,531.06755 249.662898,544.60355 C274.8629,531.06755 299.1989,515.80355 321.8069,498.23555 C369.2549,461.58755 409.2869,415.72355 436.7909,362.29955 C463.6469,310.09955 477.6149,252.64355 478.7669,194.03555 L478.7669,20.44355 L20.5589,20.44355 Z"/>
    <path fill="#000" d="M88.526898,88.41155 L410.7989,88.41155 L410.7989,192.66755 C410.2949,217.79555 407.1269,241.84355 401.4389,264.81155 C395.6789,288.13955 387.2549,310.38755 376.5269,331.26755 C362.4869,358.41155 344.7029,383.03555 323.9669,405.06755 C301.9349,428.53955 276.7349,448.91555 249.662898,466.19555 C222.590898,448.98755 197.318898,428.53955 175.358898,405.06755 C154.622898,383.03555 136.838898,358.41155 122.798898,331.26755 C112.070898,310.38755 103.646898,288.13955 97.886898,264.81155 C92.198898,241.84355 89.030898,217.79555 88.526898,192.66755 L88.526898,88.41155 Z"/>
    <path fill="#126CCD" d="M362.7749,445.31555 L329.7989,414.57155 L343.4069,399.95555 C348.0869,394.98755 353.2709,393.11555 359.1029,394.19555 C363.3509,395.05955 367.5269,397.36355 371.6309,401.17955 C376.0949,405.35555 378.9749,409.74755 380.3429,414.42755 C382.0709,420.61955 380.7029,426.16355 376.1669,430.98755 L362.7749,445.31555 L362.7749,445.31555 Z M341.8229,413.05955 L363.4229,433.21955 L369.6869,426.52355 C372.1349,423.93155 372.7829,420.90755 371.6309,417.45155 C370.6949,414.57155 368.6789,411.61955 365.5109,408.73955 C361.2629,404.77955 357.4469,402.90755 354.1349,403.12355 C351.9749,403.26755 349.9589,404.41955 348.0149,406.50755 L341.8229,413.05955 L341.8229,413.05955 Z"/>
    <polygon fill="#126CCD" points="371.487 377.204 379.407 382.532 391.647 364.316 398.271 368.708 385.959 386.924 395.607 393.476 409.575 372.74 416.271 377.276 397.119 405.644 359.679 380.444 378.255 352.94 384.807 357.404"/>
    <path fill="#126CCD" d="M426.9989 323.99555L430.0949 315.49955C431.8229 316.14755 433.4069 316.14755 434.9189 315.49955 437.1509 314.63555 438.9509 312.47555 440.1749 309.01955 441.1109 306.42755 441.4709 304.33955 441.3269 302.68355 441.1109 300.45155 440.0309 298.93955 437.9429 298.21955 436.5029 297.64355 435.0629 297.93155 433.6949 299.08355 432.7589 299.80355 431.4629 301.45955 429.8789 303.90755L427.1429 308.15555C424.4789 312.33155 422.2469 314.99555 420.5189 316.21955 417.5669 318.30755 413.9669 318.59555 409.8629 317.08355 406.5509 315.93155 404.1749 313.91555 402.5909 311.03555 400.4309 307.07555 400.4309 302.10755 402.6629 296.05955 404.7509 290.22755 407.9909 286.48355 412.3109 284.68355 415.6949 283.38755 419.0069 283.31555 422.3909 284.46755L419.2949 292.96355C417.4949 292.60355 416.0549 292.60355 414.8309 293.03555 412.6709 293.89955 410.9429 295.91555 409.7909 299.29955 408.9989 301.31555 408.7829 303.11555 409.0709 304.69955 409.3589 306.64355 410.3669 307.93955 412.0949 308.58755 413.6069 309.09155 414.9029 309.01955 415.9829 308.22755 416.6309 307.79555 417.4229 306.93155 418.2149 305.70755L424.4789 296.20355C426.6389 293.03555 428.7269 290.87555 430.6709 289.72355 433.4069 288.13955 436.5029 287.99555 439.9589 289.29155 444.2789 290.87555 447.0869 293.46755 448.4549 297.21155 449.8949 301.31555 449.6789 305.92355 447.8069 311.10755 445.3589 317.94755 441.8309 322.26755 437.2949 324.06755 434.0549 325.36355 430.5989 325.36355 426.9989 323.99555L426.9989 323.99555zM435.0629 271.50755C428.7269 270.28355 423.9749 267.90755 420.6629 264.37955 417.9989 261.64355 416.4149 258.18755 415.7669 254.15555 415.3349 251.27555 415.3349 248.39555 415.9109 245.65955 416.4149 242.85155 417.4229 240.25955 418.8629 237.88355 421.0229 234.35555 423.7589 231.83555 427.2149 230.25155 431.6069 228.16355 437.0069 227.80355 443.3429 229.02755 449.6069 230.25155 454.4309 232.62755 457.8149 236.15555 460.4069 238.96355 462.0629 242.34755 462.7109 246.37955 463.2149 249.25955 463.1429 252.06755 462.6389 254.73155 462.0629 257.61155 461.0549 260.20355 459.6149 262.65155 457.4549 266.10755 454.7189 268.69955 451.2629 270.28355 446.7989 272.37155 441.3989 272.80355 435.0629 271.50755L435.0629 271.50755zM436.8629 262.29155C442.4069 263.37155 446.8709 262.79555 450.1109 260.56355 452.5589 258.90755 454.1429 256.45955 454.7189 253.21955 455.3669 250.12355 454.7909 247.31555 453.1349 244.79555 450.9749 241.48355 447.0869 239.32355 441.5429 238.24355 435.9989 237.16355 431.6069 237.73955 428.3669 239.97155 425.9189 241.69955 424.4069 244.07555 423.7589 247.24355 423.1829 250.33955 423.6869 253.14755 425.3429 255.66755 427.5029 259.05155 431.3189 261.21155 436.8629 262.29155zM465.9509 212.53955L420.8789 210.95555 421.7429 188.13155C421.8869 182.87555 423.6149 179.13155 426.9269 176.75555 429.3029 175.09955 431.9669 174.30755 434.8469 174.37955 437.4389 174.45155 439.6709 175.17155 441.5429 176.46755 443.4869 177.76355 444.7829 179.56355 445.4309 181.79555 446.4389 179.70755 447.5189 178.33955 448.7429 177.61955 450.3989 176.68355 453.1349 176.32355 457.0229 176.39555 460.1909 176.53955 462.2789 176.53955 463.5029 176.46755 464.7269 176.46755 465.5909 175.81955 466.0229 174.73955L467.3189 174.73955 466.9589 185.17955C465.7349 185.46755 464.5109 185.68355 463.2149 185.82755 461.9189 185.97155 460.0469 185.97155 457.7429 185.89955 454.3589 185.75555 452.1269 186.04355 451.1189 186.69155 449.7509 187.55555 449.0309 189.71555 448.9589 192.95555L448.5989 202.67555 466.3109 203.25155 465.9509 212.53955 465.9509 212.53955 465.9509 212.53955zM441.0389 202.38755L441.4709 191.37155C441.5429 188.85155 441.1109 186.97955 440.1749 185.75555 439.3109 184.53155 437.7269 183.95555 435.5669 183.81155 433.9829 183.81155 432.6869 184.17155 431.6789 184.96355 430.2389 186.04355 429.5189 187.84355 429.4469 190.29155L429.0149 201.95555 441.0389 202.38755z"/>
    <polygon fill="#126CCD" points="467.031 156.38 421.887 155.588 422.103 146.156 467.175 146.948"/>
    <path fill="#126CCD" d="M457.5269 116.85155L466.8149 120.16355 466.5989 130.09955 421.8149 113.17955 422.0309 102.16355 467.3909 87.25955 467.1749 97.41155 457.8149 100.14755 457.5269 116.85155 457.5269 116.85155zM449.8229 114.18755L450.0389 102.66755 432.1109 107.99555 449.8229 114.18755 449.8229 114.18755zM216.182898 47.08355L206.102898 47.08355C205.454898 44.99555 204.590898 43.41155 203.654898 42.33155 201.782898 40.45955 199.118898 39.45155 195.518898 39.45155 192.350898 39.45155 189.758898 40.45955 187.742898 42.47555 184.934898 45.13955 183.566898 49.31555 183.566898 54.93155 183.566898 59.25155 184.502898 62.70755 186.302898 65.37155 188.462898 68.39555 191.486898 69.90755 195.518898 69.90755 198.254898 69.90755 200.630898 69.25955 202.430898 67.81955 204.302898 66.37955 205.526898 64.36355 206.102898 61.69955L216.182898 61.69955C215.102898 66.66755 212.870898 70.62755 209.558898 73.43555 205.886898 76.53155 201.134898 78.04355 195.230898 78.04355 188.678898 78.04355 183.422898 76.09955 179.462898 72.13955 175.358898 68.03555 173.270898 62.20355 173.270898 54.85955 173.270898 47.37155 175.430898 41.53955 179.678898 37.36355 183.710898 33.47555 188.966898 31.53155 195.374898 31.53155 201.998898 31.53155 207.254898 33.25955 211.214898 36.85955 214.526898 39.88355 216.182898 43.26755 216.182898 47.08355L216.182898 47.08355z"/>
    <rect width="10.08" height="9" x="232.023" y="67.82" fill="#126CCD"/>
    <path fill="#126CCD" d="M259.382898,76.81955 L259.382898,32.75555 L280.6949,32.75555 C287.9669,32.75555 293.2229,35.20355 296.6069,40.09955 C299.0549,43.69955 300.2789,48.23555 300.2789,53.70755 C300.2789,59.68355 298.9109,64.65155 296.2469,68.75555 C292.7189,74.15555 287.3909,76.81955 280.2629,76.81955 L259.382898,76.81955 L259.382898,76.81955 L259.382898,76.81955 Z M269.318898,40.31555 L269.318898,69.18755 L279.1109,69.18755 C282.8549,69.18755 285.7349,67.67555 287.6069,64.50755 C289.1909,61.91555 289.9109,58.53155 289.9109,54.35555 C289.9109,48.66755 288.6149,44.70755 286.0229,42.47555 C284.3669,41.03555 281.9909,40.31555 278.9669,40.31555 L269.318898,40.31555 L269.318898,40.31555 Z"/>
    <rect width="10.008" height="9" x="316.047" y="67.82" fill="#126CCD"/>
    <polygon fill="#126CCD" points="76.935 96.764 45.543 113.54 76.935 113.684 76.935 121.964 31.791 121.964 31.791 113.108 63.975 95.756 31.791 95.684 31.791 87.404 76.935 87.404"/>
    <path fill="#126CCD" d="M77.366898,171.78755 L48.0629,171.78755 C42.2309,171.78755 37.9109,170.20355 35.1029,167.10755 C32.3669,164.15555 30.9989,159.90755 30.9989,154.29155 C30.9989,151.84355 31.3589,149.61155 32.0789,147.52355 C33.0149,144.71555 34.5269,142.48355 36.5429,140.75555 C39.2789,138.59555 42.8789,137.44355 47.4869,137.44355 L77.366898,137.44355 L77.366898,146.58755 L48.0629,146.58755 C45.1109,146.58755 42.8789,147.30755 41.3669,148.67555 C39.7829,150.11555 39.0629,151.91555 39.0629,154.14755 C39.0629,157.09955 39.7829,159.25955 41.2229,160.62755 C42.7349,161.99555 44.8949,162.64355 47.7029,162.64355 L77.366898,162.64355 L77.366898,171.78755 L77.366898,171.78755 Z"/>
    <polygon fill="#126CCD" points="78.087 212.108 79.023 224.924 34.023 227.948 33.447 219.668 71.031 217.148 32.799 211.604 32.151 202.892 69.231 192.74 31.575 195.116 30.999 186.836 75.999 183.884 76.935 196.7 42.087 206.708"/>
    <path fill="#126CCD" d="M46.7669,250.62755 L37.0469,249.40355 L35.1749,240.25955 L82.478898,247.02755 L84.566898,257.25155 L43.3109,279.85955 L41.3669,270.42755 L49.9349,266.10755 L46.7669,250.62755 L46.7669,250.62755 L46.7669,250.62755 Z M54.9029,251.56355 L57.1349,262.29155 L73.550898,253.79555 L54.9029,251.56355 L54.9029,251.56355 Z"/>
    <polygon fill="#126CCD" points="92.055 287.132 67.719 312.26 97.599 303.188 100.335 311.108 57.423 324.212 54.543 315.788 79.455 289.94 48.783 299.228 46.119 291.308 88.959 278.276"/>
    <path fill="#126CCD" d="M107.678898,359.20355 L103.502898,351.21155 C105.230898,349.77155 106.310898,348.47555 106.886898,347.25155 C107.894898,344.94755 107.678898,342.42755 106.166898,339.54755 C104.870898,337.09955 102.926898,335.44355 100.190898,334.65155 C96.662898,333.57155 92.270898,334.29155 87.014898,336.66755 C83.126898,338.46755 80.246898,340.62755 78.590898,343.21955 C76.646898,346.17155 76.502898,349.26755 78.158898,352.43555 C79.310898,354.66755 80.894898,356.17955 82.982898,357.04355 C84.998898,357.90755 87.374898,358.05155 90.110898,357.40355 L94.214898,365.32355 C89.174898,366.61955 84.710898,366.54755 80.678898,365.03555 C76.358898,363.45155 73.046898,360.28355 70.598901,355.67555 C67.9349,350.41955 67.5749,345.45155 69.5909,340.69955 C71.678898,335.58755 76.142898,331.55555 82.910898,328.38755 C89.750898,325.21955 96.014898,324.49955 101.630898,326.15555 C106.886898,327.66755 110.846898,330.97955 113.438898,336.09155 C116.174898,341.34755 116.678898,346.31555 115.022898,350.92355 C113.582898,354.81155 111.134898,357.54755 107.678898,359.20355 L107.678898,359.20355 Z"/>
    <polygon fill="#126CCD" points="87.951 384.116 126.183 361.652 131.151 369.14 92.919 391.676"/>
    <path fill="#126CCD" d="M114.158898 405.71555L104.870898 408.59555 98.894898 401.17955 144.614898 387.71555 151.238898 395.99555 124.670898 433.36355 118.550898 425.73155 124.238898 418.31555 114.158898 405.71555 114.158898 405.71555 114.158898 405.71555zM121.862898 403.19555L128.846898 411.90755 139.718898 397.50755 121.862898 403.19555zM293.1509 432.93155C303.7349 423.93155 313.7429 414.42755 323.2469 404.34755 334.9829 391.81955 345.8549 378.49955 355.5749 364.24355L355.5749 343.79555C351.6869 337.09955 346.7189 332.13155 341.1749 328.96355 336.0629 326.08355 330.5189 324.64355 324.9029 324.71555 319.3589 324.71555 313.7429 326.22755 308.5589 329.17955 302.6549 332.56355 297.2549 337.89155 293.1509 345.01955L293.1509 366.61955 301.2869 366.61955 301.2869 381.37955 293.1509 381.37955 293.1509 432.93155 293.1509 432.93155zM218.486898 442.93955C228.494898 450.71555 238.934898 458.05955 249.662898 464.97155 260.390898 458.05955 270.83089 450.71555 280.8389 442.93955L280.8389 381.37955 272.7029 381.37955 272.7029 366.61955 280.8389 366.61955 280.8389 345.01955C276.8789 338.10755 271.6949 332.99555 265.934898 329.68355 260.822898 326.80355 255.206898 324.71555 249.662898 324.71555 244.118898 324.71555 238.502898 326.80355 233.390898 329.68355 227.630898 332.99555 222.446898 338.10755 218.486898 345.01955L218.486898 366.61955 226.622898 366.61955 226.622898 381.37955 218.486898 381.37955 218.486898 442.93955 218.486898 442.93955z"/>
    <path fill="#D8A53B" d="M183.638898 314.49155C188.030898 315.49955 193.358898 317.22755 197.462898 319.60355 202.862898 322.69955 207.902898 326.94755 212.366898 332.27555 216.614898 327.16355 221.438898 323.05955 226.622898 320.10755 231.230898 317.44355 236.054898 315.49955 241.022898 314.49155L183.638898 314.49155 183.638898 314.49155zM122.006898 327.30755C122.582898 328.45955 123.158898 329.61155 123.734898 330.76355 125.174898 333.57155 126.686898 336.37955 128.198898 339.11555L131.726898 339.11555C134.390898 334.57955 137.414898 330.61955 140.726898 327.30755L122.006898 327.30755zM128.774898 340.19555C129.638898 341.77955 130.574898 343.29155 131.438898 344.87555L131.438898 340.19555 128.774898 340.19555zM371.1269 339.11555C372.6389 336.37955 374.1509 333.57155 375.5909 330.76355 376.1669 329.61155 376.7429 328.45955 377.3189 327.30755L358.5989 327.30755C361.9109 330.61955 364.9349 334.57955 367.5989 339.11555L371.1269 339.11555zM367.8869 344.87555C368.7509 343.29155 369.6869 341.77955 370.5509 340.19555L367.8869 340.19555 367.8869 344.87555z"/>
    <path fill="#D8A53B" d="M132.518898 346.67555C135.758898 352.14755 139.142898 357.47555 142.742898 362.73155L142.742898 343.57955C145.766898 337.45955 151.742898 331.41155 157.646898 328.02755 162.902898 325.07555 168.662898 323.56355 174.422898 323.63555 180.182898 323.70755 185.942898 325.21955 191.270898 328.31555 197.606898 331.91555 203.942898 338.32355 207.254898 344.80355L207.254898 366.61955 217.406898 366.61955 217.406898 344.80355C220.430898 338.75555 227.054898 332.20355 232.886898 328.81955 238.214898 325.79555 243.974898 323.63555 249.662898 323.63555 255.350898 323.63555 261.110898 325.79555 266.438898 328.81955 272.2709 332.20355 278.8949 338.75555 281.9189 344.80355L281.9189 366.61955 292.0709 366.61955 292.0709 344.80355C295.3829 338.32355 301.7189 331.91555 308.0549 328.31555 313.3829 325.21955 319.1429 323.70755 324.9029 323.63555 330.6629 323.56355 336.4229 325.07555 341.6789 328.02755 347.5829 331.41155 353.5589 337.45955 356.5829 343.57955L356.5829 362.73155C360.1829 357.47555 363.5669 352.14755 366.8069 346.67555L366.8069 339.83555C363.1349 333.57155 358.7429 328.38755 353.9189 324.42755 346.2869 318.30755 337.5029 315.42755 328.6469 314.85155 319.7189 314.20355 310.5749 315.78755 302.3669 320.53955 296.3189 323.99555 291.3509 328.53155 286.9589 333.93155 282.7829 328.74755 277.9589 324.35555 272.1989 320.97155 265.070898 316.93955 257.366898 314.56355 249.662898 314.56355 241.958898 314.56355 234.254898 316.93955 227.126898 320.97155 221.366898 324.35555 216.542898 328.74755 212.366898 333.93155 207.974898 328.53155 203.006898 323.99555 196.958898 320.53955 188.750898 315.78755 179.606898 314.20355 170.678898 314.85155 161.822898 315.42755 153.038898 318.30755 145.406898 324.42755 140.582898 328.38755 136.190898 333.57155 132.518898 339.83555L132.518898 346.67555zM383.3669 314.49155C381.6389 318.45155 379.7669 322.41155 377.8949 326.29955L367.3109 326.29955 367.3109 314.49155 383.3669 314.49155z"/>
    <path fill="#D8A53B" d="M133.022898 326.29955L141.806898 326.29955C142.742898 325.36355 143.750898 324.49955 144.758898 323.63555 147.782898 321.18755 151.238898 319.17155 154.766898 317.51555 157.790898 316.14755 162.038898 315.06755 165.062898 314.49155L133.022898 314.49155 133.022898 326.29955zM115.958898 314.49155C117.686898 318.45155 119.558898 322.41155 121.430898 326.29955L132.014898 326.29955 132.014898 314.49155 115.958898 314.49155 115.958898 314.49155z"/>
    <rect width="26.424" height="12.744" x="199.119" y="367.628" fill="#D8A53B"/>
    <rect width="26.424" height="12.744" x="273.783" y="367.628" fill="#D8A53B"/>
    <path fill="#D8A53B" d="M281.9189 442.07555C285.3029 439.41155 288.7589 436.60355 292.0709 433.79555L292.0709 381.37955 281.9189 381.37955 281.9189 442.07555zM207.254898 433.79555C210.566898 436.60355 214.022898 439.41155 217.406898 442.07555L217.406898 381.37955 207.254898 381.37955 207.254898 433.79555z"/>
    <path fill="#126CCD" d="M143.750898,364.24355 C153.470898,378.49955 164.342898,391.81955 176.078898,404.34755 C185.582898,414.42755 195.590898,423.93155 206.174898,432.93155 L206.174898,381.37955 L198.038898,381.37955 L198.038898,366.61955 L206.174898,366.61955 L206.174898,345.01955 C202.070898,337.89155 196.670898,332.56355 190.766898,329.17955 C185.582898,326.22755 179.966898,324.71555 174.422898,324.71555 C168.806898,324.64355 163.262898,326.08355 158.150898,328.96355 C152.606898,332.13155 147.638898,337.09955 143.750898,343.79555 L143.750898,364.24355 L143.750898,364.24355 Z"/>
    <polygon fill="#D8A53B" points="284.151 152.852 284.151 161.996 297.399 161.996 297.399 152.852 304.671 152.852 304.671 168.908 194.655 168.908 194.655 152.852 201.927 152.852 201.927 161.996 215.175 161.996 215.175 152.852 222.519 152.852 222.519 161.996 235.767 161.996 235.767 152.852 243.111 152.852 243.111 161.996 256.215 161.996 256.215 152.852 263.559 152.852 263.559 161.996 276.807 161.996 276.807 152.852"/>
    <path fill="#D8A53B" d="M235.262898,287.70755 L264.062898,287.70755 L264.062898,250.05155 C264.062898,245.29955 261.830898,240.76355 258.230898,237.73955 C252.758898,233.20355 246.566898,233.20355 241.094898,237.73955 C237.494898,240.76355 235.262898,245.29955 235.262898,250.05155 L235.262898,287.70755 L235.262898,287.70755 Z"/>
    <rect width="8.064" height="8.784" x="177.303" y="278.924" fill="#D8A53B"/>
    <rect width="25.56" height="8.784" x="186.447" y="278.924" fill="#D8A53B"/>
    <rect width="21.168" height="8.784" x="213.087" y="278.924" fill="#D8A53B"/>
    <rect width="7.056" height="10.656" x="227.199" y="267.26" fill="#D8A53B"/>
    <polygon fill="#D8A53B" points="200.559 277.916 226.119 277.916 226.119 267.26 210.351 267.26 210.351 267.26 209.343 267.26 209.343 267.26 200.559 267.26"/>
    <path fill="#D8A53B" d="M199.478898,267.25955 L183.926898,267.25955 C181.766898,269.92355 179.534898,272.51555 177.302898,274.96355 L177.302898,277.91555 L199.478898,277.91555 L199.478898,267.25955 Z"/>
    <rect width="23.904" height="10.656" x="210.351" y="255.524" fill="#D8A53B"/>
    <path fill="#D8A53B" d="M209.342898 255.52355L192.710898 255.52355C191.630898 257.03555 190.550898 258.54755 189.542898 259.98755 187.958898 262.07555 186.374898 264.16355 184.790898 266.17955L209.342898 266.17955 209.342898 255.52355zM234.254898 254.51555L234.254898 250.05155C234.254898 247.89155 234.614898 245.80355 235.406898 243.85955L228.062898 243.85955 228.062898 254.51555 234.254898 254.51555z"/>
    <rect width="25.56" height="10.656" x="201.423" y="243.86" fill="#D8A53B"/>
    <path fill="#D8A53B" d="M200.342898 243.85955L200.270898 243.85955C198.110898 247.45955 195.806898 250.98755 193.430898 254.51555L200.342898 254.51555 200.342898 243.85955zM263.918898 243.85955C264.710898 245.80355 265.070898 247.89155 265.070898 250.05155L265.070898 250.05155 265.070898 254.51555 271.2629 254.51555 271.2629 243.85955 263.918898 243.85955z"/>
    <rect width="25.56" height="10.656" x="272.343" y="243.86" fill="#D8A53B"/>
    <path fill="#D8A53B" d="M298.9829,254.51555 L305.8949,254.51555 C303.5189,250.98755 301.2149,247.45955 299.0549,243.85955 L298.9829,243.85955 L298.9829,254.51555 Z"/>
    <rect width="23.904" height="10.656" x="265.071" y="255.524" fill="#D8A53B"/>
    <path fill="#D8A53B" d="M289.9829,266.17955 L314.5349,266.17955 C312.9509,264.16355 311.3669,262.07555 309.7829,259.98755 C308.7749,258.54755 307.6949,257.03555 306.6149,255.52355 L289.9829,255.52355 L289.9829,266.17955 L289.9829,266.17955 Z"/>
    <rect width="7.056" height="10.656" x="265.071" y="267.26" fill="#D8A53B"/>
    <polygon fill="#D8A53B" points="288.975 267.26 273.207 267.26 273.207 277.916 298.767 277.916 298.767 267.26 289.983 267.26 289.983 267.26"/>
    <path fill="#D8A53B" d="M299.8469,277.91555 L322.0229,277.91555 L322.0229,274.96355 C319.7909,272.51555 317.5589,269.92355 315.3989,267.25955 L299.8469,267.25955 L299.8469,277.91555 Z"/>
    <rect width="21.168" height="8.784" x="265.071" y="278.924" fill="#D8A53B"/>
    <rect width="25.632" height="8.784" x="287.247" y="278.924" fill="#D8A53B"/>
    <rect width="8.064" height="8.784" x="313.959" y="278.924" fill="#D8A53B"/>
    <path fill="#D8A53B" d="M240.446898 126.06755C240.662898 130.09955 240.950898 134.41955 242.174898 137.87555 245.270898 146.80355 254.054898 146.80355 257.150898 137.87555 258.374898 134.41955 258.662898 130.09955 258.878898 126.06755L240.446898 126.06755 240.446898 126.06755zM231.806898 160.91555L234.686898 160.91555 234.686898 151.84355 244.118898 151.84355 244.118898 160.91555 255.206898 160.91555 255.206898 151.84355 264.638898 151.84355 264.638898 160.91555 267.518898 160.91555C267.662898 160.26755 267.734898 159.61955 267.734898 158.89955 267.734898 155.37155 265.718898 152.05955 262.478898 149.68355 261.974898 149.32355 261.398898 148.96355 260.822898 148.67555 259.958898 150.40355 258.158898 151.19555 256.286898 151.55555 251.750898 152.34755 247.502898 152.34755 243.038898 151.55555 241.166898 151.19555 239.366898 150.40355 238.502898 148.67555 237.926898 148.96355 237.350898 149.32355 236.846898 149.68355 233.606898 152.05955 231.590898 155.37155 231.590898 158.89955 231.590898 159.61955 231.662898 160.26755 231.806898 160.91555L231.806898 160.91555z"/>
    <path fill="#D8A53B" d="M239.438898 148.17155C240.158898 149.61155 241.670898 150.25955 243.182898 150.54755 247.574898 151.33955 251.750898 151.33955 256.142898 150.54755 257.654898 150.25955 259.166898 149.61155 259.886898 148.17155 253.694898 144.93155 245.630898 145.00355 239.438898 148.17155zM259.958898 126.06755C259.742898 130.17155 259.454898 134.63555 258.158898 138.23555 257.870898 138.95555 257.582898 139.67555 257.222898 140.32355 258.086898 139.17155 259.454898 138.45155 260.894898 138.37955L260.894898 126.06755 259.958898 126.06755 259.958898 126.06755zM238.430898 126.06755L238.430898 138.37955C239.870898 138.45155 241.238898 139.17155 242.102898 140.32355 241.742898 139.67555 241.454898 138.95555 241.166898 138.23555 239.870898 134.63555 239.582898 130.17155 239.366898 126.06755L238.430898 126.06755 238.430898 126.06755z"/>
    <polygon fill="#D8A53B" points="261.255 124.988 265.575 113.684 255.423 122.252 249.663 111.092 243.903 122.252 233.751 113.684 238.071 124.988"/>
    <path fill="#D8A53B" d="M242.030898,143.27555 C242.030898,141.18755 240.302898,139.38755 238.142898,139.38755 C235.982898,139.38755 234.254898,141.18755 234.254898,143.27555 C234.254898,145.43555 235.982898,147.23555 238.142898,147.23555 C240.230898,147.23555 242.030898,145.43555 242.030898,143.27555 Z"/>
    <path fill="#C51718" d="M242.390898 145.86755C243.758898 145.43555 245.198898 145.14755 246.710898 144.93155 244.982898 144.13955 243.686898 142.91555 242.678898 141.40355 242.894898 141.97955 243.038898 142.62755 243.038898 143.27555 243.038898 144.21155 242.822898 145.07555 242.390898 145.86755L242.390898 145.86755zM256.646898 141.40355C255.638898 142.91555 254.342898 144.13955 252.614898 144.93155 254.126898 145.14755 255.566898 145.43555 256.934898 145.86755 256.502898 145.07555 256.286898 144.21155 256.286898 143.27555 256.286898 142.62755 256.358898 141.97955 256.646898 141.40355L256.646898 141.40355z"/>
    <path fill="#D8A53B" d="M261.182898 147.23555C263.342898 147.23555 265.070898 145.43555 265.070898 143.27555 265.070898 141.18755 263.342898 139.38755 261.182898 139.38755 259.022898 139.38755 257.294898 141.18755 257.294898 143.27555 257.294898 145.43555 259.094898 147.23555 261.182898 147.23555zM285.7349 207.64355L285.7349 169.98755 213.590898 169.98755 213.590898 207.64355 224.102898 207.64355 224.102898 191.15555C224.102898 181.36355 239.222898 181.36355 239.222898 191.15555L239.222898 207.64355 260.102898 207.64355 260.102898 191.15555C260.102898 181.36355 275.2229 181.36355 275.2229 191.15555L275.2229 207.64355 285.7349 207.64355z"/>
    <path fill="#000" d="M249.662898 138.73955C250.526898 138.73955 251.390898 138.88355 252.038898 139.09955 252.830898 139.38755 253.334898 139.81955 253.334898 140.39555 253.334898 140.97155 252.830898 141.40355 252.038898 141.76355 251.390898 141.97955 250.526898 142.12355 249.662898 142.12355 248.798898 142.12355 247.934898 141.97955 247.286898 141.76355 246.494898 141.40355 245.990898 140.97155 245.990898 140.39555 245.990898 139.81955 246.494898 139.38755 247.286898 139.09955 247.934898 138.88355 248.798898 138.73955 249.662898 138.73955zM245.198898 127.93955C246.926898 127.93955 248.366898 129.37955 248.366898 131.10755 248.366898 132.90755 246.926898 134.34755 245.198898 134.34755 243.398898 134.34755 241.958898 132.90755 241.958898 131.10755 241.958898 129.37955 243.398898 127.93955 245.198898 127.93955zM254.126898 127.93955C255.926898 127.93955 257.366898 129.37955 257.366898 131.10755 257.366898 132.90755 255.926898 134.34755 254.126898 134.34755 252.398898 134.34755 250.958898 132.90755 250.958898 131.10755 250.958898 129.37955 252.398898 127.93955 254.126898 127.93955z"/>
    <path fill="red" d="M89.606898,89.41955 L89.606898,192.66755 C90.110898,217.65155 93.278898,241.69955 98.894898,264.59555 C100.838898,272.44355 103.070898,280.21955 105.590898,287.70755 L176.222898,287.70755 L176.222898,274.53155 C180.686898,269.77955 184.790898,264.59555 188.678898,259.33955 C192.710898,253.86755 196.526898,248.10755 199.982898,242.20355 C203.366898,236.65955 206.174898,230.82755 208.334898,224.85155 C210.422898,219.23555 211.862898,213.47555 212.582898,207.71555 L212.582898,169.98755 L193.574898,169.98755 L193.574898,151.84355 L203.006898,151.84355 L203.006898,160.91555 L214.166898,160.91555 L214.166898,151.84355 L223.598898,151.84355 L223.598898,160.91555 L230.726898,160.91555 C230.654898,160.26755 230.582898,159.61955 230.582898,158.89955 C230.582898,155.01155 232.742898,151.41155 236.270898,148.89155 C236.558898,148.60355 236.918898,148.38755 237.278898,148.17155 C234.902898,147.73955 233.174898,145.72355 233.174898,143.27555 C233.174898,140.82755 234.974898,138.81155 237.350898,138.45155 L237.350898,125.99555 L231.158898,110.22755 L243.614898,120.59555 L249.662898,108.85955 L255.710898,120.59555 L268.166898,110.22755 L261.974898,125.99555 L261.974898,138.45155 C264.350898,138.81155 266.150898,140.82755 266.150898,143.27555 C266.150898,145.72355 264.350898,147.73955 262.046898,148.17155 C262.406898,148.38755 262.766898,148.60355 263.054898,148.89155 C266.582898,151.41155 268.742898,155.01155 268.742898,158.89955 C268.742898,159.61955 268.670898,160.26755 268.598898,160.91555 L275.7269,160.91555 L275.7269,151.84355 L285.1589,151.84355 L285.1589,160.91555 L296.3189,160.91555 L296.3189,151.84355 L305.7509,151.84355 L305.7509,169.98755 L286.7429,169.98755 L286.7429,207.71555 C287.4629,213.47555 288.9029,219.23555 290.9909,224.85155 C293.1509,230.82755 295.9589,236.65955 299.3429,242.20355 C302.7989,248.10755 306.6149,253.86755 310.6469,259.33955 C314.5349,264.59555 318.6389,269.77955 323.1029,274.53155 L323.1029,287.70755 L393.7349,287.70755 C396.2549,280.21955 398.4869,272.44355 400.4309,264.59555 C406.0469,241.69955 409.2149,217.65155 409.7189,192.66755 L409.7189,89.41955 L89.606898,89.41955 Z"/>
    <path fill="#D8A53B" d="M249.662898 139.74755C248.870898 139.74755 248.150898 139.89155 247.646898 140.03555 247.286898 140.17955 247.070898 140.32355 247.070898 140.39555 247.070898 140.46755 247.286898 140.61155 247.646898 140.75555 248.150898 140.97155 248.870898 141.04355 249.662898 141.04355 250.454898 141.04355 251.174898 140.97155 251.678898 140.75555 252.038898 140.61155 252.254898 140.46755 252.254898 140.39555 252.254898 140.32355 252.038898 140.17955 251.678898 140.03555 251.174898 139.89155 250.454898 139.74755 249.662898 139.74755zM245.198898 128.94755C243.974898 128.94755 242.966898 129.95555 242.966898 131.10755 242.966898 132.33155 243.974898 133.26755 245.198898 133.26755 246.350898 133.26755 247.358898 132.33155 247.358898 131.10755 247.358898 129.95555 246.350898 128.94755 245.198898 128.94755zM254.126898 128.94755C252.974898 128.94755 251.966898 129.95555 251.966898 131.10755 251.966898 132.33155 252.974898 133.26755 254.126898 133.26755 255.350898 133.26755 256.286898 132.33155 256.286898 131.10755 256.286898 129.95555 255.350898 128.94755 254.126898 128.94755zM277.0229 219.37955L288.1109 219.37955C287.1029 215.85155 286.3109 212.25155 285.8069 208.72355L277.0229 208.72355 277.0229 219.37955 277.0229 219.37955z"/>
    <rect width="18.792" height="10.656" x="257.223" y="208.724" fill="#D8A53B"/>
    <rect width="12.816" height="10.656" x="243.399" y="208.724" fill="#D8A53B"/>
    <rect width="25.2" height="10.656" x="217.191" y="208.724" fill="#D8A53B"/>
    <path fill="#D8A53B" d="M213.518898 208.72355C213.014898 212.25155 212.222898 215.85155 211.214898 219.37955L216.182898 219.37955 216.182898 208.72355 213.518898 208.72355 213.518898 208.72355zM225.038898 220.38755L210.926898 220.38755C210.422898 222.04355 209.918898 223.62755 209.342898 225.21155 208.622898 227.15555 207.830898 229.09955 206.966898 231.04355L225.038898 231.04355 225.038898 220.38755z"/>
    <rect width="24.336" height="10.656" x="226.047" y="220.388" fill="#D8A53B"/>
    <rect width="16.2" height="10.656" x="251.319" y="220.388" fill="#D8A53B"/>
    <path fill="#D8A53B" d="M292.3589 231.04355C291.4949 229.09955 290.7029 227.15555 289.9829 225.21155 289.4069 223.62755 288.9029 222.04355 288.3989 220.38755L268.526898 220.38755 268.526898 231.04355 292.3589 231.04355zM212.870898 232.12355L206.462898 232.12355C204.878898 235.72355 203.006898 239.32355 200.918898 242.77955L200.918898 242.77955 212.870898 242.77955 212.870898 232.12355zM238.934898 232.12355L213.878898 232.12355 213.878898 242.77955 235.910898 242.77955C236.702898 241.12355 237.710898 239.68355 238.934898 238.38755L238.934898 232.12355zM278.4629 242.77955L298.4069 242.77955 298.4069 242.77955C296.3189 239.32355 294.4469 235.72355 292.8629 232.12355L278.4629 232.12355 278.4629 242.77955zM240.518898 236.87555C246.350898 232.05155 252.974898 232.05155 258.806898 236.87555 260.750898 238.60355 262.262898 240.40355 263.414898 242.77955L277.4549 242.77955 277.4549 232.12355 239.942898 232.12355 239.942898 237.45155C240.158898 237.23555 240.302898 237.09155 240.518898 236.87555zM381.4949 313.41155L383.8709 313.41155C385.5269 309.52355 387.1829 305.56355 388.6949 301.60355L381.4949 301.60355 381.4949 313.41155 381.4949 313.41155z"/>
    <rect width="30.528" height="11.808" x="350.031" y="301.604" fill="#D8A53B"/>
    <rect width="29.376" height="11.808" x="319.647" y="301.604" fill="#D8A53B"/>
    <rect width="36.288" height="11.808" x="282.351" y="301.604" fill="#D8A53B"/>
    <rect width="40.32" height="11.808" x="241.023" y="301.604" fill="#D8A53B"/>
    <rect width="29.88" height="11.808" x="210.135" y="301.604" fill="#D8A53B"/>
    <rect width="29.088" height="11.808" x="180.039" y="301.604" fill="#D8A53B"/>
    <rect width="29.592" height="11.808" x="149.439" y="301.604" fill="#D8A53B"/>
    <rect width="29.664" height="11.808" x="118.767" y="301.604" fill="#D8A53B"/>
    <path fill="#D8A53B" d="M110.630898 301.60355C112.142898 305.56355 113.798898 309.52355 115.454898 313.41155L117.830898 313.41155 117.830898 301.60355 110.630898 301.60355 110.630898 301.60355zM133.814898 288.78755L105.950898 288.78755C107.318898 292.74755 108.686898 296.63555 110.198898 300.59555L133.814898 300.59555 133.814898 288.78755 133.814898 288.78755z"/>
    <rect width="28.44" height="11.808" x="134.751" y="288.788" fill="#D8A53B"/>
    <rect width="29.88" height="11.808" x="164.199" y="288.788" fill="#D8A53B"/>
    <rect width="29.232" height="11.808" x="195.087" y="288.788" fill="#D8A53B"/>
    <rect width="29.448" height="11.808" x="225.327" y="288.788" fill="#D8A53B"/>
    <rect width="40.248" height="11.808" x="255.783" y="288.788" fill="#D8A53B"/>
    <rect width="36.936" height="11.808" x="297.039" y="288.788" fill="#D8A53B"/>
    <rect width="29.592" height="11.808" x="334.983" y="288.788" fill="#D8A53B"/>
    <path fill="#D8A53B" d="M389.1269 300.59555C390.5669 296.63555 392.0069 292.74755 393.3749 288.78755L365.5109 288.78755 365.5109 300.59555 389.1269 300.59555 389.1269 300.59555zM315.6869 314.49155C311.2949 315.49955 305.9669 317.22755 301.8629 319.60355 296.4629 322.69955 291.4229 326.94755 286.9589 332.27555 282.7109 327.16355 277.8869 323.05955 272.7029 320.10755 268.094898 317.44355 263.270898 315.49955 258.302898 314.49155L315.6869 314.49155 315.6869 314.49155zM366.3029 326.29955L357.5189 326.29955C356.5829 325.36355 355.5749 324.49955 354.5669 323.63555 351.5429 321.18755 348.0869 319.17155 344.5589 317.51555 341.5349 316.14755 337.2869 315.06755 334.2629 314.49155L366.3029 314.49155 366.3029 326.29955z"/>
  </g>
</svg>
