<svg xmlns="http://www.w3.org/2000/svg" width="425" height="566" viewBox="0 0 425 566">
  <g fill="none" transform="translate(0 -1)">
    <g transform="translate(.287 .897)">
      <path fill="#BE9F61" d="M388.568,463.891 C388.561,463.897 386.255,465.738 381.792,468.77 C368.399,477.87 335.728,497.583 288.877,509.519 C288.816,509.534 247.409,520.092 212.153,565.32 C176.895,520.092 135.49,509.534 135.427,509.519 C104.194,501.561 79.262,490.147 62.144,480.727 C53.584,476.017 46.978,471.803 42.515,468.77 C38.051,465.738 35.745,463.895 35.739,463.891 C8.17,441.891 0.415,407.237 0.413,375.229 C0.413,354.847 3.559,335.566 6.707,321.384 C9.855,307.201 12.995,298.158 12.999,298.133 C23.515,267.779 27.299,237.678 27.301,210.078 C27.297,143.251 5.129,91.068 2.568,85.256 C56.339,70.609 104.889,6.001 108.773,0.764 C143.355,17.578 179.663,21.974 212.153,21.976 C244.645,21.974 280.95,17.58 315.534,0.765 C319.418,6.002 367.972,70.61 421.74,85.257 C419.178,91.069 397.01,143.252 397.008,210.079 C397.008,237.68 400.791,267.78 411.31,298.134 C411.319,298.157 414.452,307.202 417.6,321.383 C420.746,335.564 423.892,354.848 423.892,375.23 C423.891,407.236 416.135,441.893 388.568,463.891 L388.568,463.891 Z"/>
      <g transform="translate(13 16)">
        <g fill="#17369D">
          <path d="M156.743,150.906 C170.141,143.722 184.419,140.075 199.166,140.075 L199.166,140.075 C213.906,140.075 228.18,143.719 241.569,150.898 L241.569,150.898 L331.027,35.829 C316.632,22.35 305.294,9.176 298.559,0.841 L298.559,0.841 C269.714,13.034 237.057,18.975 199.153,18.975 L199.153,18.975 C161.248,18.975 128.591,13.034 99.747,0.841 L99.747,0.841 C93.013,9.175 81.675,22.348 67.279,35.825 L67.279,35.825 L156.743,150.906 L156.743,150.906 Z"/>
          <path d="M167.669,83.918 C165.909,84.369 129.077,94.131 94.153,132.201 C59.229,94.131 22.397,84.369 20.635,83.918 C13.52,82.108 6.74,80.102 0.321,77.98 L60.685,0.426 C71.428,4.821 82.652,7.05 94.165,7.05 C105.67,7.05 116.891,4.82 127.627,0.434 L187.984,77.98 C181.563,80.102 174.785,82.108 167.669,83.918 L167.669,83.918 Z" transform="translate(105 397)"/>
          <path d="M21.521 132.453C24.676 149.523 27.237 170.573 27.237 193.918L27.237 193.918C27.237 222.348 23.439 254.189 12.28 286.389L12.28 286.389C12.083 286.957.417 321.592.422 359.399L.422 359.399C.42 385.085 5.803 412.199 23.705 431.145L23.705 431.145 103.037 329.099C96.256 311.511 92.671 292.111 92.671 272.056L92.671 272.056 92.669 272.056C92.671 256.132 94.934 240.619 99.26 226.095L99.26 226.095 19.872 124.106C20.44 126.818 20.993 129.597 21.521 132.453L21.521 132.453zM374.603 431.145C383.028 422.217 389.236 410.903 393.085 397.362L393.085 397.362C396.282 386.12 397.894 373.339 397.894 359.248L397.894 359.248C397.894 355.289 397.765 351.227 397.512 347.069L397.512 347.069C395.491 314.024 386.113 286.634 386.027 286.39L386.027 286.39C374.868 254.19 371.068 222.35 371.068 193.919L371.068 193.919C371.068 170.572 373.629 149.523 376.786 132.452L376.786 132.452C377.313 129.597 377.866 126.816 378.435 124.103L378.435 124.103 299.048 226.09C303.374 240.613 305.636 256.129 305.638 272.056L305.638 272.056C305.636 292.111 302.051 311.514 295.274 329.102L295.274 329.102 374.603 431.145 374.603 431.145 374.603 431.145z"/>
        </g>
        <path fill="#FFF" d="M300.858 425.007C330.329 413.645 350.31 400.674 357.971 395.28L357.971 395.28 282.771 298.549C278.958 305.885 274.54 312.801 269.532 319.184L269.532 319.184C260.78 330.339 250.656 339.359 239.402 346.054L239.402 346.054 300.858 425.007 300.858 425.007 300.858 425.007zM85.45 425.007C55.962 413.64 35.978 400.662 28.335 395.28L103.541 298.542C107.356 305.883 111.778 312.802 116.79 319.185 125.54 330.336 135.662 339.352 146.912 346.044L85.45 425.007zM98.866 165.502C103.569 154.425 109.575 144.135 116.788 134.942L116.788 134.942C123.396 126.525 130.781 119.322 138.846 113.414L138.846 113.414 50.814.176C36.053 12.727 18.913 24.627.647 32.123L.647 32.123C1.954 35.733 3.418 39.994 4.941 44.836L4.941 44.836 98.866 165.502 98.866 165.502 98.866 165.502zM269.53 134.944C276.742 144.133 282.742 154.423 287.444 165.497L287.444 165.497 381.364 44.837C382.889 39.995 384.351 35.732 385.659 32.123L385.659 32.123C367.391 24.627 350.254 12.728 335.492.177L335.492.177 247.466 113.406C255.534 119.314 262.923 126.522 269.53 134.944L269.53 134.944z" transform="translate(6 45)"/>
      </g>
    </g>
    <ellipse cx="212.44" cy="288.96" fill="#35A4F8" rx="92.485" ry="117.988"/>
    <g fill="#BE9F61" transform="translate(44.287 261.897)">
      <path d="M6.306,11.443 C2.181,18.574 0.202,28.572 0.204,39.823 L0.204,39.823 C0.202,51.066 2.182,61.066 6.306,68.199 L6.306,68.199 C10.443,75.333 16.634,79.612 25.282,79.623 L25.282,79.623 C38.992,79.563 49.529,72.735 50.341,53.937 L50.341,53.937 L37.427,53.937 C37.393,57.94 36.405,61.556 34.413,64.219 L34.413,64.219 C32.39,66.93 29.296,68.611 25.282,68.605 L25.282,68.605 C20.259,68.578 17.257,63.93 15.497,58.169 L15.497,58.169 C13.725,52.374 13.137,45.273 13.135,39.822 L13.135,39.822 C13.137,34.37 13.725,27.266 15.497,21.467 L15.497,21.467 C17.257,15.705 20.259,11.054 25.282,11.027 L25.282,11.027 C29.297,11.019 32.392,12.706 34.413,15.423 L34.413,15.423 C36.405,18.092 37.393,21.716 37.427,25.721 L37.427,25.721 L50.341,25.721 C49.529,6.92 38.993,0.081 25.282,0.022 L25.282,0.022 C16.631,0.034 10.442,4.312 6.306,11.443 L6.306,11.443 Z"/>
      <polygon points="305.793 11.001 305.793 11.001 305.793 76.852 317.905 76.852 317.905 11.001 336.102 11.001 336.102 1.55 287.597 1.55 287.597 11.001"/>
      <path d="M163.735,173.806 C163.572,173.806 163.412,173.806 163.247,173.811 L143.413,173.811 L143.413,250.476 L163.249,250.476 C163.401,250.476 163.554,250.478 163.704,250.476 C181.735,250.427 192.826,238.791 192.893,212.137 C192.825,185.508 181.749,173.854 163.735,173.806 L163.735,173.806 Z M177.254,229.929 C174.808,234.997 170.307,238.567 162.743,238.567 C162.722,238.567 162.699,238.567 162.677,238.567 C162.557,238.567 162.44,238.565 162.326,238.567 L155.217,238.567 L155.217,186.22 L155.217,185.719 L162.318,185.719 C162.432,185.719 162.552,185.715 162.677,185.715 C170.278,185.694 174.801,189.274 177.255,194.357 C179.724,199.436 180.262,205.974 180.267,212.137 C180.261,218.31 179.725,224.851 177.254,229.929 L177.254,229.929 Z"/>
    </g>
    <g transform="translate(154.287 204.897)">
      <ellipse cx="58.153" cy="84.063" fill="#BE9F61" rx="57.734" ry="83.237"/>
      <g transform="translate(9 10)">
        <path fill="#062837" d="M96.922 23.151C95.981 22.411 95.416 21.534 95.089 20.843 94.763 20.153 94.694 19.687 94.686 19.687L94.67 19.6 94.63 19.528C94.339 19.013 94.248 18.662 94.252 18.496 94.26 18.281 94.287 18.259 94.881 18.205 95.333 18.201 95.912 18.329 96.373 18.457 96.833 18.585 97.178 18.712 97.18 18.712L97.788 18.943 97.854 18.296C97.889 17.952 97.908 17.63 97.908 17.324 97.914 14.617 96.537 13.433 96.46 13.383L96.404 13.335 96.341 13.31C93.797 12.212 93.607 10.414 93.586 9.654 93.586 9.448 93.608 9.354 93.605 9.354L93.622 9.249 93.598 9.144C93.071 7.124 91.119 6.651 89.583 6.669 88.66 6.67 87.803 6.817 87.258 6.938 86.937 5.399 85.538 2.552 85.532 2.498L84.781.914 84.583 2.655C84.455 3.913 83.323 5.188 82.161 6.102 81.01 7.021 79.899 7.575 79.899 7.579L79.859 7.598 79.824 7.627C78.42 8.704 75.483 8.959 73.688 8.944 72.762 8.946 72.144 8.892 72.144 8.892 71.961 8.877 71.794 8.873 71.639 8.873 70.367 8.867 69.542 9.258 69.08 9.802 68.621 10.342 68.555 10.944 68.555 11.268 68.555 11.368 68.563 11.445 68.568 11.494 68.568 11.548 68.568 11.602 68.568 11.659 68.5 14.538 67.184 14.695 66.173 14.771 65.683 14.771 65.335 14.662 65.331 14.67 64.985 14.587 64.692 14.552 64.421 14.552 63.648 14.539 63.015 14.889 62.687 15.418 62.354 15.938 62.267 16.554 62.265 17.166 62.269 18.717 62.879 20.351 62.885 20.377L62.97 20.611 63.212 20.685C63.264 20.683 63.429 20.842 63.532 21.251 63.637 21.642 63.677 22.18 63.677 22.68 63.677 23.339 63.614 23.929 63.593 24.118 63.329 24.746 62.797 25.203 62.254 25.515 61.785 25.662 61.277 25.854 60.728 26.102L61.031 27.049C61.051 27.033 61.822 26.901 62.667 26.435 63.521 26.177 64.197 26.096 64.714 26.096 65.241 26.096 65.604 26.182 65.824 26.259 65.899 26.285 65.958 26.311 66.002 26.331 67.177 28.894 68.337 29.826 69.497 29.847 70.97 29.795 71.656 28.426 71.695 28.404 72.439 26.654 73.279 26.555 73.73 26.53 73.93 26.53 74.011 26.572 74.015 26.561L74.077 26.582 74.138 26.586C76.205 26.767 76.551 27.318 76.58 28.053 76.611 29.116 75.411 30.942 74.147 32.37 72.896 33.816 71.643 34.929 71.641 34.933L70.359 36.075 72.054 35.8 95.002 32.032 94.948 31.556C94.896 31.136 94.881 30.762 94.878 30.425 94.883 28.863 95.313 28.214 95.649 27.914 95.821 27.763 95.986 27.692 96.106 27.657 96.224 27.622 96.259 27.635 96.259 27.624L96.407 27.624 96.534 27.542C97.632 26.826 98.107 26.003 98.101 25.231 98.063 23.906 96.946 23.192 96.922 23.151L96.922 23.151zM66.657 63.249C65.717 62.516 65.156 61.64 64.832 60.948 64.512 60.257 64.445 59.788 64.437 59.788L64.422 59.7 64.378 59.621C64.084 59.106 63.99 58.754 63.994 58.59 64.005 58.382 64.023 58.363 64.611 58.308 65.063 58.303 65.642 58.434 66.107 58.565 66.573 58.694 66.925 58.825 66.927 58.823L67.537 59.057 67.601 58.406C67.634 58.073 67.651 57.762 67.651 57.463 67.657 54.727 66.27 53.546 66.192 53.491L66.137 53.448 66.074 53.423C63.529 52.315 63.341 50.523 63.319 49.767 63.319 49.56 63.34 49.468 63.338 49.466L63.355 49.361 63.329 49.257C62.802 47.227 60.846 46.751 59.306 46.77 58.385 46.772 57.53 46.918 56.987 47.038 56.668 45.503 55.284 42.666 55.278 42.612L54.535 41.036 54.327 42.765C54.194 44.024 53.058 45.292 51.898 46.2 50.744 47.111 49.633 47.657 49.633 47.661L49.591 47.682 49.552 47.71C48.159 48.799 45.206 49.056 43.41 49.041 42.949 49.041 42.567 49.028 42.297 49.017 42.029 49.002 41.876 48.99 41.876 48.992 41.706 48.977 41.546 48.971 41.397 48.973 40.124 48.967 39.298 49.353 38.833 49.893 38.37 50.433 38.303 51.035 38.303 51.365 38.303 51.476 38.311 51.56 38.317 51.61 38.318 51.662 38.318 51.716 38.318 51.768 38.252 54.645 36.917 54.803 35.9 54.88 35.412 54.88 35.067 54.774 35.065 54.78 34.721 54.699 34.424 54.661 34.146 54.661 33.375 54.646 32.747 54.996 32.417 55.52 32.085 56.041 31.998 56.656 31.996 57.264 32 58.82 32.617 60.461 32.621 60.489L32.708 60.727 32.955 60.798C33.011 60.798 33.169 60.945 33.275 61.348 33.379 61.73 33.418 62.259 33.418 62.756 33.418 63.428 33.351 64.033 33.329 64.219 33.063 64.857 32.525 65.318 31.978 65.631 31.513 65.777 31.009 65.969 30.464 66.214L30.767 67.161C30.787 67.146 31.551 67.015 32.392 66.55 33.252 66.29 33.932 66.208 34.45 66.208 34.977 66.208 35.338 66.293 35.56 66.37 35.633 66.396 35.692 66.421 35.736 66.441 36.919 69.006 38.078 69.939 39.239 69.96 40.709 69.906 41.39 68.537 41.431 68.515 42.174 66.769 43.019 66.667 43.478 66.642 43.678 66.642 43.761 66.684 43.765 66.673L43.828 66.692 43.886 66.697C45.949 66.88 46.294 67.429 46.321 68.163 46.354 69.222 45.154 71.047 43.894 72.473 42.644 73.916 41.392 75.027 41.39 75.031L40.097 76.179 41.805 75.899 64.722 72.13 64.668 71.657C64.622 71.254 64.604 70.89 64.604 70.564 64.61 68.991 65.044 68.336 65.391 68.032 65.567 67.881 65.738 67.807 65.862 67.772 65.985 67.735 66.022 67.747 66.024 67.739L66.175 67.739 66.3 67.654C67.379 66.942 67.849 66.122 67.845 65.351 67.807 64.015 66.682 63.29 66.657 63.249L66.657 63.249zM34.409 30.91C34.364 30.504 34.347 30.138 34.345 29.809 34.351 28.237 34.781 27.583 35.12 27.282 35.296 27.13 35.461 27.057 35.58 27.022 35.7 26.987 35.735 27 35.735 26.991L35.886 26.991 36.012 26.908C37.109 26.194 37.584 25.367 37.58 24.593 37.541 23.265 36.423 22.543 36.398 22.502 35.448 21.774 34.89 20.901 34.569 20.207 34.249 19.517 34.187 19.046 34.179 19.046L34.164 18.955 34.119 18.876C33.822 18.357 33.728 18.002 33.733 17.839 33.745 17.643 33.748 17.629 34.322 17.575 34.774 17.568 35.359 17.703 35.83 17.837 36.295 17.97 36.65 18.104 36.652 18.102L37.264 18.339 37.33 17.689C37.367 17.346 37.384 17.024 37.384 16.718 37.388 13.994 36 12.801 35.924 12.747L35.872 12.701 35.804 12.674C33.259 11.581 33.073 9.772 33.05 9.02 33.05 8.82 33.071 8.729 33.069 8.729L33.085 8.622 33.058 8.522C32.527 6.485 30.557 6.01 29.009 6.027 28.097 6.028 27.251 6.172 26.71 6.288 26.397 4.756 25.013 1.918 25.007 1.864L24.267.29 24.059 2.017C23.925 3.276 22.788 4.55 21.625 5.461 20.472 6.374 19.36 6.924 19.36 6.928L19.317 6.949 19.279 6.978C17.884 8.065 14.943 8.323 13.152 8.308 12.235 8.308 11.621 8.256 11.619 8.256 11.45 8.244 11.29 8.237 11.141 8.239 9.856 8.233 9.026 8.624 8.561 9.172 8.096 9.713 8.032 10.318 8.03 10.645 8.03 10.745 8.037 10.822 8.043 10.87 8.043 10.926 8.045 10.982 8.045 11.034 7.979 13.909 6.636 14.066 5.617 14.143 5.134 14.143 4.793 14.039 4.791 14.047 4.45 13.965 4.157 13.93 3.884 13.93 3.111 13.915 2.479 14.266 2.151 14.795 1.816 15.316 1.73 15.932 1.727 16.543 1.731 18.095 2.341 19.729 2.347 19.755L2.436 19.997 2.686 20.065C2.74 20.063 2.901 20.213 3.008 20.621 3.111 21.012 3.153 21.551 3.151 22.051 3.151 22.706 3.088 23.29 3.068 23.474 2.797 24.108 2.264 24.565 1.721 24.875 1.255 25.021.75 25.21.204 25.455L.504 26.401C.524 26.386 1.289 26.258 2.13 25.795 2.979 25.541 3.651 25.461 4.166 25.459 4.695 25.461 5.059 25.546 5.282 25.623 5.358 25.649 5.417 25.675 5.461 25.696 6.645 28.269 7.808 29.199 8.97 29.221 10.437 29.167 11.117 27.804 11.156 27.781 11.904 26.021 12.761 25.924 13.216 25.897 13.408 25.897 13.487 25.938 13.491 25.925L13.553 25.946 13.613 25.95C15.681 26.128 16.026 26.678 16.053 27.413 16.086 28.475 14.886 30.303 13.623 31.732 12.371 33.178 11.117 34.292 11.117 34.296L9.824 35.442 11.531 35.163 34.463 31.381 34.409 30.91 34.409 30.91z" transform="translate(0 74)"/>
        <g transform="translate(3)">
          <path fill="#E5231B" d="M23.656 47.298C22.9 47.3 21.528 47.421 20.294 48.276 19.053 49.129 18.043 50.749 18.053 53.442 18.053 53.685 18.061 53.937 18.078 54.198 18.084 54.243 18.17 55.722 19.109 57.248 19.922 58.59 21.456 59.94 24.036 60.244 24.007 60.262 23.977 60.281 23.947 60.299 23.239 60.726 22.222 61.15 20.959 61.15 19.732 61.148 18.258 60.758 16.551 59.523 16.547 59.521 15.702 58.909 14.834 57.705 13.963 56.497 13.101 54.735 13.101 52.459 13.101 51.642 13.212 50.756 13.476 49.799L13.641 49.211 13.031 49.166C13.027 49.166 10.517 48.983 7.645 48.262 4.906 47.587 1.88 46.379.475 44.554 1.88 42.729 4.906 41.521 7.645 40.846 10.517 40.125 13.027 39.946 13.031 39.942L13.643 39.897 13.476 39.31C13.209 38.353 13.101 37.467 13.101 36.65 13.101 34.372 13.963 32.609 14.834 31.404 15.703 30.2 16.555 29.598 16.551 29.588 18.258 28.35 19.733 27.959 20.959 27.957 22.222 27.957 23.239 28.38 23.947 28.81 23.978 28.829 24.008 28.847 24.036 28.865 21.456 29.168 19.922 30.518 19.109 31.86 18.171 33.386 18.084 34.865 18.078 34.91 18.061 35.169 18.053 35.422 18.053 35.666 18.041 38.357 19.053 39.978 20.294 40.83 21.528 41.684 22.902 41.806 23.658 41.808 23.668 41.808 23.679 41.808 23.688 41.808L23.688 47.299C23.678 47.298 23.667 47.298 23.656 47.298L23.656 47.298zM68.651 47.298C69.407 47.3 70.779 47.421 72.013 48.276 73.254 49.129 74.265 50.749 74.254 53.442 74.254 53.685 74.246 53.937 74.23 54.198 74.224 54.243 74.137 55.722 73.199 57.248 72.386 58.59 70.852 59.94 68.272 60.244 68.301 60.262 68.331 60.281 68.362 60.299 69.07 60.726 70.087 61.15 71.35 61.15 72.577 61.148 74.051 60.758 75.758 59.523 75.762 59.521 76.607 58.909 77.475 57.705 78.346 56.497 79.208 54.735 79.208 52.459 79.208 51.642 79.098 50.756 78.833 49.799L78.668 49.211 79.278 49.166C79.282 49.166 81.793 48.983 84.664 48.262 87.403 47.587 90.43 46.379 91.834 44.554 90.43 42.729 87.403 41.521 84.664 40.846 81.793 40.125 79.282 39.946 79.278 39.942L78.666 39.897 78.833 39.31C79.1 38.353 79.208 37.467 79.208 36.65 79.208 34.372 78.346 32.609 77.475 31.404 76.607 30.2 75.754 29.598 75.758 29.588 74.051 28.35 72.576 27.959 71.35 27.957 70.086 27.957 69.07 28.38 68.362 28.81 68.331 28.829 68.301 28.847 68.272 28.865 70.852 29.168 72.386 30.518 73.199 31.86 74.137 33.386 74.224 34.865 74.23 34.91 74.247 35.169 74.254 35.422 74.254 35.666 74.267 38.357 73.254 39.978 72.013 40.83 70.779 41.684 69.405 41.806 68.649 41.808 68.639 41.808 68.628 41.808 68.619 41.808L68.619 47.299C68.63 47.298 68.641 47.298 68.651 47.298L68.651 47.298zM41.778 20.195C40.86 18.226 39.961 15.808 39.971 14.281 39.969 13.806 40.055 13.436 40.199 13.199 40.207 13.139 45.306 4.7 46.216.334 46.852 1.033 47.836 2.192 48.823 3.664 50.489 6.143 52.128 9.485 52.123 12.894 52.123 13.375 52.091 13.859 52.022 14.347 52.022 14.349 51.752 16.246 51.199 18.376 50.689 20.401 49.849 22.642 48.945 23.486L43.465 23.486C43.173 22.971 42.476 21.707 41.778 20.195zM48.58 108.465C48.592 110.392 48.193 113.682 46.153 115.262 44.109 113.682 43.713 110.392 43.725 108.467 43.725 108.058 43.741 107.727 43.757 107.482L48.549 107.482C48.564 107.727 48.58 108.058 48.58 108.465L48.58 108.465z"/>
          <polygon fill="#D5F81C" points="24.688 48.52 42.188 48.52 42.188 106.479 50.12 106.479 50.12 48.52 67.618 48.52 67.618 40.588 50.117 40.588 50.117 24.488 42.188 24.486 42.188 40.588 24.688 40.588"/>
        </g>
      </g>
    </g>
    <g transform="translate(144.287 45.897)">
      <path fill="#E5231B" d="M20.367 84.027C21.642 83.53 22.884 83.014 23.46 82.472L23.46 82.471 23.46 82.471 23.461 82.47 23.461 82.469C23.505 82.386 24.759 81.266 24.815 79.936 24.829 79.457 24.562 78.922 24.042 78.634 23.529 78.335 22.825 78.198 21.813 78.194 21.371 78.195 20.867 78.224 20.294 78.285 20.322 78.001 20.346 77.647 20.347 77.26 20.345 76.538 20.269 75.706 19.934 74.984 19.619 74.262 18.903 73.638 17.893 73.656 17.199 73.661 16.395 73.909 15.42 74.448 14.098 69.697 13.58 65.454 13.58 61.721 13.58 59.53 13.771 57.534 14.069 55.695 17.27 48.175 24.766 43.313 33.272 40.171 33.241 40.36 33.213 40.55 33.213 40.748 33.214 42.282 34.19 43.591 35.551 44.112 34.785 46.309 34.529 47.79 34.526 47.8 34.242 49.444 34.115 51.095 34.115 52.735 34.115 52.905 34.129 53.073 34.132 53.242 31.861 53.712 30.152 55.729 30.152 58.134 30.156 60.908 32.389 63.143 35.141 63.143 35.296 63.143 35.442 63.111 35.593 63.097 35.88 64.16 36.198 65.178 36.531 66.163 36.473 66.232 36.405 66.287 36.353 66.364 36.125 66.686 36.035 67.066 36.037 67.429 36.067 68.395 36.606 69.412 37.17 70.226 36.919 70.174 36.681 70.15 36.456 70.15 34.732 70.163 34.036 71.492 34.012 71.546 33.653 72.241 33.495 72.869 33.497 73.434 33.534 74.929 34.534 75.712 35.246 76.085 34.579 76.893 34.282 77.608 34.279 78.271 34.394 80.325 36.779 80.687 36.779 80.726 36.914 80.754 37.052 80.767 37.192 80.767 37.941 80.741 38.831 80.383 39.727 79.881 39.552 80.175 39.378 80.474 39.206 80.771 38.518 81.975 37.92 83.101 37.672 83.572 36.333 83.739 30.038 84.485 25.128 84.485 24.577 84.485 24.042 84.475 23.537 84.456 22.335 84.407 21.264 84.233 20.419 84.053 20.399 84.045 20.382 84.037 20.367 84.027L20.367 84.027zM90.751 40.991C91.553 42.658 91.897 45.687 91.891 49.252 91.893 53.628 91.406 58.816 90.81 63.52 90.717 63.505 90.624 63.478 90.531 63.474 90.382 63.474 90.225 63.491 90.074 63.532 88.757 63.821 87.958 64.739 88.017 66.011 88.02 66.774 88.205 67.685 88.501 68.86 87.867 68.55 87.023 68.236 86.18 68.225 85.889 68.225 85.589 68.264 85.298 68.372 84.573 68.647 83.27 69.431 83.235 70.962 83.236 71.761 83.629 72.628 84.536 73.568 83.923 74.207 82.744 75.578 82.697 77.006 82.682 78.258 83.811 79.223 86.122 79.358L86.248 79.366 86.362 79.317C86.367 79.314 86.54 79.237 86.818 79.112L85.041 81.17 72.586 81.132C72.574 80.676 72.561 79.938 72.561 79.104 72.56 78.307 72.576 77.416 72.619 76.615 73.042 76.838 73.323 76.98 73.326 76.982L73.47 77.054 73.629 77.027C76.313 76.636 77.455 75.471 77.444 74.135 77.411 72.894 76.591 71.803 76.066 71.216 77.085 70.454 77.503 69.504 77.494 68.646 77.475 67.526 76.905 66.651 76.335 66.24 75.883 65.931 75.35 65.849 74.818 65.847 74.68 65.847 74.541 65.86 74.402 65.871 74.978 61.37 75.214 57.017 75.214 52.938 75.213 45.829 74.513 39.552 73.726 34.729 77.403 34.925 82.426 35.351 87.88 36.272 89.764 38.912 90.75 40.984 90.751 40.991L90.751 40.991zM61.905 65.872C61.766 65.861 61.626 65.848 61.489 65.848 60.958 65.85 60.425 65.932 59.972 66.241 59.402 66.653 58.832 67.528 58.813 68.647 58.804 69.505 59.222 70.456 60.241 71.217 59.716 71.804 58.896 72.895 58.863 74.136 58.853 75.472 59.995 76.636 62.679 77.028L62.838 77.055 62.982 76.983C62.984 76.981 63.266 76.839 63.689 76.616 63.732 77.417 63.748 78.308 63.747 79.105 63.747 79.939 63.733 80.678 63.721 81.133L51.266 81.171 49.489 79.113C49.767 79.238 49.94 79.314 49.945 79.318L50.06 79.367 50.185 79.359C52.496 79.224 53.624 78.259 53.61 77.007 53.563 75.579 52.384 74.209 51.771 73.569 52.678 72.629 53.07 71.762 53.072 70.963 53.037 69.432 51.734 68.648 51.009 68.373 50.718 68.265 50.418 68.226 50.127 68.226 49.283 68.237 48.44 68.551 47.806 68.861 48.102 67.686 48.287 66.775 48.291 66.012 48.35 64.74 47.552 63.822 46.234 63.533 46.082 63.492 45.926 63.475 45.776 63.475 45.682 63.479 45.59 63.506 45.497 63.521 44.902 58.817 44.414 53.629 44.416 49.253 44.41 45.688 44.754 42.658 45.556 40.992 45.557 40.986 46.543 38.913 48.428 36.273 53.883 35.353 58.907 34.926 62.582 34.731 61.795 39.554 61.095 45.831 61.094 52.94 61.093 57.018 61.329 61.37 61.905 65.872L61.905 65.872zM112.773 84.458C112.267 84.477 111.733 84.487 111.181 84.487 106.271 84.487 99.976 83.741 98.637 83.574 98.389 83.103 97.79 81.976 97.103 80.773 96.931 80.476 96.756 80.177 96.582 79.883 97.478 80.384 98.368 80.742 99.117 80.769 99.257 80.769 99.394 80.756 99.529 80.728 99.529 80.689 101.914 80.328 102.029 78.273 102.026 77.61 101.729 76.895 101.062 76.087 101.774 75.714 102.774 74.931 102.811 73.436 102.813 72.872 102.655 72.244 102.295 71.548 102.271 71.494 101.575 70.165 99.851 70.152 99.626 70.152 99.388 70.176 99.137 70.228 99.701 69.414 100.24 68.397 100.27 67.431 100.272 67.068 100.182 66.688 99.954 66.366 99.902 66.289 99.835 66.234 99.776 66.165 100.108 65.18 100.427 64.162 100.714 63.099 100.865 63.113 101.011 63.144 101.166 63.145 103.917 63.145 106.15 60.91 106.154 58.136 106.154 55.732 104.444 53.714 102.174 53.244 102.177 53.075 102.192 52.907 102.192 52.737 102.192 51.098 102.065 49.446 101.781 47.802 101.778 47.792 101.521 46.311 100.756 44.114 102.117 43.593 103.093 42.284 103.094 40.75 103.094 40.553 103.066 40.362 103.035 40.174 111.549 43.32 119.051 48.192 122.245 55.743 122.538 57.57 122.726 59.551 122.726 61.723 122.726 65.456 122.208 69.699 120.886 74.45 119.91 73.911 119.108 73.663 118.413 73.658 117.402 73.64 116.686 74.263 116.372 74.986 116.036 75.708 115.961 76.54 115.959 77.262 115.96 77.649 115.983 78.004 116.012 78.287 115.439 78.226 114.935 78.198 114.492 78.196 113.48 78.2 112.776 78.337 112.263 78.636 111.743 78.924 111.476 79.46 111.49 79.938 111.547 81.268 112.801 82.389 112.844 82.471L112.844 82.472C112.844 82.472 112.844 82.472 112.845 82.473L112.845 82.473C112.845 82.473 112.845 82.474 112.846 82.474 113.421 83.016 114.662 83.532 115.938 84.028 115.921 84.038 115.905 84.047 115.888 84.056 115.043 84.236 113.974 84.409 112.773 84.458L112.773 84.458z"/>
      <g fill="#BE9F61" transform="translate(2 24)">
        <path d="M80.648 3.142C87.772 5.23 92.179 9.861 94.881 14.255 94.26 14.904 93.874 15.78 93.874 16.75 93.874 18.729 95.482 20.358 97.476 20.36 97.578 20.36 97.673 20.338 97.773 20.33 98.541 22.503 98.794 23.968 98.795 23.974 99.069 25.553 99.191 27.149 99.19 28.737 99.19 28.872 99.177 29.007 99.175 29.142 99.171 29.142 99.168 29.141 99.165 29.141 96.389 29.141 94.151 31.387 94.151 34.136 94.154 36.403 95.657 38.283 97.717 38.907 97.476 39.793 97.221 40.658 96.946 41.491 96.554 41.302 96.113 41.211 95.65 41.22 94.728 41.222 93.677 41.513 92.386 41.963 91.942 41.463 90.936 40.38 89.776 39.821 90.385 35.045 90.888 29.744 90.889 25.253 90.883 21.62 90.576 18.527 89.652 16.563 89.625 16.548 86.022 8.868 79.27 4.083 79.849 3.971 80.342 3.623 80.648 3.142L80.648 3.142zM64.305.175C64.143.469 64.045.802 64.044 1.163 64.048 2.323 64.986 3.273 66.148 3.277 66.149 3.277 66.151 3.277 66.153 3.277 66.155 3.277 66.156 3.277 66.158 3.277 67.321 3.273 68.258 2.323 68.262 1.163 68.262.802 68.163.469 68.001.175 71.322.205 74.477.316 77.435.48 77.025.867 76.768 1.411 76.766 2.013 76.767 2.209 76.802 2.395 76.852 2.576 74.556 1.349 71.967.509 69.095.366L68.389.335 68.596 1.013C68.596 1.021 69.495 3.954 70.401 8.928 71.307 13.9 72.213 20.89 72.213 28.94 72.213 33.067 71.975 37.474 71.377 42.03 71.108 42.089 70.849 42.155 70.616 42.224 71.228 40.92 71.496 39.917 71.499 39.101 71.512 38.243 71.153 37.563 70.6 37.197 70.054 36.829 69.406 36.732 68.781 36.73 67.668 36.733 66.569 37.057 66.155 37.191 65.741 37.057 64.643 36.733 63.53 36.73 62.905 36.732 62.256 36.829 61.711 37.197 61.157 37.564 60.799 38.243 60.812 39.101 60.815 39.917 61.082 40.92 61.695 42.224 61.462 42.155 61.202 42.089 60.934 42.03 60.336 37.474 60.098 33.068 60.098 28.94 60.098 20.89 61.004 13.899 61.91 8.928 62.816 3.954 63.715 1.021 63.715 1.013L63.922.335 63.215.366C60.343.509 57.755 1.349 55.459 2.576 55.509 2.396 55.544 2.209 55.544 2.013 55.543 1.411 55.286.867 54.875.48 57.83.316 60.984.206 64.305.175L64.305.175zM53.034 4.082C46.282 8.867 42.68 16.547 42.652 16.562 41.728 18.526 41.421 21.619 41.415 25.252 41.416 29.743 41.919 35.044 42.528 39.82 41.368 40.378 40.362 41.462 39.918 41.962 38.627 41.512 37.576 41.221 36.654 41.219 36.191 41.211 35.75 41.301 35.358 41.49 35.084 40.657 34.829 39.792 34.588 38.906 36.648 38.282 38.151 36.402 38.154 34.135 38.154 31.385 35.917 29.14 33.14 29.14 33.137 29.14 33.134 29.141 33.13 29.141 33.128 29.006 33.115 28.871 33.115 28.736 33.113 27.149 33.235 25.552 33.509 23.973 33.51 23.967 33.764 22.502 34.531 20.329 34.631 20.337 34.726 20.359 34.828 20.359 36.822 20.357 38.43 18.728 38.43 16.749 38.43 15.779 38.044 14.903 37.423 14.254 40.125 9.86 44.532 5.23 51.656 3.141 51.965 3.623 52.458 3.971 53.034 4.082L53.034 4.082z"/>
        <path d="M12.083 51.294C11.412 50.929 9.696 50.079 8.03 50.066 7.016 50.024 5.983 50.475 5.372 51.503 4.339 49.831 3.404 47.85 2.652 45.548 5.229 45.35 7.27 43.22 7.27 40.597 7.27 37.821 5.031 35.582 2.275 35.582 1.822 35.582 1.392 35.662.974 35.775.946 35.13.911 34.492.911 33.815.911 32.706.95 31.554 1.031 30.356 1.031 30.352 1.112 29.112 1.659 27.1 2.334 24.642 3.686 21.084 6.419 17.411 6.975 17.762 7.628 17.973 8.333 17.973 10.322 17.969 11.954 16.372 11.956 14.37 11.956 13.576 11.694 12.851 11.264 12.258 14.302 9.672 18.248 7.272 23.359 5.428 23.745 5.949 24.359 6.292 25.056 6.293 26.208 6.291 27.125 5.363 27.153 4.226 27.87 4.029 28.601 3.838 29.359 3.663 29.369 3.661 33.125 2.792 39.616 1.918 42.998 1.461 47.12 1.006 51.822.674 51.542 1.01 51.364 1.43 51.336 1.893 44.687 2.923 27.746 6.431 17.644 16.628 17.59 16.68 10.583 23.803 10.583 37.722 10.583 41.619 11.134 46.045 12.536 50.988 12.387 51.086 12.238 51.185 12.083 51.294L12.083 51.294zM107.767 85.082C107.575 85.173 107.373 85.201 107.279 85.208 92.802 81.603 78.557 80.466 66.154 80.464 53.751 80.466 39.506 81.602 25.029 85.208 24.934 85.201 24.733 85.173 24.541 85.082 24.28 84.937 24.094 84.812 24.075 84.307 24.075 84.239 24.081 84.162 24.092 84.075 24.119 83.843 24.27 83.567 24.436 83.364 24.529 83.245 24.607 83.167 24.665 83.112 25.409 82.932 29.851 81.889 36.717 80.841 44.249 79.688 54.657 78.535 66.155 78.537 77.653 78.535 88.062 79.688 95.593 80.841 102.459 81.89 106.902 82.933 107.646 83.112 107.703 83.167 107.781 83.245 107.875 83.364 108.041 83.567 108.191 83.843 108.219 84.075 108.23 84.162 108.236 84.239 108.236 84.307 108.214 84.812 108.027 84.937 107.767 85.082L107.767 85.082z"/>
        <path d="M110.433,72.599 C110.275,72.553 110.121,72.499 109.958,72.461 L109.959,72.461 L106.011,71.556 C105.329,71.398 104.659,71.321 104.023,71.321 C101.919,71.325 100.068,72.14 99.627,73.804 C99.582,73.991 99.562,74.179 99.562,74.365 C99.617,76.323 101.691,77.958 104.381,78.599 L108.068,79.449 L107.507,82.051 C104.397,81.329 87.086,77.536 66.153,77.534 C45.22,77.536 27.91,81.329 24.8,82.051 L24.239,79.449 L27.926,78.599 C30.616,77.958 32.691,76.322 32.746,74.365 C32.746,74.179 32.725,73.99 32.681,73.804 C32.241,72.139 30.389,71.325 28.285,71.321 C27.648,71.321 26.978,71.399 26.297,71.556 L22.349,72.461 L22.349,72.461 C22.186,72.499 22.033,72.553 21.874,72.599 L20.714,69.416 C22.177,69.054 26.618,68.011 33.244,66.962 C41.435,65.666 52.934,64.367 66.154,64.367 C79.374,64.367 90.873,65.665 99.065,66.962 C105.691,68.011 110.131,69.053 111.594,69.416 L110.433,72.599 L110.433,72.599 Z"/>
        <path d="M112.792,68.209 C112.565,68.384 112.35,68.489 112.22,68.544 C110.377,68.071 91.405,63.369 66.153,63.367 C40.902,63.369 21.929,68.071 20.087,68.544 C19.957,68.489 19.741,68.384 19.514,68.209 C19.16,67.931 18.868,67.571 18.868,67.044 C18.868,66.824 18.942,66.543 19.086,66.219 C20.228,65.988 25.181,65.02 32.656,64.048 C41.212,62.936 53.048,61.823 66.154,61.823 C79.26,61.823 91.096,62.936 99.653,64.048 C107.128,65.02 112.081,65.988 113.222,66.219 C113.367,66.542 113.44,66.823 113.44,67.044 C113.438,67.571 113.146,67.931 112.792,68.209 L112.792,68.209 Z"/>
        <path d="M113.365 65.229C110.681 64.688 90.647 60.825 66.153 60.823 41.659 60.825 21.625 64.688 18.941 65.229L15.781 60.955C16.018 60.876 16.326 60.771 16.674 60.65 17.473 60.892 19.29 61.366 21.494 61.457 22.014 61.476 22.561 61.486 23.125 61.486 28.748 61.486 36.045 60.535 36.058 60.532L36.317 60.499 36.437 60.267C36.439 60.263 37.181 58.829 38.072 57.27 38.618 56.302 39.254 55.265 39.763 54.539 40.843 53.734 41.759 52.925 42.21 52.525 42.918 52.96 44.155 53.57 45.3 54.109L48.81 58.172 62.687 58.129 62.706 57.65C62.706 57.646 62.746 56.508 62.746 55.105 62.745 54.129 62.727 53.042 62.659 52.093 62.993 51.908 63.351 51.706 63.712 51.494 64.396 51.091 65.081 50.656 65.616 50.246 65.811 50.078 65.995 49.937 66.154 49.791 66.154 49.791 66.154 49.791 66.155 49.792 66.155 49.792 66.155 49.792 66.156 49.791 66.314 49.937 66.499 50.078 66.695 50.246 67.23 50.656 67.915 51.09 68.598 51.494 68.958 51.706 69.317 51.908 69.651 52.093 69.583 53.042 69.565 54.129 69.564 55.105 69.564 56.508 69.603 57.646 69.603 57.65L69.622 58.129 83.5 58.172 87.01 54.109C88.156 53.569 89.393 52.96 90.1 52.525 90.551 52.925 91.467 53.734 92.547 54.539 93.056 55.265 93.692 56.302 94.237 57.27 95.129 58.829 95.871 60.263 95.873 60.267L95.993 60.499 96.252 60.532C96.265 60.534 103.562 61.486 109.185 61.486 109.748 61.486 110.296 61.476 110.816 61.457 113.02 61.366 114.837 60.892 115.636 60.65 115.984 60.771 116.291 60.876 116.529 60.955L113.365 65.229 113.365 65.229zM131.332 35.776C130.914 35.663 130.483 35.583 130.03 35.583 127.275 35.583 125.036 37.822 125.036 40.598 125.036 43.221 127.077 45.351 129.654 45.549 128.902 47.851 127.967 49.832 126.934 51.504 126.323 50.476 125.289 50.025 124.276 50.067 122.61 50.08 120.894 50.93 120.223 51.295 120.068 51.186 119.919 51.087 119.771 50.989 121.172 46.046 121.724 41.62 121.724 37.723 121.724 23.804 114.717 16.681 114.662 16.629 104.559 6.431 87.619 2.924 80.97 1.894 80.942 1.431 80.765 1.011 80.485.675 85.186 1.007 89.308 1.462 92.69 1.919 99.181 2.794 102.937 3.662 102.947 3.664 103.705 3.84 104.435 4.03 105.153 4.227 105.18 5.365 106.097 6.292 107.25 6.294 107.947 6.293 108.562 5.95 108.947 5.429 114.058 7.273 118.004 9.672 121.042 12.259 120.611 12.852 120.35 13.576 120.35 14.371 120.353 16.372 121.985 17.97 123.973 17.974 124.678 17.974 125.331 17.764 125.887 17.412 128.619 21.085 129.972 24.643 130.647 27.101 131.195 29.113 131.275 30.353 131.275 30.357 131.356 31.555 131.395 32.707 131.395 33.816 131.395 34.493 131.359 35.131 131.332 35.776L131.332 35.776z"/>
      </g>
      <path fill="#17369D" d="M64.543 35.87L64.545 35.87C64.545 37.878 66.178 39.476 68.167 39.478 70.146 39.476 71.759 37.875 71.763 35.87 71.763 33.875 70.149 32.261 68.167 32.261 66.174 32.26 64.545 33.873 64.543 35.87zM68.154 44.292C65.395 44.292 63.153 46.53 63.151 49.295 63.157 52.072 65.397 54.292 68.154 54.296 70.936 54.292 73.151 52.068 73.155 49.295 73.15 46.534 70.938 44.297 68.154 44.292L68.154 44.292z"/>
      <path fill="#BE9F61" d="M66.876 11.696L66.876 5.884 64.387 5.884 64.387 3.327 66.876 3.327 66.876.609 69.429.609 69.429 3.327 71.917 3.327 71.917 5.882 69.429 5.884 69.429 11.696 69.044 11.696C68.748 11.653 68.448 11.623 68.14 11.622 67.831 11.622 67.53 11.652 67.233 11.696L66.876 11.696 66.876 11.696zM62.936 17.834C62.936 20.727 65.267 23.056 68.141 23.06L68.141 23.06C71.042 23.06 73.371 20.727 73.371 17.834L73.371 17.834C73.371 14.958 71.042 12.623 68.141 12.623L68.141 12.623C65.267 12.628 62.939 14.958 62.936 17.834L62.936 17.834 62.936 17.834z"/>
      <path fill="#359AF8" d="M65.544 35.87C65.546 37.322 66.721 38.478 68.167 38.478L68.167 38.478C69.595 38.478 70.763 37.324 70.763 35.87L70.763 35.87C70.761 34.429 69.591 33.262 68.167 33.26L68.167 33.26C66.725 33.262 65.547 34.432 65.544 35.87L65.544 35.87 65.544 35.87zM64.152 49.294C64.152 51.518 65.946 53.295 68.153 53.295L68.153 53.295C70.389 53.293 72.153 51.522 72.154 49.294L72.154 49.294C72.152 47.078 70.386 45.293 68.153 45.291L68.153 45.291C65.948 45.295 64.155 47.083 64.152 49.294L64.152 49.294 64.152 49.294 64.152 49.294zM67.044 25.164C67.046 25.767 67.556 26.277 68.148 26.279L68.148 26.279C68.768 26.277 69.261 25.773 69.263 25.164L69.263 25.164C69.261 24.556 68.776 24.062 68.148 24.06L68.148 24.06C67.55 24.062 67.046 24.561 67.044 25.164L67.044 25.164 67.044 25.164z"/>
      <path fill="#BE9F61" d="M23.305,81.105 C23.029,81.491 22.755,81.761 22.755,81.763 C22.487,82.066 20.953,82.759 19.6,83.252 C18.611,83.623 17.686,83.933 17.244,84.079 C17.406,83.705 17.498,83.294 17.499,82.862 C17.495,81.174 16.112,79.809 14.43,79.807 C13.338,79.807 12.387,80.379 11.843,81.233 C11.639,81.051 11.437,80.868 11.242,80.682 C9.647,79.199 8.296,77.715 7.858,77.226 C8.124,75.419 8.913,75.125 10.031,75.066 C10.874,75.058 11.831,75.373 12.579,75.688 C13.321,76.003 13.855,76.316 13.859,76.314 L14.145,76.486 L14.413,76.29 C16.081,75.061 17.229,74.65 17.893,74.658 C18.517,74.675 18.778,74.922 19.03,75.411 C19.263,75.9 19.349,76.619 19.347,77.262 C19.347,78.09 19.22,78.769 19.222,78.771 L19.097,79.45 L19.782,79.356 C20.596,79.246 21.269,79.196 21.813,79.196 C22.729,79.194 23.279,79.341 23.535,79.497 C23.783,79.661 23.801,79.745 23.815,79.938 C23.828,80.222 23.587,80.723 23.305,81.105 L23.305,81.105 Z"/>
      <path fill="#BE9F61" d="M14.429 84.943C15.555 84.941 16.494 84.003 16.497 82.861L16.497 82.861C16.495 81.737 15.559 80.807 14.429 80.805L14.429 80.805C13.285 80.807 12.363 81.733 12.361 82.861L12.361 82.861 12.359 82.861C12.363 84.005 13.289 84.941 14.429 84.943L14.429 84.943 14.429 84.943zM37.035 67.431C37.037 67.22 37.08 67.07 37.171 66.941 37.555 66.414 37.939 66.233 38.654 66.218 39.411 66.214 40.493 66.508 41.893 67.014L42.221 67.133 42.445 66.864C42.447 66.862 42.958 66.248 43.658 65.633 44.348 65.011 45.257 64.449 45.776 64.474 45.85 64.474 45.913 64.482 45.971 64.498 47.079 64.857 47.231 65.056 47.291 66.011 47.295 66.787 47.008 68.012 46.54 69.754L46.195 71.049C45.653 70.566 44.949 70.264 44.172 70.263 42.541 70.265 41.232 71.524 41.118 73.119L39.205 71.143C39.203 71.143 38.651 70.57 38.097 69.796 37.536 69.029 37.019 68.041 37.035 67.431L37.035 67.431zM37.189 79.769C37.111 79.769 37.045 79.761 36.985 79.748 36.987 79.75 36.529 79.647 36.078 79.387 35.616 79.114 35.271 78.763 35.278 78.273 35.272 77.862 35.522 77.19 36.444 76.25L37.033 75.646 36.222 75.418C36.22 75.418 35.779 75.291 35.335 74.964 34.884 74.63 34.496 74.17 34.494 73.435 34.494 73.06 34.597 72.59 34.898 72.005 34.898 72.003 34.995 71.81 35.249 71.59 35.505 71.37 35.877 71.153 36.454 71.153 36.961 71.153 37.655 71.325 38.574 71.912L41.116 73.54C41.202 74.765 41.987 75.777 43.082 76.19 42.61 76.595 41.954 77.138 41.225 77.682 39.808 78.765 38.029 79.802 37.189 79.769L37.189 79.769zM50.229 78.349C49.887 78.197 48.862 77.739 47.752 77.216 46.965 76.848 46.127 76.436 45.479 76.092 46.507 75.602 47.231 74.563 47.231 73.331 47.23 72.422 46.827 71.616 46.202 71.055L47.306 70.293C47.308 70.293 47.694 70.026 48.258 69.753 48.819 69.478 49.547 69.219 50.126 69.224 50.327 69.224 50.506 69.253 50.66 69.31 51.204 69.503 52.105 70.141 52.072 70.962 52.074 71.464 51.786 72.21 50.725 73.192L50.331 73.557 50.723 73.925C50.725 73.925 51.205 74.376 51.69 75.01 52.18 75.638 52.624 76.457 52.609 77.005 52.596 77.55 52.314 78.12 50.229 78.349L50.229 78.349z"/>
      <path fill="#BE9F61" d="M42.094 73.331C42.096 74.49 43.012 75.396 44.171 75.4L44.171 75.4C45.299 75.4 46.23 74.485 46.232 73.331L46.232 73.331C46.23 72.189 45.294 71.264 44.171 71.262L44.171 71.262C43.017 71.262 42.094 72.187 42.094 73.331L42.094 73.331 42.094 73.331zM113.004 81.105C113.28 81.491 113.554 81.761 113.554 81.763 113.822 82.066 115.356 82.759 116.709 83.252 117.698 83.623 118.623 83.933 119.065 84.079 118.903 83.705 118.811 83.294 118.81 82.862 118.814 81.174 120.197 79.809 121.878 79.807 122.97 79.807 123.921 80.379 124.465 81.233 124.669 81.051 124.871 80.868 125.067 80.682 126.662 79.199 128.012 77.715 128.451 77.226 128.185 75.419 127.396 75.125 126.278 75.066 125.435 75.058 124.478 75.373 123.729 75.688 122.987 76.003 122.454 76.316 122.449 76.314L122.163 76.486 121.895 76.29C120.226 75.061 119.079 74.65 118.415 74.658 117.791 74.675 117.529 74.922 117.277 75.411 117.045 75.9 116.959 76.619 116.961 77.262 116.961 78.09 117.088 78.769 117.086 78.771L117.21 79.45 116.525 79.356C115.711 79.246 115.038 79.196 114.494 79.196 113.578 79.194 113.028 79.341 112.772 79.497 112.525 79.661 112.506 79.745 112.492 79.938 112.48 80.222 112.722 80.723 113.004 81.105L113.004 81.105z"/>
      <path fill="#BE9F61" d="M121.879 84.943C120.753 84.941 119.814 84.003 119.812 82.861L119.812 82.861C119.814 81.737 120.75 80.807 121.879 80.805L121.879 80.805C123.024 80.807 123.945 81.733 123.947 82.861L123.947 82.861 123.949 82.861C123.945 84.005 123.02 84.941 121.879 84.943L121.879 84.943zM99.273 67.431C99.271 67.22 99.227 67.07 99.137 66.941 98.753 66.414 98.369 66.233 97.654 66.218 96.896 66.214 95.815 66.508 94.415 67.014L94.087 67.133 93.863 66.864C93.861 66.862 93.35 66.248 92.65 65.633 91.961 65.011 91.051 64.449 90.532 64.474 90.459 64.474 90.395 64.482 90.338 64.498 89.23 64.857 89.077 65.056 89.018 66.011 89.014 66.787 89.301 68.012 89.77 69.754L90.115 71.049C90.656 70.566 91.361 70.264 92.137 70.263 93.768 70.265 95.077 71.524 95.192 73.119L97.104 71.143C97.106 71.143 97.659 70.57 98.212 69.796 98.772 69.029 99.289 68.041 99.273 67.431L99.273 67.431zM99.119 79.769C99.197 79.769 99.263 79.761 99.322 79.748 99.32 79.75 99.778 79.647 100.229 79.387 100.691 79.114 101.036 78.763 101.029 78.273 101.036 77.862 100.785 77.19 99.864 76.25L99.275 75.646 100.086 75.418C100.088 75.418 100.529 75.291 100.973 74.964 101.424 74.63 101.812 74.17 101.814 73.435 101.814 73.06 101.711 72.59 101.41 72.005 101.41 72.003 101.313 71.81 101.059 71.59 100.802 71.37 100.431 71.153 99.854 71.153 99.347 71.153 98.654 71.325 97.734 71.912L95.192 73.54C95.106 74.765 94.322 75.777 93.226 76.19 93.698 76.595 94.354 77.138 95.082 77.682 96.5 78.765 98.279 79.802 99.119 79.769L99.119 79.769zM86.08 78.349C86.422 78.197 87.446 77.739 88.557 77.216 89.343 76.848 90.182 76.436 90.83 76.092 89.802 75.602 89.077 74.563 89.077 73.331 89.078 72.422 89.481 71.616 90.106 71.055L89.002 70.293C89 70.293 88.613 70.026 88.05 69.753 87.489 69.478 86.761 69.219 86.182 69.224 85.981 69.224 85.802 69.253 85.649 69.31 85.105 69.503 84.204 70.141 84.237 70.962 84.235 71.464 84.522 72.21 85.584 73.192L85.978 73.557 85.586 73.925C85.584 73.925 85.104 74.376 84.619 75.01 84.129 75.638 83.685 76.457 83.699 77.005 83.713 77.55 83.994 78.12 86.08 78.349z"/>
      <path fill="#BE9F61" d="M94.214 73.331C94.212 74.49 93.296 75.396 92.137 75.4L92.137 75.4C91.009 75.4 90.078 74.485 90.076 73.331L90.076 73.331C90.078 72.189 91.014 71.264 92.137 71.262L92.137 71.262C93.292 71.262 94.214 72.187 94.214 73.331L94.214 73.331 94.214 73.331zM76.442 74.136C76.43 74.801 76.037 75.563 73.625 76.012 73.242 75.816 72.172 75.261 71.104 74.632 70.439 74.241 69.776 73.819 69.298 73.452 69.193 73.371 69.1 73.294 69.015 73.221 70.3 72.85 71.242 71.692 71.244 70.303 71.24 68.594 69.864 67.222 68.155 67.22 66.465 67.222 65.109 68.598 65.105 70.303 65.105 71.683 66.03 72.843 67.294 73.218 66.789 73.646 65.841 74.281 64.954 74.778 63.972 75.346 63.036 75.831 62.683 76.012 60.267 75.563 59.874 74.801 59.864 74.136 59.856 73.593 60.205 72.901 60.594 72.374 60.977 71.847 61.358 71.495 61.356 71.493L61.848 71.034 61.267 70.695C60.098 69.997 59.824 69.283 59.814 68.647 59.795 67.926 60.288 67.221 60.541 67.064 60.73 66.93 61.062 66.848 61.475 66.848 61.48 66.848 61.485 66.848 61.491 66.848 62.127 66.842 62.882 67.025 63.477 67.208 64.072 67.391 64.508 67.572 64.51 67.57L65.846 68.144 65.144 66.87C64.156 65.075 63.804 63.844 63.81 63.099 63.843 61.948 64.452 61.794 65.529 61.728 66.103 61.724 66.718 61.841 67.188 61.957 67.658 62.072 67.983 62.189 67.985 62.187L68.153 62.247 68.326 62.187C68.326 62.183 69.624 61.722 70.778 61.726 71.854 61.792 72.464 61.948 72.499 63.099 72.503 63.844 72.15 65.077 71.165 66.871L70.47 68.143 71.801 67.569C71.801 67.563 73.544 66.836 74.819 66.847 75.237 66.845 75.577 66.927 75.768 67.063 76.019 67.217 76.51 67.925 76.492 68.646 76.482 69.284 76.211 69.996 75.042 70.694L74.463 71.033 74.953 71.492C74.955 71.492 75.332 71.844 75.715 72.373 76.101 72.898 76.45 73.59 76.442 74.136L76.442 74.136z"/>
      <path fill="#BE9F61" d="M66.106,70.303 C66.108,71.432 67.023,72.355 68.154,72.357 L68.154,72.357 C69.316,72.357 70.24,71.428 70.242,70.303 L70.242,70.303 C70.24,69.145 69.316,68.221 68.154,68.221 L68.154,68.221 C67.025,68.221 66.108,69.139 66.106,70.303 L66.106,70.303 L66.106,70.303 Z"/>
      <path fill="#359AF8" d="M54.323 26.013C54.325 26.625 54.83 27.122 55.432 27.122L55.432 27.122C56.066 27.118 56.536 26.638 56.541 26.013L56.541 26.013C56.539 25.406 56.061 24.905 55.432 24.905L55.432 24.905C54.834 24.907 54.325 25.416 54.323 26.013L54.323 26.013 54.323 26.013zM25.939 28.178C25.941 28.788 26.444 29.291 27.056 29.293L27.056 29.293C27.664 29.291 28.157 28.793 28.157 28.178L28.157 28.178C28.155 27.562 27.67 27.075 27.056 27.075L27.056 27.075C26.439 27.075 25.942 27.568 25.939 28.178L25.939 28.178 25.939 28.178zM34.213 40.749C34.215 42.173 35.396 43.355 36.83 43.359L36.83 43.359C38.264 43.355 39.43 42.174 39.434 40.749L39.434 40.749C39.43 39.309 38.267 38.143 36.83 38.141L36.83 38.141C35.393 38.143 34.215 39.313 34.213 40.749L34.213 40.749 34.213 40.749zM7.738 38.37C7.74 39.814 8.906 40.97 10.334 40.972L10.334 40.972C11.778 40.972 12.954 39.81 12.956 38.37L12.956 38.37C12.954 36.914 11.776 35.754 10.334 35.754L10.334 35.754C8.906 35.754 7.738 36.91 7.738 38.37L7.738 38.37 7.738 38.37zM31.152 58.135C31.152 60.358 32.943 62.14 35.141 62.144L35.141 62.144C37.369 62.142 39.155 60.358 39.155 58.135L39.155 58.135C39.151 55.941 37.366 54.144 35.141 54.139L35.141 54.139C32.944 54.144 31.156 55.94 31.152 58.135L31.152 58.135 31.152 58.135zM.267 64.597C.271 66.791 2.074 68.581 4.276 68.586L4.276 68.586C6.476 68.582 8.266 66.794 8.271 64.597L8.271 64.597C8.267 62.37 6.477 60.586 4.276 60.58L4.276 60.58C2.076 60.586.271 62.373.267 64.597L.267 64.597.267 64.597z"/>
      <path fill="#C8D400" d="M20.529,100.719 C20.529,100.825 20.541,100.932 20.566,101.039 L20.566,101.039 C20.744,101.96 22.086,102.742 23.994,102.736 L23.994,102.736 C24.555,102.736 25.155,102.671 25.767,102.531 L25.767,102.531 L29.703,101.624 C32.16,101.079 33.802,99.488 33.747,98.364 L33.747,98.364 C33.747,98.252 33.734,98.145 33.708,98.038 L33.708,98.038 C33.509,97.09 32.179,96.316 30.285,96.32 L30.285,96.32 C29.728,96.32 29.132,96.385 28.52,96.529 L28.52,96.529 L24.573,97.434 C22.13,97.968 20.474,99.577 20.529,100.719 L20.529,100.719 L20.529,100.719 Z"/>
      <path fill="#359AF8" d="M81.985 26.013C81.983 26.625 81.478 27.122 80.877 27.122L80.877 27.122C80.242 27.118 79.773 26.638 79.768 26.013L79.768 26.013C79.771 25.406 80.248 24.905 80.877 24.905L80.877 24.905C81.475 24.907 81.983 25.416 81.985 26.013L81.985 26.013 81.985 26.013zM110.369 28.178C110.366 28.788 109.863 29.291 109.252 29.293L109.252 29.293C108.644 29.291 108.15 28.793 108.15 28.178L108.15 28.178C108.152 27.562 108.637 27.075 109.252 27.075L109.252 27.075C109.869 27.075 110.366 27.568 110.369 28.178L110.369 28.178 110.369 28.178zM102.096 40.749C102.093 42.173 100.913 43.355 99.479 43.359L99.479 43.359C98.045 43.355 96.879 42.174 96.875 40.749L96.875 40.749C96.879 39.309 98.042 38.143 99.479 38.141L99.479 38.141C100.915 38.143 102.093 39.313 102.096 40.749L102.096 40.749 102.096 40.749zM128.57 38.37C128.568 39.814 127.402 40.97 125.974 40.972L125.974 40.972C124.531 40.972 123.354 39.81 123.352 38.37L123.352 38.37C123.354 36.914 124.533 35.754 125.974 35.754L125.974 35.754C127.402 35.754 128.57 36.91 128.57 38.37L128.57 38.37 128.57 38.37zM105.156 58.135C105.156 60.358 103.366 62.14 101.168 62.144L101.168 62.144C98.94 62.142 97.153 60.358 97.153 58.135L97.153 58.135C97.158 55.941 98.942 54.144 101.168 54.139L101.168 54.139C103.364 54.144 105.152 55.94 105.156 58.135L105.156 58.135 105.156 58.135zM136.041 64.597C136.037 66.791 134.234 68.581 132.032 68.586L132.032 68.586C129.832 68.582 128.042 66.794 128.038 64.597L128.038 64.597C128.042 62.37 129.832 60.586 132.032 60.58L132.032 60.58C134.232 60.586 136.037 62.373 136.041 64.597L136.041 64.597 136.041 64.597z"/>
      <path fill="#C8D400" d="M115.779,100.719 C115.779,100.825 115.766,100.932 115.742,101.039 L115.742,101.039 C115.564,101.96 114.222,102.742 112.314,102.736 L112.314,102.736 C111.753,102.736 111.153,102.671 110.542,102.531 L110.542,102.531 L106.606,101.624 C104.149,101.079 102.506,99.488 102.562,98.364 L102.562,98.364 C102.562,98.252 102.575,98.145 102.601,98.038 L102.601,98.038 C102.799,97.09 104.13,96.316 106.024,96.32 L106.024,96.32 C106.582,96.32 107.177,96.385 107.79,96.529 L107.79,96.529 L111.737,97.434 C114.178,97.968 115.834,99.577 115.779,100.719 L115.779,100.719 L115.779,100.719 Z"/>
      <g transform="translate(55 91)">
        <path fill="#17369D" d="M19.65,0.284 L6.683,0.284 C3.652,0.301 1.017,1.723 0.939,3.961 C1.015,6.21 3.655,7.634 6.683,7.651 L19.65,7.651 C22.642,7.634 25.29,6.212 25.368,3.961 C25.288,1.721 22.643,0.302 19.65,0.284 L19.65,0.284 Z"/>
        <path fill="#C8D400" d="M23.073,5.788 C22.222,6.309 20.999,6.653 19.65,6.651 L6.683,6.651 C5.314,6.653 4.083,6.309 3.232,5.788 C2.372,5.261 1.935,4.602 1.939,3.961 C1.935,3.329 2.372,2.67 3.23,2.145 C4.083,1.626 5.313,1.283 6.683,1.283 L19.65,1.283 C20.999,1.283 22.222,1.627 23.073,2.145 C23.933,2.67 24.372,3.329 24.368,3.961 C24.372,4.6 23.932,5.26 23.073,5.788 L23.073,5.788 Z"/>
      </g>
    </g>
    <g transform="translate(126.287 174.897)">
      <g fill="#FFF" transform="translate(4 39)">
        <path d="M21.68,23.843 L23.653,25.809 L23.346,26.161 C19.846,30.157 14.845,29.614 12.592,29.11 L11.996,28.977 L21.882,6.789 L25.765,8.519 L26.213,7.513 L22.33,5.783 L24.23,1.515 C24.003,1.447 23.779,1.369 23.557,1.27 C23.335,1.171 23.126,1.056 22.923,0.933 L21.226,4.742 L21.021,5.2 L17.136,3.469 L16.688,4.475 L20.571,6.205 L10.685,28.393 L10.187,28.039 C8.307,26.701 4.558,23.345 5.188,18.071 L5.245,17.608 L8.026,17.76 L4.62,11.611 L0.2,17.456 L2.881,17.606 L2.844,18.112 C2.853,18.118 2.646,20.967 3.399,24.243 C4.152,27.529 5.836,31.139 9.517,32.775 C13.194,34.418 17.005,33.256 19.954,31.619 C22.892,29.987 24.877,27.935 24.882,27.931 L25.232,27.567 L27.138,29.457 L28.528,22.264 L21.68,23.843 L21.68,23.843 Z" transform="translate(0 9)"/>
        <path d="M27.731,0.907 C25.395,-0.128 22.667,0.919 21.623,3.248 C20.589,5.583 21.634,8.313 23.966,9.357 C26.299,10.392 29.029,9.344 30.073,7.013 C31.108,4.68 30.061,1.951 27.731,0.907 L27.731,0.907 Z"/>
        <path d="M7.771 9.993C7.568 10.116 7.359 10.231 7.137 10.33 6.915 10.429 6.691 10.507 6.464 10.575L8.364 14.843 4.481 16.573 4.929 17.579 8.812 15.849 18.698 38.037 18.102 38.171C15.85 38.675 10.848 39.217 7.348 35.222L7.041 34.869 9.014 32.903 2.164 31.323 3.554 38.516 5.46 36.627 5.81 36.99C5.814 36.996 7.8 39.047 10.738 40.679 13.686 42.316 17.498 43.478 21.175 41.834 24.856 40.198 26.54 36.588 27.293 33.302 28.046 30.027 27.839 27.177 27.848 27.171L27.811 26.665 30.492 26.515 26.072 20.67 22.666 26.819 25.447 26.667 25.504 27.13C26.134 32.405 22.386 35.761 20.505 37.099L20.007 37.453 10.121 15.265 14.004 13.536 13.556 12.529 9.671 14.26 9.466 13.801 7.771 9.993 7.771 9.993zM.623 7.073C1.666 9.404 4.396 10.452 6.73 9.417 9.062 8.373 10.107 5.644 9.073 3.308 8.029.979 5.301-.067 2.965.967.635 2.011-.412 4.739.623 7.073L.623 7.073z" transform="translate(7 107)"/>
      </g>
      <g fill="#FFF" transform="translate(130 39)">
        <g transform="translate(7)">
          <path d="M7.627,23.843 L5.654,25.809 L5.961,26.161 C9.46,30.157 14.462,29.614 16.715,29.11 L17.311,28.977 L7.424,6.789 L3.541,8.519 L3.093,7.513 L6.976,5.783 L5.076,1.515 C5.303,1.447 5.527,1.369 5.749,1.27 C5.971,1.171 6.18,1.056 6.383,0.933 L8.079,4.742 L8.284,5.2 L12.169,3.469 L12.617,4.475 L8.733,6.205 L18.62,28.393 L19.117,28.039 C20.998,26.701 24.746,23.345 24.116,18.071 L24.059,17.608 L21.278,17.76 L24.684,11.611 L29.104,17.456 L26.423,17.606 L26.46,18.112 C26.451,18.118 26.658,20.967 25.905,24.243 C25.152,27.529 23.467,31.139 19.787,32.775 C16.11,34.418 12.299,33.256 9.35,31.619 C6.412,29.987 4.426,27.935 4.422,27.931 L4.071,27.567 L2.165,29.457 L0.775,22.264 L7.627,23.843 L7.627,23.843 Z" transform="translate(2 9)"/>
          <path d="M3.576,0.907 C5.912,-0.128 8.639,0.919 9.683,3.248 C10.717,5.583 9.672,8.313 7.34,9.357 C5.007,10.392 2.277,9.344 1.234,7.013 C0.199,4.68 1.246,1.951 3.576,0.907 Z"/>
        </g>
        <path d="M23.536 9.993C23.739 10.116 23.948 10.231 24.17 10.33 24.392 10.429 24.616 10.507 24.843 10.575L22.943 14.843 26.826 16.573 26.378 17.579 22.495 15.849 12.608 38.037 13.204 38.171C15.457 38.675 20.459 39.217 23.958 35.222L24.265 34.869 22.292 32.903 29.143 31.323 27.753 38.516 25.847 36.627 25.496 36.99C25.492 36.996 23.506 39.047 20.568 40.679 17.62 42.316 13.808 43.478 10.131 41.834 6.45 40.198 4.766 36.588 4.013 33.302 3.26 30.027 3.467 27.177 3.458 27.171L3.495 26.665.814 26.515 5.234 20.67 8.64 26.819 5.859 26.667 5.802 27.13C5.172 32.405 8.92 35.761 10.801 37.099L11.298 37.453 21.185 15.265 17.301 13.536 17.749 12.529 21.634 14.26 21.839 13.801 23.536 9.993 23.536 9.993zM30.684 7.073C29.641 9.404 26.911 10.452 24.578 9.417 22.246 8.373 21.201 5.644 22.235 3.308 23.279.979 26.006-.067 28.342.967 30.672 2.011 31.719 4.739 30.684 7.073z" transform="translate(0 107)"/>
      </g>
      <g transform="translate(152 100)">
        <rect width="1.541" height="1.987" x="12.039" y=".983" fill="#FFF"/>
        <rect width="1.539" height="1.987" x="5.942" y=".983" fill="#FFF"/>
        <rect width="3.961" height="4.744" x="7.781" y="22.397" fill="#FFF"/>
        <path fill="#FFF" d="M19.338,27.143 L12.744,27.143 L12.744,21.397 L6.781,21.397 L6.781,27.143 L0.182,27.143 L0.182,17.87 L4.739,10.125 L4.758,10.064 C4.872,9.686 4.924,9.331 4.924,9.005 C4.926,7.457 3.715,6.647 2.655,6.317 C1.922,6.075 1.192,5.99 0.723,5.961 L0.723,0.984 L4.942,0.984 L4.942,3.972 L8.483,3.972 L8.483,0.984 L11.039,0.984 L11.039,3.972 L14.582,3.972 L14.582,0.984 L18.798,0.984 L18.8,5.962 C18.33,5.991 17.599,6.075 16.865,6.317 C15.805,6.647 14.594,7.458 14.596,9.003 C14.594,9.334 14.65,9.689 14.764,10.066 L14.781,10.125 L19.338,17.87 L19.338,27.143 L19.338,27.143 Z"/>
        <polygon fill="#35A4F8" points="14.581 15.461 14.581 14.962 14.581 10.677 11.04 10.677 11.04 15.461"/>
        <rect width="1.543" height="2.786" x="12.038" y="11.676" fill="#FFF"/>
        <polygon fill="#35A4F8" points="5.443 15.463 8.485 15.463 8.485 10.677 4.943 10.677 4.943 15.463"/>
        <rect width="1.542" height="2.785" x="5.941" y="11.675" fill="#FFF"/>
      </g>
      <g transform="translate(0 100)">
        <rect width="1.541" height="1.987" x="6.727" y=".983" fill="#FFF"/>
        <rect width="1.539" height="1.987" x="12.825" y=".983" fill="#FFF"/>
        <rect width="3.961" height="4.744" x="8.564" y="22.397" fill="#FFF"/>
        <path fill="#FFF" d="M0.969,27.143 L7.563,27.143 L7.563,21.397 L13.526,21.397 L13.526,27.143 L20.125,27.143 L20.125,17.87 L15.568,10.125 L15.549,10.064 C15.435,9.686 15.383,9.331 15.383,9.005 C15.381,7.457 16.592,6.647 17.652,6.317 C18.385,6.075 19.115,5.99 19.584,5.961 L19.584,0.984 L15.365,0.984 L15.365,3.972 L11.824,3.972 L11.824,0.984 L9.268,0.984 L9.268,3.972 L5.725,3.972 L5.725,0.984 L1.509,0.984 L1.507,5.962 C1.977,5.991 2.708,6.075 3.442,6.317 C4.502,6.647 5.713,7.458 5.711,9.003 C5.713,9.334 5.657,9.689 5.543,10.066 L5.526,10.125 L0.969,17.87 L0.969,27.143 L0.969,27.143 Z"/>
        <polygon fill="#35A4F8" points="5.726 15.461 5.726 14.962 5.726 10.677 9.267 10.677 9.267 15.461"/>
        <rect width="1.543" height="2.786" x="6.726" y="11.676" fill="#FFF"/>
        <polygon fill="#35A4F8" points="14.863 15.463 11.821 15.463 11.821 10.677 15.363 10.677 15.363 15.463"/>
        <rect width="1.542" height="2.785" x="12.823" y="11.675" fill="#FFF"/>
      </g>
      <polygon fill="#FFF" points="86.14 .932 48.434 25.158 48.434 25.158 123.844 25.158"/>
    </g>
    <g transform="translate(193.287 378.897)">
      <rect width="1" height="1.026" x="34.489" y=".201" fill="#FFF"/>
      <rect width="1" height="1.026" x="31.029" y=".201" fill="#FFF"/>
      <polygon fill="#FFF" points="27.068 4.243 27.068 4.288 27.068 5.215 26.215 5.215 26.215 4.243"/>
      <rect width="1" height="1" x="21.349" y="4.243" fill="#FFF"/>
      <rect width="1" height="1" x="16.105" y="4.243" fill="#FFF"/>
      <rect width="1" height="1" x="11.237" y="4.243" fill="#FFF"/>
      <rect width="1" height="1.026" x="6.844" y=".201" fill="#FFF"/>
      <rect width="1" height="1.026" x="3.382" y=".201" fill="#FFF"/>
      <rect width="1.799" height="2.921" x="4.43" y="14.718" fill="#FFF"/>
      <path fill="#FFF" d="M10.549,17.639 L7.229,17.639 L7.229,13.72 L3.431,13.72 L3.431,17.639 L0.111,17.639 L0.111,11.513 L2.383,6.921 L2.383,6.961 L2.383,10.04 L4.815,10.04 L4.815,6.461 L2.611,6.461 L2.708,6.265 L2.721,6.214 C2.785,5.947 2.817,5.695 2.817,5.46 C2.834,4.415 2.125,3.768 1.487,3.522 C1.099,3.362 0.716,3.293 0.424,3.262 L0.424,0.201 L2.384,0.201 L2.384,2.226 L4.816,2.226 L4.816,0.201 L5.845,0.201 L5.845,2.226 L8.277,2.226 L8.277,0.201 L10.236,0.201 L10.236,3.242 L10.236,3.242 L10.236,3.263 C9.944,3.293 9.561,3.363 9.173,3.523 C8.533,3.767 7.825,4.415 7.839,5.46 C7.839,5.697 7.873,5.947 7.942,6.216 L7.954,6.269 L8.049,6.461 L7.778,6.461 L5.844,6.461 L5.844,10.04 L8.278,10.04 L8.278,6.923 L10.549,11.513 L10.549,17.639 L10.549,17.639 Z"/>
      <rect width="1" height="1.582" x="3.383" y="7.459" fill="#FFF"/>
      <rect width="1" height="1.582" x="6.843" y="7.459" fill="#FFF"/>
      <rect width="2.244" height="2.895" x="18.032" y="14.731" fill="#FFF"/>
      <path fill="#FFF" d="M21.274,17.641 L21.274,13.733 L17.031,13.733 L17.031,14.233 L17.031,17.641 L11.547,17.641 L11.547,11.276 L8.899,5.925 C8.857,5.746 8.839,5.592 8.839,5.46 C8.856,4.863 9.125,4.651 9.558,4.446 C9.778,4.352 10.024,4.3 10.235,4.272 L10.235,6.215 L13.089,6.215 L13.089,4.242 L15.104,4.242 L15.104,6.215 L17.958,6.215 L17.958,4.242 L20.35,4.242 L20.35,6.215 L23.202,6.215 L23.202,4.242 L25.219,4.242 L25.219,6.215 L28.069,6.215 L28.069,4.272 C28.279,4.3 28.526,4.352 28.746,4.446 C29.178,4.651 29.449,4.863 29.464,5.46 C29.464,5.594 29.448,5.745 29.409,5.923 L26.76,11.276 L26.76,17.641 L21.274,17.641 L21.274,17.641 Z"/>
      <rect width="1.799" height="2.92" x="32.076" y="14.719" fill="#FFF"/>
      <path fill="#FFF" d="M38.194,17.639 L34.876,17.639 L34.876,13.721 L31.078,13.721 L31.078,17.639 L27.757,17.639 L27.757,11.513 L30.029,6.921 L30.029,6.961 L30.029,10.04 L32.461,10.04 L32.461,6.461 L30.257,6.461 L30.356,6.262 L30.369,6.21 C30.432,5.943 30.463,5.695 30.463,5.46 C30.478,4.415 29.771,3.768 29.131,3.523 C28.743,3.363 28.362,3.294 28.07,3.263 L28.07,0.2 L30.03,0.2 L30.03,2.225 L32.462,2.225 L32.462,0.2 L33.491,0.2 L33.491,2.225 L35.926,2.225 L35.926,0.2 L37.883,0.2 L37.883,3.261 C37.591,3.291 37.207,3.361 36.819,3.523 C36.178,3.767 35.474,4.418 35.489,5.46 C35.489,5.697 35.522,5.947 35.589,6.214 L35.602,6.267 L35.627,6.317 L35.698,6.462 L35.426,6.462 L33.492,6.462 L33.492,10.041 L35.926,10.041 L35.926,6.922 L38.197,11.512 L38.197,17.639 L38.194,17.639 Z"/>
      <rect width="1" height="1.582" x="31.028" y="7.459" fill="#FFF"/>
      <rect width="1" height="1.584" x="34.489" y="7.459" fill="#FFF"/>
      <polygon fill="#35A4F8" points="22.472 10.123 25.322 10.123 25.322 6.365 22.472 6.365 22.472 6.867"/>
      <rect width="1" height="1.76" x="23.471" y="7.364" fill="#FFF"/>
      <polygon fill="#35A4F8" points="12.982 10.123 15.834 10.123 15.834 6.365 15.334 6.365 12.982 6.365"/>
      <rect width="1" height="1.76" x="13.981" y="7.364" fill="#FFF"/>
    </g>
  </g>
</svg>
