<svg xmlns="http://www.w3.org/2000/svg" width="252" height="309" viewBox="0 0 252 309">
  <g fill="none" fill-rule="evenodd">
    <path fill="#E0CF9C" fill-rule="nonzero" d="M167.43414,0.9164373 C184.46314,33.945437 215.25314,56.167437 250.71114,63.984437 L250.71114,124.90145 C232.31114,141.54945 217.44614,168.95845 206.11714,207.12145 C191.79714,251.07145 172.48114,275.40345 125.57014,308.30845 C89.147143,286.78445 59.107143,259.82545 45.390143,211.09945 C35.063143,171.39045 21.2221426,143.81345 0.728143,124.08545 L0.728143,63.943437 C42.835143,51.192437 70.524143,30.319437 83.791143,1.3244373 L167.43414,0.9164373 Z"/>
    <path fill="#A2860C" fill-rule="nonzero" d="M167.43414,0.9164373 L166.90214,1.1904373 C184.01614,34.386437 214.96414,56.716437 250.58314,64.568437 L250.71214,63.984437 L250.11414,63.984437 L250.11414,124.90145 L250.71214,124.90145 L250.31214,124.45845 C231.78914,141.22245 216.89414,168.72845 205.54414,206.95045 L206.11814,207.12145 L205.54814,206.93545 C198.40214,228.86845 190.02814,245.85745 177.59914,261.48345 C165.16614,277.10945 148.66014,291.38145 125.22914,307.81745 L125.57214,308.30745 L125.87714,307.79145 C89.514143,286.29345 59.645143,259.48445 45.969143,210.93645 L45.393143,211.09845 L45.972143,210.94845 C35.631143,171.18245 21.7491426,143.48545 1.147143,123.65345 L0.731143,124.08545 L1.329143,124.08545 L1.329143,63.943437 L0.731143,63.943437 L0.904143,64.516437 C43.107143,51.740437 70.981143,30.768437 84.338143,1.5744373 L83.794143,1.3254373 L83.797143,1.9244373 L167.43914,1.5154373 L167.43414,0.9164373 L166.90214,1.1904373 L167.43414,0.9164373 L167.43014,0.3174373 L83.407143,0.7284373 L83.249143,1.0754373 C70.071143,29.870437 42.567143,50.643437 0.557143,63.370437 L0.132143,63.498437 L0.132143,124.33745 L0.315143,124.51445 C20.7011426,144.13845 34.500143,171.59545 44.812143,211.24745 L44.816143,211.26145 L44.816143,211.25945 C58.574143,260.16145 88.783143,287.27245 125.26714,308.82145 L125.59914,309.01745 L125.91514,308.79545 C149.39414,292.32645 165.99914,277.98245 178.53414,262.22845 C191.06914,246.47445 199.51314,229.32345 206.68614,207.30545 L206.69114,207.28945 L206.69114,207.28945 C218.00114,169.18545 232.83714,141.87545 251.11414,125.34445 L251.31014,125.16545 L251.31014,63.501437 L250.84114,63.397437 C215.54114,55.614437 184.91014,33.502437 167.96514,0.6404373 L167.79714,0.3134373 L167.43014,0.3144373 L167.43414,0.9164373 Z"/>
    <path fill="#C5112E" fill-rule="nonzero" d="M50.937143,189.33745 C43.971143,166.16345 32.6201426,142.50745 21.9751426,130.91745 L230.82114,130.91845 C217.28414,147.21645 207.87814,168.52845 201.22514,189.33745 L50.937143,189.33745 Z"/>
    <path fill="#C5112E" fill-rule="nonzero" d="M50.937143,189.33745 L51.510143,189.16545 C44.516143,165.92245 33.173143,142.23745 22.4161426,130.51245 L21.9751426,130.91745 L21.9751426,131.51645 L230.82114,131.51745 L230.82114,130.91845 L230.36014,130.53645 C216.74914,146.92845 207.32314,168.30445 200.65514,189.15545 L201.22514,189.33745 L201.22514,188.73945 L50.937143,188.73945 L50.937143,189.33745 L51.510143,189.16545 L50.937143,189.33745 L50.937143,189.93745 L201.66114,189.93745 L201.79614,189.52045 C208.43314,168.75345 217.81914,147.50545 231.28214,131.30045 L232.09614,130.32045 L20.6121426,130.31945 L21.5341426,131.32245 C32.0681426,142.77745 43.425143,166.40445 50.364143,189.51045 L50.491143,189.93745 L50.937143,189.93745 L50.937143,189.33745 Z"/>
    <path fill="#FFF" fill-rule="nonzero" d="M13.5771425 118.34045C13.6961425 118.38445 13.4151425 70.886437 13.4151425 70.886437 24.6161427 68.473437 35.444143 64.202437 45.626143 58.286437L45.626143 118.340481 13.5771425 118.34045zM203.86014 58.003437C214.48414 64.561437 225.94214 69.265437 238.43214 72.111437L238.38914 118.34045 203.86014 118.34045 203.86014 58.003437zM53.905143 53.013437C67.520143 43.558437 81.107143 31.579437 89.856143 14.080437L161.04914 14.080437C170.03714 29.217437 183.01014 43.100437 195.57814 52.395437L195.57814 118.34045 53.905143 118.34045 53.905143 53.013437z"/>
    <path fill="#262D80" fill-rule="nonzero" d="M76.610143 250.24245C59.797143 230.49245 54.377143 199.03445 54.377143 199.03445L197.73914 199.03445C196.09514 203.80145 192.26814 225.22445 173.15714 250.24245L76.610143 250.24245zM125.33414 294.11445C112.041143 286.84845 97.073143 274.84845 88.438143 265.26045L160.10214 265.26045C151.74914 273.92645 138.12314 285.65545 125.33414 294.11445L125.33414 294.11445z"/>
    <path fill="#05642C" fill-rule="nonzero" d="M78.267143,253.08245 L171.21814,253.08245 L163.05814,262.06745 L86.194143,262.06745 C83.161143,259.05445 80.631143,256.15545 78.267143,253.08245 Z"/>
    <rect width="3.164" height="13.51" x="79.301" y="220.343" fill="#E0CF9C" fill-rule="nonzero"/>
    <rect width="3.166" height="13.512" x="175.801" y="203.193" fill="#E0CF9C" fill-rule="nonzero"/>
    <path fill="#E0CF9C" d="M168.97114,220.05745 L163.53014,233.56645 L166.71214,233.56645 L167.84214,230.55845 L173.22314,230.55845 L174.31114,233.56645 L177.59614,233.56645 L172.21614,220.05745 L168.97114,220.05745 L168.97114,220.05745 Z M168.66814,228.34845 L170.54114,223.38845 L170.58214,223.38845 L172.39514,228.34845 L168.66814,228.34845 L168.66814,228.34845 Z"/>
    <path fill="#E0CF9C" fill-rule="nonzero" d="M78.775143 207.70445L81.840143 207.70445C81.745143 206.92445 81.518143 206.23145 81.155143 205.62445 80.792143 205.01745 80.328143 204.51545 79.763143 204.10945 79.210143 203.69445 78.580143 203.38045 77.867143 203.16545 77.170143 202.95045 76.424143 202.84145 75.631143 202.84145 74.529143 202.84145 73.535143 203.02545 72.647143 203.38945 71.776143 203.75745 71.036143 204.25945 70.432143 204.90545 69.828143 205.55145 69.366143 206.30845 69.041143 207.17745 68.719143 208.03445 68.557143 208.96645 68.557143 209.97645 68.557143 210.96145 68.719143 211.88045 69.041143 212.73945 69.365143 213.58245 69.828143 214.32145 70.432143 214.95145 71.036143 215.58445 71.776143 216.08345 72.647143 216.44745 73.536143 216.80145 74.530143 216.97645 75.631143 216.97645 76.518143 216.97645 77.331143 216.85045 78.069143 216.59945 78.809143 216.34745 79.454143 215.97945 80.007143 215.49945 80.557143 215.02245 80.998143 214.44245 81.337143 213.76045 81.671143 213.07845 81.880143 212.31745 81.959143 211.46945L78.896143 211.46945C78.776143 212.38045 78.443143 213.10945 77.891143 213.66745 77.351143 214.22245 76.599143 214.49945 75.632143 214.49945 74.920143 214.49945 74.316143 214.37045 73.819143 214.11845 73.319143 213.85245 72.919143 213.50745 72.610143 213.07845 72.299143 212.65145 72.069143 212.17045 71.922143 211.64045 71.789143 211.09845 71.720143 210.54245 71.720143 209.97545 71.720143 209.38245 71.789143 208.80945 71.922143 208.25145 72.068143 207.69945 72.299143 207.20345 72.610143 206.77645 72.919143 206.33445 73.319143 205.98745 73.819143 205.73545 74.315143 205.47045 74.920143 205.33945 75.632143 205.33945 76.023143 205.33945 76.391143 205.40245 76.739143 205.52945 77.104143 205.64145 77.425143 205.80245 77.709143 206.01845 77.989143 206.23345 78.228143 206.48545 78.415143 206.77545 78.602143 207.05545 78.723143 207.36445 78.775143 207.70445L78.775143 207.70445zM35.718143 86.836437L41.309143 86.836437C41.134143 84.872437 40.719143 83.133437 40.057143 81.611437 39.393143 80.093437 38.548143 78.824437 37.520143 77.811437 36.514143 76.767437 35.364143 75.975437 34.066143 75.436437 32.7911426 74.900437 31.4311426 74.631437 29.9851426 74.631437 27.9751426 74.631437 26.1601426 75.089437 24.5451427 76.006437 22.9531426 76.923437 21.6061426 78.191437 20.5031426 79.806437 19.3991424 81.420437 18.5541424 83.319437 17.9671424 85.507437 17.3781424 87.657437 17.0811424 90.002437 17.0811424 92.535437 17.0811424 95.004437 17.3781424 97.317437 17.9671424 99.46845 18.5531424 101.59145 19.3981424 103.44345 20.5031426 105.02745 21.6051426 106.61045 22.9531426 107.86045 24.5451427 108.78045 26.1601426 109.66545 27.9761426 110.10745 29.9851426 110.10745 31.6041426 110.10745 33.085143 109.79445 34.431143 109.15745 35.782143 108.52345 36.956143 107.60845 37.959143 106.40545 38.967143 105.20145 39.774143 103.74245 40.387143 102.03445 40.998143 100.32345 41.379143 98.409435 41.526143 96.289437L35.940143 96.289437C35.718143 98.568435 35.108143 100.40445 34.100143 101.79745 33.119143 103.19045 31.7501426 103.88645 29.9851426 103.88645 28.6871426 103.88645 27.5841426 103.57145 26.6761426 102.93745 25.7681426 102.27445 25.0361426 101.40145 24.4691427 100.32245 23.9061427 99.24745 23.4901427 98.044435 23.2221427 96.713437 22.9751426 95.354437 22.8541426 93.961437 22.8541426 92.535437 22.8541426 91.046437 22.9751426 89.605437 23.2221427 88.212437 23.4901427 86.818437 23.9061427 85.585437 24.4691427 84.505437 25.0361426 83.399437 25.7681426 82.529437 26.6761426 81.896437 27.5841426 81.229437 28.6871426 80.896437 29.9851426 80.896437 30.6961426 80.896437 31.3711426 81.055437 32.0061426 81.373437 32.6691426 81.660437 33.258143 82.071437 33.770143 82.607437 34.288143 83.147437 34.715143 83.776437 35.057143 84.505437 35.402143 85.205437 35.622143 85.981437 35.718143 86.836437L35.718143 86.836437z"/>
    <path fill="#A2860C" fill-rule="nonzero" d="M35.718143,86.836437 L35.718143,87.435437 L41.962143,87.435437 L41.904143,86.783437 C41.724143,84.767437 41.297143,82.964437 40.603143,81.373437 C39.915143,79.796437 39.029143,78.459437 37.939143,77.386437 L37.519143,77.812437 L37.951143,77.397437 C36.892143,76.297437 35.669143,75.454437 34.295143,74.884437 C32.9471427,74.317437 31.5041426,74.033437 29.9841426,74.033437 C27.8831426,74.033437 25.9561426,74.516437 24.2481427,75.486437 C22.5721426,76.451437 21.1551426,77.787437 20.0071426,79.468437 C18.8601424,81.146437 17.9891424,83.109437 17.3881424,85.352437 C16.7841424,87.557437 16.4821424,89.955437 16.4821424,92.535437 C16.4821424,95.052437 16.7851424,97.419437 17.3891424,99.62645 C17.9911424,101.80545 18.8631424,103.72245 20.0111426,105.36845 C21.1581426,107.01745 22.5751426,108.33445 24.2441427,109.29745 L24.2491427,109.30145 L24.2561427,109.30445 C25.9641426,110.24245 27.8861426,110.70645 29.9841426,110.70545 C31.6791426,110.70645 33.255143,110.37445 34.686143,109.69745 C36.114143,109.02745 37.364143,108.05145 38.417143,106.78745 C39.477143,105.52245 40.317143,103.99845 40.948143,102.23545 C41.581143,100.46445 41.971143,98.495435 42.122143,96.330437 L42.166143,95.690437 L35.395143,95.690437 L35.342143,96.231437 C35.128143,98.438435 34.542143,100.16645 33.614143,101.44645 L33.610143,101.45045 L33.610143,101.45145 C32.7151426,102.69745 31.5901426,103.27345 29.9831426,103.28645 C28.7811426,103.28445 27.8131426,102.99945 27.0171426,102.44545 L26.6751426,102.93645 L27.0281426,102.45345 C26.1991426,101.84745 25.5291426,101.05245 24.9991427,100.04345 C24.4651427,99.02344 24.0671427,97.876435 23.8091427,96.594437 L23.2231426,96.712437 L23.8121427,96.605437 C23.5721427,95.283437 23.4541427,93.926437 23.4541427,92.535437 C23.4541427,91.078437 23.5731427,89.674437 23.8121427,88.316437 L23.2231426,88.212437 L23.8101427,88.325437 C24.0681427,86.980437 24.4681427,85.803437 25.0001427,84.783437 L25.0081427,84.766437 L25.0021427,84.779437 C25.5311426,83.744437 26.1981426,82.960437 27.0181426,82.388437 L27.0221426,82.385437 L27.0291426,82.380437 C27.8251426,81.797437 28.7871426,81.498437 29.9841426,81.496437 C30.6051426,81.496437 31.1831426,81.633437 31.7381426,81.910437 L31.7541426,81.918437 L31.7681426,81.924437 C32.3581426,82.179437 32.8771427,82.542437 33.337143,83.023437 C33.807143,83.514437 34.197143,84.086437 34.515143,84.762437 L34.521143,84.772437 C34.832143,85.404437 35.036143,86.110437 35.124143,86.902437 L35.184143,87.435437 L35.719143,87.435437 L35.719143,86.836437 L36.314143,86.770437 C36.211143,85.854437 35.972143,85.008437 35.595143,84.243437 L35.058143,84.508437 L35.599143,84.254437 C35.233143,83.471437 34.767143,82.783437 34.203143,82.195437 C33.640143,81.604437 32.9811427,81.144437 32.2441426,80.826437 L32.0081426,81.375437 L32.2761426,80.839437 C31.5601426,80.481437 30.7881426,80.298437 29.9871426,80.299437 C28.5891426,80.297437 27.3421426,80.666437 26.3231426,81.416437 L26.6781426,81.898437 L26.3361426,81.407437 C25.3401426,82.101437 24.5421427,83.055437 23.9391427,84.234437 L23.9481427,84.217437 L23.9411427,84.230437 C23.3471427,85.367437 22.9131426,86.659437 22.6361426,88.101437 L22.6341426,88.110437 L22.6341426,88.110437 C22.3821426,89.540437 22.2591426,91.015437 22.2591426,92.537437 C22.2591426,93.996437 22.3821426,95.425437 22.6361426,96.821437 L22.6371426,96.829437 L22.6381426,96.832437 C22.9151426,98.212435 23.3491427,99.47145 23.9411427,100.60145 C24.5451427,101.75145 25.3381426,102.70145 26.3251426,103.42145 L26.3301426,103.42545 L26.3351426,103.42945 C27.3541426,104.14145 28.5931426,104.48745 29.9861426,104.48545 C31.9081426,104.49945 33.521143,103.68245 34.590143,102.14245 L34.101143,101.79745 L34.587143,102.14845 C35.673143,100.64445 36.308143,98.698435 36.536143,96.346437 L35.940143,96.289437 L35.940143,96.887437 L41.526143,96.887437 L41.526143,96.289437 L40.929143,96.247437 C40.785143,98.321435 40.413143,100.18145 39.824143,101.83145 C39.231143,103.48445 38.457143,104.87845 37.501143,106.01945 C36.548143,107.16245 35.446143,108.01745 34.178143,108.61445 C32.9141427,109.21145 31.5281426,109.50845 29.9861426,109.50845 C28.0631426,109.50845 26.3561426,109.08845 24.8331427,108.25445 L24.5451427,108.77945 L24.8441427,108.26045 C23.3291426,107.38545 22.0521426,106.20045 20.9951426,104.68345 C19.9331426,103.16245 19.1171424,101.37545 18.5451424,99.30845 C17.9711424,97.215437 17.6801424,94.956437 17.6801424,92.535437 C17.6801424,90.048437 17.9711424,87.758437 18.5451424,85.665437 C19.1181424,83.528437 19.9371426,81.694437 20.9971426,80.144437 C22.0551426,78.595437 23.3331426,77.395437 24.8441427,76.525437 C26.3631426,75.665437 28.0671426,75.231437 29.9861426,75.230437 C31.3591426,75.230437 32.6341426,75.483437 33.836143,75.988437 C35.059143,76.497437 36.137143,77.238437 37.090143,78.226437 L37.094143,78.230437 L37.102143,78.238437 C38.069143,79.190437 38.873143,80.391437 39.510143,81.851437 C40.141143,83.302437 40.545143,84.976437 40.715143,86.889437 L41.311143,86.836437 L41.311143,86.237437 L35.720143,86.237437 L35.720143,86.836437 L36.315143,86.770437 L35.718143,86.836437 L35.718143,86.836437 Z"/>
    <polygon fill="#E0CF9C" fill-rule="nonzero" points="217.197 83.473 230.604 83.473 230.604 76.846 211.098 76.846 211.098 112.692 217.197 112.692 217.197 97.88 228.816 97.88 228.816 91.757 217.197 91.757"/>
    <polygon fill="#A2860C" fill-rule="nonzero" points="211.098 76.846 210.499 76.846 210.499 113.291 217.795 113.291 217.795 98.478 229.414 98.478 229.414 91.159 217.795 91.159 217.795 84.071 231.202 84.071 231.202 76.246 210.499 76.246 210.499 76.846 211.098 76.846 211.098 77.444 230.006 77.444 230.006 82.874 216.598 82.874 216.598 92.356 228.217 92.356 228.217 97.281 216.598 97.281 216.598 112.094 211.696 112.094 211.696 76.846 211.098 76.846 211.098 77.444"/>
    <path fill="#A2860C" fill-rule="nonzero" d="M70.803143,114.46845 L70.803143,91.934437 L68.044143,91.934437 L68.044143,81.589437 L77.470143,82.393437 L77.239143,75.495437 L88.391143,66.531437 L88.044143,63.654437 L96.092143,58.252437 L98.045143,56.986437 L90.918143,55.032437 L92.643143,54.462437 L84.595143,53.196437 L86.205143,52.161437 L81.146143,51.126437 L83.792143,50.092437 L78.042143,48.599437 L79.536143,46.530437 L74.252143,45.841437 L76.088143,44.575437 L72.411143,42.907437 C78.346143,41.162437 84.036143,41.219437 89.482143,43.079437 L104.886143,52.393437 L114.024143,46.471437 L111.781143,45.551437 L109.599143,38.136437 L111.436143,25.147437 L111.355143,23.566437 C112.828143,22.112437 114.599143,20.978437 117.039143,20.118437 C118.353143,19.655437 122.462143,19.161437 123.37614,19.326437 C125.19314,19.652437 131.89814,22.563437 131.89814,22.563437 L132.12814,23.997437 L134.14014,26.183437 L137.99214,40.035437 L137.42014,43.486437 L133.79614,46.245437 L140.75114,49.290437 L144.14314,49.808437 L146.54114,50.462437 L147.64914,52.566437 L164.56614,63.235437 L165.40814,66.817437 L166.90414,66.935437 L170.86914,70.901437 L171.04114,75.382437 L171.61714,76.707437 L177.02114,80.211437 L178.05214,80.900437 L184.03114,80.557437 L184.03114,90.441437 L180.92714,90.441437 L180.92714,114.58345 L180.92714,118.52845 L70.917143,118.52845 L70.803143,114.46845 Z"/>
    <polygon fill="#E0CF9C" fill-rule="nonzero" points="69.02 82.624 69.02 90.841 126.957 92.109 182.766 89.519 182.999 89.519 182.999 81.475 130.291 87.051 126.727 89.519 122.991 87.393"/>
    <polygon fill="#E0CF9C" fill-rule="nonzero" points="179.987 117.729 71.797 117.729 71.854 91.04 71.854 91.876 126.901 92.854 179.987 90.498"/>
    <path fill="#E0CF9C" fill-rule="nonzero" d="M78.965143,82.509437 L102.069143,84.520437 C102.069143,84.520437 102.011143,82.912437 103.448143,82.104437 C104.887143,81.300437 106.610143,79.691437 106.610143,79.691437 L106.439143,75.726437 L103.104143,69.631437 C103.104143,69.631437 107.127143,73.313437 107.358143,73.540437 C107.586143,73.771437 107.760143,78.830437 107.760143,78.830437 C107.760143,78.830437 111.152143,80.036437 111.379143,80.494437 C111.611143,80.956437 116.438143,80.323437 116.438143,80.323437 L118.739143,79.519437 C118.739143,79.519437 115.520143,77.623437 113.509143,75.669437 C111.498143,73.715437 110.865143,71.873437 109.657143,70.379437 C108.449143,68.886437 106.264143,66.530437 106.264143,66.530437 L105.000143,63.596437 L96.781143,59.977437 L89.787143,64.054437 L89.992143,67.041437 L78.906143,75.837437 L78.965143,82.509437 L78.965143,82.509437 Z"/>
    <path fill="#A2860C" fill-rule="nonzero" d="M90.229143,79.866437 C90.229143,79.866437 96.092143,75.612437 97.643143,75.727437 C98.089143,75.761437 98.832143,75.780437 99.663143,75.790437 L100.503143,76.653437 C98.681143,77.070437 96.754143,77.513437 96.093143,77.681437 C94.712143,78.026437 90.229143,79.866437 90.229143,79.866437 L90.229143,79.866437 Z"/>
    <path fill="#E0CF9C" d="M99.137143,57.220437 L104.772143,60.723437 L103.793143,60.783437 L106.553143,62.737437 L105.460143,62.622437 L109.255143,66.933437 L112.931143,72.622437 L116.035143,76.475437 L120.059143,79.748437 L123.56414,84.750437 L124.42714,86.013437 C124.42714,86.013437 121.325143,80.150437 120.747143,78.831437 C120.175143,77.509437 116.323143,70.380437 115.000143,67.796437 C113.677143,65.206437 108.794143,58.654437 108.794143,58.654437 L104.137143,52.675437 L96.894143,48.364437 L89.482143,43.825437 C85.915143,42.107437 77.761143,41.921437 75.058143,43.133437 L77.697143,44.573437 L75.630143,45.549437 L80.801143,46.007437 L78.965143,48.195437 L85.919143,49.859437 L82.930143,50.954437 L88.217143,51.642437 L86.262143,52.733437 L94.657143,53.940437 L92.989143,54.919437 L99.370143,56.356437 L99.137143,57.220437 L99.137143,57.220437 Z"/>
    <path fill="#E0CF9C" fill-rule="nonzero" d="M106.954143,84.922437 L109.484143,81.418437 C109.484143,81.418437 110.920143,81.646437 113.218143,81.590437 C115.519143,81.533437 117.128143,81.188437 117.128143,81.188437 L118.850143,80.898437 L123.10514,85.670437 L121.150143,86.072437 L119.484143,85.670437 L110.172143,85.209437 L106.954143,84.922437 L106.954143,84.922437 Z"/>
    <path fill="#E0CF9C" d="M106.370143,53.240437 L116.671143,67.762437 L125.17614,86.590437 L126.32214,87.911437 L128.73814,86.013437 L131.89814,76.475437 L132.53114,74.867437 L132.24614,78.196437 L136.38314,75.958437 L140.46114,69.926437 L138.50614,75.181437 L142.41814,74.767437 L133.10714,78.831437 L131.38214,82.163437 C131.38214,82.163437 137.76114,79.346437 139.08514,79.177437 C139.26514,79.152437 147.67314,82.241437 149.31414,83.775437 C150.17714,84.579437 175.64014,81.129437 175.64014,81.129437 L168.62614,76.014437 C168.62614,76.014437 166.27114,73.542437 162.19014,73.542437 C158.10814,73.542437 154.97114,76.931437 155.08514,76.931437 L149.94614,75.671437 L154.37214,75.035437 L161.03914,72.336437 L168.88814,70.958437 L165.90214,67.660437 L156.72914,67.392437 L151.03914,72.335437 L154.66014,66.301437 L162.70914,63.252437 L147.36114,53.963437 L141.98614,56.672437 L143.10714,52.994437 L146.67014,52.448437 L145.20014,50.973437 L141.84114,50.319437 L139.32714,51.076437 L139.32714,49.533437 L136.03614,48.080437 L132.32514,46.855437 L133.04814,49.629437 L131.55214,57.908437 C131.55214,57.908437 125.69314,68.887437 125.74914,68.767437 C125.69214,68.827437 125.86214,72.850437 125.97814,72.910437 C126.19214,73.014437 122.761143,66.009437 122.761143,66.009437 L114.024143,53.076437 L115.519143,53.768437 L115.632143,46.929437 L115.748143,45.605437 L114.403143,47.163437 L109.872143,50.767437 L106.370143,53.240437 L106.370143,53.240437 Z"/>
    <polygon fill="#A2860C" fill-rule="nonzero" points="111.746 54.19 114.621 62.298 111.803 58.847 111 55.686 109.448 53.732 108.469 52.869 112.436 50.341 114.161 48.729"/>
    <polygon fill="#A2860C" fill-rule="nonzero" points="131.614 67.16 137.59 54.462 130.118 66.703 129.025 72.796 126.323 80.093 121.037 70.611 118.508 67.22 123.508 77.223 124.715 80.897 126.209 83.544 130.752 72.911"/>
    <polygon fill="#A2860C" fill-rule="nonzero" points="137.993 63.027 134.83 69.863 136.383 61.699 141.209 57.276"/>
    <path fill="#A2860C" fill-rule="nonzero" d="M145.34914,65.783437 C145.69614,65.322437 151.90114,61.011437 151.90114,61.011437 L154.57314,61.132437 L156.01614,61.996437 L145.34914,65.783437 Z"/>
    <path fill="#E0CF9C" fill-rule="nonzero" d="M130.51914,85.611437 C130.51914,85.611437 133.79614,82.509437 137.24514,81.128437 C137.24514,81.128437 140.12014,81.820437 142.07414,82.740437 C144.02814,83.656437 144.94714,84.635437 144.94714,84.635437 L130.51914,85.611437 L130.51914,85.611437 Z"/>
    <path fill="#A2860C" fill-rule="nonzero" d="M91.157143,67.151437 C92.577143,67.151437 100.698143,69.046437 100.698143,69.046437 C100.698143,69.046437 91.272143,64.392437 91.272143,64.218437 C91.272143,64.218437 91.039143,67.151437 91.157143,67.151437 L91.157143,67.151437 Z"/>
    <polygon fill="#A2860C" fill-rule="nonzero" points="134.487 55.78 131.268 62.503 133.738 54.462 138.814 51.18"/>
    <polygon fill="#A2860C" fill-rule="nonzero" points="118.508 76.761 106.899 60.381 101.608 56.412 102.932 56.241 101.646 54.711 95.688 53.078 99.102 53.189 96.686 51.878 91.494 51.011 93.879 50.35 88.494 47.423 84.137 46.756 85.975 46.067 84.942 45.494 102.588 53.885 107.817 59.978 114.483 70.611"/>
    <path fill="#E0CF9C" fill-rule="nonzero" d="M130.98014,38.508437 C129.48614,44.343437 125.59014,44.356437 125.59014,44.356437 L128.96914,44.630437 L129.37114,56.356437 L125.34914,64.576437 L116.553143,53.483437 L119.026143,43.997437 C119.026143,43.997437 116.438143,40.609437 115.750143,35.550437 C114.959143,29.743437 117.158143,26.554437 117.158143,26.554437 L123.56514,27.043437 L119.946143,27.904437 C119.946143,27.904437 122.462143,28.362437 125.80614,28.362437 C126.09414,28.362437 130.86614,26.956437 130.86614,26.956437 C130.86614,26.956437 132.41614,32.904437 130.98014,38.508437 L130.98014,38.508437 Z"/>
    <path fill="#E0CF9C" fill-rule="nonzero" d="M112.184143,24.420437 C112.945143,22.709437 115.002143,21.382437 118.357143,20.441437 C119.173143,20.212437 122.757143,19.835437 124.43314,20.353437 C127.11414,21.046437 129.10714,21.853437 130.41214,22.772437 C126.95014,23.941437 122.595143,24.668437 118.623143,24.762437 L121.150143,23.325437 L114.712143,25.569437 L112.759143,28.611437 L112.184143,24.420437 L112.184143,24.420437 Z"/>
    <polygon fill="#E0CF9C" fill-rule="nonzero" points="114.256 41.987 115.289 43.711 111.955 42.445 110.346 37.561 112.482 31.794 112.975 32.757 112.731 36.884 111.84 36.641"/>
    <polygon fill="#E0CF9C" fill-rule="nonzero" points="134.889 35.722 134.543 33.078 133.049 40.722 135.063 38.424 135.004 42.333 136.496 39.861 135.465 34.803"/>
    <path fill="#A2860C" fill-rule="nonzero" d="M120.577143,39.543437 C120.577143,39.543437 122.012143,39.085437 123.16414,38.911437 C124.31114,38.739437 126.61214,39.487437 126.61214,39.487437 C125.69414,41.039437 122.129143,41.267437 120.577143,39.543437 L120.577143,39.543437 Z"/>
    <polygon fill="#A2860C" fill-rule="nonzero" points="122.071 37.043 122.071 36.498 122.732 36.757 123.221 37.302"/>
    <path fill="#A2860C" fill-rule="nonzero" d="M130.39314 30.952437L128.95314 31.495437C128.84514 31.514437 128.71814 31.551437 128.58514 31.598437L129.25314 31.670437C128.73514 32.131437 127.73014 32.570437 126.78214 32.645437L125.66914 31.928437 125.94214 31.813437 125.91114 31.785437 125.23414 31.728437 125.69514 30.921437 128.79314 30.550437 130.39314 30.952437 130.39314 30.952437zM122.301143 31.815437L122.357143 33.365437 121.354143 32.096437 120.692143 32.673437C120.692143 32.673437 119.176143 32.857437 118.191143 32.644437 117.588143 32.517437 117.551143 32.049437 117.569143 31.822437L116.897143 31.641437 118.268143 31.520437C117.837143 31.370437 116.438143 31.036437 116.438143 31.036437L118.133143 30.634437 121.870143 30.980437 122.328143 31.813437 122.301143 31.815437 122.301143 31.815437z"/>
    <polygon fill="#A2860C" fill-rule="nonzero" points="87.235 70.845 90.03 69.149 95.959 69.053 102.514 74.555"/>
    <polygon fill="#A2860C" fill-rule="nonzero" points="70.475 85.274 70.424 84.554 122.383 88.248 123.067 89.017"/>
    <polygon fill="#A2860C" fill-rule="nonzero" points="123.651 89.675 124.349 90.461 70.373 87.696 70.322 87.022"/>
    <polygon fill="#A2860C" fill-rule="nonzero" points="124.768 90.931 125.481 91.729 70.526 89.909 70.322 88.98"/>
    <polygon fill="#A2860C" fill-rule="nonzero" points="130.987 88.799 131.522 88.026 181.769 83.279 181.507 84.242"/>
    <polygon fill="#A2860C" fill-rule="nonzero" points="130.219 89.909 130.77 89.111 181.911 85.751 181.817 86.561"/>
    <polygon fill="#A2860C" fill-rule="nonzero" points="129.231 91.34 129.791 90.529 181.948 87.705 181.766 88.634"/>
    <polygon fill="#006935" fill-rule="nonzero" points="89.308 110.392 80.297 110.392 80.297 106.544 88.396 106.544 88.396 103.864 80.297 103.864 80.297 100.501 89.121 100.501 89.121 97.599 76.621 97.599 76.621 113.29 89.308 113.29"/>
    <polygon fill="#006935" fill-rule="nonzero" points="109.303 110.392 101.157 110.392 101.157 97.599 97.482 97.599 97.482 113.29 109.303 113.29"/>
    <path fill="#006935" fill-rule="nonzero" d="M128.19714,102.87345 L131.75614,102.87345 C131.64414,101.96745 131.38114,101.16145 130.96014,100.45745 C130.53814,99.75345 129.99914,99.16745 129.34514,98.699435 C128.70414,98.216435 127.96914,97.848435 127.14314,97.599437 C126.33114,97.349437 125.46714,97.225437 124.54614,97.225437 C123.26514,97.225437 122.108143,97.439437 121.080143,97.863435 C120.065143,98.288435 119.206143,98.873435 118.506143,99.62145 C117.803143,100.36645 117.263143,101.24645 116.891143,102.25845 C116.517143,103.25545 116.328143,104.34145 116.328143,105.50945 C116.328143,106.65345 116.517143,107.72345 116.891143,108.72045 C117.263143,109.69945 117.803143,110.55945 118.506143,111.28845 C119.206143,112.02145 120.066143,112.60145 121.080143,113.02745 C122.108143,113.43545 123.26514,113.64145 124.54614,113.64145 C125.57514,113.64145 126.51914,113.49545 127.37814,113.20245 C128.23414,112.90845 128.98514,112.48545 129.62414,111.92745 C130.26414,111.37345 130.78014,110.69945 131.16714,109.90545 C131.56014,109.11645 131.80014,108.23145 131.89614,107.24945 L128.33714,107.24945 C128.19714,108.30345 127.80814,109.15145 127.16514,109.79645 C126.54414,110.44245 125.66914,110.76545 124.54614,110.76545 C123.71714,110.76545 123.01714,110.61745 122.439143,110.32745 C121.863143,110.01745 121.392143,109.61645 121.034143,109.11745 C120.675143,108.61945 120.410143,108.06045 120.236143,107.44745 C120.085143,106.81645 120.004143,106.17245 120.004143,105.51045 C120.004143,104.82245 120.085143,104.15545 120.236143,103.51245 C120.410143,102.86745 120.674143,102.29645 121.034143,101.79845 C121.392143,101.28345 121.863143,100.88145 122.439143,100.58945 C123.01714,100.28245 123.71714,100.12745 124.54614,100.12745 C124.99914,100.12745 125.42514,100.19945 125.83514,100.34845 C126.25314,100.48045 126.62814,100.66945 126.95614,100.91945 C127.28414,101.16845 127.55814,101.46145 127.77414,101.79845 C127.99414,102.11945 128.13314,102.48145 128.19714,102.87345 Z"/>
    <polygon fill="#006935" fill-rule="nonzero" points="143.766 106.52 150.532 106.52 150.532 113.29 154.205 113.29 154.205 97.599 150.532 97.599 150.532 103.621 143.766 103.621 143.766 97.599 140.092 97.599 140.092 113.29 143.766 113.29"/>
    <polygon fill="#006935" fill-rule="nonzero" points="175.816 110.392 166.803 110.392 166.803 106.544 174.901 106.544 174.901 103.864 166.803 103.864 166.803 100.501 175.625 100.501 175.625 97.599 163.127 97.599 163.127 113.29 175.816 113.29"/>
    <path fill="#E0CF9C" fill-rule="nonzero" d="M112.194143,138.55945 L112.194143,133.56945 L116.205143,133.56945 L116.205143,135.50145 L118.097143,135.50145 L118.097143,133.56945 L122.140143,133.56945 L122.140143,135.50145 L124.00114,135.50145 L124.00114,133.56945 L128.01614,133.56945 L128.01614,135.50145 L129.87814,135.50145 L129.87814,133.56945 L133.89114,133.56945 L133.89114,135.50145 L135.75514,135.50145 L135.75514,133.56945 L139.76714,133.56945 L139.76714,138.55945 L137.28414,138.55945 L137.28414,143.98345 L142.09014,143.98345 L142.09014,147.88545 L145.85414,147.88545 L145.85414,143.98345 L153.96714,143.98345 L153.96714,151.43545 L98.238143,151.43545 L98.238143,143.98345 L106.349143,143.98345 L106.349143,147.88545 L110.171143,147.88545 L110.171143,143.98345 L115.288143,143.98345 L115.288143,138.55945 L112.194143,138.55945 L112.194143,138.55945 Z M107.717143,151.56745 L144.85014,151.44845 C146.63914,164.43145 154.48214,171.80345 168.38514,174.50945 L168.38514,186.45345 L83.711143,186.45345 L83.711143,174.86445 C99.420143,170.62845 107.423143,162.86345 107.717143,151.56745 Z M135.15714,172.75045 C135.15714,172.75045 134.62714,166.79545 127.18214,166.79545 C119.737143,166.79545 119.015143,173.38745 119.015143,173.38745 L119.012143,182.00645 L135.03914,182.00645 L135.15714,172.75045 Z"/>
    <polygon fill="#A2860C" fill-rule="nonzero" points="137.961 144.679 137.961 137.879 114.608 137.879 114.608 138.559 115.287 138.559 115.287 139.239 136.602 139.239 136.602 143.318 133.298 143.318 133.298 147.222 130.891 147.222 130.891 143.318 121.421 143.318 121.421 147.222 119.017 147.222 119.017 143.318 115.967 143.318 115.967 138.559 115.287 138.559 115.287 139.239 115.287 138.559 114.608 138.559 114.608 144.679 117.657 144.679 117.659 148.582 122.781 148.582 122.781 144.679 129.532 144.679 129.532 148.582 134.657 148.582 134.657 144.679"/>
    <polygon fill="#A2860C" fill-rule="nonzero" points="112.194 138.559 112.862 138.559 112.862 134.237 115.536 134.237 115.536 135.501 115.536 136.17 118.764 136.17 118.764 134.238 121.471 134.238 121.471 135.501 121.471 136.17 124.668 136.17 124.668 134.238 127.347 134.238 127.347 135.501 127.347 136.17 130.545 136.17 130.545 134.237 133.223 134.237 133.223 135.501 133.223 136.17 136.422 136.17 136.422 134.237 139.096 134.237 139.096 137.891 112.194 137.891 112.194 138.559 112.862 138.559 112.194 138.559 112.194 139.227 140.434 139.227 140.434 132.901 135.086 132.901 135.086 134.833 134.559 134.833 134.559 133.569 134.559 132.901 129.209 132.901 129.209 134.833 128.683 134.833 128.683 133.569 128.683 132.901 123.332 132.901 123.332 134.833 122.807 134.833 122.807 133.569 122.807 132.901 117.428 132.901 117.428 134.833 116.872 134.833 116.872 133.569 116.872 132.901 111.526 132.901 111.526 139.227 112.194 139.227"/>
    <path fill="#C4014B" fill-rule="nonzero" d="M134.48714,181.73045 L134.48714,181.39345 L119.466143,181.39345 L119.466143,173.49345 L119.129143,173.49345 L119.464143,173.53745 C119.729143,171.52745 120.723143,170.04545 122.092143,169.04245 C123.46014,168.04145 125.21314,167.53245 126.96114,167.53245 C128.70814,167.53245 130.44414,168.04145 131.78014,169.04045 C133.11714,170.04145 134.06414,171.51945 134.27114,173.52745 L134.60714,173.49345 L134.27014,173.48745 L134.14814,181.72545 L134.48714,181.73045 L134.48714,181.39345 L134.48714,181.73045 L134.82414,181.73545 L134.94614,173.47745 L134.94514,173.45745 C134.72314,171.26845 133.65914,169.59645 132.18414,168.49845 C130.71114,167.39745 128.83814,166.85745 126.96114,166.85645 C125.08314,166.85645 123.19514,167.39745 121.692143,168.49545 C120.189143,169.59245 119.080143,171.25945 118.793143,173.44745 L118.791143,173.47045 L118.791143,182.06645 L134.81814,182.06645 L134.82314,181.73445 L134.48714,181.73045 L134.48714,181.73045 Z"/>
    <polygon fill="#A2860C" fill-rule="nonzero" points="105.668 148.565 110.85 148.565 110.85 144.663 117.657 144.663 117.659 148.565 122.781 148.565 122.781 144.663 129.532 144.663 129.532 148.565 134.657 148.565 134.657 144.663 141.408 144.663 141.409 148.565 146.532 148.565 146.532 144.663 153.285 144.663 153.285 150.756 98.237 150.756 98.237 151.435 98.916 151.435 98.237 151.435 98.237 152.116 154.645 152.116 154.645 143.304 145.172 143.304 145.172 147.205 142.768 147.205 142.768 143.304 133.298 143.304 133.298 147.205 130.891 147.205 130.891 143.304 121.421 143.304 121.421 147.205 119.017 147.205 119.017 143.304 109.491 143.304 109.491 147.205 107.028 147.205 107.028 143.304 97.557 143.304 97.557 152.116 98.237 152.116 98.237 151.435 98.916 151.435 98.916 144.663 105.668 144.663"/>
    <path fill="#A2860C" fill-rule="nonzero" d="M145.56714,176.26045 L160.64414,176.26045 L160.64414,172.95145 L159.72314,172.57045 L145.56714,172.57045 L145.56714,176.26045 Z M162.00614,176.26045 L167.70514,176.26045 L167.70514,175.01945 C165.68114,174.60245 163.78014,174.08445 162.00614,173.46045 L162.00614,176.26045 Z M167.70514,177.67145 L153.28314,177.67145 L153.28314,181.49245 L167.70514,181.49245 L167.70514,177.67145 Z M153.61014,171.15945 L156.86014,171.15945 C155.70214,170.50945 154.61814,169.79445 153.61014,169.01345 L153.61014,171.15945 Z M147.41614,165.97545 L150.36314,165.97545 C149.36314,164.84245 148.47714,163.61345 147.70514,162.28645 L147.41614,162.28645 L147.41614,165.97545 Z M136.53514,167.37845 L136.31114,167.38045 L136.53514,167.37845 Z M134.96314,165.97545 L146.05514,165.97545 L146.05514,162.28645 L132.12914,162.28645 L135.27914,163.56745 L134.14314,165.12345 L134.96314,165.97545 L134.96314,165.97545 Z M128.79114,162.28645 L127.50914,162.28645 L127.50914,163.15245 L128.56114,163.15545 L128.79114,162.28645 L128.79114,162.28645 Z M126.14714,163.14745 L126.14714,162.28645 L124.47914,162.28645 L124.78214,163.14345 L126.14714,163.14745 L126.14714,163.14745 Z M121.745143,162.28645 L107.705143,162.28645 L107.705143,165.97545 L118.764143,165.97545 L119.336143,165.33845 L118.201143,164.12945 L121.745143,162.28645 L121.745143,162.28645 Z M117.493143,167.38745 L116.756143,167.38745 L116.724143,168.21745 L115.363143,168.21745 L115.362143,167.95145 L115.362143,167.38745 L100.777143,167.38745 C99.599143,168.39245 98.289143,169.33145 96.845143,170.20545 L96.845143,171.15945 L114.185143,171.15945 L115.362143,167.95145 L115.363143,168.21745 L116.724143,168.21745 L116.724143,167.38745 L117.312143,167.59045 L117.493143,167.38745 L117.493143,167.38745 Z M115.901143,172.57045 L105.899143,172.57045 L105.899143,176.25945 L113.618143,176.25945 L113.618143,175.16845 L115.931143,175.16845 L115.901143,172.57045 L115.901143,172.57045 Z M113.618143,177.67145 L99.819143,177.67145 L99.819143,181.49245 L115.902143,181.49245 L115.907143,179.93245 L113.618143,179.93445 L113.618143,177.67145 L113.618143,177.67145 Z M117.045143,181.49245 L118.305143,181.49245 L118.305143,180.01345 L117.045143,180.02145 L117.045143,181.49245 Z M119.445143,181.49245 L134.47314,181.49245 L134.47314,173.60545 C134.47314,172.78945 133.63014,167.47645 126.83514,167.47645 C120.040143,167.47645 119.444143,173.61945 119.444143,173.61945 L119.444143,181.49245 L119.445143,181.49245 Z M135.52514,181.49245 L136.82514,181.49245 L136.82514,179.81345 L135.52514,179.81345 L135.52514,181.49245 Z M137.95714,181.49245 L151.92214,181.49245 L151.92214,177.67145 L140.25614,177.67145 L140.25614,179.69145 L137.95714,179.69145 L137.95714,181.49245 L137.95714,181.49245 Z M144.20414,172.57045 L137.92714,172.56945 L137.92714,171.81345 L139.82314,171.18045 L152.24914,171.15945 L152.24914,167.87745 L151.72114,167.38745 L138.15614,167.36745 L139.81414,171.15945 L137.92814,171.81345 L137.92814,172.56945 L137.92814,174.93545 L140.25714,174.93545 L140.25714,176.25945 L144.20514,176.25945 L144.20514,172.57045 L144.20414,172.57045 Z M162.23914,182.90345 L162.23914,185.72445 L167.70614,185.72445 L167.70614,182.90345 L162.23914,182.90345 Z M160.87714,185.72545 L160.87714,182.90445 L140.83814,182.90445 L140.83814,185.72545 L160.87714,185.72545 Z M102.473143,185.72545 L113.261143,185.72545 L113.261143,187.03945 L119.445143,187.03945 L119.445143,185.72545 L134.47314,185.72545 L134.473143,182.90445 L119.445143,182.90445 L119.445143,185.72545 L119.445143,187.03945 L113.261143,187.03945 L113.261143,185.72545 L113.261143,182.90445 L102.473143,182.90445 L102.473143,185.72545 L102.473143,185.72545 Z M114.437143,185.72545 L118.305143,185.72545 L118.305143,183.10645 L114.444143,183.10645 L114.437143,185.72545 L114.437143,185.72545 Z M135.47714,185.72545 L139.69614,185.72545 L139.69614,183.17745 L135.47714,183.15145 L135.47714,185.72545 Z M84.391143,181.49245 L98.457143,181.49245 L98.457143,177.67145 L84.391143,177.67145 L84.391143,181.49245 L84.391143,181.49245 Z M101.111143,182.90345 L84.391143,182.90345 L84.391143,185.72445 L101.111143,185.72445 L101.111143,182.90345 Z M84.391143,176.26045 L84.672143,176.26045 L84.672143,175.25645 L84.391143,175.33445 L84.391143,176.26045 Z M86.034143,176.26045 L104.538143,176.26045 L104.538143,172.57145 L92.258143,172.57145 C90.346143,173.41445 88.275143,174.17545 86.033143,174.85745 L86.033143,176.26045 L86.034143,176.26045 Z M95.170143,171.15945 L95.483143,171.15945 L95.483143,170.99045 L95.170143,171.15945 Z M102.299143,165.97545 L106.344143,165.97545 L106.344143,162.28645 L105.251143,162.28645 C104.428143,163.59345 103.443143,164.82345 102.299143,165.97545 Z M106.064143,160.87545 L117.155143,160.87545 L117.155143,157.18545 L107.546143,157.18545 C107.172143,158.47045 106.678143,159.70045 106.064143,160.87545 Z M118.516143,160.87545 L136.99514,160.87545 L136.99514,157.18545 L118.516143,157.18545 L118.516143,160.87545 L118.516143,160.87545 Z M138.35714,160.87545 L146.94714,160.87545 C146.37014,159.71245 145.87114,158.48245 145.45214,157.18545 L138.35714,157.18545 L138.35714,160.87545 Z M107.901143,155.77445 L125.99014,155.77445 L125.99014,152.08045 L108.378143,152.08045 C108.317143,153.35245 108.159143,154.58545 107.901143,155.77445 L107.901143,155.77445 Z M127.35114,155.77445 L145.03414,155.77445 C144.71614,154.59445 144.45914,153.36345 144.26314,152.08045 L127.35214,152.08045 L127.35214,155.77445 L127.35114,155.77445 Z M105.994143,150.72045 L145.44114,150.72045 L145.52314,151.30745 C146.40514,157.68645 148.74814,162.60845 152.54614,166.29645 C154.56714,168.25745 157.01514,169.87345 159.89214,171.15945 C162.42914,172.29245 165.29814,173.16745 168.51314,173.79345 L169.06414,173.90045 L169.06414,187.08545 L83.031143,187.08545 L83.031143,174.29545 L83.533143,174.15945 C91.317143,172.06145 97.138143,169.09645 101.020143,165.32745 C104.833143,161.61745 106.818143,157.14945 107.027143,151.78445 L105.994143,150.72045 L105.994143,150.72045 Z M139.11414,178.55845 L139.11414,176.07945 L135.59114,176.07945 L135.54414,178.55845 L139.11414,178.55845 Z M136.78014,174.93645 L136.83314,172.29045 L135.48114,172.70145 C135.48114,172.70145 135.61414,173.29945 135.60914,173.54545 L135.59014,174.93745 L136.78014,174.93745 L136.78014,174.93645 Z M137.30114,168.26645 L135.45614,169.12045 L134.25214,169.75745 C134.64314,170.31845 134.93214,170.88845 135.16914,171.52145 L138.27514,170.49845 L137.30114,168.26645 L137.30114,168.26645 Z M133.48314,166.02945 L132.23114,167.74445 C132.76414,168.11845 133.00214,168.32945 133.44614,168.78945 L135.26814,167.93145 L133.48314,166.02945 L133.48314,166.02945 Z M131.13114,167.14045 L132.51214,165.42045 L133.49414,164.07545 L129.87514,162.61545 L129.79514,163.16145 L129.05914,166.55945 C129.81114,166.68645 130.40114,166.88045 131.13114,167.14045 L131.13114,167.14045 Z M127.66214,166.35445 L128.24014,164.29245 L125.28414,164.27645 L125.99814,166.39545 C126.69514,166.33145 127.05314,166.33345 127.66214,166.35445 Z M124.78714,166.59245 L123.41614,162.71045 L120.066143,164.44745 L122.754143,167.31145 C123.58214,166.93645 123.76414,166.84145 124.78714,166.59245 Z M120.032143,166.14045 L118.466143,168.01145 L120.602143,168.79245 C120.956143,168.44545 121.261143,168.22445 121.675143,167.93345 L120.032143,166.14045 L120.032143,166.14045 Z M116.388143,168.47045 L115.565143,170.71145 L118.728143,171.75545 C118.952143,171.07545 119.225143,170.48245 119.705143,169.83245 L117.457143,168.85945 L116.388143,168.47045 Z M118.399143,172.91945 L117.043143,172.49745 L117.094143,175.17145 L118.306143,175.17145 L118.306143,173.51445 L118.399143,172.91945 L118.399143,172.91945 Z M118.303143,176.31145 L114.764143,176.31145 L114.760143,178.79145 L118.303143,178.79145 L118.303143,176.31145 Z"/>
    <path fill="#E0CF9C" d="M124.681143,202.49745 L165.05614,217.87245 L165.68114,218.74745 L156.05614,218.74745 L156.05614,231.62245 L160.93114,231.62245 L160.93114,239.87245 L155.80614,239.87245 L155.68114,243.24745 L160.80614,243.24745 L160.80614,247.12245 L88.431143,247.12245 L88.431143,243.49745 L93.181143,243.49745 L93.181143,239.74745 L88.681143,239.74745 L88.681143,231.49745 L93.556143,231.49745 L93.556143,218.87245 L82.181143,218.87245 L82.181143,218.37245 L124.681143,202.49745 Z M107.306143,239.62245 L107.306143,243.24745 L142.18114,243.24745 L142.18114,239.62245 L107.306143,239.62245 L107.306143,239.62245 Z"/>
    <path fill="#A2860C" fill-rule="nonzero" d="M98.221143,232.03845 L98.221143,238.76545 L101.123143,238.76545 L101.123143,232.03845 L98.221143,232.03845 Z M96.866143,238.76545 L96.866143,232.03845 L93.964143,232.03845 L93.964143,238.76545 L96.866143,238.76545 Z M102.477143,232.03845 L102.477143,238.76545 L105.379143,238.76545 L105.379143,232.03845 L102.477143,232.03845 Z M106.735143,232.03845 L106.735143,238.76545 L109.637143,238.76545 L109.637143,232.03845 L106.735143,232.03845 Z M110.991143,232.03845 L110.991143,238.76545 L113.893143,238.76545 L113.893143,232.03845 L110.991143,232.03845 Z M115.248143,232.03845 L115.248143,238.76545 L118.150143,238.76545 L118.150143,232.03845 L115.248143,232.03845 Z M119.504143,232.03845 L119.504143,238.76545 L122.406143,238.76545 L122.406143,232.03845 L119.504143,232.03845 Z M123.76214,232.03845 L123.76214,238.76545 L126.66414,238.76545 L126.66414,232.03845 L123.76214,232.03845 Z M128.01814,232.03845 L128.01814,238.76545 L130.92014,238.76545 L130.92014,232.03845 L128.01814,232.03845 Z M132.27614,232.03845 L132.27614,238.76545 L135.17814,238.76545 L135.17814,232.03845 L132.27614,232.03845 Z M136.53214,232.03845 L136.53214,238.76545 L139.43414,238.76545 L139.43414,232.03845 L136.53214,232.03845 Z M140.78914,232.03845 L140.78914,238.76545 L143.69114,238.76545 L143.69114,232.03845 L140.78914,232.03845 Z M145.04514,232.03845 L145.04514,238.76545 L147.94714,238.76545 L147.94714,232.03845 L145.04514,232.03845 Z M149.30314,232.03845 L149.30314,238.76545 L152.20514,238.76545 L152.20514,232.03845 L149.30314,232.03845 Z M153.55914,232.03845 L153.55914,238.76545 L156.46114,238.76545 L156.46114,232.03845 L153.55914,232.03845 Z M157.81714,232.03845 L157.81714,238.76545 L160.18014,238.76545 L160.18014,232.03845 L157.81714,232.03845 Z M161.07114,216.99345 L161.07114,217.63445 L162.71714,217.63445 L161.07114,216.99345 Z M159.71514,217.63445 L159.71514,216.46645 L156.81514,215.33745 L156.81514,217.63445 L159.71514,217.63445 Z M156.78414,213.86545 L166.58714,217.68045 L166.34014,218.99445 L157.00314,218.99445 L157.00314,230.75845 L161.45814,230.75845 L161.45814,240.04345 L156.40914,240.04345 L156.40914,242.46745 L161.57714,242.46745 L161.57714,247.37345 L87.964143,247.37345 L87.964143,242.46745 L92.583143,242.46745 L92.585143,240.04345 L88.083143,240.04345 L88.083143,230.75845 L92.293143,230.75845 L92.293143,218.99445 L81.546143,218.99445 L81.307143,217.67745 L124.71514,201.38345 L156.78414,213.86545 L156.78414,213.86545 Z M155.45914,217.63445 L155.45914,214.81045 L152.55914,213.68045 L152.55914,217.63345 L155.45914,217.63445 Z M151.20314,217.63345 L151.20314,213.15445 L148.30214,212.02445 L148.30214,217.63345 L151.20314,217.63345 Z M146.94814,217.63345 L146.94814,211.49645 L144.04714,210.36745 L144.04714,217.63245 L146.94814,217.63345 Z M142.69214,217.63245 L142.69214,209.84045 L139.79014,208.71045 L139.79014,217.63245 L142.69214,217.63245 Z M138.43614,217.63245 L138.43614,208.18345 L135.53414,207.05445 L135.53414,217.63145 L138.43614,217.63245 Z M134.18014,217.63145 L134.18014,206.52745 L131.27814,205.39845 L131.27814,217.63145 L134.18014,217.63145 Z M129.92414,217.63145 L129.92414,204.87045 L127.02214,203.74145 L127.02214,217.63045 L129.92414,217.63145 L129.92414,217.63145 Z M125.66714,217.63045 L125.66714,203.21445 L124.70514,202.83945 L122.766143,203.56845 L122.766143,217.63145 L125.66714,217.63145 L125.66714,217.63045 Z M121.411143,217.63045 L121.411143,204.07645 L118.510143,205.16545 L118.510143,217.62945 L121.411143,217.63045 Z M117.156143,217.62945 L117.156143,205.67345 L114.255143,206.76345 L114.255143,217.62945 L117.156143,217.62945 L117.156143,217.62945 Z M112.899143,217.62945 L112.899143,207.27145 L109.999143,208.36145 L109.999143,217.62945 L112.899143,217.62945 Z M108.643143,217.62845 L108.643143,208.86845 L105.742143,209.95845 L105.742143,217.62845 L108.643143,217.62845 Z M104.387143,217.62845 L104.387143,210.46645 L101.486143,211.55645 L101.486143,217.62745 L104.387143,217.62845 Z M100.131143,217.62745 L100.131143,212.06445 L97.230143,213.15445 L97.230143,217.62845 L100.131143,217.62845 L100.131143,217.62745 Z M95.875143,217.62645 L95.875143,213.66145 L92.973143,214.75145 L92.973143,217.62645 L95.875143,217.62645 Z M91.619143,217.62645 L91.619143,215.25945 L88.717143,216.34945 L88.717143,217.62645 L91.619143,217.62645 Z M87.364143,217.62545 L87.364143,216.85645 L85.316143,217.62545 L87.364143,217.62545 Z M89.323143,243.81745 L89.323143,246.01445 L160.21614,246.01445 L160.21614,243.82645 L89.323143,243.81745 L89.323143,243.81745 Z M141.51814,240.04445 L108.064143,240.04445 L108.064143,242.47045 L141.51814,242.47045 L141.51814,240.04445 L141.51814,240.04445 Z M142.85214,240.08145 L142.85214,242.46245 L155.09014,242.46245 L155.09014,240.08145 L142.85214,240.08145 L142.85214,240.08145 Z M93.957143,240.08145 L93.957143,242.46245 L106.705143,242.46245 L106.705143,240.08145 L93.957143,240.08145 Z M89.716143,232.03845 L89.705143,238.76545 L92.609143,238.76545 L92.609143,232.03845 L89.716143,232.03845 Z M94.686143,219.52445 L94.686143,230.24345 L154.61614,230.24345 L154.61614,219.51145 L94.686143,219.52445 Z"/>
  </g>
</svg>
