<svg xmlns="http://www.w3.org/2000/svg" width="497" height="472" viewBox="0 0 497 472">
  <g fill="none">
    <path fill="#FFF" d="M292,84.8 C279.8,81.6 267.6,78.5 255.5,75.2 C252.3,74.3 252.3,75.7 252.3,78.1 C252.3,129.233333 252.266667,180.3 252.2,231.3 C252.2,234.1 253,235 255.9,235 C267.8,234.8 279.8,234.8 291.8,234.8 L386.3,234.8 L435.2,234.6 L449.7,234.8 C462.7,234.8 462.1,234.6 466.1,222.2 C475.3,193.7 479.8,164.4 482.4,134.7 C484.3,113.2 485,91.6 485.8,69.5 C479.3,71.6 473.2,73.7 467,75.5 C456.4,78.7 445.7,81.6 435,84.7 C416.8,86.6 398.8,90.2 380.4,91.2 C361.543451,92.037702 342.65012,91.3689115 323.9,89.2 C313.2,88.2 302.6,86.3 292,84.8 Z M243.7,74.4 L236.1,76.4 C203.812267,85.9771616 170.373257,91.1242124 136.7,91.7 C94.8,92.2 54.2,84.9 14.8,70.9 C11,69.5 10.2,69.8 10.3,74.1 C11.2,95.3 11.9,116.4 13.9,137.5 C16.7,169.1 21.9,200.2 32.6,230.2 C33.9,233.8 35.3,235 39.2,235 L238.6,235 C242.7,235 243.9,234.1 243.9,229.9 C243.7,179.7 243.633333,129.533333 243.7,79.4 L243.7,74.4 Z M9.9,12.1 C9.9,27.3 10,42.3 9.9,57.3 C9.9,59.6 10.9,60.4 12.9,61.1 C19.1,63 25.2,65.2 31.3,67.2 C59.7218372,76.3654692 89.2604365,81.6137852 119.1,82.8 C159.4,84.5 198.8,78.6 237.4,67.1 C241.7,65.9 245.9,63.4 250.8,64.8 C266,69.2 281.2,73.4 296.8,76.4 C360.2,89 422,83.4 482.6,61.4 C485.2,60.4 486,59.1 486,56.3 C486.1,43 486.5,29.7 486.8,16.4 C486.8,15 487.4,13.5 486.3,12.1 C460.9,19.4 435.4,25.6 409.3,29.4 C355.6,37.1 303,33.4 251.8,14.7 C249.347125,13.7970538 246.652875,13.7970538 244.2,14.7 C224.790438,21.7523617 204.723766,26.8444053 184.3,29.9 C140.2,36.4 96.6,32.8 53.3,23.4 C38.5,20.1 23.9,16.4 9.9,12.1 Z"/>
    <path fill="#262622" d="M496.2,0 C495.2,33 494.5,65.3 493.4,97.6 C492.617954,124.603096 490.079255,151.526666 485.8,178.2 C482.138651,200.696956 475.932151,222.704871 467.3,243.8 C450.9,283.5 427.1,318.3 398.6,350.2 C372.9,379 343,403.1 312.1,426.2 C292.1,441.1 271.6,455.4 251.2,469.7 C249.1,471.2 247.7,471.8 245.2,470 C213.6,448 182.2,425.8 152.2,401.8 C122.2,377.8 94.7,350.1 71.7,318.9 C50.5,290.2 33.1,259.5 21.8,225.5 C13.4,199.8 8.7,173.3 6,146.4 C1.2,98.4 1.4,50.2 0,2.1 C0,1.6 0.1,1.1 0.2,0 L10,3 C51.8,15.9 94.3,24.4 138.1,24.6 C174.31022,24.840422 210.2511,18.3642822 244.1,5.5 C246.521434,4.46769207 249.252243,4.43176037 251.7,5.4 C303.4,24.9 356.6,28.8 411,20.4 C438.459538,16.0764006 465.541205,9.62360833 492,1.1 C493.1,0.7 494.2,0.5 496.2,0 Z M49.8,266.9 C49.966315,268.011854 50.3036375,269.091286 50.8,270.1 C58.4358774,284.061036 66.9531146,297.521611 76.3,310.4 C81.9,317.8 86.9,325.7 93.8,332 C94.1,332.6 94.1,333.3 94.5,333.8 C108,349.5 122,364.5 137.9,377.8 C138.583941,378.73647 139.35396,379.606926 140.2,380.4 C153.8,391.8 167.6,403.1 181.8,413.8 C188.8,419 195.8,424.3 203,429.4 C210.2,434.5 217.5,440.8 225.9,445 C231.8,451.2 239.6,454.7 246.1,460 C246.993721,460.794698 248.314284,460.877233 249.3,460.2 C256.3,455.2 264,451.2 270,445 C272.2,444.7 273.9,443.2 275.7,442 C285,435.3 294.3,428.7 303.4,421.8 C307.1,419.1 311.3,416.9 314,413 C320.3,410 325.4,405.2 330.8,400.9 C340.1,393.5 349.6,386.3 358,377.8 C369.6,369 379.3,358.2 389.2,347.7 C393.8,342.8 399.1,338.3 402,332 C402.975837,331.730343 403.803725,331.082431 404.3,330.2 C418.125892,313.401628 430.56667,295.509648 441.5,276.7 C443.3,273.6 445.8,270.8 446.1,266.9 C450.3,262.1 452.2,256 455,250.5 C457.8,245 458,243.8 450.9,243.8 L41.9,243.8 C39.5,243.8 38.4,244.5 39.5,247.1 C42.5,253.9 45.1,260.9 49.8,266.9 Z M292,84.8 C279.8,81.6 267.6,78.5 255.5,75.2 C252.3,74.3 252.3,75.7 252.3,78.1 C252.3,129.233333 252.266667,180.3 252.2,231.3 C252.2,234.1 253,235 255.9,235 C267.8,234.8 279.8,234.8 291.8,234.8 L386.3,234.8 L435.2,234.6 L449.7,234.8 C462.7,234.8 462.1,234.6 466.1,222.2 C475.3,193.7 479.8,164.4 482.4,134.7 C484.3,113.2 485,91.6 485.8,69.5 C479.3,71.6 473.2,73.7 467,75.5 C456.4,78.7 445.7,81.6 435,84.7 C416.8,86.6 398.8,90.2 380.4,91.2 C361.543451,92.037702 342.65012,91.3689115 323.9,89.2 C313.2,88.2 302.6,86.3 292,84.8 Z M243.7,74.4 L236.1,76.4 C203.812267,85.9771616 170.373257,91.1242124 136.7,91.7 C94.8,92.2 54.2,84.9 14.8,70.9 C11,69.5 10.2,69.8 10.3,74.1 C11.2,95.3 11.9,116.4 13.9,137.5 C16.7,169.1 21.9,200.2 32.6,230.2 C33.9,233.8 35.3,235 39.2,235 L238.6,235 C242.7,235 243.9,234.1 243.9,229.9 C243.7,179.7 243.633333,129.533333 243.7,79.4 L243.7,74.4 Z M9.9,12.1 C9.9,27.3 10,42.3 9.9,57.3 C9.9,59.6 10.9,60.4 12.9,61.1 C19.1,63 25.2,65.2 31.3,67.2 C59.7218372,76.3654692 89.2604365,81.6137852 119.1,82.8 C159.4,84.5 198.8,78.6 237.4,67.1 C241.7,65.9 245.9,63.4 250.8,64.8 C266,69.2 281.2,73.4 296.8,76.4 C360.2,89 422,83.4 482.6,61.4 C485.2,60.4 486,59.1 486,56.3 C486.1,43 486.5,29.7 486.8,16.4 C486.8,15 487.4,13.5 486.3,12.1 C460.9,19.4 435.4,25.6 409.3,29.4 C355.6,37.1 303,33.4 251.8,14.7 C249.347125,13.7970538 246.652875,13.7970538 244.2,14.7 C224.790438,21.7523617 204.723766,26.8444053 184.3,29.9 C140.2,36.4 96.6,32.8 53.3,23.4 C38.5,20.1 23.9,16.4 9.9,12.1 Z"/>
    <path fill="#4E8F39" d="M435.2,234.7 L386.3,234.9 L291.8,234.9 C291.8,232.9 291.9,230.9 291.9,228.9 C291.9,180.9 291.933333,132.9 292,84.9 C302.6,86.4 313.2,88.3 323.9,89.4 C342.65012,91.5689115 361.543451,92.237702 380.4,91.4 C398.8,90.4 416.8,86.8 435,84.9 C435.1,86.9 435.2,88.9 435.2,90.9 C435.3,138.7 435.2,186.7 435.2,234.7 Z M312.9,133.1 C308.7,133.8 304.9,134.5 301.8,136.9 C296,141.4 296.1,148.2 302.2,152.3 C305.998649,154.779579 310.465735,156.035947 315,155.9 C316.9,155.9 318.2,156.2 319.4,158.2 C322.3,163.3 327.1,165.8 332.7,166.9 C338.3,168 344.6,167.6 350.6,166.9 C356.6,166.2 358.7,168.8 358.7,174.1 C358.7,186.3 358.5,198.5 358.8,210.6 C359,215.1 358,217.4 353.1,218.2 C348.2,219 344.5,220.1 341.3,224.5 C346.1,225.5 349.4,222.8 353.1,221.9 C356.8,221 360.7,220.2 361.9,226 C362.3,227.8 363.9,230.9 366.2,229.8 C368.5,228.7 365.9,226.5 365.5,224.8 C365.1,223.1 364.4,222.9 365.3,222.1 C366.2,221.3 367.2,222 368.1,222.3 C370.6,223 372.9,224.5 375.9,224.6 C375,222 372.8,220.8 370.9,219.8 C369,218.8 366.6,215.5 366.7,211.7 C367,200.9 367,190 366.7,179.2 C366.5,174.6 367.9,173.7 372.2,174 C379.9,174.5 388.3,174.8 394.1,169.4 C399.9,164 405.3,161.3 407.2,156.4 C410.4,148 416.1,145.6 423.2,142.6 C430.3,139.6 430.6,131.4 423.8,126.7 C420.243721,124.226705 416.03123,122.868959 411.7,122.8 C409.4,122.8 408.1,122.3 407.6,119.7 C406.8,115.2 403.6,112.6 399.5,110.9 C393.7,108.4 387.8,108.5 381.9,110.3 C379.673976,111.253803 377.096357,110.8242 375.3,109.2 C364.9,101 345,101.2 334.6,109.5 C332.985641,110.918864 330.821824,111.542337 328.7,111.2 C323.681746,110.601349 318.595569,111.397146 314,113.5 C308.3,116.1 306,121.8 308.7,127.1 C309.7,129.1 311.3,130.8 312.9,133.1 Z"/>
    <path fill="#AA0813" d="M270,445 C264,451.2 256.3,455.2 249.3,460.2 C248.314284,460.877233 246.993721,460.794698 246.1,460 C239.6,454.7 231.8,451.2 225.9,445 C225.9,378 225.933333,310.966667 226,243.9 L269.9,243.9 C269.9,310.9 269.933333,377.933333 270,445 Z"/>
    <path fill="#06056D" d="M270 445C270 378 269.966667 310.966667 269.9 243.9L314 243.9 314 413C311.3 416.9 307.1 419.1 303.4 421.8 294.3 428.7 285 435.3 275.7 442 273.9 443.2 272.2 444.7 270 445zM226 243.9C225.933333 310.9 225.9 377.933333 225.9 445 217.5 440.8 210.5 434.8 203 429.4 195.5 424 188.8 419 181.8 413.8 181.8 357.2 181.833333 300.566667 181.9 243.9L226 243.9z"/>
    <path fill="#AA0813" d="M314 413L314 243.9 357.9 243.9C357.9 288.5 357.933333 333.133333 358 377.8 349.6 386.3 340.1 393.5 330.8 400.9 325.4 405.2 320.3 410 314 413zM181.9 243.9C181.9 300.5 181.866667 357.133333 181.8 413.8 167.6 403.1 153.8 391.8 140.2 380.4 139.35396 379.606926 138.583941 378.73647 137.9 377.8 137.9 333.2 137.933333 288.566667 138 243.9L181.9 243.9z"/>
    <path fill="#06056D" d="M358 377.8C358 333.2 357.966667 288.566667 357.9 243.9L402 243.9 402 332C399.1 338.3 393.8 342.8 389.2 347.7 379.3 358.2 369.6 369 358 377.8zM138 243.9C137.933333 288.5 137.9 333.133333 137.9 377.8 122 364.5 108 349.5 94.5 333.8 94.1 333.3 94.1 332.6 93.8 332 93.9333333 302.6 93.9666667 273.233333 93.9 243.9L138 243.9z"/>
    <path fill="#AA0813" d="M402 332L402 243.9 446 243.9C446 251.6 446 259.2 446.1 266.9 445.8 270.8 443.3 273.6 441.5 276.7 430.56667 295.509648 418.125892 313.401628 404.3 330.2 403.803725 331.082431 402.975837 331.730343 402 332L402 332zM93.9 243.9C93.9 273.166667 93.8666667 302.533333 93.8 332 86.9 325.7 81.9 317.8 76.3 310.4 66.9531146 297.521611 58.4358774 284.061036 50.8 270.1 50.3036375 269.091286 49.966315 268.011854 49.8 266.9 49.8 259.2 49.8 251.5 49.9 243.9L93.9 243.9z"/>
    <path fill="#06056D" d="M446.1 266.9C446 259.2 446 251.6 446 243.9L450.9 243.9C458 243.9 458.2 244 455 250.6 451.8 257.2 450.3 262.1 446.1 266.9zM49.9 243.9C49.8 251.5 49.8 259.2 49.8 266.9 45.1 260.9 42.5 253.9 39.5 247.1 38.4 244.5 39.5 243.8 41.9 243.8L49.9 243.9z"/>
    <path fill="#FAF9F9" d="M357.5,48.5 C358.7,52.8 359.6,56.1 360.5,59.5 C360.7,60.5 361.7,62.1 360.2,62.4 C358.076439,62.7854814 355.895348,62.7173223 353.8,62.2 C352.1,61.7 353.6,60.2 353.9,59.2 C354.9,55.9 356.1,52.7 357.5,48.5 Z"/>
    <polygon fill="#000" points="53.078 52.6 54.934 46.7 40.084 42.2 42.559 34.5 58.544 39.3 60.4 33.4 38.538 26.8 27.4 61.7 49.778 68.4 51.737 62.5 35.237 57.6 38.228 48.1"/>
    <polygon fill="#000" points="81.334 37.4 73.346 47.1 69.352 35.2 62.286 33.9 68.43 52.9 54.4 69.6 61.773 71 70.786 60 75.087 73.4 82.46 74.8 75.599 54.1 88.4 38.7"/>
    <polygon fill="#000" points="88.4 44.9 97.491 45.7 94.598 75.9 100.797 76.5 103.689 46.3 112.78 47.1 113.4 40.9 88.917 38.7"/>
    <path fill="#000" d="M136.609665,64.1780822 C135.657364,63.0149446 134.535932,61.9855346 133.27881,61.1205479 C135.675301,60.8607742 137.855965,59.6851226 139.315985,57.8657534 C140.869788,55.9129817 141.644125,53.5021681 141.501859,51.060274 C141.57334,49.0752553 141.107508,47.105929 140.148699,45.339726 C139.321586,43.8975167 138.05094,42.7279116 136.505576,41.9863014 C135.048327,41.2958904 132.654275,41 129.32342,41 L116,41 L116,77 L122.245353,77 L122.245353,62.0082192 L123.598513,62.0082192 C124.656974,61.9344725 125.720098,62.0687881 126.72119,62.4027397 C127.465112,62.7416652 128.108825,63.2499589 128.594796,63.8821918 C129.831222,65.5839302 130.944075,67.3633785 131.925651,69.2082192 L136.505576,77 L144,77 L140.148699,69.9972603 C139.149394,67.9639337 137.965249,66.0168633 136.609665,64.1780822 L136.609665,64.1780822 Z M127.755697,55.9759355 L123,55.9759355 L123,47.0270256 L128.072743,47.0270256 C129.805303,46.9469881 131.542157,47.0448625 133.251168,47.3188379 C134.079991,47.5294241 134.79508,48.0143948 135.259129,48.6806285 C135.751118,49.5166132 136.005588,50.4534794 135.998904,51.4042098 C136.018929,52.3872972 135.764194,53.3586325 135.259129,54.2250618 C134.799667,54.9157578 134.087735,55.4330745 133.251168,55.6841232 C131.434808,55.9524383 129.593531,56.0502111 127.755697,55.9759355 L127.755697,55.9759355 Z"/>
    <polygon fill="#000" points="155.469 70.5 154.531 60.7 170.168 59.3 169.543 53.2 153.906 54.5 153.176 46.5 169.96 45 169.439 38.9 146.4 40.8 149.736 77.2 173.4 75.2 172.775 69"/>
    <polygon fill="#000" points="193.4 34.8 192.579 60.3 182.426 36.8 173.4 38.4 180.169 74.3 185.913 73.3 180.477 45 191.862 72.2 197.708 71.1 198.323 41.8 203.759 70 209.4 69 202.528 33.1"/>
    <path fill="#000" d="M221.708333 28L215.354167 29.6957606 214 68 220.458333 66.2044888 220.458333 57.6259352 232.541667 54.3341646 237.4375 61.5162095 244 59.7206983 221.708333 28zM221 51L221.202532 37 229 48.8156028 221 51zM275.273161 29.1370402C273.357165 27.9173707 271.204884 27.0618553 268.938056 26.6188832L257.448969 24 248 59.6571024 259.811211 62.4774382C261.949082 62.9909495 264.170018 63.1275673 266.361065 62.8803433 268.142352 62.5486517 269.826815 61.8616233 271.300299 60.8658177 273.012291 59.5196604 274.433744 57.8785039 275.48791 56.0309564 277.016496 53.6328425 278.105355 51.0111459 278.709149 48.275033 279.601969 45.3961101 280.036162 42.4091802 279.997645 39.4111205 279.94108 37.256749 279.430166 35.1342261 278.4944 33.1660913 277.810079 31.5843883 276.700209 30.196189 275.273161 29.1370402zM272.900675 46.8381043C272.393443 48.9049413 271.619911 50.910427 270.596037 52.8131798 270.07627 54.0032978 269.248098 55.0622306 268.181655 55.9003022 267.41958 56.4612 266.513513 56.8380345 265.547784 56.9957327 263.95692 57.029575 262.368625 56.8619875 260.828764 56.4978098L256 55.4023793 262.365189 32 265.328294 32.6970921C267.096091 33.0449489 268.823258 33.5451406 270.486293 34.190861 271.615578 34.7211126 272.535814 35.5561543 273.120164 36.5808913 273.727226 37.8353349 274.026783 39.1944575 273.998121 40.564275 273.818348 42.6788775 273.451349 44.7769246 272.900675 46.8381043L272.900675 46.8381043zM306.09722 35.2L301.87978 55C301.5067 57.3679758 300.83409 59.6846788 299.876496 61.9 299.373228 62.8628094 298.508087 63.6119947 297.451469 64 296.297652 64.5113172 294.98994 64.6176277 293.761209 64.3 290.649612 63.8384664 288.441448 61.1769383 288.700281 58.2 288.805717 57.2 289.122025 55.2 289.754641 52.2L293.866645 32.8 287.645921 31.7 283.533917 50.7C282.479557 56.1 282.057814 59.8 282.479557 62 282.805407 64.0605789 283.843872 65.9600756 285.431765 67.4 287.466462 69.0526323 289.951575 70.1271414 292.601413 70.5 295.234388 71.1388459 298.016712 70.9277359 300.509112 69.9 302.658233 69.0574785 304.365411 67.4383178 305.253732 65.4 306.308092 63.4 307.257016 60 308.311376 55.2L312.317944 36.4 306.09722 35.2zM338.068683 40.6363636C336.668299 39.7272727 334.190697 39.1212121 330.743599 38.7171717L317.170648 37 312 73.5656566 318.355588 74.3737374 320.617747 59.1212121 321.910409 59.1212121C322.993861 59.2184309 324.050972 59.4918783 325.034342 59.9292929 325.767511 60.3847026 326.361528 61.0113352 326.757891 61.7474747 327.806201 63.6015681 328.706354 65.5260431 329.450937 67.5050505L333.005757 76.0909091 340.654007 77 337.85324 69.4242424C337.034966 67.2122487 336.063399 65.0527647 334.94475 62.959596 334.133111 61.6765534 333.11581 60.5182256 331.928539 59.5252525 334.455202 59.5449248 336.890226 58.6388506 338.715014 57 340.489971 55.1881813 341.586684 52.8831897 341.838947 50.4343434 342.171731 48.4025845 341.987168 46.3258226 341.300338 44.3737374 340.66507 42.8424466 339.535147 41.5357026 338.068683 40.6363636L338.068683 40.6363636zM335.954237 49.9918435C335.870456 50.9950617 335.48316 51.951895 334.840982 52.742198 334.357708 53.384001 333.627772 53.8090753 332.816883 53.9209213 332.007243 54.1173752 330.286758 53.9209213 327.554224 53.6262404L323 53.0368788 324.315665 44 328.971094 44.5893617C330.6554 44.7446547 332.317826 45.0739419 333.930137 45.5716311 334.663348 45.9015801 335.266897 46.4529107 335.650622 47.1432622 335.966035 48.0596474 336.069694 49.0321971 335.954237 49.9918435L335.954237 49.9918435zM356.76 41L343 77.0026954 349.826667 77.2021563 352.813333 69.0242588 365.613333 69.4231806 368.066667 77.8005391 375 78 363.586667 41.1994609 356.76 41zM356 63.6934307L360.487805 50 364 64 356 63.6934307zM412.595704 37.7L406.526264 38.6 409.509548 58.6C410.023908 62.2 410.229651 64.6 410.023908 65.7 409.932969 66.7788737 409.417024 67.781956 408.583701 68.5 407.680657 69.3148395 406.520313 69.8083179 405.291802 69.9 403.812385 70.2075779 402.268011 69.957368 400.971183 69.2 399.769805 68.3770355 398.897668 67.1760011 398.502259 65.8 398.02303 63.8531253 397.645351 61.8839457 397.370668 59.9L394.490256 40.3 388.317944 41.2 391.198356 60.5C392.021331 65.9 392.947178 69.5 394.078768 71.4 395.111267 73.2279975 396.739787 74.6703375 398.708002 75.5 401.125501 76.4318783 403.766146 76.6746956 406.32052 76.2 408.962818 75.917119 411.446353 74.8324773 413.418679 73.1 415.106732 71.59604 416.137574 69.5203349 416.299091 67.3 416.39583 63.7486664 416.120081 60.1969921 415.476116 56.7L412.595704 37.7z"/>
    <polygon fill="#000" points="425.318 65.438 430.791 64.175 432.318 71.001 426.845 72.264"/>
    <path fill="#000" d="M456.259235,36.7796307 C455.118739,34.8965969 453.577299,33.2606841 451.733571,31.9765942 C450.311835,30.9688364 448.647504,30.3152601 446.892162,30.0753923 C444.646593,29.852197 442.377161,30.1261824 440.261537,30.8758984 L429,33.7777329 L439.419553,69 L450.891587,65.898039 C453.005411,65.4642293 454.985995,64.5740763 456.680228,63.2963942 C458.04753,62.2154023 459.128989,60.8444895 459.837668,59.2938639 C460.651903,57.3541058 461.045685,55.277981 460.995396,53.1900051 C461.049716,50.4076501 460.623046,47.6357004 459.73242,44.9848179 C459.002779,42.1030489 457.832602,39.3385784 456.259235,36.7796307 Z M454.501889,55.9 C454.195006,56.7839289 453.597262,57.5540813 452.794388,58.1 C451.548415,58.9318996 450.130835,59.5109159 448.632353,59.8 L443.936724,61 L437,37.8 L439.881409,37 C441.550162,36.5114364 443.265782,36.1765182 445.003913,36 C446.208452,36.0031278 447.389229,36.3143132 448.418915,36.9 C449.614143,37.718988 450.598663,38.7781962 451.300324,40 C452.333948,41.9166527 453.156377,43.9270438 453.754857,46 C454.376412,48.0225245 454.769867,50.100559 454.928765,52.2 C455.102946,53.4475891 454.956594,54.7161183 454.501889,55.9 L454.501889,55.9 Z"/>
    <polygon fill="#000" points="468.318 53.779 474.144 52.122 476.318 58.819 470.492 60.476"/>
    <path fill="#000" d="M117,128.7 L125.3,128.7 L125.3,155.8 C125.235571,158.536876 125.335752,161.275149 125.6,164 C125.834449,165.954536 126.755961,167.762117 128.2,169.1 C129.749139,170.356787 131.707566,170.997727 133.7,170.9 C135.364557,170.97314 137.009622,170.518122 138.4,169.6 C139.606419,168.771391 140.461801,167.52396 140.8,166.1 C141.3,164.6 141.5,161.3 141.5,156.3 L141.5,128.7 L149.8,128.7 L149.8,154.9 C149.8,161.7 149.4,166.5 148.7,169.5 C147.996153,172.442742 146.256858,175.033937 143.8,176.8 C141.333333,178.6 138.033333,179.5 133.9,179.5 C129.6,179.5 126.3,178.8 123.9,177.2 C121.497879,175.71031 119.666415,173.456201 118.7,170.8 C117.6,168 117,162.8 117,155.4 L117,128.7 Z"/>
    <polygon fill="#000" points="158.6 178.7 158.6 169.1 166.5 169.1 166.5 178.7"/>
    <path fill="#000" d="M174.8,128.7 L189.9,128.7 C193.7,128.7 196.6,129.1 198.5,130 C200.60787,130.997156 202.456161,132.468944 203.9,134.3 C205.693341,136.645909 206.986639,139.334607 207.7,142.2 C208.753793,146.109475 209.22553,150.152937 209.1,154.2 C209.148445,158.012754 208.677451,161.814348 207.7,165.5 C206.907757,168.244009 205.619861,170.8198 203.9,173.1 C202.428321,174.877557 200.585122,176.311156 198.5,177.3 C195.885944,178.303615 193.098967,178.77944 190.3,178.7 L174.8,178.7 L174.8,128.7 Z M183,137.1 L183,170.2 L189.2,170.2 C191.159646,170.315673 193.124143,170.078579 195,169.5 C196.166257,169.025634 197.172499,168.22758 197.9,167.2 C198.868474,165.753847 199.516308,164.117212 199.8,162.4 C200.38263,159.571552 200.650925,156.687383 200.6,153.8 C200.654287,150.846297 200.386032,147.895492 199.8,145 C199.435975,143.157102 198.610199,141.436734 197.4,140 C196.377666,138.818061 195.01583,137.980008 193.5,137.6 C191.290976,137.194193 189.044788,137.026567 186.8,137.1 L183,137.1 Z"/>
    <polygon fill="#000" points="216.3 178.7 216.3 169.1 224.2 169.1 224.2 178.7"/>
    <path fill="#06056D" d="M55,230.4 L51.2,230.4 L49.7,225.6 L42.8,225.6 L41.4,230.4 L37.7,230.4 L44.4,209.4 L48.1,209.4 L55,230.4 Z M48.6,222.1 L46.2,214.3 L43.9,222.1 L48.6,222.1 Z"/>
    <polygon fill="#06056D" points="57 230.4 57 209.6 60.4 209.6 60.4 226.8 69.1 226.8 69.1 230.4"/>
    <polygon fill="#06056D" points="71.6 230.4 71.6 209.4 76.8 209.4 79.9 223.7 83 209.4 88.2 209.4 88.2 230.4 85 230.4 85 213.9 81.6 230.4 78.2 230.4 74.8 213.9 74.8 230.4"/>
    <polygon fill="#06056D" points="91.7 230.4 91.7 209.4 104.5 209.4 104.5 213 95.2 213 95.2 217.6 103.8 217.6 103.8 221.1 95.2 221.1 95.2 226.8 104.8 226.8 104.8 230.4"/>
    <polygon fill="#06056D" points="107.9 230.4 107.9 209.4 111.2 209.4 118.3 223.4 118.3 209.4 121.5 209.4 121.5 230.4 118 230.4 111.1 216.7 111.1 230.4"/>
    <path fill="#06056D" d="M125.2 209.4L131.6 209.4C132.819837 209.35816 134.037736 209.527312 135.2 209.9 136.06936 210.356205 136.822108 211.006305 137.4 211.8 138.205459 212.745925 138.756171 213.881769 139 215.1 139.440012 216.729023 139.642103 218.413123 139.6 220.1 139.629985 221.687528 139.42785 223.270919 139 224.8 138.704554 225.951099 138.195752 227.036545 137.5 228 136.877375 228.764232 136.091468 229.379289 135.2 229.8 134.086227 230.23576 132.895317 230.439916 131.7 230.4L125.2 230.4 125.2 209.4zM128.7 213L128.7 226.8 131.3 226.8C132.111347 226.840015 132.923467 226.7385 133.7 226.5 134.176977 226.319363 134.593035 226.00732 134.9 225.6 135.3212 225.006046 135.595383 224.320587 135.7 223.6 136.008734 222.391987 136.143427 221.146084 136.1 219.9 136.151147 218.686619 136.016252 217.472559 135.7 216.3 135.576375 215.518144 135.229063 214.78879 134.7 214.2 134.308904 213.660379 133.743884 213.271928 133.1 213.1L128.7 213.1 128.7 213zM142.7 230.4L142.7 209.4 150 209.4C151.360945 209.310548 152.725195 209.515186 154 210 154.845345 210.413812 155.54341 211.076973 156 211.9 156.499614 212.9618 156.739548 214.127196 156.7 215.3 156.744666 216.682376 156.360421 218.0447 155.6 219.2 154.77007 220.266863 153.54356 220.952265 152.2 221.1 152.90333 221.62151 153.541261 222.225865 154.1 222.9 154.818424 223.983641 155.453581 225.120238 156 226.3L158.1 230.4 154 230.4 151.5 225.8C150.959735 224.712431 150.323901 223.675018 149.6 222.7 149.369286 222.325648 149.015866 222.042912 148.6 221.9 148.064914 221.667358 147.482394 221.56456 146.9 221.6L146.1 221.6 146.1 230.4 142.7 230.4zM146.1 218.3L148.7 218.3C149.704141 218.33199 150.708992 218.265 151.7 218.1 152.152487 217.923654 152.537544 217.608607 152.8 217.2 153.333333 216.2 153.333333 215 152.8 214 152.537544 213.591393 152.152487 213.276346 151.7 213.1L146.1 213.1 146.1 218.3zM175.6 230.4L171.8 230.4 170.3 225.6 163.5 225.6 162 230.4 158.3 230.4 165 209.4 168.7 209.4 175.6 230.4zM169.2 222.1L166.8 214.3 164.5 222.1 169.2 222.1z"/>
    <polygon fill="#06056D" points="177.6 230.4 177.6 209.6 181.1 209.6 181.1 226.8 189.7 226.8 189.7 230.4"/>
    <polygon fill="#06056D" points="192.3 230.4 192.3 209.4 205 209.4 205 213 195.7 213 195.7 217.6 204.4 217.6 204.4 221.1 195.7 221.1 195.7 226.8 205.4 226.8 205.4 230.4"/>
    <path fill="#06056D" d="M214.6 209.4L218.1 209.4 218.1 222.7C218.141721 224.328189 217.904983 225.951539 217.4 227.5 216.997342 228.458275 216.340315 229.288203 215.5 229.9 214.5403 230.487772 213.423392 230.766999 212.3 230.7 210.828424 230.806282 209.401531 230.167935 208.5 229 207.5 227.9 207.1 226.2 207 223.9L210.3 223.4C210.301349 224.322893 210.470781 225.237824 210.8 226.1 211.117368 226.741753 211.784888 227.134412 212.5 227.1 213.115325 227.140125 213.711855 226.879143 214.1 226.4 214.502036 225.313959 214.672353 224.155804 214.6 223L214.6 209.4zM221.1 220C221.040901 217.912478 221.415458 215.83539 222.2 213.9 222.804272 212.421268 223.80846 211.140063 225.1 210.2 226.443616 209.450763 227.961874 209.071198 229.5 209.1 231.82603 209.052206 234.042538 210.086577 235.5 211.9 237 213.8 237.8 216.4 237.8 219.9 237.8 223.4 237 226.1 235.3 228.1 233.802605 229.749924 231.678102 230.69081 229.45 230.69081 227.221898 230.69081 225.097395 229.749924 223.6 228.1 221.9 226.2 221.1 223.5 221.1 220zM224.7 219.9C224.7 222.3 225.1 224.1 226.1 225.3 226.864022 226.427471 228.138047 227.101955 229.5 227.1 230.857656 227.084832 232.124233 226.414291 232.9 225.3 233.8 224.1 234.2 222.3 234.2 219.8 234.2 217.3 233.8 215.6 232.9 214.4 232.102634 213.323536 230.839591 212.692014 229.5 212.7 228.13255 212.691997 226.839108 213.32024 226 214.4 225.1 215.6 224.7 217.4 224.7 219.9z"/>
    <polygon fill="#AA0813" points="56.7 198.4 47.7 156.4 93.8 156.4 93.8 147.4 45.8 147.4 36.7 105.3 142.4 105.3 142.4 96.3 25.5 96.3 49.5 207.4 228.3 207.4 228.3 198.4"/>
    <circle cx="328.2" cy="123.8" r="2.4" fill="#4E8F39"/>
    <circle cx="325.9" cy="138.5" r="2.4" fill="#4E8F39"/>
    <circle cx="325.9" cy="150" r="2.4" fill="#4E8F39"/>
    <circle cx="335.5" cy="142.7" r="2.4" fill="#4E8F39"/>
    <circle cx="339.7" cy="130.3" r="2.4" fill="#4E8F39"/>
    <circle cx="351.5" cy="118.8" r="2.4" fill="#4E8F39"/>
    <circle cx="361.8" cy="130.3" r="2.4" fill="#4E8F39"/>
    <circle cx="376.6" cy="117.5" r="2.4" fill="#4E8F39"/>
    <circle cx="373.3" cy="132.6" r="2.4" fill="#4E8F39"/>
    <circle cx="387.8" cy="127.3" r="2.4" fill="#4E8F39"/>
    <circle cx="400.8" cy="136.6" r="2.4" fill="#4E8F39"/>
    <circle cx="393.1" cy="146.8" r="2.4" fill="#4E8F39"/>
    <circle cx="381.4" cy="142.1" r="2.4" fill="#4E8F39"/>
    <circle cx="366.2" cy="146.8" r="2.4" fill="#4E8F39"/>
    <circle cx="371.9" cy="156.2" r="2.4" fill="#4E8F39"/>
    <circle cx="384.9" cy="161.7" r="2.4" fill="#4E8F39"/>
    <circle cx="351.5" cy="146.5" r="2.4" fill="#4E8F39"/>
    <circle cx="343.4" cy="157.3" r="2.4" fill="#4E8F39"/>
  </g>
</svg>
