<?xml version="1.0" encoding="utf-8"?>
<!-- Generator: Adobe Illustrator 22.0.1, SVG Export Plug-In . SVG Version: 6.00 Build 0)  -->
<svg version="1.2" baseProfile="tiny" id="Capa_1" xmlns="http://www.w3.org/2000/svg" xmlns:xlink="http://www.w3.org/1999/xlink"
	 x="0px" y="0px" viewBox="0 0 400 400" xml:space="preserve">
<g id="Capa_4_1_">
	<g>
		<path d="M200,388.3l5.1-7c0,0-3.4-2.5-8.2-6.5c-4.8-3.9-11.3-9.3-17.2-14.9l-2.3-2.3h-3.1c-37.7-1.7-71.5-12.7-95.7-33.2
			c-24.2-20.5-39.1-50.7-39.4-93.2c0-3.1,0-6.5,0.3-9.8l-8.4-0.6l8.4,1.1l0.3-3.4c0-0.8,0-1.4,0.3-3.4l0.3-3.9l-2.8-2.8
			c-4.8-5.1-12.4-12.9-16.6-17.2l-6.2,6.2l6.2,5.9c20-20.8,41.7-57.4,41.7-99.9c0-23.6-7-49-25-72.9l-6.8,5.1l7.3,4.5
			c1.4-2,2.3-3.4,3.7-5.1c1.4-1.7,3.4-4.2,5.9-7.6l-7-5.1l-2.8,8.2c10.4,3.9,21.7,6.2,33.2,6.2c27.3,0,48.7-3.1,72.9-19.1l-4.8-7
			l-4.8,7c18.9,13.2,40.2,21.7,65.6,21.7s46.7-8.7,65.6-21.7l-4.8-7l-4.8,7c24.2,16,45.6,19.1,72.9,19.1c11.5,0,23.1-2.3,33.2-5.9
			l-2.8-8.2l-7,5.1c2.5,3.7,4.5,5.9,5.9,7.6c1.4,2,2.5,3.1,3.7,5.1l7.3-4.5l-6.8-5.1c-18,23.9-25,49.2-25,72.9
			c0,42.5,21.7,79.1,41.7,99.9l6.2-5.9l-6.2-6.2c-4.2,4.2-11.8,12.1-16.6,17.2l-2.8,2.8l0.3,3.9c0.3,2,0.3,2.8,0.3,3.4l0.3,3.4
			l8.4-1.1l-8.4,0.6c0.3,3.4,0.3,6.5,0.3,9.8c0,42.5-15.2,72.6-39.4,93.2s-58,31.5-95.7,33.2h-3.1l-2.5,2.5
			c-5.9,5.6-12.4,11-17.2,14.9c-4.8,3.9-8.2,6.5-8.2,6.5L200,388.3l5.1-7L200,388.3l5.1,6.8c0,0,13.8-10.4,26.7-22.2l-5.9-6.2
			l0.3,8.4c40.5-1.7,78.2-13.5,106.1-37.1c27.9-23.6,45.6-59.7,45.3-106.1c0-3.4,0-7-0.3-10.7v-0.3v-0.3v-2c0-0.8,0-2.3-0.3-4.5
			l-8.4,0.8l6.2,5.9c4.5-4.8,12.4-12.9,16.3-16.9l5.9-5.9l-5.9-6.2c-17.4-18-36.9-51.8-36.9-88.1c0-20.3,5.9-41.7,21.7-62.5l3.7-4.8
			l-3.1-5.1c-1.7-2.8-3.7-5.1-5.1-7c-1.7-2-3.1-3.7-5.1-6.8l-3.7-5.3l-6.2,2.3c-8.7,3.1-18.3,4.8-27.6,4.8
			c-26.7,0-42.2-2.3-63.3-16.3l-5.1-2.8l-4.8,3.4c-16.9,11.8-34.3,18.6-55.7,18.6s-38.8-7-55.7-18.6l-4.8-3.4l-4.8,3.1
			c-21.4,13.8-36.9,16-63.3,16.3c-9.3,0-18.9-2-27.6-4.8l-6.2-2.3L34,17.9c-2.3,3.1-3.7,4.8-5.3,6.8c-1.4,2-3.4,3.9-5.1,7l-3.1,5.1
			l3.7,4.8c15.8,21.1,21.7,42.2,21.7,62.5c0,36.3-19.4,70.1-36.9,88.1L3,198.3l5.9,5.6c3.9,3.9,11.5,11.8,16.3,16.9l6.2-5.9
			l-8.4-0.8c-0.3,2.3-0.3,3.7-0.3,4.5l-0.3,2v0.3v0.3c-0.3,3.7-0.3,7-0.3,10.7c0,46.7,17.4,82.5,45.3,106.4
			c27.9,23.6,65.6,35.5,106.1,37.1l0.3-8.4l-5.9,6.2c12.9,12.1,26.7,22.2,26.7,22.2l5.1,3.7l5.1-3.9L200,388.3z"/>
		<path fill="#DEBC04" d="M200,388.3c0,0-13.8-10.1-26.2-21.7c-81.1-3.4-148-48.7-143-144.9c0.3-2.5,0-2.3,0.6-6.8
			c-4.5-4.8-12.4-12.9-16.3-16.9c29-30.4,62.8-99.3,15.8-161.8c3.1-5.1,5.3-6.8,9.8-13.2c9.3,3.4,20,5.3,30.4,5.3
			c27,0,45.3-2.8,68.1-17.7c18,12.4,37.4,20.3,60.5,20.3c23.4,0,42.8-7.9,60.5-20.3c23.1,14.9,41.4,17.7,68.4,17.7
			c10.4,0,21.1-2,30.4-5.3c4.5,6.5,6.8,8.2,9.9,13.2c-47,62.5-13.2,131.7,16,161.8c-3.9,3.9-11.8,12.1-16.3,16.9
			c0.6,4.2,0.3,4.2,0.6,6.8c5.1,96.2-61.9,141.8-143,144.9C213.5,378.2,200,388.3,200,388.3z"/>
		<path d="M200,388.3L200,388.3c0,0-13.8-10.1-26.2-21.7C95.6,363.3,30.6,321,30.6,231.8c0-3.4,0-6.8,0.3-10.1
			c0.3-2.5,0-2.3,0.6-6.8c-4.5-4.8-12.4-12.9-16.3-16.9c18.6-19.4,39.4-54.6,39.4-94c0-22-6.5-45.3-23.4-67.8
			c3.1-5.1,5.3-6.8,9.9-13.2c9.3,3.4,20,5.3,30.4,5.3c27,0,45.3-2.8,68.1-17.7c18,12.4,37.4,20.3,60.5,20.3
			c23.4,0,42.8-7.9,60.5-20.3c22.8,14.9,41.1,17.7,68.1,17.7c10.4,0,21.1-2,30.4-5.3c4.5,6.5,6.8,8.2,9.9,13.2
			c-16.9,22.5-23.4,45.9-23.4,67.8c0,39.4,20.5,74.6,39.4,94c-3.9,3.9-11.8,12.1-16.3,16.9c0.6,4.2,0.3,4.2,0.6,6.8
			c0.3,3.4,0.3,6.8,0.3,10.1c0,89.2-65,131.7-143.2,134.8C213.5,378.2,200,388.3,200,388.3s13.5-10.1,25.9-21.7
			c78.2-3.4,143.2-45.6,143.2-134.8c0-3.4,0-6.8-0.3-10.1c-0.3-2.5,0-2.3-0.6-6.8c4.5-4.8,12.4-12.9,16.3-16.9
			c-18.6-19.4-39.4-54.6-39.4-94c0-22,6.5-45.3,23.4-67.8c-3.1-5.1-5.3-6.8-9.9-13.2c-9.3,3.4-20,5.3-30.4,5.3
			c-27,0-45.3-2.8-68.1-17.7c-18,12.4-37.4,20.3-60.5,20.3c-23.4,0-42.8-7.9-60.5-20.3c-22.5,14.9-41.1,17.7-68.1,17.7
			c-10.4,0-21.1-2-30.4-5.3c-4.5,6.5-6.8,8.2-9.8,13.2c16.9,22.5,23.4,45.9,23.4,67.8c0,39.4-20.5,74.6-39.4,94
			c3.9,3.9,11.8,12.1,16.3,16.9c-0.6,4.2-0.3,4.2-0.6,6.8c-0.3,3.4-0.3,6.8-0.3,10.1c0,89.2,65,131.7,143.2,134.8
			C186.2,378.2,200,388.3,200,388.3z"/>
		<g>
			<path fill="#0F4D95" d="M88.8,217.2H46.3c-0.3,2.8-0.6,2.8-0.6,5.6c-2.6,48.7,14.3,81.8,43.1,102.4V217.2z"/>
			<path fill="#8C0044" d="M88.8,325.3c12.8,9.2,27.9,15.9,44.7,20.3V217.2H88.8V325.3z"/>
			<path fill="#0F4D95" d="M133.6,345.6c13.9,3.7,29,5.9,44.7,6.6v-135h-44.7V345.6z"/>
			<path fill="#8C0044" d="M223.1,217.2h-44.7v135c0.6,0,1.1,0.1,1.7,0.1c14.9,0,28.1,0.3,40,0c1,0,2.1-0.1,3.1-0.2V217.2z"/>
			<path fill="#0F4D95" d="M223.1,352.1c15.8-0.9,30.9-3.2,44.7-7V217.2h-44.7V352.1z"/>
			<path fill="#8C0044" d="M267.8,345.1c16.9-4.7,32-11.6,44.7-21.2V217.2h-44.7V345.1z"/>
			<path fill="#0F4D95" d="M353.7,217.2h-41.1V324c27.7-20.7,44.1-53.5,41.7-101.1C353.9,220,353.9,220,353.7,217.2z"/>
		</g>
		<path d="M46.3,217.2v1.4h307.3v-1.4h-1.4c0.3,2.8,0.6,3.1,0.8,5.6h1.1h-1.4c0.3,3.1,0.3,6.2,0.3,9c0,81.3-58,115.7-133.4,119v1.1
			v-1.4c-4.8,0-10.1,0-15.8,0c-7.6,0-15.8,0-24.2,0v1.4v-1.1c-75.4-3.4-133.4-37.4-133.4-119c0-3.1,0-5.9,0.3-9h-1.1h1.1
			c0.3-2.5,0.6-2.8,0.8-5.6L46.3,217.2v1.4V217.2h-1.4c-0.3,2.5-0.3,2.8-0.6,5.6l0,0l0,0c-0.3,3.1-0.3,6.2-0.3,9.3
			c0,83,59.9,118.5,135.9,121.6l0,0l0,0c8.4,0,16.6,0,24.2,0c5.6,0,10.7,0,15.8,0l0,0l0,0c76-3.1,135.9-38.6,135.9-121.6
			c0-3.1,0-6.2-0.3-9.3l0,0l0,0c-0.3-2.8-0.6-3.1-0.8-5.6v-1.1H45.2v1.1L46.3,217.2z"/>
		<path fill="#DEBC04" d="M156.9,283.1c0-23.6,19.1-43.1,43.1-43.1c23.6,0,43.1,19.1,43.1,43.1c0,23.9-19.1,43.1-43.1,43.1
			C176.4,326.1,156.9,306.7,156.9,283.1z"/>
		<path d="M156.9,283.1L156.9,283.1c0.3-23.6,19.4-42.8,43.1-42.8s42.8,19.1,42.8,42.8c0,23.6-19.1,42.8-42.8,42.8
			C176.4,325.8,157.2,306.7,156.9,283.1L156.9,283.1L156.9,283.1c-0.3,23.9,19.1,43.1,43.1,43.1c23.9,0,43.1-19.4,43.1-43.1
			c0-23.9-19.4-43.1-43.1-43.1C176.1,239.7,156.9,259.1,156.9,283.1L156.9,283.1z"/>
		<path d="M199.7,240c23.6,0,42.8,19.1,42.8,42.8s-19.1,42.8-42.8,42.8s-42.8-19.1-42.8-42.8S176.1,240,199.7,240z M177.8,290.7
			c-7.9-7-7.9-21.4-5.6-31c0.6-2.5,1.4-5.3,2-8.2c-9,7.3-14.9,18.9-14.9,31.5c0,5.3,1.1,10.4,2.8,15.2h2
			C170.2,298.2,175.2,295.4,177.8,290.7z M219.4,293.7c-1.4,6.8-8.4,11.8-15.5,16c-7,4.2-18.3,6.5-27,6.8c6.5,4.2,14.4,6.8,22.5,6.8
			c15.2,0,28.4-8.4,35.5-20.8C234.1,292.3,224.5,291.2,219.4,293.7z M174.1,314c8.4,0,21.4-2,29-6.5c9.6-5.6,17.2-11.8,13.5-20.3
			c-1.7-4.2-7.9-9.3-15.5-3.7c-0.6,6.5-8.4,11.8-14.1,11.3c-2.8-0.3-5.3-1.1-7.3-2.5c-3.1,5.3-8.7,8.4-15.5,8.4h-0.8
			C165.9,305.8,169.6,310.4,174.1,314z M199.7,257.7c6.8-2.8,16,0.8,23.1,4.8c6.8,3.7,13.8,10.7,17.4,18
			c-1.4-21.4-18.9-38-40.2-38.3C193.8,246.5,194.7,254.3,199.7,257.7z M198.6,283.3c-8.2-5.9-7.9-15.5-4.2-21.1l3.1-3.4
			c-4.8-3.9-5.9-11.3-1.1-16.3c-7,0.6-13.5,3.1-18.9,6.8c-1.7,7.6-3.9,14.6-3.9,22.5c0.3,10.7,4.5,19.4,14.1,20.5
			C191.6,292.9,198,288.1,198.6,283.3z M240,286.4c-2.3-8.4-10.7-17.7-18.6-22c-9.9-5.3-20.5-8.4-25.3-0.8
			c-3.1,4.8-3.4,12.7,3.4,17.7c9.3-6.5,16.9-0.3,18.9,5.1l1.1,4.8c5.6-2,14.4-0.6,17.2,7.9C238.6,295.2,239.7,290.9,240,286.4z"/>
		<path fill="#FFFFFF" d="M56.5,160.9C71.1,127.1,76.7,83.5,52,41c6.2,1.1,12.7,1.7,19.4,1.7c25.3,0,45.3-2.3,67.8-14.9
			c17.7,10.7,37.4,17.4,60.8,17.4s43.1-6.8,60.8-17.4c22.5,12.7,42.5,14.9,67.8,14.9c6.5,0,13.2-0.6,19.4-2
			c-24.8,42.5-19.4,86.1-4.5,119.9H56.5V160.9z"/>
		<g>
			<path fill="#BC0031" d="M111.1,39v121.7h42.8V35.4c-5-2.2-9.9-4.8-14.6-7.6C129.6,33.2,120.4,36.7,111.1,39z"/>
			<path fill="#BC0031" d="M199.4,121.8V79H66.6c3,14.7,3,29.1,1.1,42.8H199.4z"/>
			<path fill="#F8DC00" d="M346.3,41.1c-5.7,1.1-11.8,1.6-17.7,1.6c-2.7,0-5.3,0-7.9-0.1v118h22.8c-14.6-33-20-75.3,2.8-116.9V41.1z
				"/>
			<path fill="#F8DC00" d="M198,45.2v115.4h15.2V44.5c-4.3,0.5-8.7,0.8-13.2,0.8C199.3,45.2,198.7,45.2,198,45.2z"/>
			<path fill="#BC0031" d="M213.2,160.6h15.5v-119c-5,1.3-10.1,2.3-15.5,2.9V160.6z"/>
			<path fill="#F8DC00" d="M228.7,160.6h15.5V36.3c-5,2.1-10.1,3.9-15.5,5.3V160.6z"/>
			<path fill="#BC0031" d="M243.9,160.6h15.2V28.8c-4.9,2.9-10,5.4-15.2,7.6V160.6z"/>
			<path fill="#F8DC00" d="M259.4,28.6v132h15.5V34.5c-4.6-1.8-9.3-4-14.1-6.7C260.3,28.1,259.8,28.3,259.4,28.6z"/>
			<path fill="#BC0031" d="M274.6,160.6h15.2V39.2c-5.1-1.2-10.1-2.7-15.2-4.8V160.6z"/>
			<path fill="#F8DC00" d="M290.1,160.6h15.5V41.7c-5.3-0.5-10.4-1.3-15.5-2.5V160.6z"/>
			<path fill="#BC0031" d="M305.3,160.6h15.5v-118c-5.4-0.1-10.5-0.4-15.5-0.9V160.6z"/>
		</g>
		<path d="M56.5,160.9l1.1,0.6c7.6-17.2,12.7-36.9,12.7-58c0-20.3-4.8-41.9-17.2-63L52,41l-0.3,1.4c6.2,1.1,12.9,1.7,19.4,1.7
			c25.3,0,45.9-2.3,68.4-15.2l-0.6-1.1l-0.6,1.1c18,10.7,38,17.7,61.4,17.7c23.6,0,43.6-7,61.6-17.7l-0.6-1.1l-0.6,1.1
			c22.8,12.9,43.1,15.2,68.4,15.2c6.8,0,13.2-0.6,19.7-2L348,41l-1.1-0.6c-12.4,21.4-17.4,42.8-17.4,63.3c0,20.8,5.1,40.5,12.7,58
			l1.1-0.6v-1.4H56.5V160.9l1.1,0.6L56.5,160.9v1.4h288.7l-0.8-1.7c-7.3-16.9-12.4-36.3-12.4-56.8c0-20,4.8-41.1,16.9-61.9l1.4-2.5
			l-2.8,0.6c-6.2,1.1-12.7,2-19.1,2c-25.3,0-45-2.3-67.3-14.9l-0.6-0.3l-0.6,0.3c-17.4,10.7-37.1,17.2-59.9,17.2
			c-23.1,0-42.5-6.8-60.2-17.4l-0.6-0.3l-0.8,0.6c-22.2,12.7-41.9,14.9-67.3,14.9c-6.5,0-12.9-0.6-19.1-1.7l-2.8-0.6l1.4,2.3
			c12.1,20.8,16.9,41.7,16.9,61.9c0,20.5-5.1,40-12.4,56.8l-0.8,1.7h2v-1.4H56.5z"/>
		<polyline points="198,46.1 198,160.9 200.6,160.9 200.6,46.1 		"/>
		<polygon points="162.9,177.2 162.9,169.6 134.7,169.6 134.7,208.8 142.6,208.8 142.6,192.2 154.4,192.2 154.4,184.6 142.6,184.6 
			142.6,177.2 		"/>
		<polygon points="162.9,177.2 163.1,177.2 163.1,169.6 163.1,169.1 134.4,169.1 134.4,209.3 142.6,209.3 143.2,209.3 143.2,192.7 
			155,192.7 155,184.6 155,184.3 143.2,184.3 143.2,177.8 163.1,177.8 163.1,177.2 162.9,177.2 162.9,177 142,177 142,184.6 
			142,185.1 153.8,185.1 153.8,191.9 142,191.9 142,208.2 135.3,208.2 135.3,170.2 162.3,170.2 162.3,177.2 162.9,177.2 162.9,177 
					"/>
		<path d="M211.3,177.8c-2.5-5.1-6.8-8.7-14.4-8.7c-10.1,0-17.4,8.2-17.4,20.3c0,12.4,6.8,20.3,17.2,20.3c7,0,11.8-3.4,14.4-8.7
			l-6.5-3.9c-2,3.4-4.2,5.1-7.6,5.1c-5.9,0-9.3-5.3-9.3-12.4c0-7.3,3.4-12.4,9.3-12.4c3.7,0,5.6,1.7,7,4.2L211.3,177.8z"/>
		<path d="M211.3,177.8l0.6-0.3c-2.5-5.3-7.3-9-14.6-9c-10.4,0-17.7,8.4-17.7,20.5c0,12.4,7,20.5,17.4,20.5c7.3,0,12.1-3.4,14.9-9
			l0.3-0.3l-7.3-4.5l-0.3,0.3c-2,3.4-3.9,4.8-7.3,4.8c-5.6,0-8.7-5.1-8.7-11.8c0-7,3.1-11.8,8.7-11.8c3.4,0,5.3,1.4,6.8,3.9l0.3,0.3
			l8.2-3.7l-0.6-0.3L211.3,177.8l-0.3-0.6l-7.3,3.4l0.3,0.6l0.6-0.3c-1.4-2.8-3.9-4.5-7.6-4.5c-6.2,0-9.6,5.6-9.6,12.9
			c0,7,3.7,12.9,9.9,12.9c3.7,0,5.9-1.7,8.2-5.1l-0.6-0.3l-0.3,0.3l6.5,3.9l0.3-0.3l-0.6-0.3c-2.5,5.3-7,8.4-14.1,8.4
			c-9.8,0-16.6-7.6-16.6-19.7c0-11.8,7-19.7,16.9-19.7c7.3,0,11.5,3.4,13.8,8.4L211.3,177.8l-0.3-0.6L211.3,177.8z"/>
		<path d="M264.7,196.1c0-4.2-2.3-7-5.3-8.4c2.5-1.7,4.2-4.2,4.2-7.6c0-6.8-4.8-10.4-12.4-10.4h-18v39.1h17.7
			C259.1,208.8,264.7,204.3,264.7,196.1z M255.4,180.6c0,2.3-1.1,3.7-4.5,3.7h-10.4V177h9.8C254,177,255.4,178.1,255.4,180.6z
			 M256.6,196.1c0,3.1-1.7,5.1-5.6,5.1h-10.4V191h10.4C254.9,191.3,256.6,193,256.6,196.1z"/>
		<path d="M264.7,196.1h0.6c0-4.5-2.5-7.6-5.6-9l-0.3,0.6l0.3,0.3c2.8-1.7,4.5-4.5,4.2-7.9c0-7-5.1-10.7-12.9-10.7h-18.3v40h18.3
			c8.4,0,14.4-4.5,14.4-13.2H264.7h-0.6c0,7.9-5.1,12.1-13.5,12.1h-17.2v-38h17.4c7.3,0,11.8,3.4,11.8,9.9c0,3.1-1.4,5.6-3.9,7
			l-0.8,0.6l0.8,0.3c3.1,1.4,5.1,3.9,5.1,8.2H264.7z M255.4,180.6h-0.6c0,2-0.8,3.1-3.9,3.1h-9.8v-6.5h9.6c3.4,0,4.2,1.1,4.2,3.4
			H255.4h0.6l-1.4-3.1l-3.9-1.1h-9.9h-0.6v7.9v0.6h10.7l3.7-1.1l1.1-3.1H255.4z M256.6,196.1H256c0,2.8-1.4,4.5-5.1,4.5h-9.8v-9h9.8
			c3.7,0,5.1,1.4,5.1,4.5H256.6h0.6l-1.4-4.2c-1.1-0.8-2.5-1.4-4.5-1.4h-11v11h10.7c2,0,3.7-0.6,4.5-1.4l1.4-3.9H256.6z"/>
	</g>
</g>
<g>
</g>
<g>
</g>
<g>
</g>
<g>
</g>
<g>
</g>
<g>
</g>
<g>
</g>
<g>
</g>
<g>
</g>
<g>
</g>
<g>
</g>
<g>
</g>
<g>
</g>
<g>
</g>
<g>
</g>
</svg>
