<?xml version="1.0" encoding="utf-8"?>
<!-- Generator: Adobe Illustrator 22.0.1, SVG Export Plug-In . SVG Version: 6.00 Build 0)  -->
<svg version="1.2" baseProfile="tiny" id="Capa_1" xmlns="http://www.w3.org/2000/svg" xmlns:xlink="http://www.w3.org/1999/xlink"
	 x="0px" y="0px" viewBox="0 0 400 400" xml:space="preserve">
<g>
	<path fill="#B01630" d="M200.4,103.1c-79.7,0-144.7,65-144.7,144.7s65,144.7,144.7,144.7s144.7-65,144.7-144.7
		S280.1,103.1,200.4,103.1z"/>
</g>
<g>
	<path fill="#1D1D1B" d="M290.7,26.1l-3.3-1.8c-0.6-0.3-17.4,6.9-18.1,6.6l-3-1.8c-0.6-0.3-1.5-0.3-2.1,0.6l-4.8,8.4
		c-0.3,0.6-0.3,1.5,0.6,2.1l3,1.8c0.6,0.3,0.9,1.2,0.6,2.1l-2.4,4.5c-0.3,0.6-1.5,1.2-2.1,0.9l-17.7-5.7c-0.9-0.3-1.2-1.2-0.9-1.8
		l1.8-6.6c0.3-0.9,0.9-1.2,1.8-1.2l3.6,0.9c0.9,0.3,1.5-0.3,1.8-1.2l2.4-9.3c0.3-0.9-0.3-1.5-1.2-1.8l-3.6-0.9
		c-0.9-0.3-1.2-0.9-0.9-1.8l2.4-9c0.3-0.9-0.3-1.5-0.9-1.8l-9.3-2.4c-0.9-0.3-1.5,0.3-1.8,1.2l-2.4,9c-0.3,0.9-0.9,1.2-1.8,0.9
		l-3.6-1.2c-0.9-0.3-1.5,0.3-1.8,1.2l-2.4,9.3c-0.3,0.9,0.3,1.5,1.2,1.8l3,0.6c0.9,0.3,1.2,0.9,0.9,1.8l-1.8,6.9
		c-0.3,0.9-0.9,1.2-1.8,1.2l-18.1-2.4c-0.9,0-1.5-0.9-1.5-1.5v-7.2c0-0.9,0.6-1.5,1.5-1.5h3.6c0.9,0,1.5-0.6,1.5-1.5v-9.6
		c0-0.9-0.6-1.5-1.5-1.5h-3.6c-0.9,0-1.5-0.6-1.5-1.5V3.5c0-0.9-0.6-1.5-1.5-1.5h-9.6c-0.9,0-1.5,0.6-1.5,1.5v9.3
		c0,0.9-0.6,1.5-1.5,1.5h-3.6c-0.9,0-1.5,0.6-1.5,1.5v9.6c0,0.9,0.6,1.5,1.5,1.5h3.6c0.9,0,1.5,0.6,1.5,1.5v7.2
		c0,0.9-0.6,1.5-1.5,1.5l-18.1,2.4c-0.9,0-1.5-0.3-1.8-1.2l-1.8-6.9c-0.3-0.9,0.3-1.5,1.2-1.8l3.3-0.9c0.9-0.3,1.2-0.9,1.2-1.8
		l-2.7-9.3c-0.3-0.9-0.9-1.2-1.8-1.2l-3.3,1.2c-0.9,0.3-1.5-0.3-1.8-0.9l-2.4-9c-0.3-0.9-0.9-1.2-1.8-1.2l-9.3,2.4
		c-0.9,0.3-1.2,0.9-0.9,1.8l2.4,9c0.3,0.9-0.3,1.5-1.2,1.8l-3.6,0.9c-0.9,0.3-1.2,0.9-1.2,1.8l2.4,9.3c0.3,0.9,0.9,1.2,1.8,1.2
		l3.6-0.9c0.9-0.3,1.5,0.3,1.8,1.2l1.8,6.6c0.3,0.9-0.3,1.5-0.9,1.8l-17.7,5.4c-0.9,0.3-1.8,0-2.1-0.9l-2.4-4.5
		c-0.3-0.6-0.3-1.5,0.6-2.1l3-1.8c0.6-0.3,0.9-1.2,0.6-2.1l-5.1-7.8c-0.3-0.6-1.2-0.9-2.1-0.6l-3,1.8c-0.6,0.3-17.4-6.9-18.1-6.6
		l-3.3,1.8c-0.6,0.3-0.9,1.2-0.6,2.1l34.3,52c0.3,0.6,1.2,1.5,2.1,2.1c0,0,31.9,10.5,54.8,10.5l0,0l0,0c23.2,0,54.8-10.5,54.8-10.5
		c0.6-0.3,1.5-1.2,2.1-2.1l34.3-52C291.6,27.3,291.3,26.4,290.7,26.1z"/>
</g>
<g>
	<g>
		<path fill="#BD9600" d="M200.1,67c34.3,0,53.5,12.6,53.5,12.6l33.1-50.2l-0.6-0.3c0,0-14.4,6.9-16.2,6.9c-0.9,0-1.8-0.3-2.7-0.6
			l-0.9-0.6l-2.7,4.5l0.9,0.6c2.4,1.5,3.3,4.5,1.8,7.2l-2.4,4.5c-0.9,1.8-2.7,2.7-4.8,2.7c-0.6,0-1.2,0-1.8-0.3l-17.1-6.3
			c-2.7-0.9-4.2-3.6-3.6-6.3l1.8-6.6c0.6-2.4,2.7-3.9,5.1-3.9c0.6,0,0.9,0,1.2,0.3l1.5,0.3l1.2-5.1l-1.5-0.3c-1.2-0.3-2.4-1.2-3-2.4
			c-0.6-1.2-0.9-2.7-0.6-3.9l1.8-6.9l-4.8-1.2l-1.8,6.9c-0.6,2.4-2.7,3.9-5.1,3.9c-0.6,0-0.9,0-1.2-0.3l-1.2-0.3l-1.2,5.1l1.2,0.3
			c1.2,0.3,2.4,1.2,3,2.4c0.6,1.2,0.9,2.7,0.6,3.9l-1.8,6.9c-0.6,2.4-2.7,3.9-5.1,3.9c-0.3,0-0.6,0-0.9,0L207.6,42
			c-2.7-0.3-4.8-2.7-4.8-5.4v-6.9c0-3,2.4-5.1,5.1-5.1h1.5v-5.1h-1.5c-3,0-5.1-2.4-5.1-5.1V6.8h-5.1V14c0,3-2.4,5.1-5.1,5.1h-1.5
			v5.1h1.5c3,0,5.1,2.4,5.1,5.1v7.2c0,2.7-2.1,5.1-4.8,5.4l-18.1,2.4c-0.3,0-0.6,0-0.9,0c-2.4,0-4.5-1.5-5.1-3.9l-1.8-6.9
			c-0.3-1.2-0.3-2.7,0.6-3.9c0.6-1.2,1.8-2.1,3-2.4l1.2-0.3l-1.2-5.1l-1.2,0.3c-0.3,0-0.9,0.3-1.2,0.3c-2.4,0-4.5-1.5-5.1-3.9
			l-1.8-6.9l-5.1,1.2l1.8,6.9c0.3,1.2,0.3,2.7-0.6,3.9c-0.6,1.2-1.8,2.1-3,2.4l-1.5,0.6l1.2,5.1l1.5-0.3c0.3,0,0.9-0.3,1.2-0.3
			c2.4,0,4.5,1.5,5.1,3.9l1.8,6.6c0.6,2.7-0.9,5.4-3.6,6.3l-17.7,5.7c-0.3,0-0.9,0-1.5,0c-2.1,0-3.9-0.9-4.8-2.7l-2.4-4.5
			c-1.5-2.4-0.6-5.7,1.8-7.2l0.9-0.6l-2.7-4.5l-0.9,0.6c-0.9,0.6-1.8,0.6-2.7,0.6c-1.8,0-16.2-6.9-16.2-6.9l-0.6,0.3L146.3,79
			C146.6,79.6,165.8,67,200.1,67L200.1,67"/>
	</g>
</g>
<g>
	<g>
		<path fill="#FFFFFF" d="M200.4,364.8c-64.4,0-117-52.3-117-117c0-64.4,52.3-117,117-117c64.4,0,117,52.3,117,117
			S264.8,364.8,200.4,364.8z"/>
	</g>
	<g>
		<g>
			<path fill="#B01630" d="M256.7,152.1l-86.3,203.1c4.2,1.2,8.1,2.1,12.3,2.7l84.2-198.6C263.9,156.6,260.6,154.2,256.7,152.1z"/>
		</g>
		<g>
			<path fill="#B01630" d="M276.5,166.9L195,359.1c1.8,0,3.6,0,5.4,0c2.7,0,5.4,0,8.1-0.3l77.3-182
				C282.8,173.5,279.8,170.2,276.5,166.9z"/>
		</g>
		<g>
			<path fill="#B01630" d="M293.7,187.3L221.5,357c5.4-0.9,10.5-2.4,15.3-4.2l64.4-151.6C299.1,196.6,296.7,191.8,293.7,187.3z"/>
		</g>
		<g>
			<path fill="#B01630" d="M307.2,216.8l-55.1,129.7c6.6-3.6,13.2-7.8,19-12.6l40.3-94.8C310.8,231.2,309.3,224,307.2,216.8z"/>
		</g>
		<g>
			<path fill="#B01630" d="M235,142.2l-86.6,204c3.6,2.1,7.5,3.6,11.4,5.1L246.7,147C242.8,145.2,239.2,143.7,235,142.2z"/>
		</g>
		<g>
			<path fill="#B01630" d="M211.2,137.4l-83,195.2c3.3,2.7,6.6,5.4,10.2,7.8l85.4-201.3C220,138.3,215.8,137.7,211.2,137.4z"/>
		</g>
		<g>
			<path fill="#B01630" d="M185.1,137.7l-74.6,175.7c2.7,3.9,5.7,7.5,9,10.8l79.7-187.4C194.4,136.8,189.9,137.1,185.1,137.7z"/>
		</g>
		<g>
			<path fill="#B01630" d="M155.6,146.1L96,286.6c2.1,5.4,4.2,10.5,7.2,15.3l68.3-161.5C166.1,141.9,160.7,144,155.6,146.1z"/>
		</g>
		<g>
			<path fill="#B01630" d="M118.3,172.9l-28.9,68.3c0,2.4-0.3,4.5-0.3,6.9c0,7.2,0.6,14.1,2.1,21.1l48.4-114.3
				C131.8,159.9,124.6,166,118.3,172.9z"/>
		</g>
	</g>
</g>
<g>
	<path fill="#1D1D1B" d="M200.4,397c-82.1,0-148.9-66.8-148.9-148.9S118.3,99.2,200.4,99.2S349.3,166,349.3,248.1
		S282.5,397,200.4,397z M200.4,103.1c-79.7,0-144.7,65-144.7,144.7s65,144.7,144.7,144.7s144.7-65,144.7-144.7
		S280.1,103.1,200.4,103.1z"/>
</g>
<g>
	<polygon fill="#F4CF00" points="229.6,181 229.6,316.4 249.5,296.5 249.5,200.9 	"/>
</g>
<polygon fill="#F4CF00" points="210,329.6 210,165.7 199.8,155.7 190.2,165.4 190.2,329.9 199.8,339.5 "/>
<polygon fill="#B01630" points="229.6,309.8 229.6,185.5 210,165.7 210,329.6 "/>
<polygon fill="#B01630" points="170.3,185.2 170.3,310.1 190.2,329.6 190.2,165.4 "/>
<polygon fill="#B01630" points="130.9,224.9 130.9,270.3 150.5,290.2 150.5,205.1 "/>
<polygon fill="#B01630" points="269.3,270 269.3,224.9 249.5,205.4 249.5,289.9 "/>
<polygon fill="#F4CF00" points="150.5,205.1 150.5,290.2 170.3,310.1 170.3,185.2 "/>
<polygon fill="#F4CF00" points="108.1,247.8 130.9,270.3 130.9,224.9 "/>
<polygon fill="#F4CF00" points="249.5,290.8 249.5,206.3 229.6,186.4 229.6,310.7 "/>
<polygon fill="#F4CF00" points="291.9,247.8 269.3,225.2 269.3,270 "/>
<path fill="#1D1D1B" d="M199.8,147.6l-99.9,99.9l99.9,99.9l99.9-99.9L199.8,147.6z M170.3,310.1l-19.9-19.9l-19.6-19.9l-22.9-22.9
	l22.9-22.9l19.9-19.9l19.9-19.9l19.9-19.9l9.6-9.6l9.9,9.9l19.9,19.9l19.9,19.9l19.9,19.9l22.6,22.6L269.6,270l-19.9,19.9
	l-19.9,19.9L210,329.6l-9.9,9.9l-9.6-9.6L170.3,310.1z"/>
<g id="path4172_2_">
	<path fill="#FFFFFF" d="M199.8,298.9l-1.2-0.3c-6.9-3-42.4-18.1-42.4-31.9v-59h86.9v59c0,13.8-35.2,28.9-42.4,31.9L199.8,298.9z"/>
</g>
<g>
	<path fill="#B01630" d="M173,230"/>
</g>
<g>
	<g>
		<path fill="none" d="M194.4,286.3c-3,0-5.4,2.1-5.4,4.8c6,3,10.5,4.8,10.8,5.1v-4.8C199.8,288.4,197.4,286.3,194.4,286.3z"/>
	</g>
	<g>
		<path fill="none" d="M210.9,290.8c2.4-1.2,5.1-2.7,7.8-4.2c-0.6-0.3-1.5-0.6-2.4-0.6C213.7,286.3,211.2,288.1,210.9,290.8z"/>
	</g>
	<g>
		<path fill="none" d="M222.1,274.6v-11.1c0-2.7-2.4-5.1-5.4-5.1s-5.4,2.4-5.4,5.1v6v5.1c0,3.3-2.4,6-5.7,6c-3,0-5.7-2.7-5.7-6v-5.1
			v-6c0-2.7-2.4-5.1-5.4-5.1s-5.4,2.4-5.4,5.1v11.1c0,3.3-2.4,6-5.7,6c-3,0-5.4-2.7-5.4-6v-11.1c0-2.7-2.4-5.1-5.4-5.1
			s-5.4,2.4-5.4,5.1v6v5.1c0,0.9-0.3,1.8-0.6,2.4c0.3,0.3,0.6,0.6,0.9,0.9c1.2-1.5,3-2.4,5.1-2.4c3.6,0,6.3,2.7,6.3,6v3.9
			c3,1.8,6.3,3.6,9.3,4.8v-8.7c0-3.3,2.7-6,6.3-6s6.3,2.7,6.3,6v11.1c0,0.9,0.3,1.8,0.6,2.4c1.8-0.9,4.8-2.1,8.7-3.9v-9.6
			c0-3.3,3-6,6.3-6c3.3,0,6.3,2.7,6.3,6v2.7c2.1-1.2,3.9-2.4,5.7-3.9c-0.3,0-0.9,0.3-1.2,0.3C224.5,280.9,222.1,278.2,222.1,274.6z"
			/>
	</g>
</g>
<g>
	<g>
		<path fill="none" d="M183.3,214.7c2.4,0,4.2-1.8,4.5-4.2h-9C179.1,212.9,180.9,214.7,183.3,214.7z"/>
	</g>
	<g>
		<path fill="none" d="M205.2,214.7c2.4,0,4.2-1.8,4.5-4.2h-9C201,212.9,203.1,214.7,205.2,214.7z"/>
	</g>
	<g>
		<path fill="none" d="M227.5,214.7c2.4,0,4.2-1.8,4.5-4.2h-9C223.3,212.9,225.1,214.7,227.5,214.7z"/>
	</g>
	<path fill="#B01630" d="M157.1,208.7v58.1c0,6,6.9,12.9,21.4,21.1c10.2,5.7,20.5,9.9,20.5,9.9l0.9,0.3l0.9-0.3
		c0,0,10.2-4.2,20.5-9.9c14.4-8.1,21.4-15,21.4-21.1v-58.1H157.1z M238.3,247.8c-3.6,0-6.3,2.7-6.3,6v11.1c0,2.7-2.1,5.1-4.5,5.1
		c-2.4,0-4.5-2.4-4.5-5.1v-11.1c0-3.3-2.7-6-6.3-6s-6.3,2.7-6.3,6v11.1c0,2.7-2.1,5.1-4.5,5.1c-2.7,0-4.5-2.4-4.5-5.1v-11.1
		c0-3.3-3-6-6.3-6c-3.6,0-6.3,2.7-6.3,6v11.1c0,2.7-2.1,5.1-4.5,5.1s-4.5-2.4-4.5-5.1v-11.1c0-3.3-2.7-6-6.3-6s-6.3,2.7-6.3,6v11.1
		c0,2.4-1.5,4.2-3.3,4.8c-0.6-1.2-1.2-2.4-1.2-3.3v-13.5c3,0,5.4-2.7,5.4-6v-5.1v-6c0-2.7,2.4-5.1,5.4-5.1s5.4,2.4,5.4,5.1v11.1
		c0,3.3,2.4,6,5.4,6s5.7-2.7,5.7-6v-11.1c0-2.7,2.4-5.1,5.4-5.1s5.4,2.4,5.4,5.1v11.1c0,3.3,2.7,6,5.7,6s5.7-2.7,5.7-6v-5.1v-6
		c0-2.7,2.4-5.1,5.4-5.1c3,0,5.4,2.4,5.4,5.1v11.1c0,3.3,2.4,6,5.7,6c3,0,5.4-2.7,5.4-6v-11.1c0-2.7,2.4-5.1,5.4-5.1L238.3,247.8z
		 M216.4,275.5c-3.6,0-6.3,2.7-6.3,6v7.5c-3.3,1.5-6.3,3-9.3,4.2c0-0.3,0-0.3,0-0.6v-11.1c0-3.3-3-6-6.3-6c-3.6,0-6.3,2.7-6.3,6v6.6
		c-3-1.5-6.3-3.3-9.3-5.1v-1.5c0-3.3-2.7-6-6.3-6c-1.2,0-2.4,0.3-3.6,0.9c-0.6-0.6-1.5-1.2-2.1-1.8c0,0,0,0,0-0.3v-5.1v-6
		c0-2.7,2.4-5.1,5.4-5.1s5.4,2.4,5.4,5.1v11.1c0,3.3,2.4,6,5.4,6s5.7-2.7,5.7-6v-11.1c0-2.7,2.4-5.1,5.4-5.1s5.4,2.4,5.4,5.1v11.1
		c0,3.3,2.7,6,5.7,6c3,0,5.7-2.7,5.7-6v-5.1v-6c0-2.7,2.4-5.1,5.4-5.1s5.4,2.4,5.4,5.1v11.1c0,2.7,1.5,4.8,3.6,5.7
		c-0.9,0.6-1.8,1.2-2.7,1.8v-0.3C223,278.5,220,275.5,216.4,275.5z M238.3,220.1c-3.6,0-6.3,2.7-6.3,6v11.1c0,2.7-2.1,5.1-4.5,5.1
		c-2.4,0-4.5-2.1-4.5-5.1v-11.1c0-3.3-2.7-6-6.3-6s-6.3,2.7-6.3,6v11.1c0,2.7-2.1,5.1-4.5,5.1c-2.7,0-4.5-2.4-4.5-5.1v-11.1
		c0-3.3-3-6-6.3-6c-3.6,0-6.3,2.7-6.3,6v11.1c0,2.7-2.1,5.1-4.5,5.1s-5.4-2.1-5.4-5.1v-11.1c0-3.3-2.7-6-6.3-6s-6.3,2.7-6.3,6v11.1
		c0,2.7-2.1,5.1-4.5,5.1v-17.1c3,0,5.4-2.7,5.4-6v-5.1v-1.5h10.5v6.6c0,3.3,2.4,6,5.4,6s5.7-2.7,5.7-6v-6.6h10.8v6.6
		c0,3.3,2.7,6,5.7,6c3,0,5.7-2.7,5.7-6v-5.1v-1.5h10.8v6.6c0,3.3,2.4,6,5.7,6c3,0,5.4-2.7,5.4-6v-6.6h5.4L238.3,220.1z M179.7,212.6
		h7.2c-0.9,1.2-2.1,2.1-3.6,2.1C181.8,214.7,180.3,214.1,179.7,212.6z M201.6,212.6h7.2c-0.9,1.2-2.1,2.1-3.6,2.1
		C203.7,214.7,202.5,214.1,201.6,212.6z M223.9,212.6h7.2c-0.9,1.2-2.1,2.1-3.6,2.1C226,214.7,224.8,214.1,223.9,212.6z
		 M164.9,212.6c-0.9,1.2-2.1,2.1-3.6,2.1v-2.1H164.9z M189.3,289c0.9-1.8,2.7-3,4.8-3c3,0,5.4,2.4,5.4,5.1v2.4
		C196.5,292.6,192.9,290.8,189.3,289z M233.2,274.9L233.2,274.9v-11.1c0-2.7,2.4-5.1,5.4-5.1v8.1
		C238.3,269.1,236.2,271.9,233.2,274.9z"/>
</g>
<g>
	<path fill="#FFFFFF" d="M151.7,377.4c-1.8,0.9-3.3,0.6-5.1,0c-1.5-0.6-2.7-1.8-3.6-3.3c-0.9-2.1-0.3-3.9,1.2-6.9
		c1.2-3,2.1-4.8,4.2-5.7c1.5-0.6,3.3-0.6,4.8,0c3.3,1.5,4.5,4.5,3.6,7.2l-2.4-0.9c0.3-1.8-0.3-3.3-2.1-4.2c-0.9-0.3-1.8-0.3-2.7,0
		c-1.2,0.6-1.8,1.2-3,4.5c-1.2,3.3-1.5,4.2-1.2,5.4c0.3,0.9,0.9,1.5,1.8,1.8c0.9,0.3,2.1,0.3,3,0c0.9-0.3,1.5-1.2,1.8-2.1l0.3-0.9
		l-3.3-1.5l0.9-2.1l5.7,2.4l-0.9,2.4C154.1,375.6,153.2,376.8,151.7,377.4z"/>
	<path fill="#FFFFFF" d="M156.5,380.8l5.1-16.5l2.4,0.9l-5.1,16.5L156.5,380.8z"/>
	<path fill="#FFFFFF" d="M172.7,385.3l-1.8-7.8l-3.3-0.6l-1.5,7.2l-2.4-0.6l3.9-16.8l6.6,1.5c3.3,0.6,4.8,3.3,4.2,6
		c-0.6,2.4-2.4,3.6-4.5,3.6l2.1,8.4L172.7,385.3z M173,370.2l-3.9-0.9l-1.2,5.1l3.9,0.9c1.8,0.3,3-0.3,3.3-2.1
		C175.7,371.7,174.8,370.5,173,370.2z"/>
	<path fill="#FFFFFF" d="M189.6,385.9c-1.2,0.9-3,1.5-4.8,1.2c-1.8-0.3-3.3-0.9-4.2-2.4c-1.5-1.8-1.2-3.9-0.9-6.9
		c0.3-3.3,0.6-5.1,2.4-6.6c1.2-0.9,3-1.5,4.8-1.2s3.3,0.9,4.2,2.4c1.5,1.8,1.2,3.9,0.9,6.9C191.7,382.6,191.7,384.4,189.6,385.9z
		 M189,373.5c-0.6-0.6-1.5-1.2-2.4-1.2s-2.1,0.3-2.7,0.9c-0.9,0.9-1.2,1.8-1.5,5.1c-0.3,3.3-0.3,4.5,0.3,5.4
		c0.6,0.6,1.5,1.2,2.4,1.2c0.9,0,2.1-0.3,2.7-0.9c0.9-0.9,1.2-1.8,1.5-5.1C189.9,375.6,189.9,374.4,189,373.5z"/>
	<path fill="#FFFFFF" d="M206.1,388l-8.1-12l0.3,12h-2.7l-0.3-17.1h2.4l8.1,12l-0.3-12h2.7l0.3,17.1H206.1z"/>
	<path fill="#FFFFFF" d="M223,386.2l-1.5-3.3l-6.6,0.9l-0.6,3.6l-2.7,0.3l3.9-17.7l2.1-0.3l8.4,16.2L223,386.2z M217,373.5l-1.8,7.8
		l5.1-0.6L217,373.5z"/>
	<path fill="#FFFFFF" d="M232.3,368.4l1.8,6l7.2-2.1l0.6,1.5l-7.2,2.1l2.1,7.2l-1.8,0.6l-4.8-16.5l10.2-3l0.6,1.5L232.3,368.4z"/>
	<path fill="#FFFFFF" d="M253.1,377.7c-1.5,0.6-3.3,0.6-4.8,0c-2.1-0.9-2.7-2.4-4.2-5.7c-1.5-3.3-2.1-4.8-1.2-6.9
		c0.6-1.5,1.8-2.7,3.3-3.3c3-1.2,5.7-0.3,7.5,2.4l-1.8,0.6c-1.2-1.8-3-2.4-5.1-1.8c-1.2,0.3-1.8,1.2-2.4,2.1c-0.6,1.5-0.3,2.7,1.2,6
		c1.2,3.3,1.8,4.5,3.3,5.1c0.9,0.3,2.1,0.3,3.3,0c2.1-0.9,3-2.7,2.4-4.8l1.8-0.6C257.6,374.1,256.1,376.5,253.1,377.7z"/>
</g>
<g>
</g>
<g>
</g>
<g>
</g>
<g>
</g>
<g>
</g>
<g>
</g>
<g>
</g>
<g>
</g>
<g>
</g>
<g>
</g>
<g>
</g>
<g>
</g>
<g>
</g>
<g>
</g>
<g>
</g>
</svg>
