<?xml version="1.0" encoding="utf-8"?>
<!-- Generator: Adobe Illustrator 22.0.1, SVG Export Plug-In . SVG Version: 6.00 Build 0)  -->
<svg version="1.2" baseProfile="tiny" id="Capa_1" xmlns="http://www.w3.org/2000/svg" xmlns:xlink="http://www.w3.org/1999/xlink"
	 x="0px" y="0px" viewBox="0 0 400 400" xml:space="preserve">
<rect x="3" y="3.1" fill="none" width="394" height="394"/>
<g>
	<path d="M303.5,199.4v-5.2l5.2-1v5.2L303.5,199.4z M102.7,239.4V207l5.6-1v27.4l8.7-1.7v4.9L102.7,239.4z M120.4,235.9v-32.3
		l14.8-3v4.9l-9.2,1.9v8.3l7.1-1.4v4.9l-7.1,1.4v9.6l9.9-1.9v4.9L120.4,235.9z M151.5,197.5l5.4-1l-6.8,33.5l-5.6,1l-6.8-30.9l5.4-1
		l4,21.5L151.5,197.5z M165.1,215l4.5-0.9l-2.3-13.4L165.1,215z M163.3,227.4l-5.4,1l5.9-33.4l6.9-1.4l5.9,31.1l-5.4,1l-1-6.9
		l-6.1,1.2L163.3,227.4z M179.8,224.1v-32.3l5.2-1l6.8,17l0.2-18.4l5-1v32.3l-4.9,1l-7.1-18.8l-0.2,20.2L179.8,224.1z M205.4,191.6
		l-5.4,1v-4.9l16.3-3.3v4.9l-5.4,1v27.4l-5.6,1L205.4,191.6L205.4,191.6z M219.6,216.1v-32.3l14.8-3v4.9l-9.2,1.9v8.3l7.1-1.4v4.9
		l-7.1,1.4v9.6l9.9-1.9v4.9L219.6,216.1z M249.3,178l5.6-1v24.3c0,2.4,1,3.3,3,3c1.9-0.3,3-1.7,3-4.2v-24.3l5.6-1v24.1
		c0,2.8-0.7,5-2.3,6.8c-1.6,1.7-3.5,3-6.3,3.5c-2.6,0.5-4.7,0.2-6.3-0.9c-1.6-1.2-2.3-3.1-2.3-5.9L249.3,178L249.3,178z
		 M271.4,205.8v-5.2l5.2-1v5.2L271.4,205.8z M287.2,198.2l1.9-0.3l3.1-1.6c0.5-0.7,0.9-2.1,0.9-3.6v-14.1c0-1.7-0.3-2.8-0.9-3.3
		l-3.1-0.7l-1.9,0.3V198.2z M281.6,171.6l8.2-1.6c3-0.5,5-0.2,6.6,1c1.6,1.2,2.3,3.6,2.3,6.9v12.9c0,3.3-0.7,5.9-2.3,7.8
		c-1.4,1.9-3.6,3.1-6.6,3.6l-8.2,1.6V171.6z"/>
	<path d="M164.4,21.2c0-17.9,0-17.9,17.9-17.9c6.6,0,12.5,3.6,15.5,9h4.9c3.1-5.4,8.9-9,15.5-9c17.9,0,17.9,0,17.9,17.9
		c0,9.4-7.1,17-16.3,17.7c-1,2.8-1.6,5.9-1.6,9c0,14.8,12,26.8,26.8,26.8c14.8,0,26.8-12,26.8-26.8c0-10.1-5.6-18.9-13.7-23.5
		l6.3-12.7c92.9,25.9,131,124,65,243.9c3.5,4.5,5.4,10.1,5.4,16.2c0,14.8-12,26.8-26.8,26.8c-1.9,0-4-0.2-5.7-0.7
		c-19.8,26.6-44.1,53.9-74,81.1c-26.1,23.8-29.9,23.8-55.8,0c-29.9-27.4-54.4-54.5-73.7-81.1c-1.9,0.3-3.8,0.7-5.7,0.7
		c-14.8,0-26.8-12-26.8-26.8c0-6.1,2.1-11.6,5.4-16.2C5.3,136,43.3,37.8,136.2,12l6.3,12.7c-8.2,4.5-13.7,13.4-13.7,23.5
		c0,14.8,12,26.8,26.8,26.8s26.8-12,26.8-26.8c0-3.1-0.5-6.3-1.6-9.2C171.5,38.2,164.4,30.5,164.4,21.2z M209.6,322.2
		c4.2-1.4,7.8-3.3,10.4-5C216.9,319.3,213.4,321,209.6,322.2z M220,317l2.8-2.3L220,317z"/>
	<path fill="#FFFFFF" d="M303.5,199.4l5.2-1v-5.2l-5.2,1V199.4z M102.7,239.4l14.2-2.8v-4.9l-8.7,1.7V206l-5.6,1V239.4z
		 M120.4,235.9l15.5-3.1v-4.9l-9.9,1.9v-9.6l7.1-1.4V214l-7.1,1.4V207l9.2-1.9v-4.5l-14.8,3C120.4,203.6,120.4,235.9,120.4,235.9z
		 M151.5,197.5l-4.2,23.3l-4-21.5l-5.4,1l6.8,30.9l5.6-1l6.8-33.5L151.5,197.5z M163.3,227.4l1-7.3l6.1-1.2l1,6.9l5.4-1l-5.9-31.1
		l-6.9,1.4l-5.9,33.4L163.3,227.4z M179.8,224.1l5-1l0.2-20.2l7.1,18.8l4.9-1v-32.1l-5,1l-0.2,18.4l-6.8-17l-5.2,1L179.8,224.1
		L179.8,224.1z M205.4,191.6V219l5.6-1v-27.4l5.4-1v-4.9l-16.3,3.3v4.9L205.4,191.6z M219.6,216.1l15.5-3.1v-4.9l-9.9,1.9v-9.6
		l7.1-1.4v-4.9l-7.1,1.4v-8.3l9.2-1.9v-4.9l-14.8,3V216.1z M249.3,178v24.1c0,2.8,0.7,4.7,2.3,5.9c1.6,1.2,3.6,1.4,6.3,0.9
		c2.6-0.5,4.7-1.7,6.3-3.5c1.6-1.7,2.3-4,2.3-6.8v-24.1l-5.6,1v24.3c0,2.4-1,3.6-3,4.2c-1.9,0.3-3-0.5-3-3v-24.3L249.3,178z
		 M271.4,205.8l5.2-1v-5.2l-5.2,1V205.8z M281.6,171.6v32.3l8.2-1.6c3-0.5,5-1.7,6.6-3.6c1.6-1.9,2.3-4.5,2.3-7.8V178
		c0-3.3-0.7-5.7-2.3-6.9c-1.4-1.2-3.6-1.6-6.6-1L281.6,171.6z M325.9,158.2c1.2,13,0.3,27.3-3,42.2L93,246.3
		c-6.4-13.4-11.1-26.4-14.2-38.9L325.9,158.2z M165.1,215l2.3-14.2l2.3,13.4L165.1,215z M287.2,198.2v-23.1l1.9-0.3l3.1,0.3
		c0.5,0.5,0.9,1.7,0.9,3.3v14.1c0,1.7-0.3,3-0.9,3.6l-3.1,1.6L287.2,198.2z"/>
	<path fill="#990C40" d="M278.7,293.7c-13.4,18.4-29.9,37.4-49.9,56.6v-36.3c5.6-6.6,9-15.1,9-24.5c0-9.4-3.3-17.9-9-24.5v-41.9
		l49.9-9.9V293.7z M228.8,128.2c2.3,0.7,4.5,1.2,7.1,1.2c2.4,0,4.5-0.5,6.8-1c2.8,6.4,8.5,11.3,15.5,12.9l20.5,3.8v18.6l-49.9,9.9
		V128.2z M171.3,350.4c-20-19.3-36.5-38.2-49.9-56.6v-49l49.9-9.9v30.6c-5.6,6.6-8.9,15.1-8.9,24.3c0,9.2,3.3,17.7,8.9,24.3V350.4z
		 M121.5,145.2c11.8-2.4,20.5-4.2,20.5-4.2c6.9-1.6,12.9-6.4,15.5-12.9c2.3,0.5,4.5,1,6.9,1s4.9-0.3,6.9-1.2v57l-49.9,9.9V145.2z"/>
	<path fill="#CCA247" d="M230.4,304.9c-0.3-6.1-6.3-9.7-14.1-7.6c0-6.9-7.8-10.6-15.8-8.9c-6.9-7.6-4.5-17.2,8.3-15.1
		c7.5,1.2,18.8,6.8,25,18.4C233.7,296.3,232.3,300.9,230.4,304.9z M171.9,308.3c5.4,2.6,11.5-0.7,13.4-8.3c6.1,3.5,13-1.6,15.6-9.2
		c10.1-2.1,17.2,4.7,9,14.8c-4.7,5.9-15.3,12.7-28.3,12.5C177.8,315.5,174.5,312.2,171.9,308.3z M180.4,262.1
		c-5,10.9-4.2,22.4-1.6,29.2c1.2,3.1,2.6,5.4,4.2,6.9c-1.9,10.2-11.8,12-15.8,0c-0.7-2.8-1-5.7-1-8.7
		C166.3,278.3,171.9,268.2,180.4,262.1z M198.1,255.9c-5,3.3-5.4,10.4,0.3,16c-5.9,3.5-5.2,12.2,0.2,18.1
		c-3.3,9.9-12.7,12.5-17.4,0.3c-2.8-7.1-3.5-19.6,3.5-30.9C188.9,257.4,193.4,256,198.1,255.9z M233.9,286.6
		c-6.9-9.9-17.4-14.9-24.7-16c-3.3-0.5-6.1-0.3-8.2,0.2c-8.2-6.9-4.3-16.9,8.9-13.4c4,1,10.6,4.3,16,10.2
		C230.2,272.7,233.2,279.3,233.9,286.6z M220,317l2.8-2.3L220,317z M209.6,322.2c-3,0.9-6.1,1.4-9.4,1.4c-5,0-9.7-1-14.1-3
		c12-1,21.4-7.6,25.9-13.2c2.1-2.6,3.3-5,4-7.1c10.1-3.6,16.7,4.7,7.3,14.4l-0.3,0.3l-2.8,2.3C216.9,319.3,213.4,321,209.6,322.2z
		 M209.6,322.2c3.8-1,7.3-2.8,10.4-5C217.4,318.9,213.7,320.8,209.6,322.2z"/>
	<path fill="#1C5CA2" d="M175.2,261.4V234l49.9-9.9v37.4c-6.6-5.9-15.3-9.4-24.8-9.4C190.6,251.9,181.8,255.5,175.2,261.4z
		 M117.7,288.2c-9.2-13-16.7-25.9-22.9-38.4l22.9-4.5V288.2z M225,354c-2.3,2.1-4.5,4.3-6.9,6.4c-1.9,1.7-14.6,14.8-17.7,14.8
		c-3.3,0-16.3-13-18.2-14.8c-2.4-2.1-4.7-4.3-6.9-6.4v-36.1c6.6,5.9,15.5,9.4,25,9.4s18.2-3.5,24.8-9.4V354z M322.1,204.6
		c-6.1,25.7-18.9,54-39.6,83.7v-75.7L322.1,204.6z M77.9,203.7c-4.9-20.7-5.2-39.6-2.1-56.5c3-15.8,11.1-23.6,17-23.6
		c2.8,0,5,2.3,5,5s-2.3,5-5.2,5h-3.8l0.2,16.7c0,0,5.6,0,11.6-1c5.9-1,11.6-2.3,17-3.3v49.9L77.9,203.7z M282.5,145.9l17.2,3.5
		c4.3,0.9,8.2,1.2,11.6,1.2l0.2-16.7h-4c-3,0-5.2-2.3-5.2-5s2.3-5,5-5c5.9,0,14.1,7.8,17,23.6c0.5,2.4,0.9,4.7,1,7.1l-43.1,8.5
		v-17.2H282.5z M175.2,126.4c1.9-1.2,3.8-2.6,5.4-4.3c5.4,4.3,12.2,7.1,19.6,7.1s14.2-2.6,19.6-7.1c1.6,1.7,3.3,3.1,5.2,4.2v48.1
		l-49.9,9.9C175.2,184.3,175.2,126.4,175.2,126.4z"/>
	<path fill="#B1B1B0" d="M274.4,26.4c50,19.3,80.3,64.1,77,124.6c-0.7-42-20.2-75-51.9-94.5l-2.3-1.2c-4.2,20.5-21,36.5-42.9,36.5
		c-12.9,0-24.1-5.4-31.8-13.9c6.1,4.5,13.7,7.3,22.1,7.3c20.5,0,37-16.5,37-37C281.5,39.9,278.9,32.5,274.4,26.4z M125.5,26.4
		c-4.3,6.1-6.9,13.6-6.9,21.7c0,20.5,16.5,37,37,37c8.3,0,15.8-2.8,22.1-7.3c-7.6,8.5-18.9,13.9-31.8,13.9
		c-21.9,0-38.7-16-42.9-36.5l-2.3,1.2c-32,19.5-51.2,52.5-52.1,94.3C45.2,90.5,75.4,45.7,125.5,26.4z"/>
	<path fill="#ECC31F" d="M200.2,125.4c-8,0-15.3-3.5-20.2-9c-3.1,5.6-8.9,9.2-15.6,9.2l-4.3-0.5c0.3-1.7,0.5-3.5,0.5-5.2l-0.3-4.2
		l4.2,1c4.9,0,8.9-4,8.9-8.9v-6.1h9.2c1.4,8.3,8.7,14.8,17.5,14.8s16.2-6.4,17.5-14.8h9.2v6.1c0,4.9,4,8.9,8.9,8.9l4.2-1l-0.3,4.2
		c0,1.7,0.2,3.6,0.5,5.2l-4.3,0.5c-6.8,0-12.5-3.6-15.6-9.2C215.3,121.8,208.2,125.4,200.2,125.4z M101.7,128.7c0-4.9-4-8.9-9-8.9
		c-8.9,0-17.9,10.6-20.8,26.8C61.2,202.9,90,281.4,179.3,363.4c23.5,21.5,18.8,20.7,41.2,0c89.5-82,118.1-160.5,107.5-216.8
		c-3-16.2-12-26.8-20.8-26.8c-4.9,0-9,4-9,8.9c0,4.9,4,9,9,9l-0.2,9c-9.9,0-17.9-8-17.9-17.9s8-17.9,17.9-17.9
		c17.9,0,25.5,18.1,28.7,35.8c10.4,59.8-20.8,140.5-110.3,222.5c-27.6,25.4-24,25.4-51.6,0C84.3,287.3,53,206.5,63.5,146.8
		c3.1-17.7,10.8-35.6,28.7-35.8c9.9,0,17.9,8,17.9,17.9c0,9.9-8,17.9-17.9,17.9l-0.2-9C97.7,137.6,101.7,133.6,101.7,128.7z
		 M135.4,101.8l1.9-0.2c9.9,0,18.1,8.2,18.1,18.1c0,8.7-6.1,15.8-14.2,17.7l-0.7,0.2l-29.9,5.7c3.3-4,5.4-9.2,5.4-14.8
		c0-8.9-5-16.7-12.5-20.5L135.4,101.8z M264.8,101.8l32.1,6.4c-7.5,3.8-12.5,11.6-12.5,20.5c0,5.6,1.9,10.8,5.4,14.8l-30.1-5.9
		l-0.7-0.2c-8.2-1.7-14.2-9-14.2-17.7c0-9.9,8.2-18.1,18.1-18.1L264.8,101.8z"/>
</g>
<g>
</g>
<g>
</g>
<g>
</g>
<g>
</g>
<g>
</g>
<g>
</g>
<g>
</g>
<g>
</g>
<g>
</g>
<g>
</g>
<g>
</g>
<g>
</g>
<g>
</g>
<g>
</g>
<g>
</g>
</svg>
