<svg xmlns="http://www.w3.org/2000/svg" width="266" height="300" viewBox="0 0 266 300">
  <g fill="none" transform="matrix(1 0 0 -1 -.376 301.167)">
    <path fill="#A7D6F5" d="M121.73052,136.338182 C121.73052,136.338182 74.6232434,88.4055728 7.60572289,133.083108 C7.60572289,133.083108 -12.073233,79.6531485 21.7921977,0.340845456 L121.73052,77.3232263 L170.00641,114.5119 C140.016879,117.737759 121.73052,136.338182 121.73052,136.338182" transform="translate(11.306 152.276)"/>
    <polygon fill="#00489A" points="0 48.692 77.873 48.692 20.098 2.035 7.647 14.486" transform="translate(13 145.996)"/>
    <path fill="#00489A" d="M192.334222,236.157209 L72.8045894,141.217142 L0.718210068,83.9599743 C18.1013283,57.6613127 41.4784574,29.5805164 72.8045894,0.42849143 C182.177027,102.20251 194.922212,190.953798 192.334222,236.157209" transform="translate(60.23 17.41)"/>
    <polygon fill="#FFF" points="145.012 14.131 135.061 14.131 135.061 161.8 145.012 161.8"/>
    <polygon fill="#FFF" points="169.883 41.138 159.933 41.138 159.933 190.687 169.883 190.687"/>
    <polygon fill="#FFF" points="193.039 68.435 183.089 68.435 183.089 211.544 193.039 211.544 193.039 68.435"/>
    <polygon fill="#FFF" points="217.224 102.283 207.274 102.283 207.274 230.035 217.224 230.035 217.224 102.283"/>
    <polygon fill="#FFF" points="240.723 142.795 230.773 142.795 230.773 248.372 240.723 248.372 240.723 142.795"/>
    <path fill="#C39400" d="M46.2575976,38.9537664 L23.8737896,37.8606263 C23.8737896,37.8606263 17.5705833,37.731592 17.2492147,37.731592 C16.9278461,37.731592 12.0391484,35.6719116 11.2673769,35.6719116 C10.4931708,35.6719116 4.73775184,29.9164926 4.73775184,29.9164926 L2.00368436,25.0594448 L1.03957864,22.8098648 L1.03957864,19.2066414 L2.58312163,11.1651233 C2.58312163,11.1651233 5.02747048,8.23872159 5.50952334,8.23872159 C5.99157619,8.23872159 14.8681657,1.00305948 14.8681657,1.00305948 L48.9600151,22.4227618 L48.4438777,37.2811891 L46.2575976,38.9537664 Z" transform="translate(73.54 188.366)"/>
    <path fill="#4C2A1F" d="M26.9024449,26.0819812 C25.3175135,26.4544766 24.1975928,26.5883802 23.4063444,27.3601517 C22.6126614,28.1319232 22.6418767,28.6918836 20.5115926,28.051581 C18.3788739,27.4137131 16.5748276,27.4137131 15.591245,27.4137131 C14.6076624,27.4137131 14.1158711,27.7862085 12.8036161,27.4137131 C11.4937957,27.0412177 10.8924469,27.4648399 10.8924469,26.4544766 C10.8924469,25.4441133 10.3300519,25.3126443 11.104258,24.8987606 C11.2965923,24.7940723 11.6155262,24.7064263 12.0050639,24.6285188 C11.8443796,24.5749574 11.7202145,24.4824422 11.479188,24.3753193 L11.2235539,24.3753193 C11.0701735,24.3753193 10.9630506,24.2974118 10.87297,24.1756813 C9.75061465,23.8981357 9.86747595,24.114816 9.42194225,23.6692823 C8.97397393,23.2188794 9.10057368,22.9291607 8.39210205,21.6412518 C7.68606503,20.3557776 7.04332789,21.577952 6.56127503,22.0600048 C6.07678756,22.5420577 6.3665062,21.1275491 6.3665062,20.7720959 L6.3665062,19.8079902 C6.3665062,19.3259374 6.01348769,19.4549717 6.01348769,18.7465001 C6.01348769,18.0404631 5.5947347,18.3301817 5.5947347,17.9747286 C5.5947347,17.7044868 5.59230009,17.453722 5.4778734,17.2199994 C4.78644405,16.772031 3.16499352,14.8438196 3.15282047,14.3155092 C2.9507478,14.2376016 2.75110975,14.1669979 2.60503313,14.0184867 C2.32992215,13.7458103 1.99394592,13.7945025 1.41450864,13.7945025 C0.835071367,13.7945025 0.803421432,13.7312027 0.579437275,13.5047839 C0.353018508,13.2807997 0.579437275,12.8936967 0.579437275,12.5406782 C0.579437275,12.1876597 0.579437275,12.0245408 1.21973981,12.3142594 C1.62631975,12.4968552 1.64823124,12.4505976 1.73831183,12.4384245 C0.73281773,11.8638565 0.888632796,10.5759476 0.888632796,10.5759476 L1.09314007,7.56433451 L2.49304105,7.56433451 C2.5758178,7.56433451 2.63911767,7.57163834 2.69998293,7.57894218 C2.71945982,7.48642698 2.73406748,7.38417334 2.73406748,7.26244282 C2.73406748,6.40545996 3.3475893,7.26244282 3.76390768,7.6787612 C4.17779145,8.09507958 4.62332515,7.89787614 5.08833574,8.36288672 C5.55334632,8.83033192 5.33179678,9.68974939 5.33179678,10.2277983 C5.33179678,10.2277983 4.62332515,9.7627877 4.4017756,9.54123816 C4.31656424,9.45602679 4.13883768,9.4097692 3.91972274,9.35377316 C4.03414943,9.49011134 4.17292223,9.64349179 4.37012567,9.84069524 C5.44135424,10.9094892 5.10537801,10.5759476 5.84306496,10.5759476 C6.5783173,10.5759476 6.64648639,11.379369 6.64648639,12.5845012 C6.64648639,12.8255276 6.60753263,13.0349041 6.55640581,13.2248037 C6.61970568,13.2783651 6.70248243,13.3343612 6.836386,13.3879226 C7.59598445,13.6898143 7.3963464,13.947883 7.93439529,13.947883 C8.16324867,13.947883 8.38479822,13.7579834 8.58200166,13.541303 C8.49192108,13.2174999 8.41644815,12.9521273 8.69155913,12.679451 C9.12005056,12.2509595 9.59966881,12.1389675 10.1864099,12.1389675 C10.6514205,12.1389675 11.1772963,11.4718842 11.4718842,11.2868538 C11.7129106,10.9265315 12.1316636,10.2326675 11.929591,10.0305948 C11.6569146,9.75791848 11.5132726,8.80842043 11.5132726,8.23141776 C11.5132726,7.92709146 11.4718842,7.38904256 11.5790071,6.97759341 C11.5327495,6.93863964 11.4864919,6.89968587 11.4402343,6.86073211 L11.0872158,6.86073211 C10.9021854,6.86073211 10.7415011,6.51745204 10.15476,6.51745204 C9.56801887,6.51745204 9.67027251,6.22286418 9.43654991,5.60690775 C9.2003927,4.98851671 10.0013795,4.51376768 10.3300519,4.18266067 C10.6611589,3.85155365 10.8145394,3.50827359 10.8145394,2.84605956 C10.8145394,2.18628014 11.4304958,2.32261832 11.5376187,2.32261832 L11.9709793,2.65615995 C12.1048829,2.64885612 12.2777402,2.66102917 12.5138975,2.70241754 C14.0598751,2.97022469 14.8438196,2.43217579 15.9953903,4.90817457 C17.1493957,7.38417334 17.1493957,7.92222224 17.1493957,8.41401354 C17.1493957,8.90337023 17.2954723,9.78713381 17.2954723,9.78713381 C17.2954723,9.78713381 16.9789729,9.84312985 16.5504815,9.89182206 C17.222434,10.5662091 17.3003415,10.7098511 17.3003415,11.929591 C17.3003415,13.1834153 17.3977259,14.147521 17.3977259,14.985027 C17.3977259,15.459776 17.509718,16.0148672 17.5438025,16.4092741 C17.6022332,16.4652701 17.6679677,16.5310046 17.7117907,16.5772622 C18.3253125,17.190784 19.2066414,16.6989927 19.2066414,17.5803217 C19.2066414,18.4640853 19.6984327,18.953442 19.2066414,18.953442 C18.7172848,18.953442 17.9333402,18.1694974 17.4926757,17.7288329 C17.2029571,17.4391143 17.0179267,17.5243257 16.8085502,17.322253 C16.7549888,17.5291949 16.6892543,17.3125146 16.0952094,17.6387523 C15.3867377,18.0234208 15.9832173,18.0063785 15.3867377,18.6028581 C14.7926928,19.196903 15.5498566,19.2772451 14.7123506,19.6326983 C13.8772793,19.9857168 13.0397733,19.9857168 12.7500547,19.9857168 C12.5723281,19.9857168 12.3946015,20.0831012 12.2850441,20.0295398 C12.3361709,20.1950933 12.4019054,20.377689 12.5114628,20.6138463 C13.1225501,21.9309705 13.297842,21.0788568 14.27899,21.4805676 C14.841385,21.7118555 15.216315,22.327812 15.4402992,22.8147341 C15.6253295,22.8342109 15.8322714,22.8950762 16.0148672,22.8950762 C16.3386704,22.8950762 16.8182886,22.8950762 17.0130575,22.702742 C17.0252305,22.6905689 17.0520112,22.6930035 17.0666189,22.6832651 C16.9716691,22.6881343 16.8645462,22.6954381 16.7282081,22.7246535 C16.3386704,22.8049956 15.7811446,22.7246535 15.7811446,22.7246535 C15.7811446,22.7246535 15.8614868,22.6443113 16.0392133,22.4665848 C16.2145053,22.2912928 16.6746466,21.7435055 17.1007034,21.5828212 C17.5243257,21.4245715 17.6557946,21.2395411 17.9820324,20.9133033 C18.3082702,20.5846309 18.3180086,20.5408079 19.0435225,20.5408079 C19.7666018,20.5408079 19.3794988,20.4336851 19.6789559,20.134228 C19.9784129,19.8347709 20.1634433,20.0173667 21.6948133,20.2413509 C22.7782149,20.3996005 22.0673087,20.4921157 22.0673087,20.4921157 C22.0673087,20.4921157 22.1719969,20.5943694 21.9577512,20.5943694 C21.7483747,20.5943694 21.5000444,20.6820153 21.1640682,20.6820153 C20.828092,20.6820153 20.6162809,20.7891382 20.1731818,20.8597419 C19.7325173,20.9303456 19.815294,21.1202452 19.340545,21.3296217 C18.865796,21.5389982 19.0143072,21.6436865 18.7513693,21.9626204 C18.4884314,22.283989 18.5225159,22.2328622 18.3301817,22.4227618 C18.1987127,22.5566654 17.9893362,22.6297037 17.7921328,22.6662228 C17.9260364,22.6856997 18.0502015,22.702742 18.1378475,22.702742 C18.4275661,22.702742 18.4762583,22.3643311 18.6199003,22.2206891 C18.765977,22.0770471 18.9753535,21.8676706 19.1189955,21.721594 C19.2650721,21.577952 19.440364,21.4002254 19.6497405,21.1908489 C19.859117,20.9814724 20.3582122,21.1908489 20.5821963,20.9668648 C20.8086151,20.740446 21.1616336,20.9668648 21.5803866,20.9668648 C21.996705,20.9668648 22.240166,20.8548727 22.5128424,21.1275491 C22.7855187,21.4002254 23.0581951,21.1275491 23.3795637,21.1275491 C23.7009322,21.1275491 23.927351,21.996705 23.927351,21.996705 C23.927351,21.996705 24.0612546,22.2547737 24.1562044,22.5858807 C24.246285,22.5737076 24.3266271,22.5664038 24.3874924,22.5664038 C24.9352797,22.5664038 25.5901899,22.9413338 25.5901899,22.9413338 C25.5901899,22.9413338 27.201902,24.5116575 27.7496893,25.0448372 C28.2950421,25.5755823 28.4873763,25.7094858 26.9024449,26.0819812 L26.9024449,26.0819812 Z" transform="translate(79.31 195.322)"/>
    <path fill="#4C2A1F" d="M4.8692208,4.8692208 C5.28797379,5.28797379 5.15407022,5.35614288 5.5484771,5.75054976 C5.94044938,6.14495665 5.899061,6.70248243 5.57525782,7.023851 C5.57525782,7.023851 4.74018645,7.08715087 3.8393806,6.31537938 C2.93857475,5.54360788 3.22829339,6.02809535 2.68294066,5.48030801 C2.38591819,5.18328554 2.32992215,4.961736 2.40052585,4.75966333 C2.32261832,4.72557879 2.2471454,4.69149424 1.99151131,4.43586015 C1.42668169,3.87346515 1.41207403,4.14614151 0.866721302,3.59835417 C0.318933962,3.05300144 1.02497098,3.11630131 1.02497098,2.28122994 C1.02497098,1.44372397 1.34633955,1.95986137 1.89412689,1.7334426 C2.43947962,1.50702384 2.53686404,1.7334426 2.98726696,2.47356417 C3.43766988,3.21368573 3.30863553,2.79493274 3.87103054,4.14614151 C3.89294203,4.19970294 3.91241891,4.24109132 3.92946119,4.28734891 C4.16561839,4.35064878 4.53324456,4.53324456 4.8692208,4.8692208" transform="translate(76.523 208.234)"/>
    <path fill="#4C2A1F" d="M7.3038312,2.4346104 C7.21861984,2.44678345 7.0920201,2.45652189 6.9069897,2.45652189 C6.51501743,2.45652189 4.13396846,2.4346104 3.3013317,2.4346104 L2.46869495,2.4346104 C2.46869495,2.4346104 2.05724579,2.32748754 1.97446903,1.94038449 C1.96229598,1.88438845 1.94768832,1.83813085 1.93308066,1.79674248 C1.47780851,1.68231579 0.715775458,0.530745067 0.925151952,0.740121562 C1.1467015,0.961671108 2.59286008,1.13452845 3.52288125,1.13452845 L6.17173736,1.13452845 C6.47849827,1.13452845 6.71465548,1.27817046 6.90455509,1.46320085 L6.91429354,1.46320085 C8.61608621,1.46320085 8.66964763,2.11080722 10.1377177,1.78700403 C11.6057878,1.46563546 12.0196715,1.17835143 13.1298539,1.46563546 C14.2424708,1.75048488 13.3100151,2.50277949 15.2796149,1.84056546 C17.2516493,1.17835143 17.7166599,0.981147991 18.3253125,1.37555488 C18.9339651,1.76996176 19.328372,2.05724579 20.190224,2.05724579 C21.0496415,2.05724579 22.3594619,2.4346104 22.3594619,2.4346104 L7.3038312,2.4346104 Z" transform="translate(90.435 222.408)"/>
    <path fill="#4C2A1F" d="M4.8692208,4.8692208 C4.78157483,4.62089054 4.89843612,4.6354982 4.51620229,3.98789184 C4.13640307,3.34272008 4.13640307,3.34272008 3.90024586,3.10656287 C3.66652326,2.87284027 3.75416924,2.82901728 3.3938469,2.60016391 C3.03352456,2.37374514 2.77058664,1.94768832 2.60746774,1.78700403 C2.44678345,1.62631975 2.63911767,1.55084682 2.31531449,1.22947825 C1.99151131,0.905675069 1.65553507,0.567264223 1.59466981,0.508833574 C1.53623916,0.450402924 1.64092741,0.333541625 1.64092741,0.333541625 C1.64092741,0.333541625 1.74318105,0.628129483 2.28609917,0.847244419 C2.82901728,1.06635936 2.91666326,1.39016254 3.3938469,1.63362358 C3.87103054,1.87465001 3.92215735,1.96959981 4.35551801,2.40296046 C4.78887866,2.83632112 4.79618249,2.9020556 4.88382846,3.18203579 C4.97147444,3.45958138 4.84000548,3.38654307 5.07372807,3.98789184 C5.30988528,4.5892406 5.48517723,4.81079015 5.48517723,4.95686677 C5.48517723,5.1029434 4.95686677,5.11998567 4.8692208,4.8692208" transform="translate(83.98 193.636)"/>
    <polygon fill="#C86606" points="54.631 214.699 61.234 214.699 61.234 221.531 54.631 221.531"/>
    <path fill="#1D1D1B" d="M54.8189375,214.886643 L61.0442363,214.886643 L61.0442363,221.343229 L54.8189375,221.343229 L54.8189375,214.886643 Z M61.4216009,214.509278 L54.4440075,214.509278 L54.4440075,221.718159 L61.4216009,221.718159 L61.4216009,214.509278 Z"/>
    <polygon fill="#C86606" points="0 2.435 4.75 2.347 4.75 .192 .375 .192" transform="translate(55.614 212.686)"/>
    <path fill="#1D1D1B" d="M2.4346104,2.4346104 L6.461456,2.4346104 L6.461456,4.21674521 L2.12298027,4.29708736 L2.4346104,2.4346104 Z M6.83882061,2.05724579 L2.11811105,2.05724579 L1.67744657,4.6817558 L6.83882061,4.58437138 L6.83882061,2.05724579 Z" transform="translate(53.714 210.633)"/>
    <path fill="#C86606" d="M9.7384416,7.3038312 C9.7384416,7.3038312 8.6136516,8.3336714 7.90517997,7.81753399 C7.19670834,7.3038312 7.95387218,6.70978626 6.71465548,6.14495665 C5.4778734,5.58256165 4.47968314,6.87047055 3.8856382,7.46451549 C3.29159326,8.05856042 2.30801066,7.88326848 2.30801066,7.88326848 L2.30801066,0.131468962 C2.30801066,0.131468962 7.19670834,2.09376494 9.31968861,2.19114936 L9.64105718,2.19114936 L9.7384416,7.3038312 Z" transform="translate(52.17 207.698)"/>
    <path fill="#1D1D1B" d="M2.4346104,9.7384416 L2.4346104,2.43217579 C3.48149287,2.84119034 7.3744349,4.31656424 9.24908491,4.4017756 L9.39516153,4.4017756 L9.48524212,9.24421569 C9.30508095,9.39272692 8.77190127,9.79930686 8.30445607,9.79930686 C8.16811789,9.79930686 8.0536912,9.7627877 7.95387218,9.68974939 C7.71528036,9.51689205 7.68849964,9.35133855 7.6544151,9.12248517 C7.60085367,8.78407432 7.53511919,8.36532133 6.73169776,8.00012977 C6.50284438,7.89544153 6.26912178,7.84431471 6.03296457,7.84431471 C5.12972411,7.84431471 4.42125249,8.58930549 3.90268047,9.13465822 C3.82720755,9.21500036 3.75660385,9.29047329 3.69086937,9.35620777 C3.31350475,9.73113777 2.72919826,9.75791848 2.4346104,9.7384416 L2.4346104,9.7384416 Z M2.05724579,1.87708462 L2.05724579,10.0646794 L2.21306085,10.0914601 C2.22036468,10.0938947 2.36887592,10.1182408 2.58312163,10.1182408 C2.98239774,10.1182408 3.54479274,10.0330295 3.9562419,9.6215803 C4.02441099,9.55341121 4.0974493,9.47550368 4.17535684,9.39272692 C4.64767125,8.89850101 5.29284301,8.21924471 6.03296457,8.21924471 C6.21556035,8.21924471 6.39572152,8.26063309 6.57588269,8.34097523 C7.19427373,8.62339004 7.23566211,8.88145874 7.28191971,9.18091582 C7.32087347,9.42437686 7.36956568,9.72870316 7.73232263,9.99407569 C7.89787614,10.1133716 8.09021036,10.1742369 8.30445607,10.1742369 C9.02023153,10.1742369 9.77252615,9.49498056 9.80174147,9.46576524 L9.86504134,9.4097692 L9.7627877,4.0268456 L9.25638874,4.0268456 C7.19914295,3.9318958 2.3640067,2.00124975 2.31531449,1.98177287 L2.05724579,1.87708462 Z" transform="translate(52.232 205.674)"/>
    <path fill="#C39400" d="M4.8692208,2.4346104 C4.8692208,1.43155092 4.05362632,0.618391042 3.05300144,0.618391042 C2.04994196,0.618391042 1.23434747,1.43155092 1.23434747,2.4346104 C1.23434747,3.43766988 2.04994196,4.25326437 3.05300144,4.25326437 C4.05362632,4.25326437 4.8692208,3.43766988 4.8692208,2.4346104" transform="translate(84.697 255.132)"/>
    <path fill="#1D1D1B" d="M2.4346104,4.8692208 C1.53623916,4.8692208 0.805856042,4.13883768 0.805856042,3.24046644 C0.805856042,2.3420952 1.53623916,1.61171208 2.4346104,1.61171208 C3.33298164,1.61171208 4.06336476,2.3420952 4.06336476,3.24046644 C4.06336476,4.13883768 3.33298164,4.8692208 2.4346104,4.8692208 M2.4346104,1.23434747 C1.32929728,1.23434747 0.42849143,2.13515332 0.42849143,3.24046644 C0.42849143,4.34577956 1.32929728,5.24658541 2.4346104,5.24658541 C3.53992352,5.24658541 4.43829476,4.34577956 4.43829476,3.24046644 C4.43829476,2.13515332 3.53992352,1.23434747 2.4346104,1.23434747" transform="translate(85.315 254.327)"/>
    <polygon fill="#C39400" points="7.304 2.435 7.304 7.131 1.354 7.131 1.354 2.082 7.335 2.082" transform="translate(83.42 250.678)"/>
    <path fill="#1D1D1B" d="M2.4346104,2.4346104 L8.02204127,2.4346104 L8.00986822,2.58312163 L8.00743361,7.10662776 L2.4346104,7.10662776 L2.4346104,2.4346104 Z M8.43349043,2.0596804 L2.0596804,2.0596804 L2.0596804,7.48399237 L8.38479822,7.48399237 L8.38479822,2.60016391 L8.43349043,2.0596804 L8.43349043,2.0596804 Z" transform="translate(82.528 250.513)"/>
    <polygon fill="#C39400" points="88.57 241.984 98.355 241.984 98.355 253.305 88.57 253.305"/>
    <path fill="#1D1D1B" d="M88.7574065,242.173756 L98.1647411,242.173756 L98.1647411,253.119764 L88.7574065,253.119764 L88.7574065,242.173756 Z M98.5421057,241.796391 L88.3824765,241.796391 L88.3824765,253.494694 L98.5421057,253.494694 L98.5421057,241.796391 Z"/>
    <polygon fill="#C39400" points="94.23 238.062 81.463 238.062 81.463 255.267 94.23 255.267 94.23 238.062"/>
    <path fill="#1D1D1B" d="M81.6507787,238.249164 L94.0429457,238.249164 L94.0429457,255.079626 L81.6507787,255.079626 L81.6507787,238.249164 Z M94.4178757,237.874234 L81.2734141,237.874234 L81.2734141,255.45699 L94.4178757,255.45699 L94.4178757,237.874234 Z"/>
    <polygon fill="#C86606" points="21.911 14.608 21.911 18.299 17.933 21.468 14.242 18.527 14.242 14.953 7.036 14.953 .231 11.667 .231 7.343 6.286 1.288 17.011 5.149" transform="translate(16.977 194.843)"/>
    <path fill="#1D1D1B" d="M2.4346104,7.3038312 L8.34827906,1.38772793 L18.8950113,5.18572015 L23.739886,14.5370587 L23.739886,18.0915899 L19.9491976,21.1129414 L16.4457933,18.3204433 L16.4457933,14.6490508 L9.09326984,14.6490508 L2.4346104,11.4329304 L2.4346104,7.3038312 Z M8.25089465,0.954367277 L8.16811789,1.03714403 L2.05724579,7.14801613 L2.05724579,11.6690876 L9.05188147,15.0239808 L16.0708633,15.0239808 L16.0708633,18.503039 L19.9491976,21.5925596 L24.114816,18.2717511 L24.0953391,14.4055897 L19.1603838,4.88139385 L19.0897801,4.85704775 L8.25089465,0.954367277 Z" transform="translate(14.961 194.96)"/>
    <polygon fill="#C86606" points="16.401 200.744 27.069 200.744 27.069 206.626 16.401 206.626"/>
    <path fill="#1D1D1B" d="M16.5882504,200.931456 L26.8793486,200.931456 L26.8793486,206.43611 L16.5882504,206.43611 L16.5882504,200.931456 Z M27.2567132,200.554091 L16.2133204,200.554091 L16.2133204,206.81104 L27.2567132,206.81104 L27.2567132,200.554091 Z"/>
    <polygon fill="#C86606" points="2.435 4.869 9.354 4.869 10.335 2.909 4.222 2.045 .648 2.909" transform="translate(16.387 198.757)"/>
    <path fill="#1D1D1B" d="M2.4346104,2.4346104 L5.66777301,1.65310046 L11.4864919,2.47599878 L10.673332,4.09988391 L3.95137268,4.09988391 L2.4346104,2.4346104 Z M5.64829613,1.27086663 L5.61421158,1.28060507 L1.73100799,2.21793007 L3.78581917,4.47481392 L10.9070546,4.47481392 L12.0537561,2.1765417 L5.64829613,1.27086663 Z" transform="translate(14.952 199.339)"/>
    <polygon fill="#C86606" points="15.191 193.822 27.359 193.822 27.359 201.664 15.191 201.664"/>
    <path fill="#1D1D1B" d="M15.378249,194.012293 L27.1690672,194.012293 L27.1690672,201.479243 L15.378249,201.479243 L15.378249,194.012293 Z M27.5464318,193.634928 L15.003319,193.634928 L15.003319,201.854173 L27.5464318,201.854173 L27.5464318,193.634928 Z"/>
    <path fill="#4C2A1F" d="M26.7807144,26.7807144 L19.4793178,26.7807144 L19.4793178,22.9218569 L15.9759134,22.9218569 L15.9759134,20.6065424 C15.9759134,20.6065424 12.8401352,19.1433416 12.2436557,18.546862 C11.6496108,17.9528171 8.35314828,16.3605819 8.35314828,15.072673 L8.35314828,12.8547429 L4.52594073,12.8547429 L4.52594073,10.7634126 C4.52594073,10.7634126 2.14489176,9.92834121 1.79187325,8.80355121 C1.43642014,7.67632659 0.891067406,3.97815339 0.891067406,3.81746911 C0.891067406,3.65678482 7.32330808,2.40296046 7.32330808,2.40296046 L10.1523254,4.3311719 C10.1523254,4.3311719 13.8212832,8.96423549 15.0264154,9.20526192 C16.2315475,9.44628835 17.840825,9.70192244 18.1305436,11.6325685 C18.4202623,13.5632145 21.0569453,14.9460732 21.8603668,15.7494947 C22.6637882,16.5529161 23.4696443,17.9674248 24.9791027,19.4793178 C26.4909958,20.9912109 27.102083,21.4732637 27.8422045,22.2133853 C28.5823261,22.9535069 30.2232535,24.7867685 29.6438162,25.3662058 C29.064379,25.945643 26.7807144,26.7807144 26.7807144,26.7807144" transform="translate(59.44 212.728)"/>
    <path fill="#1D1D1B" d="M2.4346104,2.4346104 C3.07247832,2.22523391 6.45415217,1.53380455 8.62582465,1.10774773 L11.367196,2.97752852 C11.8224681,3.55209657 15.1116268,7.65198049 16.3338012,7.89544153 L16.4506625,7.91978763 C17.6582292,8.15837945 19.0264803,8.43105582 19.2869836,10.166933 C19.5134024,11.6788261 21.0569453,12.8328314 22.18417,13.6752066 C22.5542307,13.9527522 22.8755993,14.1937786 23.0703682,14.3885475 C23.4014752,14.7196545 23.7374514,15.1627536 24.1245545,15.6740218 C24.6528649,16.3703203 25.3077751,17.2370416 26.1915387,18.1183706 C27.0801715,19.009438 27.6669126,19.5499215 28.1367924,19.9832822 C28.4678994,20.2900431 28.7503142,20.5505464 29.0522059,20.8524381 C29.251844,21.0520761 29.9359695,21.7508093 30.4253262,22.4641502 C30.8611214,23.0947143 31.0218057,23.5718979 30.8538176,23.739886 C30.4107185,24.1829851 28.7381412,24.8598068 28.0905348,25.0983986 L21.0106878,25.0983986 L21.0106878,21.2395411 L17.5072834,21.2395411 L17.5072834,18.9923957 L17.3977259,18.9412689 C16.5334392,18.5395582 14.1889094,17.3904221 13.7214642,16.9205423 C13.5339992,16.7355119 13.1395923,16.4823124 12.6404972,16.1609438 C11.5424879,15.4573414 9.88451822,14.3934167 9.88451822,13.5802568 L9.88451822,11.1724271 L6.05731068,11.1724271 L6.05731068,9.13709283 L5.93071093,9.09326984 C5.29527762,8.86928569 3.5813119,8.10238341 3.31350475,7.25270438 C2.99213618,6.23016801 2.51738715,3.09438982 2.4346104,2.4346104 L2.4346104,2.4346104 Z M8.7086014,0.708471626 L8.63069387,0.725513899 C2.04750735,2.00855358 2.04750735,2.12784949 2.04750735,2.32505293 C2.04750735,2.51982176 2.60016391,6.23260262 2.95561703,7.36469646 C3.28915865,8.42375198 5.16867788,9.20526192 5.68238067,9.40246536 L5.68238067,11.5497917 L9.50958822,11.5497917 L9.50958822,13.5802568 C9.50958822,14.597924 11.2016425,15.6837602 12.4384245,16.4774432 C12.8985659,16.7744657 13.297842,17.0300997 13.4536571,17.1859148 C14.0087482,17.741006 16.5626546,18.9631804 17.1299188,19.2309875 L17.1299188,21.6169057 L20.6357578,21.6169057 L20.6357578,25.4757632 L28.1879192,25.4635902 C28.2853036,25.4295056 30.5178414,24.6066073 31.1191901,24.0052585 C31.4502971,23.6765861 31.3236974,23.1020181 30.7345217,22.2499044 C30.2256881,21.5122175 29.5220857,20.7915728 29.320013,20.5870655 C29.0108175,20.2803046 28.7284027,20.0173667 28.3924265,19.7081712 C27.9225467,19.2772451 27.3431094,18.7391962 26.4569112,17.8529981 C25.5926245,16.9887114 24.9717989,16.1706823 24.4240115,15.447603 C24.02717,14.9241618 23.68389,14.4713242 23.3381753,14.1231749 C23.121495,13.9089292 22.790388,13.660599 22.4105887,13.3757495 C21.3344909,12.5723281 19.8639863,11.4718842 19.659479,10.110937 C19.3600219,8.11212185 17.7215291,7.78831867 16.5237008,7.54972685 L16.4068395,7.52781536 C15.4719491,7.34035036 12.6526702,3.99519567 11.6447415,2.72189443 L11.6033532,2.68294066 L8.7086014,0.708471626 Z" transform="translate(58.097 214.221)"/>
    <path fill="#C86606" d="M31.6499352,24.346104 L21.9261013,24.346104 C21.9261013,24.346104 21.4075292,22.9583761 21.0447723,22.5931845 C20.6820153,22.2304276 19.3916718,21.4756983 19.3916718,20.9400841 C19.3916718,20.4044698 18.953442,19.9686745 18.4665199,19.4817524 C17.9795978,18.9948303 16.3995357,17.609537 15.9856519,17.1956533 C15.5717681,16.7817695 15.9613058,15.3210032 15.3526532,14.7147853 C14.7464352,14.1061327 12.1900943,12.085406 12.1900943,12.085406 C11.8516834,11.0166121 11.6569146,9.79930686 10.0987639,9.79930686 C8.54304789,9.79930686 7.11149698,9.88695283 6.79256302,9.57045348 C6.47849827,9.25395413 6.40302535,9.41220381 5.81871886,8.82789731 C5.23441236,8.24359081 4.40907943,7.90274536 4.40907943,6.73413237 C4.40907943,5.56795398 3.77364612,4.54541762 3.38654307,4.54541762 C2.9970054,4.54541762 1.44128936,1.62631975 2.75354436,0.749860003 C4.06823398,-0.126599741 6.88751282,0.652475587 6.88751282,0.652475587 C6.88751282,0.652475587 12.8717852,2.16193404 13.5534761,4.15587995 C14.235167,6.14982587 14.7683467,6.68544016 16.1317285,7.51320769 C17.4951103,8.33854062 22.4544117,13.0592502 22.4544117,13.3027112 C22.4544117,13.5461723 23.2821793,14.3715052 24.1075122,15.1992727 C24.9352797,16.0246057 27.0022639,17.9942055 27.8543776,18.8463191 C28.7064912,19.6984327 30.43263,21.2784949 31.0169365,21.8628014 C31.601243,22.4471079 33.2543435,23.9663048 33.2543435,24.1489006 C33.2543435,24.3339309 31.6499352,24.346104 31.6499352,24.346104" transform="translate(63.685 213.374)"/>
    <path fill="#1D1D1B" d="M7.3038312,9.7384416 C6.91672815,9.7384416 5.88201873,9.7384416 5.69698834,9.55341121 C5.54360788,9.40003075 5.4316158,9.33916549 5.32449294,9.28073484 C5.19058937,9.20769653 5.03964353,9.12735439 4.72314418,8.80842043 C4.58680599,8.67208224 4.43586015,8.54791711 4.28734891,8.42375198 C3.793123,8.01717205 3.36706618,7.66415354 3.36706618,6.85099367 C3.36706618,5.59230009 2.69024449,4.4723793 2.15706481,4.4723793 C1.98664209,4.38960255 1.29764734,3.26237794 1.20513215,2.21549546 C1.15643994,1.64579663 1.30008195,1.24408591 1.63118897,1.02253637 C2.0134228,0.766902276 2.58555624,0.637867925 3.32811242,0.637867925 C4.46507547,0.637867925 5.59716931,0.947063446 5.60934236,0.949498056 C5.67264223,0.966540329 11.5059688,2.45652189 12.1462713,4.3311719 C12.8328314,6.33972548 13.385488,6.9289012 14.8048658,7.78831867 C16.1463362,8.60147854 20.7477498,13.0056888 21.0423377,13.4633955 C21.0910299,13.7628526 21.590125,14.2887284 22.7295227,15.4281261 C23.1628833,15.8639214 23.8932665,16.5675238 24.6236496,17.2735608 C25.3467289,17.972294 26.0698082,18.6710272 26.4934304,19.0946494 C26.9633102,19.5645292 27.7009971,20.2583931 28.3534727,20.871915 C28.8963908,21.3831831 29.3930514,21.8481937 29.6559893,22.1111317 C29.8118043,22.2669467 30.0430923,22.4884963 30.2987264,22.7343919 C30.763737,23.1799256 31.4916855,23.8786588 31.7546234,24.1854197 C31.4843817,24.2365465 30.9122482,24.2706311 30.4204569,24.2730657 L20.8256574,24.2730657 C20.68445,23.9078741 20.27787,22.9048146 19.9491976,22.5761422 C19.8347709,22.4617156 19.6473059,22.3205081 19.4330602,22.1598239 C19.0264803,21.853063 18.3496586,21.3417948 18.3496586,21.0545107 C18.3496586,20.4409889 17.8749096,19.9662399 17.3709452,19.4647101 C17.1153111,19.2090761 16.5699584,18.7172848 16.0440825,18.2401011 C15.5522912,17.7945674 15.0872806,17.3733798 14.8900772,17.178611 C14.753739,17.0422728 14.7318275,16.6503005 14.709916,16.2729359 C14.6782661,15.7129755 14.6417469,15.0799768 14.2570785,14.6953084 C13.6873797,14.1256095 11.4816226,12.3726901 11.1237349,12.0902752 C11.0969542,12.0026293 11.0701735,11.9149833 11.0433928,11.8249027 C10.7488049,10.8437547 10.4128287,9.72626855 8.8717203,9.72626855 C8.58443627,9.72626855 8.30202146,9.73113777 8.0293451,9.73357238 C7.77614562,9.73600699 7.53268458,9.7384416 7.3038312,9.7384416 M3.32811242,0.262937923 L3.32811242,0.262937923 C2.50764871,0.262937923 1.86734618,0.411449158 1.42181247,0.708471626 C0.810725263,1.11748617 0.659779418,1.94768832 0.993321043,3.04813222 C1.21487059,3.78338456 1.75778871,4.84730931 2.15706481,4.84730931 C2.35913748,4.84730931 2.99213618,5.67994606 2.99213618,6.85099367 C2.99213618,7.8418801 3.55209657,8.30445607 4.04632248,8.71347062 C4.18752989,8.83033192 4.32873729,8.94719322 4.45777164,9.07622757 C4.81322476,9.43168069 4.99825515,9.53149972 5.14676639,9.61184186 C5.2441508,9.66540329 5.31718911,9.70435705 5.4316158,9.81878374 C5.67994606,10.067114 6.30564094,10.1158062 7.3038312,10.1158062 C7.53511919,10.1158062 7.77858023,10.110937 8.03177971,10.1085024 C8.30445607,10.1060678 8.58443627,10.1036332 8.8717203,10.1036332 C10.1352831,10.1036332 10.3884826,10.9508776 10.6830704,11.9344602 C10.717155,12.0440176 10.7488049,12.1511405 10.7828895,12.2582634 L10.7999317,12.3142594 L10.8461893,12.3483439 C10.87297,12.3702554 13.397661,14.3690706 13.991706,14.9631155 C14.2741208,15.2455303 14.3057707,15.8030561 14.334986,16.2948474 C14.3642014,16.7842041 14.3885475,17.2053917 14.6247047,17.4439835 C14.8267773,17.6460562 15.2966571,18.0696784 15.7908831,18.5176467 C16.3143243,18.9923957 16.8572424,19.4817524 17.1055727,19.7300827 C17.5705833,20.1950933 17.9747286,20.5992386 17.9747286,21.0545107 C17.9747286,21.5292598 18.6296388,22.0234857 19.2066414,22.4592809 C19.4014103,22.6053576 19.5864407,22.746565 19.6838251,22.8415148 C19.9589361,23.1166257 20.3801237,24.1513352 20.5213311,24.5262652 L20.565154,24.6504303 L30.4204569,24.6504303 C32.2147648,24.6358226 32.2147648,24.4288808 32.2147648,24.2633272 C32.2147648,24.0953391 32.0078229,23.8518781 30.5592297,22.4617156 C30.3060303,22.2206891 30.0747423,21.9991396 29.9213618,21.8457591 C29.6559893,21.5803866 29.1568942,21.1105068 28.6115414,20.5992386 C27.9615004,19.9857168 27.2238135,19.2942874 26.7588029,18.8292768 C26.3351807,18.4056546 25.6072322,17.7020522 24.8841529,17.003319 C24.1562044,16.2997166 23.4282559,15.5961142 23.0119375,15.1797958 C22.3472889,14.5127126 21.4586561,13.6240798 21.4148331,13.4073995 C21.4148331,12.9594312 16.0806017,8.12186029 14.9996347,7.4669501 C13.6484259,6.64648639 13.1566346,6.12061055 12.5017244,4.20944138 C11.7956874,2.14245715 5.95505704,0.650040977 5.70672678,0.586741106 C5.66290379,0.574568054 4.51620229,0.262937923 3.32811242,0.262937923" transform="translate(64.914 213.26)"/>
    <path fill="#4C2A1F" d="M24.346104,29.2153248 L21.0861607,25.4684594 L17.6825753,25.4684594 L17.6825753,21.577952 L14.666093,21.577952 L14.666093,18.4153931 L10.1425869,18.4153931 L10.1425869,15.3526532 L6.34702931,12.4822475 L4.01223794,12.4822475 L4.01223794,9.36838082 L1.23921669,6.40059074 L1.23921669,2.26418767 L6.29590249,2.26418767 C6.29590249,2.26418767 6.97759341,4.55028684 8.38723283,4.98851671 C9.79930686,5.42674658 8.04882198,6.54666737 9.36107699,7.32330808 C10.673332,8.10238341 11.1626887,8.0536912 11.5010995,8.93015095 C11.8443796,9.80417608 12.9131736,11.9466332 13.8358909,12.3337363 C14.7610429,12.723274 15.6131565,13.5753876 15.8809636,13.8431947 C16.1487708,14.1085673 17.3392953,15.9345251 18.8974459,15.9345251 C20.453162,15.9345251 24.3947962,16.3240627 24.3947962,16.3240627 L29.6462508,20.0709281 L29.6462508,26.6370724 L29.3540976,29.3614014 L26.826972,30.0917845 L24.5530459,30.0917845 L24.346104,29.2153248 Z" transform="translate(69.677 208.504)"/>
    <path fill="#1D1D1B" d="M2.4346104,2.4346104 L7.16749302,2.4346104 C7.34278497,2.94831319 8.03908354,4.74505567 9.33916549,5.149201 C9.88208361,5.31962372 9.83339141,5.53630405 9.73357238,5.97453392 C9.63618796,6.41276379 9.50228439,7.01167795 10.2740559,7.4669501 C10.6635936,7.69823808 10.9849621,7.85892237 11.2430308,7.99039133 C11.8638565,8.29958685 12.1194906,8.4286212 12.3337363,8.97884316 C12.635628,9.75061465 13.728768,12.0513215 14.7732159,12.4895514 C15.3648262,12.7378816 16.0319095,13.2321075 16.7549888,13.9576214 C16.7939425,13.9941406 16.8523732,14.0671789 16.9278461,14.1621287 C17.3977259,14.7440006 18.4957352,16.1049478 19.9053746,16.1049478 C21.3393602,16.1049478 24.8719798,16.4433586 25.3345558,16.4871816 L30.4667145,20.1488357 L30.4667145,26.6200301 L30.189169,29.1982825 L27.80812,29.8848427 L25.7094858,29.8848427 L25.4952401,29.0741174 L22.1793007,25.2639521 L18.877969,25.2639521 L18.877969,21.3710101 L15.8614868,21.3710101 L15.8614868,18.2108858 L11.3379806,18.2108858 L11.3379806,15.2406611 L7.41825789,12.2753056 L5.20763165,12.2753056 L5.20763165,9.27586562 L2.4346104,6.30807555 L2.4346104,2.4346104 Z M7.4450386,2.0596804 L2.05724579,2.0596804 L2.05724579,6.45658678 L4.83270164,9.42437686 L4.83270164,12.6502356 L7.29165815,12.6502356 L10.960616,15.4281261 L10.960616,18.5858158 L15.4841221,18.5858158 L15.4841221,21.7483747 L18.5006044,21.7483747 L18.5006044,25.6388821 L22.008878,25.6388821 L25.1811754,29.2859285 L25.4124634,30.2622073 L27.8860275,30.2549034 L30.5373182,29.4904358 L30.8416445,26.639507 L30.8440792,19.9540668 L25.4684594,16.1219901 L25.4197672,16.1171208 C25.2590829,16.1025132 21.4513522,15.7275832 19.9053746,15.7275832 C18.6758964,15.7275832 17.6557946,14.466455 17.2199994,13.9259715 C17.1323534,13.816414 17.0666189,13.7336373 17.0227959,13.6922489 C16.7379465,13.4073995 15.878529,12.547982 14.9168579,12.1438367 C14.0720481,11.7859489 13.0300349,9.72870316 12.6843202,8.84250497 C12.4189477,8.15594484 12.0391484,7.96604523 11.4110189,7.65198049 C11.1578195,7.52538075 10.8437547,7.36956568 10.4639555,7.14558152 C9.92834121,6.82664756 10.0038141,6.48580211 10.1011985,6.05731068 C10.1961484,5.63855769 10.3251827,5.06155502 9.45115757,4.79131327 C8.15107562,4.38716794 7.4912962,2.21549546 7.48399237,2.19358397 L7.4450386,2.0596804 Z" transform="translate(68.67 208.523)"/>
    <path fill="#C39400" d="M4.8692208,2.4346104 C4.8692208,1.43155092 4.05362632,0.615956431 3.05300144,0.615956431 C2.04994196,0.615956431 1.23434747,1.43155092 1.23434747,2.4346104 C1.23434747,3.43766988 2.04994196,4.25082976 3.05300144,4.25082976 C4.05362632,4.25082976 4.8692208,3.43766988 4.8692208,2.4346104" transform="translate(118.435 249.955)"/>
    <path fill="#1D1D1B" d="M2.4346104,4.8692208 C1.53623916,4.8692208 0.805856042,4.13883768 0.805856042,3.24046644 C0.805856042,2.3420952 1.53623916,1.61171208 2.4346104,1.61171208 C3.33298164,1.61171208 4.06336476,2.3420952 4.06336476,3.24046644 C4.06336476,4.13883768 3.33298164,4.8692208 2.4346104,4.8692208 M2.4346104,1.23434747 C1.32929728,1.23434747 0.42849143,2.13515332 0.42849143,3.24046644 C0.42849143,4.34577956 1.32929728,5.24658541 2.4346104,5.24658541 C3.53992352,5.24658541 4.44072937,4.34577956 4.44072937,3.24046644 C4.44072937,2.13515332 3.53992352,1.23434747 2.4346104,1.23434747" transform="translate(119.052 249.149)"/>
    <polygon fill="#C39400" points="7.304 2.435 7.304 7.131 1.354 7.131 1.354 2.082 7.335 2.082" transform="translate(117.158 245.5)"/>
    <path fill="#1D1D1B" d="M2.4346104,2.4346104 L8.02204127,2.4346104 L8.00986822,2.58312163 L8.00986822,7.10662776 L2.4346104,7.10662776 L2.4346104,2.4346104 Z M8.43349043,2.0596804 L2.05724579,2.0596804 L2.05724579,7.48399237 L8.38479822,7.48399237 L8.38479822,2.60016391 L8.43349043,2.0596804 L8.43349043,2.0596804 Z" transform="translate(116.265 245.334)"/>
    <path fill="#C86606" d="M4.8692208,2.4346104 C4.8692208,1.43155092 4.05606093,0.618391042 3.05300144,0.618391042 C2.04994196,0.618391042 1.23434747,1.43155092 1.23434747,2.4346104 C1.23434747,3.43766988 2.04994196,4.25082976 3.05300144,4.25082976 C4.05606093,4.25082976 4.8692208,3.43766988 4.8692208,2.4346104" transform="translate(42.893 223.85)"/>
    <path fill="#1D1D1B" d="M2.4346104,4.8692208 C1.53623916,4.8692208 0.805856042,4.13883768 0.805856042,3.24046644 C0.805856042,2.3420952 1.53623916,1.61171208 2.4346104,1.61171208 C3.33298164,1.61171208 4.06336476,2.3420952 4.06336476,3.24046644 C4.06336476,4.13883768 3.33298164,4.8692208 2.4346104,4.8692208 M2.4346104,1.23434747 C1.32929728,1.23434747 0.42849143,2.13515332 0.42849143,3.24046644 C0.42849143,4.34577956 1.32929728,5.2441508 2.4346104,5.2441508 C3.53992352,5.2441508 4.43829476,4.34577956 4.43829476,3.24046644 C4.43829476,2.13515332 3.53992352,1.23434747 2.4346104,1.23434747" transform="translate(43.512 223.045)"/>
    <polygon fill="#C86606" points="7.304 2.435 7.304 7.131 1.354 7.131 1.354 2.082 7.335 2.082" transform="translate(41.617 219.396)"/>
    <path fill="#1D1D1B" d="M2.4346104,2.4346104 L8.02204127,2.4346104 L8.00986822,2.58312163 L8.00743361,7.10906237 L2.4346104,7.10906237 L2.4346104,2.4346104 Z M8.43349043,2.0596804 L2.05724579,2.0596804 L2.05724579,7.48399237 L8.38479822,7.48399237 L8.38479822,2.60016391 L8.43349043,2.0596804 L8.43349043,2.0596804 Z" transform="translate(40.724 219.23)"/>
    <polygon fill="#C39400" points="31.65 4.869 31.65 11.944 28.176 11.944 28.176 9.887 27.243 9.887 27.243 11.944 24.543 11.944 24.543 9.887 23.353 9.887 23.353 11.944 20.716 11.944 20.716 9.887 19.397 9.887 19.397 11.944 16.085 11.944 16.085 9.887 14.992 9.887 14.992 11.944 11.292 11.944 11.292 9.887 10.135 9.887 10.135 11.944 7.143 11.944 7.143 9.887 6.05 9.887 6.05 11.944 1.227 11.944 1.227 .141 28.21 .141" transform="translate(96.252 238.434)"/>
    <path fill="#1D1D1B" d="M2.4346104,2.4346104 L29.1349827,2.4346104 L32.482572,7.03602406 L32.482572,13.8626716 L29.3857475,13.8626716 L29.3857475,11.8029912 L28.0759271,11.8029912 L28.0759271,13.8626716 L25.7508742,13.8626716 L25.7508742,11.8029912 L24.1854197,11.8029912 L24.1854197,13.8626716 L21.9236667,13.8626716 L21.9236667,11.8029912 L20.2291778,11.8029912 L20.2291778,13.8626716 L17.2930377,13.8626716 L17.2930377,11.8029912 L15.822533,11.8029912 L15.822533,13.8626716 L12.5017244,13.8626716 L12.5017244,11.8029912 L10.9654852,11.8029912 L10.9654852,13.8626716 L8.35314828,13.8626716 L8.35314828,11.8029912 L6.8826436,11.8029912 L6.8826436,13.8626716 L2.4346104,13.8626716 L2.4346104,2.4346104 Z M29.3248823,2.05724579 L2.05724579,2.05724579 L2.05724579,14.2376016 L7.2575736,14.2376016 L7.2575736,12.1803558 L7.97578367,12.1803558 L7.97578367,14.2376016 L11.3428499,14.2376016 L11.3428499,12.1803558 L12.1243598,12.1803558 L12.1243598,14.2376016 L16.1998976,14.2376016 L16.1998976,12.1803558 L16.9181077,12.1803558 L16.9181077,14.2376016 L20.6041078,14.2376016 L20.6041078,12.1803558 L21.5487367,12.1803558 L21.5487367,14.2376016 L24.5603497,14.2376016 L24.5603497,12.1803558 L25.3759442,12.1803558 L25.3759442,14.2376016 L28.4532917,14.2376016 L28.4532917,12.1803558 L29.0083829,12.1803558 L29.0083829,14.2376016 L32.857502,14.2376016 L32.857502,6.91429354 L29.3248823,2.05724579 Z" transform="translate(95.232 236.329)"/>
    <polygon fill="#C39400" points="14.608 9.738 14.608 8.073 13.13 8.073 13.13 9.738 10.62 9.738 10.62 8.171 9.816 8.171 9.013 8.171 9.013 9.738 6.503 9.738 6.503 8.073 5.025 8.073 5.025 9.738 1.551 9.714 1.551 6.272 3.513 4.309 3.513 1.191 9.816 1.191 16.12 1.191 16.12 4.309 18.082 6.272 18.082 9.714" transform="translate(82.098 236.517)"/>
    <path fill="#1D1D1B" d="M2.4346104,2.4346104 L14.666093,2.4346104 L14.666093,5.44378885 L16.628389,7.40608484 L16.628389,10.5832514 L13.52913,10.6051629 L13.52913,8.93988939 L11.6739569,8.93988939 L11.6739569,10.6051629 L9.54367277,10.6051629 L9.54367277,9.0372738 L7.55946529,9.0372738 L7.55946529,10.6051629 L5.42431197,10.6051629 L5.42431197,8.93988939 L3.57157346,8.93988939 L3.57157346,10.6051629 L0.472314418,10.5832514 L0.472314418,7.40608484 L2.4346104,5.44378885 L2.4346104,2.4346104 Z M15.0410231,2.0596804 L2.05724579,2.0596804 L2.05724579,5.28797379 L0.097384416,7.25026977 L0.097384416,10.9557468 L3.94650346,10.9825275 L3.94650346,9.317254 L5.04938197,9.317254 L5.04938197,10.9825275 L7.93439529,10.9825275 L7.93439529,9.41463842 L9.16630816,9.41463842 L9.16630816,10.9825275 L12.0513215,10.9825275 L12.0513215,9.317254 L13.1542,9.317254 L13.1542,10.9825275 L17.003319,10.9557468 L17.003319,7.25026977 L15.0410231,5.28797379 L15.0410231,2.0596804 Z" transform="translate(83.364 235.461)"/>
    <polygon fill="#C86606" points="24.346 12.173 19.457 12.173 19.457 10.147 18.204 10.147 18.204 12.044 15.085 12.044 15.085 10.116 13.636 10.116 13.636 11.981 10.291 11.981 10.291 10.116 8.297 10.116 8.297 11.915 4.857 11.915 4.857 10.147 3.184 10.147 3.184 11.947 .387 11.947 .387 2.267 25.15 2.267" transform="translate(97.382 228.911)"/>
    <path fill="#1D1D1B" d="M2.4346104,2.4346104 L26.8050605,2.4346104 L26.033289,11.9636755 L21.5073483,11.9636755 L21.5073483,9.93807965 L19.8761593,9.93807965 L19.8761593,11.8346412 L17.1323534,11.8346412 L17.1323534,9.90642972 L15.3088302,9.90642972 L15.3088302,11.7713413 L12.3386055,11.7713413 L12.3386055,9.90642972 L9.96972959,9.90642972 L9.96972959,11.7056068 L6.90455509,11.7056068 L6.90455509,9.93807965 L4.85461314,9.93807965 L4.85461314,11.7396913 L2.4346104,11.7396913 L2.4346104,2.4346104 Z M27.2140751,2.05724579 L2.05724579,2.05724579 L2.05724579,12.1146214 L5.23197775,12.1146214 L5.23197775,10.3130097 L6.52719048,10.3130097 L6.52719048,12.0829714 L10.3446596,12.0829714 L10.3446596,10.2813597 L11.9636755,10.2813597 L11.9636755,12.1462713 L15.6837602,12.1462713 L15.6837602,10.2813597 L16.7549888,10.2813597 L16.7549888,12.2120058 L20.2510893,12.2120058 L20.2510893,10.3130097 L21.1299837,10.3130097 L21.1299837,12.3410401 L26.3790037,12.3410401 L27.2140751,2.05724579 Z" transform="translate(95.522 228.932)"/>
    <polygon fill="#C86606" points="19.477 7.304 19.477 .536 18.247 .536 1.363 .536 1.363 20.124 4.604 20.124 4.604 17.98 6.018 17.98 6.018 20.124 9.578 20.124 9.578 18.162 10.763 18.162 10.763 20.124 13.958 20.124 13.958 18.162 15.462 18.162 15.462 20.124 19.477 20.124 19.477 8.716" transform="translate(119.434 226.13)"/>
    <path fill="#1D1D1B" d="M2.4346104,2.4346104 L20.1731818,2.4346104 L20.1731818,21.6485557 L16.5334392,21.6485557 L16.5334392,19.6862597 L14.6514854,19.6862597 L14.6514854,21.6485557 L11.8346412,21.6485557 L11.8346412,19.6862597 L10.2716213,19.6862597 L10.2716213,21.6485557 L7.08958548,21.6485557 L7.08958548,19.5036639 L5.29771223,19.5036639 L5.29771223,21.6485557 L2.4346104,21.6485557 L2.4346104,2.4346104 Z M20.5481118,2.0596804 L2.05724579,2.0596804 L2.05724579,22.0259203 L5.67507684,22.0259203 L5.67507684,19.8810285 L6.71465548,19.8810285 L6.71465548,22.0259203 L10.6489859,22.0259203 L10.6489859,20.0636243 L11.4572765,20.0636243 L11.4572765,22.0259203 L15.02885,22.0259203 L15.02885,20.0636243 L16.1585092,20.0636243 L16.1585092,22.0259203 L20.5481118,22.0259203 L20.5481118,2.0596804 Z" transform="translate(118.551 224.418)"/>
    <polygon fill="#C39400" points="46.258 9.738 46.258 11.153 42.742 11.153 42.742 8.935 40.814 8.935 40.814 11.153 36.823 11.153 36.823 8.967 35.346 8.967 35.346 11.153 31.421 11.153 31.421 9.03 29.909 9.03 29.909 11.153 26.148 11.153 26.148 8.998 24.667 8.998 24.667 11.153 20.809 11.153 20.809 8.998 19.457 8.998 19.457 11.153 15.693 11.153 15.693 8.935 14.055 8.935 14.055 11.153 10.323 11.153 10.323 8.838 8.65 8.838 8.65 11.153 4.952 11.153 4.952 8.967 3.506 8.967 3.506 11.153 .835 11.153 .835 1.441 26.951 1.441 46.087 1.441" transform="translate(93.008 223.402)"/>
    <path fill="#1D1D1B" d="M2.4346104,2.4346104 L47.3142185,2.4346104 L47.479772,10.5467323 L47.479772,11.7713413 L44.3415592,11.7713413 L44.3415592,9.5509766 L42.0359832,9.5509766 L42.0359832,11.7713413 L38.4230213,11.7713413 L38.4230213,9.58506114 L36.5678482,9.58506114 L36.5678482,11.7713413 L33.0206209,11.7713413 L33.0206209,9.64836102 L31.1337978,9.64836102 L31.1337978,11.7713413 L27.7472547,11.7713413 L27.7472547,9.61671108 L25.889647,9.61671108 L25.889647,11.7713413 L22.4081541,11.7713413 L22.4081541,9.61671108 L20.6795807,9.61671108 L20.6795807,11.7713413 L17.2930377,11.7713413 L17.2930377,9.5509766 L15.2771803,9.5509766 L15.2771803,11.7713413 L11.9222871,11.7713413 L11.9222871,9.45602679 L9.87477978,9.45602679 L9.87477978,11.7713413 L6.55153659,11.7713413 L6.55153659,9.58506114 L4.7280134,9.58506114 L4.7280134,11.7713413 L2.4346104,11.7713413 L2.4346104,2.4346104 Z M47.6818447,2.05724579 L2.05724579,2.05724579 L2.05724579,12.1462713 L5.10537801,12.1462713 L5.10537801,9.95999115 L6.17660658,9.95999115 L6.17660658,12.1462713 L10.2497098,12.1462713 L10.2497098,9.8309568 L11.5473571,9.8309568 L11.5473571,12.1462713 L15.6521103,12.1462713 L15.6521103,9.92834121 L16.9181077,9.92834121 L16.9181077,12.1462713 L21.0569453,12.1462713 L21.0569453,9.99164108 L22.0307895,9.99164108 L22.0307895,12.1462713 L26.2670116,12.1462713 L26.2670116,9.99164108 L27.3698901,9.99164108 L27.3698901,12.1462713 L31.5087278,12.1462713 L31.5087278,10.0257256 L32.6432562,10.0257256 L32.6432562,12.1462713 L36.9452128,12.1462713 L36.9452128,9.95999115 L38.0480913,9.95999115 L38.0480913,12.1462713 L42.4109132,12.1462713 L42.4109132,9.92834121 L43.9641946,9.92834121 L43.9641946,12.1462713 L47.8571366,12.1462713 L47.8571366,10.5442976 L47.6818447,2.05724579 Z" transform="translate(91.597 222.596)"/>
    <polygon fill="#C86606" points="7.304 4.869 4.506 4.869 1.451 2.006 4.441 2.006" transform="translate(57.08 217.08)"/>
    <path fill="#1D1D1B" d="M2.4346104,2.4346104 L4.87165541,2.4346104 L7.35982724,4.92034762 L5.08833574,4.92034762 L2.4346104,2.4346104 Z M5.02747048,2.0596804 L1.48511234,2.0596804 L4.9398245,5.29771223 L8.26550231,5.29771223 L5.02747048,2.0596804 Z" transform="translate(56.572 216.84)"/>
    <polygon fill="#C39400" points="7.304 2.435 7.304 6.423 4.635 9.091 1.772 6.23 1.772 2.113 7.304 2.113" transform="translate(59.75 212.856)"/>
    <path fill="#1D1D1B" d="M2.4346104,2.4346104 L7.58868062,2.4346104 L7.58868062,6.47849827 L5.10781262,8.95936627 L2.4346104,6.28616405 L2.4346104,2.4346104 Z M7.96604523,2.0596804 L2.05724579,2.0596804 L2.05724579,6.44197912 L5.10781262,9.49011134 L7.96604523,6.63431334 L7.96604523,2.0596804 L7.96604523,2.0596804 Z" transform="translate(59.276 212.723)"/>
    <polygon fill="#C86606" points="58.532 215.033 61.521 215.033 61.521 219.084 58.532 219.084"/>
    <path fill="#1D1D1B" d="M58.7191834,215.222619 L61.3339549,215.222619 L61.3339549,218.898881 L58.7191834,218.898881 L58.7191834,215.222619 Z M61.7113196,214.845254 L58.3442534,214.845254 L58.3442534,219.273811 L61.7113196,219.273811 L61.7113196,214.845254 Z"/>
    <polygon fill="#C39400" points="61.361 210.081 71.041 210.081 71.041 215.227 61.361 215.227 61.361 210.081"/>
    <path fill="#1D1D1B" d="M61.5482007,210.268187 L70.8532816,210.268187 L70.8532816,215.037588 L61.5482007,215.037588 L61.5482007,210.268187 L61.5482007,210.268187 Z M71.2306462,209.893257 L61.1732707,209.893257 L61.1732707,215.414953 L71.2306462,215.414953 L71.2306462,209.893257 Z"/>
    <path fill="#C86606" d="M14.6076624,2.4346104 L14.6076624,17.7142253 C14.6076624,17.7142253 11.4937957,19.55966 8.26550231,18.8098 C5.03477431,18.0599399 5.95992626,17.1372226 2.96048625,17.5997986 C1.34633955,17.5997986 0.652475587,17.7142253 0.652475587,16.9059346 L0.652475587,4.28004508 C0.652475587,4.28004508 2.61477157,0.647606366 7.86135698,0.647606366 C13.1079424,0.647606366 14.6076624,2.4346104 14.6076624,2.4346104" transform="translate(40.138 206.151)"/>
    <path fill="#1D1D1B" d="M2.4346104,4.8692208 C2.66589839,4.48211775 4.67932119,1.37555488 9.45359218,1.37555488 C14.0550058,1.37555488 15.7300178,2.77545586 16.0124326,3.05056683 L16.0124326,18.1451513 C15.5790719,18.3788739 13.6703374,19.340545 11.4694496,19.340545 C10.9265315,19.340545 10.398221,19.2821144 9.89912589,19.1676877 C8.60878237,18.865796 8.004999,18.546862 7.52294614,18.2863587 C6.82177834,17.9138633 6.29590249,17.6801407 4.52350612,17.9528171 C4.36038723,17.9503825 4.18266067,17.9528171 4.01954177,17.9528171 L3.61783105,17.9552517 C2.58068702,17.9552517 2.4346104,17.8481288 2.4346104,17.4464181 L2.4346104,4.8692208 Z M9.45359218,0.998190264 C4.15587995,0.998190264 2.10106878,4.69149424 2.08159189,4.73044801 L2.0596804,4.81809398 L2.0596804,17.4464181 C2.0596804,18.3326163 2.85092878,18.3326163 3.61783105,18.3326163 L4.02197638,18.3301817 C4.18752989,18.3277471 4.36282184,18.3277471 4.55272145,18.3277471 C6.27155639,18.0696784 6.64648639,18.2474049 7.34521958,18.6199003 C7.82240322,18.8730998 8.4748788,19.2212491 9.81634913,19.5328792 C10.342225,19.6546098 10.8973162,19.7179096 11.4694496,19.7179096 C14.0720481,19.7179096 16.2072014,18.4689545 16.2948474,18.4153931 L16.3897972,18.3618316 L16.3897972,2.90449021 L16.3435396,2.85336339 C16.2802397,2.77789047 14.7269583,0.998190264 9.45359218,0.998190264 L9.45359218,0.998190264 Z" transform="translate(38.546 205.612)"/>
    <polygon fill="#C86606" points="26.724 193.939 33.76 193.939 33.76 207.03 26.724 207.03"/>
    <path fill="#1D1D1B" d="M26.9109985,194.12672 L33.5696579,194.12672 L33.5696579,206.840255 L26.9109985,206.840255 L26.9109985,194.12672 Z M33.9445879,193.75179 L26.5336339,193.75179 L26.5336339,207.21762 L33.9445879,207.21762 L33.9445879,193.75179 Z"/>
    <path fill="#C39400" d="M17.0422728,9.7384416 C17.0422728,9.7384416 17.8773442,15.822533 18.4275661,16.3703203 C18.9729188,16.9181077 17.2151301,20.0611897 14.7342621,19.4257564 C12.2558288,18.7927577 3.82233833,13.9770983 3.15768969,13.3148843 C2.49547566,12.6502356 1.35607799,1.8965615 3.37437001,1.08827085 C5.39266204,0.282414806 16.5504815,9.24908491 17.0422728,9.7384416" transform="translate(26.518 191.812)"/>
    <path fill="#1D1D1B" d="M14.6076624,19.4768832 C14.4055897,19.4768832 14.2010825,19.4501025 13.9965752,19.3989757 C11.6155262,18.7903231 3.19907807,14.0306597 2.5052141,13.3367958 C2.04994196,12.879089 1.21487059,6.19364886 1.88438845,2.93614014 C2.06211501,2.07428806 2.32992215,1.55084682 2.66102917,1.41694325 C2.72432904,1.39259715 2.80467118,1.3804241 2.89962099,1.3804241 C5.34396983,1.37798949 15.1189306,9.09570445 16.0806017,9.98433725 C16.241286,11.1456464 16.9570614,16.1049478 17.509718,16.6576044 C17.5705833,16.7184696 17.5949294,16.9619307 17.4196374,17.3855529 C17.0836612,18.1938435 16.0246057,19.4768832 14.6076624,19.4768832 M2.9020556,1.00305948 L2.89962099,1.00305948 C2.75597897,1.0054941 2.62937923,1.02497098 2.52225637,1.06879397 C2.05481118,1.25625897 1.72613877,1.84056546 1.51676228,2.86066722 C0.866721302,6.01835691 1.58493137,12.9448235 2.23984157,13.6021683 C2.89475177,14.2570785 11.3038961,19.097084 13.90406,19.7617326 C14.1377826,19.8225979 14.3739398,19.8518132 14.6076624,19.8518132 C16.2193745,19.8518132 17.378249,18.4640853 17.7653521,17.5291949 C17.9820324,17.0081883 17.9869016,16.6016083 17.7750905,16.3922318 C17.4074644,16.0246057 16.7647272,12.1949635 16.4433586,9.86747595 L16.4360548,9.80417608 L16.3922318,9.76035309 C16.0002595,9.37081543 5.69942295,1.00305948 2.9020556,1.00305948" transform="translate(27.302 191.657)"/>
    <path fill="#C39400" d="M31.6499352,12.173052 L31.6499352,14.0769173 C31.6499352,14.0769173 23.9809124,14.4810627 21.6729018,14.0769173 C19.3697603,13.672772 11.3525883,11.5960493 9.21986958,11.5960493 C7.08715087,11.5960493 4.94956294,12.5187667 3.45471216,11.0190467 C1.95499215,9.52176127 2.12541488,6.29103327 2.6464215,5.02260126 C3.16499352,3.75416924 3.56913885,2.25444923 3.56913885,2.25444923 L27.7302125,2.25444923 L32.3437992,4.73531723 L33.1496552,6.86803594 L31.6499352,12.173052 Z" transform="translate(39.933 196.297)"/>
    <path fill="#1D1D1B" d="M2.4346104,2.4346104 L26.4033498,2.4346104 L30.9146829,4.85704775 L31.6742813,6.86803594 L30.1842997,12.1633136 L30.1842997,13.8894523 C29.4466128,13.9259715 26.5421226,14.0598751 24.0076932,14.0598751 C22.3034659,14.0598751 21.0983337,13.9990098 20.4288159,13.8821485 C19.6643482,13.7482449 18.2668818,13.429311 16.6503005,13.0592502 C13.4147033,12.3215632 9.38298848,11.3988459 7.94169912,11.3988459 C7.3281773,11.3988459 6.71709009,11.4743188 6.12547977,11.5473571 C5.56065015,11.6155262 5.02747048,11.6812607 4.51620229,11.6812607 C3.54235813,11.6812607 2.86310183,11.4329304 2.30801066,10.8778393 C0.866721302,9.43654991 1.04688247,6.29590249 1.54110838,5.08590113 C1.96959981,4.04388787 2.32018371,2.83875573 2.4346104,2.4346104 L2.4346104,2.4346104 Z M26.5007342,2.05724579 L2.14732637,2.05724579 L2.11080722,2.19845319 C2.105938,2.21306085 1.70422728,3.70060781 1.19539371,4.94225911 C0.650040977,6.26668717 0.465010586,9.56558426 2.04263813,11.1432118 C2.66589839,11.7664721 3.44984294,12.0561907 4.51620229,12.0561907 C5.04938197,12.0561907 5.5947347,11.9904562 6.17173736,11.9198525 C6.75117464,11.8492488 7.3500888,11.7762105 7.94169912,11.7762105 C9.3416001,11.7762105 13.3489688,12.691624 16.5675238,13.4268764 C18.1889743,13.7969371 19.5888753,14.1158711 20.3630814,14.2522093 C21.0545107,14.3739398 22.2815544,14.4348051 24.0076932,14.4348051 C26.9340949,14.4348051 30.3474186,14.2570785 30.3815032,14.2546439 L30.5592297,14.2449055 L30.5592297,12.1900943 L32.0686882,6.85099367 L32.0492113,6.79256302 L31.2141399,4.59410982 L31.1532747,4.56002528 L26.5007342,2.05724579 Z" transform="translate(41.21 196.305)"/>
    <path fill="#C39400" d="M7.3038312,4.8692208 C7.3038312,4.8692208 6.5539712,15.1919689 5.22954314,15.6521103 C3.90268047,16.1146862 1.30738578,10.6343782 1.99881514,4.7523595 C2.69024449,-1.12722462 7.3038312,4.8692208 7.3038312,4.8692208" transform="translate(24.78 189.474)"/>
    <path fill="#1D1D1B" d="M4.8692208,14.6076624 C4.67932119,14.6076624 4.43099093,14.4469781 4.17048762,14.1523903 C2.91666326,12.7427508 1.46076624,8.39210205 1.9890767,3.89050742 C2.17897631,2.28609917 2.67320222,1.47293929 3.45471216,1.47293929 C4.80105171,1.47293929 6.61240185,3.66408865 6.91429354,4.04388787 C6.6245749,7.99282594 5.84549957,14.2862938 4.97147444,14.5906201 C4.9398245,14.6027932 4.90573996,14.6076624 4.8692208,14.6076624 M3.45471216,1.09800929 L3.45471216,1.09800929 C2.44921806,1.09800929 1.83082702,2.02316124 1.61658131,3.84668443 C1.04931708,8.66721302 2.63911767,12.9959503 3.89050742,14.4031551 C4.31899885,14.885208 4.74018645,15.0678038 5.09320496,14.9460732 C6.46632522,14.4688896 7.16749302,5.74324593 7.29409276,4.00006489 L7.30139659,3.92702658 L7.25513899,3.87103054 C7.16992763,3.75660385 5.10537801,1.09800929 3.45471216,1.09800929" transform="translate(24.976 190.358)"/>
    <polygon fill="#C39400" points="0 2.435 0 .088 9.198 .088 4.857 2.724 .032 2.724" transform="translate(71.01 208.29)"/>
    <path fill="#1D1D1B" d="M2.4346104,2.4346104 L10.773151,2.4346104 L7.05063172,4.69636346 L2.44678345,4.69636346 L2.4346104,4.57463294 L2.4346104,2.4346104 Z M12.117056,2.0596804 L2.0596804,2.0596804 L2.0596804,4.59410982 L2.11080722,5.07129346 L7.15531997,5.07129346 L12.117056,2.0596804 Z" transform="translate(68.763 206.13)"/>
    <polygon fill="#C39400" points="67.89 208.827 81.108 208.827 81.108 197.925 67.89 197.925"/>
    <path fill="#1D1D1B" d="M68.0778258,198.112177 L80.9203956,198.112177 L80.9203956,208.639432 L68.0778258,208.639432 L68.0778258,198.112177 Z M81.2953256,197.737247 L67.7004611,197.737247 L67.7004611,209.016797 L81.2953256,209.016797 L81.2953256,197.737247 Z"/>
    <polygon fill="#C39400" points="12.173 4.869 12.173 11.913 7.233 11.913 6.062 13.103 1.298 13.103 1.298 9.726 9.247 1.621" transform="translate(67.07 194.18)"/>
    <path fill="#1D1D1B" d="M2.4346104,9.7384416 L10.1888445,1.83082702 L12.9326504,4.87895924 L12.9326504,11.6617838 L8.10481802,11.6617838 L6.93133581,12.8498737 L2.4346104,12.8498737 L2.4346104,9.7384416 Z M10.2010176,1.28303968 L2.0596804,9.58506114 L2.0596804,13.2272383 L7.08958548,13.2272383 L8.2630677,12.0367138 L13.3100151,12.0367138 L13.3100151,4.73288262 L10.2010176,1.28303968 Z" transform="translate(66.12 194.244)"/>
    <path fill="#4C2A1F" d="M48.692208,9.7384416 L37.8508879,23.8567473 C37.8508879,23.8567473 33.1593936,24.1610736 30.5860105,23.5572902 C28.0150619,22.9510722 23.221314,21.4367446 20.3484737,21.4367446 C17.4731988,21.4367446 13.2881036,22.5980537 9.95999115,20.4799427 C6.63187873,18.3618316 2.79980196,16.3946664 2.09133033,14.4275012 C1.38529332,12.460336 5.16867788,3.93676502 7.03602406,3.93676502 C8.90093562,3.93676502 28.8209179,2.12298027 29.1739364,2.12298027 C29.5269549,2.12298027 45.5150414,2.5271256 45.5150414,2.5271256 L50.1286281,7.1407123 L48.692208,9.7384416 Z" transform="translate(30.04 179.656)"/>
    <path fill="#1D1D1B" d="M14.6076624,21.9114936 C12.5212013,21.9114936 10.9289661,21.5146521 9.59479959,20.6649731 C8.94719322,20.2535239 8.28254458,19.8493786 7.62519977,19.4476679 C4.91304379,17.7945674 2.34939904,16.2315475 1.8016117,14.709916 C1.34147033,13.4244417 3.07978216,8.56982861 4.95443216,5.90393022 C5.83332652,4.6574097 6.34216009,4.46994469 6.56857886,4.46994469 C7.87596464,4.46994469 18.0039439,3.58374651 24.0539508,3.05300144 C26.5810763,2.8314519 28.5798915,2.65859456 28.7064912,2.65615995 C29.0497713,2.65615995 43.7767296,3.02622073 44.9672541,3.05543605 L49.4274603,7.51807692 L48.0616439,9.99164108 L37.2860583,24.0198662 C36.9914704,24.0369085 35.9518918,24.0904699 34.7029366,24.0904699 C32.7674214,24.0904699 31.1970977,23.9614356 30.1623882,23.7179745 C29.5415626,23.5718979 28.7795295,23.3698252 27.9712389,23.1555795 C25.3491635,22.4592809 22.0867855,21.5949942 19.8810285,21.5949942 C19.1676877,21.5949942 18.3764393,21.6655979 17.5389333,21.7386363 C16.5918699,21.8238476 15.6107219,21.9114936 14.6076624,21.9114936 M28.7064912,2.27879533 C28.5969338,2.27879533 27.1069522,2.4102643 24.0198662,2.68050605 C17.9771632,3.20881651 7.85892237,4.09501469 6.56857886,4.09501469 C6.03783379,4.09501469 5.39022743,4.63062898 4.64523664,5.6896845 C2.81197501,8.29715224 0.895936627,13.2954074 1.44859319,14.8365158 C2.04020352,16.484747 4.6574097,18.0794168 7.43043094,19.7690364 C8.08534114,20.1683126 8.74755517,20.5724579 9.39272692,20.983907 C10.7901933,21.8725398 12.448163,22.2864236 14.6076624,22.2864236 C15.6277642,22.2864236 16.616216,22.1987776 17.5730179,22.1135663 C18.4007854,22.040528 19.18473,21.9699242 19.8810285,21.9699242 C22.0356587,21.9699242 25.2736906,22.8293417 27.8738545,23.5183365 C28.6845797,23.7325822 29.451482,23.9370895 30.0747423,24.0831661 C31.1532747,24.3363656 32.7114253,24.4653999 34.7029366,24.4653999 C36.1904836,24.4653999 37.3834427,24.389927 37.3956157,24.389927 L37.4808271,24.3826232 L37.5319539,24.3144541 L48.373274,10.1961484 L49.8949055,7.45234243 L45.1279384,2.68537527 L45.0524655,2.68294066 C44.3999899,2.66589839 29.0570751,2.27879533 28.7064912,2.27879533" transform="translate(30.506 179.312)"/>
    <polygon fill="#C39400" points="12.173 4.869 12.173 11.881 10.05 11.881 10.05 10.303 8.989 10.303 8.989 11.815 6.61 11.815 6.61 10.401 5.697 10.401 5.697 11.881 2.396 11.881 2.396 7.572 8.699 1.266 12.399 4.034" transform="translate(73.373 188.456)"/>
    <path fill="#1D1D1B" d="M2.4346104,7.3038312 L8.567394,1.1710476 L12.0342792,3.76147307 L11.8346412,4.52350612 L11.8346412,11.3477191 L10.0890255,11.3477191 L10.0890255,9.77009154 L8.65260536,9.77009154 L8.65260536,11.2844192 L6.648921,11.2844192 L6.648921,9.86747595 L5.35857749,9.86747595 L5.35857749,11.3477191 L2.4346104,11.3477191 L2.4346104,7.3038312 Z M8.53330945,0.674387081 L8.41644815,0.78881377 L2.0596804,7.14801613 L2.0596804,11.7226491 L5.73350749,11.7226491 L5.73350749,10.2448406 L6.27155639,10.2448406 L6.27155639,11.6593492 L9.02753536,11.6593492 L9.02753536,10.1474561 L9.71166089,10.1474561 L9.71166089,11.7226491 L12.2120058,11.7226491 L12.2120058,4.55028684 L12.4652052,3.61296183 L8.53330945,0.674387081 L8.53330945,0.674387081 Z" transform="translate(73.523 188.8)"/>
    <polygon fill="#C39400" points="14.608 4.869 2.128 21.176 2.128 15.056 12.626 1.278" transform="translate(65.76 187.652)"/>
    <path fill="#1D1D1B" d="M2.4346104,14.6076624 L12.7184047,1.11018234 L14.5005395,4.34091034 L2.4346104,20.1074473 L2.4346104,14.6076624 Z M12.7695315,0.42362221 L2.05724579,14.4810627 L2.05724579,21.2176296 L14.9485079,4.37256028 L12.7695315,0.42362221 L12.7695315,0.42362221 Z" transform="translate(65.643 188.164)"/>
    <polygon fill="#C39400" points="78.374 192.81 81.269 192.81 81.269 186.601 78.374 186.601"/>
    <path fill="#1D1D1B" d="M78.5612581,186.791239 L81.0810799,186.791239 L81.0810799,192.622131 L78.5612581,192.622131 L78.5612581,186.791239 Z M81.4560099,186.413874 L78.1838935,186.413874 L78.1838935,192.997061 L81.4560099,192.997061 L81.4560099,186.413874 Z"/>
    <path fill="#C39400" d="M48.692208,9.7384416 C48.692208,9.7384416 27.5451821,9.89912589 24.3777539,9.89912589 C21.2103258,9.89912589 9.39029231,15.0118077 8.81328965,15.2065766 C8.23385237,15.3989108 3.79555761,17.8432596 3.79555761,17.8432596 C3.79555761,17.8432596 3.22585878,20.3509083 2.05724579,20.3509083 C0.891067406,20.3509083 0,19.9978898 0,18.678331 L0,12.7622277 C0,12.7622277 5.91853788,7.64711127 12.1243598,5.23684697 C18.3326163,2.82414806 24.8281569,3.24290105 25.2469098,3.65921943 C25.6656628,4.07797242 29.0741174,0.830202146 35.6840846,3.19420884 C42.2916173,5.55821554 46.0871749,4.36769106 46.0871749,4.36769106 L48.692208,9.7384416 Z" transform="translate(26.466 175.546)"/>
    <path fill="#1D1D1B" d="M26.7807144,2.4346104 C26.970614,2.4346104 27.2359865,2.32018371 27.6376973,2.14489176 C28.5725877,1.73831183 30.1404768,1.06149013 32.4241413,1.06149013 C33.894646,1.06149013 35.4479274,1.34877416 37.0401626,1.918473 C40.4705287,3.14551664 43.1364271,3.40358534 44.767616,3.40358534 C46.1699516,3.40358534 47.0658883,3.22342417 47.4091683,3.13821281 L49.8145634,8.10238341 C47.2338764,8.12186029 28.7259681,8.26063309 25.7995664,8.26063309 C23.0922796,8.26063309 14.4469781,11.8224681 11.191904,13.1639384 C10.6514205,13.3879226 10.2594482,13.5486069 10.1742369,13.5753876 C9.58506114,13.772591 5.30745067,16.1268593 5.1272895,16.2266783 L5.05425119,16.2680667 L5.03477431,16.3508434 C4.88382846,17.0081883 4.31412963,18.7124155 3.47905826,18.7124155 C2.18628014,18.7124155 1.60927747,18.2547088 1.60927747,17.2273032 L1.60927747,11.3964113 C2.2714915,10.8364509 7.85405315,6.19851808 13.6143414,3.95867651 C17.9917709,2.25931845 22.2328622,2.07428806 23.8543127,2.07428806 C25.6047976,2.07428806 26.4301305,2.25931845 26.539688,2.34452982 C26.5981186,2.40296046 26.6808954,2.4346104 26.7807144,2.4346104 M32.4241413,0.684125522 C30.0625692,0.684125522 28.4508571,1.38285871 27.489186,1.79917709 C27.1678175,1.94038449 26.8927065,2.0596804 26.7807144,2.0596804 C26.5250803,1.79674248 25.039968,1.69935806 23.8543127,1.69935806 C22.2109507,1.69935806 17.9138633,1.88438845 13.4780032,3.61052722 C7.31356964,6.00618386 1.3585126,11.1164311 1.29764734,11.1675579 L1.23191286,11.2235539 L1.23191286,17.2273032 C1.23191286,18.4786929 1.9671652,19.0873455 3.47905826,19.0873455 C4.66714814,19.0873455 5.2660623,16.9741037 5.38048898,16.516397 C6.93133581,15.6642833 9.8553029,14.0793519 10.2935328,13.9332753 C10.3909172,13.9016254 10.7463703,13.7555488 11.335546,13.5120877 C14.2619477,12.3069556 23.1677526,8.63556309 25.7995664,8.63556309 C28.93291,8.63556309 49.904644,8.47731341 50.1164551,8.4748788 L50.4134776,8.47244419 L47.6063718,2.68780988 L47.4529913,2.73650209 C47.4432529,2.7389367 46.498624,3.02865534 44.767616,3.02865534 C43.1656424,3.02865534 40.5484362,2.77302125 37.1667624,1.56545449 C35.5331388,0.981147991 33.938469,0.684125522 32.4241413,0.684125522" transform="translate(25.044 176.997)"/>
    <path fill="#C39400" d="M9.7384416,12.173052 C9.7384416,12.1803558 9.74087621,12.1876597 9.74087621,12.1973981 C9.74087621,12.2095712 9.73600699,12.2217442 9.73600699,12.2363519 L9.73113777,12.3872977 L9.71896472,12.3872977 C9.61914569,14.2838592 8.06342964,15.7957523 6.14008743,15.7957523 C4.5186369,15.7957523 3.16255891,14.7147853 2.7145906,13.2394114 L2.69754832,13.2394114 C2.69754832,13.2394114 0.372495391,6.42737146 0.886198186,5.32692756 C1.4047702,4.22404904 6.05244145,0.674387081 9.97946803,3.08708599 L9.7384416,12.173052 Z" transform="translate(26.155 179.254)"/>
    <path fill="#1D1D1B" d="M2.4346104,12.173052 C1.51432767,9.4584614 0.316499352,5.28797379 0.664648639,4.54298301 C1.00792871,3.80773067 3.68113092,1.58980059 6.648921,1.58980059 C7.63737282,1.58980059 8.56252478,1.83813085 9.39759614,2.32748754 L9.15656971,11.3063307 C9.15656971,11.3379806 9.1541351,11.3550229 9.1541351,11.3744998 L9.13952744,11.5132726 C9.04214303,13.3246227 7.55216146,14.7440006 5.74811515,14.7440006 C4.24596054,14.7440006 2.94100936,13.7701564 2.50034488,12.3215632 L2.45408728,12.1706174 L2.4346104,12.173052 Z M6.648921,1.21243598 C3.63974255,1.21243598 0.779075328,3.41575839 0.323803183,4.38229872 C-0.209376494,5.52169639 1.88682306,11.7348221 2.12784949,12.4384245 L2.1765417,12.5820665 L2.18871475,12.5796319 C2.72189443,14.1061327 4.13153385,15.1213652 5.74811515,15.1213652 C7.69823808,15.1213652 9.317254,13.6313836 9.50228439,11.7007376 L9.50958822,11.698303 L9.53393433,11.2990269 L9.77982998,2.12054566 L9.68488017,2.06454962 C8.76703205,1.49972001 7.74449568,1.21243598 6.648921,1.21243598 L6.648921,1.21243598 Z" transform="translate(26.547 180.117)"/>
    <path fill="#C39400" d="M9.7384416,14.6076624 C9.71166089,14.7707813 9.67270712,14.9265964 9.62401491,15.0799768 C9.59236498,15.1968381 9.56314965,15.2893533 9.53636894,15.3623916 C9.52176127,15.4013454 9.50715361,15.4427338 9.49011134,15.4816875 C9.48767673,15.4865568 9.48280751,15.5011644 9.4803729,15.5060336 C9.4803729,15.5084682 9.47550368,15.5084682 9.47550368,15.5109029 C8.91310867,16.7622926 7.65928432,17.6387523 6.19608347,17.6387523 C4.3774295,17.6387523 2.88744793,16.2826744 2.6464215,14.5297549 C2.64398689,14.5297549 2.63181384,14.5248856 2.63181384,14.5248856 C2.63181384,14.5248856 0.762033055,6.73900159 1.50458923,4.58437138 C2.24227618,2.42974118 8.67451686,0.85454825 11.3136345,4.5186369 C11.3136345,4.5186369 10.3203135,11.9490678 9.7384416,14.6076624" transform="translate(41.494 174.622)"/>
    <path fill="#1D1D1B" d="M2.4346104,14.6076624 C2.2471454,13.8091102 0.642737146,6.81447451 1.31955884,4.8448747 C1.71640033,3.69086937 3.9318958,2.7145906 6.15956431,2.7145906 C7.31113503,2.7145906 9.42681147,2.98239774 10.7536741,4.76940177 C10.6489859,5.55578093 9.73600699,12.2899133 9.19308887,14.7659121 C9.16874277,14.9144233 9.13465822,15.0556307 9.0835314,15.2236188 C9.05188147,15.3404801 9.02266614,15.4281261 8.99832004,15.4962952 L8.94475861,15.6253295 C8.38966744,16.859677 7.17236224,17.6509254 5.83576113,17.6509254 C4.14857612,17.6509254 2.70241754,16.384928 2.47112956,14.7050468 L2.4346104,14.6076624 Z M6.15956431,2.33966059 L6.15956431,2.33966059 C3.7444308,2.33966059 1.41450864,3.40845456 0.964105718,4.72314418 C0.214245715,6.90455509 2.01098819,14.4494127 2.08646111,14.7683467 L2.11811105,14.885208 C2.42974118,16.6843851 4.00493411,18.0258554 5.83576113,18.0258554 C7.31843886,18.0258554 8.67208224,17.146961 9.28316946,15.7884484 L9.28316946,15.7860138 L9.29534251,15.7689716 C9.31238478,15.7300178 9.32212322,15.7008025 9.33186166,15.6715871 L9.35133855,15.6277642 C9.38055387,15.5498566 9.4097692,15.4524722 9.44385374,15.3283071 C9.49984978,15.1505805 9.53636894,14.9923308 9.56071504,14.8365158 C10.1377177,12.2120058 11.1261695,4.81809398 11.135908,4.74505567 L11.1456464,4.66958275 L11.1018234,4.60871749 C10.0500717,3.14551664 8.29228302,2.33966059 6.15956431,2.33966059 L6.15956431,2.33966059 Z" transform="translate(41.857 174.422)"/>
    <path fill="#C39400" d="M9.7384416,12.173052 C9.7384416,12.173052 9.72139933,12.1754866 9.71896472,12.1754866 C9.51445744,14.2984669 7.7493649,15.9637404 5.57282321,15.9637404 C3.52775047,15.9637404 1.83082702,14.4956703 1.46807007,12.5552858 C1.46807007,12.5528512 1.46320085,12.5528512 1.46320085,12.547982 C1.01523254,11.3038961 0.615956431,3.13334358 1.16374377,2.58799086 C5.73107288,-0.917848121 10.2959674,5.41700814 10.2959674,5.41700814 L9.7384416,12.173052 Z" transform="translate(60.68 175.847)"/>
    <path fill="#1D1D1B" d="M2.4346104,12.173052 C1.9671652,10.7098511 1.69935806,2.94344397 2.10837261,2.45408728 C2.97022469,1.79674248 3.91485352,1.45346241 4.89843612,1.45346241 C7.95630679,1.45346241 10.5613399,4.74262106 10.916793,5.20763165 L10.342225,11.8955064 C10.1450215,13.9576214 8.44566348,15.5133375 6.38598308,15.5133375 C4.46751008,15.5133375 2.81684423,14.1426518 2.46382572,12.2558288 L2.4346104,12.173052 Z M4.89843612,1.07853241 L4.89600151,1.07853241 C3.82964216,1.07853241 2.80710579,1.44615858 1.86004235,2.17410709 C1.1929591,2.83875573 1.64579663,10.9727891 2.08646111,12.316694 L2.08646111,12.3775593 L2.11080722,12.3970362 C2.50764871,14.4128936 4.30195658,15.8882675 6.38598308,15.8882675 C8.5917401,15.8882675 10.4225671,14.2595131 10.7025473,12.073233 L10.7341973,12.0683638 L10.7366319,11.9247217 L11.3014615,5.09807418 L11.2600731,5.04207814 C11.1456464,4.88139385 8.36288672,1.07853241 4.89843612,1.07853241 L4.89843612,1.07853241 Z" transform="translate(59.868 176.112)"/>
    <path fill="#C39400" d="M9.7384416,2.4346104 L9.09570445,9.41463842 C9.09570445,9.41463842 8.74025134,11.3744998 7.13340847,11.3744998 L3.24290105,11.3744998 C3.24290105,11.3744998 2.02072663,11.1188657 1.85760774,9.99164108 C1.69692345,8.86685108 1.69692345,7.00193951 1.69692345,7.00193951 L4.36769106,7.00193951 L4.36769106,2.30557605 L9.80174147,2.30557605 L9.7384416,2.4346104 Z" transform="translate(66.111 220.64)"/>
    <path fill="#1D1D1B" d="M4.8692208,2.4346104 L9.85773751,2.4346104 L9.2223042,9.33673088 C9.21256575,9.39516153 8.87658952,11.1286041 7.44747321,11.1286041 L3.55696579,11.1286041 C3.55209657,11.1237349 2.50034488,10.8851431 2.35913748,9.90642972 C2.23253774,9.0129277 2.20575702,7.63006899 2.2008878,7.13097386 L4.8692208,7.13097386 L4.8692208,2.4346104 Z M10.4201325,2.0596804 L4.4942908,2.0596804 L4.4942908,6.75360925 L1.82352319,6.75360925 L1.82352319,6.94350886 C1.82352319,7.01898178 1.8259578,8.83276653 1.98664209,9.95999115 C2.16436865,11.2016425 3.46201599,11.4889265 3.51801203,11.5010995 L7.44747321,11.5035341 C9.19308887,11.5035341 9.58993037,9.4097692 9.59479959,9.3878577 L10.2351021,2.42730657 L10.4201325,2.0596804 Z" transform="translate(65.797 220.699)"/>
    <polygon fill="#C86606" points="132.125 238.578 129.101 238.578 129.101 241.536 132.125 241.536"/>
    <path fill="#1D1D1B" d="M129.291235,238.765301 L131.940091,238.765301 L131.940091,241.348423 L129.291235,241.348423 L129.291235,238.765301 Z M132.315021,238.387937 L128.91387,238.387937 L128.91387,241.723353 L132.315021,241.723353 L132.315021,238.387937 Z"/>
    <polygon fill="#C39400" points="90.318 249.704 87.294 249.704 87.294 252.662 90.318 252.662"/>
    <path fill="#1D1D1B" d="M87.4816706,249.891471 L90.1305268,249.891471 L90.1305268,252.474593 L87.4816706,252.474593 L87.4816706,249.891471 Z M90.5054568,249.516541 L87.104306,249.516541 L87.104306,252.851957 L90.5054568,252.851957 L90.5054568,249.516541 Z"/>
    <polygon fill="#C86606" points="50.142 215.87 47.118 215.87 47.118 218.828 50.142 218.828"/>
    <path fill="#1D1D1B" d="M47.3081644,216.060125 L49.9545859,216.060125 L49.9545859,218.643246 L47.3081644,218.643246 L47.3081644,216.060125 Z M50.3295159,215.68276 L46.9307998,215.68276 L46.9307998,219.018176 L50.3295159,219.018176 L50.3295159,215.68276 Z"/>
    <path fill="#C39400" d="M4.8692208,2.4346104 C4.8692208,1.69935806 4.27274125,1.10531312 3.53992352,1.10531312 C2.80467118,1.10531312 2.20819163,1.69935806 2.20819163,2.4346104 C2.20819163,3.16986274 2.80467118,3.76634229 3.53992352,3.76634229 C4.27274125,3.76634229 4.8692208,3.16986274 4.8692208,2.4346104" transform="translate(44.138 184.42)"/>
    <path fill="#1D1D1B" d="M2.4346104,4.8692208 C1.80404631,4.8692208 1.29277812,4.35795262 1.29277812,3.72738852 C1.29277812,3.09682443 1.80404631,2.58555624 2.4346104,2.58555624 C3.06517449,2.58555624 3.57644268,3.09682443 3.57644268,3.72738852 C3.57644268,4.35795262 3.06517449,4.8692208 2.4346104,4.8692208 M2.4346104,2.20819163 C1.59710442,2.20819163 0.91541351,2.88988254 0.91541351,3.72738852 C0.91541351,4.5648945 1.59710442,5.2441508 2.4346104,5.2441508 C3.27211638,5.2441508 3.95380729,4.5648945 3.95380729,3.72738852 C3.95380729,2.88988254 3.27211638,2.20819163 2.4346104,2.20819163" transform="translate(45.242 183.129)"/>
    <path fill="#C39400" d="M4.8692208,2.4346104 C4.8692208,1.69935806 4.27274125,1.10531312 3.53748891,1.10531312 C2.80223657,1.10531312 2.20819163,1.69935806 2.20819163,2.4346104 C2.20819163,3.16986274 2.80223657,3.76634229 3.53748891,3.76634229 C4.27274125,3.76634229 4.8692208,3.16986274 4.8692208,2.4346104" transform="translate(62.49 184.42)"/>
    <path fill="#1D1D1B" d="M2.4346104,4.8692208 C1.80404631,4.8692208 1.29277812,4.35795262 1.29277812,3.72738852 C1.29277812,3.09682443 1.80404631,2.58555624 2.4346104,2.58555624 C3.06517449,2.58555624 3.57887729,3.09682443 3.57887729,3.72738852 C3.57887729,4.35795262 3.06517449,4.8692208 2.4346104,4.8692208 M2.4346104,2.20819163 C1.59710442,2.20819163 0.91541351,2.88988254 0.91541351,3.72738852 C0.91541351,4.5648945 1.59710442,5.2441508 2.4346104,5.2441508 C3.27211638,5.2441508 3.95380729,4.5648945 3.95380729,3.72738852 C3.95380729,2.88988254 3.27211638,2.20819163 2.4346104,2.20819163" transform="translate(63.593 183.129)"/>
    <path fill="#C39400" d="M4.8692208,2.4346104 C4.8692208,1.69935806 4.27274125,1.10531312 3.53748891,1.10531312 C2.80467118,1.10531312 2.20819163,1.69935806 2.20819163,2.4346104 C2.20819163,3.16986274 2.80467118,3.76634229 3.53748891,3.76634229 C4.27274125,3.76634229 4.8692208,3.16986274 4.8692208,2.4346104" transform="translate(28.49 188.067)"/>
    <path fill="#1D1D1B" d="M2.4346104,4.8692208 C1.80404631,4.8692208 1.29277812,4.35795262 1.29277812,3.72738852 C1.29277812,3.09682443 1.80404631,2.58555624 2.4346104,2.58555624 C3.06517449,2.58555624 3.57887729,3.09682443 3.57887729,3.72738852 C3.57887729,4.35795262 3.06517449,4.8692208 2.4346104,4.8692208 M2.4346104,2.20819163 C1.59710442,2.20819163 0.91541351,2.88988254 0.91541351,3.72738852 C0.91541351,4.5648945 1.59710442,5.24658541 2.4346104,5.24658541 C3.27211638,5.24658541 3.95380729,4.5648945 3.95380729,3.72738852 C3.95380729,2.88988254 3.27211638,2.20819163 2.4346104,2.20819163" transform="translate(29.594 186.775)"/>
    <path fill="#C39400" d="M2.4346104,2.4346104 C2.4346104,1.78213481 1.97203442,1.25382436 1.39990098,1.25382436 C0.830202146,1.25382436 0.36762617,1.78213481 0.36762617,2.4346104 C0.36762617,3.08708599 0.830202146,3.61539644 1.39990098,3.61539644 C1.97203442,3.61539644 2.4346104,3.08708599 2.4346104,2.4346104" transform="translate(70.198 226.844)"/>
    <path fill="#1D1D1B" d="M2.4346104,2.4346104 C1.9671652,2.4346104 1.58980059,1.9890767 1.58980059,1.44128936 C1.58980059,0.893502017 1.9671652,0.447968314 2.4346104,0.447968314 C2.9020556,0.447968314 3.27942021,0.893502017 3.27942021,1.44128936 C3.27942021,1.9890767 2.9020556,2.4346104 2.4346104,2.4346104 M2.4346104,0.0706037016 C1.76022332,0.0706037016 1.21243598,0.686560133 1.21243598,1.44128936 C1.21243598,2.19601858 1.76022332,2.81197501 2.4346104,2.81197501 C3.10899748,2.81197501 3.65678482,2.19601858 3.65678482,1.44128936 C3.65678482,0.686560133 3.10899748,0.0706037016 2.4346104,0.0706037016" transform="translate(69.164 227.838)"/>
    <path fill="#4C2A1F" d="M12.173052,7.3038312 C11.7007376,7.42799633 9.83339141,7.08228165 9.44872296,7.08228165 C9.35377316,7.08228165 9.2466503,7.07497782 9.13952744,7.06280477 L9.16387355,7.08228165 L7.8418801,7.08228165 C7.30139659,7.08228165 6.17417197,6.836386 5.63612308,6.836386 C5.09807418,6.836386 4.06579937,5.58499626 3.84668443,5.58499626 C3.62513489,5.58499626 2.00611897,3.74686541 2.00611897,3.74686541 C2.00611897,3.74686541 2.57094858,2.74137131 3.06030527,2.25201462 C3.55209657,1.76022332 3.52775047,1.78700403 4.7523595,1.78700403 C5.97940314,1.78700403 5.83089191,2.32505293 6.22529879,2.32505293 C6.47119444,2.32505293 6.79499763,2.7145906 7.00193951,3.15038586 C7.41338867,3.03352456 7.89787614,2.95318242 8.16324867,2.95318242 C8.67695147,2.95318242 9.09326984,2.73650209 9.86747595,3.15525508 C10.6368128,3.57400807 10.6051629,3.89537664 10.916793,5.32936217 C11.2235539,6.76091308 12.7938777,6.98246263 12.7938777,6.98246263 C12.7938777,6.98246263 12.6453664,7.17966607 12.173052,7.3038312" transform="translate(80.902 218.009)"/>
    <path fill="#FFF" d="M211.811105,175.291949 C194.286779,163.608253 178.130705,158.266718 163.815195,156.735348 L97.6838731,105.79356 L2.3420952,32.3462338 C7.18453529,22.1062624 12.9131736,11.4840573 19.6911289,0.516137405 L97.6838731,62.4623644 L215.966985,156.404241 C214.2798,168.584597 211.811105,175.291949 211.811105,175.291949" transform="translate(35.352 110.068)"/>
    <path fill="#B4862F" d="M132.903572,17.0422728 C101.575005,46.1967323 78.1978763,74.2750941 60.8147581,100.573756 L132.903572,157.833358 L252.433204,252.77099 C255.021195,207.567579 242.27601,118.818726 132.903572,17.0422728 M37.5593595,141.618852 L132.903572,215.066179 L199.034894,266.007967 C213.350403,267.539337 229.506478,272.883307 247.030804,284.564567 C247.030804,284.564567 249.499499,277.857216 251.186684,265.679295 L132.903572,171.734983 L54.9108278,109.788756 C48.1328725,120.756676 42.4042342,131.378881 37.5593595,141.618852 M18.7787749,284.564567 C85.7962954,239.884597 132.903572,287.819641 132.903572,287.819641 C132.903572,287.819641 151.189931,269.216783 181.179462,265.993359 L132.903572,228.804685 L32.9652497,151.822305 C-0.900180974,231.134608 18.7787749,284.564567 18.7787749,284.564567 M253.830671,299.85879 C182.817954,252.517791 132.901137,300.372493 132.901137,300.372493 C132.901137,300.372493 82.986755,252.517791 11.9764734,299.85879 C11.9764734,299.85879 -55.4330193,162.466421 132.901137,0.372495391 C321.240163,162.466421 253.830671,299.85879 253.830671,299.85879" transform="translate(.133 .795)"/>
    <path fill="#F4EA4E" d="M72.038312,36.519156 C72.038312,16.7209042 55.9869256,0.66951786 36.1886739,0.66951786 C16.3904221,0.66951786 0.33903572,16.7209042 0.33903572,36.519156 C0.33903572,56.3174078 16.3904221,72.3687941 36.1886739,72.3687941 C55.9869256,72.3687941 72.038312,56.3174078 72.038312,36.519156" transform="translate(94.416 156.58)"/>
    <path fill="#1D1D1B" d="M36.519156,73.038312 C17.0106229,73.038312 1.13939767,57.1670868 1.13939767,37.6585537 C1.13939767,18.1500205 17.0106229,2.27879533 36.519156,2.27879533 C56.0276891,2.27879533 71.8989143,18.1500205 71.8989143,37.6585537 C71.8989143,57.1670868 56.0276891,73.038312 36.519156,73.038312 M36.519156,1.33903572 C16.4920508,1.33903572 0.199638053,17.6314485 0.199638053,37.6585537 C0.199638053,57.6856588 16.4920508,73.9780716 36.519156,73.9780716 C56.5462612,73.9780716 72.8386739,57.6856588 72.8386739,37.6585537 C72.8386739,17.6314485 56.5462612,1.33903572 36.519156,1.33903572" transform="translate(94.086 155.44)"/>
    <path fill="#1D1D1B" d="M2.4346104,0 L2.38591819,1.12722462 C34.8344056,2.54416787 40.4023596,29.7582429 40.455921,30.0309193 L41.5612341,29.8215428 C41.5076727,29.5366934 35.7619922,1.45589702 2.4346104,0" transform="translate(92.903 198.871)"/>
    <path fill="#1D1D1B" d="M2.4346104,0 L1.36825104,0.36762617 C4.88139385,10.5345592 11.7689067,23.8250974 24.621215,29.3979206 C32.3486684,32.7479445 38.4838866,31.7132351 38.7395207,31.6669775 L38.5447519,30.5567951 C38.3037254,30.5981835 14.3155092,34.3864373 2.4346104,0" transform="translate(127.5 157.02)"/>
    <path fill="#1D1D1B" d="M12.173052,0 C12.1194906,0.440664482 10.7512395,10.8145394 0.79124838,12.5138975 L0.981147991,13.6265144 C11.7786451,11.7835143 13.2783651,0.250764871 13.2929728,0.133903572 L12.173052,0 Z" transform="translate(142.752 167.222)"/>
    <path fill="#1D1D1B" d="M26.7807144,0 C26.5153419,0.0267807144 0.18503039,2.92396709 0.674387081,32.7187292 L1.8016117,32.7016869 C1.60440825,20.640627 5.75054976,11.6642184 14.1304788,6.02322613 C20.3996005,1.8016117 26.8245374,1.12965923 26.8902719,1.12235539 L26.7807144,0 Z" transform="translate(108.383 169.368)"/>
    <polygon fill="#00489A" points="0 19.477 5.322 23.643 18.593 14.963 18.642 15.002 13.196 29.802 18.515 33.965 31.969 16.77 28.429 14.001 18.895 26.187 18.849 26.148 24.166 10.668 21.254 8.39 7.601 17.157 7.552 17.12 16.994 5.054 13.451 2.281" transform="translate(50.891 124.564)"/>
    <path fill="#00489A" d="M9.7384416,12.173052 L14.191344,15.6569795 L7.08958548,20.2705662 L7.04089328,20.234047 L9.7384416,12.173052 Z M1.84543468,23.0021991 L5.72376905,26.0357236 L25.6047976,13.8724101 L21.6802056,10.7999317 L17.3855529,13.6119067 L10.9533122,8.58200166 L12.6015434,3.6981732 L8.77190127,0.703602406 L1.84543468,23.0021991 Z" transform="translate(76.506 142.723)"/>
    <polygon fill="#00489A" points="0 19.477 3.781 22.433 14.746 8.419 23.126 14.975 25.612 11.798 13.451 2.284" transform="translate(90.161 155.488)"/>
    <path fill="#00489A" d="M9.7384416,12.173052 L14.191344,15.6594141 L7.08958548,20.2730008 L7.04089328,20.234047 L9.7384416,12.173052 Z M1.84786929,23.0046337 L5.72376905,26.0357236 L25.6047976,13.8724101 L21.6802056,10.8023663 L17.3831183,13.6119067 L10.9557468,8.58200166 L12.6015434,3.70060781 L8.77433588,0.703602406 L1.84786929,23.0046337 Z" transform="translate(108.419 167.935)"/>
    <path fill="#00489A" d="M21.9114936,9.7384416 C21.9261013,6.99220107 20.7014922,4.9860821 19.0386533,3.68600015 C13.7141604,-0.479618249 7.47668854,1.04444786 3.59591956,6.00618386 C-0.396841495,11.1115619 -0.374930002,17.5316295 4.94712833,21.6972479 C8.46270575,24.4483576 13.4828724,24.8817183 16.9424538,21.3004064 L13.3319266,18.4738237 C11.4085843,20.0368436 9.21500036,19.9126785 7.43530016,18.5176467 C4.03901865,15.8639214 5.02260126,11.9734139 7.37686951,8.96423549 C9.61914569,6.09869905 13.1566346,4.20700677 16.5504815,6.86316672 C19.0070034,8.78650893 19.3916718,11.2211193 17.7434406,13.7750256 L13.9405792,10.7999317 L11.7348221,13.6143414 L18.9607458,19.2675067 L26.2304924,9.9721642 L23.8226628,8.09021036 L21.9114936,9.7384416 Z" transform="translate(125.437 185.504)"/>
    <path fill="#00489A" d="M9.7384416,12.173052 L14.1937786,15.6594141 L7.08958548,20.2730008 L7.04089328,20.234047 L9.7384416,12.173052 Z M1.84786929,23.0046337 L5.72620366,26.0357236 L25.6072322,13.8748447 L21.6826402,10.8023663 L17.3831183,13.6143414 L10.9557468,8.58443627 L12.6015434,3.70060781 L8.77433588,0.703602406 L1.84786929,23.0046337 Z" transform="translate(145.507 196.667)"/>
    <path fill="#00489A" d="M14.6076624,19.4768832 C13.0276003,20.9960801 10.3738749,21.0179916 8.4967903,19.5474869 C5.10050879,16.891327 6.086526,13.0032541 8.43835965,9.99407569 C10.6830704,7.12853925 14.2181247,5.23684697 17.6144062,7.89300692 C19.9272861,9.70192244 19.9808476,12.3069556 18.5006044,14.797562 L22.1598239,17.6606638 C25.1276139,13.0714232 24.3144541,8.00986822 20.1001435,4.71340573 C14.7780851,0.54778734 8.54061328,2.07428806 4.6574097,7.03602406 C0.664648639,12.1389675 0.686560133,18.5614697 6.00861847,22.7246535 C9.78956842,25.6827051 14.7001776,25.9529469 18.2668818,22.339985 L14.6076624,19.4768832 Z" transform="translate(167.014 217.301)"/>
    <polygon fill="#00489A" points="0 4.869 3.781 7.827 6.683 4.119 2.902 1.161" transform="translate(193.712 229.034)"/>
    <polygon fill="#00489A" points="0 19.477 12.088 28.935 14.576 25.756 6.269 19.255 9.376 15.282 16.577 20.916 18.876 17.977 11.674 12.346 17.235 5.242 13.451 2.284" transform="translate(190.973 233.881)"/>
    <polygon fill="#00489A" points="0 4.869 3.781 7.827 6.681 4.119 2.902 1.161" transform="translate(213.046 244.422)"/>
    <polygon fill="#1D1D1B" points="0 9.738 6.912 9.738 6.912 9.03 3.871 9.03 3.871 1.018 3.041 1.018 3.041 9.03 0 9.03" transform="translate(124.118 265.367)"/>
    <polygon fill="#1D1D1B" points="0 9.738 1.22 9.738 4.239 2.094 7.243 9.738 8.463 9.738 8.463 1.018 7.633 1.018 7.633 8.555 7.608 8.555 4.628 1.018 3.847 1.018 .855 8.555 .83 8.555 .83 1.018 0 1.018" transform="translate(134.267 265.367)"/>
  </g>
</svg>
