<svg xmlns="http://www.w3.org/2000/svg" width="286" height="398" viewBox="0 0 286 398">
  <g fill="none">
    <path fill="#C58C00" d="M80.1673422,108.154921 C79.7131069,108.761397 74.8679304,115.078857 80.924401,121.699556 C90.362401,117.302603 100.406048,113.865905 110.802989,111.49054 C132.000636,106.790349 154.005813,106.790349 175.152989,111.541079 C185.600401,113.865905 195.644048,117.302603 205.082048,121.699556 C211.138519,115.078857 206.293342,108.761397 205.839107,108.154921 C205.384872,108.357079 204.880166,108.357079 204.37546,108.154921 C194.836519,104.111746 184.792872,101.028825 174.34546,98.9566984 C153.702989,94.8124444 132.30346,94.8124444 111.660989,98.9566984 C101.213577,101.028825 91.1699304,104.111746 81.6309892,108.154921 C81.1262833,108.357079 80.6215775,108.357079 80.1673422,108.154921 L80.1673422,108.154921 Z"/>
    <path fill="#E33820" d="M149.211107 52.1569524C161.071695 48.5686349 169.348872 51.904254 174.597813 56.0990476 178.63546 64.3370159 179.49346 72.7266032 179.644872 74.192254 179.442989 74.6976508 179.291577 75.2030476 179.140166 75.7589841 175.304401 75.304127 169.752636 76.567619 169.752636 76.567619 172.528519 80.4086349 177.878401 81.2172698 177.878401 81.2172698 176.96993 86.0185397 173.083695 87.9895873 169.348872 87.5347302 165.412166 87.079873 161.626872 83.895873 161.828754 78.639746 160.516519 83.0872381 156.630283 84.9572063 152.94593 84.6034286 148.857813 84.1485714 144.921107 81.5205079 145.17346 76.3654603 145.17346 75.9611429 145.17346 75.6073651 145.22393 75.2535873 150.32146 75.455746 154.914283 72.0695873 154.914283 72.0695873 154.914283 72.0695873 152.89546 69.8458413 145.627695 69.4415238 145.627695 69.4415238 145.476283 64.6907937 143.962166 61.7089524L144.214519 61.7089524C146.586636 58.3227937 148.151225 55.1387937 149.211107 52.1569524L149.211107 52.1569524zM183.026401 64.8929524C207.908401 62.7702857 218.759577 79.6505397 220.324166 82.3796825 218.910989 83.1377778 217.447342 84.4012698 215.983695 86.2712381 215.983695 86.2712381 213.561107 83.4915556 206.596166 84.4012698 206.596166 84.4012698 207.656048 89.152 212.95546 92.3865397 211.895577 95.9748571 208.463577 98.1986032 204.627813 97.9459048 200.13593 97.6426667 196.65346 93.447873 197.006754 88.9498413 194.836519 92.0327619 190.798872 93.2457143 187.366872 91.8811429 184.136754 90.6176508 181.966519 87.3831111 182.218872 83.744254 182.269342 83.2893968 182.319813 82.8850794 182.420754 82.4807619 189.83993 83.7947937 193.170989 81.672127 193.170989 81.672127 193.170989 81.672127 187.518283 77.9827302 184.742401 77.376254 184.742401 77.376254 185.751813 71.159873 184.187225 67.5715556 184.187225 67.5715556 184.035813 67.7231746 183.732989 68.0264127 183.632048 67.6726349 183.430166 66.5102222 183.026401 64.8929524L183.026401 64.8929524zM102.980048 64.8929524C78.098048 62.7702857 67.2468723 79.6505397 65.682284 82.3796825 67.0954605 83.1377778 68.5591076 84.4012698 70.0227546 86.2712381 70.0227546 86.2712381 72.4453422 83.4915556 79.4102833 84.4012698 79.4102833 84.4012698 78.350401 89.152 73.0509892 92.3865397 74.1108716 95.9748571 77.5428716 98.1986032 81.3786363 97.9459048 85.8705186 97.6426667 89.3529892 93.447873 88.9996951 88.9498413 91.1699304 92.0327619 95.2075775 93.2457143 98.6395775 91.8811429 101.869695 90.6176508 104.03993 87.3831111 103.787577 83.744254 103.737107 83.2893968 103.686636 82.8850794 103.585695 82.4807619 96.1665186 83.7947937 92.8354598 81.672127 92.8354598 81.672127 92.8354598 81.672127 98.4881657 77.9827302 101.264048 77.376254 101.264048 77.376254 100.254636 71.159873 101.819225 67.5715556 101.819225 67.5715556 101.970636 67.7231746 102.27346 68.0264127 102.374401 67.6726349 102.576283 66.5102222 102.980048 64.8929524L102.980048 64.8929524zM136.845813 52.1569524C124.934754 48.5686349 116.657577 51.904254 111.408636 56.0990476 107.370989 64.3370159 106.512989 72.7266032 106.361577 74.192254 106.56346 74.6976508 106.714872 75.2030476 106.866283 75.7589841 110.702048 75.304127 116.253813 76.567619 116.253813 76.567619 113.47793 80.4086349 108.128048 81.2172698 108.128048 81.2172698 109.036519 86.0185397 112.922754 87.9895873 116.657577 87.5347302 120.594283 87.079873 124.379577 83.895873 124.177695 78.639746 125.48993 83.0872381 129.376166 84.9572063 133.060519 84.6034286 137.148636 84.1485714 141.085342 81.5205079 140.832989 76.3654603 140.832989 75.9611429 140.832989 75.6073651 140.782519 75.2535873 135.684989 75.455746 131.092166 72.0695873 131.092166 72.0695873 131.092166 72.0695873 133.110989 69.8458413 140.378754 69.4415238 140.378754 69.4415238 140.530166 64.6907937 142.044283 61.7089524L141.79193 61.7089524C139.419813 58.3227937 137.855225 55.1387937 136.845813 52.1569524L136.845813 52.1569524z"/>
    <path fill="#C58C00" d="M145.22393 0L140.782519 0 140.782519 6.51961905 136.542989 6.51961905 136.542989 11.3714286 140.782519 11.3714286 140.782519 17.3856508C137.199107 18.3459048 134.524166 21.6815238 134.524166 25.623619 134.524166 28.3022222 135.78593 30.728127 137.754283 32.2948571 137.400989 32.951873 136.997225 33.8615873 136.59346 34.9229206 136.59346 34.9229206 136.59346 34.9229206 136.542989 34.9229206 124.480519 34.4680635 114.487342 40.9371429 109.944989 47.8610794 62.1998134 37.8542222 57.6069899 80.9645714 57.4051076 83.0366984 54.2759311 85.0582857 52.2571076 88.3433651 52.2571076 88.3433651 52.2571076 88.3433651 60.0800487 84.1485714 63.8148723 90.8198095 68.1553429 98.6029206 71.486401 105.880635 81.8833422 102.696635 89.2015775 100.422349 91.3213422 95.0651429 91.3213422 95.0651429 93.6429892 96.7329524 96.7721657 97.2888889 99.4975775 96.6824127 103.535225 95.8232381 106.765342 92.1338413 107.47193 88.3939048 110.90393 95.0651429 122.209342 94.4586667 125.48993 86.8777143 129.678989 93.9027302 140.681577 91.5779048 143.003225 84.3001905 145.324872 91.5779048 156.32746 93.9027302 160.516519 86.8777143 163.797107 94.4586667 175.102519 95.0651429 178.534519 88.3939048 179.241107 92.1338413 182.471225 95.8232381 186.508872 96.6824127 189.234283 97.2888889 192.36346 96.7329524 194.685107 95.0651429 194.685107 95.0651429 196.804872 100.422349 204.123107 102.696635 214.520048 105.880635 217.851107 98.6029206 222.191577 90.8198095 225.926401 84.1485714 233.749342 88.3433651 233.749342 88.3433651 233.749342 88.3433651 231.730519 85.0582857 228.601342 83.0366984 228.39946 80.9645714 223.806636 37.8542222 176.06146 47.8610794 171.519107 40.9371429 161.52593 34.4680635 149.46346 34.9229206 149.412989 34.9229206 149.412989 34.9229206 149.412989 34.9229206 149.009225 33.8615873 148.60546 32.951873 148.252166 32.2948571 150.220519 30.728127 151.482283 28.3022222 151.482283 25.623619 151.482283 21.6815238 148.807342 18.3459048 145.22393 17.3856508L145.22393 11.3714286 149.46346 11.3714286 149.46346 6.51961905 145.22393 6.51961905 145.22393 0 145.22393 0zM135.634519 38.8144762C134.675577 44.3233016 135.230754 52.3591111 141.79193 61.7089524L142.044283 61.7089524C140.530166 64.6907937 140.378754 69.4415238 140.378754 69.4415238 133.110989 69.8458413 131.092166 72.0695873 131.092166 72.0695873 131.092166 72.0695873 135.684989 75.455746 140.782519 75.2535873 140.832989 75.6073651 140.832989 75.9611429 140.832989 76.3654603 141.085342 81.5205079 137.148636 84.1485714 133.060519 84.6034286 129.376166 84.9572063 125.48993 83.0872381 124.177695 78.639746 124.379577 83.895873 120.594283 87.079873 116.657577 87.5347302 112.922754 87.9895873 109.036519 86.0185397 108.128048 81.2172698 108.128048 81.2172698 113.47793 80.4086349 116.253813 76.567619 116.253813 76.567619 110.702048 75.304127 106.866283 75.7589841 106.714872 75.2030476 106.56346 74.6976508 106.361577 74.192254 106.61393 71.2609524 109.844048 40.6339048 135.634519 38.8144762L135.634519 38.8144762 135.634519 38.8144762zM143.962166 61.7089524L144.214519 61.7089524C150.775695 52.3591111 151.330872 44.3233016 150.422401 38.8144762 176.162401 40.6339048 179.392519 71.2609524 179.644872 74.192254 179.442989 74.6976508 179.291577 75.2030476 179.140166 75.7589841 175.304401 75.304127 169.752636 76.567619 169.752636 76.567619 172.528519 80.4086349 177.878401 81.2172698 177.878401 81.2172698 176.96993 86.0185397 173.083695 87.9895873 169.348872 87.5347302 165.412166 87.079873 161.626872 83.895873 161.828754 78.639746 160.516519 83.0872381 156.630283 84.9572063 152.94593 84.6034286 148.857813 84.1485714 144.921107 81.5205079 145.17346 76.3654603 145.17346 75.9611429 145.17346 75.6073651 145.22393 75.2535873 150.32146 75.455746 154.914283 72.0695873 154.914283 72.0695873 154.914283 72.0695873 152.89546 69.8458413 145.627695 69.4415238 145.627695 69.4415238 145.476283 64.6907937 143.962166 61.7089524L143.962166 61.7089524 143.962166 61.7089524zM61.4932252 81.4699683C61.7960487 79.2967619 67.6001664 43.6662857 108.077577 51.095619 104.191342 58.5249524 102.525813 66.864 102.27346 68.0264127 101.970636 67.7231746 101.819225 67.5715556 101.819225 67.5715556 100.254636 71.159873 101.264048 77.376254 101.264048 77.376254 98.4881657 77.9827302 92.8354598 81.672127 92.8354598 81.672127 92.8354598 81.672127 96.1665186 83.7947937 103.585695 82.4807619 103.686636 82.8850794 103.737107 83.2893968 103.787577 83.744254 104.03993 87.3831111 101.869695 90.6176508 98.6395775 91.8811429 95.2075775 93.2457143 91.1699304 92.0327619 88.9996951 88.9498413 89.3529892 93.447873 85.8705186 97.6426667 81.3786363 97.9459048 77.5428716 98.1986032 74.1108716 95.9748571 73.0509892 92.3865397 78.350401 89.152 79.4102833 84.4012698 79.4102833 84.4012698 72.4453422 83.4915556 70.0227546 86.2712381 70.0227546 86.2712381 66.9945193 82.3796825 64.0672252 81.2678095 61.4932252 81.4699683L61.4932252 81.4699683 61.4932252 81.4699683zM224.513225 81.4699683C221.939225 81.2678095 219.01193 82.3796825 215.983695 86.2712381 215.983695 86.2712381 213.561107 83.4915556 206.596166 84.4012698 206.596166 84.4012698 207.656048 89.152 212.95546 92.3865397 211.895577 95.9748571 208.463577 98.1986032 204.627813 97.9459048 200.13593 97.6426667 196.65346 93.447873 197.006754 88.9498413 194.836519 92.0327619 190.798872 93.2457143 187.366872 91.8811429 184.136754 90.6176508 181.966519 87.3831111 182.218872 83.744254 182.269342 83.2893968 182.319813 82.8850794 182.420754 82.4807619 189.83993 83.7947937 193.170989 81.672127 193.170989 81.672127 193.170989 81.672127 187.518283 77.9827302 184.742401 77.376254 184.742401 77.376254 185.751813 71.159873 184.187225 67.5715556 184.187225 67.5715556 184.035813 67.7231746 183.732989 68.0264127 183.480636 66.864 181.815107 58.5249524 177.928872 51.095619 218.406283 43.6662857 224.210401 79.2967619 224.513225 81.4699683L224.513225 81.4699683zM143.003225 397.94946C221.484989 397.94946 285.481695 333.814603 285.481695 255.225397 285.481695 176.68673 221.484989 112.551873 143.003225 112.551873 64.5214605 112.551873.524754714 176.68673.524754714 255.225397.524754714 333.814603 64.5214605 397.94946 143.003225 397.94946z"/>
    <path fill="#FFF" d="M143.003225,394.260063 C219.466166,394.260063 281.847813,331.793016 281.847813,255.225397 C281.847813,178.657778 219.466166,116.24127 143.003225,116.24127 C66.540284,116.24127 4.15863705,178.657778 4.15863705,255.225397 C4.15863705,331.793016 66.540284,394.260063 143.003225,394.260063 Z"/>
    <path fill="#C58C00" d="M143.003225,350.24 C195.240283,350.24 237.88793,307.584508 237.88793,255.225397 C237.88793,202.866286 195.240283,160.210794 143.003225,160.210794 C90.7661657,160.210794 48.1185193,202.866286 48.1185193,255.225397 C48.1185193,307.584508 90.7661657,350.24 143.003225,350.24 Z"/>
    <path fill="#000" d="M143.003225,347.662476 C193.827107,347.662476 235.26346,306.118857 235.26346,255.225397 C235.26346,204.331937 193.827107,162.838857 143.003225,162.838857 C92.1793422,162.838857 50.7429899,204.331937 50.7429899,255.225397 C50.7429899,306.118857 92.1793422,347.662476 143.003225,347.662476 Z"/>
    <path fill="#91240E" d="M71.2845186,181.134222 C71.1331069,178.809397 74.1108716,176.68673 77.8961657,176.434032 C81.7319304,176.181333 84.962048,177.798603 85.1134598,180.123429 C85.214401,181.740698 83.8516951,183.206349 81.7319304,184.065524 L99.3966363,334.522159 C91.9774598,330.276825 88.646401,327.648762 88.646401,327.648762 L76.2306363,184.773079 C73.4547539,184.368762 71.4359304,182.953651 71.2845186,181.134222 L71.2845186,181.134222 Z"/>
    <path fill="#2B9743" d="M196.451577,218.786286 C210.835695,213.328 215.125695,203.270603 222.141107,193.617524 C222.141107,193.617524 211.744166,244.510984 239.957225,289.289143 C225.421695,284.94273 218.406283,283.578159 206.596166,290.754794 C178.433577,307.837206 173.992166,292.220444 173.992166,292.220444 C175.001577,287.823492 175.960519,283.527619 176.616636,279.029587 C180.856166,250.171429 173.790283,228.742603 170.711577,221.111111 C174.749225,223.587556 179.897225,223.284317 184.389107,222.526222 C188.174401,221.818667 192.36346,220.605714 196.451577,218.786286 L196.451577,218.786286 Z"/>
    <path fill="#2B9743" d="M189.537107,192.101333 C188.07346,199.277968 185.398519,215.147429 188.275342,220.251937 C186.862166,220.605714 185.49946,220.908952 184.187225,221.161651 C179.342048,222.020825 170.459225,222.526222 168.541342,216.360381 C167.733813,213.833397 168.743225,210.801016 170.862989,208.122413 C173.033225,205.29219 176.414754,202.613587 180.250519,200.64254 C184.035813,198.772571 187.366872,195.79073 189.537107,192.101333 Z"/>
    <path fill="#2B9743" d="M131.899695,189.321651 C151.886048,181.942857 157.084519,176.888889 177.323225,177.192127 C181.764636,177.242667 187.26593,178.758857 189.436166,183.00419 C190.445577,184.975238 190.142754,187.603302 188.93146,190.231365 C187.064048,194.224 183.531107,197.509079 179.594401,199.429587 C175.607225,201.501714 172.074283,204.281397 169.752636,207.263238 C167.178636,210.649397 165.260754,215.400127 168.33946,219.140063 C169.954519,222.526222 180.654283,246.73473 174.900636,281.152254 C171.064872,270.235683 139.621695,272.712127 123.672989,281.85981 C97.3778127,296.870095 94.4505186,290.603175 94.4505186,290.603175 C99.2956951,273.470222 99.7499304,257.095365 98.1348716,242.792635 C98.4376951,242.893714 98.7405186,242.994794 98.8414598,242.994794 C114.033107,247.492825 141.438636,233.99873 141.438636,233.99873 C141.438636,233.99873 142.902283,224.194032 139.974989,211.356952 C136.492519,196.346667 132.909107,190.736762 131.899695,189.321651 L131.899695,189.321651 Z"/>
    <path fill="#FFF" d="M82.7918127,192.455111 C82.7918127,192.455111 103.333342,196.498286 122.86546,192.050794 C125.944166,191.393778 128.92193,190.433524 131.899695,189.321651 C132.909107,190.736762 136.492519,196.346667 139.974989,211.356952 C142.902283,224.194032 141.438636,233.99873 141.438636,233.99873 C141.438636,233.99873 114.033107,247.492825 98.8414598,242.994794 C98.7405186,242.994794 98.4376951,242.893714 98.1348716,242.792635 C94.8542833,213.125841 82.7918127,192.455111 82.7918127,192.455111 Z"/>
    <path fill="#000" d="M37.0654605,261.745016 L14.5555782,261.13854 L14.7574605,252.546794 C14.7574605,251.283302 14.8584017,250.070349 15.0098134,248.857397 C15.2116958,247.694984 15.7164017,246.633651 16.4734605,245.723937 C17.0791076,245.066921 17.8361664,244.561524 18.5932252,244.308825 C19.350284,244.005587 20.1073429,243.853968 20.8644017,243.904508 C22.2271076,243.955048 23.2869899,244.308825 24.0440487,244.965841 C24.8011076,245.572317 25.3058134,246.279873 25.6591076,247.037968 C25.9619311,247.745524 26.1638134,248.352 26.214284,248.705778 C26.3656958,247.644444 26.6685193,246.83581 27.1227546,246.279873 C27.5769899,245.774476 28.182637,245.420698 28.8892252,245.21854 C29.646284,245.066921 30.504284,244.915302 31.5136958,244.814222 C32.7754605,244.662603 33.7848723,244.561524 34.4409899,244.510984 C35.0971076,244.359365 35.5513429,244.308825 35.8541664,244.258286 C36.3588723,244.157206 36.7121664,244.056127 36.9140487,243.955048 C37.1159311,243.853968 37.3178134,243.702349 37.5196958,243.60127 L37.368284,248.958476 C37.0149899,248.958476 36.510284,249.059556 35.7532252,249.110095 C34.9961664,249.211175 34.188637,249.312254 33.2801664,249.413333 C32.4221664,249.514413 31.6651076,249.615492 30.9585193,249.716571 C30.2519311,249.767111 29.7976958,249.86819 29.5453429,249.96927 C28.8892252,250.171429 28.5359311,250.525206 28.3845193,250.980063 C28.2331076,251.48546 28.182637,251.940317 28.182637,252.344635 L28.0816958,256.589968 L37.1664017,256.792127 L37.0654605,261.745016 L37.0654605,261.745016 L37.0654605,261.745016 Z M18.2399311,256.488889 L24.498284,256.640508 L24.5992252,252.748952 C24.6496958,252.445714 24.5992252,252.041397 24.5487546,251.58654 C24.498284,251.131683 24.3468723,250.676825 24.0440487,250.272508 C23.9431076,250.070349 23.6907546,249.817651 23.2869899,249.514413 C22.8327546,249.211175 22.2271076,249.009016 21.4700487,248.958476 C20.7129899,248.958476 20.1073429,249.110095 19.7035782,249.362794 C19.2998134,249.615492 19.0474605,249.817651 18.8960487,250.070349 C18.6436958,250.424127 18.492284,250.878984 18.4418134,251.384381 C18.3408723,251.839238 18.3408723,252.496254 18.2904017,253.254349 L18.2399311,256.488889 L18.2399311,256.488889 Z"/>
    <polygon fill="#000" points="36.107 231.927 38.781 221.718 42.365 222.627 38.529 237.537 16.776 231.927 20.511 217.321 24.044 218.23 21.521 228.187 26.669 229.501 29.091 220.201 32.624 221.162 30.252 230.41"/>
    <path fill="#000" d="M26.9713429,200.996317 L29.5453429,195.89181 L53.1655782,198.92419 L50.9953429,203.220063 L45.8978134,202.512508 L41.9611076,210.497778 L45.5445193,214.187175 L43.4752252,218.280889 L26.9713429,200.996317 L26.9713429,200.996317 L26.9713429,200.996317 Z M39.2356958,207.768635 L42.1125193,202.007111 L32.1698134,200.490921 L39.2356958,207.768635 L39.2356958,207.768635 Z"/>
    <polygon fill="#000" points="57.052 187.553 63.209 180.073 66.137 182.499 56.9 193.769 39.539 179.466 42.668 175.676"/>
    <path fill="#000" d="M78.6027539 171.026286L66.4898134 152.023365 73.7575775 147.373714C74.8174598 146.666159 75.8773422 146.059683 76.9372245 145.554286 78.0475775 145.048889 79.1579304 144.84673 80.3187539 144.998349 81.2776951 145.149968 82.0347539 145.453206 82.7413422 145.958603 83.3974598 146.41346 83.9021657 146.969397 84.3059304 147.575873 85.0125186 148.788825 85.3153422 149.850159 85.214401 150.860952 85.1134598 151.821206 84.8611069 152.629841 84.4068716 153.337397 84.0031069 153.994413 83.5993422 154.44927 83.3469892 154.752508 84.3059304 154.247111 85.1639304 154.044952 85.8705186 154.146032 86.5266363 154.247111 87.1827539 154.49981 87.7379304 155.055746 88.2931069 155.561143 88.8987539 156.167619 89.504401 156.925714 90.362401 157.936508 91.0185186 158.694603 91.4222833 159.2 91.8765186 159.705397 92.2298127 160.059175 92.4316951 160.261333 92.7849892 160.615111 93.0878127 160.81727 93.2896951 160.968889 93.4915775 161.069968 93.6934598 161.171048 93.8953422 161.272127L89.4034598 164.102349C89.1511069 163.849651 88.7978127 163.445333 88.2931069 162.889397 87.8388716 162.282921 87.2836951 161.676444 86.7285186 161.019429 86.1733422 160.362413 85.6686363 159.755937 85.1639304 159.2 84.7096951 158.694603 84.356401 158.340825 84.1545186 158.189206 83.6498127 157.784889 83.1451069 157.68381 82.6908716 157.835429 82.1861657 157.936508 81.782401 158.138667 81.4291069 158.391365L77.8456951 160.71619 82.7413422 168.347683 78.6027539 171.026286 78.6027539 171.026286 78.6027539 171.026286zM72.4453422 152.478222L75.8268716 157.734349 79.1074598 155.662222C79.3598127 155.510603 79.6626363 155.308444 80.0159304 155.005206 80.3692245 154.651429 80.672048 154.297651 80.8234598 153.792254 80.924401 153.590095 81.0253422 153.236317 81.0253422 152.730921 81.0758127 152.225524 80.8739304 151.619048 80.4701657 150.962032 80.066401 150.305016 79.6121657 149.900698 79.1579304 149.69854 78.7541657 149.496381 78.4008716 149.445841 78.098048 149.445841 77.6942833 149.445841 77.240048 149.546921 76.7858127 149.749079 76.3315775 149.951238 75.776401 150.305016 75.1707539 150.709333L72.4453422 152.478222 72.4453422 152.478222zM98.3367539 135.24419L103.737107 133.374222 118.524989 152.073905 113.932166 153.691175 110.802989 149.59746 102.374401 152.528762 102.374401 157.68381 98.0339304 159.2 98.3367539 135.24419 98.3367539 135.24419 98.3367539 135.24419zM102.374401 148.687746L108.430872 146.565079 102.374401 138.52927 102.374401 148.687746zM141.085342 135.042032L136.189695 135.39581C136.139225 135.143111 136.038283 134.688254 135.836401 134.081778 135.634519 133.475302 135.230754 132.919365 134.675577 132.413968 134.120401 131.908571 133.312872 131.706413 132.252989 131.756952 131.092166 131.858032 130.133225 132.312889 129.426636 133.121524 128.770519 133.930159 128.316283 134.991492 128.06393 136.254984 127.811577 137.518476 127.710636 138.984127 127.862048 140.500317 127.862048 140.854095 127.962989 141.460571 128.06393 142.269206 128.215342 143.077841 128.417225 143.937016 128.820989 144.79619 129.123813 145.705905 129.678989 146.464 130.385577 147.070476 131.092166 147.626413 132.000636 147.879111 133.16146 147.828571 134.221342 147.778032 135.079342 147.373714 135.836401 146.615619 136.542989 145.857524 136.896283 144.745651 136.845813 143.28L141.892872 142.875683C141.943342 143.532698 141.892872 144.391873 141.74146 145.352127 141.590048 146.312381 141.135813 147.272635 140.328283 148.333968 139.369342 149.395302 138.35993 150.153397 137.249577 150.608254 136.088754 151.012571 135.028872 151.26527 133.968989 151.366349 131.394989 151.517968 129.325695 151.113651 127.761107 150.153397 126.146048 149.193143 124.985225 147.879111 124.177695 146.211302 123.420636 144.543492 122.966401 142.774603 122.86546 140.904635 122.663577 138.47873 122.91593 136.406603 123.622519 134.536635 124.278636 132.717206 125.38969 131.251556 126.802166 130.139683 128.265813 129.078349 130.032283 128.421333 132.152048 128.219175 134.675577 128.067556 136.694401 128.572952 138.35993 129.785905 139.974989 130.998857 140.88346 132.767746 141.085342 135.042032L141.085342 135.042032z"/>
    <polygon fill="#000" points="149.817 127.107 154.611 127.512 152.845 150.002 148.05 149.648"/>
    <polygon fill="#000" points="164.403 151.922 160.012 150.81 165.614 128.977 172.377 130.696 176.112 150.002 180.503 132.818 184.894 133.93 179.241 155.763 172.831 154.095 169.046 133.829"/>
    <path fill="#000" d="M211.996519 155.055746L207.656048 152.579302C207.756989 152.326603 207.908401 152.023365 208.059813 151.619048 208.160754 151.26527 208.211225 150.810413 208.211225 150.305016 208.110283 149.445841 207.80746 148.687746 207.302754 148.13181 206.798048 147.575873 206.293342 147.171556 205.788636 146.918857 204.577342 146.261841 203.51746 145.958603 202.457577 146.009143 201.448166 146.059683 200.539695 146.362921 199.681695 146.918857 198.823695 147.424254 198.117107 148.08127 197.460989 148.839365 196.804872 149.59746 196.300166 150.406095 195.84593 151.16419 195.593577 151.619048 195.341225 152.174984 195.038401 152.832 194.786048 153.489016 194.584166 154.196571 194.432754 155.005206 194.331813 155.763302 194.331813 156.571937 194.533695 157.330032 194.685107 158.138667 195.038401 158.896762 195.593577 159.604317 196.148754 160.311873 197.006754 160.968889 198.167577 161.625905 199.176989 162.181841 199.934048 162.535619 200.438754 162.737778 200.94346 162.889397 201.347225 162.990476 201.599577 163.041016L203.921225 158.947302 200.13593 156.774095 201.952872 153.539556 209.927225 158.037587 204.42593 167.842286C203.719342 167.741206 202.70993 167.488508 201.498636 167.08419 200.186401 166.679873 198.621813 165.972317 196.65346 164.860444 194.483225 163.596952 192.868166 162.384 191.808283 161.171048 190.798872 159.958095 190.142754 158.795683 189.78946 157.58273 189.486636 156.420317 189.385695 155.358984 189.486636 154.247111 189.638048 153.185778 189.83993 152.174984 190.193225 151.21473 190.546519 150.305016 190.950283 149.496381 191.354048 148.788825 192.666283 146.464 194.230872 144.79619 195.997342 143.684317 197.763813 142.622984 199.631225 142.117587 201.650048 142.168127 203.618401 142.218667 205.637225 142.774603 207.605577 143.937016 208.917813 144.644571 210.028166 145.554286 210.987107 146.615619 211.946048 147.626413 212.602166 148.839365 212.904989 150.153397 213.106872 151.26527 213.056401 152.225524 212.854519 153.034159 212.602166 153.842794 212.299342 154.49981 211.996519 155.055746L211.996519 155.055746zM241.118048 185.682794L237.988872 181.892317C238.241225 181.690159 238.544048 181.336381 238.897342 180.830984 239.301107 180.325587 239.502989 179.668571 239.60393 178.961016 239.704872 178.202921 239.402048 177.444825 238.74593 176.585651 237.988872 175.675937 237.080401 175.17054 236.020519 175.06946 234.960636 174.968381 233.850283 175.17054 232.638989 175.675937 231.478166 176.231873 230.266872 176.989968 229.055577 178.000762 228.752754 178.202921 228.348989 178.607238 227.743342 179.163175 227.137695 179.769651 226.582519 180.426667 226.077813 181.235302 225.573107 182.043937 225.219813 182.903111 225.169342 183.812825 225.068401 184.72254 225.371225 185.632254 226.128283 186.541968 226.73393 187.350603 227.59193 187.856 228.601342 188.007619 229.661225 188.209778 230.771577 187.856 231.982872 186.946286L235.212989 190.888381C234.657813 191.292698 233.951225 191.697016 233.093225 192.151873 232.184754 192.55619 231.124872 192.758349 229.812636 192.65727 228.39946 192.55619 227.188166 192.101333 226.178754 191.444317 225.169342 190.787302 224.361813 190.029206 223.705695 189.220571 222.090636 187.198984 221.232636 185.278476 221.131695 183.408508 220.980283 181.53854 221.384048 179.82019 222.292519 178.25346 223.200989 176.68673 224.412283 175.271619 225.87593 174.058667 227.743342 172.593016 229.610754 171.582222 231.478166 171.076825 233.396048 170.621968 235.212989 170.621968 236.928989 171.177905 238.644989 171.733841 240.209577 172.845714 241.572283 174.462984 243.136872 176.434032 243.89393 178.405079 243.84346 180.426667 243.792989 182.448254 242.884519 184.217143 241.118048 185.682794L241.118048 185.682794z"/>
    <polygon fill="#000" points="238.998 202.664 243.591 211.155 240.26 213.025 233.295 200.188 253.029 189.473 255.351 193.82"/>
    <path fill="#000" d="M264.536401 213.27746L265.747695 217.977651 252.524401 221.414349C251.666401 221.616508 250.909342 221.919746 250.101813 222.273524 249.344754 222.627302 248.789577 223.233778 248.436283 224.042413 248.032519 224.901587 248.032519 226.064 248.385813 227.529651 248.436283 227.832889 248.587695 228.186667 248.739107 228.692063 248.940989 229.146921 249.243813 229.652317 249.647577 230.157714 250.101813 230.612571 250.656989 231.016889 251.363577 231.269587 251.716872 231.421206 252.221577 231.471746 252.776754 231.471746 253.382401 231.421206 254.18993 231.269587 255.249813 231.016889L268.271225 227.63073 269.432048 232.179302 255.85546 235.717079C253.735695 236.222476 251.868283 236.171937 250.404636 235.514921 248.890519 234.908444 247.679225 233.897651 246.770754 232.583619 245.862283 231.269587 245.206166 229.905016 244.852872 228.388825 244.650989 227.63073 244.499577 226.721016 244.398636 225.659683 244.297695 224.598349 244.449107 223.486476 244.70146 222.374603 245.004283 221.26273 245.60993 220.201397 246.46793 219.190603 247.174519 218.483048 247.931577 217.927111 248.739107 217.573333 249.597107 217.219556 250.556048 216.916317 251.56546 216.663619L264.536401 213.27746 264.536401 213.27746zM248.335342 245.825016L270.794754 245.21854 270.996636 253.608127C271.047107 254.062984 271.047107 254.618921 270.996636 255.275937 270.996636 255.882413 270.946166 256.589968 270.794754 257.246984 270.643342 257.95454 270.44146 258.611556 270.088166 259.167492 269.432048 260.228825 268.674989 260.936381 267.766519 261.290159 266.858048 261.643937 266.050519 261.846095 265.394401 261.846095 264.940166 261.846095 264.43546 261.795556 263.779342 261.643937 263.123225 261.542857 262.568048 261.189079 261.962401 260.633143 261.86146 260.532063 261.609107 260.279365 261.255813 259.824508 260.902519 259.319111 260.599695 258.763175 260.397813 258.106159L260.347342 258.106159C260.044519 259.824508 259.33793 261.088 258.328519 261.846095 257.319107 262.60419 256.208754 263.008508 254.99746 263.008508 253.685225 263.059048 252.524401 262.75581 251.666401 262.098794 250.75793 261.492317 250.051342 260.734222 249.597107 259.875048 249.294283 259.268571 249.04193 258.611556 248.890519 257.85346 248.789577 257.095365 248.688636 256.33727 248.638166 255.680254 248.587695 255.023238 248.537225 254.517841 248.537225 254.214603L248.335342 245.825016 248.335342 245.825016 248.335342 245.825016zM267.463695 249.91873L261.760519 250.070349 261.86146 253.456508C261.86146 253.911365 261.91193 254.416762 262.012872 255.023238 262.113813 255.629714 262.366166 256.135111 262.76993 256.539429 263.224166 256.994286 263.880283 257.196444 264.839225 257.196444 265.747695 257.196444 266.403813 256.943746 266.807577 256.488889 267.160872 256.034032 267.413225 255.528635 267.463695 254.922159 267.564636 254.315683 267.564636 253.709206 267.564636 253.15327L267.463695 249.91873 267.463695 249.91873 267.463695 249.91873zM258.278048 250.171429L252.070166 250.323048 252.120636 253.608127C252.171107 254.366222 252.221577 255.073778 252.322519 255.781333 252.42346 256.488889 252.726283 257.095365 253.130048 257.550222 253.584283 258.005079 254.290872 258.207238 255.300283 258.207238 256.360166 258.156698 257.066754 257.904 257.520989 257.297524 257.975225 256.792127 258.227577 256.135111 258.278048 255.326476 258.378989 254.517841 258.378989 253.709206 258.328519 252.951111L258.278048 250.171429zM43.5761664 325.576635L46.7558134 329.316571C46.4025193 329.56927 46.0492252 329.923048 45.5949899 330.428444 45.1912252 330.933841 44.9388723 331.641397 44.8884017 332.399492 44.8379311 333.208127 45.2416958 334.117841 46.0996958 335.179175 46.9576958 336.189968 47.8156958 336.796444 48.774637 336.998603 49.632637 337.200762 50.490637 337.049143 51.2476958 336.442667 51.954284 335.83619 52.206637 335.128635 52.0552252 334.32 51.9038134 333.561905 51.5000487 332.500571 50.7934605 331.237079 49.9859311 329.56927 49.380284 328.103619 49.0269899 326.840127 48.6736958 325.526095 48.6232252 324.363683 48.8755782 323.352889 49.1279311 322.291556 49.7335782 321.381841 50.6925193 320.522667 51.6514605 319.764571 52.7113429 319.259175 53.922637 319.057016 55.1339311 318.854857 56.3452252 319.057016 57.7079311 319.612952 59.0201664 320.219429 60.3324017 321.331302 61.6951076 322.898032 62.502637 323.807746 63.108284 324.81854 63.6129899 326.031492 64.1176958 327.193905 64.2691076 328.457397 64.0167546 329.771429 63.7644017 330.731683 63.4111076 331.540317 62.9064017 332.146794 62.4016958 332.75327 61.9979311 333.157587 61.644637 333.410286L58.7173429 329.872508C58.9192252 329.670349 59.1715782 329.367111 59.4744017 328.912254 59.7772252 328.457397 59.9791076 327.850921 59.9791076 327.193905 59.9791076 326.536889 59.676284 325.728254 58.9696958 324.919619 58.212637 324.060444 57.4555782 323.555048 56.5975782 323.352889 55.7900487 323.20127 54.9825193 323.453968 54.2759311 324.009905 53.7712252 324.464762 53.4684017 324.919619 53.4179311 325.475556 53.3674605 325.980952 53.4684017 326.587429 53.7712252 327.294984 54.0235782 328.00254 54.4273429 328.861714 54.9320487 329.872508 55.5376958 331.034921 56.0424017 332.197333 56.4461664 333.410286 56.8499311 334.572698 57.0013429 335.684571 56.8499311 336.745905 56.6985193 337.857778 56.0928723 338.868571 54.9825193 339.828825 53.9731076 340.688 52.7618134 341.193397 51.4495782 341.345016 50.1878134 341.496635 48.8251076 341.243937 47.4119311 340.536381 45.9987546 339.879365 44.6360487 338.767492 43.2733429 337.200762 41.9611076 335.532952 41.1031076 334.067302 40.800284 332.80381 40.4469899 331.489778 40.4469899 330.428444 40.7498134 329.46819 41.052637 328.507937 41.5068723 327.699302 42.0620487 327.092825 42.6172252 326.43581 43.1219311 325.930413 43.5761664 325.576635L43.5761664 325.576635zM76.382048 337.45346L80.924401 340.839619 73.6566363 363.430857 69.8208723 360.550095 71.4359304 355.698286 64.3195782 350.391619 60.1305193 353.221841 56.4461664 350.492698 76.382048 337.45346 76.382048 337.45346 76.382048 337.45346zM67.4992252 348.218413L72.6472245 352.109968 75.9278127 342.608508 67.4992252 348.218413 67.4992252 348.218413z"/>
    <polygon fill="#000" points="86.224 370.405 82.085 368.535 91.22 348.067 97.529 350.897 98.034 370.405 105.201 354.334 109.289 356.103 100.204 376.622 94.148 373.943 93.794 353.373"/>
    <polygon fill="#000" points="119.484 362.117 112.973 360.803 113.68 357.164 131.496 360.651 130.739 364.29 124.228 363.027 120.695 381.372 115.901 380.463"/>
    <path fill="#000" d="M138.965577,360.802794 L144.618283,360.903873 L152.03746,383.444571 L147.192283,383.394032 L145.678166,378.491683 L136.845813,378.340063 L135.079342,383.141333 L130.536989,383.090794 L138.965577,360.802794 L138.965577,360.802794 Z M138.158048,374.751746 L144.517342,374.852825 L141.640519,365.250286 L138.158048,374.751746 Z"/>
    <polygon fill="#000" points="164.453 381.423 160.012 382.383 155.369 360.449 162.182 358.983 174.043 374.499 170.358 357.265 174.699 356.305 179.393 378.239 172.932 379.654 160.567 363.229"/>
    <path fill="#000" d="M189.890401,374.448508 L180.099107,354.333714 L186.761225,351.149714 C187.164989,350.947556 187.770636,350.694857 188.578166,350.341079 C189.335225,350.037841 190.294166,349.785143 191.354048,349.582984 C192.41393,349.380825 193.473813,349.380825 194.584166,349.582984 C196.300166,349.936762 197.763813,350.694857 198.975107,351.85727 C200.186401,353.019683 201.145342,354.333714 201.85193,355.799365 C202.861342,357.871492 203.366048,359.792 203.416519,361.510349 C203.466989,363.228698 203.113695,364.795429 202.457577,366.10946 C201.750989,367.474032 200.842519,368.535365 199.631225,369.39454 C199.328401,369.647238 198.924636,369.950476 198.41993,370.203175 C197.915225,370.506413 197.158166,370.91073 196.148754,371.365587 L189.890401,374.448508 L189.890401,374.448508 Z M186.054636,355.496127 L192.615813,368.990222 C192.918636,368.889143 193.170989,368.788063 193.524283,368.636444 C193.827107,368.484825 194.12993,368.333206 194.382283,368.232127 C195.290754,367.77727 196.098283,367.322413 196.804872,366.766476 C197.51146,366.21054 198.016166,365.452444 198.36946,364.54273 C198.621813,363.683556 198.722754,362.824381 198.621813,361.914667 C198.520872,361.055492 198.318989,360.246857 198.066636,359.539302 C197.814283,358.831746 197.56193,358.326349 197.410519,357.972571 C196.70393,356.506921 195.79546,355.344508 194.685107,354.485333 C193.574754,353.626159 192.212048,353.322921 190.69793,353.575619 C190.193225,353.626159 189.638048,353.828317 188.880989,354.081016 C188.224872,354.384254 187.26593,354.839111 186.054636,355.496127 L186.054636,355.496127 Z"/>
    <polygon fill="#000" points="216.539 355.345 224.967 348.977 227.188 351.958 214.924 361.157 201.448 343.266 213.46 334.269 215.63 337.15 207.505 343.316 210.684 347.561 218.305 341.8 220.526 344.731 212.905 350.493"/>
    <path fill="#000" d="M235.212989 344.478476L218.052989 330.074667 223.554283 323.504508C224.361813 322.493714 225.169342 321.584 226.027342 320.775365 226.935813 320.01727 227.945225 319.511873 229.106048 319.259175 230.014519 319.158095 230.872519 319.208635 231.629577 319.461333 232.437107 319.714032 233.093225 320.06781 233.648401 320.522667 234.657813 321.482921 235.31393 322.392635 235.465342 323.352889 235.667225 324.313143 235.667225 325.172317 235.465342 325.930413 235.212989 326.739048 235.011107 327.294984 234.859695 327.648762 235.616754 326.890667 236.373813 326.43581 237.02993 326.28419 237.736519 326.183111 238.392636 326.28419 239.099225 326.587429 239.805813 326.890667 240.562872 327.345524 241.370401 327.850921 242.480754 328.609016 243.288283 329.114413 243.89393 329.46819 244.449107 329.771429 244.852872 330.024127 245.105225 330.175746 245.55946 330.377905 245.912754 330.478984 246.165107 330.580063 246.366989 330.580063 246.619342 330.630603 246.770754 330.630603L243.389225 334.724317C243.086401 334.572698 242.632166 334.26946 241.976048 333.865143 241.370401 333.460825 240.714283 333.056508 239.957225 332.551111 239.200166 332.096254 238.544048 331.691937 237.938401 331.338159 237.332754 330.984381 236.878519 330.731683 236.676636 330.630603 236.020519 330.428444 235.515813 330.478984 235.112048 330.731683 234.708283 331.034921 234.40546 331.338159 234.153107 331.691937L231.427695 334.926476 238.342166 340.73854 235.212989 344.478476 235.212989 344.478476 235.212989 344.478476zM223.806636 328.710095L228.601342 332.75327 231.074401 329.771429C231.276283 329.51873 231.528636 329.215492 231.780989 328.861714 232.033342 328.457397 232.134283 328.00254 232.184754 327.497143 232.235225 327.294984 232.184754 326.890667 232.033342 326.38527 231.932401 325.879873 231.579107 325.374476 230.97346 324.869079 230.418283 324.414222 229.863107 324.161524 229.408872 324.110984 228.904166 324.009905 228.550872 324.060444 228.298519 324.161524 227.894754 324.262603 227.490989 324.515302 227.137695 324.869079 226.784401 325.172317 226.380636 325.627175 225.87593 326.233651L223.806636 328.710095 223.806636 328.710095zM124.732872 217.573333L129.022872 224.800508C131.394989 223.385397 133.413813 221.565968 134.473695 219.291683L136.744872 220.353016C135.483107 223.082159 133.110989 225.305905 130.335107 226.973714L133.060519 231.572825 130.385577 232.735238 127.811577 228.338286C125.388989 229.500698 122.86546 230.309333 120.594283 230.76419 117.616519 231.421206 114.992048 231.774984 112.771342 231.825524L114.083577 237.536508 110.90393 238.244063 109.541225 231.724444C107.42146 231.471746 105.70546 230.91581 104.292283 230.107175 100.860283 228.136127 99.2452245 224.194032 98.9928716 220.403556 98.7405186 217.067937 100.103225 214.237714 102.778166 212.013968 103.18193 211.71073 103.535225 211.407492 103.938989 211.154794L103.080989 208.57727 100.153695 201.552254 110.90393 200.592 117.465107 199.581206C122.461695 198.97473 126.701225 203.068444 127.862048 207.667556 130.133225 208.021337 132.35393 208.62781 134.372754 209.588063L133.262401 211.862349C131.697813 211.104254 129.981813 210.598857 128.215342 210.295619 128.316283 213.985016 126.650754 216.714159 124.732872 217.573333L124.732872 217.573333 124.732872 217.573333zM126.549813 226.11454L122.108401 218.381968C118.070754 219.241143 114.134048 219.594921 110.096401 219.999238L112.216166 229.29854C114.386401 229.29854 116.960401 228.995302 120.039107 228.287746 122.05793 227.883429 124.379577 227.175873 126.549813 226.11454L126.549813 226.11454 126.549813 226.11454zM109.036519 229.096381L108.430872 226.266159 106.109225 217.623873 104.796989 213.681778C104.645577 213.782857 104.544636 213.883937 104.393225 213.985016 102.374401 215.652825 101.314519 217.775492 101.516401 220.201397 101.718283 223.132698 102.879107 226.367238 105.554048 227.933968 106.512989 228.489905 107.623342 228.894222 109.036519 229.096381L109.036519 229.096381 109.036519 229.096381zM106.765342 209.638603C109.894519 208.274032 113.42746 207.667556 116.758519 207.414857 119.332519 207.212698 122.158872 207.111619 124.934754 207.313778 123.925342 204.685714 121.300872 202.007111 118.474519 202.10819 113.780754 202.765206 109.18793 203.321143 104.443695 203.573841L106.765342 209.638603 106.765342 209.638603zM125.48993 209.891302C122.613107 209.638603 119.635342 209.739683 116.960401 209.941841 113.881695 210.19454 110.500166 210.699937 107.623342 212.013968L109.339342 217.270095C113.47793 216.966857 117.414636 216.512 121.502754 215.703365 124.480519 215.299048 125.843225 213.176381 125.48993 209.891302z"/>
    <path fill="#752009" d="M111.257225,311.374984 C111.257225,309.302857 111.459107,307.28127 111.862872,305.310222 C113.629342,303.642413 121.856048,297.072254 135.432636,301.873524 C136.744872,303.642413 142.397577,312.537397 131.647342,319.360254 C121.553225,312.638476 115.950989,318.652698 113.42746,322.999111 C112.014283,319.410794 111.257225,315.519238 111.257225,311.374984 L111.257225,311.374984 Z M113.074166,300.761651 C117.313695,298.184127 125.136636,295.303365 135.836401,298.891683 C146.283813,285.953524 134.372754,282.011429 132.252989,281.455492 C123.319695,284.690032 116.253813,291.816127 113.074166,300.761651 L113.074166,300.761651 L113.074166,300.761651 Z M136.997225,280.14146 C141.892872,282.718984 147.949342,288.632127 138.208519,300.711111 C140.277813,303.844571 145.375342,313.69981 133.767107,321.482921 C134.01946,323.15073 135.987813,332.601651 148.151225,328.558476 C150.422401,326.840127 172.326636,309.100698 151.078519,280.596317 C148.504519,279.939302 145.779107,279.585524 143.003225,279.585524 C140.984401,279.585524 138.965577,279.787683 136.997225,280.14146 L136.997225,280.14146 L136.997225,280.14146 Z M155.822754,282.264127 C166.976754,287.217016 174.749225,298.386286 174.749225,311.374984 C174.749225,321.432381 170.10593,330.377905 162.888636,336.189968 C155.217107,338.009397 151.633695,332.955429 150.37193,330.529524 C154.258166,327.396063 173.739813,309.707175 155.822754,282.264127 L155.822754,282.264127 L155.822754,282.264127 Z M157.992989,339.424508 C151.986989,338.716952 148.908283,334.117841 147.696989,331.742476 C134.675577,335.431873 131.647342,325.778794 130.991225,322.493714 C120.947577,315.114921 116.304283,323.403429 115.042519,326.43581 C120.392401,336.392127 130.940754,343.214984 143.003225,343.214984 C148.403577,343.214984 153.501107,341.850413 157.992989,339.424508 Z"/>
    <path fill="#000" d="M111.76193,116.392889 C101.41546,118.717714 91.5232245,122.154413 82.1861657,126.601905 C80.9748716,127.157841 79.814048,126.601905 79.2588716,125.439492 C78.6532245,124.176 79.0569892,122.60927 80.3692245,121.952254 C90.0091069,117.403683 100.153695,113.916444 110.802989,111.49054 C132.000636,106.790349 154.005813,106.790349 175.152989,111.541079 C185.802283,113.916444 196.047813,117.454222 205.637225,121.952254 C206.94946,122.60927 207.353225,124.176 206.747577,125.439492 C206.192401,126.601905 205.031577,127.157841 203.820283,126.601905 C194.483225,122.154413 184.540519,118.717714 174.194048,116.392889 C153.702989,111.793778 132.252989,111.793778 111.76193,116.392889 Z"/>
    <path fill="#000" d="M111.660989,98.9566984 C101.213577,101.028825 91.1699304,104.111746 81.6309892,108.154921 C80.4196951,108.660317 79.1074598,107.851683 78.6532245,106.73981 C78.1989892,105.526857 78.6532245,104.010667 79.8645186,103.50527 C89.7062833,99.3610159 100.052754,96.1770159 110.752519,94.0543492 C132.000636,89.8090159 154.005813,89.8090159 175.25393,94.0543492 C185.953695,96.1770159 196.300166,99.3610159 206.14193,103.50527 C207.353225,104.010667 207.80746,105.526857 207.353225,106.73981 C206.898989,107.851683 205.586754,108.660317 204.37546,108.154921 C194.836519,104.111746 184.792872,101.028825 174.34546,98.9566984 C153.702989,94.8124444 132.30346,94.8124444 111.660989,98.9566984 Z"/>
    <path fill="#C58C00" d="M174.34546,115.685333 C184.792872,118.010159 194.735577,121.497397 204.123107,125.944889 C204.981107,126.349206 205.738166,125.944889 206.09146,125.136254 C206.545695,124.22654 206.293342,123.064127 205.334401,122.60927 C195.744989,118.111238 185.600401,114.57346 175.001577,112.248635 C153.955342,107.497905 132.000636,107.497905 110.954401,112.198095 C100.406048,114.57346 90.2614598,118.111238 80.672048,122.60927 C79.7131069,123.064127 79.4607539,124.22654 79.9149892,125.136254 C80.2682833,125.944889 81.0253422,126.349206 81.8833422,125.944889 C91.2708716,121.497397 101.213577,118.010159 111.610519,115.685333 C132.202519,111.035683 153.75346,111.035683 174.34546,115.685333 Z"/>
    <path fill="#C58C00" d="M174.496872,98.2491429 C184.944283,100.32127 195.038401,103.45473 204.678283,107.497905 C205.485813,107.801143 206.394283,107.194667 206.697107,106.436571 C206.99993,105.678476 206.697107,104.516063 205.839107,104.162286 C196.047813,100.068571 185.751813,96.8845714 175.102519,94.7619048 C153.955342,90.5671111 132.051107,90.5671111 110.90393,94.7619048 C100.254636,96.8845714 89.9586363,100.068571 80.1673422,104.162286 C79.3093422,104.516063 79.0065186,105.678476 79.3093422,106.436571 C79.6121657,107.194667 80.5206363,107.801143 81.3281657,107.497905 C90.968048,103.45473 101.062166,100.32127 111.509577,98.2491429 C132.252989,94.1048889 153.75346,94.1048889 174.496872,98.2491429 L174.496872,98.2491429 Z"/>
    <path fill="#E33820" d="M136.896283,98.855619 C140.984401,98.855619 145.022048,98.855619 149.110166,98.855619 C151.684166,98.855619 153.702989,100.32127 153.702989,102.090159 C153.702989,103.909587 151.684166,105.375238 149.110166,105.375238 C145.022048,105.375238 140.984401,105.375238 136.896283,105.375238 C134.322283,105.375238 132.30346,103.909587 132.30346,102.090159 C132.30346,100.32127 134.322283,98.855619 136.896283,98.855619 Z"/>
    <path fill="#2D9A29" d="M105.503577,103.100952 C109.541225,102.342857 113.528401,101.534222 117.566048,100.725587 C120.089577,100.27073 122.360754,101.281524 122.714048,103.050413 C123.067342,104.819302 121.300872,106.63873 118.827813,107.093587 C114.790166,107.902222 110.752519,108.710857 106.765342,109.468952 C104.241813,109.974349 101.970636,108.913016 101.617342,107.194667 C101.264048,105.425778 103.030519,103.606349 105.503577,103.100952 Z"/>
    <path fill="#E33820" d="M75.524048,113.309968 C79.3093422,111.793778 83.1451069,110.227048 86.930401,108.660317 C89.252048,107.700063 91.7251069,108.30654 92.3812245,109.92381 C93.0878127,111.591619 91.7251069,113.714286 89.3529892,114.67454 C85.5676951,116.24127 81.782401,117.808 77.9971069,119.32419 C75.6249892,120.284444 73.1519304,119.728508 72.4958127,118.060698 C71.8396951,116.392889 73.202401,114.270222 75.524048,113.309968 Z"/>
    <path fill="#2D9A29" d="M180.502872,103.100952 C176.465225,102.342857 172.478048,101.534222 168.440401,100.725587 C165.916872,100.27073 163.645695,101.281524 163.292401,103.050413 C162.939107,104.819302 164.705577,106.63873 167.178636,107.093587 C171.216283,107.902222 175.25393,108.710857 179.241107,109.468952 C181.764636,109.974349 184.035813,108.913016 184.389107,107.194667 C184.742401,105.425778 182.97593,103.606349 180.502872,103.100952 L180.502872,103.100952 Z"/>
    <path fill="#E33820" d="M210.482401,113.309968 C206.697107,111.793778 202.861342,110.227048 199.076048,108.660317 C196.754401,107.700063 194.281342,108.30654 193.625225,109.92381 C192.918636,111.591619 194.281342,113.714286 196.65346,114.67454 C200.438754,116.24127 204.224048,117.808 208.009342,119.32419 C210.38146,120.284444 212.854519,119.728508 213.510636,118.060698 C214.166754,116.392889 212.804048,114.270222 210.482401,113.309968 Z"/>
    <path fill="#000" d="M139.621695,72.271746 C139.621695,71.3114921 140.02546,70.5028571 140.631107,69.8458413 L140.631107,69.8458413 C141.236754,69.2393651 142.094754,68.8855873 143.003225,68.8855873 C143.911695,68.8855873 144.769695,69.2393651 145.375342,69.8458413 C145.980989,70.5028571 146.384754,71.3114921 146.384754,72.271746 C146.384754,73.232 145.980989,74.0911746 145.375342,74.6976508 C144.769695,75.304127 143.911695,75.6579048 143.003225,75.6579048 C142.094754,75.6579048 141.236754,75.304127 140.631107,74.6976508 L140.631107,74.6976508 C140.02546,74.0911746 139.621695,73.232 139.621695,72.271746 Z"/>
    <path fill="#E33820" d="M140.328283,72.271746 C140.328283,73.0298413 140.631107,73.6868571 141.135813,74.192254 L141.135813,74.192254 C141.590048,74.6471111 142.296636,74.9503492 143.003225,74.9503492 C143.709813,74.9503492 144.36593,74.6471111 144.870636,74.192254 C145.375342,73.6868571 145.678166,73.0298413 145.678166,72.271746 C145.678166,71.5136508 145.375342,70.8566349 144.870636,70.4017778 C144.36593,69.896381 143.709813,69.5931429 143.003225,69.5931429 C142.296636,69.5931429 141.590048,69.896381 141.135813,70.4017778 L141.135813,70.4017778 C140.631107,70.8566349 140.328283,71.5136508 140.328283,72.271746 Z"/>
    <path fill="#000" d="M61.5941664 93.1951746C61.3418134 90.1627937 64.9252252 88.4444444 67.1964017 90.4154921 68.6095782 91.6284444 68.7609899 93.8016508 67.4992252 95.2167619 66.2879311 96.631873 64.1681664 96.7834921 62.7549899 95.52 62.0988723 94.9640635 61.644637 94.1554286 61.5941664 93.1951746L61.5941664 93.1951746zM102.27346 76.7697778C103.484754 75.3546667 105.654989 75.2030476 107.068166 76.416 108.481342 77.6794921 108.632754 79.8021587 107.370989 81.2172698 106.159695 82.632381 103.98946 82.784 102.576283 81.5710476 101.163107 80.3075556 101.011695 78.1848889 102.27346 76.7697778z"/>
    <path fill="#2D9A29" d="M103.080989,81.0151111 C104.191342,81.9753651 105.856872,81.8742857 106.866283,80.7624127 C107.825225,79.6505397 107.673813,77.9321905 106.56346,76.9719365 C105.453107,76.0116825 103.787577,76.1127619 102.828636,77.2246349 C101.819225,78.3365079 101.970636,80.0548571 103.080989,81.0151111 L103.080989,81.0151111 Z"/>
    <path fill="#E33820" d="M62.3007546,93.1446349 C62.3512252,93.9027302 62.7045193,94.559746 63.2092252,95.0146032 C64.3195782,95.9748571 66.0355782,95.8232381 66.9945193,94.7113651 C67.9534605,93.5994921 67.8020487,91.9316825 66.6916958,90.9208889 C64.9252252,89.4046984 62.1493429,90.7692698 62.3007546,93.1446349 L62.3007546,93.1446349 Z"/>
    <path fill="#000" d="M68.7609899,58.272254 C70.6788723,58.272254 72.1929892,56.7055238 72.1929892,54.8355556 C72.1929892,52.9655873 70.6788723,51.4493968 68.7609899,51.4493968 C66.8935782,51.4493968 65.3794605,52.9655873 65.3794605,54.8355556 C65.3794605,56.7055238 66.8935782,58.272254 68.7609899,58.272254 Z"/>
    <path fill="#FFF" d="M68.7609899,57.5141587 C70.2751076,57.5141587 71.4359304,56.3012063 71.4359304,54.8355556 C71.4359304,53.3699048 70.2751076,52.1569524 68.7609899,52.1569524 C67.2973429,52.1569524 66.0860487,53.3699048 66.0860487,54.8355556 C66.0860487,56.3012063 67.2973429,57.5141587 68.7609899,57.5141587 Z"/>
    <path fill="#000" d="M53.670284,85.2604444 C55.5376958,85.2604444 57.0518134,83.744254 57.0518134,81.8742857 C57.0518134,80.0043175 55.5376958,78.4375873 53.670284,78.4375873 C51.7524017,78.4375873 50.238284,80.0043175 50.238284,81.8742857 C50.238284,83.744254 51.7524017,85.2604444 53.670284,85.2604444 Z"/>
    <path fill="#FFF" d="M53.670284,84.5528889 C55.1339311,84.5528889 56.3452252,83.3399365 56.3452252,81.8742857 C56.3452252,80.4086349 55.1339311,79.1956825 53.670284,79.1956825 C52.1561664,79.1956825 50.9953429,80.4086349 50.9953429,81.8742857 C50.9953429,83.3399365 52.1561664,84.5528889 53.670284,84.5528889 Z"/>
    <path fill="#000" d="M55.1844017,78.3870476 C57.0518134,78.3870476 58.5659311,76.8708571 58.5659311,75.0008889 C58.5659311,73.1309206 57.0518134,71.5641905 55.1844017,71.5641905 C53.3169899,71.5641905 51.8028723,73.1309206 51.8028723,75.0008889 C51.8028723,76.8708571 53.3169899,78.3870476 55.1844017,78.3870476 Z"/>
    <path fill="#FFF" d="M55.1844017,77.6794921 C56.6480487,77.6794921 57.8593429,76.4665397 57.8593429,75.0008889 C57.8593429,73.4846984 56.6480487,72.3222857 55.1844017,72.3222857 C53.7207546,72.3222857 52.5094605,73.4846984 52.5094605,75.0008889 C52.5094605,76.4665397 53.7207546,77.6794921 55.1844017,77.6794921 Z"/>
    <path fill="#000" d="M58.3640487,71.159873 C60.2314605,71.159873 61.7455782,69.5931429 61.7455782,67.7231746 C61.7455782,65.8532063 60.2314605,64.3370159 58.3640487,64.3370159 C56.4461664,64.3370159 54.9320487,65.8532063 54.9320487,67.7231746 C54.9320487,69.5931429 56.4461664,71.159873 58.3640487,71.159873 Z"/>
    <path fill="#FFF" d="M58.3640487,70.4017778 C59.8276958,70.4017778 61.0389899,69.2393651 61.0389899,67.7231746 C61.0389899,66.2575238 59.8276958,65.0445714 58.3640487,65.0445714 C56.8499311,65.0445714 55.6891076,66.2575238 55.6891076,67.7231746 C55.6891076,69.2393651 56.8499311,70.4017778 58.3640487,70.4017778 Z"/>
    <path fill="#000" d="M62.4016958,63.831619 C64.2691076,63.831619 65.7832252,62.3154286 65.7832252,60.4454603 C65.7832252,58.5754921 64.2691076,57.0087619 62.4016958,57.0087619 C60.534284,57.0087619 58.9696958,58.5754921 58.9696958,60.4454603 C58.9696958,62.3154286 60.534284,63.831619 62.4016958,63.831619 Z"/>
    <path fill="#FFF" d="M62.4016958,63.1240635 C63.8653429,63.1240635 65.076637,61.9111111 65.076637,60.4454603 C65.076637,58.9798095 63.8653429,57.7668571 62.4016958,57.7668571 C60.8875782,57.7668571 59.7267546,58.9798095 59.7267546,60.4454603 C59.7267546,61.9111111 60.8875782,63.1240635 62.4016958,63.1240635 Z"/>
    <path fill="#000" d="M75.6249892,53.1172063 C77.492401,53.1172063 79.0065186,51.6010159 79.0065186,49.7310476 C79.0065186,47.8105397 77.492401,46.2943492 75.6249892,46.2943492 C73.7575775,46.2943492 72.1929892,47.8105397 72.1929892,49.7310476 C72.1929892,51.6010159 73.7575775,53.1172063 75.6249892,53.1172063 Z"/>
    <path fill="#FFF" d="M75.6249892,52.4096508 C77.0886363,52.4096508 78.2999304,51.1966984 78.2999304,49.7310476 C78.2999304,48.2148571 77.0886363,47.0524444 75.6249892,47.0524444 C74.1108716,47.0524444 72.950048,48.2148571 72.950048,49.7310476 C72.950048,51.1966984 74.1108716,52.4096508 75.6249892,52.4096508 Z"/>
    <path fill="#000" d="M83.498401,49.5288889 C85.3658127,49.5288889 86.930401,48.0126984 86.930401,46.0921905 C86.930401,44.2222222 85.3658127,42.7060317 83.498401,42.7060317 C81.6309892,42.7060317 80.1168716,44.2222222 80.1168716,46.0921905 C80.1168716,48.0126984 81.6309892,49.5288889 83.498401,49.5288889 Z"/>
    <path fill="#FFF" d="M83.498401,48.7707937 C85.0125186,48.7707937 86.1733422,47.608381 86.1733422,46.0921905 C86.1733422,44.6265397 85.0125186,43.4135873 83.498401,43.4135873 C82.0347539,43.4135873 80.8234598,44.6265397 80.8234598,46.0921905 C80.8234598,47.608381 82.0347539,48.7707937 83.498401,48.7707937 Z"/>
    <path fill="#000" d="M91.9269892,48.3664762 C93.794401,48.3664762 95.3589892,46.8502857 95.3589892,44.9803175 C95.3589892,43.1103492 93.794401,41.543619 91.9269892,41.543619 C90.0595775,41.543619 88.5454598,43.1103492 88.5454598,44.9803175 C88.5454598,46.8502857 90.0595775,48.3664762 91.9269892,48.3664762 Z"/>
    <path fill="#FFF" d="M91.9269892,47.6589206 C93.3906363,47.6589206 94.6019304,46.4459683 94.6019304,44.9803175 C94.6019304,43.5146667 93.3906363,42.3017143 91.9269892,42.3017143 C90.4633422,42.3017143 89.252048,43.5146667 89.252048,44.9803175 C89.252048,46.4459683 90.4633422,47.6589206 91.9269892,47.6589206 Z"/>
    <path fill="#000" d="M100.406048,48.3159365 C102.27346,48.3159365 103.838048,46.799746 103.838048,44.9297778 C103.838048,43.0598095 102.27346,41.543619 100.406048,41.543619 C98.5386363,41.543619 97.0245186,43.0598095 97.0245186,44.9297778 C97.0245186,46.799746 98.5386363,48.3159365 100.406048,48.3159365 Z"/>
    <path fill="#FFF" d="M100.406048,47.608381 C101.869695,47.608381 103.080989,46.3954286 103.080989,44.9297778 C103.080989,43.464127 101.869695,42.2511746 100.406048,42.2511746 C98.942401,42.2511746 97.7311069,43.464127 97.7311069,44.9297778 C97.7311069,46.3954286 98.942401,47.608381 100.406048,47.608381 Z"/>
    <path fill="#000" d="M108.077577,48.9729524 C109.944989,48.9729524 111.459107,47.4062222 111.459107,45.536254 C111.459107,43.6662857 109.944989,42.1500952 108.077577,42.1500952 C106.159695,42.1500952 104.645577,43.6662857 104.645577,45.536254 C104.645577,47.4062222 106.159695,48.9729524 108.077577,48.9729524 Z"/>
    <path fill="#FFF" d="M108.077577,48.2148571 C109.541225,48.2148571 110.752519,47.0019048 110.752519,45.536254 C110.752519,44.0706032 109.541225,42.8576508 108.077577,42.8576508 C106.56346,42.8576508 105.402636,44.0706032 105.402636,45.536254 C105.402636,47.0019048 106.56346,48.2148571 108.077577,48.2148571 Z"/>
    <path fill="#000" d="M113.074166,44.3738413 C114.941577,44.3738413 116.455695,42.8576508 116.455695,40.9876825 C116.455695,39.1177143 114.941577,37.5509841 113.074166,37.5509841 C111.206754,37.5509841 109.692636,39.1177143 109.692636,40.9876825 C109.692636,42.8576508 111.206754,44.3738413 113.074166,44.3738413 Z"/>
    <path fill="#FFF" d="M113.074166,43.6662857 C114.537813,43.6662857 115.749107,42.4533333 115.749107,40.9876825 C115.749107,39.5220317 114.537813,38.3090794 113.074166,38.3090794 C111.610519,38.3090794 110.399225,39.5220317 110.399225,40.9876825 C110.399225,42.4533333 111.610519,43.6662857 113.074166,43.6662857 Z"/>
    <path fill="#000" d="M102.172519,58.8787302 C104.03993,58.8787302 105.554048,57.3625397 105.554048,55.4925714 C105.554048,53.6226032 104.03993,52.055873 102.172519,52.055873 C100.305107,52.055873 98.7405186,53.6226032 98.7405186,55.4925714 C98.7405186,57.3625397 100.305107,58.8787302 102.172519,58.8787302 Z"/>
    <path fill="#FFF" d="M102.172519,58.1711746 C103.636166,58.1711746 104.84746,56.9582222 104.84746,55.4925714 C104.84746,54.0269206 103.636166,52.8139683 102.172519,52.8139683 C100.708872,52.8139683 99.4975775,54.0269206 99.4975775,55.4925714 C99.4975775,56.9582222 100.708872,58.1711746 102.172519,58.1711746 Z"/>
    <path fill="#000" d="M99.2452245,66.0553651 C101.112636,66.0553651 102.677225,64.5391746 102.677225,62.6692063 C102.677225,60.7992381 101.112636,59.2830476 99.2452245,59.2830476 C97.3778127,59.2830476 95.8636951,60.7992381 95.8636951,62.6692063 C95.8636951,64.5391746 97.3778127,66.0553651 99.2452245,66.0553651 Z"/>
    <path fill="#FFF" d="M99.2452245,65.3478095 C100.759342,65.3478095 101.920166,64.1348571 101.920166,62.6692063 C101.920166,61.2035556 100.759342,59.9906032 99.2452245,59.9906032 C97.7815775,59.9906032 96.5702833,61.2035556 96.5702833,62.6692063 C96.5702833,64.1348571 97.7815775,65.3478095 99.2452245,65.3478095 Z"/>
    <path fill="#000" d="M120.039107,39.9768889 C121.906519,39.9768889 123.471107,38.4101587 123.471107,36.5401905 C123.471107,34.6702222 121.906519,33.1540317 120.039107,33.1540317 C118.171695,33.1540317 116.657577,34.6702222 116.657577,36.5401905 C116.657577,38.4101587 118.171695,39.9768889 120.039107,39.9768889 Z"/>
    <path fill="#FFF" d="M120.039107,39.2187937 C121.553225,39.2187937 122.714048,38.056381 122.714048,36.5401905 C122.714048,35.0745397 121.553225,33.8615873 120.039107,33.8615873 C118.57546,33.8615873 117.364166,35.0745397 117.364166,36.5401905 C117.364166,38.056381 118.57546,39.2187937 120.039107,39.2187937 Z"/>
    <ellipse cx="129.679" cy="33.356" fill="#000" rx="3.382" ry="3.386"/>
    <path fill="#FFF" d="M129.678989,36.0347937 C131.142636,36.0347937 132.35393,34.8218413 132.35393,33.3561905 C132.35393,31.8905397 131.142636,30.6775873 129.678989,30.6775873 C128.215342,30.6775873 127.004048,31.8905397 127.004048,33.3561905 C127.004048,34.8218413 128.215342,36.0347937 129.678989,36.0347937 Z"/>
    <path fill="#000" d="M143.003225,37.8036825 C144.870636,37.8036825 146.384754,36.2369524 146.384754,34.3669841 C146.384754,32.4970159 144.870636,30.9808254 143.003225,30.9808254 C141.135813,30.9808254 139.621695,32.4970159 139.621695,34.3669841 C139.621695,36.2369524 141.135813,37.8036825 143.003225,37.8036825 Z"/>
    <path fill="#FFF" d="M143.003225,37.0455873 C144.466872,37.0455873 145.678166,35.8326349 145.678166,34.3669841 C145.678166,32.9013333 144.466872,31.688381 143.003225,31.688381 C141.539577,31.688381 140.328283,32.9013333 140.328283,34.3669841 C140.328283,35.8326349 141.539577,37.0455873 143.003225,37.0455873 Z"/>
    <path fill="#000" d="M143.003225,46.8502857 C144.870636,46.8502857 146.384754,45.2835556 146.384754,43.4135873 C146.384754,41.543619 144.870636,40.0274286 143.003225,40.0274286 C141.135813,40.0274286 139.621695,41.543619 139.621695,43.4135873 C139.621695,45.2835556 141.135813,46.8502857 143.003225,46.8502857 Z"/>
    <path fill="#FFF" d="M143.003225,46.0921905 C144.466872,46.0921905 145.678166,44.8792381 145.678166,43.4135873 C145.678166,41.9479365 144.466872,40.7349841 143.003225,40.7349841 C141.539577,40.7349841 140.328283,41.9479365 140.328283,43.4135873 C140.328283,44.8792381 141.539577,46.0921905 143.003225,46.0921905 Z"/>
    <path fill="#000" d="M143.003225,56.1495873 C144.870636,56.1495873 146.384754,54.6333968 146.384754,52.7634286 C146.384754,50.8934603 144.870636,49.3267302 143.003225,49.3267302 C141.135813,49.3267302 139.621695,50.8934603 139.621695,52.7634286 C139.621695,54.6333968 141.135813,56.1495873 143.003225,56.1495873 Z"/>
    <path fill="#FFF" d="M143.003225,55.4420317 C144.466872,55.4420317 145.678166,54.2290794 145.678166,52.7634286 C145.678166,51.2472381 144.466872,50.0848254 143.003225,50.0848254 C141.539577,50.0848254 140.328283,51.2472381 140.328283,52.7634286 C140.328283,54.2290794 141.539577,55.4420317 143.003225,55.4420317 Z"/>
    <path fill="#000" d="M224.412283 93.1951746C224.664636 90.1627937 221.081225 88.4444444 218.810048 90.4154921 217.396872 91.6284444 217.24546 93.8016508 218.456754 95.2167619 219.718519 96.631873 221.838283 96.7834921 223.25146 95.52 223.907577 94.9640635 224.361813 94.1554286 224.412283 93.1951746L224.412283 93.1951746zM183.732989 76.7697778C182.521695 75.3546667 180.35146 75.2030476 178.938283 76.416 177.525107 77.6794921 177.373695 79.8021587 178.63546 81.2172698 179.846754 82.632381 182.016989 82.784 183.430166 81.5710476 184.843342 80.3075556 184.994754 78.1848889 183.732989 76.7697778z"/>
    <path fill="#2D9A29" d="M182.92546,81.0151111 C181.815107,81.9753651 180.149577,81.8742857 179.140166,80.7624127 C178.181225,79.6505397 178.332636,77.9321905 179.442989,76.9719365 C180.553342,76.0116825 182.218872,76.1127619 183.177813,77.2246349 C184.187225,78.3365079 184.035813,80.0548571 182.92546,81.0151111 L182.92546,81.0151111 Z"/>
    <path fill="#E33820" d="M223.705695,93.1446349 C223.655225,93.9027302 223.30193,94.559746 222.797225,95.0146032 C221.686872,95.9748571 219.970872,95.8232381 219.01193,94.7113651 C218.052989,93.5994921 218.204401,91.9316825 219.314754,90.9208889 C221.081225,89.4046984 223.857107,90.7692698 223.705695,93.1446349 L223.705695,93.1446349 Z"/>
    <path fill="#000" d="M217.24546,58.272254 C219.112872,58.272254 220.626989,56.7055238 220.626989,54.8355556 C220.626989,52.9655873 219.112872,51.4493968 217.24546,51.4493968 C215.327577,51.4493968 213.81346,52.9655873 213.81346,54.8355556 C213.81346,56.7055238 215.327577,58.272254 217.24546,58.272254 Z"/>
    <path fill="#FFF" d="M217.24546,57.5141587 C218.709107,57.5141587 219.920401,56.3012063 219.920401,54.8355556 C219.920401,53.3699048 218.709107,52.1569524 217.24546,52.1569524 C215.731342,52.1569524 214.570519,53.3699048 214.570519,54.8355556 C214.570519,56.3012063 215.731342,57.5141587 217.24546,57.5141587 Z"/>
    <path fill="#000" d="M232.336166,85.2604444 C234.254048,85.2604444 235.768166,83.744254 235.768166,81.8742857 C235.768166,80.0043175 234.254048,78.4375873 232.336166,78.4375873 C230.468754,78.4375873 228.954636,80.0043175 228.954636,81.8742857 C228.954636,83.744254 230.468754,85.2604444 232.336166,85.2604444 Z"/>
    <path fill="#FFF" d="M232.336166,84.5528889 C233.850283,84.5528889 235.011107,83.3399365 235.011107,81.8742857 C235.011107,80.4086349 233.850283,79.1956825 232.336166,79.1956825 C230.872519,79.1956825 229.661225,80.4086349 229.661225,81.8742857 C229.661225,83.3399365 230.872519,84.5528889 232.336166,84.5528889 Z"/>
    <path fill="#000" d="M230.822048,78.3870476 C232.68946,78.3870476 234.203577,76.8708571 234.203577,75.0008889 C234.203577,73.1309206 232.68946,71.5641905 230.822048,71.5641905 C228.954636,71.5641905 227.440519,73.1309206 227.440519,75.0008889 C227.440519,76.8708571 228.954636,78.3870476 230.822048,78.3870476 Z"/>
    <path fill="#FFF" d="M230.822048,77.6794921 C232.285695,77.6794921 233.496989,76.4665397 233.496989,75.0008889 C233.496989,73.4846984 232.285695,72.3222857 230.822048,72.3222857 C229.358401,72.3222857 228.147107,73.4846984 228.147107,75.0008889 C228.147107,76.4665397 229.358401,77.6794921 230.822048,77.6794921 Z"/>
    <path fill="#000" d="M227.642401,71.159873 C229.560283,71.159873 231.074401,69.5931429 231.074401,67.7231746 C231.074401,65.8532063 229.560283,64.3370159 227.642401,64.3370159 C225.774989,64.3370159 224.260872,65.8532063 224.260872,67.7231746 C224.260872,69.5931429 225.774989,71.159873 227.642401,71.159873 Z"/>
    <path fill="#FFF" d="M227.642401,70.4017778 C229.156519,70.4017778 230.317342,69.2393651 230.317342,67.7231746 C230.317342,66.2575238 229.156519,65.0445714 227.642401,65.0445714 C226.178754,65.0445714 224.96746,66.2575238 224.96746,67.7231746 C224.96746,69.2393651 226.178754,70.4017778 227.642401,70.4017778 Z"/>
    <path fill="#000" d="M223.604754,63.831619 C225.472166,63.831619 227.036754,62.3154286 227.036754,60.4454603 C227.036754,58.5754921 225.472166,57.0087619 223.604754,57.0087619 C221.737342,57.0087619 220.223225,58.5754921 220.223225,60.4454603 C220.223225,62.3154286 221.737342,63.831619 223.604754,63.831619 Z"/>
    <path fill="#FFF" d="M223.604754,63.1240635 C225.118872,63.1240635 226.279695,61.9111111 226.279695,60.4454603 C226.279695,58.9798095 225.118872,57.7668571 223.604754,57.7668571 C222.141107,57.7668571 220.929813,58.9798095 220.929813,60.4454603 C220.929813,61.9111111 222.141107,63.1240635 223.604754,63.1240635 Z"/>
    <path fill="#000" d="M210.38146,53.1172063 C212.248872,53.1172063 213.81346,51.6010159 213.81346,49.7310476 C213.81346,47.8105397 212.248872,46.2943492 210.38146,46.2943492 C208.514048,46.2943492 206.99993,47.8105397 206.99993,49.7310476 C206.99993,51.6010159 208.514048,53.1172063 210.38146,53.1172063 Z"/>
    <path fill="#FFF" d="M210.38146,52.4096508 C211.895577,52.4096508 213.056401,51.1966984 213.056401,49.7310476 C213.056401,48.2148571 211.895577,47.0524444 210.38146,47.0524444 C208.917813,47.0524444 207.706519,48.2148571 207.706519,49.7310476 C207.706519,51.1966984 208.917813,52.4096508 210.38146,52.4096508 Z"/>
    <path fill="#000" d="M202.508048,49.5288889 C204.37546,49.5288889 205.889577,48.0126984 205.889577,46.0921905 C205.889577,44.2222222 204.37546,42.7060317 202.508048,42.7060317 C200.640636,42.7060317 199.076048,44.2222222 199.076048,46.0921905 C199.076048,48.0126984 200.640636,49.5288889 202.508048,49.5288889 Z"/>
    <path fill="#FFF" d="M202.508048,48.7707937 C203.971695,48.7707937 205.182989,47.608381 205.182989,46.0921905 C205.182989,44.6265397 203.971695,43.4135873 202.508048,43.4135873 C200.99393,43.4135873 199.833107,44.6265397 199.833107,46.0921905 C199.833107,47.608381 200.99393,48.7707937 202.508048,48.7707937 Z"/>
    <path fill="#000" d="M194.07946,48.3664762 C195.946872,48.3664762 197.460989,46.8502857 197.460989,44.9803175 C197.460989,43.1103492 195.946872,41.543619 194.07946,41.543619 C192.212048,41.543619 190.64746,43.1103492 190.64746,44.9803175 C190.64746,46.8502857 192.212048,48.3664762 194.07946,48.3664762 Z"/>
    <path fill="#FFF" d="M194.07946,47.6589206 C195.543107,47.6589206 196.754401,46.4459683 196.754401,44.9803175 C196.754401,43.5146667 195.543107,42.3017143 194.07946,42.3017143 C192.615813,42.3017143 191.404519,43.5146667 191.404519,44.9803175 C191.404519,46.4459683 192.615813,47.6589206 194.07946,47.6589206 Z"/>
    <path fill="#000" d="M185.600401,48.3159365 C187.467813,48.3159365 188.98193,46.799746 188.98193,44.9297778 C188.98193,43.0598095 187.467813,41.543619 185.600401,41.543619 C183.732989,41.543619 182.168401,43.0598095 182.168401,44.9297778 C182.168401,46.799746 183.732989,48.3159365 185.600401,48.3159365 Z"/>
    <path fill="#FFF" d="M185.600401,47.608381 C187.064048,47.608381 188.275342,46.3954286 188.275342,44.9297778 C188.275342,43.464127 187.064048,42.2511746 185.600401,42.2511746 C184.136754,42.2511746 182.92546,43.464127 182.92546,44.9297778 C182.92546,46.3954286 184.136754,47.608381 185.600401,47.608381 Z"/>
    <path fill="#000" d="M177.928872,48.9729524 C179.846754,48.9729524 181.360872,47.4062222 181.360872,45.536254 C181.360872,43.6662857 179.846754,42.1500952 177.928872,42.1500952 C176.06146,42.1500952 174.547342,43.6662857 174.547342,45.536254 C174.547342,47.4062222 176.06146,48.9729524 177.928872,48.9729524 L177.928872,48.9729524 Z"/>
    <path fill="#FFF" d="M177.928872,48.2148571 C179.442989,48.2148571 180.603813,47.0019048 180.603813,45.536254 C180.603813,44.0706032 179.442989,42.8576508 177.928872,42.8576508 C176.465225,42.8576508 175.25393,44.0706032 175.25393,45.536254 C175.25393,47.0019048 176.465225,48.2148571 177.928872,48.2148571 L177.928872,48.2148571 Z"/>
    <path fill="#000" d="M172.932283,44.3738413 C174.799695,44.3738413 176.313813,42.8576508 176.313813,40.9876825 C176.313813,39.1177143 174.799695,37.5509841 172.932283,37.5509841 C171.064872,37.5509841 169.550754,39.1177143 169.550754,40.9876825 C169.550754,42.8576508 171.064872,44.3738413 172.932283,44.3738413 Z"/>
    <path fill="#FFF" d="M172.932283,43.6662857 C174.39593,43.6662857 175.607225,42.4533333 175.607225,40.9876825 C175.607225,39.5220317 174.39593,38.3090794 172.932283,38.3090794 C171.468636,38.3090794 170.257342,39.5220317 170.257342,40.9876825 C170.257342,42.4533333 171.468636,43.6662857 172.932283,43.6662857 Z"/>
    <path fill="#000" d="M183.83393,58.8787302 C185.701342,58.8787302 187.26593,57.3625397 187.26593,55.4925714 C187.26593,53.6226032 185.701342,52.055873 183.83393,52.055873 C181.966519,52.055873 180.452401,53.6226032 180.452401,55.4925714 C180.452401,57.3625397 181.966519,58.8787302 183.83393,58.8787302 Z"/>
    <path fill="#FFF" d="M183.83393,58.1711746 C185.297577,58.1711746 186.508872,56.9582222 186.508872,55.4925714 C186.508872,54.0269206 185.297577,52.8139683 183.83393,52.8139683 C182.370283,52.8139683 181.158989,54.0269206 181.158989,55.4925714 C181.158989,56.9582222 182.370283,58.1711746 183.83393,58.1711746 Z"/>
    <path fill="#000" d="M186.761225,66.0553651 C188.628636,66.0553651 190.142754,64.5391746 190.142754,62.6692063 C190.142754,60.7992381 188.628636,59.2830476 186.761225,59.2830476 C184.893813,59.2830476 183.329225,60.7992381 183.329225,62.6692063 C183.329225,64.5391746 184.893813,66.0553651 186.761225,66.0553651 Z"/>
    <path fill="#FFF" d="M186.761225,65.3478095 C188.224872,65.3478095 189.436166,64.1348571 189.436166,62.6692063 C189.436166,61.2035556 188.224872,59.9906032 186.761225,59.9906032 C185.247107,59.9906032 184.086283,61.2035556 184.086283,62.6692063 C184.086283,64.1348571 185.247107,65.3478095 186.761225,65.3478095 Z"/>
    <path fill="#000" d="M165.967342,39.9768889 C167.834754,39.9768889 169.348872,38.4101587 169.348872,36.5401905 C169.348872,34.6702222 167.834754,33.1540317 165.967342,33.1540317 C164.09993,33.1540317 162.535342,34.6702222 162.535342,36.5401905 C162.535342,38.4101587 164.09993,39.9768889 165.967342,39.9768889 Z"/>
    <path fill="#FFF" d="M165.967342,39.2187937 C167.430989,39.2187937 168.642283,38.056381 168.642283,36.5401905 C168.642283,35.0745397 167.430989,33.8615873 165.967342,33.8615873 C164.453225,33.8615873 163.292401,35.0745397 163.292401,36.5401905 C163.292401,38.056381 164.453225,39.2187937 165.967342,39.2187937 Z"/>
    <ellipse cx="156.327" cy="33.356" fill="#000" rx="3.382" ry="3.386"/>
    <path fill="#FFF" d="M156.32746,36.0347937 C157.791107,36.0347937 159.002401,34.8218413 159.002401,33.3561905 C159.002401,31.8905397 157.791107,30.6775873 156.32746,30.6775873 C154.863813,30.6775873 153.652519,31.8905397 153.652519,33.3561905 C153.652519,34.8218413 154.863813,36.0347937 156.32746,36.0347937 Z"/>
  </g>
</svg>
