<svg xmlns="http://www.w3.org/2000/svg" width="482" height="819" viewBox="0 0 482 819">
  <g fill="none" transform="translate(-1 -1)">
    <g transform="translate(.549 208.044)">
      <path fill="#0E4194" d="M0.855,0.515 L481.701,0.515 C474.772,401.79 241.27,611.081 241.27,611.081 C241.27,611.081 7.769,401.79 0.855,0.515"/>
      <path fill="gold" d="M19.881,17.804 L462.675,17.804 C452.291,386.223 241.271,581.674 241.271,581.674 C241.271,581.674 30.26,386.223 19.881,17.804"/>
      <path fill="#FF0010" d="M38.909,35.102 L443.649,35.102 C426.351,374.114 241.271,552.274 241.271,552.274 C241.271,552.274 56.198,374.113 38.909,35.102"/>
      <g transform="translate(83 34)">
        <path fill="#000" d="M156.431,79.484 C154.942,80.944 151.971,84.127 151.971,84.127 C151.971,84.127 152.209,85.163 148.291,84.405 C144.381,83.629 140.192,83.629 141.418,81.173 C141.418,81.173 143.377,80.221 145.106,78.991 C146.834,77.757 151.246,74.3 151.246,74.3 C151.246,74.3 154.161,72.115 155.666,74.069 C157.164,76.027 157.929,78.019 156.431,79.484 M143.647,118.804 C133.851,119.106 128.253,115.614 129.631,114.423 C129.631,114.423 131.398,111.194 132.855,111.691 C134.203,112.807 140.957,112.615 144.875,112.384 C149.518,112.883 155.897,112.384 155.897,112.384 C155.897,112.384 153.938,118.444 143.647,118.804 M313.38,118.337 C310.999,104.742 303.1,103.902 297.636,103.667 C306.691,89 300.328,81.1 299.938,81.706 C297.334,87.7 294.792,90.463 291.647,91.311 C301.093,71.957 289.345,68.425 289.378,69.77 C289.034,81.909 280.982,82.9 276.913,81.629 C250.639,73.148 237.1,90.462 237.1,90.462 C237.1,90.462 224.231,101.946 224.079,129.24 C223.895,157.074 232.674,179.95 237.1,194.052 C241.511,208.136 245.24,222.568 245.575,231.934 C245.846,239.304 242.461,243.226 239.665,243.421 C236.871,243.601 234.633,241.272 233.414,238.455 C232.18,235.66 231.638,233.857 229.719,222.408 C227.791,210.97 218.936,205.866 212.252,204.097 C205.571,202.339 197.623,199.498 194.978,198.611 C192.328,197.726 193.402,195.234 195.329,191.587 C196.556,189.321 199.201,189.818 201.51,190.169 C203.812,190.511 207.14,192.471 209.792,192.653 C212.437,192.854 211.918,189.818 211.918,187.022 C211.918,184.223 212.437,182.412 214.062,182.412 C215.678,182.217 216.171,187.022 216.171,187.022 C216.171,187.022 218.594,182.786 218.783,179.802 C218.975,176.808 216.475,176.076 214.898,174.647 C213.335,173.229 214.211,171.166 214.211,171.166 C214.211,171.166 217.406,174.154 222.159,172.397 C226.923,170.621 227.927,166.746 227.225,166.052 C217.015,162.565 219.158,155.843 218.974,143.674 C218.782,131.508 221.078,123.058 221.777,110.196 C222.462,97.337 215.589,85.697 214.554,84.125 C213.519,82.549 213.862,80.942 214.897,81.481 C217.699,83.241 223.545,85.51 223.545,85.51 C223.545,85.51 226.691,85.51 229.525,82.515 C232.368,79.524 236.75,72.461 237.975,69.654 C239.21,66.851 239.934,67.739 241.51,68.961 C243.081,70.195 245.733,70.381 246.623,68.961 C247.493,67.544 250.415,66.229 247.842,59.822 C246.488,56.175 244.538,52.064 240.962,52.377 C238.549,52.57 235.515,52.913 232.87,53.794 C230.219,54.682 224.763,58.213 222.994,59.248 C221.241,60.289 221.306,60.479 218.885,58.866 C217.405,57.831 218.239,55.76 219.475,54.872 C220.693,53.988 225.582,51.917 227.829,49.612 C230.106,47.31 228.458,44.12 228.458,44.12 C228.458,44.12 223.346,39.557 222.811,39.016 C221.968,38.176 224.581,35.289 225.311,34.604 C226.037,33.911 227.758,32.142 227.957,28.961 C227.957,25.927 225.106,23.857 222.995,23.505 C220.893,23.162 219.97,23.505 218.24,25.233 C216.313,27.357 214.363,28.268 213.478,27.038 C212.602,25.81 209.057,23.661 206.614,23.506 C204.159,23.358 201.652,24.549 199.922,26.852 C197.821,29.686 195.853,31.912 195.853,31.912 C195.853,31.912 194.977,34.454 192.868,32.143 C190.757,29.841 192.724,26.497 192.724,26.497 C192.724,26.497 198.896,16.636 199.581,15.561 C200.274,14.486 200.623,12.758 200.274,11.682 C198.664,6.689 194.101,3.427 192.723,1.819 C191.329,0.207 189.713,0.971 189.337,1.281 C187.189,2.969 185.572,3.343 185.188,5.073 C183.581,9.5 185.65,12.913 184.607,12.913 C178.61,12.953 169.874,19.862 169.602,25.468 C169.331,31.418 172.287,34.408 172.79,35.488 C173.282,36.563 172.979,37.909 172.979,37.909 C172.979,37.909 160.499,37.06 156.008,37.869 C151.516,38.673 149.064,42.632 149.064,42.632 C149.064,42.632 144.723,43.933 140.422,47.309 C134.585,52.033 131.247,52.148 126.716,54.725 C121.26,57.863 120.105,60.439 119.962,63.433 C119.691,68.654 123.761,69.151 127.218,70.08 C129.59,70.733 129.408,74.149 129.408,75.789 C129.408,77.441 129.009,77.558 132.084,80.715 C118.114,79.712 116.123,70.88 114.586,68.274 C113.621,66.538 112.515,64.507 110.97,64.507 C109.019,64.507 106.901,67.573 106.901,67.573 C106.901,67.573 103.452,70.958 105.06,81.702 C106.717,92.8 116.346,92.231 117.197,92.231 C118.033,92.231 125.41,91.765 126.022,91.921 C126.636,92.072 127.097,92.148 128.403,93.151 C130.826,94.954 129.408,99.438 128.867,99.911 C124.788,103.817 124.024,105.969 123.648,107.657 C123.179,109.688 124.406,112.535 124.406,112.535 C124.406,112.535 120.958,113.146 118.958,110.038 C117.27,107.431 118.999,102.935 118.999,102.935 C118.999,102.935 119.46,101.705 118.266,101.59 C113.161,100.98 109.442,105.277 107.443,106.818 C107.363,100.833 110.095,99.376 111.281,98.217 C112.054,97.447 111.711,96.95 110.628,96.755 C101.031,96.186 97.233,103.285 95.927,106.397 C81.599,99.913 75.467,109.618 73.316,111.959 C71.158,114.297 73.316,113.999 74.733,113.999 C80.333,113.843 81.265,117.797 81.265,120.864 C81.265,124.861 76.574,126.32 76.574,126.32 C76.574,126.32 69.707,128.896 67.907,117.642 C66.474,109.348 78.572,92.655 78.572,92.655 C78.572,92.655 83.294,84.818 83.095,78.296 C82.833,68.344 78.722,64.935 75.496,63.785 C77.186,56.788 76.079,48.306 74.008,39.792 C71.921,31.263 59.456,28.838 59.456,28.838 C59.456,28.838 57.378,14.486 47.742,13.905 C39.633,13.482 37.34,16.907 35.461,18.826 C38.296,21.856 39.251,25.349 39.45,29.957 C27.352,24.083 24.287,29.801 22.789,32.262 C21.284,34.718 22.247,34.874 22.247,34.874 C22.247,34.874 26.397,35.101 28.085,36.789 C29.773,38.477 29.423,41.317 28.659,42.245 C23.553,47.351 24.318,50.182 24.134,54.53 C19.021,57.366 16.76,62.128 16.027,65.123 C15.302,68.117 16.187,69.471 16.187,69.471 C16.187,69.471 19.596,69.691 24.318,69.886 C29.042,70.081 29.623,72.113 29.24,75.107 C28.858,78.097 26.204,81.744 26.204,81.744 C26.204,81.744 21.633,87.28 19.595,90.43 C17.413,93.847 16.92,97.263 17.302,101.751 C17.604,106.012 22.446,111.814 23.553,113.108 C14.832,130.661 25.091,142.178 29.042,145.79 C29.241,142.787 29.424,140.872 31.892,137.839 C32.275,144.257 35.651,145.209 38.104,144.826 C40.939,137.65 43.177,134.803 46.244,133.497 C45.519,139.566 46.434,146.897 47.941,150.707 C43.792,152.229 39.984,151.393 37.532,150.668 C36.184,150.584 36.034,151.433 36.034,151.433 C36.034,151.433 35.269,158.227 41.905,161.252 C47.789,163.952 56.344,163.145 63.527,163.145 C59.226,165.868 55.044,167.512 53.732,167.824 C52.664,168.014 52.664,168.827 53.046,169.783 C62.794,179.651 80.602,175.23 80.602,175.23 C80.602,175.23 82.57,179.765 90.668,179.152 C101.189,184.559 106.636,183.687 118.113,183.792 C114.466,187.635 107.512,188.255 101.643,188.132 C91.505,187.901 82.369,184.599 80.601,183.688 C77.304,190.32 82.681,196.583 85.905,199.812 C78.339,199.999 70.049,196.77 65.868,192.824 C61.679,188.866 53.77,183.947 53.77,183.947 C53.77,183.947 50.195,182.219 39.984,183.182 C30.165,174.506 22.247,174.888 19.795,174.888 C17.333,174.888 17.525,176.004 17.908,176.568 C23.785,188.092 22.447,193.019 22.447,193.019 C22.447,193.019 13.567,190.399 8.853,191.665 C4.743,192.701 0.371,196.965 0.331,200.919 C10.581,202.226 13.344,203.177 16.188,206.023 C18.49,208.449 18.107,208.677 18.49,210.973 C17.758,228.754 30.006,230.215 30.006,230.215 C30.006,230.215 27.783,234.357 23.937,236.615 C19.215,239.453 16.65,238.891 14.882,239.453 C27.353,250.978 44.906,239.892 46.786,238.346 C48.084,239.079 50.967,240.605 56.997,239.079 C54.734,242.651 51.159,243.26 51.159,243.26 C51.159,243.26 54.154,245.88 64.523,243.423 C74.884,240.963 80.801,236.426 80.801,236.426 C80.801,236.426 80.801,240.807 86.288,241.002 C91.785,241.19 98.538,235.508 98.538,235.508 C98.538,235.508 99.04,238.162 98.027,242.692 C105.211,241.617 108.015,239.08 108.015,239.08 L119.5,228.567 C119.5,228.567 119.531,234.054 118.919,239.454 C124.757,238.892 129.168,236.28 133.517,231.714 C137.117,235.464 140.685,236.28 145.217,238.893 C109.713,240.188 105.634,256.59 104.829,261.074 C104.025,265.561 104.829,268.261 105.634,267.64 C109.52,263.725 118.584,260.309 120.184,262.536 C118.957,271.368 115.469,277.664 107.894,284.23 C100.304,290.027 96.769,290.637 94.818,291.724 C93.233,292.52 92.549,292.87 93.576,293.671 C97.503,296.745 99.501,296.704 105.825,297.321 C101.533,300.775 96.651,300.393 94.62,300.814 C97.686,304.916 104.829,307.143 110.366,308.185 C107.895,310.649 104.829,312.298 103.604,312.673 C117.964,318.202 126.939,314.317 132.666,311.443 C128.597,321.66 124.264,324.962 119.765,324.58 C115.272,324.197 109.937,321.889 106.862,319.849 C103.795,317.818 100.921,316.783 99.503,316.596 C98.077,316.401 91.324,317.64 88.432,314.135 C82.714,303.764 77.769,302.846 74.312,302.659 C70.848,302.463 66.906,304.916 65.29,305.111 C45.634,302.463 42.528,313.529 43.412,315.364 C56.919,315.364 56.696,320.665 57.301,322.114 C48.709,323.348 46.479,327.227 45.251,329.497 C44.017,331.755 44.177,336.02 45.594,335.394 C55.191,331.527 60.797,334.212 60.797,334.594 C59.571,343.387 64.055,347.082 64.055,347.082 C64.055,347.082 65.942,348.539 64.907,350.757 C62.454,357.902 66.524,363.658 67.128,362.858 C73.468,353.442 81.495,357.131 83.184,358.088 C84.872,359.051 90.551,365.464 90.551,365.464 C95.163,368.693 98.38,367.272 99.001,364.662 C99.615,362.045 97.775,355.755 97.775,355.755 C97.775,355.755 98.539,355.139 103.453,355.755 C108.367,356.367 111.745,363.495 114.203,366.506 C117.128,370.027 119.27,367.005 119.27,365.876 C119.309,355.674 120.535,358.088 120.535,358.088 C120.535,358.088 124.565,361.587 127.25,360.203 C133.088,357.29 137.659,351.139 137.388,351.753 C138.233,349.647 140.463,350.832 140.463,350.832 C140.463,350.832 141.076,355.755 142.597,359.745 C144.143,363.733 147.216,360.974 147.216,360.974 C147.216,360.974 154.05,356.63 155.046,344.687 C156.12,331.949 147.83,328.882 146.292,328.882 C144.755,328.882 144.724,328.11 144.875,326.875 C145.798,324.652 147.216,322.432 147.83,321.658 C148.45,320.89 149.016,320.01 150.25,320.624 C151.478,321.231 152.6,322.89 153.205,326.875 C153.827,330.864 157.969,333.783 158.589,333.484 C164.116,327.193 163.535,321.231 162.883,316.127 C167.183,320.273 167.597,319.815 168.249,319.202 C169.563,317.86 171.173,311.978 171.944,308.453 C174.239,313.208 175.625,322.578 175.625,322.578 C181.772,311.667 179.925,296.627 178.236,291.558 C176.548,286.494 168.098,280.65 167.325,280.041 C166.56,279.428 165.335,277.895 166.409,276.509 C167.763,275.744 168.329,275.744 172.557,276.82 C176.818,277.895 178.849,281.729 178.705,286.803 C178.554,291.865 183.149,290.634 184.377,290.634 C185.611,290.634 184.838,290.487 186.376,291.246 C192.515,304.757 182.688,317.66 180.705,319.349 C178.705,321.037 178.849,321.502 180.393,321.658 C185.466,321.348 191.439,321.503 202.039,313.822 C205.719,330.26 194.202,338.703 194.665,339.314 C212.631,343.921 225.534,330.406 225.534,330.562 C223.232,348.072 214.789,347.605 210.951,346.997 C207.758,346.531 199.579,344.99 191.758,344.843 C183.922,344.687 179.764,345.619 175.463,348.375 C171.823,350.685 166.107,359.433 166.107,359.433 C166.107,359.433 160.149,357.976 155.497,363.576 C151.97,367.994 152.28,376.014 153.054,375.713 C167.325,367.573 170.559,370.949 170.559,370.949 C170.559,370.949 165.184,380.622 168.871,393.065 C172.558,405.503 179.614,402.28 179.614,402.28 C179.614,402.28 179.925,402.52 179.765,401.819 C177.36,390.724 179.765,387.383 182.394,387.383 C185.762,390 186.99,388.77 189.139,388.77 C191.29,388.77 191.29,389.682 191.91,390.613 C198.663,404.435 210.793,401.516 213.246,401.362 C215.715,401.206 216.632,400.432 216.009,399.974 C215.405,399.516 210.34,393.524 209.56,391.688 C208.795,389.844 209.415,388.312 211.869,387.699 C225.073,383.851 227.83,378.476 229.838,374.789 C231.07,382 228.609,386.469 229.072,386.616 C243.966,381.232 244.108,363.576 244.108,363.576 C244.108,363.576 243.965,363.576 245.97,362.81 C247.947,362.044 253.482,361.885 255.943,361.885 C258.396,361.885 258.7,360.35 258.7,360.35 C258.7,360.35 252.877,354.671 251.794,353.146 C250.727,351.605 250.256,351.138 251.021,346.532 C251.794,341.932 249.946,341.157 249.946,341.157 C249.946,341.157 244.284,341.004 242.276,341.157 C241.234,341.28 239.976,341.777 239.976,337.17 C239.976,332.554 248.258,330.865 248.258,330.865 C248.258,330.865 252.838,329.8 260.388,327.194 C268.463,324.423 270.685,315.511 269.919,315.053 C268.072,314.75 266.082,314.75 263.62,314.75 C261.853,314.709 260.085,314.276 259.471,313.364 C276.363,309.059 271.641,295.624 271.641,295.624 C271.641,295.624 266.847,300.346 262.315,300.195 C259.049,300.12 256.675,300.043 254.566,297.769 C252.71,295.853 253.483,286.337 253.483,283.418 C247.311,288.112 239.513,288.757 237.323,288.678 C235.516,288.594 231.343,288.448 231.485,281.459 C231.637,274.366 234.01,270.835 238.288,265.997 C242.548,261.154 243.113,262.072 245.662,262.262 C248.186,262.449 248.65,264.805 248.65,264.805 C248.65,264.805 245.423,268.368 243.344,271.747 C241.273,275.131 242.699,278.118 243.886,280.848 C245.072,283.575 246.578,283.192 246.928,282.774 C249.723,279.543 252.026,277.701 255.523,277.895 C259.01,278.083 261.008,286.494 261.087,289.07 C261.199,291.721 261.933,291.98 263.016,291.636 C271.427,285.413 268.336,276.362 267.579,273.132 C271.642,274.243 275.408,278.236 275.408,278.236 C275.408,278.236 278.436,276.012 279.628,269.709 C281.049,261.995 276.946,258.618 274.182,255.543 C283.962,245.342 280.673,237.544 277.862,233.361 C275.058,229.172 275.329,230.824 274.597,231.321 C271.642,241.149 266.617,244.454 263.119,243.645 C266.496,203.797 246.579,161.609 246.579,161.609 C246.579,161.609 243.201,154.692 242.589,134.925 C241.927,113.573 253.667,104.554 256.868,102.638 C260.053,100.715 260.389,101.675 263.279,104.244 C267.149,107.66 265.692,109.006 265.397,109.388 C255.905,116.796 251.413,120.639 251.261,128.825 C251.101,136.989 253.937,142.527 257.019,145.021 C260.388,147.931 259.471,144.017 259.6,144.559 C259.815,134.077 265.692,133.002 268.273,132.358 C270.844,131.696 270.303,133.806 270.303,133.806 C270.303,133.806 269.498,136.802 269.299,144.256 C269.115,150.965 270.987,151.009 270.987,151.009 C270.987,151.009 277.216,155.998 283.355,164.488 C288.341,171.385 286.08,181.638 287.075,182.256 C298.98,174.046 298.934,164.445 299.444,157.074 C309.574,154.964 307.232,140.871 306.229,140.983 C299.633,141.915 295.564,141.058 295.477,136.761 C295.414,132.46 296.791,130.928 299.251,127.169 C301.704,123.401 300.47,117.798 300.47,117.798 C300.47,117.798 302.239,117.145 303.551,118.336 C306.388,121.06 304.851,121.174 310.298,121.174 C314.448,121.176 313.612,120.026 313.38,118.337"/>
        <path fill="gold" d="M80.222,157.11 C80.222,157.11 72.704,159.109 59.913,159.563 C47.131,160.021 43.213,158.416 41.173,154.883 C43.595,154.916 51.965,153.809 54.242,152.77 C52.809,150.511 47.862,138.65 51.774,126.978 C49.129,126.978 42.789,128.435 37.454,134.763 C36.84,135.572 35.766,134.348 36.196,130.466 C36.611,126.592 39.302,120.403 48.318,113.65 C44.249,113.842 39.955,114.49 36.037,119.409 C32.118,124.327 29.244,128.823 28.438,133.119 C28.311,134.619 23.517,132.497 24.131,123.904 C24.752,115.307 30.039,103.129 40.76,92.724 C39.341,92.918 37.454,92.381 32.117,96.255 C26.351,100.488 24.368,104.132 24.368,104.132 C24.368,104.132 21.214,97.072 24.368,91.229 C27.514,85.393 33.654,78.327 33.654,78.327 C33.654,78.327 37.883,70.881 33.272,67.815 C28.661,64.74 25.132,63.509 25.132,63.509 C25.132,63.509 23.062,60.52 26.519,58.676 C28.589,57.836 30.732,58.52 30.732,58.52 C30.732,58.52 29.625,53.455 31.662,51.229 C33.121,49.54 34.65,49.004 37.182,48.848 C37.071,46.428 36.649,39.673 34.379,34.64 C34.268,34.484 34.84,31.418 39.905,35.222 C43.1,37.602 44.103,39.447 44.103,39.447 C44.103,39.447 48.045,34.764 43.522,21.75 C43.377,21.355 50.738,19.294 52.084,33.832 C56.878,32.415 69.397,34.111 68.816,54.834 C68.212,76.297 60.98,80.598 60.98,80.598 C60.98,80.598 66.093,82.172 69.971,80.411 C72.583,79.222 77.266,74.762 77.266,74.762 C77.266,74.762 79.529,72.614 78.915,79.875 C78.421,85.975 72.894,94.838 70.32,98.833 C67.741,102.83 63.447,108.66 62.835,116.956 C62.213,125.238 68.283,130.311 71.659,130.466 C75.346,130.653 79.456,130.24 84.259,125.019 C84.831,124.441 87.515,126.099 89.474,130.583 C89.164,124.327 87.021,116.415 85.794,113.34 C85.252,111.696 85.866,110.7 89.053,110.7 C92.246,110.7 94.62,111.197 94.699,111.81 C94.78,112.427 92.39,119.532 107.058,132.924 C107.172,133.158 93.886,112.957 101.954,106.505 C102.153,106.435 103.985,105.511 104.527,111.611 C104.909,115.461 109.019,113.649 109.019,113.649 C109.019,113.649 110.627,109.965 112.619,109.965 C114.307,109.965 112.093,113.649 113.853,117.647 C116.002,122.564 119.116,124.129 121.809,125.556 C122.455,125.237 122.494,124.401 122.494,124.401 C122.494,124.401 121.723,119.989 122.724,117.19 C122.956,116.573 123.098,115.648 124.262,117.109 C125.409,118.566 131.095,124.401 141.075,123.787 C149.939,123.29 148.984,123.321 148.984,123.321 C148.984,123.321 151.826,122.939 148.903,125.476 C146.721,127.32 143.456,129.658 137.927,130.159 C135.387,130.395 127.448,129.888 121.028,135.461 C119.069,137.032 115.725,141.257 112.737,151.353 C109.52,162.103 98.427,171.08 87.093,173.959 C86.63,171.94 86.058,169.849 87.707,165.982 C83.946,168.128 80.563,170.207 71.355,171.007 C62.14,171.816 60.675,169.057 60.675,169.057 C60.675,169.057 60.723,168.244 61.529,168.004 C63.146,167.396 75.004,163.451 80.222,157.11"/>
        <path fill="gold" d="M96.118 177.152C96.118 177.152 93.848 176.108 95.504 175.344 97.153 174.582 108.75 166.635 112.508 160.45 116.267 154.271 118.226 148.436 118.226 148.436 118.226 148.436 121.118 139.679 125.913 136.841 130.715 133.994 134.505 133.082 135.7 133.082 136.893 133.082 137.348 133.651 137.038 134.271 137.038 135.765 135.851 136.188 135.54 137.875 135.239 139.563 135.54 142.41 135.54 143.755 135.54 145.094 136.241 149.813 137.659 150.385 139.467 151.118 139.307 152.503 138.847 153.531 138.392 154.573 134.625 165.437 128.899 172.198 123.412 178.641 121.078 179.418 117.773 179.574 114.468 179.722 99.264 179.268 96.118 177.152M125.681 183.719C125.681 183.719 125.571 181.029 126.214 180.53 127.258 179.765 131.168 177.695 132.825 175.083 134.203 172.973 135.127 170.395 135.54 166.326 135.66 164.598 135.731 164.171 137.929 164.288 139.117 166.708 141.196 166.481 142.453 166.637 145.178 166.971 145.488 165.403 146.524 165.291 147.717 165.441 148.028 164.794 148.028 167.672 148.028 170.548 146.213 177.301 141.808 180.916 136.965 184.87 134.17 184.911 132.355 185.059 130.556 185.212 125.76 184.598 125.681 183.719"/>
        <path fill="gold" d="M36.848 226.063C36.848 226.063 26.71 225.787 25.165 217.698 24.329 213.4 25.133 209.785 23.986 207.324 21.988 203.49 19.376 201.191 11.618 198.874 11.085 198.461 10.392 197.809 11.769 197.186 12.47 196.891 19.678 195.498 27.053 199.273 27.515 198.419 27.132 191.273 25.134 187.294 23.135 183.289 23.446 183.746 23.446 183.746 23.446 183.746 23.901 182.835 25.445 182.987 26.974 183.144 34.812 183.911 39.574 188.976 40.028 189.74 41.255 189.895 42.027 189.278 42.791 188.666 46.32 187.442 50.318 188.362 54.317 189.278 58.768 191.739 62.297 195.271 65.674 198.648 71.209 202.641 79.349 203.262 87.487 203.875 92.091 205.262 92.091 205.262 92.091 205.262 97.61 205.716 98.844 205.099 100.071 204.486 100.541 204.796 98.542 203.565 96.542 202.331 92.25 196.96 91.016 192.822 91.47 192.196 91.637 192.359 93.318 192.663 94.583 192.889 101.305 195.426 108.212 194.969 115.131 194.511 124.186 189.279 124.186 189.279 124.186 189.279 125.103 188.519 126.178 189.131 127.261 189.741 133.593 195.427 145.38 187.133 146.909 186.065 148.637 184.834 153.066 186.829 155.35 187.909 157.207 187.909 157.207 187.909 157.207 187.909 162.312 192.05 170.563 192.05 178.853 192.05 181.92 196.961 181.92 196.961 181.92 196.961 186.993 205.405 189.605 206.485 192.224 207.553 198.357 207.716 198.357 207.716 198.357 207.716 208.035 206.633 215.711 212.315 223.389 218.002 225.076 223.071 226.145 230.755 227.228 238.429 230.756 244.88 232.595 247.325 234.451 249.783 238.171 251.248 240.274 251.33 243.196 251.478 247.665 247.8 249.496 239.815 251.344 231.823 250.182 223.373 247.808 211.549 244.582 195.743 232.143 163.489 229.379 146.589 227.419 134.495 226.767 116.189 235.376 102.209 243.97 88.24 255.637 84.699 255.637 84.699 255.637 84.699 261.473 83.781 267.321 84.552 273.143 85.322 282.469 87.392 287.892 82.71 289.118 81.633 290.035 80.71 290.035 80.71 290.035 80.71 290.775 85.353 287.43 90.387 284.547 94.878 281.594 97.913 281.594 97.913 281.594 97.913 281.281 98.833 283.433 98.833 285.576 98.833 292.886 98.915 296.948 94.838 297.259 94.527 298.636 93.066 297.641 96.379 297.027 98.677 295.801 100.98 290.496 104.675 290.035 105.205 290.879 105.512 292.726 105.44 294.574 105.367 302.849 107.51 304.393 112.349 302.849 112.503 299.863 112.503 299.329 112.349 298.78 112.193 297.339 111.429 296.717 111.655 296.103 111.889 296.033 112.349 296.262 116.19 296.485 120.021 296.103 124.17 293.731 127.547 291.342 130.932 287.502 140.222 293.5 143.063 299.489 145.898 301.862 145.754 301.862 145.754 301.862 145.754 303.096 145.67 301.782 147.439 300.476 149.203 298.486 152.503 292.498 154.42 292.887 156.115 296.575 167.552 291.422 174.003 291.039 174.394 290.426 174.322 290.426 172.853 290.426 171.391 289.892 165.448 281.745 156.116 274.681 148.053 273.915 147.283 273.605 142.068 273.302 136.847 273.765 132.694 273.765 132.694 273.765 132.694 273.223 128.09 269.233 128.09 265.236 128.09 262.551 130.241 260.87 131.703 259.182 133.16 257.415 136.693 257.415 136.693 257.415 136.693 257.024 138.069 256.562 136.071 256.099 134.084 254.562 126.63 258.706 120.955 262.862 115.27 266.389 112.959 266.389 112.959 266.389 112.959 268.701 110.506 269.001 108.972 269.314 107.431 269.001 104.819 268.078 103.753 267.154 102.67 263.316 98.99 263.316 98.99 263.316 98.99 259.94 97.759 257.789 97.915 255.639 98.062 252.42 98.062 249.044 102.367 245.931 106.242 236.756 117.423 236.286 132.779 235.832 148.138 245.97 173.464 245.97 173.464 245.97 173.464 258.864 205.867 258.864 227.677 258.864 249.49 258.252 249.016 258.252 249.016 258.252 249.016 259.327 252.099 262.083 251.646 264.855 251.17 271.217 247.304 272.993 244.572 273.606 243.654 274.228 243.491 274.228 243.491 274.228 243.491 276.227 247.638 273.766 251.482 271.303 255.313 270.078 255.941 270.078 255.941 270.078 255.941 269.765 257.629 270.539 258.235 271.303 258.853 278.839 264.384 276.368 272.985 275.462 276.207 275.462 275.597 275.462 275.597 275.462 275.597 270.65 271.981 266.389 269.904 264.55 268.983 263.938 269.298 264.391 270.842 264.855 272.363 266.389 283.425 264.391 286.655 264.081 287.413 263.771 288.026 263.165 284.96 262.552 281.885 260.25 275.749 257.175 275.132 254.109 274.519 249.188 275.749 246.584 279.583 245.356 278.207 245.119 277.397 245.206 275.598 245.356 272.986 247.268 270.604 248.12 269.147 249.355 267.14 252.11 264.536 251.035 262.848 249.961 261.151 247.354 259.465 245.206 259.465 242.594 259.465 241.357 259.319 239.05 261.765 236.756 264.229 232.264 266.225 228.76 277.437 228.76 278.816 228.465 282.192 228.465 282.192 228.465 282.192 229.684 289.101 232.446 290.189 235.209 291.256 237.981 291.256 237.981 291.256 237.981 291.256 247.354 290.028 249.355 289.412 249.96 289.264 250.876 288.491 250.421 290.641 249.96 292.787 249.648 299.091 253.655 301.083 258.097 303.241 264.389 302.922 267.002 302.011 267.775 301.692 268.841 301.504 267.926 302.922 266.852 304.61 266.74 309.572 253.655 311.372 250.26 311.83 250.731 311.83 250.731 311.83 250.731 311.83 250.182 315.011 252.252 316.594 254.41 318.282 258.4 318.117 264.707 317.97 265.424 317.97 266.699 320.578 257.173 323.964 246.805 327.61 243.826 328.264 240.441 330.873 237.064 333.479 236.14 336.711 235.973 337.939 235.83 339.167 237.208 342.543 238.903 343.005 240.592 343.47 243.827 343.774 245.355 343.617 246.884 343.47 249.497 343.617 248.27 344.995 247.036 346.389 245.205 348.691 245.514 350.98 245.809 353.291 248.421 356.216 249.647 356.986 250.875 357.742 251.95 358.663 249.806 358.829 247.665 358.973 243.237 359.516 241.827 361.895 240.513 366.658 239.819 374.332 234.452 379.71 233.832 380.168 233.988 378.48 233.988 377.561 233.988 376.637 233.832 369.259 232.444 368.498 231.066 367.733 230.151 367.424 229.219 368.187 228.303 368.964 222.775 376.485 222.003 377.399 221.245 378.326 218.634 382.316 216.325 382.924 214.023 383.546 210.334 383.243 210.334 383.243 210.334 383.243 206.034 384.154 205.119 388.921 204.649 393.839 207.11 396.595 207.11 396.595 207.11 396.595 207.881 397.98 206.638 397.826 205.421 397.678 201.088 398.175 194.056 388.774 191.293 385.079 189.906 385.234 189.906 385.234 189.906 385.234 186.841 385.842 184.842 384.93 182.85 384.003 181.162 382.923 179.164 384.323 178.432 384.815 175.907 385.388 174.862 397.522 174.742 398.673 173.484 396.448 172.712 394.293 171.941 392.151 170.252 388.464 170.252 383.243 170.252 378.014 175.468 371.571 175.468 371.571 175.468 371.571 173.175 368.027 171.336 367.576 169.487 367.112 167.641 366.956 165.808 366.956 163.959 366.956 159.197 368.964 157.813 370.488 157.047 370.946 155.669 371.265 157.358 368.186 159.046 365.112 159.509 362.815 166.103 363.272 166.724 363.272 168.724 362.204 170.563 360.35 172.395 358.508 175.318 353.753 179.474 351.755 183.608 349.764 185.766 349.764 188.993 349.911 192.224 350.057 204.347 352.83 208.035 353.443 211.714 354.065 220.744 352.717 224.918 346.386 228.613 340.851 232.596 331.645 227.834 319.507 227.379 318.736 227.229 318.97 226.694 319.891 226.145 320.815 216.555 337.936 203.503 336.252 202.89 336.097 208.114 324.508 206.959 308.373 206.88 300.083 209.794 293.641 209.794 293.641 209.794 293.641 208.506 294.627 207.413 296.542 206.338 298.465 200.278 312.364 189.844 316.505 188.61 316.9 188.076 316.505 188.538 315.359 188.993 314.216 193.946 305.259 193.523 293.331 193.285 286.449 193.172 283.494 193.172 283.494 193.172 283.494 191.835 284.613 191.221 285.338 190.37 286.422 186.491 287.987 186.491 287.987 186.491 287.987 183.735 289.491 183.536 284.653 183.353 279.807 180.358 275.052 178.853 273.049 178.12 272.053 177.547 268.562 177.508 265.073 177.508 262.349 178.288 258.654 181.433 256.777 184.571 254.902 193.602 253.433 195.633 249.176 197.743 244.756 196.708 236.111 194.82 233.271 194.82 236.469 197.084 247.528 187.375 250.971 179.235 252.668 174.138 256.436 173.454 262.349 172.982 266.41 174.632 271.399 174.632 271.399 174.632 271.399 175.595 273.407 172.753 272.528 169.909 271.628 168.293 270.983 168.293 270.983 168.293 270.983 165.115 270.623 164.15 271.483 161.84 273.674 157.812 276.054 160.55 278.389 163.274 280.73 174.711 288.763 176.893 295.702 179.084 302.659 178.016 311.443 178.016 311.443 178.016 311.443 177.625 312.634 177.125 311.443 175.737 307.827 171.979 300.155 165.996 296.316 165.145 295.702 165.266 296.746 165.909 297.733 166.944 299.39 169.406 303.85 168.674 307.445 167.949 311.058 166.492 315.128 166.492 315.128 166.492 315.128 166.531 317.087 163.568 313.937 160.613 310.8 159.809 310.707 159.809 310.707 159.809 310.707 161.737 323.88 158.813 328.029 158.423 328.839 158.16 329.377 156.282 326.497 154.395 323.617 153.016 320.081 151.446 318.473 149.863 316.865 148.253 316.506 146.908 318.473 145.561 320.433 142.957 323.735 142.114 324.845 141.849 325.195 140.585 328.217 141.579 328.986 143.459 330.488 145.147 331.329 146.255 331.646 147.369 331.945 151.28 333.375 151.519 339.467 151.75 345.574 151.447 352.946 147.832 356.713 147.218 357.406 146.796 356.82 146.414 356.176 146.032 355.523 144.685 353.607 144.144 352.481 143.61 351.374 141.849 348.993 141.118 348.355 140.378 347.686 137.805 345.656 135.623 346.309 136.005 347.648 135.662 349.912 134.548 351.141 133.242 352.604 128.136 356.86 128.136 356.86 128.136 356.86 127.682 357.594 126.026 357.097 124.369 356.59 122.298 354.26 121.494 353.714 120.691 353.173 120.077 352.604 119.312 352.718 118.539 352.83 117.926 353.031 117.814 355.026 117.696 357.016 117.616 359.863 117.616 361.851 117.616 363.85 117.385 365.765 116.318 363.663 115.737 362.473 112.096 356.86 109.827 355.361 107.558 353.866 103.568 352.675 100.956 352.565 98.344 352.448 95.124 352.752 95.124 352.752 95.124 352.752 94.161 353.11 94.886 355.945 95.699 359.095 96.662 362.276 96.09 364.316 95.891 364.916 93.748 364.275 93.748 364.275 93.748 364.275 91.167 361.397 88.483 357.632 85.449 353.444 82.256 351.794 78.576 351.602 74.889 351.42 70.667 354.407 69.554 356.052 69.211 356.128 68.558 356.672 69.052 354.822 69.554 352.977 70.247 348.606 68.941 346.962 67.635 345.305 63.987 344.527 64.138 340.32 64.288 336.098 64.599 336.901 64.56 333.872 64.529 330.994 62.068 330.218 60.379 330.138 58.691 330.07 53.626 329.99 51.084 330.755 50.136 331.137 47.867 331.759 52.32 328.154 56.772 324.543 63.564 324.606 63.564 324.606 63.564 324.606 63.485 319.168 50.743 312.366 50.208 312.023 49.555 311.338 51.897 311.06 54.247 310.801 57.154 310.914 58.802 311.06 60.458 311.213 64.177 310.677 65.865 310.522 67.562 310.374 68.176 309.983 69.554 309.829 71.402 309.642 73.583 309.414 75.35 309.478 77.349 309.609 83.33 312.023 85.187 314.133 86.834 315.977 87.87 318.349 87.87 320.698 87.87 321.809 88.173 321.889 89.248 321.809 90.324 321.727 98.686 320.815 103.256 322.542 107.829 324.27 114.36 328.715 119.655 328.569 124.871 328.372 130.94 325.567 135.663 317.087 140.379 308.606 139.692 300.007 139.692 300.007 139.692 300.007 130.247 309.827 120.197 311.941 123.373 308.335 129.984 302.115 131.019 296.707 126.758 298.592 122.226 301.08 111.97 301.15 114.009 299.852 122.961 298.499 127.611 288.372 123.23 289.531 108.823 291.363 106.721 291.363 104.603 291.363 104.874 291.601 107.135 289.946 109.405 288.297 117.886 279.775 120.962 274.359 121.423 273.547 122.036 271.213 122.036 271.213 122.036 271.213 122.961 267.868 124.538 263.488 125.263 262.193 126.178 261.114 126.178 261.114 126.178 261.114 128.336 259.191 125.071 258.507 121.797 257.815 121.615 257.774 118.724 257.658 115.856 257.548 110.791 259.12 110.791 259.12 110.791 259.12 109.748 254.902 116.852 250.099 123.957 245.293 141.883 243.108 141.883 243.108L159.811 241.877 172.395 241.463C172.395 241.463 171.797 239.723 169.71 239.723 167.641 239.723 141.453 240.771 134.134 225.145 131.514 227.248 128.751 230.984 124.991 233.272 125.03 231.129 124.761 221.49 122.848 219.068 121.191 221.117 115.274 231.357 105.136 235.973 104.874 231.785 105.446 224.906 104.754 220.578 102.572 225.838 99.298 233.271 88.483 236.927 87.52 236.156 87.296 236.617 87.838 235.16 88.364 233.698 90.896 228.251 90.242 222.72 90.131 221.653 88.674 221.653 86.484 225.452 84.062 229.629 75.589 236.515 69.05 237.995 71.591 234.619 74.434 227.598 73.901 223.413 71.049 227.331 65.634 233.698 56.46 236.545 47.285 239.38 49.818 228.676 49.818 228.676 49.818 228.676 48.663 227.598 47.826 228.829 46.981 230.054 45.413 235.32 37.958 237.892 30.51 240.46 28.361 239.121 28.361 239.121 28.361 239.121 36.501 230.942 36.962 228.398 37.263 226.789 36.848 226.063 36.848 226.063M194.707 59.216C194.707 59.216 193.281 57.754 193.178 56.18 193.018 53.914 193.362 52.342 193.791 51.801 194.204 51.272 195.63 51.311 197.358 51.148 199.19 51.426 200.313 53.262 200.313 53.262 200.313 53.262 201.197 54.724 202.154 56.719 203.235 58.834 203.235 59.217 203.235 59.217 203.235 59.217 202.576 60.18 201.499 60.833 200.187 61.557 196.81 61.823 194.707 59.216"/>
        <path fill="gold" d="M180.268,67.275 C180.268,67.275 178.97,69.894 178.58,77.338 C178.435,80.79 178.971,83.592 178.971,83.592 C178.971,83.592 179.513,86.845 179.345,91.151 C179.201,95.46 177.744,98.06 176.51,99.45 C175.282,100.835 173.675,101.56 172.822,100.597 C171.557,99.18 170.521,97.602 171.516,96.216 C172.48,94.955 173.778,93.537 173.818,91.311 C173.818,88.077 173.818,85.054 173.516,84.131 C173.212,83.211 172.065,82.828 171.755,81.904 C171.444,80.977 171.133,78.758 171.133,76.721 C171.133,74.689 171.516,72.721 171.516,72.721 C171.516,72.721 171.906,70.269 174.057,68.199 C176.239,66.123 176.741,66.24 176.741,66.24 L180.126,64.396 C180.124,64.396 182.266,64.356 180.268,67.275 L180.268,67.275 Z M159.648,61.019 C159.648,61.019 156.741,60.823 154.75,58.909 C151.868,56.062 151.405,55.608 152.25,53.844 C153.746,50.884 155.014,50.116 155.014,50.116 C155.014,50.116 155.977,49.849 158.192,49.881 C160.692,49.96 161.887,49.881 161.887,49.881 C161.887,49.881 163.718,50.613 165.342,52.231 C166.951,53.844 167.414,54.567 169.564,55.337 C171.403,56.021 172.519,56.3 173.858,56.3 C177.202,56.755 177.823,56.225 177.744,58.287 C177.656,60.481 176.891,61.206 172.017,61.245 L159.648,61.019 L159.648,61.019 Z M222.23,167.396 C222.23,167.396 217.627,163.107 216.009,160.646 C214.402,158.181 212.1,149.202 212.1,143.675 C212.1,138.142 213.716,129.164 214.02,125.978 C214.315,122.789 215.095,111.499 212.713,101.593 C210.34,91.693 205.259,84.175 204.724,82.939 C204.192,81.71 203.189,79.367 203.929,76.721 C204.653,74.067 203.8,72.108 203.005,71.197 C202.199,70.27 201.085,68.163 200.424,65.969 C199.731,63.787 198.504,63.899 194.403,64.052 C191.679,64.094 190.023,65.133 188.989,65.276 C187.921,65.43 187.611,64.892 187.148,64.094 C186.526,62.978 187.03,62.21 188.566,61.063 C190.796,59.445 188.678,58.171 188.678,58.171 C188.678,58.171 181.199,52.953 180.164,52.03 C179.12,51.111 175.854,46.699 174.628,44.97 C173.401,43.239 172.238,42.704 171.131,42.318 C170.144,42.02 159.274,41.478 157.043,42.02 C154.82,42.553 150.91,46.317 150.91,46.317 C150.91,46.317 146.793,49.805 144.029,51.226 C141.458,52.49 133.389,55.833 130.826,56.838 C128.253,57.829 127.018,60.027 127.018,60.027 C127.018,60.027 126.834,62.053 125.912,63.515 C124.828,65.315 126.412,66.353 127.32,66.465 C128.253,66.582 130.633,67.202 131.669,68.424 C132.704,69.655 132.243,74.147 132.243,74.147 C131.741,76.751 138.15,78.261 139.568,78.066 C140.986,77.874 143.263,75.421 143.263,75.421 C143.263,75.421 147.788,70.503 149.555,69.117 C151.325,67.741 154.319,68.424 155.355,68.923 C156.39,69.429 158.157,70.838 160.61,73.645 C163.079,76.456 159.734,81.057 159.734,81.057 C159.734,81.057 156.039,86.845 153.594,88.427 C151.132,90.004 146.944,89.808 145.709,89.123 C144.49,88.427 140.262,86.929 138.39,86.7 C135.89,86.205 135.809,86.237 133.007,92.19 C133.007,93.039 133.046,94.074 133.739,95.648 C134.551,97.523 134.814,99.139 134.584,99.756 C134.352,100.37 133.117,100.37 132.011,100.183 C131.174,100.027 130.561,100.37 130.443,103.52 C130.291,108.043 134.313,107.742 134.313,107.742 C134.313,107.742 139.266,107.661 145.144,107.701 C147.875,107.742 146.523,109.007 149.293,108.968 C152.2,108.968 154.159,109.389 157.265,108.434 C161.797,107.047 166.95,102.822 166.95,102.822 C166.95,102.822 167.642,105.435 167.284,106.511 C165.03,108.624 165.716,113.882 164.841,114.916 C161.798,115.187 162.961,118.573 162.379,119.142 C160.961,120.222 153.785,124.402 150.089,127.202 C146.403,130.006 143.185,134.58 141.298,138.953 C140.263,141.294 140.613,144.751 141.338,146.666 C144.714,138.415 149.979,133.96 155.888,130.542 C162.762,126.517 164.808,122.292 165.678,120.715 C166.56,119.142 167.826,118.611 167.826,118.611 C167.826,118.611 167.642,122.292 165.875,127.738 C162.649,137.684 153.427,141.798 153.427,141.798 C153.427,141.798 148.178,144.594 144.986,149.854 C141.992,154.804 143.418,161.061 143.418,161.061 C143.418,161.061 145.026,158.997 146.794,156.346 C148.562,153.698 152.744,154.04 152.744,154.04 C152.744,154.04 152.01,154.609 152.01,167.396 C152.512,182.141 157.475,182.679 157.475,182.679 C157.475,182.679 156.814,171.115 159.426,154.609 C162.03,138.111 166.602,135.463 170.791,131.578 C174.979,127.705 176.237,120.562 176.397,114.347 C176.469,111.925 176.126,110.082 177.123,109.006 C178.116,108.012 179.041,107.895 179.933,108.967 C180.81,110.041 182.649,112.34 183.271,112.268 C183.883,112.193 184.578,111.582 185.373,105.63 C186.958,93.887 185.039,87.01 183.956,84.016 C182.881,81.016 184.153,79.289 184.153,79.289 C184.153,79.289 186.233,77.374 189.029,76.689 C191.825,75.996 193.211,76.752 194.316,79.289 C195.552,82.052 198.004,79.485 199.931,82.786 C201.508,90.316 204.695,92.467 205.913,93.494 C207.138,94.529 206.271,95.805 206.271,95.805 C206.271,95.805 206.413,95.61 204.342,98.412 C202.279,101.211 201.652,98.799 201.882,96.684 C201.85,95.15 201.196,93.804 199.388,92.387 C197.541,90.97 197.35,93.073 197.014,93.693 C197.014,94.689 198.345,95.805 199.78,104.054 C201.197,112.309 199.93,122.447 198.895,125.406 C197.851,128.354 197.127,129.699 193.933,129.365 C192.444,128.703 190.987,128.09 189.752,128.784 C188.524,129.468 187.299,128.971 180.474,139.14 C173.624,149.319 171.602,162.065 171.602,162.065 C171.602,162.065 169.061,158.035 169.755,151.544 C170.901,140.869 179.773,133.578 179.773,133.578 C179.773,133.578 184.648,130.153 184.687,127.357 C184.727,124.558 186.607,122.293 188.175,121.754 C189.752,121.216 192.555,120.875 192.555,120.875 C192.555,120.875 194.403,119.453 194.666,110.542 C195.016,97.413 191.098,87.788 190.827,91.042 C191.72,97.524 191.137,104.099 190.827,108.779 C190.556,112.737 181.158,121.524 179.081,124.054 C177.001,126.589 162.713,143.865 162.713,160.028 C162.713,176.198 171.857,181.459 175.01,184.065 C175.704,179.842 174.628,173.863 174.54,171.397 C179.16,175.881 180.267,180.309 182.617,184.415 C184.958,188.516 185.682,186.144 186.606,185.024 C187.531,183.914 186.836,182.559 186.836,182.559 L183.539,175.196 C183.539,175.196 179.651,165.03 180.202,159 C180.72,152.972 180.927,149.818 184.15,143.104 C186.605,138.075 190.588,133.001 191.637,132.814 C192.242,133.733 191.327,136.303 191.327,136.303 C191.327,136.303 183.649,156.775 186.102,168.744 C188.563,180.726 195.548,182.376 198.501,183.598 C201.464,184.835 200.652,183.069 200.349,182.454 C195.548,177.31 195.013,169.975 195.317,164.137 C195.619,158.307 196.743,154.386 198.088,150.2 C199.162,171.545 202.151,173.779 206.761,176.968 C211.284,180.073 210.249,176.737 210.249,176.737 C210.249,176.737 209.953,174.192 209.557,171.079 C209.213,168.103 209.182,165.555 209.786,163.03 C213.402,168.438 219.464,168.176 221.112,167.928 C222.621,167.751 222.23,167.396 222.23,167.396 L222.23,167.396 Z"/>
        <path fill="gold" d="M230.951 70.23C230.147 70.883 228.992 70.504 228.3 69.966 227.613 69.43 225.727 68.924 224.692 70.23 223.657 71.531 220.894 74.762 220.894 74.762 220.894 74.762 220.073 76.099 218.472 74.223 218.472 74.223 217.015 73.57 218.735 71.575 220.471 69.576 223.076 67.202 223.076 67.202 223.076 67.202 224.413 65.856 226.572 65.856 228.833 65.856 229.758 66.011 229.758 66.011 229.758 66.011 231.071 67.274 231.343 67.958 231.598 68.653 231.764 69.577 230.951 70.23M212.244 52.301C212.244 52.301 210.873 51.226 209.88 50.23 208.874 49.228 209.337 46.619 209.337 46.619 209.337 45.157 209.957 45.157 211.105 45.157 212.245 45.157 211.87 46.619 211.87 46.619 211.87 46.619 211.56 47.467 212.029 48.917 212.483 50.386 214.554 49.928 214.554 49.928 214.554 49.928 216.13 48.845 217.238 47.617 217.931 46.846 217.78 45.702 217.629 45.236 217.47 44.774 217.548 43.397 217.548 42.931 217.406 41.243 218.473 41.397 219.556 41.397 220.623 41.397 220.074 42.703 220.242 45.236 220.384 47.777 219.851 48.769 219.851 48.769 219.851 48.769 217.781 50.385 216.243 51.763 214.713 53.15 212.244 52.301 212.244 52.301M210.563 56.986C209.99 57.531 209.416 57.212 209.416 57.212 209.416 57.212 207.649 55.297 206.413 53.835 205.194 52.374 205.657 50.995 205.339 50.077 205.028 49.157 203.882 47.468 202.121 46.926 200.352 46.388 197.74 45.859 197.74 45.859L193.822 43.709C193.822 43.709 192.675 42.933 193.368 42.093 194.062 41.244 194.603 41.479 194.603 41.479 194.603 41.479 196.586 42.629 197.821 43.469 199.046 44.318 200.505 44.474 202.041 44.775 203.571 45.087 204.574 45.313 206.262 47.002 207.959 48.699 207.65 51.383 208.032 52.231 208.414 53.071 210.485 55.377 210.485 55.377 210.485 55.377 211.414 56.145 210.563 56.986M200.704 34.678C202.193 32.647 205.45 32.837 205.45 32.837 205.45 32.837 209.096 32.989 210.262 33.105 211.829 33.261 212.986 34.224 212.753 36.677 212.674 37.556 213.024 37.983 211.719 37.983 210.412 37.983 210.794 37.104 210.515 36.295 210.262 35.486 207.879 35.371 207.879 35.371 207.879 35.371 205.45 35.22 203.732 35.486 202.002 35.757 201.923 36.443 202.042 38.676 202.194 41.48 205.619 40.134 205.619 40.134 205.619 40.134 207.076 40.134 206.916 41.742 206.838 42.786 205.34 42.786 203.507 42.786 201.653 42.786 201.884 41.977 200.585 41.206 199.27 40.444 199.51 38.787 199.51 38.787 199.51 38.787 199.398 36.405 200.704 34.678M185.468 26.996C184.378 28.187 182.395 30.309 182.395 30.309L179.512 32.722C179.512 32.722 177.887 33.375 177.361 31.913 177.361 31.913 176.287 30.606 176.819 30.194 177.927 29.345 181.454 26.887 181.454 26.887 181.454 26.887 182.69 25.547 182.267 24.355 181.854 23.173 180.811 22.093 180.811 22.093 180.811 22.093 180.428 20.78 181.352 20.254 182.267 19.712 183.311 19.321 183.838 20.513 184.379 21.704 185.574 23.547 185.574 23.547 185.574 23.547 186.526 25.813 185.468 26.996M245.805 63.093C245.805 63.093 245.192 60.326 243.966 58.176 242.739 56.021 242.356 56.333 240.509 55.907 238.67 55.492 232.991 57.368 232.991 57.368 232.991 57.368 225.416 60.824 223.457 62.169 221.514 63.516 219.785 62.791 219.785 62.791 219.785 62.791 217.174 60.597 215.82 59.366 214.896 57.097 215.405 54.572 217.628 53.266 219.157 52.342 222.231 50.502 224.078 49.156 225.925 47.81 226.229 47.435 226.229 46.388 226.229 45.352 225.001 44.358 225.001 44.358 225.001 44.358 221.034 40.868 220.381 39.638 220.048 38.945 220.158 38.022 220.381 36.986 220.893 34.72 223.689 32.689 225.001 31.033 226.307 29.377 224.803 27.883 223.385 26.66 221.968 25.43 220.009 27.771 218.239 29.188 216.472 30.605 215.404 30.34 212.936 30.34 210.483 30.34 210.179 29.5 209.559 28.886 208.954 28.269 207.918 27.038 206.26 26.846 204.612 26.659 203.61 28.184 203.61 28.184 203.61 28.184 200.233 32.377 199.818 32.987 199.397 33.599 196.975 36.363 195.121 37.171 193.288 37.98 190.525 35.248 189.911 34.523 189.298 33.794 188.063 31.227 189.49 27.499 192.014 20.821 195.326 16.712 196.745 14.559 198.163 12.411 196.665 11.182 196.665 11.182 196.665 11.182 194.101 7.307 192.364 5.462 190.636 3.623 190.294 4.738 190.294 4.738 190.294 4.738 189.792 5.235 188.064 7.08 186.336 8.916 187.532 10.075 188.064 11.182 188.605 12.299 188.446 13.336 188.064 14.216 187.451 15.709 183.309 17.063 180.466 18.09 177.622 19.134 175.903 21.392 174.055 24.316 172.437 26.808 173.593 29.842 173.593 29.842L175.973 34.41C176.667 36.023 179.47 35.25 183.349 35.33 187.101 35.414 186.295 36.676 187.713 37.91 189.139 39.14 188.254 40.248 187.45 40.248 186.645 40.248 186.525 40.868 185.371 39.141 184.233 37.41 183.769 37.64 181.493 37.711 179.27 37.786 178.609 37.786 178.609 37.786 178.609 37.786 177.885 41.439 179.014 41.936 180.465 44.815 182.225 43.935 183.643 44.051 185.06 44.162 184.566 44.545 185.06 47.229 185.572 49.929 190.714 48.542 195.621 48.542 200.543 48.542 200.543 49.764 201.651 50.924 202.782 52.074 203.505 55.523 205.147 58.482 206.793 61.445 207.798 62.169 209.033 62.285 210.261 62.4 210.371 61.556 212.936 63.818 215.507 66.084 215.586 65.969 215.586 65.969 215.586 65.969 216.399 67.275 215.586 67.275 214.789 67.275 214.789 67.817 214.058 67.39 213.332 66.972 212.027 65.662 211.412 64.822 210.792 63.974 210.482 63.516 208.723 63.405 206.953 63.282 207.535 63.322 206.793 63.939 206.07 64.552 206.07 64.015 205.758 66.777 205.448 69.545 205.147 69.966 206.683 72.611 208.219 75.259 211.412 76.721 213.438 76.183 215.476 75.645 216.941 76.49 216.941 76.49 216.941 76.49 217.856 78.636 221.122 80.177 224.388 81.712 225.105 81.017 227.374 78.947 229.653 76.876 232.367 72.723 234.009 69.546 235.666 66.356 237.291 65.549 238.516 64.433 239.744 63.323 239.855 62.98 241.201 64.936 242.547 66.895 243.424 66.895 243.424 66.895 243.424 66.895 243.653 66.778 244.96 65.549 246.26 64.317 245.805 63.093 245.805 63.093M109.012 73.378C109.012 73.378 109.831 70.389 110.899 70.038 111.974 69.695 112.006 71.154 112.166 71.877 112.316 72.61 113.933 79.252 118.497 81.485 123.22 83.823 127.179 84.202 130.252 84.592 131.128 84.978 131.278 86.621 129.672 87.004 128.055 87.398 122.145 88.342 118.729 88.342 115.312 88.344 106.448 83.899 109.012 73.378"/>
      </g>
    </g>
    <g transform="translate(97.549 .044)">
      <path fill="#000" d="M253.842,105.417 C249.549,104.498 244.89,103.956 244.014,103.697 C241.283,102.685 239.331,99.201 236.066,96.358 C232.801,93.519 227.688,89.676 221.245,89.565 C219.437,89.676 219.333,88.982 219.333,88.982 C219.333,88.982 221.827,87.33 222.281,84.272 C222.399,83.806 225.204,83.993 225.204,83.993 C225.204,83.993 235.334,83.26 245.05,85.642 C255.611,88.982 263.902,97.664 264.817,111.486 C262.211,109.563 258.143,106.338 253.842,105.417 M178.867,79.925 C173.363,74.438 167.224,73.06 164.196,72.665 C163.998,63.231 160.55,51.978 160.55,51.978 C189.882,54.626 196.262,81.652 197.216,86.945 C190.574,86.758 184.354,85.416 178.867,79.925 M126.806,73.123 C122.815,73.123 118.435,73.9 113.712,78.049 C108.988,82.19 104.88,87.153 91.404,86.945 C91.404,86.945 94.016,70.097 105.954,61.575 C117.9,53.054 129.99,52.476 129.99,52.476 C129.99,52.476 127.378,59.317 126.806,73.123 M69.406,89.637 C69.104,90.633 65.569,90.561 65.569,90.561 C65.569,90.561 62.876,90.486 58.895,93.396 C54.897,96.319 50.174,102.313 47.793,103.463 C45.413,104.609 40.929,104.849 35.313,106.991 C29.714,109.145 26.099,112.749 26.099,112.749 C26.099,112.749 25.214,101.464 33.091,94.017 C40.387,87.029 43.954,85.341 50.939,84.337 C57.932,83.341 66.262,84.035 66.262,84.035 C66.262,84.035 67.369,85.372 68.071,86.989 C68.753,88.602 69.71,88.633 69.406,89.637 M283.946,128.263 C283.946,128.025 283.906,127.782 283.834,127.555 C288.135,126.376 291.288,122.466 291.288,117.799 C291.288,113.793 288.965,110.344 285.595,108.704 C288.032,106.864 289.601,103.94 289.601,100.656 C289.601,95.388 285.595,91.075 280.458,90.585 C281.239,89.151 281.677,87.511 281.677,85.767 C281.677,80.168 277.154,75.644 271.553,75.644 C270.749,75.644 269.961,75.748 269.212,75.931 C269.65,74.789 269.913,73.55 269.913,72.252 C269.913,66.657 265.381,62.128 259.791,62.128 C257.625,62.128 255.625,62.805 253.993,63.956 C252.584,60.074 248.864,57.294 244.492,57.294 C241.251,57.294 238.375,58.827 236.52,61.192 C234.95,57.652 231.407,55.184 227.272,55.184 C223.64,55.184 220.471,57.1 218.687,59.97 C217.07,56.538 213.583,54.137 209.529,54.137 C208.494,54.137 207.49,54.3 206.55,54.587 C206.661,53.983 206.734,53.364 206.734,52.728 C206.734,47.133 202.194,42.609 196.61,42.609 C195.009,42.609 193.506,42.991 192.159,43.652 C192.118,38.097 187.603,33.609 182.045,33.609 C179.655,33.609 177.45,34.445 175.72,35.831 C174.98,30.969 170.8,27.25 165.735,27.25 C162.891,27.25 160.328,28.417 158.496,30.3 C158.161,30.09 157.962,29.95 157.938,29.902 C154.872,21.843 149.416,21.528 149.416,21.528 L149.416,18.23 L156.561,18.23 L156.561,8.02 L149.727,8.02 L149.727,0.956 L139.82,0.956 L139.82,8.248 L133.217,8.176 L133.297,18.159 L140.593,18.159 C140.593,18.159 140.736,18.533 140.736,21.376 C133.599,22.145 132.134,31.287 132.134,31.287 C130.301,29.388 127.722,28.213 124.887,28.213 C120.03,28.213 115.983,31.63 114.995,36.189 C113.243,34.735 111.005,33.872 108.56,33.872 C103.048,33.872 98.557,38.291 98.453,43.788 C97.003,42.983 95.331,42.525 93.556,42.525 C87.965,42.525 83.433,47.053 83.433,52.635 C83.433,53.404 83.52,54.136 83.679,54.857 C82.97,54.69 82.229,54.602 81.473,54.602 C77.419,54.602 73.938,56.991 72.322,60.425 C70.49,57.84 67.48,56.144 64.071,56.144 C59.827,56.144 56.21,58.76 54.696,62.455 C52.96,59.39 49.664,57.31 45.888,57.31 C41.063,57.31 37.025,60.695 36.013,65.219 C34.22,63.567 31.824,62.539 29.17,62.539 C23.587,62.539 19.056,67.075 19.056,72.658 C19.056,73.776 19.248,74.851 19.582,75.863 C19.001,75.756 18.403,75.691 17.798,75.691 C12.207,75.691 7.676,80.228 7.676,85.815 C7.676,87.79 8.257,89.629 9.229,91.178 C4.107,91.684 0.102,96 0.102,101.253 C0.102,105.06 2.211,108.369 5.317,110.101 C2.211,111.83 0.102,115.138 0.102,118.95 C0.102,123.644 3.328,127.594 7.676,128.726 C6.641,129.761 2.435,134.006 1.535,135.292 C0.491,136.746 -0.815,140.7 1.646,145.235 C3.717,149.066 8.329,146.995 8.329,146.995 C8.329,146.995 12.892,144.654 17.815,138.629 C17.902,140.64 18.101,142.475 18.363,144.164 C16.253,146.247 14.93,149.138 14.93,152.355 C14.93,158.707 20.084,163.86 26.446,163.86 C27.522,163.86 28.565,163.704 29.561,163.426 C38.655,170.924 50.482,173.253 50.482,173.253 C50.482,173.253 45.291,174.217 42.375,176.288 C39.66,178.208 38.967,181.206 40.385,184.272 C41.802,187.35 45.76,188.729 47.982,186.995 C49.218,188.651 49.249,191.759 48.827,195.641 C54.975,198.906 54.354,204.425 54.354,204.425 C54.354,204.425 49.368,206.316 51.517,211.609 C53.517,216.526 56.623,214.643 58.893,214.065 C103.533,197.859 144.651,199.556 144.651,199.556 C182.808,197.712 226.395,211.805 229.422,213.219 C232.345,214.604 235.57,214.685 235.57,214.685 C235.57,214.685 237.441,214.724 239.678,210.806 C241.51,206.278 238.628,204.466 234.716,202.817 C236.334,199.134 238.245,197.526 240.093,196.483 C241.941,195.447 242.554,195.682 242.323,193.182 C241.86,188.653 241.94,186.007 241.94,186.007 C241.94,186.007 241.94,185.619 243.547,186.428 C246.2,187.659 248.693,186.007 250.31,183.353 C251.918,180.702 250.31,177.214 249.076,176.405 C247.857,175.598 243.701,173.566 240.665,172.53 C251.601,170.678 254.715,168.372 262.966,163.208 C263.324,163.252 263.683,163.268 264.041,163.268 C270.404,163.268 275.564,158.111 275.564,151.76 C275.564,148.71 274.369,145.938 272.434,143.884 C272.545,143.239 272.665,142.741 272.801,142.47 C273.151,141.705 273.492,138.4 273.492,138.4 C273.492,138.4 278.877,143.474 281.092,145.692 C283.321,147.926 288.242,146.624 289.843,144.088 C290.848,142.506 290.767,138.206 289.614,135.98 C288.471,133.75 285.324,129.41 283.946,128.263"/>
      <path fill="gold" d="M263.256 138.126C263.256 138.126 263.327 132.404 264.857 129.262 266.401 126.112 267.62 124.105 269.817 123.962 271.993 123.807 276.269 125.152 279.757 128.175 283.253 131.217 287.283 136.665 287.283 136.665 287.283 136.665 289.618 140.041 288.008 141.886 286.399 143.729 285.093 145.657 282.21 143.386 279.335 141.121 274.685 135.82 274.685 135.82 274.685 135.82 272.956 133.061 272.161 134.442 271.348 135.82 270.854 139.89 270.854 139.89 270.854 139.89 271.237 141.347 268.24 140.539 265.245 139.744 263.016 139.971 263.256 138.126M142.431 10.477L142.431 3.644 147.249 3.589 147.32 10.43 153.947 10.43 153.986 15.586 147.384 15.697 147.384 31.243C147.384 31.243 151.135 34.317 152.751 35.321 154.367 36.317 155.292 36.257 155.077 37.308 154.855 38.319 153.516 40.155 152.249 39.921 150.991 39.689 148.108 36.699 144.651 36.81 140.702 36.926 138.089 40.076 138.089 40.076 138.089 40.076 137.237 40.654 136.471 39.921 135.715 39.192 134.712 37.806 134.712 36.81 134.553 35.206 139.984 34.855 142.469 31.554 142.469 29.515 142.54 15.968 142.54 15.968L135.977 15.968 135.977 10.477 142.431 10.477 142.431 10.477zM37.885 143.311C37.885 143.311 33.855 143.694 32.86 140.237 32.366 138.621 31.242 137.287 32.707 134.714 34.165 132.138 36.125 130.139 38.538 129.686 40.959 129.22 41.963 128.682 43.571 129.033 45.18 129.383 49.592 131.984 49.259 136.364 49.099 138.94 47.299 139.936 47.299 139.936 47.299 139.936 45.371 139.896 45.53 138.94 45.683 137.973 45.483 135.058 44.377 135.205 43.261 135.368 43.261 137.32 43.261 138.622 43.261 139.935 43.261 142.308 37.885 143.311M39.039 152.259C39.039 152.259 37.886 147.496 38.698 146.23 39.502 144.967 40.657 144.151 42.114 143.809 43.571 143.467 44.073 143.045 44.877 144.005 45.674 144.968 46.327 146.119 46.988 145.617 47.641 145.116 47.178 143.499 46.988 142.846 46.796 142.2 48.142 140.58 49.249 140.58 50.365 140.58 51.87 143.045 52.171 144.152 52.475 145.267 53.431 149.648 51.177 152.105 48.906 154.557 43.261 156.48 39.039 152.259M65.027 133.48C65.027 133.48 63.187 134.483 62.502 134.639 61.809 134.786 60.964 134.249 60.121 131.107 59.276 128.18 59.809 125.19 60.576 124.345 61.347 123.501 61.961 122.195 64.573 122.195 67.177 122.195 69.017 122.195 69.406 122.732 69.788 123.269 74.862 129.111 74.862 129.111 74.862 129.111 75.015 130.715 74.862 131.719 74.711 132.715 74.783 133.479 73.788 133.479 72.785 133.479 68.563 133.336 68.021 133.336 67.488 133.336 66.875 130.413 66.412 129.72 65.951 129.027 65.879 128.179 64.876 128.724 63.88 129.266 64.804 132.256 65.105 132.794 65.409 133.337 65.337 133.337 65.027 133.48M65.105 135.785C65.105 135.785 63.648 136.096 63.106 136.944 62.573 137.785 62.342 139.62 62.27 140.393 62.191 141.162 61.195 144.311 64.412 146.538 67.638 148.764 67.789 147.924 69.645 147.995 71.478 148.079 74.933 147.223 76.471 146.072 78.008 144.921 79.092 142.85 79.092 142.85 79.092 142.85 75.515 138.127 75.165 136.634 74.934 135.63 74.783 135.715 74.169 135.63 73.556 135.559 69.646 135.63 69.646 135.63 69.646 135.63 69.017 136.709 69.104 137.785 69.176 138.864 68.794 140.242 68.029 140.242 67.265 140.242 66.794 138.172 66.794 137.403 66.794 136.634 67.106 135.403 65.105 135.785M71.096 121.199C71.096 121.199 70.402 118.818 71.717 115.44 72.944 112.327 75.015 111.602 76.161 111.144 77.323 110.67 78.773 110.67 79.927 110.989 81.082 111.291 82.069 112.366 82.069 112.366 82.069 112.366 82.237 115.13 82.3 115.672 82.381 116.209 81.232 116.364 80.54 116.281 79.848 116.209 79.194 116.859 79.544 117.742 79.927 118.738 82.381 118.591 82.381 118.591 82.381 118.591 82.46 120.195 82.46 121.51 82.46 122.816 82.381 123.963 82.381 123.963 82.381 123.963 78.852 125.572 77.467 127.495 76.925 128.033 75.397 126.886 74.934 126.345 74.473 125.806 71.096 123.035 71.096 121.199M84.38 115.744L84.611 112.678C84.611 112.678 85.153 111.602 86.61 110.835 88.067 110.062 89.286 109.684 89.906 109.978 90.52 110.297 95.593 113.291 96.206 115.589 96.357 116.592 96.056 117.051 95.593 117.899 95.132 118.74 90.902 124.112 90.902 124.112 90.902 124.112 90.137 125.573 89.524 125.271 88.912 124.96 86.147 123.729 85.153 123.729 84.539 122.817 84.539 123.192 84.539 121.814 84.539 120.436 84.611 118.819 84.611 118.819 84.611 118.819 85.343 118.054 86.147 117.899 87.525 117.588 87.835 117.441 87.835 116.669 87.835 115.589 87.684 115.589 86.912 115.745 86.147 115.899 84.762 116.667 84.38 115.744"/>
      <path fill="gold" d="M32.054 161.314L35.463 158.702C35.463 158.702 44.877 165.456 53.98 165.456 63.067 165.456 73.627 157.356 78.12 150.833 79.927 148.225 80.732 146.84 80.732 146.84 80.732 146.84 81.162 144.622 83.074 144.622 85.686 144.622 86.411 144.506 87.796 144.506 89.174 144.506 90.83 147.262 90.83 147.262 90.83 147.262 99.782 157.058 113.441 156.364 127.106 155.672 134.985 145.199 134.985 145.199L139.285 140.779C139.285 140.779 140.081 139.206 141.626 139.362 143.147 139.509 144.462 139.971 146.421 139.827 148.38 139.66 150.46 139.246 151.407 139.66 152.37 140.086 160.661 151.407 166.045 153.331 171.42 155.254 180.516 158.826 190.177 153.868 199.862 148.918 202.633 144.765 202.633 144.765 202.633 144.765 203.698 143.845 205.076 144.227 206.471 144.621 209.497 144.924 209.497 144.924 209.497 144.924 210.453 145.458 210.875 146.576 211.306 147.688 221.134 162.429 232.147 163.967 244.595 165.767 252.997 160.35 252.997 160.35 252.997 160.35 255.028 157.938 256.303 159.012 257.569 160.092 259.6 161.736 259.6 161.736 259.6 161.736 260.867 162.278 258.787 163.384 256.717 164.504 249.653 170.185 236.144 170.185 222.629 170.185 211.567 157.096 208.963 153.485 207.895 152.366 207.999 151.797 205.515 151.944 203.005 152.099 203.285 152.099 201.357 154.022 199.439 155.938 192 160.661 185.079 160.238 174.637 159.78 164.395 159.275 164.395 159.275 164.395 159.275 154.337 152.636 150.459 147.261 149.343 145.767 148.339 145.767 146.3 145.883 143.425 145.998 142.541 145.883 141.316 147.376 139.74 149.344 133.487 156.249 126.724 159.275 122.463 159.813 107.221 160.473 103.23 161.043 100.315 160.39 92.59 156.902 88.871 152.912 88.178 152.099 87.955 151.944 87.104 151.944 86.267 151.944 85.527 151.797 84.729 151.944 83.926 152.099 75.858 162.659 70.372 166.419 67.718 167.227 59.087 170.146 56.322 171.261 53.4 171.141 44.185 171.181 32.867 163.703 31.482 162.43 32.054 161.314 32.054 161.314M92.137 126.65C92.137 126.65 94.055 128.418 94.51 129.872 94.979 131.329 94.892 131.186 95.983 131.102 97.05 131.018 100.658 131.018 100.658 131.018 100.658 131.018 102.267 129.032 102.428 127.801 102.577 126.575 102.045 124.194 103.43 124.194 104.808 124.194 105.118 125.421 105.031 126.723 104.96 128.029 104.035 129.562 105.263 129.717 106.488 129.873 107.102 129.18 107.952 126.029 108.789 122.892 108.487 119.972 105.189 118.129 101.885 116.285 101.271 116.668 99.352 117.05 97.432 117.435 95.202 121.501 94.208 123.038 93.204 124.58 91.675 126.256 92.137 126.65"/>
      <path fill="gold" d="M93.896 139.468C93.896 139.468 95.553 135.056 95.744 133.639 95.896 132.715 96.357 133.097 97.273 133.018 98.205 132.946 101.421 132.56 101.421 132.56 101.421 132.56 102.427 133.408 102.576 134.248 102.722 135.096 103.651 135.625 104.647 135.251 105.651 134.86 105.029 132.714 104.958 132.021 104.888 131.328 105.962 130.644 106.886 131.026 107.792 131.408 108.343 134.402 108.264 136.557 108.177 138.7 107.341 141.383 104.576 142.395 101.813 143.384 97.896 143.009 93.896 139.468M84.459 126.033C86.953 125.958 92.671 126.228 92.981 134.331 93.173 140.623 88.752 142.766 85.153 142.766 81.536 142.766 77.013 140.623 77.013 134.171 77.013 127.729 81.537 126.113 84.459 126.033M145.879 121.119C148.38 121.048 154.099 121.314 154.401 129.414 154.6 135.709 150.18 137.852 146.572 137.852 142.964 137.852 138.432 135.709 138.432 129.266 138.433 122.816 142.964 121.199 145.879 121.119M123.158 127.801C123.158 127.801 121.229 124.962 121.692 121.578 122.153 118.201 123.387 117.133 124.846 116.432 126.303 115.747 129.529 115.902 130.372 116.432 131.217 116.97 133.446 120.884 133.907 121.275 134.37 121.661 136.512 123.732 136.512 123.732 136.512 123.732 137.364 124.194 136.671 125.882 135.978 127.571 135.907 128.029 135.907 128.029 135.907 128.029 135.667 128.419 133.906 127.953 132.131 127.491 130.059 127.26 130.059 127.26 130.059 127.26 128.531 126.953 128.371 125.731 128.22 124.497 127.838 123.191 127.143 122.582 126.459 121.96 124.914 122.27 125.073 123.04 125.225 123.805 126.228 125.883 126.301 126.496 126.379 127.11 125.767 127.572 125.296 127.572 124.847 127.57 123.54 127.801 123.158 127.801M123.851 130.103C123.851 130.103 122.768 133.173 122.999 135.709 123.237 138.242 125.236 141.742 128.835 142.471 134.062 143.578 134.02 142.005 135.669 140.926 137.206 139.93 138.663 138.091 138.663 138.091 138.663 138.091 139.118 137.398 138.352 136.474 137.597 135.555 136.592 132.404 136.282 131.329 135.979 130.263 135.485 130.219 134.212 130.103 132.755 129.952 130.604 129.876 130.604 129.876 130.604 129.876 129.984 130.872 129.839 132.102 129.689 133.337 129.529 134.559 128.453 134.639 127.387 134.714 127.146 133.639 127.459 132.943 127.76 132.258 127.913 130.179 127.76 129.877 127.611 129.562 126.614 129.105 125.618 129.411 124.615 129.721 123.851 130.103 123.851 130.103M138.935 122.35C137.788 123.198 134.594 119.284 134.285 117.587 133.981 115.899 133.488 112.606 134.514 110.566 135.557 108.535 137.167 107.15 138.823 106.764 140.471 106.381 141.969 106.186 143.117 106.684 144.279 107.189 145.489 107.564 145.489 108.91 145.489 110.256 145.385 111.674 145.385 111.674 145.385 111.674 145.003 112.606 144.279 111.984 143.547 111.371 141.818 110.865 141.818 111.487 141.818 112.104 141.818 113.867 142.924 114.054 144.04 114.242 144.653 113.516 144.773 115.057 144.876 116.59 144.462 119.282 144.462 119.282 144.462 119.282 141.769 119.626 138.935 122.35M146.803 119.048L146.924 114.752C146.924 114.752 147.759 113.824 148.578 113.943 149.376 114.058 150.498 113.748 150.498 113.748 150.498 113.748 150.96 111.294 149.797 111.294 148.651 111.294 148.109 110.944 148.03 109.523 147.95 108.106 148.412 106.799 149.876 106.385 151.335 105.951 153.915 105.951 155.636 107.795 157.364 109.64 158.639 111.367 158.709 112.287 158.78 113.211 158.168 113.406 157.363 114.441 156.559 115.477 152.569 120.51 152.569 120.51 152.569 120.51 152.226 121.203 151.916 120.885 151.264 120.275 147.718 119.124 146.803 119.048M154.17 122.656C154.17 122.656 156.249 125.308 156.44 126.228 156.632 127.147 156.328 127.418 157.546 127.339 158.78 127.263 162.58 127.263 162.58 127.263 162.58 127.263 163.385 126.61 163.385 125.802 163.385 124.997 163.161 122.811 164.618 122.118 166.084 121.425 166.457 121.887 166.578 123.961 166.689 126.032 166.234 127.262 167.374 127.147 168.546 127.036 170.065 124.997 170.065 123.771 170.065 122.54 170.234 117.511 167.996 115.783 165.773 114.051 163.616 114.246 162.38 114.246 161.163 114.246 157.745 117.32 156.949 118.547 156.138 119.778 153.644 121.733 154.17 122.656M155.293 135.323C155.293 135.323 156.439 132.56 156.632 130.414 156.711 129.299 157.252 129.601 158.287 129.601 159.322 129.601 163.002 129.486 163.002 129.486 163.002 129.486 163.998 130.295 163.998 131.329 163.998 132.372 164.85 133.098 165.957 132.488 167.071 131.875 166.689 129.409 166.689 129.409 166.689 129.409 167.071 128.45 167.996 128.574 168.919 128.685 169.652 130.792 169.652 132.87 169.652 134.94 167.582 139.508 163.694 139.624 159.824 139.736 156.089 136.785 155.293 135.323M208.533 126.033C211.034 125.958 216.761 126.228 217.055 134.331 217.254 140.623 212.842 142.766 209.226 142.766 205.618 142.766 201.095 140.623 201.095 134.171 201.096 127.729 205.618 126.113 208.533 126.033M199.749 139.468C199.749 139.468 196.803 143.848 192.039 143.343 187.276 142.854 185.422 137.904 185.54 136.857 185.66 135.821 185.771 133.213 186.607 132.445 187.467 131.681 187.882 131.609 188.463 131.876 189.044 132.138 189.155 133.289 189.044 133.867 188.924 134.436 188.725 135.4 189.69 135.512 190.637 135.627 191.218 133.565 191.218 132.912 191.218 132.263 192.301 132.756 193.759 133.019 195.216 133.29 198.554 133.524 198.554 133.524 198.554 133.524 198.674 138.203 199.749 139.468M199.176 131.066L193.258 130.413C193.258 130.413 191.959 130.062 192.039 128.494 192.102 126.912 192.102 124.802 190.767 124.802 189.419 124.802 188.805 126.149 188.934 127.109 189.038 128.065 189.801 130.103 188.344 129.908 186.879 129.721 186.115 127.491 185.931 124.998 185.732 122.501 187.228 118.618 188.846 118.049 190.454 117.471 192.949 117.388 194.42 117.861 195.87 118.315 198.904 122.003 199.358 122.772 199.821 123.536 201.016 124.687 201.016 124.687 201.016 124.687 202.154 126.344 200.903 128.179 199.639 130.023 199.446 130.174 199.176 131.066M203.587 124.998L198.857 118.049C198.857 118.049 197.839 115.823 199.558 113.792 201.287 111.753 202.323 110.985 203.199 110.603 204.082 110.221 204.782 110.252 205.929 110.332 207.083 110.408 208.501 111.452 208.812 112.136 209.115 112.828 209.275 114.983 208.996 115.449 208.733 115.903 207.658 115.824 206.503 115.824 205.357 115.824 205.357 116.712 205.93 117.281 206.503 117.862 208.502 118.618 208.996 118.814 209.507 119.01 209.507 123.27 209.308 124.501 207.959 124.384 204.479 125.185 203.587 124.998M211.648 123.803L211.838 120.088C211.838 120.088 211.996 118.814 213.071 118.814 214.147 118.814 215.295 118.898 215.295 117.356 215.295 115.824 214.801 115.943 213.836 115.824 212.882 115.708 211.494 116.432 211.607 114.673 211.735 112.901 212.148 111.793 213.384 111.483 214.609 111.181 217.143 111.029 218.288 111.483 219.435 111.941 221.355 114.247 222.057 115.513 222.749 116.783 223.122 119.28 223.02 120.928 222.892 122.585 221.356 124.456 220.399 125.5 219.436 126.532 218.56 127.567 218.56 127.567 218.56 127.567 217.254 128.837 216.457 127.69 215.366 126.145 213.836 125.15 212.683 124.572 212.037 124.114 211.648 123.803 211.648 123.803M218.251 129.908L224.278 123.354C224.278 123.354 225.506 122.079 228.299 122.267 231.118 122.466 233.404 124.002 233.724 125.455 234.035 126.917 234.561 129.027 233.812 131.564 233.031 134.101 232.578 133.866 232.578 133.866 232.578 133.866 231.679 134.858 230.348 134.172 229.009 133.48 229.009 132.635 229.009 132.635 229.009 132.635 230.578 131.254 230.65 130.294 230.73 129.338 230.268 128.872 229.696 128.685 229.122 128.49 227.433 129.835 226.97 131.368 226.509 132.91 226.653 133.212 225.131 133.212 223.593 133.212 219.746 133.563 219.746 133.563 219.746 133.563 219.214 133.71 219.134 132.444 219.055 131.182 218.911 130.414 218.251 129.908M216.066 142.583C216.066 142.583 218.368 139.665 219.244 136.662 219.643 135.71 220.138 135.821 220.711 135.821 221.284 135.821 224.469 136.02 224.469 136.02 224.469 136.02 225.402 136.9 225.314 138.052 225.236 139.198 225.236 140.473 226.199 140.545 227.163 140.625 227.927 139.704 227.927 138.052 227.927 136.404 227.616 135.75 228.508 135.822 229.378 135.906 231.114 136.364 231.304 137.057 231.496 137.749 232.914 140.39 231.304 143.962 229.697 147.533 228.159 148.84 224.581 148.457 221.021 148.07 219.938 147.926 216.066 142.583M242.245 137.855C242.245 137.855 241.092 132.865 243.4 130.875 245.702 128.876 247.312 128.183 249.771 128.495 252.223 128.805 256.374 131.329 257.529 133.568 258.675 135.786 258.835 137.399 258.835 137.399 258.835 137.399 258.676 138.94 257.761 139.781 256.836 140.621 255.156 142.082 254.767 142.768 254.385 143.468 253.842 143.85 253.46 143.54 253.077 143.237 249.772 140.932 249.079 140.705 248.393 140.466 247.159 140.394 247.469 139.47 247.774 138.551 248.459 135.711 248.163 135.249 247.853 134.791 247.933 134.405 247.017 134.557 246.084 134.715 245.47 136.241 245.247 137.089 245.009 137.937 244.856 139.399 244.554 139.244 244.245 139.086 242.468 138.322 242.245 137.855M241.481 140.469C241.481 140.469 239.099 144.693 239.171 147.76 239.25 150.834 241.481 153.216 242.945 153.598 244.386 153.988 246.162 153.988 246.928 153.908 247.707 153.829 251.148 153.06 251.92 151.372 252.686 149.684 252.462 149.065 252.462 148.222 252.462 147.386 253.235 145.697 251.92 144.921 250.614 144.153 247.852 143.388 247.398 143.233 246.928 143.078 246.162 143.62 245.851 144.463 245.549 145.303 244.856 145.387 244.163 145.157 243.47 144.921 243.017 143.927 243.398 143.153 243.783 142.392 245.392 140.54 241.481 140.469M47.218 184.737C47.218 184.737 44.599 186.074 43.221 183.622 41.843 181.165 42.304 179.553 43.841 178.401 45.379 177.251 52.213 174.714 52.213 174.714 52.213 174.714 84.729 160.932 144.892 161.047 215.215 161.202 246.546 177.632 246.546 177.632 246.546 177.632 249.771 179.631 248.696 181.778 247.7 183.773 246.282 185.544 243.089 184.003 239.593 182.396 209.584 167.414 144.732 167.805 73.246 168.224 47.218 184.737 47.218 184.737M57.198 212.532C57.198 212.532 54.738 214.105 53.742 211.187 52.857 208.614 53.287 207.802 54.665 206.658 56.05 205.499 62.032 203.51 62.032 203.51 62.032 203.51 91.173 189.189 144.772 189.914 207.441 190.838 236.687 206.192 236.687 206.192 236.687 206.192 238.408 208.262 237.451 210.417 236.759 211.878 234.872 212.571 233.222 211.99 229.271 210.687 199.821 197.524 144.732 197.289 97.432 196.791 57.198 212.532 57.198 212.532M206.924 90.748L207.411 90.366 206.948 90.023C204.369 88.195 202.672 85.209 202.672 81.808 202.672 78.499 204.273 75.579 206.717 73.729 202.888 72.283 200.147 68.6 200.147 64.259 200.147 63.626 200.219 63.005 200.323 62.392 199.391 62.686 198.387 62.842 197.352 62.842 191.786 62.842 187.277 58.355 187.238 52.811 185.891 53.464 184.379 53.847 182.787 53.847 177.722 53.847 173.533 50.12 172.79 45.261 171.056 46.655 168.865 47.484 166.476 47.484 161.785 47.484 157.843 44.297 156.705 39.965 156.203 40.514 153.917 42.959 151.003 45.3 152.779 46.874 154.498 49.02 155.039 49.863 156.808 49.863 172.394 49.832 180.844 56.163 189.279 62.497 199.265 71.745 200.834 92.483 201.024 94.434 201.192 103.92 201.192 103.92 201.192 103.92 200.501 107.066 201.377 107.758 202.259 108.452 204.371 108.288 204.371 108.288L205.557 107.117C203.375 105.254 201.982 102.498 201.982 99.409 201.979 95.713 203.978 92.52 206.924 90.748M272.2 120.582C272.04 120.622 271.881 120.674 271.745 120.737 270.177 121.625 269.293 121.119 268.058 122.35 268.058 118.468 269.665 106.725 263.685 96.9 257.696 87.072 250.863 83.687 243.487 82.31 236.121 80.924 223.833 81.617 223.833 81.617 223.833 81.617 223.18 77.742 222.447 76.17 222.103 75.433 221.976 74.315 221.922 73.338 222.033 75.464 225.721 75.417 228.023 75.417 231.255 75.417 234.138 73.892 235.986 71.519 237.563 75.067 241.108 77.54 245.224 77.54 247.391 77.54 249.398 76.855 251.031 75.705 252.44 79.596 256.152 82.367 260.524 82.367 261.345 82.367 262.125 82.259 262.88 82.08 262.435 83.223 262.181 84.461 262.181 85.76 262.181 91.021 266.194 95.341 271.33 95.831 270.551 97.268 270.105 98.913 270.105 100.661 270.105 104.655 272.437 108.108 275.814 109.744 273.378 111.596 271.793 114.507 271.793 117.8 271.793 118.762 271.944 119.701 272.2 120.582M15.999 110.017C19.033 108.273 21.088 104.999 21.088 101.257 21.088 99.278 20.516 97.442 19.535 95.885 24.657 95.379 28.662 91.063 28.662 85.815 28.662 84.696 28.463 83.617 28.129 82.613 28.71 82.713 29.299 82.78 29.913 82.78 34.746 82.78 38.776 79.395 39.787 74.867 41.587 76.523 43.985 77.551 46.63 77.551 50.865 77.551 54.497 74.934 56.002 71.24 57.738 74.314 61.027 76.385 64.811 76.385 66.141 76.385 67.408 76.106 68.572 75.636L70.466 75.987C68.962 77.699 68.03 79.917 67.966 82.362L60.44 81.964C60.44 81.964 62.017 81.809 60.982 81.809 59.947 81.809 51.298 82.151 48.352 82.844 45.39 83.538 37.44 87.224 33.411 90.753 29.381 94.286 26.738 98.821 25.351 105.304 23.973 111.794 24.658 122.346 24.658 122.346 23.145 121.964 21.631 122.211 20.389 122.609 20.843 121.475 21.09 120.243 21.09 118.945 21.09 115.187 19.028 111.917 15.993 110.173M135.431 40.769C134.338 45.173 130.367 48.442 125.618 48.442 123.173 48.442 120.928 47.586 119.183 46.136 118.196 50.7 114.149 54.108 109.3 54.108 107.522 54.108 105.851 53.655 104.402 52.838 104.29 58.333 99.814 62.761 94.295 62.761 93.537 62.761 92.79 62.674 92.081 62.51 92.241 63.219 92.328 63.96 92.328 64.72 92.328 69.615 88.864 73.692 84.245 74.636 86.641 76.488 88.196 79.383 88.196 82.636 88.196 86.104 86.452 89.162 83.791 90.99 86.801 92.535 88.904 95.561 89.208 99.102L89.382 94.782C89.382 94.782 89.079 74.401 100.294 64.222 111.507 54.052 120.984 51.786 120.984 51.786L136.427 49.672C136.427 49.672 137.994 46.029 139.564 44.607 138.082 43.596 136.736 41.975 135.431 40.769"/>
      <path fill="gold" d="M88.864 101.822C88.283 104.96 86.244 107.596 83.48 108.99 83.48 108.99 82.261 109.154 83.91 109.527 85.558 109.899 86.929 109.348 88.052 108.377 89.174 107.409 88.895 106.306 88.895 106.306L89.207 99.098 88.864 101.822 88.864 101.822zM21.629 151.519C21.629 154.664 24.187 157.221 27.332 157.221 30.486 157.221 33.043 154.664 33.043 151.519 33.043 148.369 30.485 145.816 27.332 145.816 24.187 145.816 21.629 148.369 21.629 151.519M257.775 150.842C257.775 153.987 260.324 156.552 263.47 156.552 266.622 156.552 269.18 153.987 269.18 150.842 269.18 147.692 266.622 145.139 263.47 145.139 260.324 145.139 257.775 147.691 257.775 150.842M135.702 90.751C135.702 86.96 137.979 83.715 141.236 82.269 137.149 80.772 134.227 76.866 134.227 72.251 134.227 67.576 137.239 63.614 141.41 62.161 137.938 60.766 135.479 57.382 135.479 53.399 135.479 52.954 135.517 52.511 135.582 52.081 134.291 52.177 133.359 52.3 133.026 52.479 132.03 52.977 129.76 58.229 129.49 74.44 129.219 90.631 129.656 96.935 135.064 103.956 135.479 104.267 136.361 101.037 138.744 98.851 139.157 98.728 139.539 98.617 139.915 98.509 137.381 96.853 135.702 94.001 135.702 90.751M157.745 51.982C157.745 51.982 156.352 51.95 154.224 51.907 154.305 52.396 154.352 52.894 154.352 53.4 154.352 57.382 151.891 60.771 148.418 62.169 152.592 63.618 155.602 67.585 155.602 72.247 155.602 76.83 152.712 80.729 148.665 82.247 151.939 83.672 154.241 86.946 154.241 90.752 154.241 94.201 152.345 97.204 149.55 98.808 151.509 99.696 153.309 101.165 154.098 103.188 154.639 104.573 156.026 105.151 156.026 105.151 156.026 105.151 161.775 96.012 161.625 78.472 161.474 60.918 157.745 51.982 157.745 51.982M137.646 104.817C137.646 104.817 139.15 100.078 144 99.847 150.165 99.564 151.574 102.905 151.574 102.905L152.658 104.685C152.658 104.685 147.76 104.048 144.804 103.869 142.033 103.698 139.029 105.036 137.646 104.817M192.072 188.723L206.049 182.508 193.289 175.06 179.328 180.748 192.072 188.723 192.072 188.723zM145.546 186.381L158.973 179.089 145.696 172.639 132.214 179.401 145.546 186.381 145.546 186.381zM99.12 188.536L112.175 180.552 98.579 174.794 85.455 182.24 99.12 188.536 99.12 188.536zM50.595 185.613C50.595 185.613 85.605 169.223 147.718 169.915 212.149 170.648 239.483 184.888 239.946 185.354 240.407 185.812 240.256 186.381 239.715 186.958 235.836 187.157 225.697 187.571 225.276 187.767 224.741 187.998 234.332 197.439 234.332 197.439 234.332 197.439 235.335 198.132 234.642 199.212 233.957 200.286 233.646 200.979 233.415 201.436 233.185 201.891 233.104 202.348 232.268 202.059 231.194 201.664 203.622 188.078 145.078 188.078 86.532 188.078 56.811 203.198 56.811 203.198 56.811 203.198 55.974 203.58 55.743 201.741 55.122 200.363 54.899 199.511 54.899 199.511 54.899 199.511 54.739 199.057 55.664 198.365 56.588 197.672 65.349 189.377 65.349 189.377 65.349 189.377 66.074 188.154 64.879 188.001 63.573 187.845 50.83 187.387 50.83 187.387 50.83 187.387 49.448 186.155 50.595 185.613L50.595 185.613z"/>
      <path fill="#FF0010" d="M74.44 165.734L84.268 155.711C84.268 155.711 85.072 154.099 86.108 154.294 87.135 154.482 91.443 157.75 92.861 158.778 94.287 159.814 98.205 161.656 98.205 161.656 98.205 161.656 78.542 163.891 74.44 165.734M131.567 159.204C131.567 159.204 141.546 150.642 143.005 149.181 144.462 147.727 144.462 148.145 145.695 148.145 146.924 148.145 149.336 147.926 149.765 150.184 150.147 152.175 159.402 158.976 159.402 158.976 159.402 158.976 132.563 159.017 131.567 159.204M194.413 161.239C194.413 161.239 202.434 156.321 203.851 155.099 205.275 153.868 204.663 154.095 205.897 154.29 207.123 154.49 210.571 159.821 212.229 161.052 213.877 162.275 217.174 165.536 217.174 165.536 217.174 165.536 198.897 162.079 194.413 161.239M26.448 115.477C26.448 115.477 26.408 123.919 26.529 124.923 26.64 125.918 29.825 131.413 30.367 133.672 30.901 135.942 30.478 136.021 30.478 136.021 30.478 136.021 31.323 132.027 33.354 130.339 35.392 128.643 36.929 127.531 39.765 126.954 42.617 126.385 46.878 127.078 48.103 128.424 49.331 129.762 52.126 133.561 51.137 138.626 53.279 141.08 54.594 142.353 54.937 146.036 55.28 149.724 54.474 151.679 52.252 154.021 50.014 156.362 44.495 158.441 39.995 155.605 38.418 155.139 38.315 155.024 38.315 155.024 38.315 155.024 36.546 156.907 37.773 157.591 39.007 158.284 45.761 163.349 54.051 163.007 62.35 162.665 67.295 160.284 77.394 148.604 77.163 147.847 76.852 147.756 76.048 148.182 75.251 148.604 70.87 151.216 67.637 150.181 65.112 149.373 58.494 149.265 60.884 136.595 57.849 132.791 57.538 129.148 57.968 126.457 58.39 123.772 59.577 120.543 63.042 120.2 66.49 119.85 69.404 120.885 69.404 120.885 69.404 120.885 67.526 112.674 74.47 109.875 71.094 107.648 68.489 106.263 67.947 101.002 67.414 95.751 71.555 92.708 71.555 92.708 71.555 92.708 71.363 91.406 70.328 91.601 69.286 91.788 61.95 91.64 54.591 101.002 49.216 107.867 41.378 107.867 41.378 107.867 41.378 107.867 35.931 108.416 29.44 113.131 26.64 115.171 26.448 115.477 26.448 115.477M91.173 89.566C91.173 89.566 90.447 94.181 90.249 99.349 90.065 104.537 89.635 106.576 90.871 107.915 92.096 109.261 96.246 109.87 98.085 114.624 98.699 115.162 99.511 114.827 100.658 114.508 101.805 114.21 106.839 114.903 109.099 119.052 111.362 123.197 108.988 127.916 108.376 129.182 108.686 129.835 108.343 129.8 108.758 130.951 109.378 132.559 110.025 131.946 110.025 137.011 110.064 139.659 107.985 144.996 101.463 144.693 96.438 144.458 95.099 142.77 95.099 142.77L92.941 141.548C92.941 141.548 92.096 141.659 91.786 142.201 91.483 142.734 90.902 143.471 92.328 144.622 93.754 145.768 98.046 154.064 112.947 154.139 125.426 154.251 132.02 144.654 132.02 144.654 132.02 144.654 128.334 144.622 126.153 143.805 123.962 143.005 120.696 138.967 120.886 135.673 121.078 132.372 121.5 131.293 122.114 129.262 120.664 127.609 119.662 124.842 119.662 121.541 119.662 118.235 120.887 116.507 122.734 115.058 124.576 113.597 126.535 114.023 127.57 113.908 128.604 113.792 130.525 114.477 132.14 115.44 132.053 113.792 131.217 109.754 134.705 106.576 131.807 104.227 128.111 98.047 127.497 90.102 126.883 82.15 127.075 75.667 127.075 75.667 127.075 75.667 123.579 74.819 119.971 77.2 116.355 79.582 111.792 84.189 109.523 85.341 107.26 86.5 102.003 89.374 95.704 89.482 91.404 89.374 91.173 89.566 91.173 89.566M164.125 75.432C164.125 75.432 164.77 97.354 158.088 105.649 157.899 106.529 159.594 109.563 159.858 110.022 160.135 110.488 160.47 112.287 160.972 112.287 161.474 112.287 166.124 112.141 168.235 113.447 170.338 114.749 171.724 117.472 171.923 121.586 172.107 125.687 170.235 127.61 170.235 127.61 170.235 127.61 171.651 130.024 171.651 131.516 171.651 133.018 170.872 137.243 169.382 138.621 167.884 140.006 166.457 141.042 162.891 141.236 159.316 141.427 156.089 138.971 156.089 138.971L154.871 138.743C154.871 138.743 163.033 153.56 178.636 153.755 194.221 153.942 201.135 143.079 201.135 143.079 201.135 143.079 200.864 141.498 199.901 142.12 198.944 142.729 195.29 145.266 193.258 145.266 191.219 145.266 187.277 145.349 184.316 140.276 183.009 138.161 183.693 133.212 183.693 133.212 183.693 133.212 184.506 131.225 185.462 130.409 184.77 129.453 183.933 125.769 184.045 123.305 184.156 120.848 184.698 118.427 187.804 116.512 190.001 115.135 193.068 115.44 193.068 115.44L196.709 116.285C196.709 116.285 196.294 113.211 200.636 109.977 199.401 108.839 198.325 108.871 198.064 107.027 197.8 105.191 198.064 97.697 198.064 95.937 198.064 94.177 197.8 89.721 196.566 89.371 195.148 89.216 188.848 89.606 185.281 87.301 181.705 84.995 172.451 78.241 171.064 77.162 169.691 76.085 164.724 75.548 164.125 75.432M219.636 92.747C219.636 92.747 225.354 103.275 218.098 107.688 216.832 108.03 216.179 109.142 216.179 109.142 216.179 109.142 220.138 108.489 222.621 112.328 225.139 116.171 224.772 118.779 224.67 120.467 226.007 120.355 230.762 119.929 232.801 121.16 234.832 122.387 236.759 125.647 236.759 128.495 236.759 131.329 233.693 136.208 233.693 136.208 233.693 136.208 234.379 140.007 234.147 142.432 234.066 143.849 232.386 147.648 229.073 149.576 225.775 151.492 220.329 150.229 218.282 148.533 216.251 146.836 214.341 144.006 214.341 144.006 214.341 144.006 212.994 143.922 213.218 144.814 213.455 145.694 213.455 146.956 217.406 151.376 221.348 155.789 224.71 161.928 235.757 162.355 246.811 162.777 253.38 157.592 253.38 157.592 253.38 157.592 254.153 155.789 253.612 155.095 253.078 154.41 252.607 154.06 252.05 154.41 251.46 154.753 248.848 156.361 245.582 156.138 239.825 155.716 237.905 153.251 237.292 150.26 236.759 147.569 237.213 144.16 237.674 142.543 238.447 139.851 240.367 139.243 240.367 139.243 240.367 139.243 238.447 132.214 242.627 128.722 246.81 125.23 251.231 127.149 251.231 127.149 251.231 127.149 254.95 127.842 256.214 129.18 257.489 130.534 259.368 132.099 260.063 134.714 260.747 137.319 260.524 137.212 260.524 137.212 260.524 137.212 261.67 136.101 261.791 135.4 261.902 134.714 261.408 129.833 262.212 127.913 263.017 125.998 264.363 126.457 264.706 121.929 265.047 117.393 264.984 114.825 263.94 114.132 262.898 113.447 254.114 108.147 248.889 107.104 243.663 106.077 242.278 107.144 238.67 103.503 235.07 99.86 232.873 94.663 224.859 92.632 220.56 91.867 219.636 92.747 219.636 92.747"/>
      <polygon fill="#012971" points="99.169 186.282 89.03 181.909 98.396 176.531 108.606 180.524"/>
      <polygon fill="#012971" points="191.14 186.513 181.853 180.87 191.832 176.76 201.422 182.053"/>
      <path fill="#FF0010" d="M50.947,188.975 C50.947,188.975 51.489,192.195 50.947,193.582 C50.866,194.274 51.489,194.879 51.489,194.879 C51.871,195.342 54.101,196.802 54.252,197.185 C55.175,196.655 62.462,189.276 62.462,189.276 C62.462,189.276 52.945,188.818 50.947,188.975"/>
      <polygon fill="#FF0010" points="145.663 184.136 135.796 179.258 145.433 174.391 155.411 178.915"/>
      <path fill="#FF0010" d="M227.887,188.839 L236.337,196.826 C236.337,196.826 237.794,195.52 239.028,194.68 C240.255,193.831 241.251,193.76 240.629,191.761 C240.015,189.762 239.856,188.456 239.856,188.456 L227.887,188.839 L227.887,188.839 Z"/>
      <path fill="#FFF" d="M286.758 115.27C286.758 113.028 284.935 111.217 282.702 111.217 280.466 111.217 278.651 113.029 278.651 115.27 278.651 117.504 280.465 119.324 282.702 119.324 284.935 119.323 286.758 117.503 286.758 115.27M285.086 98.33C285.086 96.096 283.262 94.275 281.032 94.275 278.794 94.275 276.978 96.096 276.978 98.33 276.978 100.563 278.793 102.384 281.032 102.384 283.262 102.384 285.086 100.563 285.086 98.33M277.544 83.05C277.544 80.816 275.727 78.996 273.481 78.996 271.252 78.996 269.436 80.816 269.436 83.05 269.436 85.292 271.251 87.104 273.481 87.104 275.727 87.104 277.544 85.292 277.544 83.05M264.298 69.802C264.298 67.568 262.475 65.752 260.244 65.752 257.999 65.752 256.19 67.567 256.19 69.802 256.19 72.036 257.999 73.856 260.244 73.856 262.475 73.856 264.298 72.036 264.298 69.802M248.624 65.011C248.624 62.778 246.81 60.957 244.57 60.957 242.334 60.957 240.516 62.777 240.516 65.011 240.516 67.253 242.333 69.074 244.57 69.074 246.81 69.074 248.624 67.253 248.624 65.011M231.167 63.451C231.167 61.209 229.352 59.397 227.113 59.397 224.874 59.397 223.059 61.209 223.059 63.451 223.059 65.689 224.874 67.505 227.113 67.505 229.352 67.505 231.167 65.688 231.167 63.451M216.967 80.184C216.967 77.95 215.143 76.129 212.913 76.129 210.676 76.129 208.859 77.949 208.859 80.184 208.859 82.417 210.675 84.238 212.913 84.238 215.143 84.237 216.967 82.417 216.967 80.184M215.423 98.557C215.423 96.323 213.599 94.503 211.369 94.503 209.13 94.503 207.315 96.323 207.315 98.557 207.315 100.791 209.129 102.611 211.369 102.611 213.599 102.61 215.423 100.791 215.423 98.557M214.45 61.81C214.45 59.576 212.635 57.755 210.396 57.755 208.157 57.755 206.342 59.576 206.342 61.81 206.342 64.052 208.157 65.864 210.396 65.864 212.635 65.864 214.45 64.052 214.45 61.81M201.805 50.887C201.805 48.645 199.988 46.833 197.749 46.833 195.512 46.833 193.695 48.645 193.695 50.887 193.695 53.121 195.511 54.941 197.749 54.941 199.987 54.941 201.805 53.121 201.805 50.887M187.803 41.732C187.803 39.498 185.988 37.678 183.749 37.678 181.52 37.678 179.695 39.497 179.695 41.732 179.695 43.974 181.519 45.786 183.749 45.786 185.987 45.786 187.803 43.975 187.803 41.732M171.468 35.854C171.468 33.62 169.645 31.801 167.414 31.801 165.176 31.801 163.36 33.62 163.36 35.854 163.36 38.092 165.175 39.908 167.414 39.908 169.645 39.908 171.468 38.093 171.468 35.854M128.892 35.301C128.892 33.067 127.077 31.247 124.838 31.247 122.608 31.247 120.784 33.066 120.784 35.301 120.784 37.536 122.607 39.355 124.838 39.355 127.076 39.355 128.892 37.536 128.892 35.301M111.067 41.406C111.067 39.168 109.252 37.352 107.013 37.352 104.784 37.352 102.968 39.168 102.968 41.406 102.968 43.64 104.783 45.46 107.013 45.46 109.252 45.459 111.067 43.64 111.067 41.406M96.565 49.943C96.565 47.713 94.75 45.894 92.511 45.894 90.272 45.894 88.457 47.713 88.457 49.943 88.457 52.18 90.272 53.997 92.511 53.997 94.75 53.997 96.565 52.181 96.565 49.943M84.57 61.937C84.57 59.695 82.755 57.883 80.525 57.883 78.286 57.883 76.471 59.695 76.471 61.937 76.471 64.171 78.286 65.991 80.525 65.991 82.755 65.991 84.57 64.171 84.57 61.937M68.117 63.064C68.117 60.831 66.3 59.01 64.071 59.01 61.834 59.01 60.017 60.83 60.017 63.064 60.017 65.298 61.834 67.118 64.071 67.118 66.3 67.118 68.117 65.298 68.117 63.064M49.815 64.116C49.815 61.882 48 60.067 45.762 60.067 43.523 60.067 41.708 61.882 41.708 64.116 41.708 66.358 43.522 68.17 45.762 68.17 48 68.169 49.815 66.358 49.815 64.116M83.48 81.771C83.48 79.538 81.657 77.717 79.426 77.717 77.188 77.717 75.373 79.538 75.373 81.771 75.373 84.013 77.188 85.826 79.426 85.826 81.657 85.826 83.48 84.014 83.48 81.771M83.48 98.625C83.48 96.383 81.657 94.571 79.426 94.571 77.188 94.571 75.373 96.383 75.373 98.625 75.373 100.858 77.188 102.679 79.426 102.679 81.657 102.679 83.48 100.858 83.48 98.625M139.428 42.035C139.428 42.035 141.969 39.227 144.653 39.188 147.536 39.156 150.261 41.805 150.261 41.805 150.261 41.805 149.256 43.804 144.932 43.911 140.592 44.034 139.428 42.035 139.428 42.035M140.592 23.908L140.592 30.71C140.592 30.71 139.698 32.087 134.363 34.585 134.491 32.247 134.363 25.143 140.592 23.908M149.185 23.908L149.185 30.523C149.185 30.523 150.077 32.088 155.396 34.585 155.293 32.247 155.396 25.143 149.185 23.908M152.37 53.308C152.37 49.167 149.009 45.798 144.859 45.798 140.709 45.798 137.349 49.167 137.349 53.308 137.349 57.462 140.708 60.823 144.859 60.823 149.009 60.822 152.37 57.462 152.37 53.308M152.14 90.788C152.14 86.77 148.883 83.505 144.86 83.505 140.839 83.505 137.573 86.77 137.573 90.788 137.573 94.81 140.84 98.072 144.86 98.072 148.883 98.071 152.14 94.81 152.14 90.788M153.39 72.14C153.39 67.425 149.575 63.61 144.86 63.61 140.144 63.61 136.331 67.424 136.331 72.14 136.331 76.849 140.144 80.669 144.86 80.669 149.574 80.669 153.39 76.85 153.39 72.14"/>
      <path fill="gold" d="M2.914,137.855 C2.914,137.855 8.593,130.644 12.472,128.028 C16.351,125.42 18.651,124.081 21.073,124.611 C23.493,125.149 26.409,128.804 27.213,131.373 C28.026,133.941 28.218,138.123 28.218,138.123 C28.218,138.123 28.519,138.975 27.023,139.508 C25.525,140.05 24.411,140.01 22.65,140.93 C20.89,141.849 20.61,142.2 20.61,142.2 C20.61,142.2 19.998,135.514 19.423,134.976 C18.851,134.438 18.651,134.634 17.726,135.366 C16.811,136.099 11.897,142.2 10.329,143.235 C8.752,144.275 6.171,146.612 4.482,144.884 C2.794,143.156 2.261,139.158 2.914,137.855"/>
      <path fill="#FFF" d="M32.596 69.145C32.596 66.912 30.782 65.091 28.551 65.091 26.313 65.091 24.497 66.911 24.497 69.145 24.497 71.387 26.312 73.2 28.551 73.2 30.781 73.199 32.596 71.386 32.596 69.145M19.694 83.5C19.694 81.266 17.87 79.446 15.641 79.446 13.402 79.446 11.587 81.266 11.587 83.5 11.587 85.734 13.401 87.554 15.641 87.554 17.871 87.554 19.694 85.735 19.694 83.5M12.463 98.636C12.463 96.403 10.648 94.582 8.409 94.582 6.171 94.582 4.356 96.402 4.356 98.636 4.356 100.87 6.171 102.69 8.409 102.69 10.648 102.69 12.463 100.871 12.463 98.636M10.91 117.38C10.91 115.147 9.086 113.326 6.856 113.326 4.618 113.326 2.802 115.146 2.802 117.38 2.802 119.622 4.617 121.434 6.856 121.434 9.086 121.434 10.91 119.622 10.91 117.38"/>
    </g>
  </g>
</svg>
