<?xml version="1.0" encoding="utf-8"?>
<!-- Generator: Adobe Illustrator 22.0.1, SVG Export Plug-In . SVG Version: 6.00 Build 0)  -->
<svg version="1.2" baseProfile="tiny" id="Capa_1" xmlns="http://www.w3.org/2000/svg" xmlns:xlink="http://www.w3.org/1999/xlink"
	 x="0px" y="0px" viewBox="0 0 400 400" xml:space="preserve">
<path fill="#FFFFFF" stroke="#FFFFFF" stroke-width="0.9934" stroke-miterlimit="10" d="M201.4,57.7l-2.3-1.8v-0.6l-0.4,0.3
	l-0.3-0.2v0.5l-2.3,1.8c-8.8,7.6-70.3,14.9-78.6,14.9c-25.2,0-48.6-4.9-67.6-13.3C34.2,83.9,25,113.6,25,145.6
	c0,73.9,50.4,136.8,116.5,153.4c0,0,44.7,19.4,56.7,38.1h0.8c11.9-18.6,56.6-38,56.6-38c66.2-16.6,116.5-79.6,116.5-153.4
	c0-31.9-9.1-61.6-24.9-86.4c-19,8.4-42.3,13.3-67.6,13.3C271.7,72.6,210.2,65.3,201.4,57.7"/>
<polyline fill="#C43924" points="256.6,66.7 281.4,67.8 248.6,125.9 278.9,116.9 197.9,258.7 189.1,230 161.4,278.8 170.9,285.2 
	154.7,290.6 154.4,291.2 154.1,290.9 135.9,297 134.3,260.9 143,266.7 193,179.1 201.8,208 234.8,149.4 204.5,158.7 "/>
<g>
	<path d="M298.5,272.3c-1.4-1.1-2.3-1.9-2.6-2.4c-0.3-0.5-0.5-1.6-0.7-3.1c-0.6-6.1-1-13.2-1-21.4c0-3.5,0.1-6.7,0.3-9.6
		c-3-3.9-2.9-11.7-6.5-16.8c-1.3-1.9-2.7-3.2-3.9-4.6c-2.1,0.3-3.8,0.9-4.8,1.8c-1.3,1.1-2.6,3.2-3.9,6.4l-1.4,3.3l-5.7,13.1
		c-0.6,1.3-1.1,2.2-1.5,2.7c-0.4,0.5-0.9,0.7-1.4,0.7c-0.6,0-1.1-0.2-1.5-0.7s-1-1.7-1.9-3.7l-8.4-18.3c-0.7-1.7-1.3-2.8-1.7-3.4
		s-1-1-1.7-1.3c-1.4-0.7-3.9-1-7.4-1c-1.4,0-3.1,0.1-5.1,0.5c-2,0.3-3.6,0.6-4.7,1c-1.2,0.4-2.2,1-2.9,2s-1.1,1.9-1.1,3.1
		c0,1.7,1,3.1,2.9,4.2c0.9,0.5,1.4,0.9,1.7,1.2c0.3,0.3,0.6,0.8,0.8,1.4c0.7,1.8,1,5.4,1,10.6c0,4.1-0.1,9.1-0.3,15
		c-0.2,5.8-0.4,10-0.7,12.5c-0.2,2.4-0.5,4-0.8,4.8c-0.3,0.8-0.9,1.5-1.8,2c-1.4,0.8-2.3,1.4-2.6,1.8c-0.3,0.4-0.5,1-0.5,1.9
		c0,3.5,3.3,5.2,9.8,5.2c7.8,0,11.7-1.8,11.7-5.3c0-1.3-0.4-2.3-1.3-2.8c-1.4-0.8-2.2-1.4-2.6-1.7c-0.3-0.3-0.5-0.8-0.7-1.5
		c-0.3-1.2-0.4-3.4-0.4-6.7c0-3.2,0.1-6.7,0.3-10.4c0.1-1.7,0.5-2.5,1.4-2.5c0.8,0,1.6,1,2.3,3l5.4,14.2c0.7,1.9,1.6,4,2.6,6.5
		c1.1,2.4,1.8,3.8,2.1,4.2c0.5,0.6,1,0.9,1.6,0.9c0.6,0,1.2-0.3,1.7-1.1c0.5-0.8,1.2-2.2,2-4.4l4.9-12.8c1.4-3.7,2.5-6.1,3.2-7.4
		c0.7-1.2,1.4-1.9,2.2-1.9c0.6,0,1.1,0.4,1.3,1.2c0.2,0.8,0.3,2.5,0.3,5c0,4.6-0.1,7.8-0.4,9.7c-0.2,1.9-0.7,3.2-1.4,3.9
		c-1.3,1.3-2.2,2.2-2.5,2.7c-0.3,0.5-0.5,1.1-0.5,1.9c0,2.1,1.3,3.5,3.8,4.4c2.2,0.8,5.7,1.1,10.2,1.1c3,0,5.2-0.1,6.6-0.2
		c1.4-0.1,2.8-0.5,4.1-1c2.5-0.9,3.8-2.5,3.8-4.7C300,274.1,299.5,273,298.5,272.3z"/>
	<g>
		<path fill="none" d="M297.2,273.9c-2.1-1.6-2.8-2.4-3.1-2.9c-0.5-0.9-0.8-2-1-3.9c-0.7-6.2-1-13.4-1-21.6c0-3.2,0.1-6.2,0.3-9
			c-1.4-2.1-2.1-4.8-2.8-7.7c-0.8-3-1.6-6.1-3.2-8.5c-0.9-1.3-1.8-2.3-2.7-3.3c-0.1-0.1-0.2-0.2-0.3-0.3c-1.5,0.3-2.3,0.8-2.7,1.1
			c-0.7,0.6-1.9,2-3.4,5.6l-1.4,3.3l-5.7,13.2c-0.6,1.5-1.3,2.6-1.9,3.2c-1,1.2-2.2,1.4-3,1.4c-1.3,0-2.4-0.5-3.1-1.5
			c-0.2-0.2-0.7-0.9-2.2-4.1l-8.4-18.3c-0.9-2.1-1.4-2.8-1.5-3c-0.2-0.2-0.5-0.4-0.9-0.6c-0.8-0.4-2.5-0.8-6.5-0.8
			c-1.3,0-2.9,0.1-4.8,0.4c-1.9,0.3-3.3,0.6-4.4,1c-0.9,0.3-1.5,0.7-1.9,1.3c-0.4,0.5-0.6,1.1-0.6,1.8c0,0.4,0,1.3,1.8,2.4
			c1.2,0.7,1.8,1.2,2.2,1.6c0.5,0.5,0.9,1.2,1.3,2.1c0.8,2.1,1.2,5.8,1.2,11.3c0,4.3-0.1,9.4-0.3,15c-0.2,6.1-0.5,10.1-0.7,12.6
			c-0.3,3.5-0.7,4.7-1,5.4c-0.5,1.3-1.4,2.3-2.7,3c-1.3,0.8-1.8,1.1-2,1.3c0,0.1-0.1,0.3-0.1,0.6c0,2.1,2.6,3.1,7.8,3.1
			c3.6,0,9.6-0.4,9.6-3.3c0-0.8-0.3-1-0.4-1c-2-1.2-2.6-1.7-2.9-2c-0.6-0.6-0.9-1.3-1.2-2.4c-0.3-1.4-0.5-3.7-0.5-7.3
			c0-3.5,0.1-7.1,0.3-10.5c0.2-4.1,2.5-4.5,3.5-4.5c2.7,0,3.9,3.2,4.3,4.3l5.4,14.2c0.7,2,1.6,4.1,2.6,6.4c1.2,2.6,1.6,3.5,1.8,3.7
			c0,0,0,0,0,0c0.3-0.4,0.8-1.4,1.8-4l4.9-12.8c1.5-3.8,2.5-6.2,3.3-7.6c1.1-2,2.4-2.9,4-2.9c1.6,0,2.8,1,3.3,2.8
			c0.3,0.9,0.4,2.6,0.4,5.5c0,4.8-0.1,8.1-0.4,10c-0.3,2.4-1,4.1-2,5.1c-1.6,1.5-2.1,2.1-2.2,2.3c-0.1,0.1-0.2,0.3-0.2,0.8
			c0,0.5,0,1.6,2.4,2.4c2,0.7,5.2,1,9.5,1c3.4,0,5.4-0.1,6.4-0.2c1.2-0.1,2.4-0.4,3.6-0.9c2.2-0.8,2.4-1.9,2.4-2.8
			C297.9,274.7,297.7,274.3,297.2,273.9z"/>
		<path fill="#FFFFFF" d="M299.8,270.6c-1.8-1.3-2.1-1.8-2.1-1.8c0-0.1-0.2-0.5-0.4-2.2c-0.6-6-1-13.1-1-21.1c0-3.4,0.1-6.6,0.3-9.4
			l0.1-0.8l-0.5-0.6c-1.2-1.6-1.9-4.2-2.6-6.9c-0.8-3.2-1.8-6.9-3.9-9.8c-1.1-1.5-2.1-2.6-3.1-3.7c-0.3-0.4-0.7-0.7-1-1.1l-0.7-0.8
			l-1.1,0.2c-2.6,0.4-4.5,1.1-5.8,2.2c-1.6,1.3-3.1,3.7-4.6,7.2l-7.1,16.4c-0.5,1.2-0.9,1.7-1.1,2c-0.2-0.4-0.7-1.2-1.5-3l-8.4-18.3
			c-0.8-1.8-1.4-3-2-3.7c-0.6-0.8-1.4-1.5-2.5-1.9c-1.7-0.8-4.4-1.2-8.2-1.2c-1.5,0-3.4,0.2-5.4,0.5c-2.1,0.3-3.8,0.7-5.1,1.1
			c-1.6,0.5-2.9,1.4-3.9,2.6c-1,1.3-1.5,2.7-1.5,4.3c0,1.7,0.7,4.1,3.9,6c1,0.6,1.2,0.8,1.3,0.9c0,0,0.2,0.2,0.4,0.7
			c0.4,1.1,0.9,3.7,0.9,9.8c0,4.3-0.1,9.3-0.3,14.9c-0.2,5.9-0.5,10-0.7,12.4c-0.3,3-0.6,4-0.7,4.3c-0.1,0.3-0.4,0.6-0.9,0.9
			c-1.8,1-2.7,1.7-3.2,2.3c-0.6,0.8-1,1.8-1,3.2c0,3.3,2.1,7.3,11.9,7.3c9.1,0,13.7-2.5,13.7-7.4c0-2.6-1.3-3.9-2.4-4.6
			c-1.4-0.8-1.9-1.2-2.1-1.3c0-0.1-0.1-0.2-0.2-0.6c-0.2-0.7-0.3-2.3-0.3-6.3c0-2.9,0.1-5.8,0.2-8.7l5.2,13.6
			c0.8,2.1,1.7,4.3,2.7,6.6c1.7,3.9,2.1,4.4,2.3,4.6c1.1,1.4,2.4,1.7,3.2,1.7c0.9,0,2.3-0.3,3.4-2c0.6-0.9,1.3-2.4,2.3-4.8l4.9-12.8
			c1.3-3.2,2.2-5.5,2.9-6.8c0,0.7,0.1,1.6,0.1,3c0,4.5-0.1,7.7-0.4,9.5c-0.3,2.1-0.7,2.6-0.8,2.7c-1.6,1.6-2.4,2.5-2.8,3
			c-0.6,0.8-0.9,1.9-0.9,3c0,1.7,0.7,4.8,5.1,6.4c2.5,0.8,6,1.3,10.9,1.3c2.8,0,5.2-0.1,6.8-0.3c1.6-0.2,3.1-0.5,4.6-1.1
			c4.2-1.6,5.1-4.5,5.1-6.7C302,273.4,301.3,271.8,299.8,270.6z M295.5,278.1c-1.2,0.5-2.4,0.7-3.6,0.9c-1,0.1-3,0.2-6.4,0.2
			c-4.4,0-7.6-0.3-9.5-1c-2.4-0.8-2.4-1.9-2.4-2.4c0-0.5,0.1-0.6,0.2-0.8c0.1-0.2,0.6-0.8,2.2-2.3c1.1-1,1.7-2.7,2-5.1
			c0.3-2,0.4-5.2,0.4-10c0-2.9-0.1-4.6-0.4-5.5c-0.4-1.7-1.7-2.8-3.3-2.8c-1.6,0-2.9,1-4,2.9c-0.8,1.4-1.8,3.8-3.3,7.6l-4.9,12.8
			c-1,2.5-1.5,3.6-1.8,4c0,0,0,0,0,0c-0.1-0.2-0.6-1.1-1.8-3.7c-1-2.2-1.8-4.3-2.6-6.4l-5.4-14.2c-0.4-1.1-1.6-4.3-4.3-4.3
			c-1,0-3.3,0.4-3.5,4.5c-0.2,3.5-0.3,7-0.3,10.5c0,3.6,0.1,5.9,0.5,7.3c0.3,1.1,0.7,1.8,1.2,2.4c0.3,0.3,0.9,0.8,2.9,2
			c0.1,0.1,0.4,0.2,0.4,1c0,2.8-6,3.3-9.6,3.3c-5.2,0-7.8-1.1-7.8-3.1c0-0.4,0-0.6,0.1-0.6c0.2-0.1,0.6-0.5,2-1.3
			c1.3-0.7,2.3-1.8,2.7-3c0.3-0.6,0.6-1.9,1-5.4c0.2-2.5,0.5-6.5,0.7-12.6c0.2-5.6,0.3-10.7,0.3-15c0-5.5-0.4-9.2-1.2-11.3
			c-0.4-0.9-0.8-1.6-1.3-2.1c-0.4-0.5-1.1-0.9-2.2-1.6c-1.8-1.1-1.8-2-1.8-2.4c0-0.7,0.2-1.2,0.6-1.8c0.5-0.6,1.1-1,1.9-1.3
			c1.1-0.4,2.5-0.7,4.4-1c1.8-0.3,3.4-0.4,4.8-0.4c3.9,0,5.7,0.4,6.5,0.8c0.4,0.2,0.7,0.4,0.9,0.6c0.1,0.2,0.6,0.9,1.5,3l8.4,18.3
			c1.4,3.2,2,3.9,2.2,4.1c0.7,0.9,1.8,1.5,3.1,1.5c0.8,0,2-0.3,3-1.4c0.6-0.7,1.2-1.8,1.9-3.2l5.7-13.2l1.4-3.3
			c1.5-3.5,2.6-5,3.4-5.6c0.4-0.3,1.2-0.8,2.7-1.1c0.1,0.1,0.2,0.2,0.3,0.3c0.9,1,1.8,2,2.7,3.3c1.6,2.3,2.5,5.4,3.2,8.5
			c0.7,2.9,1.5,5.6,2.8,7.7c-0.2,2.7-0.3,5.8-0.3,9c0,8.2,0.3,15.4,1,21.6c0.2,1.9,0.5,3.1,1,3.9c0.3,0.5,1,1.3,3.1,2.9
			c0.5,0.4,0.7,0.8,0.7,1.4C297.9,276.3,297.6,277.3,295.5,278.1z"/>
	</g>
</g>
<path d="M315.7,136.6c-1.4,0-2.3,0.5-2.7,1.4c-0.4,1-0.5,3.2-0.5,6.7c0,5.3,0.3,9.5,0.9,12.5c0.2,0.8,0.4,1.5,0.8,2
	c0.4,0.5,1,1,2.1,1.7c1.3,0.8,2.2,1.8,2.8,3c-0.5-0.1-1-0.2-1.6-0.3v7.3c-0.7,0.6-1.5,1-2.5,1.4c-2.4,0.9-6.1,1.4-11.2,1.6l0-0.9
	c0-9.8-12.7-11-22.5-11l-0.8,0c0.5-0.5,1.2-1.1,2.2-1.9c1.6-1.2,2.7-2.6,3.2-4.3c0.6-1.7,1-4.5,1.2-8.6c0.2-3,0.3-13.7,0.3-32.1
	c0-5.8-0.2-9.8-0.8-11.9c-0.5-2.1-1.6-3.6-3.3-4.6c-1.6-0.9-2.7-1.7-3.2-2.4c-0.5-0.7-0.8-1.7-0.8-2.9c0-1.6,0.5-2.9,1.5-4
	c1-1.2,2.5-2,4.3-2.6c1.6-0.5,3.7-0.7,6.4-0.7c1.2,0,4.2,0.2,9,0.6c0.9,0.1,2.3,0.1,4.3,0.1c3.3,0,7.6-0.2,13.1-0.7
	c3.5-0.3,5.9-0.4,7.3-0.4c7.8,0,14.2,2.2,19.3,6.5c4.6,3.9,6.9,9.3,6.9,16.2c0,3.9-0.8,7.4-2.4,10.6c-1.6,3.2-3.8,5.5-6.6,7.1
	c-1.2,0.7-1.7,1.5-1.7,2.4c0,1.2,0.9,2.2,2.7,3c3.8,1.6,6.6,4,8.4,7.3c1.8,3.2,3.1,8.2,3.8,14.9c0.3,2.8,0.8,4.6,1.4,5.4
	c0.6,0.8,2.1,1.6,4.3,2.3c0.7,0.2,1.3,0.8,1.7,1.6c0.5,0.8,0.7,1.7,0.7,2.7c0,1.3-0.4,2.6-1.3,4c-0.9,1.3-2,2.3-3.4,3.1
	c-2.3,1.2-5.3,2-9,2.3c0.5-1.2,0.8-2.6,0.8-4.1c0-6.3-8.2-7.5-14.6-7.5c-2.9,0-5.3,0.3-7.6,0.5c-0.3-0.8-0.6-1.6-0.9-2.5
	c-0.9-2.9-2.1-7.5-3.4-13.7c-0.8-4-1.9-6.8-3.2-8.4C319.9,137.6,318.1,136.7,315.7,136.6 M312.5,104.5l-0.6,14.7v0.6
	c0,1.5,0.2,2.5,0.5,3c0.4,0.5,1.2,0.7,2.3,0.7c3.2,0,5.5-0.9,7-2.8c1.4-1.9,2.2-5,2.2-9.2c0-8.1-2.5-12.1-7.5-12.1
	c-1.4,0-2.4,0.4-3,1.1C312.9,101.2,312.6,102.5,312.5,104.5z"/>
<path fill="none" stroke="#FFFFFF" stroke-width="4.14" stroke-miterlimit="3.864" d="M315.7,136.6c-1.4,0-2.3,0.5-2.7,1.4
	c-0.4,1-0.5,3.2-0.5,6.7c0,5.3,0.3,9.5,0.9,12.5c0.2,0.8,0.4,1.5,0.8,2c0.4,0.5,1,1,2.1,1.7c1.3,0.8,2.2,1.8,2.8,3
	c-0.5-0.1-1-0.2-1.6-0.3v7.3c-0.7,0.6-1.5,1-2.5,1.4c-2.4,0.9-6.1,1.4-11.2,1.6l0-0.9c0-9.8-12.7-11-22.5-11l-0.8,0
	c0.5-0.5,1.2-1.1,2.2-1.9c1.6-1.2,2.7-2.6,3.2-4.3c0.6-1.7,1-4.5,1.2-8.6c0.2-3,0.3-13.7,0.3-32.1c0-5.8-0.2-9.8-0.8-11.9
	c-0.5-2.1-1.6-3.6-3.3-4.6c-1.6-0.9-2.7-1.7-3.2-2.4c-0.5-0.7-0.8-1.7-0.8-2.9c0-1.6,0.5-2.9,1.5-4c1-1.2,2.5-2,4.3-2.6
	c1.6-0.5,3.7-0.7,6.4-0.7c1.2,0,4.2,0.2,9,0.6c0.9,0.1,2.3,0.1,4.3,0.1c3.3,0,7.6-0.2,13.1-0.7c3.5-0.3,5.9-0.4,7.3-0.4
	c7.8,0,14.2,2.2,19.3,6.5c4.6,3.9,6.9,9.3,6.9,16.2c0,3.9-0.8,7.4-2.4,10.6c-1.6,3.2-3.8,5.5-6.6,7.1c-1.2,0.7-1.7,1.5-1.7,2.4
	c0,1.2,0.9,2.2,2.7,3c3.8,1.6,6.6,4,8.4,7.3c1.8,3.2,3.1,8.2,3.8,14.9c0.3,2.8,0.8,4.6,1.4,5.4c0.6,0.8,2.1,1.6,4.3,2.3
	c0.7,0.2,1.3,0.8,1.7,1.6c0.5,0.8,0.7,1.7,0.7,2.7c0,1.3-0.4,2.6-1.3,4c-0.9,1.3-2,2.3-3.4,3.1c-2.3,1.2-5.3,2-9,2.3
	c0.5-1.2,0.8-2.6,0.8-4.1c0-6.3-8.2-7.5-14.6-7.5c-2.9,0-5.3,0.3-7.6,0.5c-0.3-0.8-0.6-1.6-0.9-2.5c-0.9-2.9-2.1-7.5-3.4-13.7
	c-0.8-4-1.9-6.8-3.2-8.4C319.9,137.6,318.1,136.7,315.7,136.6z"/>
<path fill="none" stroke="#FFFFFF" stroke-width="4.14" stroke-miterlimit="3.864" d="M312.5,104.5l-0.6,14.7v0.6
	c0,1.5,0.2,2.5,0.5,3c0.4,0.5,1.2,0.7,2.3,0.7c3.2,0,5.5-0.9,7-2.8c1.4-1.9,2.2-5,2.2-9.2c0-8.1-2.5-12.1-7.5-12.1
	c-1.4,0-2.4,0.4-3,1.1C312.9,101.2,312.6,102.5,312.5,104.5z"/>
<g>
	<path fill="#1E1B0E" d="M347.1,164.4c-2.4-0.9-6.6-1.4-12.5-1.4c-11.9,0-17.9,2.1-17.9,6.2c0,1.5,1,2.7,2.9,3.6
		c1.8,0.8,2.6,1.8,2.6,3c0,0.6-0.2,1.4-0.7,2.6c-0.5,1.1-2.2,4.6-5.2,10.7c-1.6,3.4-3,5.6-3.9,6.8s-2.1,1.7-3.3,1.7
		c-1.3,0-2.4-1.1-3.4-3.2l-7-14.7c-0.7-1.4-1-2.5-1-3.3c0-0.8,0.7-1.7,2.2-2.7c1.9-1.2,2.9-2.6,2.9-4.1c0-2.3-1.8-3.9-5.4-5
		c-3.6-1.1-9.2-1.6-16.8-1.6c-7.3,0-12.9,0.7-16.9,2.2c-3.9,1.4-5.9,3.5-5.9,6.2c0,2.2,1.1,3.5,3.4,3.9c1.9,0.3,3.4,1,4.4,1.9
		c1,0.9,2.2,2.8,3.5,5.4l22.9,47c0.9,2,1.7,3.3,2.3,4.1c0.6,0.7,1.5,1.4,2.6,1.9c1.4,0.7,3,1.1,4.8,1.1c2.2,0,4-0.5,5.4-1.7
		c1.4-1.1,2.9-3.2,4.5-6.2l25.7-48.5c1.6-3.1,3.1-5.1,4.3-5.9c0.7-0.4,2.1-0.8,4.4-1c3.2-0.4,4.8-1.9,4.8-4.4
		C350.8,166.7,349.6,165.2,347.1,164.4z"/>
	<g>
		<path fill="none" d="M346.4,166.3c-2.2-0.8-6.2-1.2-11.9-1.2c-9.9,0-15.8,1.5-15.8,4.1c0,0.6,0.6,1.2,1.7,1.7
			c2.5,1.2,3.8,2.9,3.8,4.9c0,0.9-0.3,2-0.9,3.4c-0.5,1.1-2.2,4.7-5.2,10.8c-1.7,3.5-3.1,5.9-4.2,7.2c-1.4,1.6-3,2.4-4.9,2.4
			c-2.1,0-3.9-1.5-5.3-4.4l-7-14.7c-0.8-1.8-1.2-3.1-1.2-4.2c0-2.4,2.4-3.9,3.2-4.4c0.9-0.6,1.9-1.4,1.9-2.3c0-1.5-2.1-2.5-3.9-3
			c-3.4-1-8.9-1.5-16.2-1.5c-7.1,0-12.5,0.7-16.1,2.1c-4.5,1.6-4.5,3.6-4.5,4.2c0,1.2,0.4,1.6,1.6,1.8c2.3,0.4,4.1,1.2,5.5,2.5
			c1.2,1.1,2.5,3.1,3.9,6l22.9,47c1,2.2,1.7,3.2,2.1,3.7c0.5,0.5,1.1,1,1.9,1.4c1.1,0.6,2.5,0.9,3.9,0.9c1.7,0,3.1-0.4,4.1-1.2
			c1.2-0.9,2.5-2.8,3.9-5.5l25.7-48.5c1.8-3.5,3.4-5.6,4.9-6.7c1-0.7,2.6-1.1,5.4-1.4c3-0.4,3-1.6,3-2.4
			C348.8,168,348.5,167,346.4,166.3z"/>
		<path fill="#FFFFFF" d="M347.9,162.4c-2.7-1-7-1.5-13.3-1.5c-8.6,0-20,0.9-20,8.3c0,1.6,0.7,3.8,4.1,5.5c1,0.5,1.5,0.9,1.5,1.2
			c0,0.1,0,0.5-0.5,1.7c-0.5,1.1-2.2,4.7-5.1,10.7c-1.9,4-3,5.6-3.6,6.3c-0.7,0.9-1.3,1-1.7,1c-0.2,0-0.8-0.4-1.6-2l-7-14.7
			c-0.6-1.3-0.8-2-0.8-2.3c0.1-0.1,0.4-0.5,1.3-1c2.6-1.6,3.9-3.6,3.9-5.8c0-2.3-1.2-5.3-6.9-7c-3.8-1.1-9.6-1.7-17.4-1.7
			c-7.7,0-13.4,0.8-17.6,2.3c-6,2.2-7.3,5.6-7.3,8.1c0,3.2,1.9,5.4,5.1,5.9c1.5,0.2,2.6,0.7,3.3,1.4c0.5,0.4,1.5,1.6,3,4.8l22.9,47
			c1,2.1,1.8,3.5,2.5,4.4l0.1,0.1c0.8,1,1.9,1.8,3.2,2.4c1.7,0.9,3.7,1.3,5.8,1.3c2.7,0,4.9-0.7,6.7-2.1c1.7-1.3,3.3-3.6,5-6.9
			l25.7-48.5l0,0c1.9-3.7,3.1-4.8,3.6-5.1c0.1,0,0.7-0.4,3.5-0.7c5.8-0.7,6.6-4.4,6.6-6.5C352.9,167.1,352.2,164,347.9,162.4z
			 M345.8,171.3c-2.7,0.3-4.4,0.7-5.4,1.4c-1.5,1-3.1,3.2-4.9,6.7l-25.7,48.5c-1.4,2.7-2.7,4.6-3.9,5.5c-1,0.8-2.4,1.2-4.1,1.2
			c-1.4,0-2.7-0.3-3.9-0.9c-0.8-0.4-1.4-0.9-1.9-1.4c-0.4-0.5-1-1.5-2.1-3.7l-22.9-47c-1.4-2.9-2.7-4.9-3.9-6
			c-1.3-1.3-3.2-2.1-5.5-2.5c-1.2-0.2-1.6-0.6-1.6-1.8c0-0.6,0-2.6,4.5-4.2c3.7-1.4,9.1-2.1,16.1-2.1c7.4,0,12.8,0.5,16.2,1.5
			c1.8,0.5,3.9,1.5,3.9,3c0,0.9-1.1,1.8-1.9,2.3c-0.8,0.5-3.2,2-3.2,4.4c0,1.1,0.4,2.4,1.2,4.2l7,14.7c1.4,2.9,3.2,4.4,5.3,4.4
			c1.9,0,3.5-0.8,4.9-2.4c1.1-1.3,2.5-3.7,4.2-7.2c3-6.1,4.7-9.6,5.2-10.8c0.6-1.4,0.9-2.5,0.9-3.4c0-2-1.3-3.7-3.8-4.9
			c-1.2-0.6-1.7-1.1-1.7-1.7c0-2.6,5.9-4.1,15.8-4.1c5.7,0,9.7,0.4,11.9,1.2c2,0.7,2.3,1.7,2.3,2.6
			C348.8,169.7,348.8,170.9,345.8,171.3z"/>
	</g>
</g>
<path fill="#BAAC41" d="M201.4,57.7l-2.3-1.8v-0.6l-0.4,0.3l-0.3-0.2v0.5l-2.3,1.8c-8.8,7.6-70.3,14.9-78.6,14.9
	c-25.2,0-48.6-4.9-67.6-13.3C34.2,83.9,25,113.6,25,145.6c0,73.9,50.4,136.8,116.5,153.4c0,0,44.7,19.4,56.7,38.1h0.8
	c11.9-18.6,56.6-38,56.6-38c66.2-16.6,116.5-79.6,116.5-153.4c0-31.9-9.1-61.6-24.9-86.4c-19,8.4-42.3,13.3-67.6,13.3
	C271.7,72.6,210.2,65.3,201.4,57.7 M199.1,23.1c16.2,14.2,44.8,23.6,77.3,23.6c30.5,0,57.6-8.4,74.1-21.2
	C379.5,57.6,397,99,397,144.3c0,89-66,154.1-155.6,187.9c-17.8,6.7-38.1,36.4-41.9,41.5v0.8c0,0-0.1-0.1-0.3-0.3
	c-0.2,0.3-0.3,0.4-0.3,0.3v-0.8c-3.8-5.2-24.1-34.8-41.9-41.5C67.2,298.4,1.3,233.2,1.3,144.3C1.3,99,18.7,57.6,47.7,25.5
	c16.5,12.8,43.5,21.2,74.1,21.2c32.5,0,61.1-9.5,77.2-23.7L199.1,23.1z"/>
<polyline fill="#C43924" points="75.2,111.1 75.2,196.9 79.3,201.3 89.1,202.6 100.4,200.9 105.5,202.9 111,206.4 116.8,202.4 
	127.7,201.8 135,203.2 143.8,200.4 146.3,190.3 146.3,111.1 "/>
<path fill="#BAAC41" d="M110.6,114.1h-0.9H77.8v4.8v46.8l0.1,30.1c0.7,2,1.1,3.2,2.9,4c8.6,4,19.4-4.8,27.8,2.1
	c1,0.8,1.5,1.3,2.4,2.2c0.8-0.9,1.4-1.4,2.4-2.2c8.4-6.9,19.2,2,27.8-2.1c1.8-0.8,2.2-2,2.9-4l0.1-30.1v-46.8v-4.8 M111,78.9
	L111,78.9c0.8,0.8,1.4,1.2,2.3,1.7c1.7,1,3.6,0.4,4.6,2.1c0.9,1.4,1.4,2.9,0.4,4.3c-0.5,0.7-1,1.2-1.9,1.2c-1.2,0-1-1.8-2.1-2.1
	c-2.2-0.6-2,3.7-1.1,5.8c1,2.3,5.2,5.4,5.8,3c0.3-1-0.7-1.7-0.5-2.8c0.3-1.8,1.5-3.4,3.3-3.3c0.8,0,1.4,0.3,2,0.9
	c0.4,0.4,0.6,0.6,0.9,1.1c0.3,0.6,0.4,1,0.3,1.7c0,1.2-0.3,1.9-1.2,2.8c1.7,0.7,3.1,0.7,4.7-0.2c1.4-0.7,2.2-1.5,2.6-3
	c0.1-0.6,0.2-0.9,0.1-1.5c0-0.3-0.1-0.5-0.2-0.9c-0.2-0.5-0.3-0.8-0.8-1c-0.3-0.1-0.5-0.1-0.8-0.1c-1.1-0.1-2.2,0.6-3-0.2
	c-0.8-0.9-0.8-2.2,0-3.1c1.3-1.5,3.4-0.9,5.4-1.7c1.4-0.5,2.1-0.9,3.5-1.6c0.8,1.4,0.8,2.5,2.3,3.4c1.6,0.9,3.4,1.9,3.6,4
	c0.1,0.8,0.1,1.4-0.3,2c-0.5,0.8-1.3,1.3-2.2,1c-0.6-0.2-0.8-0.6-1.2-1.1c-0.2-0.2-0.2-0.4-0.3-0.6c-0.3-0.4-0.4-0.7-0.9-0.8
	c-0.5,0-0.6,0.4-1,0.8c-0.3,0.4-0.5,0.7-0.7,1.2c-0.2,0.6-0.3,1-0.3,1.6c0,1,0.2,1.5,0.7,2.4c1.1,1.7,2.7,2.5,4.7,2.2
	c-0.5-1-0.5-1.9,0-2.9c0.4-0.8,0.7-1.2,1.5-1.6c0.6-0.3,1.1-0.3,1.8-0.1c0.5,0.1,0.7,0.2,1.1,0.5c0.4,0.3,0.5,0.6,0.8,1.1
	c0.4,0.9,0.3,1.6,0.1,2.6c-0.2,1.2-0.6,1.9-1.4,2.7c1.7,1.2,3.5,1.3,5.2,0.3c1.9-1,4.6-4.1,2.6-5c-0.3-0.1-0.5-0.1-0.8-0.2
	c-1-0.2-1.8,0.8-2.6,0.1c-0.8-0.7-0.3-1.8,0.1-2.9c1.1-2.9,4.8-0.8,7.8-1.8c0.7-0.2,1.1-0.4,1.8-0.6l-8.9,19v30.5v42.6v14.2
	c-0.6,1.5-1,2.4-1.9,3.8c-7.2,11.6-24.9-2.9-34.2,7.1c-0.7,0.8-1.2,1.3-1.8,2.1c-0.7-0.9-1.1-1.3-1.8-2.1c-9.3-9.9-27,4.5-34.2-7.1
	c-0.9-1.4-1.3-2.2-1.9-3.8v-14.2v-42.6v-30.5l-8.9-19c0.7,0.3,1.1,0.4,1.8,0.6c3,1,6.7-1.2,7.8,1.8c0.4,1.1,1,2.2,0.1,2.9
	c-0.8,0.7-1.6-0.3-2.6-0.1c-0.3,0-0.5,0.1-0.8,0.2c-2,0.8,0.6,3.9,2.6,5c1.8,1,3.6,0.9,5.2-0.3c-0.8-0.8-1.2-1.5-1.4-2.7
	c-0.2-1-0.3-1.7,0.1-2.6c0.2-0.5,0.4-0.8,0.8-1.1c0.4-0.3,0.7-0.4,1.1-0.5c0.7-0.1,1.1-0.1,1.8,0.1c0.8,0.3,1.2,0.8,1.5,1.6
	c0.5,1,0.5,1.9,0,2.9c2,0.3,3.7-0.5,4.7-2.2c0.5-0.8,0.7-1.4,0.7-2.4c0-0.6-0.1-1-0.3-1.6c-0.2-0.5-0.3-0.8-0.7-1.2
	c-0.3-0.4-0.5-0.8-1-0.8c-0.4,0-0.6,0.4-0.9,0.8c-0.2,0.2-0.2,0.4-0.3,0.6c-0.4,0.5-0.6,0.9-1.2,1.1c-0.9,0.2-1.6-0.2-2.2-1
	c-0.4-0.7-0.4-1.2-0.3-2.1c0.2-2.1,2-3.1,3.6-4c1.5-0.8,1.5-2,2.3-3.4c1.3,0.7,2.1,1,3.5,1.6c2.1,0.8,4.1,0.2,5.4,1.7
	c0.8,0.9,0.8,2.2,0,3.1c-0.8,0.8-1.8,0.1-3,0.2c-0.3,0-0.5,0-0.8,0.1c-0.5,0.2-0.6,0.6-0.8,1c-0.1,0.3-0.2,0.5-0.2,0.9
	c-0.1,0.6,0,0.9,0.1,1.5c0.4,1.5,1.2,2.3,2.6,3c1.6,0.9,3,0.9,4.7,0.2c-0.8-0.8-1.2-1.6-1.2-2.8c0-0.7,0.1-1.1,0.3-1.7
	c0.2-0.5,0.4-0.8,0.9-1.1c0.6-0.5,1.1-0.8,2-0.9c1.8-0.1,3,1.5,3.3,3.3c0.2,1.1-0.7,1.7-0.5,2.8c0.7,2.5,4.8-0.6,5.8-3
	c0.9-2.1,1.2-6.4-1.1-5.8c-1.1,0.3-0.9,2.1-2.1,2.1c-0.9,0-1.4-0.5-1.9-1.2c-1-1.3-0.5-2.9,0.4-4.3c1.1-1.7,2.9-1.1,4.6-2.1
	c1-0.6,1.5-1,2.3-1.6v-0.1L111,78.9L111,78.9z"/>
<path fill="#1E1B0E" d="M79.5,110c4.4-4.5,16.8-7.7,31.4-7.7s27,3.2,31.4,7.7H79.5z"/>
<path fill="none" stroke="#1E1B0E" stroke-width="0.409" stroke-miterlimit="3.864" d="M79.5,110c4.4-4.5,16.8-7.7,31.4-7.7
	s27,3.2,31.4,7.7H79.5z"/>
<path fill="#1E1B0E" d="M130.4,122.5c-0.3,0.5-0.5,0.9-0.8,1.5c-1.1,2.2-1.8,3.7-1.7,6.2c0,0.4,0,0.7,0.1,1.1
	c0.6,2.3,3.8-1.2,5.3-2.8c1-1,1.7-1.5,2.6-2.6c-0.6,1.5-1.1,2.6-1.5,3.8c-1,2.5-1,2.3-1.6,4.1c-0.5,1.5,1.1,1.5,4,0.1
	c0.7-0.3,3.4-2,4-4.2c0.9,4.7-1.5,9.1-6,10.8c-0.8,0.3-1.3,0.4-2.2,0.5c-1.6,0.2-2.5,0.1-4.1,0c-1.1-0.1-1.7-0.1-2.8-0.3l-12.4,17.7
	l26.3,34.9l-1.5,1.4l-26.5-34.2l-24,34.8l-1.8-1.2l24.3-35.1l-15-22c-1.6,1.3-2.6,2-4.4,3.1c-2.5,1.5-3.9,2.2-6.6,3.3
	c-1.6-1.3-2.3-2.4-3-4.4c-0.3-1-0.5-1.7-0.5-2.8c0-0.8,0-1.3,0.2-2.2c0.4,0.3,0.7,0.5,1.1,0.7c1,0.5,1.7,1,2.9,0.8
	c0.2,0,0.3,0,0.5-0.1c0.1-0.7,0.2-1.1,0.2-1.8c0.1-1.2,0-1.9-0.1-3.1c0.8,0.4,1.2,0.6,1.9,1c0.4,0.2,0.6,0.4,1,0.6
	c0.5,0.2,0.9,0.6,1.4,0.4c0.4-0.2,0.5-0.6,0.7-1c0.1-0.4,0.1-0.7,0.1-1.1c0-1.2-0.1-1.9-0.6-2.9c1.6,1.1,3.8,3.1,4.6,1.4
	c0.2-0.4,0.1-0.6,0.2-1c0.2-1.3,0.1-2.2-0.3-3.5c1,0.7,1.8,1,3.1,1.2c0.8,0.1,1.3,0.4,2.1,0c1.5-0.7,1.2-3.2-0.1-4.3
	c1.6,0.3,2.4,0.7,3.8,1.5c1.8,1.1,2.7,2,3.8,3.7c-0.9,1.3-1.4,1.9-2.5,3.1c-0.9,0.9-1.4,1.4-2.4,2.3c-1.8,1.7-2.9,2.5-4.9,4
	l14.3,20.6l12.1-17.4c-0.3-1.1-0.5-1.7-0.7-2.9c-0.3-1.3-0.6-2-0.6-3.4c0-1.3,0-2.1,0.4-3.4C124.1,125.7,126.5,123.4,130.4,122.5z"
	/>
<path fill="none" stroke="#1E1B0E" stroke-width="0.409" stroke-miterlimit="3.864" d="M130.4,122.5c-0.3,0.5-0.5,0.9-0.8,1.5
	c-1.1,2.2-1.8,3.7-1.7,6.2c0,0.4,0,0.7,0.1,1.1c0.6,2.3,3.8-1.2,5.3-2.8c1-1,1.7-1.5,2.6-2.6c-0.6,1.5-1.1,2.6-1.5,3.8
	c-1,2.5-1,2.3-1.6,4.1c-0.5,1.5,1.1,1.5,4,0.1c0.7-0.3,3.4-2,4-4.2c0.9,4.7-1.5,9.1-6,10.8c-0.8,0.3-1.3,0.4-2.2,0.5
	c-1.6,0.2-2.5,0.1-4.1,0c-1.1-0.1-1.7-0.1-2.8-0.3l-12.4,17.7l26.3,34.9l-1.5,1.4l-26.5-34.2l-24,34.8l-1.8-1.2l24.3-35.1l-15-22
	c-1.6,1.3-2.6,2-4.4,3.1c-2.5,1.5-3.9,2.2-6.6,3.3c-1.6-1.3-2.3-2.4-3-4.4c-0.3-1-0.5-1.7-0.5-2.8c0-0.8,0-1.3,0.2-2.2
	c0.4,0.3,0.7,0.5,1.1,0.7c1,0.5,1.7,1,2.9,0.8c0.2,0,0.3,0,0.5-0.1c0.1-0.7,0.2-1.1,0.2-1.8c0.1-1.2,0-1.9-0.1-3.1
	c0.8,0.4,1.2,0.6,1.9,1c0.4,0.2,0.6,0.4,1,0.6c0.5,0.2,0.9,0.6,1.4,0.4c0.4-0.2,0.5-0.6,0.7-1c0.1-0.4,0.1-0.7,0.1-1.1
	c0-1.2-0.1-1.9-0.6-2.9c1.6,1.1,3.8,3.1,4.6,1.4c0.2-0.4,0.1-0.6,0.2-1c0.2-1.3,0.1-2.2-0.3-3.5c1,0.7,1.8,1,3.1,1.2
	c0.8,0.1,1.3,0.4,2.1,0c1.5-0.7,1.2-3.2-0.1-4.3c1.6,0.3,2.4,0.7,3.8,1.5c1.8,1.1,2.7,2,3.8,3.7c-0.9,1.3-1.4,1.9-2.5,3.1
	c-0.9,0.9-1.4,1.4-2.4,2.3c-1.8,1.7-2.9,2.5-4.9,4l14.3,20.6l12.1-17.4c-0.3-1.1-0.5-1.7-0.7-2.9c-0.3-1.3-0.6-2-0.6-3.4
	c0-1.3,0-2.1,0.4-3.4C124.1,125.7,126.5,123.4,130.4,122.5z"/>
<path fill="#438D49" d="M49.7,87.7c1,0,1.7,0,2.7,0.3c3.4,0.9,5,3,6.6,6.2c1,1.9,1.2,3.2,1.4,5.3c0.3,3.1-0.1,5-0.9,8
	c-0.6,2.1-1.3,3.2-2.2,5.3c-0.9,2-1.5,3-2.3,5c-0.4,1-0.7,1.6-0.9,2.7c-0.2,0.9-0.2,1.4-0.2,2.3c0.6-0.2,0.9-0.4,1.5-0.7
	c1.8-0.9,2.6-1.8,4-3.2c1.3-1.4,2-2.3,2.9-3.9c0.7-1.3,0.9-2.1,1.3-3.5c0.5-1.7,0.6-2.7,0.7-4.4c0.5,0.1,0.7,0.2,1.1,0.5
	c1.4,0.8,1.8,2,2.3,3.6c0.6,2.3,0.6,3.9,0,6.2c-0.4,1.3-0.7,2.1-1.4,3.3c-0.8,1.4-1.4,2.2-2.5,3.4c-0.8,1-1.3,1.6-2.3,2.5
	c-1.2,1.3-2,1.9-3.2,3.2c-1,1-1.6,1.5-2.5,2.6c-0.8,0.9-1.2,1.4-1.8,2.4l0.1,5.3c1-0.4,1.5-0.7,2.4-1.2c2.4-1.5,3.5-2.8,5.2-5
	c2.1-2.7,2.3-4.8,3.9-7.8c0.4-0.7,0.6-1.1,1-1.8c0.7,0.7,1,1.2,1.4,2.2c0.3,0.7,0.4,1.2,0.6,1.9c0.5,2.4,0.3,4-0.6,6.4
	s-2,3.4-3.7,5.2c-1,1.1-1.7,1.5-2.8,2.5c-1.8,1.7-2.7,2.7-4.3,4.5c-0.6,0.7-1,1-1.6,1.8c-0.8,1-1.2,1.7-1.7,2.8l-0.1,6.4
	c1-0.7,1.6-1.1,2.6-1.9c0.7-0.6,1.1-0.9,1.8-1.6c1.1-1.1,1.5-1.9,2.4-3.3c0.5-0.9,0.8-1.4,1.2-2.4c0.9-2.2,1.3-3.6,1.4-6
	c1.3,0.5,2.1,1.1,2.8,2.3c0.4,0.6,0.5,1.1,0.8,1.8c0.2,0.7,0.3,1.2,0.5,1.9c0.2,1.2,0.2,2,0,3.2c-0.3,1.8-0.9,2.7-1.9,4.2
	c-0.7,1.1-1.3,1.6-2.2,2.6c-1.1,1.3-1.8,2-2.9,3.3c-0.8,0.9-1.3,1.5-2.2,2.4c-0.7,0.8-1.2,1.2-1.9,2c-0.9,1-1.6,1.6-2,2.9
	c-0.4,1.2-0.4,2.1-0.1,3.3c0.8-0.7,1.3-1.2,2.1-1.9c0.8-0.7,1.2-1.1,2-1.7c0.8-0.7,1.2-1,2-1.7c1.3-1.1,2.2-1.7,3.4-2.9
	c0.7-0.7,1.1-1.1,1.7-1.8c0.6-0.7,0.9-1.1,1.4-1.9c0.7-1.2,0.9-2,1.5-3.3c0.2-0.5,0.4-0.7,0.6-1.2c0.9,1.3,1.2,2.2,1.5,3.8
	c0.3,1.5,0.3,2.4,0,3.8c-0.1,1.3-0.3,2.1-0.9,3.2c-0.6,1.2-1.1,1.8-2,2.8c-1.8,2-3.4,2.5-5.6,4c-1.2,0.9-2.1,1.2-3.2,2.2
	c-0.8,0.7-1.3,1.2-2,2c-0.5,0.6-0.7,1-1.2,1.7c-0.5,0.8-0.8,1.3-1.2,2.3c-0.4,1.1-0.6,1.7-0.7,2.9c-0.1,1.2,0,1.8,0.2,3
	c0.2,0.9,0.3,1.4,0.7,2.2c0.2,0.5,0.4,0.7,0.7,1.2c0.3-1,0.5-1.6,1-2.5c0.7-1.3,1.5-1.9,2.5-3c1.8-2.2,2.9-3.4,4.9-5.4
	c0.7-0.7,1.2-1,1.9-1.7c2.5-2.6,3.7-4.5,4.9-8c0.8,1.3,1.2,2.2,1.5,3.7c0.6,2.6,0.6,4.4-0.2,7c-0.8,2.5-1.9,3.9-3.9,5.6
	c-0.6,0.5-0.9,0.7-1.5,1.1c-2,1.4-3.4,1.7-5.3,3.2c-0.9,0.7-1.4,1.1-2.2,1.9c-0.6,0.6-0.9,0.9-1.5,1.6c0,0.4,0,0.6,0,1
	c0.7,2.7,2,3.7,3.8,5.5c1.3,1.3,2.3,1.9,3.8,3c1.1,0.8,1.8,1.3,3,2c1.3,0.8,2,1.2,3.4,1.8c2.1,1.1,3.4,1.7,5.6,2.4
	c1.4,0.4,2.2,0.6,3.7,0.9c6.3,1.3,10,0.7,16.5,0.7c5.5,0,8.7,0.3,14.1,0.5c5.5-0.2,8.6-0.6,14.1-0.5c6.5,0,10.2,0.6,16.5-0.7
	c1.4-0.3,2.3-0.4,3.7-0.9c2.3-0.7,3.5-1.3,5.6-2.4c1.3-0.7,2.1-1.1,3.4-1.8c1.2-0.7,1.9-1.2,3-2c1.5-1.1,2.5-1.6,3.8-3
	c1.8-1.9,3.1-2.8,3.8-5.5c0.1-0.4,0-0.6,0-1c-0.5-0.6-0.9-1-1.5-1.6c-0.8-0.8-1.3-1.2-2.2-1.9c-1.9-1.5-3.3-1.8-5.3-3.2
	c-0.6-0.4-1-0.6-1.5-1.1c-2.1-1.7-3.1-3.1-3.9-5.6c-0.9-2.6-0.8-4.3-0.2-7c0.4-1.5,0.7-2.4,1.5-3.7c1.2,3.5,2.4,5.4,4.9,8
	c0.7,0.7,1.2,1,1.9,1.7c2,2,3.1,3.2,4.9,5.4c1,1.2,1.7,1.7,2.5,3c0.5,0.9,0.7,1.5,1,2.5c0.3-0.4,0.4-0.7,0.7-1.2
	c0.4-0.8,0.5-1.3,0.7-2.2c0.2-1.1,0.3-1.8,0.2-3c-0.1-1.1-0.3-1.8-0.7-2.9c-0.4-0.9-0.7-1.4-1.2-2.3c-0.4-0.7-0.7-1.1-1.2-1.7
	c-0.7-0.9-1.1-1.3-2-2c-1.1-1-2-1.3-3.2-2.2c-2.2-1.5-3.8-2-5.6-4c-0.9-1-1.5-1.6-2-2.8c-0.6-1.2-0.8-1.9-0.9-3.2
	c-0.2-1.5-0.2-2.4,0-3.8c0.3-1.6,0.7-2.5,1.5-3.8c0.2,0.5,0.4,0.7,0.6,1.2c0.6,1.3,0.8,2.1,1.5,3.3c0.5,0.8,0.8,1.2,1.4,1.9
	c0.6,0.8,1,1.1,1.7,1.8c1.2,1.2,2.1,1.7,3.4,2.9c0.8,0.6,1.2,1,2,1.7c0.8,0.7,1.2,1.1,2,1.7c0.8,0.7,1.3,1.1,2.1,1.9
	c0.3-1.3,0.3-2.1-0.1-3.3c-0.4-1.3-1.2-1.8-2-2.9c-0.7-0.8-1.2-1.2-1.9-2c-0.9-0.9-1.3-1.5-2.2-2.4c-1.1-1.3-1.8-2-2.9-3.3
	c-0.9-1-1.5-1.5-2.2-2.6c-1-1.5-1.6-2.5-1.9-4.2c-0.2-1.2-0.2-2,0-3.2c0.1-0.8,0.2-1.2,0.5-1.9c0.2-0.7,0.3-1.1,0.8-1.8
	c0.8-1.2,1.5-1.8,2.8-2.3c0.1,2.4,0.4,3.8,1.4,6c0.4,0.9,0.7,1.5,1.2,2.4c0.8,1.3,1.3,2.1,2.4,3.3c0.6,0.7,1.1,1,1.8,1.6
	c1,0.8,1.5,1.2,2.6,1.9l-0.1-6.4c-0.5-1.2-0.9-1.8-1.7-2.8c-0.6-0.7-1-1.1-1.6-1.8c-1.7-1.8-2.6-2.8-4.3-4.5c-1.1-1-1.8-1.4-2.8-2.5
	c-1.7-1.8-2.9-2.8-3.7-5.2c-0.9-2.3-1-3.9-0.6-6.4c0.1-0.8,0.2-1.2,0.6-1.9c0.4-0.9,0.7-1.4,1.4-2.2c0.4,0.7,0.6,1.1,1,1.8
	c1.7,3,1.9,5.1,3.9,7.8c1.7,2.2,2.8,3.6,5.2,5c0.9,0.5,1.4,0.8,2.4,1.2l0.1-5.3c-0.7-1-1.1-1.5-1.8-2.4c-0.9-1.1-1.5-1.6-2.5-2.6
	c-1.2-1.3-2-1.9-3.2-3.2c-0.9-0.9-1.4-1.5-2.3-2.5c-1-1.3-1.7-2-2.5-3.4c-0.7-1.2-1.1-1.9-1.4-3.3c-0.6-2.3-0.6-3.8,0-6.2
	c0.4-1.6,0.8-2.8,2.3-3.6c0.4-0.2,0.7-0.3,1.1-0.5c0.1,1.8,0.2,2.8,0.7,4.4c0.4,1.4,0.7,2.2,1.3,3.5c0.9,1.7,1.6,2.6,2.9,3.9
	c1.4,1.4,2.2,2.3,4,3.2c0.6,0.3,0.9,0.4,1.5,0.7c0-0.9-0.1-1.4-0.2-2.3c-0.2-1.1-0.5-1.6-0.9-2.7c-0.8-2-1.4-3.1-2.3-5
	c-0.9-2-1.5-3.1-2.2-5.3c-0.8-3-1.3-4.9-0.9-8c0.2-2.1,0.4-3.4,1.4-5.3c1.6-3.2,3.2-5.3,6.6-6.2c1-0.3,1.6-0.3,2.7-0.3
	c-0.1,0.8-0.2,1.3-0.4,2.2c-0.2,0.8-0.3,1.3-0.4,2.2c-0.3,1.6-0.4,2.5-0.5,4.1c-0.1,2-0.4,3.2-0.1,5.2c0.1,1,0.3,1.6,0.6,2.6
	c0.3,1.1,0.6,1.8,0.9,2.9c0.3,1.4,0.4,2.2,0.5,3.6c0.1,1.4,0,2.3-0.1,3.7c-0.1,1.3-0.2,2-0.5,3.3c-0.1,0.6-0.3,0.9-0.4,1.4
	c-0.2,1-0.2,1.6,0,2.6c0.4-0.3,0.6-0.4,1-0.8c0.4-0.3,0.6-0.5,1-0.9c0.5-0.5,0.8-0.8,1.3-1.4c1.2-1.5,1.9-2.4,2.6-4.2
	c0.3-0.8,0.4-1.3,0.6-2.1c0.5-2.1,0.3-3.3,0.7-5.4c0-0.3,0.1-0.5,0.1-0.8c0.9,0.3,1.4,0.6,2.1,1.3c1.8,1.7,2.2,3.3,2.6,5.7
	c0.1,0.9,0.2,1.4,0.1,2.4c-0.1,1.9-0.5,3-1.5,4.6c-0.5,0.9-0.9,1.4-1.6,2.2l-2.2,2.5l-2.2,2.3l-2.5,3l-1.6,2.5l-0.7,1.2l0,4.5
	c0.5-0.2,0.8-0.4,1.3-0.7c1.9-1.2,3-2.1,4.3-3.8c0.6-0.8,0.9-1.3,1.3-2.1c1-2,1.5-3.6,1.8-5.5c0.1-0.5,0.1-0.9,0.2-1.4
	c1,0.3,1.6,0.6,2.4,1.3c2.6,2.3,2.2,5.6,1,8.9c-0.5,1.2-1,1.8-1.8,2.9c-0.9,1.3-1.5,2-2.6,3.2c-0.6,0.7-1,1-1.7,1.7
	c-0.7,0.7-1.2,1.1-1.9,1.7c-0.5,0.4-0.8,0.7-1.3,1.1c-1.1,1-1.7,1.6-2.7,2.8l-0.1,8.9c1.2-0.7,1.8-1.2,2.9-2.2
	c0.5-0.5,0.8-0.8,1.3-1.4c1.3-1.6,1.9-2.6,2.6-4.5c0.4-1.1,0.5-1.7,0.8-2.8c0.3-1.5,0.5-2.4,0.7-3.9c0.7,0.3,1.1,0.4,1.6,1
	c1.4,1.7,1.6,2.5,2.1,4.3c0.2,0.8,0.3,1.2,0.4,2c0.1,1.2,0.2,2,0,3.2c-0.4,2.3-1.1,3.6-2.8,5.2l-2.2,2.3l-2.2,2.1l-3.2,3.5l-1.6,2
	l-0.1,3.9l0.7-0.4c0.8-0.5,1.3-0.8,2.1-1.3c3.1-2.1,5-3.3,7-6.5c1.2-1.9,1.2-3.3,2.3-5.3c0.3-0.6,0.5-0.9,0.9-1.5
	c0.9,1.1,1.3,1.8,1.7,3.1c0.9,2.7,1.1,4.7-0.1,7.2c-0.7,1.5-1.5,2.4-2.9,3.3l-5,3.6c-1.5,1-2.4,1.6-3.7,2.7
	c-0.7,0.6-1.2,0.8-1.7,1.5c-0.6,0.7-0.9,1.2-1.2,2.1l-0.3,6.4c0.4-0.1,0.6-0.2,1-0.5c0.5-0.3,0.8-0.5,1.3-0.9
	c1.2-0.8,1.9-1.2,3.1-2.1c0.9-0.7,1.5-1,2.4-1.8c1.8-1.5,3-2.2,4.1-4.3c0.5-1,0.8-1.6,1.1-2.7c0.5,0.6,0.7,0.9,1.1,1.6
	c0.5,0.9,0.7,1.5,0.9,2.5c0.4,2.2,0.1,3.6-0.8,5.6c-0.6,1.3-1.1,1.9-2.1,3c-1.8,2.1-3.2,3-5.6,4.1c-1.1,0.5-1.8,0.7-3,1.2
	c-0.9,0.3-1.4,0.5-2.3,0.8c-0.5,0.2-0.8,0.4-1.3,0.8c-0.7,0.5-1,0.8-1.6,1.4c-1.1,1.8-1.7,2.8-3,4.4c-1.5,1.9-2.4,2.9-4.1,4.5
	c-3.4,3.2-5.7,4.7-9.8,6.9c-2.1,1.1-3.3,1.7-5.5,2.5c-1.8,0.6-2.9,1-4.8,1.4c-2,0.4-3.2,0.6-5.2,0.7c-6.8,0.3-10.4,0.7-17,0
	c0.5,0.4,0.8,0.7,1.4,1.1c1,0.8,1.5,1.2,2.5,1.9c1.7,1.1,2.7,1.9,4.2,3.2c0.7,0.6,1.2,0.9,1.8,1.7c0.6,0.8,1,1.2,1.3,2.2
	c0.3,1,0.3,1.7,0,2.8c-0.5,1.9-1.6,3.2-3.5,3.5c-1.5,0.2-2.7-0.2-3.6-1.4c-1.2-1.5-1.5-2.4-2.5-3.8c-1.2-1.6-1.9-2.5-3.3-4
	c-0.7-0.8-1.1-1.2-1.9-1.9c-1.3-1.1-2-1.7-3.5-2.6c-0.5-0.3-0.8-0.5-1.3-0.7c-0.4-0.1-0.6-0.1-1.1-0.1h-0.3c-0.4,0-0.7,0-1.1,0.1
	c-0.5,0.1-0.8,0.4-1.3,0.7c-1.5,0.8-2.2,1.4-3.5,2.6c-0.8,0.7-1.2,1.2-1.9,1.9c-1.4,1.5-2.1,2.4-3.3,4c-1,1.4-1.3,2.3-2.5,3.8
	c-1,1.2-2.1,1.6-3.6,1.4c-1.9-0.2-3-1.6-3.5-3.5c-0.3-1-0.3-1.7,0-2.8c0.3-0.9,0.7-1.4,1.3-2.2c0.6-0.7,1.1-1,1.8-1.7
	c1.6-1.4,2.5-2.1,4.2-3.2c1-0.7,1.5-1.2,2.5-1.9c0.5-0.4,0.8-0.7,1.4-1.1c-6.6,0.7-10.2,0.4-17,0c-2.1-0.1-3.2-0.3-5.2-0.7
	c-1.9-0.4-3-0.7-4.8-1.4c-2.2-0.8-3.4-1.4-5.5-2.5c-4.1-2.2-6.4-3.7-9.8-6.9c-1.7-1.6-2.6-2.7-4.1-4.5c-1.3-1.6-2-2.6-3-4.4
	c-0.5-0.6-0.9-0.9-1.6-1.4c-0.5-0.3-0.8-0.5-1.3-0.8c-0.9-0.3-1.4-0.5-2.3-0.8c-1.2-0.4-1.9-0.6-3-1.2c-2.4-1.2-3.8-2.1-5.6-4.1
	c-0.9-1.1-1.5-1.7-2.1-3c-0.9-2-1.2-3.4-0.8-5.6c0.2-1,0.4-1.6,0.9-2.5c0.3-0.7,0.6-1,1.1-1.6c0.3,1.1,0.5,1.7,1.1,2.7
	c1.1,2,2.3,2.8,4.1,4.3c0.9,0.7,1.5,1.1,2.4,1.8c1.2,0.8,1.9,1.3,3.1,2.1c0.5,0.3,0.7,0.6,1.3,0.9c0.4,0.2,0.6,0.3,1,0.5l-0.3-6.4
	c-0.3-0.9-0.6-1.4-1.2-2.1c-0.6-0.7-1-1-1.7-1.5c-1.4-1.1-2.2-1.7-3.7-2.7l-4.8-3.6c-1.4-1-2.1-1.8-2.9-3.3
	c-1.2-2.5-1.1-4.6-0.1-7.2c0.4-1.3,0.9-2,1.7-3.1c0.3,0.6,0.5,0.9,0.9,1.5c1.1,2,1.1,3.4,2.3,5.3c2,3.1,3.9,4.3,7,6.5
	c0.8,0.5,1.3,0.8,2.1,1.3l0.7,0.4l-0.1-3.9l-1.6-2l-3.2-3.5l-2.2-2.1l-2.2-2.3c-1.7-1.6-2.4-3-2.8-5.2c-0.2-1.2-0.1-1.9,0-3.2
	c0.1-0.8,0.2-1.2,0.4-2c0.5-1.8,0.7-2.6,2.1-4.3c0.5-0.6,0.9-0.7,1.6-1c0.2,1.5,0.3,2.4,0.7,3.9c0.2,1.1,0.4,1.7,0.8,2.8
	c0.7,1.9,1.3,3,2.6,4.5c0.5,0.6,0.7,0.9,1.3,1.4c1,1,1.7,1.5,2.9,2.2l-0.1-8.9c-1-1.1-1.6-1.7-2.7-2.8c-0.5-0.4-0.8-0.7-1.3-1.1
	c-0.8-0.7-1.2-1-1.9-1.7c-0.7-0.6-1.1-1-1.7-1.7c-1.1-1.2-1.7-1.9-2.6-3.2c-0.8-1.1-1.3-1.7-1.8-2.9c-1.3-3.2-1.6-6.6,1-8.9
	c0.8-0.7,1.3-1,2.4-1.3c0,0.5,0.1,0.9,0.2,1.4c0.2,1.9,0.7,3.5,1.8,5.5c0.4,0.9,0.7,1.3,1.3,2.1c1.3,1.8,2.4,2.7,4.3,3.8
	c0.5,0.3,0.8,0.5,1.3,0.7l0-4.5l-0.7-1.2l-1.6-2.5l-2.5-3l-2.2-2.3l-2.2-2.5c-0.7-0.8-1.1-1.2-1.6-2.2c-0.9-1.6-1.3-2.7-1.5-4.6
	c-0.1-0.9,0-1.4,0.1-2.4c0.3-2.4,0.8-3.9,2.6-5.7c0.7-0.7,1.2-0.9,2.1-1.3c0.1,0.3,0.1,0.5,0.1,0.8c0.4,2.1,0.2,3.3,0.7,5.4
	c0.2,0.8,0.3,1.3,0.6,2.1c0.7,1.8,1.4,2.8,2.6,4.2c0.5,0.6,0.8,0.9,1.3,1.4c0.4,0.4,0.6,0.6,1,0.9c0.4,0.3,0.6,0.5,1,0.8
	c0.1-1,0.1-1.6,0-2.6c-0.1-0.6-0.2-0.9-0.3-1.4c-0.3-1.3-0.4-2-0.5-3.3c-0.2-1.4-0.2-2.3-0.1-3.7c0.1-1.4,0.2-2.2,0.5-3.6
	c0.3-1.2,0.6-1.8,0.9-2.9c0.3-1,0.5-1.6,0.6-2.6c0.3-2,0-3.2-0.1-5.2c-0.1-1.6-0.2-2.5-0.5-4.1c-0.1-0.8-0.3-1.3-0.4-2.2
	C50,89,49.9,88.5,49.7,87.7"/>
<g>
</g>
<g>
</g>
<g>
</g>
<g>
</g>
<g>
</g>
<g>
</g>
<g>
</g>
<g>
</g>
<g>
</g>
<g>
</g>
<g>
</g>
<g>
</g>
<g>
</g>
<g>
</g>
<g>
</g>
</svg>
