<?xml version="1.0" encoding="utf-8"?>
<!-- Generator: Adobe Illustrator 22.0.1, SVG Export Plug-In . SVG Version: 6.00 Build 0)  -->
<svg version="1.2" baseProfile="tiny" id="Capa_1" xmlns="http://www.w3.org/2000/svg" xmlns:xlink="http://www.w3.org/1999/xlink"
	 x="0px" y="0px" viewBox="0 0 400 400" xml:space="preserve">
<rect x="2" y="2" fill="none" width="396.1" height="396.1"/>
<g>
	<path fill="#BB0034" d="M200.4,83.7h-8.7c0-16.1-0.7-35.8-3.7-37.2c-3.7-1.6-7.5,0.7-4.9,6.1c3,5.9,1.4,10.3-4.5,10.8
		c-4.9,0.5-11.4-0.5-14.7-12.1c-4-13.8,5.1-17.3,19.9-31.4c13.1-12.6,16.6-18,16.6-18s3.5,5.6,16.6,18
		c14.8,14.1,23.9,17.6,19.9,31.4c-3.3,11.5-10,12.6-14.7,12.1c-5.9-0.5-7.5-4.9-4.5-10.8c2.8-5.4-1-7.7-4.9-6.1
		c-3.1,1.2-3.7,21.1-3.7,37.2H200.4z"/>
	<path fill="#BB0034" d="M200.4,398.1l-28.5-169.2c10.5-2.8,18.2-12.4,18.7-23.9h19.6c0.5,11.5,8.2,21.1,18.7,23.9L200.4,398.1z"/>
	<path fill="#BB0034" d="M101.4,133.2c-2.1-1.7-3.3-4.2-4.9-5.9c-1.9-1.9-4.2-3.7-7-3.7c2.8,0,5.2-1.7,7-3.7
		c1.6-1.7,2.8-4.2,4.9-5.9c1.2-1.2,3-1.9,4.9-1.9c3.1,0,5.8,1.9,6.8,4.7c1.6,0,6.3,0,8.9-0.2c3.1-0.2,5.6-0.2,1.7-3.1l-1.7-1.2
		c-2.6-1.6-4.5-4-5.8-6.8c-0.2-0.3-0.3-0.7-0.5-1.2c-0.2-0.5-0.3-1.2-0.5-1.7c-0.2-0.9-0.3-1.9-0.3-3c0-7.9,6.1-14.3,13.6-14.8
		c0.9-0.2,1.9,0,3,0.2c0.3,0,0.7,0.2,1,0.2c1.4,0.3,2.8,0.9,4.5,1.9l0.3,0.3c7.3,4.5,10.8,13.8,10.8,13.8s-1.7-0.9-9.3-2.4
		c-5.6-1.2-9.1,1.6-8.2,7c1.4,8.2,12.1,10.3,12.1,10.3h18.9v15.5h-18.9c0,0-10.8,2.1-12.1,10.3c-0.9,5.4,2.6,8.2,8.2,7
		c7.5-1.6,9.3-2.4,9.3-2.4s-3.3,9.3-10.7,13.8l-0.3,0.3c-1.6,0.9-3,1.6-4.5,1.9c-0.3,0-0.7,0.2-1,0.2c-1,0.2-1.9,0.2-3,0.2
		c-7.5-0.3-13.6-6.8-13.6-14.8c0-1,0.2-1.9,0.3-3c0.2-0.5,0.2-1.2,0.5-1.7c0.2-0.3,0.3-0.9,0.5-1.2c1.2-2.8,3.1-5.2,5.8-6.8l1.9-1.4
		c3.8-2.8,1.4-2.8-1.7-3.1c-2.6-0.2-7.5-0.2-8.9-0.2c-1,2.8-3.7,4.7-6.8,4.7C104.3,135.1,102.6,134.4,101.4,133.2"/>
	<path fill="#BB0034" d="M298.7,133.2c2.1-1.7,3.3-4.2,4.9-5.9c1.9-1.9,4.2-3.7,7-3.7c-2.8,0-5.2-1.7-7-3.7
		c-1.6-1.7-2.8-4.2-4.9-5.9c-1.2-1.2-3-1.9-4.9-1.9c-3.1,0-5.8,1.9-6.8,4.7c-1.6,0-6.3,0-8.9-0.2c-3.1-0.2-5.6-0.2-1.7-3.1l1.9-1.4
		c2.6-1.6,4.5-4,5.8-6.8c0.2-0.3,0.3-0.7,0.5-1.2c0.2-0.5,0.3-1.2,0.5-1.7c0.2-0.9,0.3-1.9,0.3-3c0-7.9-6.1-14.3-13.6-14.8
		c-0.9-0.2-1.9,0-3,0.2c-0.3,0-0.7,0.2-1,0.2c-1.4,0.3-2.8,0.9-4.5,1.9l-0.3,0.3c-7.2,4.7-10.7,13.8-10.7,13.8s1.7-0.9,9.3-2.4
		c5.6-1.2,9.1,1.6,8.2,7c-1.4,8.2-12.1,10.3-12.1,10.3h-18.9v15.5h18.9c0,0,10.8,2.1,12.1,10.3c0.9,5.4-2.6,8.2-8.2,7
		c-7.5-1.6-9.3-2.4-9.3-2.4s3.3,9.3,10.7,13.8l0.3,0.3c1.6,0.9,3,1.6,4.5,1.9c0.3,0,0.7,0.2,1,0.2c1,0.2,1.9,0.2,3,0.2
		c7.5-0.3,13.6-6.8,13.6-14.8c0-1-0.2-1.9-0.3-3c-0.2-0.5-0.2-1.2-0.5-1.7c-0.2-0.3-0.3-0.9-0.5-1.2c-1.2-2.8-3.1-5.2-5.8-6.8
		l-1.9-1.4c-3.8-2.8-1.4-2.8,1.7-3.1c2.6-0.2,7.5-0.2,8.9-0.2c1,2.8,3.7,4.7,6.8,4.7C295.8,135.1,297.3,134.4,298.7,133.2"/>
	<path fill="#FFFFFF" d="M227.8,195.3c-7.3,9.3-16.8,15.2-26.5,20.4l-1.2,0.7l-1.2-0.7c-9.6-5.2-19.4-11.4-26.7-20.4
		c-17.6-22-26.9-54.3-26.5-83.1h108.8C254.9,140.8,245.3,173.9,227.8,195.3"/>
	<path fill="#80A9E1" d="M251.7,105.9c2.3,29.3-7.5,65.3-25.8,87.8c-7.2,8.7-16.1,14.5-25.8,19.7c-9.6-5.2-18.9-11.2-25.8-19.7
		c-18.5-23.1-27.6-58.2-25.7-87.8H251.7z"/>
	<path fill="#807451" d="M228.5,97.4c-15-6.1-16.9-7.3-28.3-7.3c-13.6,0-14.8,1.4-28.3,7.3c-1.2-0.9-3.1-2.3-4.2-3.7
		c0-1,0.2-2.4,0.9-3.8c2.1-4.2,7.3-7.9,11.7-8.2c4.9-3.8,12.7-6.1,18.5-5.1c0.5,0.2,0.9,0.2,1.4,0.3c0.3-0.2,0.9-0.2,1.4-0.3
		c5.8-1,13.6,1,18.5,5.1c4.4,0.3,9.4,4,11.7,8.2c0.7,1.4,1,2.6,0.9,3.8C231.7,95.1,229.7,96.7,228.5,97.4"/>
	<path fill="#807451" d="M200.2,66.8L200.2,66.8 M227.3,93.2c0.5,0,7.2,0,6.5-8.9c-0.3-5.1-5.6-12.2-10.1-8.4c0,4.5-1.4,5.6-1.9,8.4
		C220.7,88.5,220.1,93.5,227.3,93.2 M202.3,68.5c1.6,4,2.1,9.6,1.4,13.8c-0.2,1-0.2,2.1,0.7,2.6C221.4,93.5,226.2,57.5,202.3,68.5
		 M198,68.5c-23.9-11-19,25-2.1,16.4c1-0.5,0.9-1.6,0.7-2.6C195.9,78.1,196.6,72.6,198,68.5 M173,93.2c7.2,0.3,6.6-4.7,5.8-8.9
		c-0.5-2.8-1.9-4-1.9-8.4c-4.5-3.8-9.8,3.5-10.1,8.4C166,93.3,172.6,93.2,173,93.2 M200.2,66.6c14.5-6.6,21.5-1.2,23.1,6.3
		c17.8-4.4,16.2,22.9,5.2,27.1l-1.6,3.3c-9.1-1.7-15.4-2.8-26.7-2.8c-8.2,0-20.4,0.5-27.4,1.4l-0.7-1.9c-11-4.2-12.6-31.6,5.2-27.1
		C178.6,65.6,185.7,60,200.2,66.6"/>
	<path fill="#807451" d="M229,101.2l-4,6.8c0.2,0.2,0.2,0.2,0.2,0.3v0.2c0,0.2-0.2,0.3-0.2,0.5c-0.2,0.2-0.2,0.2-0.3,0.2h-0.2
		c-0.2,0-0.3-0.2-0.7-0.2c-1.4-0.7-2.8-1.4-4.2-1.9c-1.9-0.7-3.8-1.4-5.6-1.9c-1.9-0.5-3.8-0.9-5.6-1.2c-2.1-0.3-3.8-0.5-5.4-0.5
		c-1,0-1.9,0-2.8,0c-0.7,0-1.7,0-2.8,0c-1.6,0-3.5,0.2-5.6,0.5c-1.7,0.2-3.7,0.7-5.6,1.2c-1.7,0.5-3.7,1-5.6,1.9
		c-1.4,0.5-2.8,1.2-4.2,1.9c-0.2,0.2-0.3,0.2-0.7,0.2h0.3c-0.2,0-0.3-0.2-0.3-0.2c-0.3-0.3-0.3-0.7-0.2-0.9l-4-6.8
		C186.8,90.4,213.8,90.4,229,101.2"/>
</g>
<polygon fill="#807451" points="198,56.7 198,56.5 202.3,56.5 201.4,59.1 203.7,58.4 203.7,62.8 201.4,62.1 202.3,65.6 198,65.6 
	198.7,62.1 196.6,62.8 196.6,58.4 198.7,59.1 "/>
<g>
	<path fill="#FFFFFF" d="M208.3,87.1c-0.3-0.3-0.5-0.9-0.5-1.4s0.2-1,0.5-1.4c0.2-0.2,0.3-0.3,0.5-0.5c0.2,0,0.3-0.2,0.5-0.2
		s0.3,0,0.5,0c0.2,0,0.3,0,0.5,0c0.2,0,0.3,0.2,0.5,0.2c0.2,0.2,0.3,0.3,0.5,0.5c0.3,0.3,0.3,0.7,0.5,1.2v0.2v0.2
		c0,0.5-0.2,0.9-0.5,1.2c-0.2,0.2-0.3,0.3-0.5,0.3c-0.2,0.2-0.3,0.2-0.5,0.2c-0.2,0-0.2,0-0.3,0.2c0.2,2.8,3.7,5.1,6.8,3.5
		c0.5-0.3,1.2-0.7,1.7-1.4c-0.2-0.2-0.3-0.5-0.5-0.7h-0.2c-0.2,0-0.2,0-0.3,0.2l-0.3,0.2c-0.2,0-0.3,0.2-0.7,0.3c0,0-0.2,0-0.2,0.2
		c-0.2,0.2-0.3,0.2-0.3,0.3c-0.2,0.2-0.3,0.2-0.5,0.3c-0.2,0-0.2,0.2-0.2,0.2c-0.2,0-0.2,0.2-0.3,0.3c-0.2,0-0.2,0.2-0.3,0.2
		c-0.2,0-0.2,0-0.2,0c-0.5-0.2-0.7-0.5-0.5-1c0.2-0.3,0.2-0.5,0.3-0.9c0.2,0,0.2-0.2,0.2-0.2c0-0.2,0-0.2,0-0.2
		c0-0.2-0.2-0.3-0.2-0.5c-0.2-0.7,0-1.2,0.2-1.6c0.2-0.2,0.2-0.3,0.2-0.5c0.2-0.2,0.2-0.3,0.3-0.3c0.2-0.2,0.5-0.3,0.7-0.3
		c0.2,0,0.2-0.2,0.2-0.3c0-0.9,0.2-1.2,0.3-1.2c0,0,0.2,0,0.2-0.2c0,0,0.2,0,0.3,0c0.2,0.2,0.5,0.3,0.5,1c0,0.2,0,0.2,0,0.3
		c0,0.5,0.2,0.9,0.2,1.2c0.2,0.2,0.2,0.3,0.3,0.5c0.2,0.2,0.3,0.5,0.5,0.7c0.3-0.3,0.7-0.7,1.2-0.7l-0.2-0.2c-0.5-0.5-0.7-0.9-1-1.2
		c-0.2-0.5-0.3-0.7-0.5-1.2c0-0.2-0.3-0.5-0.3-0.7c-0.2-0.2,0-0.5,0.2-0.7c0.2-0.2,0.5-0.2,1,0.2c0.3,0.2,0.2,0.2,0.5,0.5
		c0.2,0.3,0.5,0,0.7,0c0.2-0.2,0.5-0.2,0.9-0.2s0.5,0,0.5,0s0.5,0.2,0.9,0.3c0.2,0.3,0.2,0.5,0.3,0.7c0.2,0.2,0.2,0.7,0.5,0.7
		s0.3,0,0.7,0c0.5,0.2,0.9,0.3,1,0.5c0.2,0.2-0.2,0.5-0.3,0.7c-0.2,0.2-0.2,0.2-0.7,0c-0.5,0-0.7,0.2-1.2,0.3
		c-0.3,0.2-0.9,0.5-1.6,0.3h-0.2c0.3,0.3,0.7,0.9,0.7,1.4c0.5-0.2,0.7-0.3,1.2-0.5c0.5-0.3,0.7-0.7,1.2-0.9c0.2,0,0.5-0.2,0.9-0.2
		c0.5,0,0.7,0.5,0.5,1c-0.2,0.3-0.2,0.2-0.5,0.5c-0.3,0.3-0.2,0.7,0,0.9c0.2,1.2-0.2,1.6-0.5,1.9c-0.5,0.7-1.2,0.9-1,1.2
		c0.2,1-0.3,1.6-0.5,1.6c-0.2,0-0.9,0-0.9-1.2c0-0.5,0-1.2-0.2-1.7c-0.2-0.5-0.5-0.5-0.5-1.2c-0.3,0.2-0.7,0.3-1,0.3
		c0,3.5,2.8,5.1,5.4,4.5c0.7-0.2,1.4-0.3,1.9-0.7c-0.2-0.2-0.3-0.5-0.3-0.9c0-0.9,0.7-1.6,1.6-1.6c0.9,0,1.6,0.7,1.6,1.6
		c0,0.9-0.7,1.6-1.6,1.6c-0.2,0-0.3,0-0.3,0c-0.3,3,2.1,5.2,4.9,3.5c-0.2-0.2-0.2-0.5-0.3-0.7c-0.5,0.2-1.7,0.7-2.1,0.7
		s-0.5-0.3-0.5-0.5c0-0.2,0.2-0.3,0.3-0.5c0.2-0.2,0.2-0.9,0.3-1.4c0.2-0.3,0.3-0.3,0.7-0.5c0.3-0.2,0.3-0.2,0.5-0.3
		s0.3-0.3,0.3-0.5c0-0.2,0.2-0.3,0.2-0.3s0.3-0.2,0.5,0.2c0.2,0.2,0.2,0.5,0.2,0.7c0,0.3,0,1.2,0,1.6c0.2-0.2,0.3-0.2,0.5-0.2h0.2
		c0-0.3,0.2-1.2,0.2-1.6c0-0.5-0.2-0.5,0.2-0.7c0.2-0.2,0.5-0.2,0.7,0.2c0.2,0.2,0.7,1,1,1c0.5,0,0.5-0.2,0.9,0.2
		c0.3,0.2,1.2,1,1.2,1.4c0,0.3,0,0.2-0.2,0.3s-1.2-0.2-1.9,0.2c-0.3,0-0.5,0.2-0.9,0.2c0,0.2-0.3,0.3-0.9,0.7
		c-0.5,0.3-0.7,0.5-0.7,0.5h-0.2c-0.7,0.9-1.7,1.4-3,1.6h-0.3c-0.5,0-1-0.2-1.7-0.3c-1.7-0.7-1.4-3.5-1.4-4c-0.3,0.3-1,0.7-1.7,0.9
		c-1.2,0.2-2.6,0.2-3.8-0.3c-2.1-0.9-2.4-3.8-2.4-4.7c-0.2,0.3-0.9,0.9-1.9,1.4c-1,0.5-2.6,0.9-3.8,0.5c-2.1-0.5-2.8-2.1-3.8-3.5
		c-0.2,0.2-0.3,0.5-0.7,0.7c-0.9,0.7-2.4,1.6-4,1.6c-2.3-0.2-3.8-2.4-4.2-3.1c-0.3,0.5-1.9,3-4.2,3.1c-1.6,0.2-3.1-0.7-4.2-1.6
		c-0.3-0.2-0.5-0.5-0.7-0.7c-1,1.4-1.6,3-3.8,3.5c-1.2,0.3-2.8,0-3.8-0.5c-1-0.5-1.7-1.2-1.9-1.4c0,0.9-0.3,3.8-2.4,4.7
		c-1.4,0.5-2.8,0.5-3.8,0.3c-0.7-0.2-1.2-0.3-1.7-0.9c0,0.5,0.3,3.3-1.4,4c-0.5,0.2-1.2,0.3-1.7,0.3H170c-1.2-0.2-2.3-0.7-3-1.6
		h-0.2c0,0-0.2-0.2-0.7-0.5c-0.3-0.3-0.9-0.5-0.9-0.5c-0.2-0.2-0.5-0.2-0.9-0.3c-0.7-0.2-1.7,0.2-1.9-0.2c-0.2-0.2-0.2,0-0.2-0.3
		s0.7-1.2,1.2-1.4c0.3-0.2,0.3-0.2,0.9-0.2c0.3,0,0.9-0.9,1-1c0.2-0.2,0.5-0.3,0.7-0.2c0.2,0.2,0.2,0.2,0.2,0.7
		c0,0.3,0.2,1.2,0.2,1.6h0.2c0.2,0,0.3,0,0.5,0.2c0-0.5,0-1.4,0-1.6s0-0.5,0.2-0.7c0.2-0.2,0.5-0.2,0.5-0.2s0.2,0.2,0.2,0.3
		s0.2,0.5,0.3,0.5c0.2,0.2,0.2,0.2,0.5,0.3c0.3,0.2,0.5,0.2,0.7,0.5c0.2,0.5,0.2,1.2,0.3,1.4c0.2,0.2,0.3,0.3,0.3,0.5
		c0,0.2-0.2,0.5-0.5,0.5c-0.3,0-1.6-0.5-2.1-0.7c0,0.3-0.2,0.5-0.3,0.7c2.8,1.7,5.2-0.3,4.9-3.5c-0.2,0-0.2,0-0.3,0
		c-0.9,0-1.6-0.7-1.6-1.6c0-0.9,0.7-1.6,1.6-1.6c0.9,0,1.6,0.7,1.6,1.6c0,0.3-0.2,0.7-0.3,0.9c0.5,0.3,1.2,0.5,1.9,0.7
		c2.6,0.5,5.6-1,5.6-4.5c-0.5,0-0.9-0.2-1-0.3c0,0.7-0.3,0.7-0.5,1.2c-0.2,0.5-0.2,1.2-0.2,1.7c0,1.2-0.7,1.2-0.9,1.2
		c-0.2-0.2-0.7-0.7-0.5-1.6c0-0.3-0.7-0.5-1-1.2c-0.2-0.3-0.5-0.7-0.3-1.9c0-0.2,0.2-0.7,0-0.9c-0.3-0.2-0.3-0.2-0.5-0.5
		c-0.3-0.5,0-1,0.5-1c0.2,0,0.7,0.2,0.7,0.2c0.5,0.2,0.9,0.7,1.2,0.9c0.5,0.3,0.7,0.5,1,0.7c0.2-0.5,0.3-1,0.7-1.4h-0.2
		c-0.7,0.2-1.2-0.2-1.7-0.3c-0.3-0.2-0.5-0.5-1-0.3c-0.5,0-0.5,0-0.9,0c-0.2-0.2-0.5-0.5-0.3-0.7s0.3-0.5,1-0.5c0.3,0,0.3,0,0.7,0
		c0.5,0,0.5-0.3,0.5-0.7c0.2-0.2,0.2-0.5,0.3-0.7c0.3-0.3,0.9-0.3,0.9-0.3s0.2-0.2,0.5,0c0.3,0,0.7,0,0.9,0.2s0.5,0.3,0.7,0
		c0.2-0.3,0.2-0.3,0.5-0.5c0.5-0.3,0.7-0.2,1-0.2c0.2,0.2,0.2,0.5,0.2,0.7c-0.2,0.2-0.3,0.5-0.5,0.7c-0.2,0.5-0.2,0.7-0.3,1.2
		c-0.2,0.5-0.3,0.9-1,1.2l-0.3,0.2c0.7,0,1,0.3,1.4,0.7c0.2-0.5,0.5-0.9,0.7-1.2c0.2-0.5,0.3-1,0.3-1.6c0.2-1.2,0.9-1.2,1-1.2
		c0.2,0.2,0.5,0.3,0.5,1.4c0,0.3,0.7,0.3,1.2,1c0.2,0.3,0.7,0.9,0.3,1.9c0,0.2-0.3,0.7,0,1s0.2,0.5,0.3,0.9c0.3,0.5-0.2,1.2-0.7,1
		c-0.3,0-0.5-0.3-0.7-0.5c-0.7-0.5-0.9-0.5-1.2-0.9s-0.7-0.3-1-0.5c-0.2,0-0.3-0.2-0.5-0.2c0,0.3-0.2,0.5-0.5,0.9
		c0.5,0.7,1.2,1,1.7,1.4c3,1.6,6.5-0.9,6.8-3.5c-1-0.2-1.7-1-1.7-2.1c0-1.2,0.9-2.1,2.1-2.1c1,0,2.1,0.9,2.1,2.1
		c0,0.9-0.5,1.6-1.2,1.9c0.2,0.2,0.3,0.5,0.5,0.7c0.9,1.2,2.4,1.9,4.5,1.6c2.3-0.3,3-2.4,3.1-3.1c-0.7-0.2-1.2-0.7-1.6-1.2
		c0,0.3-0.2,0.9-0.5,1.2s-0.7,1-0.9,1.4c-0.2,0.3-0.3,0.9-0.5,1c-0.2,0.2-0.3,0.2-0.5,0.2c-0.2,0-0.5-0.3-0.5-0.9
		c0-0.3-0.2-1.2-0.2-1.4c-0.2-0.3-1-0.7-1-1.9s0.7-1.4,0.9-1.7c0.2-0.2-0.2-1.2-0.2-1.6c0-0.3,0.3-0.9,0.5-0.9c0.3,0,1,0.3,1,0.5
		c0.2,0.3,0.3,0.7,0.7,0.9c0.5,0.5,0.7,0.5,1,0.9c0.2,0.2,0.2,0.3,0.3,0.7c0.2-0.7,0.9-1.4,1.6-1.6h-0.3c-0.7-0.2-1.2-0.5-1.6-1
		c-0.3-0.3-0.3-0.7-1-0.9c-0.5-0.2-0.5-0.2-0.7-0.3c-0.2-0.2-0.2-0.7,0-0.9s0.5-0.3,1.2-0.3c0.3,0.2,0.3,0.2,0.7,0.3
		c0.3,0.2,0.5,0.2,0.7-0.2c0.2-0.2,0.5-0.7,0.7-0.9c0.3-0.2,0.7-0.2,0.7-0.2s0.3,0,0.7,0.2s0.7,0.7,0.7,0.9c0.2,0.2,0.3,0.3,0.7,0.2
		s0.3-0.2,0.7-0.3c0.5-0.2,1,0.2,1.2,0.3c0.2,0.2,0.2,0.5,0,0.9c-0.2,0.2-0.2,0.2-0.7,0.3c-0.5,0.2-0.5,0.5-1,0.9
		c-0.3,0.3-0.7,0.9-1.6,1h-0.2c0.7,0.2,1.4,0.7,1.6,1.4c0-0.2,0.2-0.3,0.3-0.5c0-0.2,0.2-0.2,0.2-0.2c0.2-0.2,0.3-0.3,0.5-0.5
		c0.2-0.2,0.2-0.2,0.3-0.2c0.2,0,0.2-0.2,0.2-0.2c0.2-0.2,0.3-0.3,0.5-0.7c0.2-0.2,0.3-0.3,0.5-0.5c0.2-0.2,0.3-0.2,0.5-0.2
		c0.2,0.2,0.5,0.5,0.5,0.9s-0.3,1.4-0.2,1.6c0,0.2,0.2,0.2,0.3,0.3c0.2,0.2,0.5,0.5,0.5,1.2v0.2c0,0.5-0.3,0.9-0.5,1.2
		c-0.2,0.2-0.3,0.3-0.5,0.5c-0.2,0.3-0.2,1-0.2,1.4c0,0.3-0.2,0.5-0.3,0.7l-0.2,0.2c-0.2,0-0.3,0-0.3,0c-0.2,0-0.2,0-0.2-0.2
		c-0.2-0.2-0.2-0.2-0.3-0.5c-0.2-0.2-0.2-0.3-0.2-0.5c-0.2-0.2-0.2-0.3-0.3-0.5c-0.2-0.3-0.3-0.5-0.5-0.9c-0.3-0.3-0.5-0.9-0.5-1.2
		c-0.3,0.7-0.9,1.2-1.6,1.2c0.2,0.7,1,2.8,3.3,3.1c2.1,0.3,3.7-0.5,4.5-1.6c0.2-0.2,0.3-0.5,0.5-0.7c0,0-0.2,0-0.2-0.2
		C208.6,87.4,208.4,87.2,208.3,87.1"/>
	<path fill="#FFFFFF" d="M176.5,82c0-1.4,1-2.6,2.4-2.6c1.4,0,2.4,1.2,2.4,2.6c0,1.4-1,2.6-2.4,2.6C177.7,84.4,176.5,83.4,176.5,82"
		/>
	<path fill="#FFFFFF" d="M177.7,67.5c0-1.4,1-2.4,2.4-2.4c1.4,0,2.4,1.2,2.4,2.4c0,1.4-1,2.6-2.4,2.6S177.7,68.9,177.7,67.5"/>
	<path fill="#FFFFFF" d="M181.7,64.9c0-1,0.9-1.9,1.9-1.9s1.9,0.9,1.9,1.9s-0.9,1.9-1.9,1.9S181.7,65.9,181.7,64.9"/>
	<path fill="#FFFFFF" d="M185.2,63.8c0-1,0.9-1.9,1.7-1.9c1,0,1.9,0.9,1.9,1.9c0,1-0.9,1.9-1.9,1.9
		C186.1,65.6,185.2,64.9,185.2,63.8"/>
	<path fill="#FFFFFF" d="M188.9,63.7c0-0.9,0.7-1.6,1.6-1.6c0.9,0,1.6,0.7,1.6,1.6s-0.7,1.6-1.6,1.6
		C189.6,65.2,188.9,64.5,188.9,63.7"/>
	<path fill="#FFFFFF" d="M192,64c0-0.9,0.7-1.6,1.6-1.6c0.9,0,1.6,0.7,1.6,1.6c0,0.9-0.7,1.6-1.6,1.6C192.5,65.6,192,64.9,192,64"/>
	<path fill="#FFFFFF" d="M194.8,64.7c0-0.7,0.5-1.2,1-1.2c0.7,0,1,0.5,1,1.2s-0.5,1.2-1,1.2C195.3,65.9,194.8,65.4,194.8,64.7"/>
	<path fill="#FFFFFF" d="M196.9,65.7c0-0.5,0.3-0.9,0.9-0.9c0.5,0,1,0.5,1,0.9c0,0.5-0.3,1-1,1C197.4,66.6,196.9,66.3,196.9,65.7"/>
	<path fill="#FFFFFF" d="M198.7,66.6c0-0.9,0.7-1.6,1.6-1.6s1.6,0.7,1.6,1.6c0,0.9-0.7,1.6-1.6,1.6
		C199.4,68.2,198.7,67.5,198.7,66.6"/>
	<path fill="#FFFFFF" d="M198.5,69.9c0-1,0.7-1.7,1.7-1.7s1.7,0.9,1.7,1.7c0,1-0.9,1.7-1.7,1.7C199.2,71.9,198.5,71,198.5,69.9"/>
	<path fill="#FFFFFF" d="M198.1,74c0-1.2,1-2.3,2.1-2.3c1.2,0,2.1,1,2.1,2.3c0,1.2-1,2.3-2.1,2.3C199,76.1,198.1,75.2,198.1,74"/>
	<path fill="#FFFFFF" d="M197.4,78.8c0-1.6,1.2-2.8,2.8-2.8c1.6,0,2.8,1.2,2.8,2.8s-1.2,2.8-2.8,2.8S197.4,80.4,197.4,78.8"/>
	<path fill="#FFFFFF" d="M163.9,94.2c0-1.2,1-2.3,2.3-2.3c1.2,0,2.3,1,2.3,2.3c0,1.2-1,2.3-2.3,2.3
		C164.9,96.5,163.9,95.4,163.9,94.2"/>
	<path fill="#FFFFFF" d="M161.6,89.8c0-1.4,1.2-2.6,2.6-2.6c1.4,0,2.4,1.2,2.4,2.6s-1.2,2.6-2.4,2.6
		C162.9,92.5,161.6,91.4,161.6,89.8"/>
	<path fill="#FFFFFF" d="M160.9,85.1c0-1.4,1-2.4,2.4-2.4c1.2,0,2.3,1,2.3,2.4c0,1.2-1,2.4-2.3,2.4C162,87.6,160.9,86.5,160.9,85.1"
		/>
	<path fill="#FFFFFF" d="M161.8,80.6c0-1.2,0.9-2.3,2.1-2.3c1.2,0,2.1,1,2.1,2.3c0,1.2-1,2.3-2.1,2.3
		C162.7,82.9,161.8,82,161.8,80.6"/>
	<path fill="#FFFFFF" d="M163.5,77.1c0-1,0.9-1.9,1.9-1.9s1.9,0.9,1.9,1.9s-0.9,1.9-1.9,1.9S163.5,78.1,163.5,77.1"/>
	<path fill="#FFFFFF" d="M166.3,74.3c0-0.9,0.7-1.7,1.7-1.7c0.9,0,1.7,0.9,1.7,1.7s-0.7,1.7-1.7,1.7
		C167.2,76.1,166.3,75.4,166.3,74.3"/>
	<path fill="#FFFFFF" d="M169.5,72.9c0-0.9,0.7-1.6,1.6-1.6c0.9,0,1.6,0.7,1.6,1.6s-0.7,1.6-1.6,1.6
		C170.2,74.5,169.5,73.8,169.5,72.9"/>
	<path fill="#FFFFFF" d="M172.5,72.2c0-0.7,0.5-1.4,1.2-1.4c0.7,0,1.4,0.5,1.4,1.4c0,0.7-0.7,1.4-1.4,1.4S172.5,73.1,172.5,72.2"/>
	<path fill="#FFFFFF" d="M218.9,82c0-1.4,1-2.6,2.4-2.6c1.4,0,2.4,1.2,2.4,2.6c0,1.4-1,2.6-2.4,2.6C220,84.4,218.9,83.4,218.9,82"/>
	<path fill="#FFFFFF" d="M217.9,67.5c0-1.4,1-2.4,2.4-2.4s2.4,1.2,2.4,2.4c0,1.4-1,2.6-2.4,2.6C218.9,70.1,217.9,68.9,217.9,67.5"/>
	<path fill="#FFFFFF" d="M215.1,64.9c0-1,0.9-1.9,1.9-1.9s1.9,0.9,1.9,1.9s-0.9,1.9-1.9,1.9S215.1,65.9,215.1,64.9"/>
	<path fill="#FFFFFF" d="M211.6,63.8c0-1,0.9-1.9,1.7-1.9c1,0,1.9,0.9,1.9,1.9c0,1-0.9,1.9-1.9,1.9
		C212.4,65.6,211.6,64.9,211.6,63.8"/>
	<path fill="#FFFFFF" d="M208.4,63.7c0-0.9,0.7-1.6,1.6-1.6s1.6,0.7,1.6,1.6s-0.7,1.6-1.6,1.6S208.4,64.5,208.4,63.7"/>
	<path fill="#FFFFFF" d="M205.6,64c0-0.9,0.7-1.6,1.4-1.6c0.9,0,1.6,0.7,1.6,1.6c0,0.9-0.7,1.6-1.6,1.6
		C206.2,65.6,205.6,64.9,205.6,64"/>
	<path fill="#FFFFFF" d="M203.4,64.7c0-0.7,0.5-1.2,1.2-1.2s1,0.5,1,1.2s-0.5,1.2-1,1.2C203.9,65.9,203.4,65.4,203.4,64.7"/>
	<path fill="#FFFFFF" d="M201.6,65.7c0-0.5,0.3-0.9,1-0.9c0.5,0,0.9,0.5,0.9,0.9c0,0.5-0.5,1-0.9,1
		C202.1,66.6,201.6,66.3,201.6,65.7"/>
	<path fill="#FFFFFF" d="M233.8,89.8c0-1.4,1-2.6,2.4-2.6c1.4,0,2.4,1.2,2.4,2.6s-1,2.6-2.4,2.6S233.8,91.4,233.8,89.8"/>
	<path fill="#FFFFFF" d="M235,85.1c0-1.2,1-2.3,2.3-2.3c1.2,0,2.3,1,2.3,2.3c0,1.2-1,2.3-2.3,2.3C236,87.6,235,86.5,235,85.1"/>
	<path fill="#FFFFFF" d="M234.5,80.6c0-1.2,1-2.1,2.1-2.1c1.2,0,2.1,0.9,2.1,2.1s-0.9,2.1-2.1,2.1C235.5,82.9,234.5,81.8,234.5,80.6
		"/>
	<path fill="#FFFFFF" d="M233.1,77.1c0-1,0.9-1.9,1.9-1.9s1.9,0.9,1.9,1.9S236,79,235,79S233.1,78.1,233.1,77.1"/>
	<path fill="#FFFFFF" d="M230.6,74.3c0-0.9,0.7-1.7,1.7-1.7c0.9,0,1.7,0.9,1.7,1.7s-0.7,1.7-1.7,1.7
		C231.5,76.1,230.6,75.4,230.6,74.3"/>
	<path fill="#FFFFFF" d="M228,72.9c0-0.9,0.7-1.6,1.6-1.6c0.9,0,1.6,0.7,1.6,1.6s-0.7,1.6-1.6,1.6C228.5,74.5,228,73.8,228,72.9"/>
	<path fill="#FFFFFF" d="M225.4,72.2c0-0.7,0.5-1.4,1.2-1.4s1.4,0.5,1.4,1.4c0,0.7-0.7,1.4-1.4,1.4
		C225.9,73.6,225.4,73.1,225.4,72.2"/>
	<path fill="#FFFFFF" d="M175.1,71.7c0-1.4,1.2-2.6,2.6-2.6s2.4,1.2,2.4,2.6c0,1.4-1,2.6-2.4,2.6C176.3,74.3,175.1,73.1,175.1,71.7"
		/>
	<path fill="#FFFFFF" d="M175.1,71.7c0-1.4,1.2-2.6,2.6-2.6s2.4,1.2,2.4,2.6c0,1.4-1,2.6-2.4,2.6C176.3,74.3,175.1,73.1,175.1,71.7"
		/>
	<path fill="#FFFFFF" d="M174,76.9c0-1.6,1.2-3,3-3c1.6,0,3,1.4,3,3c0,1.6-1.2,3-3,3C175.4,79.9,174,78.7,174,76.9"/>
	<path fill="#FFFFFF" d="M220.5,71.7c0-1.4,1-2.6,2.4-2.6c1.4,0,2.4,1.2,2.4,2.6c0,1.4-1,2.4-2.4,2.4S220.5,73.1,220.5,71.7"/>
	<path fill="#FFFFFF" d="M220.5,77.1c0-1.6,1.2-3,3-3c1.6,0,3,1.4,3,3c0,1.6-1.2,3-3,3C221.9,80.1,220.5,78.7,220.5,77.1"/>
	<path fill="#FFFFFF" d="M200,101.4l-5.8-3.7L200,94l5.8,3.7C203.9,98.9,202,100.2,200,101.4"/>
	<path fill="#FFFFFF" d="M200,94.9c1.4,0.9,2.8,1.9,4.2,2.6l-4.2,2.8l-4.2-2.8L200,94.9z"/>
</g>
<polygon fill="#FFFFFF" points="219.6,99.6 210.5,96.3 209.1,101.2 218.2,104.3 "/>
<polygon fill="#FFFFFF" points="218.7,100.2 210.9,97.4 210,100.5 217.9,103.3 "/>
<polygon fill="#FFFFFF" points="228.3,102.4 228.2,105.6 225.5,106.8 223.5,102.8 "/>
<g>
	<path fill="#FFFFFF" d="M228.7,102.8l-5.1,0.2l2.4,4c0.2,0.3-0.3,0.9-0.5,0.7l-2.6-5.2c0,0,0.5-0.2,6.1-0.5
		C229.2,101.9,229.2,102.8,228.7,102.8"/>
</g>
<polygon fill="#FFFFFF" points="180.5,99.6 189.6,96.3 191.1,101.2 181.9,104.3 "/>
<polygon fill="#FFFFFF" points="181.4,100.2 189.2,97.4 190.3,100.5 182.4,103.3 "/>
<polygon fill="#FFFFFF" points="172.3,102.4 172.5,105.6 175.1,106.8 177.2,102.8 "/>
<path fill="#FFFFFF" d="M171.9,102.8l5.1,0.2l-2.4,4c-0.2,0.3,0.3,0.9,0.5,0.7l2.6-5.2c0,0-0.5-0.2-6.1-0.5
	C171.4,101.9,171.4,102.8,171.9,102.8"/>
<path fill="#FFFFFF" d="M232,94.2c0-1.2,1-2.3,2.3-2.3c1.2,0,2.3,1,2.3,2.3c0,1.2-1,2.3-2.3,2.3C233.1,96.5,232,95.4,232,94.2"/>
<path fill="#FFFFFF" d="M166.3,124.4c2.4,30,13.6,54.1,36.9,72.8c-2.1,2.1-3.8,4-4.7,4.9c-24.8-20.6-38.6-51.9-38.8-84.5h78.2v6.8
	C237.9,124.4,166.3,124.4,166.3,124.4z"/>
<path fill="#FFFFFF" d="M237.8,132.6h-61.5c4,27.4,12.7,42.6,33,58.2c1.4-1.4,3.1-3.3,4.4-4.4c-18.3-13.4-26.4-28.8-29.2-46.6h53.1
	v-7.2H237.8z"/>
<g>
</g>
<g>
</g>
<g>
</g>
<g>
</g>
<g>
</g>
<g>
</g>
<g>
</g>
<g>
</g>
<g>
</g>
<g>
</g>
<g>
</g>
<g>
</g>
<g>
</g>
<g>
</g>
<g>
</g>
</svg>
