<svg xmlns="http://www.w3.org/2000/svg" width="466" height="567" viewBox="0 0 466 567">
  <g fill="none">
    <path fill="#A38D44" d="M292.5302,152.85598 C357.1142,182.23198 403.9142,244.29598 411.4742,317.66398 L465.7622,339.69598 L411.4742,359.99998 C400.7462,462.45598 313.6982,542.73598 208.5782,542.73598 C155.0822,542.73598 106.2662,521.92798 69.76223,488.01598 L21.30624,506.15998 L21.30624,557.63998 L2.15424,566.92798 L2.15424,168.91198 C1.07424,168.26398 0.35424,167.03998 0.35424,165.59998 L0.35424,160.84798 C0.35424,158.68798 2.08224,156.88798 4.24224,156.88798 L23.25024,156.88798 C25.41024,156.88798 27.21024,158.68798 27.21024,160.84798 L27.21024,161.78398 L77.82622,182.30398 C91.93821,170.49598 107.7062,160.55998 124.6262,152.85598 C124.4822,152.49598 124.3382,152.13598 124.1222,151.77598 L110.2982,151.55998 L119.2982,141.33598 C119.0102,140.90398 118.7942,140.47198 118.5782,140.11198 C116.3462,140.61598 114.3302,139.17598 113.3942,137.08798 C112.8182,135.64798 112.8902,134.13598 113.6102,132.91198 C113.6822,130.89598 113.5382,130.31998 111.5222,129.45598 C110.4422,129.02398 109.0742,128.44798 107.5622,126.64798 C106.3382,125.13598 105.4742,123.40798 104.7542,121.96798 C103.1702,118.58398 103.0262,118.07998 99.2822,118.15198 C95.8262,118.29598 91.29021,118.43998 90.42621,113.90398 C89.77821,110.59198 91.79421,108.07198 94.02621,106.34398 C93.37821,104.61598 93.52221,102.67198 94.45821,101.01598 C91.00221,99.575975 89.63421,95.471975 91.36221,92.231975 C88.33821,90.071974 87.69021,85.895974 89.99421,83.015974 C86.46622,80.207974 86.97021,74.663974 90.93021,72.503974 C88.48221,68.831974 90.35421,63.719974 94.81821,62.711974 C93.45021,58.031974 97.6982,53.783974 102.2342,54.719974 C102.2342,49.967974 107.3462,47.087974 111.4502,49.103974 C111.4502,43.703974 117.5702,40.895974 121.6022,43.991974 C123.7622,39.239974 130.3862,38.951974 132.9782,43.415974 C133.4102,37.799974 141.1862,36.863974 143.1302,42.047974 C144.2102,37.511974 150.1142,36.575974 152.6342,40.319974 C153.7142,38.807974 155.5142,37.943974 157.3862,38.015974 C157.7462,34.343974 161.4902,32.111974 164.8022,33.407974 C165.9542,30.239974 169.9862,29.303974 172.3622,31.607974 C173.3702,28.295974 177.5462,27.287974 179.9942,29.591974 C181.0022,26.279974 185.1782,25.271974 187.6262,27.647974 C188.7062,24.047974 193.3142,23.255974 195.6182,26.063974 L198.7862,26.063974 C199.0022,22.463974 201.0902,19.439974 204.1142,17.855974 L204.1142,14.615974 L198.8582,14.615974 L198.8582,6.6959738 L204.1142,6.6959738 L204.1142,-1.9224988e-05 L213.0422,-1.9224988e-05 L213.0422,6.6959738 L218.3702,6.6959738 L218.3702,14.615974 L213.0422,14.615974 L213.0422,17.855974 C213.9782,18.359974 214.8422,18.935974 215.5622,19.655974 C217.2182,21.311974 218.2262,23.615974 218.3702,26.063974 L221.5382,26.063974 C223.8422,23.255974 228.5222,24.047974 229.6022,27.647974 C232.0502,25.271974 236.0822,26.279974 237.1622,29.591974 C239.5382,27.287974 243.7142,28.295974 244.7222,31.607974 C247.0982,29.303974 251.2022,30.239974 252.2822,33.407974 C255.5942,32.111974 259.4102,34.343974 259.6982,38.015974 C261.5702,37.943974 263.3702,38.807974 264.4502,40.319974 C266.9702,36.575974 272.8742,37.511974 273.9542,42.047974 C275.8982,36.863974 283.6742,37.799974 284.1782,43.415974 C286.7702,38.951974 293.3942,39.239974 295.4822,43.991974 C299.5142,40.895974 305.7062,43.703974 305.7062,49.103974 C309.7382,47.087974 314.8502,49.967974 314.8502,54.719974 C319.4582,53.783974 323.6342,58.031974 322.3382,62.711974 C326.7302,63.719974 328.6022,68.831974 326.1542,72.503974 C330.1862,74.663974 330.6182,80.207974 327.0902,83.015974 C329.3942,85.895974 328.8182,90.071974 325.7942,92.231975 C327.5222,95.471975 326.0822,99.575975 322.6262,101.01598 C323.5622,102.67198 323.7062,104.61598 323.0582,106.34398 C325.2902,108.07298 327.3062,110.59198 326.6582,113.90398 C325.7942,118.43998 321.2582,118.29598 317.8742,118.15198 C314.1302,118.07998 313.9862,118.58398 312.3302,121.96798 C311.6102,123.40798 310.8182,125.13598 309.5222,126.64798 C308.0822,128.44798 306.7142,129.02398 305.6342,129.45598 C303.5462,130.31998 303.4022,130.89598 303.5462,132.91198 C304.2662,134.13598 304.3382,135.64798 303.6902,137.08798 C302.8262,139.17598 300.7382,140.61598 298.5062,140.11198 C298.2902,140.47198 298.0742,140.90398 297.8582,141.33598 L306.7862,151.55998 L292.9622,151.77598 C292.8182,152.13598 292.6742,152.49598 292.5302,152.85598 L292.5302,152.85598 Z M187.6262,226.87198 L301.4582,273.09598 C280.7942,243.93598 246.8102,224.92798 208.5782,224.92798 C201.4502,224.92798 194.3942,225.57598 187.6262,226.87198 L187.6262,226.87198 L187.6262,226.87198 Z M304.2662,400.17598 L176.6102,447.98398 C186.7622,450.93598 197.4902,452.51998 208.5782,452.51998 C248.6102,452.51998 284.0342,431.63998 304.2662,400.17598 Z"/>
    <path fill="#FFF" d="M208.5782,137.66398 C100.5782,137.66398 12.01824,223.63198 7.69824,330.47998 C7.77024,330.47998 7.84224,330.47998 7.91424,330.47998 L18.93024,330.47998 C23.25024,229.75198 106.7702,148.89598 208.5782,148.89598 C303.8342,148.89598 383.1782,219.81598 396.4262,311.54398 L408.3782,316.36798 C397.2182,216.14398 311.7542,137.66398 208.5782,137.66398 L208.5782,137.66398 Z M13.24224,386.42398 C21.30624,419.18398 37.36224,448.84798 59.32224,473.18398 C69.11423,484.05598 86.46622,488.08798 100.3622,484.41598 C119.6582,479.30398 131.6822,462.31198 131.7542,442.65598 C131.7542,434.51998 127.9382,423.43198 122.3942,417.38398 C108.2822,401.97598 98.2742,382.82398 94.02621,361.58398 L94.02621,381.23998 C94.02621,382.67998 93.45021,383.97598 92.51421,384.91198 C91.79421,385.63198 90.78621,386.13598 89.77821,386.35198 C95.32221,400.17598 103.2422,412.77598 113.0342,423.79198 C117.2102,428.47198 119.8742,434.23198 120.8822,440.49598 C122.6102,451.43998 118.4342,462.16798 109.6502,468.93598 C100.6502,475.84798 88.69821,477.21598 78.25822,472.75198 C72.93023,470.51998 68.25023,466.48798 64.50623,462.09598 C49.96224,445.17598 38.37024,425.66398 30.52224,404.35198 C28.36224,398.51998 26.41824,392.54398 24.83424,386.42398 L13.24224,386.42398 L13.24224,386.42398 L13.24224,386.42398 Z M92.01021,331.55998 C91.14621,330.91198 90.06621,330.47998 88.84221,330.47998 L80.77822,330.47998 C85.02622,263.80798 140.8262,210.67198 208.5782,210.67198 C258.6182,210.67198 302.1782,239.75998 323.2022,281.87998 L306.3542,275.03998 C285.4742,243.14398 249.4022,221.97598 208.5782,221.97598 C146.6582,221.97598 95.68221,270.57598 92.01021,331.55998 L92.01021,331.55998 L92.01021,331.55998 Z M308.8022,398.44798 L324.6422,392.54398 C304.2662,436.24798 259.8422,466.77598 208.5782,466.77598 C193.8902,466.77598 179.7062,464.25598 166.6022,459.64798 C155.1542,455.68798 144.4262,450.07198 134.7062,443.15998 C134.7062,443.01598 134.7062,442.79998 134.7062,442.65598 C134.7062,436.67998 133.1942,430.99198 130.6742,425.59198 C151.4102,444.16798 178.6982,455.54398 208.5782,455.54398 C251.0582,455.54398 288.4262,432.57598 308.8022,398.44798 L308.8022,398.44798 Z M396.4262,365.61598 L408.3062,361.15198 C397.0742,461.44798 311.6822,539.78398 208.5782,539.78398 C155.0102,539.78398 106.2662,518.61598 70.12223,484.27198 C77.10622,487.58398 84.81022,489.09598 92.44221,488.66398 C107.4902,500.32798 124.3382,509.83198 142.4822,516.59998 C163.0742,524.30398 185.3942,528.55198 208.5782,528.55198 C303.9062,528.55198 383.3222,457.48798 396.4262,365.61598 L396.4262,365.61598 Z M134.4902,446.61598 C144.0662,453.23998 154.5062,458.56798 165.5942,462.45598 C179.0582,467.13598 193.5302,469.72798 208.5782,469.72798 C262.0742,469.72798 308.2982,437.25598 328.6022,391.03198 L393.2582,366.83998 C379.6502,456.47998 301.8902,525.59998 208.5782,525.59998 C185.6822,525.59998 163.7942,521.42398 143.4902,513.86398 C126.5702,507.52798 110.8742,498.88798 96.6902,488.23198 C98.1302,487.94398 99.6422,487.65598 101.0822,487.29598 C120.3782,482.18398 132.9782,465.91198 134.4902,446.61598 L134.4902,446.61598 Z M393.2582,310.24798 L327.3062,283.46398 C306.4262,238.82398 260.9942,207.71998 208.5782,207.71998 C139.1702,207.71998 82.07422,262.22398 77.82622,330.47998 L21.88224,330.47998 C26.20224,231.40798 108.4262,151.84798 208.5782,151.84798 C301.8182,151.84798 379.5062,220.82398 393.2582,310.24798 L393.2582,310.24798 L393.2582,310.24798 Z M27.93024,386.42398 L86.61022,386.42398 C92.29821,400.96798 100.5782,414.21598 110.8022,425.73598 C114.6182,429.98398 117.0662,435.23998 117.9302,440.92798 C119.5142,450.86398 115.8422,460.51198 107.8502,466.55998 C99.7142,472.82398 88.84221,474.04798 79.41022,470.08798 C74.51422,467.99998 70.19423,464.18398 66.73823,460.15198 C52.48224,443.51998 41.03424,424.29598 33.25824,403.34398 C31.24224,397.79998 29.44224,392.18398 27.93024,386.42398 L27.93024,386.42398 Z"/>
    <polygon fill="#A38D44" points="151.482 506.448 137.298 500.688 150.69 467.568 157.314 470.232 146.37 497.16 154.002 500.184"/>
    <path fill="#A38D44" d="M179.2022 476.42398L178.9142 513.14398 171.6422 511.34398 172.0022 505.29598 165.1622 503.56798 162.2822 509.03998 155.3702 507.31198 172.0022 474.62398 179.2022 476.42398 179.2022 476.42398 179.2022 476.42398zM172.2182 499.96798L173.0822 484.05598 167.1062 498.74398 172.2182 499.96798zM214.8422 486.21598C211.9622 485.35198 208.7222 485.85598 206.3462 487.72798 201.6662 491.54398 202.6742 501.11998 205.4102 505.58398 207.3542 508.75198 211.1702 509.39998 214.4822 508.60798L214.3382 514.94398C208.8662 517.24798 203.3222 514.15198 200.0102 510.26398 193.2422 502.63198 194.6102 486.64798 203.7542 481.24798 207.0662 479.30398 211.3862 478.72798 214.9862 480.31198L214.8422 486.21598 214.8422 486.21598zM250.8422 473.39998C256.8182 471.74398 262.6502 474.19198 264.5222 480.38398 265.6022 484.27198 264.6662 487.36798 262.0022 490.46398L272.6582 504.35998 265.5302 506.44798 254.7302 492.11998 259.4102 508.17598 252.2102 510.26398 242.2742 475.91998 250.8422 473.39998 250.8422 473.39998 250.8422 473.39998zM250.6982 479.66398L253.2182 488.59198C257.5382 488.30398 259.7702 483.26398 256.5302 480.16798 255.0902 478.79998 252.7142 478.58398 250.6982 479.66398zM268.9142 466.41598L280.6502 488.87998C281.8742 491.18398 283.3142 492.62398 285.5462 491.83198 288.6422 490.67998 288.7862 489.16798 287.2742 486.28798L275.1782 463.10398 281.1542 460.00798 293.5382 483.83998C295.9862 488.51998 296.2022 492.91198 291.3062 495.79198 290.0102 496.58398 288.7142 497.30398 287.3462 497.95198 281.9462 500.32798 277.6982 497.30398 275.0342 492.69598L262.9382 469.51198 268.9142 466.41598 268.9142 466.41598zM285.7622 454.53598C285.7622 454.53598 283.1702 450.79198 285.1142 447.69598 286.5542 445.46398 291.0902 444.88798 291.5222 443.66398 291.7382 443.23198 291.5222 442.65598 290.8742 441.79198L294.0422 439.19998C296.4902 442.94398 296.7782 445.24798 294.6902 447.11998 292.9622 448.70398 290.8742 448.63198 289.1462 449.85598 288.5702 450.28798 288.2822 450.86398 289.0022 451.94398L285.7622 454.53598 285.7622 454.53598z"/>
    <polygon fill="#A38D44" points="311.538 482.328 305.706 486.432 284.898 457.416 290.658 453.24 310.17 466.344 297.354 448.488 302.754 444.6 323.634 473.616 318.45 477.36 299.154 465.048"/>
    <path fill="#A38D44" d="M313.4822 432.71998L345.6662 450.35998 340.6982 455.90398 335.5142 452.73598 330.7622 457.99198 334.2182 463.10398 329.3942 468.35998 308.4422 438.26398 313.4822 432.71998 313.4822 432.71998 313.4822 432.71998zM330.9062 450.07198L317.2982 441.71998 327.3782 453.88798 330.9062 450.07198 330.9062 450.07198zM218.2982 488.51998C217.7222 491.39998 217.6502 494.85598 218.0102 498.16798 218.6582 503.99998 221.3222 511.84798 227.5142 513.93598 230.1782 514.79998 233.8502 514.43998 236.2982 513.07198 241.9862 509.90398 243.0662 501.62398 242.6342 495.79198 242.3462 492.47998 241.6262 489.09598 240.4742 486.35998 235.3622 473.90398 221.0342 475.27198 218.2982 488.51998L218.2982 488.51998zM230.0342 508.10398C226.5062 506.95198 225.2102 500.25598 224.9222 497.23198 224.7062 494.99998 224.7062 492.76798 224.9222 490.89598 225.7862 482.39998 232.1222 481.82398 234.4982 489.95998 235.0742 491.75998 235.5062 493.91998 235.6502 496.22398 235.9382 499.24798 235.9382 506.08798 232.7702 507.88798 232.1222 508.24798 230.7542 508.39198 230.0342 508.10398z"/>
    <polygon fill="#A38D44" points="48.954 280.872 55.794 283.464 57.882 277.992 64.434 280.512 62.346 286.056 69.546 288.792 72.066 282.312 78.258 284.616 73.074 298.224 40.098 285.408 45.21 271.872 51.402 274.32"/>
    <path fill="#A38D44" d="M55.50624,250.77598 L90.93021,260.63998 L87.25821,267.19198 L81.57022,265.24798 L78.11422,271.43998 L82.57822,275.61598 L79.19422,281.80798 L51.83424,257.32798 L55.50624,250.77598 L55.50624,250.77598 L55.50624,250.77598 Z M76.45822,263.73598 L61.33824,258.69598 L73.93822,268.27198 L76.45822,263.73598 Z"/>
    <polygon fill="#A38D44" points="100.866 247.176 91.65 259.344 63.066 237.816 67.386 232.128 90.57 249.624 95.466 243.072"/>
    <polygon fill="#A38D44" points="137.658 216.792 124.842 225.072 105.402 195.12 111.306 191.232 127.146 215.568 134.058 211.176"/>
    <path fill="#A38D44" d="M162.3542 168.19198C164.5142 167.75998 166.8182 168.40798 168.6182 169.48798 171.2102 170.99998 172.9382 173.37598 173.7302 176.25598 174.5222 179.20798 173.9462 182.08798 171.6422 184.24798 175.1702 184.82398 177.5462 187.34398 178.4102 190.65598 179.9222 196.05598 177.0422 201.31198 171.6422 202.75198L162.6422 205.12798 153.3542 170.63998 162.3542 168.19198 162.3542 168.19198 162.3542 168.19198zM168.0422 197.92798C170.4902 197.78398 171.9302 195.91198 171.7862 193.46398 171.6422 191.51998 170.4182 189.57598 168.7622 188.71198 167.7542 188.27998 166.6742 188.06398 165.5222 188.63998L168.0422 197.92798 168.0422 197.92798zM164.1542 183.52798C165.0902 183.59998 165.8822 183.23998 166.4582 182.66398 168.3302 180.93598 167.4662 176.18398 165.5222 174.95998 164.6582 174.45598 163.5062 174.52798 161.8502 174.95998L164.1542 183.52798zM193.2422 162.21598C193.6742 162.21598 194.1782 162.21598 194.6822 162.21598 199.1462 162.07198 204.6902 161.27998 208.3622 163.94398 211.7462 166.31998 213.4742 169.55998 214.5542 173.44798 216.2822 179.85598 215.6342 189.79198 210.5222 194.61598 208.5062 196.55998 205.6262 197.56798 201.9542 197.71198L194.4662 197.92798 193.2422 162.21598 193.2422 162.21598 193.2422 162.21598zM201.3782 191.73598C208.2902 191.15998 208.0742 183.45598 207.9302 178.19998 207.4982 173.59198 205.9862 168.55198 200.5142 168.33598L201.3782 191.73598z"/>
    <polygon fill="#A38D44" points="229.746 169.92 228.882 177.264 234.714 177.984 233.85 185.04 228.018 184.32 227.01 192.024 233.994 192.888 233.13 199.584 218.802 197.784 223.122 162.288 237.522 164.088 236.658 170.784"/>
    <polygon fill="#A38D44" points="324.21 204.408 337.818 217.152 332.994 222.336 328.89 218.52 309.306 239.472 303.906 234.36 323.418 213.408 319.314 209.592"/>
    <polygon fill="#A38D44" points="341.49 221.976 346.026 227.016 319.458 250.92 314.922 245.952"/>
    <polygon fill="#A38D44" points="364.458 254.088 329.178 265.392 325.938 260.424 350.346 232.272 354.522 238.824 337.89 256.248 360.426 247.896"/>
    <path fill="#A38D44" d="M358.9142 261.43198C356.0342 261.64798 352.7222 262.51198 349.5542 263.73598 344.1542 265.96798 337.3142 270.64798 336.9542 277.19998 336.8822 279.93598 338.2502 283.46398 340.1942 285.40798 344.8022 290.01598 353.0102 288.86398 358.5542 286.84798 361.7222 285.69598 364.6742 284.11198 367.0502 282.31198 377.6342 273.95998 372.4502 260.49598 358.9142 261.43198L358.9142 261.43198 358.9142 261.43198zM343.2182 278.06398C343.4342 274.39198 349.5542 271.29598 352.3622 270.14398 354.4502 269.35198 356.6102 268.77598 358.4822 268.41598 366.8342 266.97598 369.1382 272.95198 362.0102 277.48798 360.3542 278.49598 358.4102 279.50398 356.2502 280.29598 353.4422 281.37598 346.8182 283.24798 344.2262 280.65598 343.7222 280.07998 343.2182 278.78398 343.2182 278.06398L343.2182 278.06398zM104.9702 203.83198C102.0902 204.91198 99.9302 207.43198 99.2822 210.38398 97.9862 216.28798 104.8982 223.05598 109.8662 224.78398 113.3222 226.00798 116.7062 224.13598 118.7942 221.39998L122.6822 226.36798C119.8742 231.69598 113.6102 232.77598 108.6422 231.83998 98.5622 230.18398 89.49021 216.93598 93.16221 206.99998 94.53021 203.39998 97.4822 200.23198 101.2982 199.22398L104.9702 203.83198zM34.77024 305.42398C36.13824 299.30398 41.10624 295.34398 47.44224 296.78398 51.40224 297.64798 53.63424 299.95198 55.07424 303.76798L72.35423 301.10398 70.77023 308.37598 53.05824 310.89598 69.40223 314.56798 67.74623 321.83998 32.82624 314.13598 34.77024 305.42398 34.77024 305.42398zM40.17024 308.51998L49.17024 310.60798C50.97024 306.64798 47.65824 302.25598 43.41024 303.69598 41.53824 304.27198 40.24224 306.21598 40.17024 308.51998L40.17024 308.51998zM130.0262 180.35998L141.1862 203.11198C142.3382 205.48798 143.7062 206.92798 146.0102 206.13598 149.1062 205.12798 149.3222 203.61598 147.8822 200.66398L136.4342 177.26398 142.4102 174.31198 154.2182 198.43198C156.5222 203.18398 156.5942 207.57598 151.6982 210.31198 150.3302 211.10398 149.0342 211.75198 147.5942 212.32798 142.1942 214.63198 138.0182 211.46398 135.4982 206.78398L123.9782 183.31198 130.0262 180.35998 130.0262 180.35998zM255.5942 167.68798C261.6422 169.27198 265.4582 174.31198 263.8742 180.57598 262.6502 186.76798 255.5942 190.00798 249.1142 187.48798L245.3702 201.95998 238.0982 200.08798 246.9542 165.45598 255.5942 167.68798 255.5942 167.68798 255.5942 167.68798zM252.3542 173.01598L249.9782 181.94398C253.7942 183.81598 258.3302 180.64798 257.1062 176.32798 256.5302 174.45598 254.6582 173.08798 252.3542 173.01598zM269.1302 181.87198C267.1862 184.10398 265.3862 187.05598 264.0902 190.15198 261.8582 195.55198 260.2742 203.68798 264.6662 208.51198 266.6102 210.59998 270.0662 212.11198 272.8742 212.11198 279.3542 212.11198 284.3222 205.48798 286.8422 200.15998 288.2102 197.13598 289.2182 193.82398 289.5782 190.94398 291.1622 177.47998 277.9142 171.64798 269.1302 181.87198L269.1302 181.87198 269.1302 181.87198zM269.7782 204.76798C267.2582 202.03198 269.4182 195.47998 270.5702 192.74398 271.5062 190.65598 272.5862 188.71198 273.6662 187.12798 278.5622 180.21598 284.3942 182.80798 282.5942 191.08798 282.1622 192.88798 281.5142 195.04798 280.5782 197.13598 279.3542 199.87198 275.9702 205.84798 272.2982 205.84798 271.5062 205.84798 270.2102 205.27198 269.7782 204.76798zM310.0262 193.67998C315.0662 197.35198 316.7942 203.39998 313.0502 208.72798 310.6742 212.03998 307.7222 213.19198 303.6182 212.97598L299.3702 229.96798 293.2502 225.64798 297.8582 208.29598 288.1382 221.97598 282.0182 217.65598 302.7542 188.49598 310.0262 193.67998 310.0262 193.67998 310.0262 193.67998zM305.0582 197.49598L299.5862 204.91198C302.5382 208.07998 307.9382 206.78398 308.2982 202.31998 308.4422 200.37598 307.1462 198.35998 305.0582 197.49598L305.0582 197.49598z"/>
    <path fill="#FFF" d="M46.00224,379.87198 C47.51424,383.18398 49.31424,383.18398 50.82624,379.87198 C52.77024,375.55198 52.77024,368.78398 50.82624,364.53598 C49.31424,361.22398 47.51424,361.22398 46.00224,364.53598 C44.05824,368.85598 44.05824,375.55198 46.00224,379.87198 Z"/>
    <path fill="#FFF" d="M39.16224,367.19998 C39.95424,367.63198 40.89024,367.99198 41.89824,368.27998 C42.18624,366.47998 42.61824,364.82398 43.33824,363.31198 C45.85824,357.62398 50.89824,357.62398 53.49024,363.31198 C54.13824,364.82398 54.64224,366.47998 54.93024,368.27998 C55.86624,367.99198 56.80224,367.63198 57.66624,367.19998 C61.91424,365.11198 61.91424,362.15998 57.66624,360.07198 C52.48224,357.47998 44.27424,357.47998 39.16224,360.07198 C34.84224,362.15998 34.84224,365.11198 39.16224,367.19998 Z"/>
    <path fill="#FFF" d="M54.57024,377.92798 C54.28224,379.00798 53.92224,380.08798 53.49024,381.02398 C53.05824,382.03198 52.55424,382.82398 51.97824,383.47198 L88.84221,383.47198 C89.49021,383.47198 89.99421,383.18398 90.42621,382.82398 C90.85821,382.39198 91.07421,381.88798 91.07421,381.23998 L91.07421,335.66398 C91.07421,335.08798 90.85821,334.51198 90.42621,334.07998 C89.99421,333.71998 89.49021,333.43198 88.84221,333.43198 L7.91424,333.43198 C7.33824,333.43198 6.76224,333.71998 6.40224,334.07998 C5.97024,334.51198 5.68224,335.08798 5.68224,335.66398 L5.68224,381.23998 C5.68224,381.88798 5.97024,382.39198 6.40224,382.82398 C6.76224,383.18398 7.33824,383.47198 7.91424,383.47198 L44.85024,383.47198 C44.27424,382.82398 43.77024,382.03198 43.33824,381.02398 C42.90624,380.08798 42.54624,379.00798 42.25824,377.92798 L13.24224,377.92798 C12.59424,377.92798 11.94624,377.63998 11.51424,377.27998 L11.51424,377.27998 C11.01024,376.77598 10.65024,376.19998 10.65024,375.47998 L10.65024,339.33598 C10.65024,338.61598 11.01024,337.96798 11.51424,337.46398 C11.94624,337.10398 12.59424,336.81598 13.24224,336.81598 L83.51422,336.81598 C84.23422,336.81598 84.81022,337.10398 85.31422,337.46398 L85.31422,337.46398 C85.81822,337.96798 86.17822,338.61598 86.17822,339.33598 L86.17822,375.47998 C86.17822,376.19998 85.81822,376.77598 85.31422,377.27998 L85.31422,377.27998 C84.81022,377.63998 84.23422,377.92798 83.51422,377.92798 L54.57024,377.92798 Z"/>
    <path fill="#73246C" d="M98.2022,310.82398 L180.8582,310.82398 L180.8582,230.47198 L238.7462,253.94398 L238.7462,310.82398 L379.2902,310.82398 L449.7782,339.40798 L370.6502,369.07198 L238.7462,369.07198 L238.7462,418.39198 L180.8582,440.13598 L180.8582,369.07198 L98.8502,369.07198 C96.1862,359.35198 94.74621,349.19998 94.74621,338.68798 C94.74621,329.11198 95.8982,319.75198 98.2022,310.82398 L98.2022,310.82398 Z"/>
    <path fill="#FFF" d="M37.86624,357.40798 C43.84224,354.45598 52.98624,354.45598 58.96224,357.40798 C65.44223,360.64798 65.44223,366.62398 58.96224,369.86398 C57.81024,370.43998 56.51424,370.87198 55.21824,371.23198 C55.21824,372.45598 55.21824,373.75198 55.07424,374.97598 L83.15422,374.97598 L83.15422,339.76798 L13.60224,339.76798 L13.60224,374.97598 L41.75424,374.97598 C41.61024,373.75198 41.53824,372.45598 41.61024,371.23198 C40.24224,370.87198 39.01824,370.43998 37.86624,369.86398 C31.31424,366.62398 31.31424,360.64798 37.86624,357.40798 Z"/>
    <path fill="#AFDCFD" d="M21.30624,187.41598 L47.58624,213.097517 C49.02624,211.297517 58.02624,201.45598 59.53824,199.65598 C46.3900876,184.741491 36.0940876,174.445491 28.65024,168.76798 C27.5980876,167.965491 25.1500876,168.541491 21.30624,170.49598 L21.30624,180.35998 L21.30624,187.41598 Z M112.2422,278.27998 L137.65824,304.91998 L164.7302,304.91998 L123.9782,262.107738 C122.5382,263.907738 116.3462,272.08798 115.0502,274.03198 L112.2422,278.27998 Z"/>
    <path fill="#FFF" d="M6.40224 170.27998L12.09024 170.27998 12.09024 283.82398C9.57024 292.75198 7.62624 302.03998 6.40224 311.47198L6.40224 170.27998 6.40224 170.27998zM12.09024 393.62398L12.09024 556.05598 6.40224 559.00798 6.40224 386.20798C6.90624 386.35198 7.41024 386.42398 7.91424 386.42398L10.21824 386.42398C10.79424 388.79998 11.44224 391.24798 12.09024 393.62398zM253.9382 125.42398C268.4822 128.51998 282.4502 133.05598 295.7702 138.95998 295.5542 139.31998 295.4102 139.67998 295.1942 140.11198L281.4422 140.32798 290.3702 150.40798C290.1542 150.83998 290.0102 151.27198 289.7942 151.70398 238.0982 129.09598 178.9862 129.09598 127.2902 151.70398 127.1462 151.27198 126.9302 150.83998 126.7862 150.40798L135.6422 140.32798 121.9622 140.11198C121.7462 139.67998 121.5302 139.31998 121.3142 138.95998 134.6342 133.05598 148.6742 128.51998 163.2182 125.42398 193.0262 119.08798 224.2022 119.08798 253.9382 125.42398L253.9382 125.42398z"/>
    <path fill="#F83D2A" d="M205.7702 68.255974C205.7702 66.671974 206.9942 65.375974 208.5782 65.375974 210.1622 65.375974 211.4582 66.671974 211.4582 68.255974 211.4582 69.767974 210.1622 71.063974 208.5782 71.063974 206.9942 71.063974 205.7702 69.767974 205.7702 68.255974L205.7702 68.255974zM205.7702 61.271974C205.7702 59.687974 206.9942 58.391974 208.5782 58.391974 210.1622 58.391974 211.4582 59.687974 211.4582 61.271974 211.4582 62.855974 210.1622 64.079974 208.5782 64.079974 206.9942 64.079974 205.7702 62.855974 205.7702 61.271974L205.7702 61.271974zM205.7702 54.287974C205.7702 52.703974 206.9942 51.407974 208.5782 51.407974 210.1622 51.407974 211.4582 52.703974 211.4582 54.287974 211.4582 55.871974 210.1622 57.095974 208.5782 57.095974 206.9942 57.095974 205.7702 55.871974 205.7702 54.287974zM205.7702 47.303974C205.7702 45.719974 206.9942 44.423974 208.5782 44.423974 210.1622 44.423974 211.4582 45.719974 211.4582 47.303974 211.4582 48.887974 210.1622 50.183974 208.5782 50.183974 206.9942 50.183974 205.7702 48.887974 205.7702 47.303974zM205.7702 40.319974C205.7702 38.735974 206.9942 37.439974 208.5782 37.439974 210.1622 37.439974 211.4582 38.735974 211.4582 40.319974 211.4582 41.903974 210.1622 43.199974 208.5782 43.199974 206.9942 43.199974 205.7702 41.903974 205.7702 40.319974zM206.4902 26.279974C206.4902 25.199974 207.4262 24.263974 208.5782 24.263974 209.7302 24.263974 210.6662 25.199974 210.6662 26.279974 210.6662 27.431974 209.7302 28.367974 208.5782 28.367974 207.4262 28.367974 206.4902 27.431974 206.4902 26.279974L206.4902 26.279974zM205.7702 33.335974C205.7702 31.751974 206.9942 30.455974 208.5782 30.455974 210.1622 30.455974 211.4582 31.751974 211.4582 33.335974 211.4582 34.919974 210.1622 36.215974 208.5782 36.215974 206.9942 36.215974 205.7702 34.919974 205.7702 33.335974zM208.5782 83.735974C207.4262 84.239974 205.4822 86.111974 203.4662 86.111974 201.0182 86.111974 198.7862 82.007974 200.1542 80.639974 201.5942 79.271974 204.4742 80.279974 205.5542 78.407974 206.4902 76.535974 205.3382 73.439974 208.5782 73.871974 211.8902 73.439974 210.6662 76.535974 211.6742 78.407974 212.6822 80.279974 215.6342 79.271974 217.0022 80.639974 218.3702 82.007974 216.1382 86.111974 213.7622 86.111974 211.6742 86.111974 209.8022 84.239974 208.5782 83.735974L208.5782 83.735974z"/>
    <path fill="#0D67B0" d="M182.9462,128.95198 C182.9462,126.79198 184.7462,124.99198 186.9062,124.99198 C189.0662,124.99198 190.8662,126.79198 190.8662,128.95198 C190.8662,131.11198 189.0662,132.83998 186.9062,132.83998 C184.7462,132.83998 182.9462,131.11198 182.9462,128.95198 Z M140.2502,138.74398 C139.8182,136.58398 141.1862,134.49598 143.2742,134.06398 C145.4342,133.63198 147.5222,134.99998 147.9542,137.08798 C148.3862,139.24798 147.0182,141.33598 144.9302,141.76798 C142.7702,142.19998 140.6822,140.83198 140.2502,138.74398 Z M234.1382,128.95198 C234.1382,131.11198 232.4102,132.83998 230.2502,132.83998 C228.0902,132.83998 226.3622,131.11198 226.3622,128.95198 C226.3622,126.79198 228.0902,124.99198 230.2502,124.99198 C232.4092,124.99198 234.1382,126.79198 234.1382,128.95198 Z M276.9062,138.74398 C276.4022,140.83198 274.3142,142.19998 272.2262,141.76798 C270.0662,141.33598 268.6982,139.24798 269.2022,137.08798 C269.6342,134.99998 271.7222,133.63198 273.8102,134.06398 C275.9702,134.49598 277.3382,136.58398 276.9062,138.74398 Z"/>
    <polygon fill="#A38D44" points="208.578 134.208 194.754 127.8 208.578 121.392 222.474 127.8"/>
    <polygon fill="#F83D2A" points="208.578 123.048 198.354 127.8 208.578 132.48 218.874 127.8"/>
    <polygon fill="#A38D44" points="166.386 138.6 151.554 135.144 163.794 126.072 178.698 129.456"/>
    <polygon fill="#F83D2A" points="164.154 127.656 155.082 134.424 166.098 136.944 175.17 130.176"/>
    <polygon fill="#F83D2A" points="121.098 141.624 113.61 150.12 124.914 150.264 132.33 141.768"/>
    <polygon fill="#A38D44" points="250.698 138.6 265.602 135.144 253.362 126.072 238.458 129.456"/>
    <polygon fill="#F83D2A" points="253.002 127.656 262.074 134.424 251.058 136.944 241.986 130.176"/>
    <polygon fill="#F83D2A" points="296.058 141.624 303.546 150.12 292.242 150.264 284.754 141.768"/>
    <path fill="#F83D2A" d="M205.7702 90.719974C205.7702 89.135974 206.9942 87.911974 208.5782 87.911974 210.1622 87.911974 211.4582 89.135974 211.4582 90.719974 211.4582 92.303975 210.1622 93.599975 208.5782 93.599975 206.9942 93.599975 205.7702 92.303975 205.7702 90.719974L205.7702 90.719974zM92.08221 86.975974C92.08221 85.391974 93.37821 84.167974 94.96221 84.167974 96.5462 84.167974 97.8422 85.391974 97.8422 86.975974 97.8422 88.559974 96.5462 89.855974 94.96221 89.855974 93.37821 89.855974 92.08221 88.559974 92.08221 86.975974L92.08221 86.975974zM91.14621 78.047974C91.14621 76.463974 92.37021 75.239974 93.95421 75.239974 95.53821 75.239974 96.8342 76.463974 96.8342 78.047974 96.8342 79.631974 95.53821 80.927974 93.95421 80.927974 92.37021 80.927974 91.14621 79.631974 91.14621 78.047974L91.14621 78.047974zM93.37821 68.903974C93.37821 67.319974 94.60221 66.023974 96.1862 66.023974 97.7702 66.023974 99.0662 67.319974 99.0662 68.903974 99.0662 70.487974 97.7702 71.783974 96.1862 71.783974 94.60221 71.783974 93.37821 70.487974 93.37821 68.903974zM98.0582 60.983974C98.0582 59.399974 99.3542 58.103974 100.9382 58.103974 102.5222 58.103974 103.7462 59.399974 103.7462 60.983974 103.7462 62.567974 102.5222 63.863974 100.9382 63.863974 99.3542 63.863974 98.0582 62.567974 98.0582 60.983974zM105.7622 54.791974C105.7622 53.207974 107.0582 51.911974 108.6422 51.911974 110.1542 51.911974 111.4502 53.207974 111.4502 54.791974 111.4502 56.375974 110.1542 57.599974 108.6422 57.599974 107.0582 57.599974 105.7622 56.375974 105.7622 54.791974zM114.9062 49.103974C114.9062 47.519974 116.2022 46.223974 117.7862 46.223974 119.3702 46.223974 120.6662 47.519974 120.6662 49.103974 120.6662 50.615974 119.3702 51.911974 117.7862 51.911974 116.2022 51.911974 114.9062 50.615974 114.9062 49.103974zM124.6262 46.583974C124.6262 44.999974 125.8502 43.703974 127.4342 43.703974 129.0182 43.703974 130.3142 44.999974 130.3142 46.583974 130.3142 48.167974 129.0182 49.463974 127.4342 49.463974 125.8502 49.463974 124.6262 48.167974 124.6262 46.583974zM150.6902 51.407974C150.6902 50.039974 151.8422 48.959974 153.2102 48.959974 154.5782 48.959974 155.6582 50.039974 155.6582 51.407974 155.6582 52.775974 154.5782 53.927974 153.2102 53.927974 151.8422 53.927974 150.6902 52.775974 150.6902 51.407974zM147.0182 60.335974C147.0182 58.967974 148.0982 57.887974 149.4662 57.887974 150.8342 57.887974 151.9142 58.967974 151.9142 60.335974 151.9142 61.703974 150.8342 62.783974 149.4662 62.783974 148.0982 62.783974 147.0182 61.703974 147.0182 60.335974zM147.0182 70.271974C147.0182 68.903974 148.0982 67.823974 149.4662 67.823974 150.8342 67.823974 151.9142 68.903974 151.9142 70.271974 151.9142 71.639974 150.8342 72.719974 149.4662 72.719974 148.0982 72.719974 147.0182 71.639974 147.0182 70.271974zM97.1222 104.18398C97.1222 102.59998 98.4182 101.30398 100.0022 101.30398 101.5862 101.30398 102.8822 102.59998 102.8822 104.18398 102.8822 105.76798 101.5862 106.99198 100.0022 106.99198 98.4182 106.99198 97.1222 105.76798 97.1222 104.18398L97.1222 104.18398zM189.9302 29.015974C189.9302 27.863974 190.8662 26.927974 192.0182 26.927974 193.1702 26.927974 194.1062 27.863974 194.1062 29.015974 194.1062 30.167974 193.1702 31.031974 192.0182 31.031974 190.8662 31.031974 189.9302 30.167974 189.9302 29.015974zM160.4102 38.519974C160.4102 37.151974 161.4902 36.071974 162.8582 36.071974 164.2262 36.071974 165.3062 37.151974 165.3062 38.519974 165.3062 39.887974 164.2262 40.967974 162.8582 40.967974 161.4902 40.967974 160.4102 39.887974 160.4102 38.519974zM174.7382 32.975974C174.7382 31.823974 175.6742 30.887974 176.8262 30.887974 177.9062 30.887974 178.8422 31.823974 178.8422 32.975974 178.8422 34.127974 177.9062 35.063974 176.8262 35.063974 175.6742 35.063974 174.7382 34.127974 174.7382 32.975974z"/>
    <circle cx="184.386" cy="30.96" r="2.088" fill="#F83D2A"/>
    <path fill="#F83D2A" d="M135.2822 43.991974C135.2822 42.407974 136.5782 41.183974 138.1622 41.183974 139.7462 41.183974 140.9702 42.407974 140.9702 43.991974 140.9702 45.575974 139.7462 46.871974 138.1622 46.871974 136.5782 46.871974 135.2822 45.575974 135.2822 43.991974zM145.3622 43.415974C145.3622 41.831974 146.6582 40.535974 148.1702 40.535974 149.7542 40.535974 151.0502 41.831974 151.0502 43.415974 151.0502 44.999974 149.7542 46.295974 148.1702 46.295974 146.6582 46.295974 145.3622 44.999974 145.3622 43.415974z"/>
    <circle cx="169.194" cy="34.92" r="2.088" fill="#F83D2A"/>
    <path fill="#F83D2A" d="M191.2262 97.559975C191.4422 96.551975 192.8822 92.375975 192.8822 92.375975 192.8822 92.375975 191.3702 90.071974 191.5142 89.135974 191.6582 88.271974 192.9542 87.263974 193.7462 86.975974 194.4662 86.687974 199.7942 88.415974 200.2262 89.063974 200.6582 89.783974 198.0662 92.951975 198.4262 93.887975 198.7862 94.823975 202.3142 94.967975 202.3862 95.759975 202.4582 96.623975 200.0102 100.51198 199.2182 100.65598 198.4262 100.87198 195.5462 99.431975 195.1862 99.287975 194.8262 99.143975 190.8662 99.215975 191.2262 97.559975L191.2262 97.559975zM127.8662 52.199974C127.3622 54.503974 107.2742 58.175974 104.9702 73.007974 102.5942 87.839974 116.8502 95.111975 116.8502 95.111975 116.8502 95.111975 119.2262 96.479975 116.8502 99.071975 114.5462 101.59198 109.3622 98.279975 109.3622 98.279975 109.3622 98.279975 97.1222 90.935974 99.4262 73.511974 101.8022 56.087974 128.3702 49.967974 127.8662 52.199974L127.8662 52.199974z"/>
    <path fill="#F83D2A" d="M130.3142 58.175974C130.3142 58.175974 116.5622 63.071974 113.1782 69.623974 109.7222 76.103974 114.6902 88.847974 114.6902 88.847974 114.6902 88.847974 117.7142 86.615974 119.8022 86.111974 121.8902 85.607974 124.5542 86.471974 127.4342 85.967974 130.3142 85.463974 131.5382 78.767974 131.5382 78.767974 131.5382 78.767974 129.6662 68.831974 129.6662 66.743974 129.6662 63.503974 130.3142 58.175974 130.3142 58.175974zM122.2502 88.631974C123.2582 87.839974 126.4262 89.351974 128.5142 88.343974 130.6022 87.263974 132.6182 85.175974 132.6182 85.175974 132.6182 85.175974 132.8342 84.671974 134.7062 85.967974 136.5062 87.263974 138.8822 89.639974 139.3862 91.439974 139.8902 93.311975 137.2982 91.439974 136.7942 93.023975 136.2902 94.607975 136.7942 96.983975 136.7942 96.983975 136.7942 96.983975 130.8182 101.30398 128.2262 101.59198 125.6342 101.87998 123.7622 99.863975 122.2502 96.983975 120.6662 94.103975 122.7542 94.607975 123.2582 93.527975 123.7622 92.519975 121.1702 89.351974 122.2502 88.631974L122.2502 88.631974zM96.9062 107.35198C97.9862 107.20798 102.3782 107.27998 102.3782 107.27998 102.3782 107.27998 104.1062 105.04798 105.0422 104.97598 105.9062 104.83198 107.2742 105.76798 107.7782 106.41598 108.2822 106.99198 108.3542 112.60798 107.8502 113.25598 107.3462 113.83198 103.4582 112.39198 102.6662 112.96798 101.9462 113.61598 102.8822 117.07198 102.0902 117.35998 101.3702 117.64798 96.9062 116.56798 96.4742 115.84798 96.0422 115.19998 96.5462 111.95998 96.5462 111.59998 96.5462 111.23998 95.25021 107.56798 96.9062 107.35198L96.9062 107.35198zM122.5382 106.19998C122.6822 107.20798 122.7542 111.59998 122.7542 111.59998 122.7542 111.59998 124.9862 113.32798 125.1302 114.19198 125.2742 115.05598 124.3382 116.49598 123.6902 116.99998 123.1142 117.50398 117.4982 117.64798 116.8502 117.21598 116.2022 116.71198 117.6422 112.75198 116.9942 112.03198 116.4182 111.31198 112.9622 112.31998 112.6022 111.52798 112.3142 110.80798 113.3222 106.34398 114.0422 105.91198 114.6902 105.40798 117.9302 105.91198 118.2902 105.83998 118.6502 105.83998 122.3222 104.47198 122.5382 106.19998L122.5382 106.19998zM191.1542 42.479974C191.1542 42.479974 176.0342 47.951974 171.0662 55.583974 166.0982 63.359974 169.1222 73.439974 169.1222 73.439974 169.1222 73.439974 176.6822 72.719974 178.7702 72.215974 180.8582 71.711974 183.5942 72.647974 186.4742 72.071974 189.3542 71.567974 190.5782 64.871974 190.5782 64.871974 190.5782 64.871974 190.2182 56.447974 190.2182 54.359974 190.2182 51.119974 191.1542 42.479974 191.1542 42.479974L191.1542 42.479974z"/>
    <path fill="#F83D2A" d="M191.6582 36.359974C189.5702 38.591974 165.5222 49.031974 163.1462 60.911974 160.8422 72.935974 172.6502 78.263974 170.2742 81.575974 168.8342 83.663974 154.7222 78.983974 158.8262 59.543974 163.0022 40.103974 193.8182 34.127974 191.6582 36.359974zM172.2902 83.375974C172.3622 81.719974 174.1622 83.087974 174.6662 81.359974 175.1702 79.559974 173.7302 75.599974 174.0182 75.023974 174.3782 74.375974 180.3542 76.463974 182.6582 76.031974 184.8902 75.599974 184.5302 74.087974 186.5462 73.439974 188.6342 72.791974 193.0982 80.495974 191.9462 82.799974 190.8662 85.103974 186.9782 88.991974 186.9782 88.991974 186.9782 88.991974 180.8582 91.511974 178.1222 90.359974 175.3142 89.207974 172.1462 85.103974 172.2902 83.375974L172.2902 83.375974zM130.8902 65.231974C130.6022 78.479974 135.8582 88.415974 139.5302 86.471974 142.9142 84.743974 134.6342 78.191974 134.8502 66.815974 135.1382 53.999974 143.2022 46.727974 141.1142 45.935974 139.0262 45.143974 131.1782 54.287974 130.8902 65.231974L130.8902 65.231974zM196.1222 29.375974C196.9142 28.943974 197.4902 29.663974 198.2822 32.183974 199.3622 35.495974 194.1062 52.271974 194.1062 57.887974 194.1062 63.503974 197.4902 74.159974 195.6902 77.543974 193.8902 80.999974 192.3062 59.471974 191.8742 55.439974 191.5142 51.479974 195.9782 36.359974 195.5462 33.335974 195.1862 30.311974 195.3302 29.807974 196.1222 29.375974z"/>
    <path fill="#F83D2A" d="M201.4502 43.343974C202.5302 45.791974 199.9382 45.575974 200.0822 58.751974 200.2982 71.855974 202.0262 68.759974 201.3062 73.367974 200.5862 78.047974 196.4822 61.127974 196.4822 56.807974 196.4822 52.487974 200.4422 40.967974 201.4502 43.343974L201.4502 43.343974zM94.09821 95.183975C94.09821 93.599975 95.39421 92.303975 96.9782 92.303975 98.5622 92.303975 99.7862 93.599975 99.7862 95.183975 99.7862 96.767975 98.5622 98.063975 96.9782 98.063975 95.39421 98.063975 94.09821 96.767975 94.09821 95.183975zM154.6502 43.487974C154.6502 42.119974 155.8022 41.039974 157.1702 41.039974 158.5382 41.039974 159.6182 42.119974 159.6182 43.487974 159.6182 44.855974 158.5382 45.935974 157.1702 45.935974 155.8022 45.935974 154.6502 44.855974 154.6502 43.487974zM180.2822 94.895975C180.0662 93.311975 181.2182 91.871975 182.8022 91.727975 184.3862 91.583975 185.7542 92.735975 185.9702 94.247975 186.1142 95.831975 184.9622 97.271975 183.3782 97.415975 181.8662 97.559975 180.4262 96.479975 180.2822 94.895975zM154.2902 96.983975C153.9302 95.471975 154.9382 93.959975 156.4502 93.599975 158.0342 93.311975 159.5462 94.247975 159.9062 95.831975 160.1942 97.343975 159.1862 98.855975 157.6742 99.215975 156.0902 99.503975 154.5782 98.567975 154.2902 96.983975zM130.5302 105.98398C130.0262 104.47198 130.8902 102.88798 132.3302 102.38398 133.8422 101.87998 135.4982 102.74398 135.9302 104.25598 136.4342 105.69598 135.6422 107.35198 134.1302 107.85598 132.6182 108.28798 131.0342 107.49598 130.5302 105.98398zM151.1222 80.207974C152.1302 80.495974 156.1622 82.223974 156.1622 82.223974 156.1622 82.223974 158.6102 80.855974 159.4742 81.071974 160.3382 81.287974 161.2742 82.655974 161.4902 83.447974 161.7782 84.167974 159.6902 89.423974 159.0422 89.783974 158.3222 90.215974 155.2982 87.335974 154.3622 87.623974 153.4262 87.911974 152.9942 91.511974 152.2022 91.511974 151.3382 91.511974 147.6662 88.775974 147.5222 87.983974 147.3782 87.191974 149.0342 84.383974 149.1782 84.023974 149.3222 83.735974 149.4662 79.775974 151.1222 80.207974L151.1222 80.207974zM141.8342 103.96798C141.9782 102.95998 143.1302 98.711975 143.1302 98.711975 143.1302 98.711975 141.4022 96.479975 141.5462 95.543975 141.6182 94.679975 142.9142 93.599975 143.6342 93.239975 144.3542 92.951975 149.7542 94.247975 150.2582 94.895975 150.7622 95.543975 148.3142 98.927975 148.7462 99.791975 149.1782 100.72798 152.7062 100.65598 152.8502 101.44798 152.9222 102.31198 150.7622 106.27198 149.9702 106.55998 149.1782 106.77598 146.2262 105.55198 145.8662 105.40798 145.5062 105.33598 141.6182 105.62398 141.8342 103.96798L141.8342 103.96798zM173.3702 91.799975C173.0822 92.807975 171.0662 96.695975 171.0662 96.695975 171.0662 96.695975 172.2902 99.287975 172.0742 100.07998 171.7862 100.94398 170.3462 101.80798 169.5542 101.95198 168.7622 102.16798 163.7222 99.791975 163.3622 99.071975 163.0022 98.351975 166.0262 95.471975 165.8102 94.535975 165.5942 93.599975 162.0662 92.951975 162.0662 92.159975 162.1382 91.295974 165.0902 87.767974 165.8822 87.695974 166.6742 87.623974 169.3382 89.423974 169.6982 89.567974 170.0582 89.783974 173.9462 90.215974 173.3702 91.799975zM110.5142 123.04798C110.5142 121.46398 111.8102 120.23998 113.3222 120.23998 114.9062 120.23998 116.2022 121.46398 116.2022 123.04798 116.2022 124.63198 114.9062 125.92798 113.3222 125.92798 111.8102 125.92798 110.5142 124.63198 110.5142 123.04798zM117.0662 121.82398C123.6182 122.32798 128.9462 119.66398 132.4742 112.60798 132.9782 111.67198 134.3462 111.16798 135.2822 111.52798 144.1382 115.12798 151.2662 114.26398 156.8102 105.83998 157.3142 104.97598 158.7542 104.61598 159.6182 105.11998 168.1142 109.72798 175.2422 109.43998 181.7942 101.66398 182.4422 100.94398 183.8822 100.72798 184.6742 101.30398 192.6662 106.84798 199.7942 107.13598 207.1382 100.22398 207.8582 99.503975 209.3702 99.503975 210.0902 100.22398 217.4342 107.13598 224.4902 106.84798 232.4822 101.30398 233.2742 100.72798 234.7142 100.94398 235.3622 101.66398 241.8422 109.43998 248.9702 109.72798 257.4662 105.11998 258.3302 104.61598 259.7702 104.97598 260.3462 105.83998 265.8902 114.26398 272.9462 115.12798 281.8742 111.52798 282.8102 111.16798 284.1782 111.67198 284.6102 112.60798 288.1382 119.66398 293.4662 122.32798 300.0182 121.82398L300.4502 126.14398C292.8182 126.71998 286.1222 123.91198 281.6582 116.27998 272.2982 119.59198 264.0182 118.07998 257.8262 109.79998 248.7542 114.19198 240.4022 113.47198 233.2742 105.91198 224.8502 111.23998 216.4982 111.31198 208.5782 104.68798 200.6582 111.31198 192.3062 111.23998 183.8102 105.91198 176.6822 113.47198 168.3302 114.19198 159.3302 109.79998 153.1382 118.07998 144.8582 119.59198 135.4262 116.27998 131.0342 123.91198 124.3382 126.71998 116.6342 126.14398L117.0662 121.82398 117.0662 121.82398zM325.0022 86.975974C325.0022 85.391974 323.7062 84.167974 322.1222 84.167974 320.5382 84.167974 319.3142 85.391974 319.3142 86.975974 319.3142 88.559974 320.5382 89.855974 322.1222 89.855974 323.7062 89.855974 325.0022 88.559974 325.0022 86.975974L325.0022 86.975974zM326.0102 78.047974C326.0102 76.463974 324.7142 75.239974 323.1302 75.239974 321.5462 75.239974 320.2502 76.463974 320.2502 78.047974 320.2502 79.631974 321.5462 80.927974 323.1302 80.927974 324.7142 80.927974 326.0102 79.631974 326.0102 78.047974L326.0102 78.047974zM323.7782 68.903974C323.7782 67.319974 322.4822 66.023974 320.8982 66.023974 319.3142 66.023974 318.0182 67.319974 318.0182 68.903974 318.0182 70.487974 319.3142 71.783974 320.8982 71.783974 322.4822 71.783974 323.7782 70.487974 323.7782 68.903974zM319.0262 60.983974C319.0262 59.399974 317.8022 58.103974 316.2182 58.103974 314.6342 58.103974 313.3382 59.399974 313.3382 60.983974 313.3382 62.567974 314.6342 63.863974 316.2182 63.863974 317.8022 63.863974 319.0262 62.567974 319.0262 60.983974zM311.3942 54.791974C311.3942 53.207974 310.0982 51.911974 308.5142 51.911974 306.9302 51.911974 305.6342 53.207974 305.6342 54.791974 305.6342 56.375974 306.9302 57.599974 308.5142 57.599974 310.0982 57.599974 311.3942 56.375974 311.3942 54.791974zM302.1782 49.103974C302.1782 47.519974 300.8822 46.223974 299.3702 46.223974 297.7862 46.223974 296.4902 47.519974 296.4902 49.103974 296.4902 50.615974 297.7862 51.911974 299.3702 51.911974 300.8822 51.911974 302.1782 50.615974 302.1782 49.103974zM292.5302 46.583974C292.5302 44.999974 291.2342 43.703974 289.6502 43.703974 288.0662 43.703974 286.8422 44.999974 286.8422 46.583974 286.8422 48.167974 288.0662 49.463974 289.6502 49.463974 291.2342 49.463974 292.5302 48.167974 292.5302 46.583974zM266.3942 51.407974C266.3942 50.039974 265.3142 48.959974 263.9462 48.959974 262.5782 48.959974 261.4982 50.039974 261.4982 51.407974 261.4982 52.775974 262.5782 53.927974 263.9462 53.927974 265.3142 53.927974 266.3942 52.775974 266.3942 51.407974zM270.1382 60.335974C270.1382 58.967974 268.9862 57.887974 267.6172 57.887974 266.3212 57.887974 265.1692 58.967974 265.1692 60.335974 265.1692 61.703974 266.3212 62.783974 267.6172 62.783974 268.9862 62.783974 270.1382 61.703974 270.1382 60.335974zM270.1382 70.271974C270.1382 68.903974 268.9862 67.823974 267.6172 67.823974 266.3212 67.823974 265.1692 68.903974 265.1692 70.271974 265.1692 71.639974 266.3212 72.719974 267.6172 72.719974 268.9862 72.719974 270.1382 71.639974 270.1382 70.271974zM319.9622 104.18398C319.9622 102.59998 318.6662 101.30398 317.0822 101.30398 315.4982 101.30398 314.2742 102.59998 314.2742 104.18398 314.2742 105.76798 315.4982 106.99198 317.0822 106.99198 318.6662 106.99198 319.9622 105.76798 319.9622 104.18398L319.9622 104.18398zM227.2262 29.015974C227.2262 27.863974 226.2902 26.927974 225.1382 26.927974 223.9862 26.927974 223.1222 27.863974 223.1222 29.015974 223.1222 30.167974 223.9862 31.031974 225.1382 31.031974 226.2902 31.031974 227.2262 30.167974 227.2262 29.015974zM256.7462 38.519974C256.7462 37.151974 255.5942 36.071974 254.2262 36.071974 252.9302 36.071974 251.7782 37.151974 251.7782 38.519974 251.7782 39.887974 252.9302 40.967974 254.2262 40.967974 255.5942 40.967974 256.7462 39.887974 256.7462 38.519974z"/>
    <circle cx="240.33" cy="32.976" r="2.088" fill="#F83D2A"/>
    <path fill="#F83D2A" d="M234.7862 30.959974C234.7862 29.807974 233.8502 28.871974 232.7702 28.871974 231.6182 28.871974 230.6822 29.807974 230.6822 30.959974 230.6822 32.111974 231.6182 33.047974 232.7702 33.047974 233.8502 33.047974 234.7862 32.111974 234.7862 30.959974L234.7862 30.959974zM281.8022 43.991974C281.8022 42.407974 280.5782 41.183974 278.9942 41.183974 277.4102 41.183974 276.1142 42.407974 276.1142 43.991974 276.1142 45.575974 277.4102 46.871974 278.9942 46.871974 280.5782 46.871974 281.8022 45.575974 281.8022 43.991974zM271.7942 43.415974C271.7942 41.831974 270.4982 40.535974 268.9142 40.535974 267.3302 40.535974 266.0342 41.831974 266.0342 43.415974 266.0342 44.999974 267.3302 46.295974 268.9142 46.295974 270.4982 46.295974 271.7942 44.999974 271.7942 43.415974z"/>
    <circle cx="247.962" cy="34.92" r="2.088" fill="#F83D2A"/>
    <path fill="#F83D2A" d="M225.9302 97.559975C225.7142 96.551975 224.3462 92.375975 224.3462 92.375975 224.3462 92.375975 225.8582 90.071974 225.7142 89.135974 225.5702 88.271974 224.2022 87.263974 223.4822 86.975974 222.6902 86.687974 217.3622 88.415974 216.9302 89.063974 216.4982 89.783974 219.1622 92.951975 218.8022 93.887975 218.4422 94.823975 214.8422 94.967975 214.7702 95.759975 214.7702 96.623975 217.2182 100.51198 218.0102 100.65598 218.8022 100.87198 221.6822 99.431975 222.0422 99.287975 222.4022 99.143975 226.2902 99.215975 225.9302 97.559975L225.9302 97.559975zM289.2902 52.199974C289.7942 54.503974 309.8102 58.175974 312.1862 73.007974 314.5622 87.839974 300.2342 95.111975 300.2342 95.111975 300.2342 95.111975 297.8582 96.479975 300.2342 99.071975 302.6102 101.59198 307.7222 98.279975 307.7222 98.279975 307.7222 98.279975 320.0342 90.935974 317.6582 73.511974 315.2822 56.087974 288.7142 49.967974 289.2902 52.199974L289.2902 52.199974z"/>
    <path fill="#F83D2A" d="M286.7702 58.175974C286.7702 58.175974 300.5942 63.071974 303.9782 69.623974 307.3622 76.103974 302.3942 88.847974 302.3942 88.847974 302.3942 88.847974 299.4422 86.615974 297.3542 86.111974 295.2662 85.607974 292.5302 86.471974 289.6502 85.967974 286.7702 85.463974 285.5462 78.767974 285.5462 78.767974 285.5462 78.767974 287.4182 68.831974 287.4182 66.743974 287.4182 63.503974 286.7702 58.175974 286.7702 58.175974zM294.9062 88.631974C293.8262 87.839974 290.7302 89.351974 288.6422 88.343974 286.5542 87.263974 284.5382 85.175974 284.5382 85.175974 284.5382 85.175974 284.2502 84.671974 282.4502 85.967974 280.5782 87.263974 278.2742 89.639974 277.6982 91.439974 277.1942 93.311975 279.7862 91.439974 280.3622 93.023975 280.8662 94.607975 280.3622 96.983975 280.3622 96.983975 280.3622 96.983975 286.2662 101.30398 288.8582 101.59198 291.5222 101.87998 293.3222 99.863975 294.9062 96.983975 296.4902 94.103975 294.4022 94.607975 293.8262 93.527975 293.3222 92.519975 295.9142 89.351974 294.9062 88.631974L294.9062 88.631974zM320.1782 107.35198C319.1702 107.20798 314.7782 107.27998 314.7782 107.27998 314.7782 107.27998 312.9782 105.04798 312.1142 104.97598 311.2502 104.83198 309.8822 105.76798 309.3782 106.41598 308.8742 106.99198 308.8022 112.60798 309.3062 113.25598 309.8102 113.83198 313.6982 112.39198 314.4182 112.96798 315.2102 113.61598 314.2742 117.07198 314.9942 117.35998 315.7142 117.64798 320.1782 116.56798 320.6102 115.84798 321.0422 115.19998 320.5382 111.95998 320.5382 111.59998 320.5382 111.23998 321.8342 107.56798 320.1782 107.35198L320.1782 107.35198zM294.5462 106.19998C294.4022 107.20798 294.4022 111.59998 294.4022 111.59998 294.4022 111.59998 292.1702 113.32798 292.0262 114.19198 291.8822 115.05598 292.8182 116.49598 293.3942 116.99998 294.0422 117.50398 299.5862 117.64798 300.2342 117.21598 300.8822 116.71198 299.4422 112.75198 300.0902 112.03198 300.7382 111.31198 304.1222 112.31998 304.4822 111.52798 304.8422 110.80798 303.7622 106.34398 303.1142 105.91198 302.3942 105.40798 299.2262 105.91198 298.7942 105.83998 298.4342 105.83998 294.7622 104.47198 294.5462 106.19998L294.5462 106.19998zM226.0022 42.479974C226.0022 42.479974 241.0502 47.951974 246.0182 55.583974 250.9862 63.359974 248.0342 73.439974 248.0342 73.439974 248.0342 73.439974 240.4022 72.719974 238.3142 72.215974 236.2262 71.711974 233.5622 72.647974 230.7542 72.071974 227.8742 71.567974 226.6502 64.871974 226.6502 64.871974 226.6502 64.871974 227.0102 56.447974 227.0102 54.359974 227.0102 51.119974 226.0022 42.479974 226.0022 42.479974L226.0022 42.479974z"/>
    <path fill="#F83D2A" d="M225.4982 36.359974C227.6582 38.591974 251.6342 49.031974 253.9382 60.911974 256.3142 72.935974 244.4342 78.263974 246.8102 81.575974 248.3222 83.663974 262.3622 78.983974 258.2582 59.543974 254.1542 40.103974 223.3382 34.127974 225.4982 36.359974zM244.8662 83.375974C244.7222 81.719974 242.9942 83.087974 242.4902 81.359974 241.9142 79.559974 243.4262 75.599974 243.0662 75.023974 242.7782 74.375974 236.8022 76.463974 234.4982 76.031974 232.2662 75.599974 232.6982 74.087974 230.6102 73.439974 228.5222 72.791974 224.0582 80.495974 225.2102 82.799974 226.3622 85.103974 230.1782 88.991974 230.1782 88.991974 230.1782 88.991974 236.2262 91.511974 239.0342 90.359974 241.8422 89.207974 244.9382 85.103974 244.8662 83.375974L244.8662 83.375974zM286.1942 65.231974C286.4822 78.479974 281.2262 88.415974 277.5542 86.471974 274.1702 84.743974 282.5222 78.191974 282.3062 66.815974 282.0182 53.999974 273.8822 46.727974 275.9702 45.935974 278.0582 45.143974 285.9062 54.287974 286.1942 65.231974L286.1942 65.231974zM221.1062 29.375974C220.3142 28.943974 219.6662 29.663974 218.8742 32.183974 217.7942 35.495974 223.0502 52.271974 223.0502 57.887974 223.0502 63.503974 219.6662 74.159974 221.4662 77.543974 223.2662 80.999974 224.8502 59.471974 225.2822 55.439974 225.7142 51.479974 221.1782 36.359974 221.6102 33.335974 222.0422 30.311974 221.8982 29.807974 221.1062 29.375974L221.1062 29.375974z"/>
    <path fill="#F83D2A" d="M215.7062 43.343974C214.6982 45.791974 217.2902 45.575974 217.0742 58.751974 216.9302 71.855974 215.2022 68.759974 215.8502 73.367974 216.5702 78.047974 220.6742 61.127974 220.6742 56.807974 220.6742 52.487974 216.7142 40.967974 215.7062 43.343974zM322.9862 95.183975C322.9862 93.599975 321.7622 92.303975 320.1782 92.303975 318.5942 92.303975 317.2982 93.599975 317.2982 95.183975 317.2982 96.767975 318.5942 98.063975 320.1782 98.063975 321.7622 98.063975 322.9862 96.767975 322.9862 95.183975zM262.4342 43.487974C262.4342 42.119974 261.3542 41.039974 259.9862 41.039974 258.6182 41.039974 257.4662 42.119974 257.4662 43.487974 257.4662 44.855974 258.6182 45.935974 259.9862 45.935974 261.3542 45.935974 262.4342 44.855974 262.4342 43.487974zM236.8742 94.895975C237.0182 93.311975 235.8662 91.871975 234.2822 91.727975 232.8422 91.583975 231.4022 92.735975 231.2582 94.247975 231.0422 95.831975 232.1942 97.271975 233.7062 97.415975 235.2902 97.559975 236.6582 96.479975 236.8742 94.895975zM262.8662 96.983975C263.1542 95.471975 262.1462 93.959975 260.6342 93.599975 259.1222 93.311975 257.5382 94.247975 257.2502 95.831975 256.8902 97.343975 257.8982 98.855975 259.4822 99.215975 260.9942 99.503975 262.5062 98.567975 262.8662 96.983975zM286.6262 105.98398C287.0582 104.47198 286.2662 102.88798 284.7542 102.38398 283.2422 101.87998 281.6582 102.74398 281.1542 104.25598 280.6502 105.69598 281.5142 107.35198 283.0262 107.85598 284.5382 108.28798 286.1222 107.49598 286.6262 105.98398zM266.0342 80.207974C264.9542 80.495974 260.9222 82.223974 260.9222 82.223974 260.9222 82.223974 258.4742 80.855974 257.6102 81.071974 256.7462 81.287974 255.8102 82.655974 255.5942 83.447974 255.3782 84.167974 257.3942 89.423974 258.1142 89.783974 258.8342 90.215974 261.8582 87.335974 262.7942 87.623974 263.7302 87.911974 264.0902 91.511974 264.9542 91.511974 265.7462 91.511974 269.4902 88.775974 269.6342 87.983974 269.7782 87.191974 268.1222 84.383974 267.9782 84.023974 267.8342 83.735974 267.6182 79.775974 266.0342 80.207974L266.0342 80.207974zM275.3222 103.96798C275.1782 102.95998 274.0262 98.711975 274.0262 98.711975 274.0262 98.711975 275.6822 96.479975 275.6102 95.543975 275.4662 94.679975 274.2422 93.599975 273.5222 93.239975 272.7302 92.951975 267.3302 94.247975 266.8262 94.895975 266.3942 95.543975 268.8422 98.927975 268.4102 99.791975 267.9782 100.72798 264.3782 100.65598 264.3062 101.44798 264.1622 102.31198 266.3942 106.27198 267.1862 106.55998 267.9062 106.77598 270.9302 105.55198 271.2902 105.40798 271.6502 105.33598 275.5382 105.62398 275.3222 103.96798L275.3222 103.96798zM243.7142 91.799975C244.0742 92.807975 246.0182 96.695975 246.0182 96.695975 246.0182 96.695975 244.7942 99.287975 245.0822 100.07998 245.2982 100.94398 246.8102 101.80798 247.5302 101.95198 248.3222 102.16798 253.4342 99.791975 253.7222 99.071975 254.0822 98.351975 251.0582 95.471975 251.2742 94.535975 251.5622 93.599975 255.0902 92.951975 255.0182 92.159975 254.9462 91.295974 252.0662 87.767974 251.2022 87.695974 250.4102 87.623974 247.7462 89.423974 247.3862 89.567974 247.0982 89.783974 243.2102 90.215974 243.7142 91.799975L243.7142 91.799975zM306.6422 123.04798C306.6422 121.46398 305.3462 120.23998 303.7622 120.23998 302.1782 120.23998 300.8822 121.46398 300.8822 123.04798 300.8822 124.63198 302.1782 125.92798 303.7622 125.92798 305.3462 125.92798 306.6422 124.63198 306.6422 123.04798zM161.6342 119.15998C146.0102 122.54398 131.0342 127.51198 116.7782 133.91998 115.9142 134.27998 115.8422 135.21598 116.1302 135.93598 116.7062 137.30398 117.5702 137.37598 118.6502 136.87198 132.6182 130.67998 147.3062 125.78398 162.5702 122.54398 192.8102 116.06398 224.3462 116.06398 254.5142 122.54398 269.7782 125.78398 284.5382 130.67998 298.4342 136.87198 299.5862 137.37598 300.3782 137.30398 300.9542 135.93598 301.3142 135.21598 301.2422 134.27998 300.3062 133.91998 286.1222 127.51198 271.0742 122.54398 255.5222 119.15998 224.7062 112.53598 192.4502 112.53598 161.6342 119.15998z"/>
    <path fill="#FFF" d="M174.9542,442.29598 L174.9542,374.97598 L100.6502,374.97598 C111.5222,407.08798 136.3622,432.86398 167.8262,444.95998 L174.9542,442.29598 L174.9542,442.29598 L174.9542,442.29598 Z M21.30624,419.61598 L21.30624,499.82398 L65.08223,483.47998 C46.72224,465.26398 31.74624,443.59198 21.30624,419.61598 L21.30624,419.61598 L21.30624,419.61598 Z M354.8102,374.97598 L244.6502,374.97598 L244.6502,416.23198 L354.8102,374.97598 L354.8102,374.97598 L354.8102,374.97598 Z M244.6502,256.31998 L244.6502,304.91998 L364.7462,304.91998 L244.6502,256.31998 L244.6502,256.31998 Z M164.7302,304.91998 L174.9542,304.91998 L174.9542,229.96798 C154.7942,236.23198 136.9382,248.03998 123.2582,263.51998 L164.7302,304.91998 L164.7302,304.91998 Z M72.85823,186.69598 L28.65024,168.76798 L59.53824,199.65598 C63.78624,195.11998 68.17823,190.79998 72.85823,186.69598 L72.85823,186.69598 L72.85823,186.69598 Z M99.8582,304.91998 C102.8102,295.41598 106.9862,286.48798 112.2422,278.27998 L138.9542,304.91998 L99.8582,304.91998 L99.8582,304.91998 Z M47.58624,213.69598 C37.07424,227.15998 28.21824,241.99198 21.30624,257.83198 L21.30624,187.41598 L47.58624,213.69598 L47.58624,213.69598 Z"/>
    <path fill="#A38D44" d="M179.1302,362.87998 C178.9142,362.37598 178.7702,361.94398 178.5542,361.51198 L173.6582,361.43998 L176.8262,357.76798 C176.7542,357.62398 176.6822,357.47998 176.6102,357.33598 C175.8182,357.47998 175.0262,356.97598 174.7382,356.25598 C174.5222,355.75198 174.5222,355.24798 174.8102,354.81598 C174.8102,354.09598 174.8102,353.87998 174.0902,353.51998 C173.6582,353.37598 173.2262,353.15998 172.6502,352.58398 C172.2182,352.00798 171.9302,351.43198 171.6422,350.85598 C171.0662,349.70398 171.0662,349.48798 169.6982,349.55998 C168.4742,349.55998 166.8902,349.63198 166.6022,348.04798 C166.3142,346.82398 167.0342,345.95998 167.8262,345.31198 C167.6102,344.73598 167.6822,344.01598 168.0422,343.43998 C166.8182,342.93598 166.3142,341.49598 166.8902,340.34398 C165.8102,339.55198 165.5942,338.03998 166.3862,337.03198 C165.1622,336.02398 165.3062,334.07998 166.7462,333.28798 C165.8822,331.99198 166.5302,330.19198 168.1142,329.83198 C167.6822,328.17598 169.1222,326.66398 170.7782,326.95198 C170.7782,325.29598 172.5782,324.21598 174.0182,324.93598 C174.0182,323.06398 176.2502,322.05598 177.6902,323.13598 C178.4102,321.47998 180.7862,321.33598 181.7222,322.91998 C181.8662,320.97598 184.6022,320.61598 185.3222,322.48798 C185.6822,320.83198 187.8422,320.54398 188.7062,321.83998 C189.0662,321.33598 189.7142,320.97598 190.3622,321.04798 C190.5062,319.75198 191.8742,318.95998 193.0262,319.39198 C193.4582,318.23998 194.8982,317.95198 195.6902,318.74398 C196.0502,317.59198 197.5622,317.23198 198.4262,318.02398 C198.7862,316.87198 200.2982,316.51198 201.1622,317.37598 C201.5222,316.07998 203.1782,315.79198 203.9702,316.79998 L205.1222,316.79998 C205.1942,315.50398 205.9142,314.42398 206.9942,313.84798 L206.9942,312.69598 L205.1222,312.69598 L205.1222,309.88798 L206.9942,309.88798 L206.9942,307.51198 L210.1622,307.51198 L210.1622,309.88798 L212.0342,309.88798 L212.0342,312.69598 L210.1622,312.69598 L210.1622,313.84798 C210.5222,314.06398 210.8102,314.27998 211.0982,314.49598 C211.6742,315.07198 212.0342,315.93598 212.1062,316.79998 L213.1862,316.79998 C214.0502,315.79198 215.7062,316.07998 216.0662,317.37598 C216.9302,316.51198 218.4422,316.87198 218.8022,318.02398 C219.6662,317.23198 221.1062,317.59198 221.4662,318.74398 C222.3302,317.95198 223.7702,318.23998 224.1302,319.39198 C225.3542,318.95998 226.6502,319.75198 226.7942,321.04798 C227.4422,320.97598 228.0902,321.33598 228.5222,321.83998 C229.3862,320.54398 231.4742,320.83198 231.9062,322.48798 C232.5542,320.61598 235.2182,320.97598 235.4342,322.91998 C236.3702,321.33598 238.6742,321.47998 239.4662,323.13598 C240.9062,322.05598 243.0662,323.06398 243.0662,324.93598 C244.5062,324.21598 246.3062,325.29598 246.3782,326.95198 C247.9622,326.66398 249.4742,328.17598 248.9702,329.83198 C250.5542,330.19198 251.2022,331.99198 250.3382,333.28798 C251.7782,334.07998 251.9222,336.02398 250.6982,337.03198 C251.4902,338.03998 251.2742,339.55198 250.1942,340.34398 C250.8422,341.49598 250.3382,342.93598 249.1142,343.43998 C249.4022,344.01598 249.4742,344.73598 249.2582,345.31198 C250.0502,345.95998 250.7702,346.82398 250.5542,348.04798 C250.2662,349.63198 248.6102,349.55998 247.3862,349.55998 C246.0902,349.48798 246.0182,349.70398 245.4422,350.85598 C245.1542,351.43198 244.8662,352.00798 244.4342,352.58398 C243.9302,353.15998 243.4262,353.37598 243.0662,353.51998 C242.3462,353.87998 242.2742,354.09598 242.2742,354.81598 C242.5622,355.24798 242.5622,355.75198 242.3462,356.25598 C242.0582,356.97598 241.3382,357.47998 240.5462,357.33598 C240.4742,357.47998 240.4022,357.62398 240.2582,357.76798 L243.4982,361.43998 L238.5302,361.51198 C238.3862,361.94398 238.1702,362.37598 237.9542,362.87998 C219.4502,354.38398 197.7782,354.38398 179.1302,362.87998 L179.1302,362.87998 Z"/>
    <path fill="#73246C" d="M207.5702 331.77598C207.5702 331.19998 208.0022 330.76798 208.5782 330.76798 209.1542 330.76798 209.5862 331.19998 209.5862 331.77598 209.5862 332.35198 209.1542 332.78398 208.5782 332.78398 208.0022 332.78398 207.5702 332.35198 207.5702 331.77598zM207.5702 329.32798C207.5702 328.75198 208.0022 328.24798 208.5782 328.24798 209.1542 328.24798 209.5862 328.75198 209.5862 329.32798 209.5862 329.83198 209.1542 330.33598 208.5782 330.33598 208.0022 330.33598 207.5702 329.83198 207.5702 329.32798zM207.5702 326.80798C207.5702 326.23198 208.0022 325.79998 208.5782 325.79998 209.1542 325.79998 209.5862 326.23198 209.5862 326.80798 209.5862 327.38398 209.1542 327.81598 208.5782 327.81598 208.0022 327.81598 207.5702 327.38398 207.5702 326.80798zM207.5702 324.35998C207.5702 323.78398 208.0022 323.35198 208.5782 323.35198 209.1542 323.35198 209.5862 323.78398 209.5862 324.35998 209.5862 324.86398 209.1542 325.36798 208.5782 325.36798 208.0022 325.36798 207.5702 324.86398 207.5702 324.35998zM207.5702 321.83998C207.5702 321.26398 208.0022 320.83198 208.5782 320.83198 209.1542 320.83198 209.5862 321.26398 209.5862 321.83998 209.5862 322.41598 209.1542 322.84798 208.5782 322.84798 208.0022 322.84798 207.5702 322.41598 207.5702 321.83998zM207.8582 316.87198C207.8582 316.43998 208.2182 316.15198 208.5782 316.15198 209.0102 316.15198 209.2982 316.43998 209.2982 316.87198 209.2982 317.30398 209.0102 317.59198 208.5782 317.59198 208.2182 317.59198 207.8582 317.30398 207.8582 316.87198zM207.5702 319.39198C207.5702 318.81598 208.0022 318.38398 208.5782 318.38398 209.1542 318.38398 209.5862 318.81598 209.5862 319.39198 209.5862 319.96798 209.1542 320.39998 208.5782 320.39998 208.0022 320.39998 207.5702 319.96798 207.5702 319.39198zM208.5782 337.31998C208.1462 337.46398 207.4982 338.18398 206.7782 338.18398 205.9142 338.18398 205.1222 336.67198 205.6262 336.16798 206.0582 335.66398 207.1382 336.09598 207.4982 335.37598 207.8582 334.72798 207.4262 333.64798 208.5782 333.79198 209.7302 333.64798 209.2982 334.72798 209.6582 335.37598 210.0182 336.09598 211.0982 335.66398 211.6022 336.16798 212.1062 336.67198 211.3142 338.18398 210.4502 338.18398 209.7302 338.18398 209.0102 337.46398 208.5782 337.31998L208.5782 337.31998z"/>
    <polygon fill="#73246C" points="177.474 357.912 174.81 360.864 178.842 360.936 181.506 357.912"/>
    <polygon fill="#73246C" points="239.682 357.912 242.274 360.864 238.314 360.936 235.65 357.912"/>
    <path fill="#73246C" d="M207.5702 339.76798C207.5702 339.19198 208.0022 338.75998 208.5782 338.75998 209.1542 338.75998 209.5862 339.19198 209.5862 339.76798 209.5862 340.34398 209.1542 340.77598 208.5782 340.77598 208.0022 340.77598 207.5702 340.34398 207.5702 339.76798zM167.1782 338.47198C167.1782 337.89598 167.6102 337.46398 168.1862 337.46398 168.7622 337.46398 169.1942 337.89598 169.1942 338.47198 169.1942 339.04798 168.7622 339.47998 168.1862 339.47998 167.6102 339.47998 167.1782 339.04798 167.1782 338.47198zM166.8182 335.30398C166.8182 334.72798 167.2502 334.29598 167.8262 334.29598 168.4022 334.29598 168.8342 334.72798 168.8342 335.30398 168.8342 335.80798 168.4022 336.31198 167.8262 336.31198 167.2502 336.31198 166.8182 335.80798 166.8182 335.30398zM167.6102 331.99198C167.6102 331.48798 168.0422 330.98398 168.6182 330.98398 169.1942 330.98398 169.6262 331.48798 169.6262 331.99198 169.6262 332.56798 169.1942 333.07198 168.6182 333.07198 168.0422 333.07198 167.6102 332.56798 167.6102 331.99198zM169.2662 329.18398C169.2662 328.60798 169.7702 328.17598 170.2742 328.17598 170.8502 328.17598 171.3542 328.60798 171.3542 329.18398 171.3542 329.75998 170.8502 330.19198 170.2742 330.19198 169.7702 330.19198 169.2662 329.75998 169.2662 329.18398zM172.0022 327.02398C172.0022 326.44798 172.5062 325.94398 173.0102 325.94398 173.5862 325.94398 174.0182 326.44798 174.0182 327.02398 174.0182 327.52798 173.5862 328.03198 173.0102 328.03198 172.5062 328.03198 172.0022 327.52798 172.0022 327.02398zM175.3142 324.93598C175.3142 324.43198 175.7462 323.92798 176.3222 323.92798 176.8262 323.92798 177.3302 324.43198 177.3302 324.93598 177.3302 325.51198 176.8262 326.01598 176.3222 326.01598 175.7462 326.01598 175.3142 325.51198 175.3142 324.93598zM178.6982 324.07198C178.6982 323.49598 179.2022 323.06398 179.7062 323.06398 180.2822 323.06398 180.7862 323.49598 180.7862 324.07198 180.7862 324.64798 180.2822 325.07998 179.7062 325.07998 179.2022 325.07998 178.6982 324.64798 178.6982 324.07198zM187.9862 325.79998C187.9862 325.29598 188.4182 324.93598 188.9222 324.93598 189.3542 324.93598 189.7862 325.29598 189.7862 325.79998 189.7862 326.30398 189.3542 326.66398 188.9222 326.66398 188.4182 326.66398 187.9862 326.30398 187.9862 325.79998zM186.6902 328.96798C186.6902 328.46398 187.0502 328.10398 187.5542 328.10398 188.0582 328.10398 188.4182 328.46398 188.4182 328.96798 188.4182 329.47198 188.0582 329.83198 187.5542 329.83198 187.0502 329.83198 186.6902 329.47198 186.6902 328.96798zM186.6902 332.49598C186.6902 331.99198 187.0502 331.63198 187.5542 331.63198 188.0582 331.63198 188.4182 331.99198 188.4182 332.49598 188.4182 332.99998 188.0582 333.35998 187.5542 333.35998 187.0502 333.35998 186.6902 332.99998 186.6902 332.49598zM168.9782 344.59198C168.9782 344.01598 169.4102 343.51198 169.9862 343.51198 170.5622 343.51198 170.9942 344.01598 170.9942 344.59198 170.9942 345.09598 170.5622 345.59998 169.9862 345.59998 169.4102 345.59998 168.9782 345.09598 168.9782 344.59198zM201.9542 317.80798C201.9542 317.44798 202.3142 317.08798 202.6742 317.08798 203.1062 317.08798 203.4662 317.44798 203.4662 317.80798 203.4662 318.23998 203.1062 318.52798 202.6742 318.52798 202.3142 318.52798 201.9542 318.23998 201.9542 317.80798zM191.4422 321.19198C191.4422 320.75998 191.8742 320.32798 192.3062 320.32798 192.8102 320.32798 193.1702 320.75998 193.1702 321.19198 193.1702 321.69598 192.8102 322.12798 192.3062 322.12798 191.8742 322.12798 191.4422 321.69598 191.4422 321.19198zM196.5542 319.24798C196.5542 318.81598 196.8422 318.52798 197.2742 318.52798 197.7062 318.52798 197.9942 318.81598 197.9942 319.24798 197.9942 319.60798 197.7062 319.96798 197.2742 319.96798 196.8422 319.96798 196.5542 319.60798 196.5542 319.24798zM199.2182 318.52798C199.2182 318.09598 199.5782 317.80798 200.0102 317.80798 200.3702 317.80798 200.7302 318.09598 200.7302 318.52798 200.7302 318.95998 200.3702 319.24798 200.0102 319.24798 199.5782 319.24798 199.2182 318.95998 199.2182 318.52798zM182.5142 323.13598C182.5142 322.63198 182.9462 322.12798 183.5222 322.12798 184.0982 322.12798 184.5302 322.63198 184.5302 323.13598 184.5302 323.71198 184.0982 324.21598 183.5222 324.21598 182.9462 324.21598 182.5142 323.71198 182.5142 323.13598zM186.1142 322.91998C186.1142 322.41598 186.5462 321.91198 187.1222 321.91198 187.6982 321.91198 188.1302 322.41598 188.1302 322.91998 188.1302 323.49598 187.6982 323.99998 187.1222 323.99998 186.5462 323.99998 186.1142 323.49598 186.1142 322.91998zM193.8182 319.96798C193.8182 319.53598 194.1782 319.17598 194.6102 319.17598 194.9702 319.17598 195.3302 319.53598 195.3302 319.96798 195.3302 320.32798 194.9702 320.68798 194.6102 320.68798 194.1782 320.68798 193.8182 320.32798 193.8182 319.96798zM202.3862 342.21598C202.5302 341.85598 203.0342 340.34398 203.0342 340.34398 203.0342 340.34398 202.4582 339.55198 202.5302 339.19198 202.6022 338.90398 203.0342 338.54398 203.3222 338.47198 203.6102 338.32798 205.4822 338.97598 205.6262 339.19198 205.7702 339.40798 204.8342 340.55998 204.9782 340.91998 205.1222 341.20798 206.3462 341.27998 206.4182 341.56798 206.4182 341.85598 205.5542 343.22398 205.2662 343.29598 204.9782 343.36798 203.9702 342.86398 203.8262 342.79198 203.6822 342.79198 202.3142 342.79198 202.3862 342.21598L202.3862 342.21598z"/>
    <path fill="#73246C" d="M179.8502,326.08798 C179.7062,326.87998 172.5782,328.17598 171.7142,333.50398 C170.9222,338.75998 175.9622,341.35198 175.9622,341.35198 C175.9622,341.35198 176.8262,341.85598 175.9622,342.71998 C175.1702,343.65598 173.2982,342.43198 173.2982,342.43198 C173.2982,342.43198 168.9782,339.83998 169.7702,333.64798 C170.6342,327.45598 180.0662,325.29598 179.8502,326.08798 L179.8502,326.08798 Z"/>
    <path fill="#73246C" d="M180.7862 328.17598C180.7862 328.17598 175.8902 329.97598 174.6662 332.27998 173.4422 334.58398 175.2422 339.11998 175.2422 339.11998 175.2422 339.11998 176.2502 338.32798 177.0422 338.11198 177.7622 337.96798 178.6982 338.25598 179.7062 338.11198 180.7862 337.89598 181.2182 335.51998 181.2182 335.51998 181.2182 335.51998 180.5702 331.99198 180.5702 331.27198 180.5702 330.11998 180.7862 328.17598 180.7862 328.17598zM177.9062 339.04798C178.2662 338.75998 179.3462 339.33598 180.1382 338.90398 180.8582 338.54398 181.5782 337.82398 181.5782 337.82398 181.5782 337.82398 181.6502 337.60798 182.2982 338.11198 182.9462 338.54398 183.8102 339.40798 183.9542 340.05598 184.1702 340.70398 183.2342 340.05598 183.0902 340.63198 182.8742 341.13598 183.0902 341.99998 183.0902 341.99998 183.0902 341.99998 180.9302 343.58398 179.9942 343.65598 179.0582 343.72798 178.4102 343.00798 177.9062 341.99998 177.3302 340.99198 178.0502 341.13598 178.2662 340.77598 178.4102 340.41598 177.4742 339.33598 177.9062 339.04798L177.9062 339.04798zM168.9062 345.67198C169.2662 345.67198 170.8502 345.67198 170.8502 345.67198 170.8502 345.67198 171.4262 344.87998 171.7862 344.80798 172.0742 344.80798 172.5782 345.09598 172.7222 345.38398 172.9382 345.59998 172.9382 347.54398 172.7942 347.75998 172.5782 347.97598 171.2102 347.47198 170.9222 347.68798 170.6342 347.90398 170.9942 349.12798 170.7062 349.27198 170.4902 349.34398 168.9062 348.98398 168.6902 348.69598 168.5462 348.47998 168.7622 347.32798 168.7622 347.18398 168.7622 347.03998 168.2582 345.74398 168.9062 345.67198zM177.9782 345.23998C178.0502 345.67198 178.0502 347.18398 178.0502 347.18398 178.0502 347.18398 178.8422 347.83198 178.9142 348.11998 178.9862 348.47998 178.6262 348.91198 178.4102 349.12798 178.1942 349.27198 176.1782 349.34398 175.9622 349.19998 175.7462 348.98398 176.2502 347.61598 176.0342 347.32798 175.8182 347.11198 174.5942 347.47198 174.4502 347.18398 174.3782 346.89598 174.7382 345.31198 174.9542 345.16798 175.2422 345.02398 176.3222 345.16798 176.4662 345.16798 176.6102 345.16798 177.9062 344.66398 177.9782 345.23998L177.9782 345.23998zM202.3862 322.63198C202.3862 322.63198 197.0582 324.57598 195.2582 327.31198 193.4582 330.04798 194.5382 333.64798 194.5382 333.64798 194.5382 333.64798 197.2742 333.35998 197.9942 333.21598 198.7142 332.99998 199.7222 333.35998 200.7302 333.14398 201.7382 332.99998 202.1702 330.55198 202.1702 330.55198 202.1702 330.55198 202.0262 327.59998 202.0262 326.87998 202.0262 325.72798 202.3862 322.63198 202.3862 322.63198L202.3862 322.63198z"/>
    <path fill="#73246C" d="M202.6022 320.47198C201.8102 321.26398 193.2422 324.93598 192.4502 329.18398 191.5862 333.43198 195.8342 335.37598 194.9702 336.52798 194.4662 337.24798 189.4262 335.59198 190.9382 328.67998 192.3782 321.76798 203.3222 319.67998 202.6022 320.47198L202.6022 320.47198zM195.6902 337.17598C195.6902 336.59998 196.3382 337.03198 196.5542 336.45598 196.6982 335.80798 196.1942 334.43998 196.3382 334.15198 196.4102 333.93598 198.5702 334.72798 199.3622 334.58398 200.1542 334.43998 200.0102 333.86398 200.7302 333.64798 201.5222 333.43198 203.1062 336.16798 202.6742 336.95998 202.3142 337.75198 200.9462 339.19198 200.9462 339.19198 200.9462 339.19198 198.7142 340.05598 197.7782 339.62398 196.7702 339.26398 195.6182 337.75198 195.6902 337.17598L195.6902 337.17598zM181.0022 330.69598C180.8582 335.44798 182.7302 338.97598 184.0262 338.25598 185.2502 337.67998 182.2982 335.30398 182.3702 331.27198 182.4422 326.73598 185.3222 324.14398 184.6022 323.85598 183.8822 323.56798 181.0742 326.80798 181.0022 330.69598zM204.1862 317.95198C204.4742 317.80798 204.6902 318.09598 204.9062 318.95998 205.3382 320.11198 203.4662 326.08798 203.4662 328.10398 203.4662 330.11998 204.6182 333.86398 204.0422 335.08798 203.3942 336.31198 202.8182 328.67998 202.6742 327.23998 202.5302 325.79998 204.1142 320.47198 203.9702 319.39198 203.8262 318.31198 203.8982 318.09598 204.1862 317.95198L204.1862 317.95198z"/>
    <path fill="#73246C" d="M206.0582 322.91998C206.4182 323.78398 205.4822 323.71198 205.5542 328.39198 205.6262 333.07198 206.2742 331.99198 205.9862 333.64798 205.7702 335.23198 204.2582 329.25598 204.2582 327.74398 204.2582 326.15998 205.6982 322.05598 206.0582 322.91998L206.0582 322.91998zM167.8982 341.35198C167.8982 340.77598 168.3302 340.34398 168.9062 340.34398 169.4822 340.34398 169.9142 340.77598 169.9142 341.35198 169.9142 341.92798 169.4822 342.35998 168.9062 342.35998 168.3302 342.35998 167.8982 341.92798 167.8982 341.35198zM189.4262 322.99198C189.4262 322.48798 189.7862 322.12798 190.2902 322.12798 190.7942 322.12798 191.1542 322.48798 191.1542 322.99198 191.1542 323.49598 190.7942 323.85598 190.2902 323.85598 189.7862 323.85598 189.4262 323.49598 189.4262 322.99198zM198.4982 341.27998C198.4262 340.70398 198.8582 340.19998 199.4342 340.12798 200.0102 340.05598 200.5142 340.48798 200.5142 341.06398 200.5862 341.56798 200.2262 342.07198 199.6502 342.14398 199.0742 342.21598 198.5702 341.78398 198.4982 341.27998L198.4982 341.27998zM189.2822 341.99998C189.1382 341.49598 189.4982 340.91998 190.0742 340.77598 190.5782 340.70398 191.1542 341.06398 191.2982 341.56798 191.3702 342.14398 191.0102 342.64798 190.5062 342.79198 189.9302 342.93598 189.4262 342.57598 189.2822 341.99998zM180.8582 345.23998C180.6422 344.66398 180.9302 344.08798 181.5062 343.94398 182.0102 343.72798 182.5862 344.01598 182.7302 344.59198 182.9462 345.09598 182.6582 345.67198 182.0822 345.88798 181.5782 346.03198 181.0022 345.74398 180.8582 345.23998zM188.1302 336.02398C188.4902 336.16798 189.9302 336.74398 189.9302 336.74398 189.9302 336.74398 190.7942 336.23998 191.1542 336.31198 191.4422 336.38398 191.8022 336.88798 191.8742 337.17598 191.9462 337.46398 191.2262 339.33598 190.9382 339.47998 190.7222 339.62398 189.6422 338.54398 189.2822 338.68798 188.9942 338.75998 188.8502 340.05598 188.5622 340.05598 188.2742 340.05598 186.9062 339.11998 186.8342 338.83198 186.8342 338.54398 187.4102 337.53598 187.4822 337.39198 187.4822 337.31998 187.5542 335.87998 188.1302 336.02398L188.1302 336.02398zM184.8182 344.51998C184.8902 344.08798 185.3222 342.64798 185.3222 342.64798 185.3222 342.64798 184.6742 341.78398 184.7462 341.49598 184.7462 341.20798 185.2502 340.77598 185.4662 340.70398 185.7542 340.55998 187.6982 341.06398 187.8422 341.27998 187.9862 341.49598 187.1222 342.71998 187.3382 343.00798 187.4822 343.29598 188.7062 343.29598 188.7782 343.58398 188.7782 343.87198 187.9862 345.31198 187.7702 345.38398 187.4822 345.52798 186.4022 345.02398 186.2582 345.02398 186.1862 344.95198 184.7462 345.09598 184.8182 344.51998L184.8182 344.51998zM196.0502 340.12798C195.9782 340.48798 195.2582 341.92798 195.2582 341.92798 195.2582 341.92798 195.6902 342.79198 195.6182 343.15198 195.4742 343.43998 194.9702 343.72798 194.6822 343.79998 194.4662 343.87198 192.6662 343.00798 192.5222 342.71998 192.3782 342.50398 193.4582 341.49598 193.3862 341.13598 193.3142 340.77598 192.0182 340.55998 192.0902 340.27198 192.0902 339.98398 193.0982 338.75998 193.3862 338.68798 193.6742 338.68798 194.6102 339.33598 194.7542 339.40798 194.8982 339.40798 196.2662 339.62398 196.0502 340.12798L196.0502 340.12798zM173.7302 351.28798C173.7302 350.71198 174.1622 350.27998 174.7382 350.27998 175.3142 350.27998 175.7462 350.71198 175.7462 351.28798 175.7462 351.86398 175.3142 352.29598 174.7382 352.29598 174.1622 352.29598 173.7302 351.86398 173.7302 351.28798zM176.0342 350.85598C178.4102 350.99998 180.2822 350.06398 181.5062 347.54398 181.7222 347.25598 182.1542 347.03998 182.5142 347.18398 185.6822 348.47998 188.2022 348.19198 190.1462 345.16798 190.3622 344.87998 190.8662 344.73598 191.1542 344.87998 194.1782 346.53598 196.7702 346.39198 199.0742 343.65598 199.2902 343.43998 199.7942 343.36798 200.0822 343.51198 202.9622 345.52798 205.4822 345.59998 208.0742 343.15198 208.3622 342.86398 208.8662 342.86398 209.1542 343.15198 211.7462 345.59998 214.2662 345.52798 217.0742 343.51198 217.3622 343.36798 217.9382 343.43998 218.1542 343.65598 220.4582 346.39198 222.9782 346.53598 226.0022 344.87998 226.2902 344.73598 226.7942 344.87998 227.0102 345.16798 229.0262 348.19198 231.5462 348.47998 234.5702 347.18398 234.9302 347.03998 235.4342 347.25598 235.5782 347.54398 236.8742 350.06398 238.7462 350.99998 241.0502 350.85598L241.1942 352.36798C238.5302 352.58398 236.0822 351.57598 234.4982 348.83998 231.2582 350.06398 228.3062 349.48798 226.1462 346.60798 222.9062 348.11998 219.9542 347.83198 217.4342 345.16798 214.3382 347.11198 211.3862 347.11198 208.5782 344.73598 205.7702 347.11198 202.8182 347.11198 199.7942 345.16798 197.2742 347.83198 194.2502 348.11998 191.0822 346.60798 188.8502 349.48798 185.8982 350.06398 182.5862 348.83998 181.0022 351.57598 178.6262 352.58398 175.8902 352.36798L176.0342 350.85598zM208.0742 313.55998C208.2902 313.48798 208.4342 313.48798 208.5782 313.48798 208.7942 313.48798 208.9382 313.48798 209.0822 313.55998L209.0822 311.61598 210.9542 311.61598 210.9542 310.96798 209.0822 310.96798 209.0822 308.59198 208.0742 308.59198 208.0742 310.96798 206.2022 310.96798 206.2022 311.61598 208.0742 311.61598 208.0742 313.55998 208.0742 313.55998zM249.9782 338.47198C249.9782 337.89598 249.4742 337.46398 248.8982 337.46398 248.3942 337.46398 247.8902 337.89598 247.8902 338.47198 247.8902 339.04798 248.3942 339.47998 248.8982 339.47998 249.4742 339.47998 249.9782 339.04798 249.9782 338.47198zM250.2662 335.30398C250.2662 334.72798 249.8342 334.29598 249.2582 334.29598 248.7542 334.29598 248.2502 334.72798 248.2502 335.30398 248.2502 335.80798 248.7542 336.31198 249.2582 336.31198 249.8342 336.31198 250.2662 335.80798 250.2662 335.30398zM249.4742 331.99198C249.4742 331.48798 249.0422 330.98398 248.4662 330.98398 247.9622 330.98398 247.4582 331.48798 247.4582 331.99198 247.4582 332.56798 247.9622 333.07198 248.4662 333.07198 249.0422 333.07198 249.4742 332.56798 249.4742 331.99198zM247.8182 329.18398C247.8182 328.60798 247.3862 328.17598 246.8102 328.17598 246.2342 328.17598 245.8022 328.60798 245.8022 329.18398 245.8022 329.75998 246.2342 330.19198 246.8102 330.19198 247.3862 330.19198 247.8182 329.75998 247.8182 329.18398zM245.0822 327.02398C245.0822 326.44798 244.6502 325.94398 244.0742 325.94398 243.4982 325.94398 243.0662 326.44798 243.0662 327.02398 243.0662 327.52798 243.4982 328.03198 244.0742 328.03198 244.6502 328.03198 245.0822 327.52798 245.0822 327.02398zM241.8422 324.93598C241.8422 324.43198 241.4102 323.92798 240.8342 323.92798 240.2582 323.92798 239.8262 324.43198 239.8262 324.93598 239.8262 325.51198 240.2582 326.01598 240.8342 326.01598 241.4102 326.01598 241.8422 325.51198 241.8422 324.93598zM238.3862 324.07198C238.3862 323.49598 237.9542 323.06398 237.3782 323.06398 236.8022 323.06398 236.3702 323.49598 236.3702 324.07198 236.3702 324.64798 236.8022 325.07998 237.3782 325.07998 237.9542 325.07998 238.3862 324.64798 238.3862 324.07198zM229.1702 325.79998C229.1702 325.29598 228.8102 324.93598 228.3062 324.93598 227.8022 324.93598 227.4422 325.29598 227.4422 325.79998 227.4422 326.30398 227.8022 326.66398 228.3062 326.66398 228.8102 326.66398 229.1702 326.30398 229.1702 325.79998zM230.4662 328.96798C230.4662 328.46398 230.1062 328.10398 229.6022 328.10398 229.1702 328.10398 228.7382 328.46398 228.7382 328.96798 228.7382 329.47198 229.1702 329.83198 229.6022 329.83198 230.1062 329.83198 230.4662 329.47198 230.4662 328.96798zM230.4662 332.49598C230.4662 331.99198 230.1062 331.63198 229.6022 331.63198 229.1702 331.63198 228.7382 331.99198 228.7382 332.49598 228.7382 332.99998 229.1702 333.35998 229.6022 333.35998 230.1062 333.35998 230.4662 332.99998 230.4662 332.49598zM248.1782 344.59198C248.1782 344.01598 247.6742 343.51198 247.1702 343.51198 246.5942 343.51198 246.0902 344.01598 246.0902 344.59198 246.0902 345.09598 246.5942 345.59998 247.1702 345.59998 247.6742 345.59998 248.1782 345.09598 248.1782 344.59198zM215.2022 317.80798C215.2022 317.44798 214.9142 317.08798 214.4822 317.08798 214.0502 317.08798 213.7622 317.44798 213.7622 317.80798 213.7622 318.23998 214.0502 318.52798 214.4822 318.52798 214.9142 318.52798 215.2022 318.23998 215.2022 317.80798zM225.7142 321.19198C225.7142 320.75998 225.3542 320.32798 224.8502 320.32798 224.3462 320.32798 223.9862 320.75998 223.9862 321.19198 223.9862 321.69598 224.3462 322.12798 224.8502 322.12798 225.3542 322.12798 225.7142 321.69598 225.7142 321.19198zM220.6742 319.24798C220.6742 318.81598 220.3142 318.52798 219.8822 318.52798 219.5222 318.52798 219.1622 318.81598 219.1622 319.24798 219.1622 319.60798 219.5222 319.96798 219.8822 319.96798 220.3142 319.96798 220.6742 319.60798 220.6742 319.24798zM217.9382 318.52798C217.9382 318.09598 217.5782 317.80798 217.2182 317.80798 216.7862 317.80798 216.4262 318.09598 216.4262 318.52798 216.4262 318.95998 216.7862 319.24798 217.2182 319.24798 217.5782 319.24798 217.9382 318.95998 217.9382 318.52798zM234.5702 323.13598C234.5702 322.63198 234.1382 322.12798 233.5622 322.12798 233.0582 322.12798 232.6262 322.63198 232.6262 323.13598 232.6262 323.71198 233.0582 324.21598 233.5622 324.21598 234.1382 324.21598 234.5702 323.71198 234.5702 323.13598zM231.1142 322.91998C231.1142 322.41598 230.6102 321.91198 230.1062 321.91198 229.5302 321.91198 229.0262 322.41598 229.0262 322.91998 229.0262 323.49598 229.5302 323.99998 230.1062 323.99998 230.6102 323.99998 231.1142 323.49598 231.1142 322.91998zM223.3382 319.96798C223.3382 319.53598 223.0502 319.17598 222.6182 319.17598 222.1862 319.17598 221.8982 319.53598 221.8982 319.96798 221.8982 320.32798 222.1862 320.68798 222.6182 320.68798 223.0502 320.68798 223.3382 320.32798 223.3382 319.96798z"/>
    <path fill="#73246C" d="M214.7702 342.21598C214.6982 341.85598 214.1942 340.34398 214.1942 340.34398 214.1942 340.34398 214.6982 339.55198 214.6982 339.19198 214.6262 338.90398 214.1222 338.54398 213.9062 338.47198 213.6182 338.32798 211.7462 338.97598 211.5302 339.19198 211.3862 339.40798 212.3222 340.55998 212.2502 340.91998 212.1062 341.20798 210.8102 341.27998 210.8102 341.56798 210.8102 341.85598 211.6742 343.22398 211.9622 343.29598 212.2502 343.36798 213.2582 342.86398 213.4022 342.79198 213.4742 342.79198 214.9142 342.79198 214.7702 342.21598L214.7702 342.21598zM237.2342 326.08798C237.4502 326.87998 244.5782 328.17598 245.3702 333.50398 246.2342 338.75998 241.1222 341.35198 241.1222 341.35198 241.1222 341.35198 240.3302 341.85598 241.1222 342.71998 241.9862 343.65598 243.7862 342.43198 243.7862 342.43198 243.7862 342.43198 248.1782 339.83998 247.3142 333.64798 246.5222 327.45598 237.0182 325.29598 237.2342 326.08798L237.2342 326.08798z"/>
    <path fill="#73246C" d="M236.3702 328.17598C236.3702 328.17598 241.2662 329.97598 242.4902 332.27998 243.6422 334.58398 241.9142 339.11998 241.9142 339.11998 241.9142 339.11998 240.8342 338.32798 240.1142 338.11198 239.3942 337.96798 238.3862 338.25598 237.3782 338.11198 236.3702 337.89598 235.9382 335.51998 235.9382 335.51998 235.9382 335.51998 236.5862 331.99198 236.5862 331.27198 236.5862 330.11998 236.3702 328.17598 236.3702 328.17598zM239.2502 339.04798C238.8902 338.75998 237.7382 339.33598 237.0182 338.90398 236.2982 338.54398 235.5782 337.82398 235.5782 337.82398 235.5782 337.82398 235.4342 337.60798 234.7862 338.11198 234.1382 338.54398 233.3462 339.40798 233.1302 340.05598 232.9862 340.70398 233.8502 340.05598 234.0662 340.63198 234.2822 341.13598 234.0662 341.99998 234.0662 341.99998 234.0662 341.99998 236.1542 343.58398 237.0902 343.65598 238.0262 343.72798 238.6742 343.00798 239.2502 341.99998 239.8262 340.99198 239.0342 341.13598 238.8902 340.77598 238.6742 340.41598 239.6102 339.33598 239.2502 339.04798L239.2502 339.04798zM248.2502 345.67198C247.8902 345.67198 246.3062 345.67198 246.3062 345.67198 246.3062 345.67198 245.6582 344.87998 245.3702 344.80798 245.0822 344.80798 244.5782 345.09598 244.3622 345.38398 244.2182 345.59998 244.1462 347.54398 244.3622 347.75998 244.5062 347.97598 245.9462 347.47198 246.1622 347.68798 246.4502 347.90398 246.0902 349.12798 246.3782 349.27198 246.6662 349.34398 248.2502 348.98398 248.3942 348.69598 248.5382 348.47998 248.3942 347.32798 248.3942 347.18398 248.3942 347.03998 248.8262 345.74398 248.2502 345.67198L248.2502 345.67198zM239.1062 345.23998C239.0342 345.67198 239.0342 347.18398 239.0342 347.18398 239.0342 347.18398 238.2422 347.83198 238.2422 348.11998 238.1702 348.47998 238.4582 348.91198 238.7462 349.12798 238.9622 349.27198 240.9062 349.34398 241.1222 349.19998 241.3382 348.98398 240.8342 347.61598 241.1222 347.32798 241.3382 347.11198 242.5622 347.47198 242.6342 347.18398 242.7782 346.89598 242.4182 345.31198 242.1302 345.16798 241.9142 345.02398 240.7622 345.16798 240.6182 345.16798 240.4742 345.16798 239.1782 344.66398 239.1062 345.23998L239.1062 345.23998zM214.7702 322.63198C214.7702 322.63198 220.1702 324.57598 221.8982 327.31198 223.6982 330.04798 222.6182 333.64798 222.6182 333.64798 222.6182 333.64798 219.9542 333.35998 219.1622 333.21598 218.4422 332.99998 217.5062 333.35998 216.4982 333.14398 215.4182 332.99998 214.9862 330.55198 214.9862 330.55198 214.9862 330.55198 215.1302 327.59998 215.1302 326.87998 215.1302 325.72798 214.7702 322.63198 214.7702 322.63198z"/>
    <path fill="#73246C" d="M214.6262 320.47198C215.3462 321.26398 223.9142 324.93598 224.7782 329.18398 225.5702 333.43198 221.3942 335.37598 222.1862 336.52798 222.7622 337.24798 227.7302 335.59198 226.2902 328.67998 224.8502 321.76798 213.8342 319.67998 214.6262 320.47198L214.6262 320.47198zM221.5382 337.17598C221.4662 336.59998 220.8182 337.03198 220.6742 336.45598 220.4582 335.80798 220.9622 334.43998 220.8902 334.15198 220.7462 333.93598 218.6582 334.72798 217.7942 334.58398 217.0022 334.43998 217.1462 333.86398 216.4262 333.64798 215.7062 333.43198 214.1222 336.16798 214.4822 336.95998 214.9142 337.75198 216.2822 339.19198 216.2822 339.19198 216.2822 339.19198 218.4422 340.05598 219.4502 339.62398 220.4582 339.26398 221.5382 337.75198 221.5382 337.17598L221.5382 337.17598zM236.1542 330.69598C236.2262 335.44798 234.3542 338.97598 233.0582 338.25598 231.9062 337.67998 234.8582 335.30398 234.7862 331.27198 234.6422 326.73598 231.8342 324.14398 232.6262 323.85598 233.2742 323.56798 236.0822 326.80798 236.1542 330.69598zM213.0422 317.95198C212.7542 317.80798 212.5382 318.09598 212.2502 318.95998 211.8902 320.11198 213.7622 326.08798 213.7622 328.10398 213.7622 330.11998 212.5382 333.86398 213.1862 335.08798 213.8342 336.31198 214.4102 328.67998 214.5542 327.23998 214.6982 325.79998 213.1142 320.47198 213.2582 319.39198 213.4022 318.31198 213.3302 318.09598 213.0422 317.95198L213.0422 317.95198z"/>
    <path fill="#73246C" d="M211.0982 322.91998C210.7382 323.78398 211.6742 323.71198 211.6022 328.39198 211.5302 333.07198 210.9542 331.99198 211.1702 333.64798 211.4582 335.23198 212.8982 329.25598 212.8982 327.74398 212.8982 326.15998 211.4582 322.05598 211.0982 322.91998L211.0982 322.91998zM249.2582 341.35198C249.2582 340.77598 248.7542 340.34398 248.2502 340.34398 247.6742 340.34398 247.2422 340.77598 247.2422 341.35198 247.2422 341.92798 247.6742 342.35998 248.2502 342.35998 248.7542 342.35998 249.2582 341.92798 249.2582 341.35198zM227.8022 322.99198C227.8022 322.48798 227.3702 322.12798 226.8662 322.12798 226.4342 322.12798 226.0022 322.48798 226.0022 322.99198 226.0022 323.49598 226.4342 323.85598 226.8662 323.85598 227.3702 323.85598 227.8022 323.49598 227.8022 322.99198zM218.6582 341.27998C218.7302 340.70398 218.2982 340.19998 217.7942 340.12798 217.2182 340.05598 216.7142 340.48798 216.6422 341.06398 216.5702 341.56798 217.0022 342.07198 217.5782 342.14398 218.0822 342.21598 218.5862 341.78398 218.6582 341.27998zM227.9462 341.99998C228.0182 341.49598 227.6582 340.91998 227.1542 340.77598 226.5782 340.70398 226.0022 341.06398 225.9302 341.56798 225.7862 342.14398 226.1462 342.64798 226.7222 342.79198 227.2262 342.93598 227.8022 342.57598 227.9462 341.99998zM236.2982 345.23998C236.4422 344.66398 236.1542 344.08798 235.6502 343.94398 235.0742 343.72798 234.4982 344.01598 234.3542 344.59198 234.2102 345.09598 234.4982 345.67198 235.0022 345.88798 235.5782 346.03198 236.0822 345.74398 236.2982 345.23998zM229.0262 336.02398C228.6662 336.16798 227.2262 336.74398 227.2262 336.74398 227.2262 336.74398 226.3622 336.23998 226.0742 336.31198 225.7142 336.38398 225.4262 336.88798 225.3542 337.17598 225.2822 337.46398 226.0022 339.33598 226.2182 339.47998 226.5062 339.62398 227.5862 338.54398 227.8742 338.68798 228.2342 338.75998 228.3782 340.05598 228.6662 340.05598 228.9542 340.05598 230.2502 339.11998 230.3222 338.83198 230.3942 338.54398 229.7462 337.53598 229.7462 337.39198 229.6742 337.31998 229.6022 335.87998 229.0262 336.02398L229.0262 336.02398zM224.7782 352.15198C229.8902 353.23198 234.8582 354.81598 239.5382 356.90398 239.4662 357.04798 239.3942 357.19198 239.3222 357.33598L234.4262 357.40798 237.5942 361.00798C237.5222 361.15198 237.5222 361.29598 237.4502 361.43998 219.0902 353.44798 198.0662 353.44798 179.7062 361.43998 179.6342 361.29598 179.5622 361.15198 179.4902 361.00798L182.6582 357.40798 177.7622 357.33598C177.6902 357.19198 177.6182 357.04798 177.5462 356.90398 182.2982 354.81598 187.2662 353.23198 192.4502 352.15198 203.0342 349.84798 214.1222 349.84798 224.7782 352.15198L224.7782 352.15198zM232.3382 344.51998C232.2662 344.08798 231.9062 342.64798 231.9062 342.64798 231.9062 342.64798 232.4822 341.78398 232.4102 341.49598 232.4102 341.20798 231.9782 340.77598 231.6902 340.70398 231.4742 340.55998 229.5302 341.06398 229.3142 341.27998 229.1702 341.49598 230.0342 342.71998 229.8902 343.00798 229.7462 343.29598 228.4502 343.29598 228.4502 343.58398 228.3782 343.87198 229.1702 345.31198 229.4582 345.38398 229.7462 345.52798 230.7542 345.02398 230.8982 345.02398 231.0422 344.95198 232.4102 345.09598 232.3382 344.51998L232.3382 344.51998zM221.1062 340.12798C221.2502 340.48798 221.8982 341.92798 221.8982 341.92798 221.8982 341.92798 221.4662 342.79198 221.6102 343.15198 221.6822 343.43998 222.1862 343.72798 222.4742 343.79998 222.7622 343.87198 224.5622 343.00798 224.7062 342.71998 224.7782 342.50398 223.6982 341.49598 223.8422 341.13598 223.9142 340.77598 225.1382 340.55998 225.1382 340.27198 225.1382 339.98398 224.0582 338.75998 223.7702 338.68798 223.4822 338.68798 222.5462 339.33598 222.4022 339.40798 222.3302 339.40798 220.8902 339.62398 221.1062 340.12798L221.1062 340.12798zM243.4262 351.28798C243.4262 350.71198 242.9222 350.27998 242.4182 350.27998 241.8422 350.27998 241.4102 350.71198 241.4102 351.28798 241.4102 351.86398 241.8422 352.29598 242.4182 352.29598 242.9222 352.29598 243.4262 351.86398 243.4262 351.28798z"/>
    <path fill="#73246C" d="M191.8742 349.91998C186.3302 351.07198 181.0022 352.87198 175.9622 355.17598 175.6022 355.24798 175.6022 355.60798 175.7462 355.89598 175.8902 356.32798 176.2502 356.39998 176.6102 356.18398 181.5782 353.95198 186.7622 352.22398 192.2342 351.07198 202.9622 348.76798 214.1942 348.76798 224.9942 351.07198 230.3942 352.22398 235.5782 353.95198 240.4742 356.18398 240.9062 356.39998 241.1942 356.32798 241.4102 355.89598 241.5542 355.60798 241.4822 355.24798 241.1942 355.17598 236.0822 352.87198 230.8262 351.07198 225.2822 349.91998 214.3382 347.54398 202.8902 347.54398 191.8742 349.91998L191.8742 349.91998zM206.9942 316.87198C206.9942 316.00798 207.7142 315.21598 208.5782 315.21598 209.5142 315.21598 210.2342 316.00798 210.2342 316.87198 210.2342 317.30398 210.0182 317.73598 209.7302 318.02398 209.8742 318.16798 210.0182 318.38398 210.1622 318.59998 210.5942 318.16798 210.8822 317.51998 210.8822 316.87198 210.8822 315.57598 209.8742 314.56798 208.5782 314.56798 207.3542 314.56798 206.2742 315.57598 206.2742 316.87198 206.2742 317.51998 206.5622 318.16798 207.0662 318.59998 207.1382 318.38398 207.2822 318.16798 207.4262 318.02398 207.1382 317.73598 206.9942 317.30398 206.9942 316.87198L206.9942 316.87198z"/>
    <path fill="#A38D44" d="M199.5062,353.37598 C199.5062,352.58398 200.0822,351.93598 200.8742,351.93598 C201.6662,351.93598 202.3142,352.58398 202.3142,353.37598 C202.3142,354.16798 201.6662,354.74398 200.8742,354.74398 C200.0822,354.74398 199.5062,354.16798 199.5062,353.37598 Z"/>
    <polygon fill="#A38D44" points="208.578 355.248 203.682 352.944 208.578 350.712 213.546 352.944"/>
    <polygon fill="#A38D44" points="193.602 356.76 188.274 355.608 192.666 352.368 197.922 353.52"/>
    <path fill="#A38D44" d="M184.3142 356.83198C184.0982 356.11198 184.6022 355.31998 185.3942 355.17598 186.1142 355.03198 186.8342 355.53598 187.0502 356.25598 187.1942 357.04798 186.6902 357.76798 185.9702 357.91198 185.1782 358.05598 184.4582 357.62398 184.3142 356.83198zM217.7222 353.37598C217.7222 352.58398 217.0742 351.93598 216.2822 351.93598 215.5622 351.93598 214.9142 352.58398 214.9142 353.37598 214.9142 354.16798 215.5622 354.74398 216.2822 354.74398 217.0742 354.74398 217.7222 354.16798 217.7222 353.37598z"/>
    <polygon fill="#A38D44" points="223.626 356.76 228.882 355.608 224.562 352.368 219.234 353.52"/>
    <path fill="#A38D44" d="M232.9142,356.83198 C233.0582,356.11198 232.5542,355.31998 231.8342,355.17598 C231.0422,355.03198 230.3222,355.53598 230.1782,356.25598 C230.0342,357.04798 230.4662,357.76798 231.2582,357.91198 C231.9782,358.05598 232.7702,357.62398 232.9142,356.83198 Z"/>
    <circle cx="200.874" cy="353.376" r="1" fill="#73246C"/>
    <polygon fill="#73246C" points="208.578 351.288 204.978 352.944 208.578 354.672 212.25 352.944"/>
    <polygon fill="#73246C" points="192.81 352.944 189.57 355.32 193.458 356.184 196.698 353.808"/>
    <path fill="#73246C" d="M185.0342 356.68798C184.9622 356.32798 185.1782 356.03998 185.5382 355.96798 185.8982 355.89598 186.1862 356.11198 186.2582 356.39998 186.3302 356.75998 186.1142 357.11998 185.7542 357.19198 185.4662 357.26398 185.1062 357.04798 185.0342 356.68798L185.0342 356.68798zM216.9302 353.37598C216.9302 353.01598 216.6422 352.72798 216.2822 352.72798 215.9222 352.72798 215.7062 353.01598 215.7062 353.37598 215.7062 353.73598 215.9222 354.02398 216.2822 354.02398 216.6422 354.02398 216.9302 353.73598 216.9302 353.37598z"/>
    <polygon fill="#73246C" points="224.418 352.944 227.658 355.32 223.698 356.184 220.458 353.808"/>
    <path fill="#73246C" d="M232.1222,356.68798 C232.1942,356.32798 231.9782,356.03998 231.6902,355.96798 C231.3302,355.89598 230.9702,356.11198 230.8982,356.39998 C230.8262,356.75998 231.0422,357.11998 231.4022,357.19198 C231.7622,357.26398 232.0502,357.04798 232.1222,356.68798 L232.1222,356.68798 Z"/>
    <path fill="#A38D44" d="M61.05024 393.19198C64.72223 393.19198 67.74623 396.21598 67.74623 399.88798 67.74623 403.55998 64.72223 406.58398 61.05024 406.58398 57.37824 406.58398 54.42624 403.55998 54.42624 399.88798 54.42624 396.21598 57.37824 393.19198 61.05024 393.19198L61.05024 393.19198zM61.05024 396.21598C59.03424 396.21598 57.37824 397.87198 57.37824 399.88798 57.37824 401.97598 59.03424 403.63198 61.05024 403.63198 63.13824 403.63198 64.79423 401.97598 64.79423 399.88798 64.79423 397.87198 63.13824 396.21598 61.05024 396.21598zM75.88222 419.83198C77.75422 419.83198 79.41022 420.55198 80.56222 421.77598L80.56222 421.77598 80.56222 421.77598 80.56222 421.77598C81.78622 422.99998 82.50622 424.65598 82.50622 426.45598 82.50622 430.12798 79.55422 433.07998 75.88222 433.07998 74.08222 433.07998 72.42623 432.35998 71.20223 431.13598L71.20223 431.13598 71.20223 431.13598 71.20223 431.13598C69.97823 429.98398 69.25823 428.25598 69.25823 426.45598 69.25823 422.78398 72.21023 419.83198 75.88222 419.83198L75.88222 419.83198zM75.88222 422.78398C73.86622 422.78398 72.21023 424.43998 72.21023 426.45598 72.21023 427.46398 72.64223 428.39998 73.29022 429.04798L73.29022 429.04798C73.93822 429.76798 74.87422 430.12798 75.88222 430.12798 77.89822 430.12798 79.55422 428.47198 79.55422 426.45598 79.55422 425.44798 79.19422 424.51198 78.47422 423.86398L78.47422 423.86398C77.82622 423.21598 76.89022 422.78398 75.88222 422.78398z"/>
  </g>
</svg>
