<?xml version="1.0" encoding="utf-8"?>
<!-- Generator: Adobe Illustrator 22.0.1, SVG Export Plug-In . SVG Version: 6.00 Build 0)  -->
<svg version="1.2" baseProfile="tiny" id="Capa_1" xmlns="http://www.w3.org/2000/svg" xmlns:xlink="http://www.w3.org/1999/xlink"
	 x="0px" y="0px" viewBox="0 0 400 400" xml:space="preserve">
<g id="Capa_4_4_">
	<g>
		<path fill="#F6D104" d="M196.8,2.1h5.4v5.2h5v5.2h-5v5c4.6,1.3,8.3,4.7,9.1,10c0.2,1.5,0,3-0.1,4.4c2.2-0.3,4.3-1,6.8-1.1
			c7.7-0.6,14.9,2.2,19.1,5.5l4.1,3.9l1.6,2l5-1.6c3.2-0.7,7.6-0.9,11-0.3c7.8,1.3,13.8,5.3,17.8,10.8c1.5,2,2.9,3.9,3.9,6.5
			c0.9,2.6,2.1,5.4,2.4,8.9c0.6,8.3-1.4,15.1-3.5,20.8c-2.2,6.3-5.2,12.2-8.6,17.3c-1.6,2.4-2.5,4.1-4.9,5.6l1.7,2.9
			c1.5,4.2-0.1,8.1-2.5,10.2c-2.4,2.1-5.6,3.7-9.6,4.1c-8,0.8-16.2-3.7-16.2-11.4c-1.4,1.2-2.9,2.5-4.7,3.2
			c-8.8,3.5-18.7,0.4-21.4-7.4l-2.8,3.5c-5.4,4.4-15.9,4.4-21.2,0l-2.8-3.5l-1.4,3.2c-4.9,7.4-18.4,7.6-24.6,1.4
			c-0.5,4.8-2.3,7.1-5.6,9.1c-7.5,4.4-19.7,2.4-22.3-5.4c-0.7-2.1-0.8-4.9,0.1-7l1.5-2.4c-3.4-2.1-5.7-6.6-7.7-10.3
			c-4.5-8.3-8.4-16.5-9.3-28.7c-0.2-2.7,0-5.5,0.4-7.8c2.3-11.7,10.9-20.4,21.8-22.9l1.8-0.3c1.5-0.3,3.4-0.6,5.2-0.4h0.1
			c1.4,0.2,2.9,0.2,4.4,0.5l4.3,1.2l1.4,0.5l0.1-0.1c1.8-1.6,3.2-3.7,5.1-5.2c4.2-3.6,10.5-6.2,17.9-6.2c3,0,5.6,0.7,8.3,1.1
			c-1.4-5.7,2-10.9,5-12.9l4-1.8v-5h-5.1V7.3h5.1C196.8,5.6,196.8,3.7,196.8,2.1z"/>
		<path fill="#E00A1D" d="M61,264.3C61,190.7,123.4,131,200.5,131c77,0,139.5,59.7,139.5,133.4s-62.4,133.4-139.5,133.4
			S61,338,61,264.3z"/>
		<path fill="#E00A1D" d="M145.2,57.5c-4.5,0.3-7.6,2.5-9.5,5.6c-3.5,5.6-1,15.9,0.9,21.3c1,2.9,2.6,5.6,4,8.2
			c0.9,1.7,2.1,3.3,3.3,4.9c1.5,2.2,3.4,4.2,3,8.3c1.9,0.3,3.2,0.4,4.7,0.9c2.5,0.7,4.2,2.3,6.1,3.7c0-2.9,1-4.6,2.2-6.2l2.2-2.2
			l1.1-0.8l-1.3-1.4c-1.7-1.9-2.7-4.9-3.8-7.4c-3.3-7.5-6.2-15.2-7.4-24.9c-0.4-3-0.6-6.4-0.1-9.5C149.2,57.7,146.9,57.3,145.2,57.5
			z"/>
		<path fill="#E00A1D" d="M217,47.9c-3.5,0.3-6.4,1.3-8.9,2.6v29.8v9.1c0,1.5,0.1,3.1-0.1,4.4c-0.2,1.6-0.9,2.9-1.6,4
			c4,2,5.6,3.4,7.5,7.7c1.6-3.4,5-5.3,8.8-6.4l-0.5-3.6c0.2-2.8,1.5-4.6,2.3-6.6c0.9-2,1.8-4,2.6-6c2.5-5.9,7-19.6,3.9-27.5
			c-0.8-1.9-2-3.2-3.4-4.4C225.3,48.9,221.8,47.5,217,47.9z"/>
		<path fill="#E00A1D" d="M180.6,48.2c-18.8,1.5-13.6,21.2-8.8,34.2c0.8,2.3,1.9,4.5,2.9,6.7c1.5,3.4,3,5.5,1.9,10.4
			c3.2,0.6,6.1,2.4,7.8,4.7l1.2,1.6l0.3-1c1.1-3.5,4.1-5.3,7.1-6.8l-1.5-3.5c-0.6-3-0.1-7.5-0.1-10.7v-23c0-3.3,0.3-6.9-0.1-10.1
			C188.2,49.5,184.8,47.9,180.6,48.2z"/>
		<path fill="#E00A1D" d="M253.1,57c-1.5,0.1-3,0.3-4.2,0.7c0.5,3.3,0.2,7-0.2,10c-1.1,9.3-3.9,17-7.2,24c-1.2,2.7-2.4,6.2-4.3,8.1
			v1.7l1.9,1.7c1.1,1.2,2.1,2.6,2.5,4.5l0.3,1.6l-0.1,0.2l0.1,0.3l0.3-0.1l2-1.8c2.1-1.5,5.2-2.7,8.6-2.7c-0.2-4.4,1.6-6.4,3.4-8.8
			c1.1-1.5,2.1-3.1,3.1-4.6l0.9-1.6l0.8-1.4l0.7-1.4l0.6-1.2l0.4-1.1l0.4-1l0.3-1l0.3-0.9l0.3-0.7c0.8-2.5,1.5-5.4,1.8-8.4l0.1-1.6
			c0.1-3.3,0.1-6.1-1.2-8.5l-1.2-1.6C261.3,58.9,257.8,56.6,253.1,57z"/>
		<polygon fill="#1A171B" points="290.2,177.5 290.8,177.9 287.5,186.8 286.7,186.9 		"/>
		<polygon fill="#1A171B" points="264.5,158.8 264.9,159.1 264.7,172.3 264.1,173.4 		"/>
		<path fill="#1A171B" d="M79.7,263.1c0-2.5,2.6-4.6,5.8-4.6s5.8,2.1,5.8,4.6s-2.6,4.6-5.8,4.6S79.7,265.7,79.7,263.1z"/>
		<path fill="#1A171B" d="M91.3,305c6.3-1.8,10.5-8.2,8.9-14.5l-2-8.2l-24.3,6.1l2,8.2C77.5,303.1,84.8,306.8,91.3,305z M89.9,299.1
			c-3.5,1-7.7-0.4-8.5-3.9l-0.6-2.3l13.5-3.3l0.6,2.3C95.6,295.1,93.1,298.1,89.9,299.1z"/>
		<polygon fill="#1A171B" points="92.9,333.6 97.8,330.9 93.5,323.1 97.7,320.7 101.2,327.2 106.1,324.4 102.5,318.1 105.6,316.3 
			109.8,323.8 114.7,321.1 107.6,308.4 85.7,320.5 		"/>
		<path fill="#1A171B" d="M132.3,360.9c1.8-2.3,1.5-5.2,0-7.6c2.4,0.5,4.7,0,6.2-2c2.7-3.5,0.2-7.8-3.6-10.8l-5.3-4.2l-15.4,19.7
			l5.8,4.5C124.1,363.8,129.4,364.7,132.3,360.9z M133,348.6c-0.8,1-1.9,0.9-3.8-0.5l-0.7-0.6l2.4-3.1l0.7,0.6
			C133.4,346.4,133.7,347.6,133,348.6z M127.9,356.7c-1.1,1.4-2.8,0.8-4.8-0.8l-0.8-0.6l2.9-3.7l0.8,0.6
			C128.2,353.9,129,355.4,127.9,356.7z"/>
		<path fill="#1A171B" d="M160.4,381.1l1.8-26.1l-4.7-2.1l-18.2,18.8l5,3.7l3.5-4l7.3,3.2l-0.6,5.2L160.4,381.1z M155.7,368.9
			l-4.1-1.8l5.1-5.9L155.7,368.9z"/>
		<path fill="#1A171B" d="M191.6,385.7l-5.4-9c2.9-1,4.8-3.4,5.2-6.1c0.8-4.9-3.5-9-8.4-9.9l-6.9-1.1l-3.9,24.8l5.9,0.9l1.3-8.2
			l0.9,0.1l5.6,10.1L191.6,385.7z M185.4,369.6c-0.3,1.8-2.4,2.5-4.2,2.2l-0.9-0.2l0.9-5.5l0.9,0.1
			C184.9,366.7,185.6,367.9,185.4,369.6z"/>
		<path fill="#1A171B" d="M221,383l-3.9-4c-1,1.9-2.8,2.8-4.9,2.8c-3.6,0-5.1-4-5.3-7.5c-0.3-3.5,0.7-7.5,4.2-8.2
			c2.1-0.4,3.8,0.2,5.3,1.7l3.3-4.1c-2.6-2.5-5.4-3.4-9-3.1c-6.3,0.4-10.4,7.5-9.9,14.1c0.4,6.6,5.2,13,11.8,12.6
			C216.1,387.1,218.7,385.9,221,383z"/>
		<polygon fill="#1A171B" points="248.3,378.9 246.7,373.6 238.1,376.2 236.7,371.6 243.7,369.5 242,364.1 235.1,366.3 234,362.9 
			242.2,360.4 240.6,355 226.7,359.3 234,383.3 		"/>
		<polygon fill="#1A171B" points="274.9,365.3 272.2,360.5 264.5,364.7 255.1,347.7 249.8,350.6 262,372.5 		"/>
		<path fill="#1A171B" d="M290,335.9c-4.7-4.8-12.4-6.6-17.3-1.9s-3.4,12.5,1.3,17.3c4.7,4.8,12.4,6.6,17.3,1.9
			C296.1,348.6,294.6,340.8,290,335.9z M285.6,340.1c2.9,3,4.4,6.6,1.8,9.1c-2.6,2.5-6.2,0.8-9.1-2.1c-2.9-3-4.4-6.6-1.8-9.1
			C279.1,335.5,282.7,337.1,285.6,340.1z"/>
		<polygon fill="#1A171B" points="318.8,314.2 296.9,302 294,307.3 306.4,314.2 289.8,314.8 286.9,320.1 308.8,332.2 311.7,327 
			299.3,320.1 315.9,319.5 		"/>
		<path fill="#1A171B" d="M327.9,279.4l-25.9,3.7l-1.1,5l22.2,13.9l2.6-5.6l-4.6-2.6l1.6-7.8l5.3-0.5L327.9,279.4z M316.8,286.5
			l-0.9,4.4l-6.8-3.8L316.8,286.5z"/>
		<path fill="#1A171B" d="M311.2,265.8c0-2.5,2.6-4.6,5.8-4.6s5.8,2.1,5.8,4.6c0,2.5-2.6,4.6-5.8,4.6
			C313.8,270.4,311.2,268.3,311.2,265.8z"/>
		<polygon fill="#1A171B" points="302.4,250.7 307.8,249.4 305.7,240.9 324.6,236.2 323.2,230.3 298.8,236.4 		"/>
		<path fill="#1A171B" d="M308.3,222.9c5.8-3.4,9.4-10.5,6-16.3c-3.4-5.8-11.3-6.3-17.1-2.9c-5.8,3.3-9.4,10.5-6,16.3
			C294.6,225.8,302.5,226.3,308.3,222.9z M305.3,217.6c-3.6,2.1-7.5,2.7-9.3-0.4c-1.8-3.1,0.7-6.2,4.3-8.3c3.6-2.1,7.5-2.7,9.3,0.4
			C311.4,212.4,308.9,215.5,305.3,217.6z"/>
		<polygon fill="#1A171B" points="300.4,191.3 297.8,185.6 286.1,189 290.3,177.6 284.9,174.6 280,190.6 273,197.1 277.2,201.5 
			284.1,195.1 		"/>
		<polygon fill="#1A171B" points="263.6,187.8 276.9,166.6 271.8,163.4 264.2,175.4 264.5,158.8 259.4,155.7 246.1,176.9 
			251.2,180.1 258.7,168.1 258.5,184.7 		"/>
		<path fill="#1A171B" d="M241.4,173.8l-2.8-26l-4.9-1.2L219,168.2l5.5,2.7l2.7-4.5l7.7,1.9l0.3,5.3L241.4,173.8z M234.6,162.5
			l-4.4-1.1l4-6.7L234.6,162.5z"/>
		<path fill="#1A171B" d="M215.2,151.9c0-5.4-5.1-9-10.5-9h-7V168h6v-7.1h1C210.1,160.9,215.2,157.2,215.2,151.9z M209.1,151.9
			c0,2.1-2.3,3.4-4.4,3.4h-1v-6.8h1C206.9,148.5,209.1,149.8,209.1,151.9z"/>
		<path fill="#1A171B" d="M187.8,161.2c-0.7-3.7-3.7-5.4-7.4-6.4l-1.7-0.5c-1.8-0.5-3.4-0.8-3.3-2.3l1.6-2l3.7,0.6l2.7-4.7
			c-2.3-1.7-4.7-2-7.6-1.3c-3.7,0.8-7.1,4.6-6.3,8.7c0.8,4,4.4,5.4,8.3,6.6l1.5,0.4l2.6,2.1l-1.8,2.8c-1.7,0.5-3.7,0.1-4.4-1.5
			l-2.9,4.9c2.5,2.3,5.8,2.6,8.5,2C185.7,169.8,188.7,165.6,187.8,161.2z"/>
		<polygon fill="#1A171B" points="165.9,173.1 163.6,168 155.4,171.7 153.5,167.3 160.2,164.4 157.9,159.2 151.2,162.2 149.7,159 
			157.6,155.5 155.3,150.4 142,156.4 152.2,179.2 		"/>
		<path fill="#1A171B" d="M127.3,178.2c-4.9-4.4-12.4-4.5-17,0.2l-5.9,6.1l18,17.4l5.9-6.1C133,190.8,132.3,182.7,127.3,178.2z
			 M123.1,182.5c2.7,2.4,3.7,6.7,1.2,9.3l-1.7,1.8l-10-9.6l1.7-1.8C116.6,179.8,120.5,180.3,123.1,182.5z"/>
		<path fill="#1A171B" d="M114,205.6l-5.5,1.1c1,1.9,0.9,3.9-0.3,5.7c-2,3-6.1,2.1-9.2,0.4c-3.1-1.7-5.9-4.7-4.5-8
			c0.9-2,2.2-3.1,4.3-3.5l-1.6-5.1c-3.6,0.8-5.8,2.6-7.5,5.8c-3.1,5.5,0.6,12.8,6.4,16c5.8,3.2,13.8,2.8,17-3.1
			C114.8,211.8,115.2,209,114,205.6z"/>
		<path fill="#1A171B" d="M102.3,226.7l-9.3,4.7c-0.8-2.9-3-5.1-5.7-5.7c-4.9-1.1-9.3,2.8-10.4,7.7l-1.6,6.8l24.5,5.6l1.4-5.9
			l-8.1-1.9l0.2-0.9l10.5-4.9L102.3,226.7z M85.9,231.7c1.8,0.4,2.3,2.5,1.9,4.3l-0.2,0.9l-5.4-1.3l0.2-0.9
			C83,232,84.2,231.3,85.9,231.7z"/>
		<path fill="#F6D104" d="M78,264.4c0-2.5,2.6-4.6,5.8-4.6s5.8,2.1,5.8,4.6c0,2.6-2.6,4.6-5.8,4.6S78,267,78,264.4z"/>
		<path fill="#F6D104" d="M309.6,264.4c0-2.5,2.6-4.6,5.8-4.6c3.2,0,5.8,2.1,5.8,4.6c0,2.6-2.6,4.6-5.8,4.6
			C312.2,269,309.6,267,309.6,264.4z"/>
		<path fill="#F6D104" d="M112.3,206.1l-5.5,1.1c1,1.9,0.9,3.9-0.3,5.7c-1.9,3-6.1,2.1-9.2,0.4c-3.1-1.7-5.9-4.7-4.5-8
			c0.8-2,2.2-3.1,4.3-3.5l-1.6-5.1c-3.5,0.8-5.8,2.7-7.5,5.9c-3.1,5.5,0.6,12.8,6.4,16c5.8,3.2,13.8,2.8,17-3
			C113.1,212.3,113.5,209.5,112.3,206.1z"/>
		<path fill="#F6D104" d="M125.1,178.2c-4.9-4.4-12.4-4.5-17,0.2l-5.9,6.1l18.1,17.4l5.9-6.1C130.9,190.9,130.1,182.8,125.1,178.2z
			 M120.9,182.6c2.7,2.4,3.7,6.7,1.2,9.3l-1.7,1.7l-10-9.6l1.7-1.7C114.5,179.9,118.4,180.4,120.9,182.6z"/>
		<polygon fill="#F6D104" points="263,185.9 276.3,164.6 271.2,161.4 263.7,173.4 263.9,156.8 258.8,153.6 245.5,174.9 250.6,178.1 
			258.1,166 257.9,182.7 		"/>
		<path fill="#F6D104" d="M239.8,172.3l-2.8-26l-4.9-1.2l-14.7,21.7l5.5,2.8l2.7-4.5l7.7,1.9l0.3,5.3L239.8,172.3z M233,161
			l-4.4-1.1l4-6.7L233,161z"/>
		<path fill="#F6D104" d="M213.6,150.4c0-5.3-5.1-9-10.5-9h-7v25.1h6v-7.1h1C208.5,159.5,213.6,155.8,213.6,150.4z M207.5,150.4
			c0,2.1-2.3,3.4-4.4,3.4h-1v-6.8h1C205.3,147.1,207.5,148.3,207.5,150.4z"/>
		<path fill="#F6D104" d="M186.6,159.8c-0.7-3.7-3.7-5.4-7.4-6.4l-1.7-0.5c-1.8-0.5-3.4-0.8-3.3-2.3l1.6-2l3.7,0.6l2.7-4.7
			c-2.3-1.7-4.7-2-7.6-1.3c-3.6,0.8-7,4.6-6.3,8.7c0.8,4,4.4,5.4,8.3,6.6l1.5,0.4l2.6,2.1l-1.7,2.8c-1.7,0.5-3.7,0.1-4.4-1.5
			l-2.9,4.9c2.4,2.3,5.8,2.6,8.5,2C184.5,168.5,187.4,164.2,186.6,159.8z"/>
		<polygon fill="#F6D104" points="163.9,172.5 161.6,167.4 153.4,171.1 151.5,166.7 158.1,163.7 155.9,158.6 149.2,161.6 
			147.8,158.4 155.6,154.9 153.3,149.8 140,155.7 150.2,178.6 		"/>
		<polygon fill="#F6D104" points="300.4,189.1 297.8,183.5 286.2,186.9 290.3,175.5 284.9,172.5 280,188.5 273.1,194.9 277.2,199.4 
			284.1,192.9 		"/>
		<path fill="#F6D104" d="M308.2,220.9c5.8-3.4,9.4-10.5,6.1-16.3c-3.4-5.8-11.3-6.3-17.2-3c-5.8,3.3-9.4,10.5-6,16.3
			C294.5,223.8,302.4,224.2,308.2,220.9z M305.2,215.6c-3.6,2.1-7.5,2.7-9.3-0.4c-1.8-3.1,0.7-6.2,4.3-8.3c3.6-2.1,7.5-2.7,9.3,0.4
			S308.8,213.5,305.2,215.6z"/>
		<polygon fill="#F6D104" points="303.5,248.9 308.9,247.5 306.8,239 325.7,234.3 324.2,228.5 299.9,234.5 		"/>
		<path fill="#F6D104" d="M92.3,303.1c6.3-1.8,10.4-8.2,8.9-14.5l-2-8.2l-24.3,6.1l2,8.2C78.5,301.2,85.8,304.9,92.3,303.1z
			 M90.8,297.2c-3.5,1-7.7-0.4-8.5-3.9l-0.6-2.3l13.5-3.4l0.6,2.4C96.6,293.2,94.1,296.2,90.8,297.2z"/>
		<polygon fill="#F6D104" points="93.5,331.5 98.4,328.8 94.1,320.9 98.2,318.6 101.8,325 106.7,322.3 103.2,315.9 106.2,314.2 
			110.4,321.7 115.3,319 108.2,306.2 86.3,318.4 		"/>
		<path fill="#F6D104" d="M132.1,358.8c1.8-2.3,1.5-5.2-0.1-7.6c2.5,0.5,4.7,0,6.3-2c2.7-3.5,0.2-7.8-3.6-10.8l-5.3-4.2l-15.4,19.8
			l5.8,4.5C123.8,361.6,129.1,362.5,132.1,358.8z M132.7,346.4c-0.8,1-1.9,0.9-3.7-0.5l-0.7-0.6l2.4-3.1l0.7,0.5
			C133.2,344.2,133.5,345.4,132.7,346.4z M127.7,354.5c-1.1,1.4-2.8,0.8-4.8-0.8l-0.8-0.6l2.9-3.8l0.8,0.6
			C127.9,351.7,128.7,353.2,127.7,354.5z"/>
		<path fill="#F6D104" d="M159.1,379.4l1.8-26.1l-4.7-2.1L138,370l4.9,3.7l3.5-4l7.3,3.2l-0.6,5.2L159.1,379.4z M154.4,367.1
			l-4.1-1.8l5.1-5.9L154.4,367.1z"/>
		<path fill="#F6D104" d="M190.2,384l-5.4-9c2.9-1,4.8-3.4,5.2-6.1c0.8-5-3.5-9-8.4-9.8l-6.9-1.1l-3.9,24.8l5.9,0.9l1.3-8.2l0.9,0.1
			l5.6,10.1L190.2,384z M184,368c-0.3,1.8-2.4,2.5-4.2,2.1l-0.9-0.1l0.9-5.5l0.9,0.1C183.5,365,184.3,366.2,184,368z"/>
		<path fill="#F6D104" d="M219.4,381.9l-3.9-4c-1.1,1.9-2.8,2.8-4.9,2.9c-3.6,0-5.1-4-5.4-7.5c-0.2-3.5,0.8-7.5,4.3-8.2
			c2.1-0.4,3.8,0.2,5.3,1.7l3.3-4.1c-2.6-2.5-5.4-3.4-9-3.2c-6.3,0.4-10.4,7.5-9.9,14.1c0.4,6.6,5.2,13,11.8,12.6
			C214.6,386,217.2,384.8,219.4,381.9z"/>
		<polygon fill="#F6D104" points="246.4,378 244.8,372.6 236.2,375.3 234.8,370.7 241.8,368.6 240.1,363.2 233.1,365.4 232.1,362 
			240.3,359.5 238.6,354.2 224.7,358.4 232,382.4 		"/>
		<path fill="#F6D104" d="M288,335.5c-4.7-4.9-12.4-6.6-17.3-1.9c-4.8,4.7-3.4,12.5,1.3,17.4c4.7,4.8,12.4,6.6,17.3,1.9
			C294.1,348.1,292.7,340.3,288,335.5z M283.6,339.7c2.9,3,4.4,6.6,1.9,9.1c-2.6,2.5-6.2,0.9-9.1-2.1c-2.9-3-4.4-6.6-1.9-9.1
			C277.1,335,280.7,336.7,283.6,339.7z"/>
		<polygon fill="#F6D104" points="272.8,364.8 270.1,359.9 262.5,364.2 253,347.1 247.7,350 259.9,372 		"/>
		<path fill="#F6D104" d="M326.5,281.1l-25.9,3.7l-1.1,5l22.2,13.9l2.6-5.6l-4.6-2.6l1.7-7.8l5.3-0.5L326.5,281.1z M315.5,288.3
			l-0.9,4.4l-6.8-3.7L315.5,288.3z"/>
		<polygon fill="#F6D104" points="316.8,314.8 294.9,302.7 292,307.9 304.4,314.8 287.8,315.5 284.9,320.7 306.8,332.9 309.7,327.6 
			297.3,320.7 313.9,320.1 		"/>
		<polygon fill="#1A171B" points="91.2,232.5 90.9,231.6 102.1,225.9 102.3,226.7 		"/>
		<path fill="#F6D104" d="M100.6,227.8l-9.3,4.8c-0.8-2.9-3-5-5.8-5.7c-4.9-1.1-9.3,2.8-10.4,7.7l-1.6,6.8l24.4,5.6l1.3-5.9
			l-8.1-1.8l0.2-0.9l10.5-4.9L100.6,227.8z M84.2,232.9c1.8,0.4,2.3,2.6,1.9,4.3l-0.2,0.9l-5.4-1.3l0.2-0.9
			C81.2,233.2,82.4,232.5,84.2,232.9z"/>
		<polygon fill="#1A171B" points="191.5,385.7 192.2,385.5 186.7,376.1 185.9,376.5 		"/>
		<polygon fill="#1A171B" points="221,383 221.2,382.7 217.2,378.7 217,379.1 		"/>
		<polygon fill="#1A171B" points="108.6,206.7 114,205.6 113.9,205.2 108.5,206.4 		"/>
		<path fill="#FFFFFF" d="M292.6,264.3c0,2.9-0.1,5.7-0.4,8.5c-4,38.8-35.7,70-76.3,76.3c-5,0.8-10.1,1.2-15.3,1.2
			c-10.7,0-21.1-1.7-30.7-4.9c-6.2-2.1-12.1-4.7-17.7-7.9c-10.4-6-19.4-13.9-26.5-23.1c-3.8-4.9-7-10.3-9.7-15.9
			c-4.9-10.5-7.6-22.1-7.6-34.2c0-2.8,0.1-5.6,0.4-8.3c4-38.9,35.7-70.2,76.5-76.5c4.9-0.8,10-1.2,15.2-1.2
			c10.8,0,21.1,1.7,30.7,4.9c6.2,2.1,12.1,4.7,17.7,7.9c10.4,6,19.4,13.9,26.5,23.1c3.8,4.9,7,10.3,9.7,15.9
			C289.9,240.6,292.6,252.2,292.6,264.3z"/>
		<path fill="#2089C6" d="M292.6,264.3c0,2.9-0.1,5.7-0.4,8.5l-76.3,76.3c-5,0.8-10.1,1.2-15.3,1.2c-10.7,0-21.1-1.7-30.7-4.9
			l115.2-115.2C289.9,240.6,292.6,252.2,292.6,264.3z"/>
		<path fill="#2089C6" d="M275.4,214.3L152.2,337.5c-10.4-6-19.4-13.9-26.5-23.1l123.3-123.3C259.3,197.1,268.3,205,275.4,214.3z"/>
		<path fill="#2089C6" d="M231.2,183.2L116,298.5c-4.9-10.5-7.6-22.1-7.6-34.2c0-2.8,0.1-5.6,0.4-8.3l76.5-76.5
			c4.9-0.8,10-1.2,15.2-1.2C211.3,178.3,221.6,180,231.2,183.2z"/>
	</g>
</g>
<g>
</g>
<g>
</g>
<g>
</g>
<g>
</g>
<g>
</g>
<g>
</g>
<g>
</g>
<g>
</g>
<g>
</g>
<g>
</g>
<g>
</g>
<g>
</g>
<g>
</g>
<g>
</g>
<g>
</g>
</svg>
