<?xml version="1.0" encoding="utf-8"?>
<!-- Generator: Adobe Illustrator 22.0.1, SVG Export Plug-In . SVG Version: 6.00 Build 0)  -->
<svg version="1.2" baseProfile="tiny" id="Capa_1" xmlns="http://www.w3.org/2000/svg" xmlns:xlink="http://www.w3.org/1999/xlink"
	 x="0px" y="0px" viewBox="0 0 400 400" xml:space="preserve">
<g>
	<path fill="#AC1A3B" d="M225.1,114.5c0-4.8,3.8-8.6,8.6-8.6l3.4,0.7c4.3-3.6,7.1-7.9,8.3-12.4c-10.9-6.7-24.8-11-40.3-11.7v19.7
		c2.2,1.6,3.8,4.1,3.8,7.1c0,4.3-3.3,7.9-7.4,8.6c0.3,1.7,1.2,3.3,2.6,4.3c3.1,2.2,7.2,1.6,9.5-1.4l0.3-0.7l-0.3-3.8l4-0.5l0.7,4
		l-1.4,1c0.3,1.7,1.2,3.3,2.6,4.3c1.4,1,3.3,1.6,5,1.2c1.7-0.3,3.4-1.2,4.5-2.8l0.7-1.4C227.1,120.9,225.1,118,225.1,114.5z"/>
	<path fill="#AC1A3B" d="M191.6,109.4c0-3.1,1.7-5.9,4.3-7.4V82.5c-15.7,0.7-29.8,5-40.7,11.6c1,4.5,4,8.6,8.1,12.4l3.4-0.7
		c4.8,0,8.6,3.8,8.6,8.6c0,3.4-2.1,6.4-4.8,7.8v0.2c0.9,1.6,2.2,2.9,4,3.4s3.6,0.5,5.2-0.3c1.7-0.9,2.9-2.2,3.4-4l0.2-0.7
		c-1.4-0.5-2.1-2.1-1.6-3.6c0.5-1.6,2.2-2.2,3.6-1.9c1.6,0.5,2.4,2.1,1.9,3.6l-1,1.4c0.9,1.6,2.1,2.8,3.8,3.3
		c1.7,0.5,3.6,0.5,5.2-0.3s2.9-2.2,3.4-4l0.3-1.4C194.7,117.3,191.6,113.7,191.6,109.4z"/>
	<path fill="#AC1A3B" d="M166.6,123c-4.8,0-8.6-3.8-8.6-8.6v-0.5c-5-4.1-8.6-9-10.7-14.3c-7.4,6.4-12.2,14-13.6,22.4l2.4-0.3
		c4.8,0,8.6,3.8,8.6,8.6c0,2.2-0.9,4.3-2.2,5.9c1.2,1.2,2.9,1.9,4.7,1.9c3.8,0,6.9-3.1,6.9-6.9v-0.9c-1.4-0.2-2.6-1.4-2.6-2.9
		c0-1.6,1.4-2.9,2.9-2.9s2.9,1.4,2.9,2.9l-0.5,1.6c1.2,1.2,2.9,1.9,4.7,1.9c3.8,0,6.9-3.1,6.9-6.9l-0.2-1.4L166.6,123z"/>
	<path fill="#AC1A3B" d="M264.2,122l2.6,0.3c-1.4-8.4-6.2-16-13.4-22.4c-2.1,5.2-5.7,10.2-10.9,14.3v0.3c0,4.8-3.8,8.6-8.6,8.6
		l-1.4-0.2l-0.2,1.2c0,3.8,3.1,6.9,6.9,6.9c1.7,0,3.4-0.7,4.7-1.9l-0.5-1.6c0-1.6,1.2-2.9,2.9-2.9c1.6,0,2.9,1.2,2.9,2.9
		c0,1.4-0.9,2.4-2.1,2.8l-0.2,1.2c0,3.8,3.1,6.9,6.9,6.9c1.7,0,3.3-0.7,4.5-1.7c-1.6-1.6-2.6-3.8-2.6-6.2
		C255.6,125.8,259.4,122,264.2,122z"/>
	<path fill="#C18B26" d="M285.9,105.9c0-8.1-3.6-16-10-22.1c-6.9-6.6-16.2-10.2-26.6-10.5c-7.9-11-23.6-19.1-42.1-20.7
		c0-3.1-2.1-5.9-5-6.7v-1.4h3.4v-4h-3.4V38h-4.1v2.8h-3.4v4h3.4v1.2c-2.9,0.9-5,3.6-5,6.7c-18.4,1.7-34.1,9.7-42.1,20.7
		c-10.3,0.3-19.7,4-26.6,10.5c-6.4,6-10,13.8-10,22.1c0,9,4.7,17.4,12.9,24v0.5c0,4.8,3.8,8.6,8.6,8.6l2.8-0.5c0.7,1.4,3.1,5,8.4,5
		l-1,0.7c-0.9,0.7-2.2,2.6-0.7,4.8l2.9,1.6l1.2-0.2l4.5,6l0.9-0.7c13.3-9.7,28.8-14.8,45.3-14.8c16.4,0,32.1,5.2,45.3,14.8l0.9,0.7
		l4.5-6l1.2,0.2l2.9-1.6c1.4-2.2,0.2-4.1-0.7-4.8l-1-0.7c5.3,0,7.8-3.3,8.6-4.8l2.4,0.3c4.8,0,8.6-3.8,8.6-8.6v-0.5
		C281.3,123.3,285.9,114.9,285.9,105.9z M161.4,131.1c-1.7,0-3.4-0.7-4.7-1.9l0.5-1.6c0-1.6-1.4-2.9-2.9-2.9c-1.6,0-2.9,1.4-2.9,2.9
		c0,1.6,1.2,2.8,2.6,2.9v0.9c0,3.8-3.1,6.9-6.9,6.9c-1.9,0-3.4-0.7-4.7-1.9c1.4-1.6,2.2-3.6,2.2-5.9c0-4.8-3.8-8.6-8.6-8.6l-2.4,0.3
		l-1,0.3c-5.9-4.8-9.1-10.7-9.1-16.6c0-5.7,2.6-11.2,7.2-15.7c4.3-4,9.7-6.6,15.9-7.6c-0.7,2.4-1,4.8-1,7.2c0,3.3,0.7,6.7,1.9,9.8
		c2.1,5.2,5.7,10,10.7,14.3v0.5c0,4.8,3.8,8.6,8.6,8.6l1.4-0.2l0.2,1.4C168.2,128,165.1,131.1,161.4,131.1z M198.7,119.2
		c-0.5,1.7-1.7,3.1-3.4,4c-1.6,0.9-3.4,0.9-5.2,0.3c-1.7-0.5-3.1-1.7-3.8-3.3l1-1.4c0.5-1.6-0.3-3.1-1.9-3.6
		c-1.6-0.5-3.1,0.3-3.6,1.9c-0.5,1.4,0.2,2.9,1.6,3.6l-0.2,0.7c-0.5,1.7-1.7,3.1-3.4,4c-1.6,0.9-3.4,0.9-5.2,0.3
		c-1.7-0.5-3.1-1.7-4-3.4v-0.2c2.9-1.4,4.8-4.3,4.8-7.8c0-4.8-3.8-8.6-8.6-8.6l-3.4,0.7c-4.3-3.6-7.1-7.9-8.1-12.4
		c-0.3-1.4-0.5-2.8-0.5-4.3c0-14.5,18.4-27.1,41.2-28.4v21v19.3c-2.6,1.6-4.3,4.3-4.3,7.4c0,4.3,3.3,7.9,7.4,8.6L198.7,119.2z
		 M229.2,123.5c-1,1.4-2.6,2.4-4.5,2.8c-1.9,0.3-3.6-0.2-5-1.2c-1.4-1-2.2-2.6-2.6-4.3l1.4-1l-0.7-4l-4,0.5l0.3,3.8l-0.3,0.7
		c-2.2,3.1-6.6,3.6-9.5,1.4c-1.4-1-2.4-2.6-2.6-4.3c4.1-0.5,7.4-4.1,7.4-8.6c0-2.9-1.6-5.5-3.8-7.1V82.7V61.4
		c22.6,1.6,41,14,41,28.4c0,1.4-0.2,2.9-0.5,4.3c-1.2,4.5-4,8.6-8.3,12.4l-3.4-0.7c-4.8,0-8.6,3.8-8.6,8.6c0,3.4,1.9,6.4,4.8,7.8
		L229.2,123.5z M267.6,122.7l-1-0.3L264,122c-4.8,0-8.6,3.8-8.6,8.6c0,2.4,1,4.7,2.6,6.2c-1.2,1-2.8,1.7-4.5,1.7
		c-3.8,0-6.9-3.1-6.9-6.9l0.2-1.2c1.2-0.3,2.1-1.4,2.1-2.8c0-1.6-1.4-2.9-2.9-2.9c-1.6,0-2.9,1.2-2.9,2.9l0.5,1.6
		c-1.2,1.2-2.9,1.9-4.7,1.9c-3.8,0-6.9-3.1-6.9-6.9l0.2-1.2l1.4,0.2c4.8,0,8.6-3.8,8.6-8.6v-0.3c5-4.1,8.8-9,10.9-14.3
		c1.2-3.3,1.9-6.6,1.9-10c0-2.4-0.3-4.8-1-7.2c6.2,1,11.6,3.6,15.9,7.6c4.7,4.3,7.2,10,7.2,15.7C277.1,112,273.7,117.8,267.6,122.7z
		"/>
	<path fill="#C18B26" d="M251.1,165.4c-13.1-12.8-31-20.7-50.9-20.7s-37.6,7.9-50.9,20.7H3.9l195.9,195l196.9-195L251.1,165.4
		L251.1,165.4z"/>
	<polygon fill="#FFFFFF" points="20.4,172.3 48,199.7 48,172.3 	"/>
	<polygon fill="#4F8C4E" points="48,172.3 48,199.9 75.8,227.3 75.8,172.3 	"/>
	<polygon fill="#FFFFFF" points="75.8,172.3 75.8,227.3 103.3,254.9 103.3,172.3 	"/>
	<polygon fill="#FFFFFF" points="297.1,172.3 297.1,254.4 324.7,227.1 324.7,172.3 	"/>
	<polygon fill="#4F8C4E" points="324.7,172.3 324.7,227.1 352.5,199.7 352.5,172.3 	"/>
	<polygon fill="#FFFFFF" points="352.5,172.3 352.5,199.7 380,172.3 	"/>
	<path fill="#FFFFFF" d="M241.8,278.2v31l27.6-27.4v-40C264.4,256.8,254.5,269.4,241.8,278.2z"/>
	<path fill="#FFFFFF" d="M269.4,172.3h-12.1c5.2,6.6,9.3,13.8,12.1,21.9V172.3z"/>
	<path fill="#4F8C4E" d="M214,289.9v46.7l27.6-27.4v-31C233.5,283.9,224.2,288,214,289.9z"/>
	<path fill="#FFFFFF" d="M200.2,291.3c-4.7,0-9.3-0.5-13.8-1.4v47.6l13.3,13.3l14.3-14.1v-46.7C209.5,290.7,204.9,291.3,200.2,291.3
		z"/>
	<path fill="#4F8C4E" d="M158.7,278.2v31.7l27.6,27.6v-47.6C176.3,288,167,283.9,158.7,278.2z"/>
	<path fill="#FFFFFF" d="M143.2,172.3h-12.1v21.9C133.9,186.1,138,178.7,143.2,172.3z"/>
	<path fill="#FFFFFF" d="M131.1,242v40.5l27.6,27.6v-31.7C146.1,269.4,136.3,256.8,131.1,242z"/>
	<path fill="#4F8C4E" d="M127.1,218c0-8.3,1.4-16.4,4-23.8v-21.9h-27.6v82.6l27.6,27.6V242C128.5,234.4,127.1,226.4,127.1,218z"/>
	<path fill="#4F8C4E" d="M269.4,172.3v21.9c2.6,7.4,4,15.5,4,23.8s-1.4,16.4-4,23.8v40l27.8-27.4v-82.2h-27.8V172.3z"/>
	<path fill="#FFFFFF" d="M200.4,284.4c-36.6,0-66.4-29.8-66.4-66.4s29.8-66.4,66.4-66.4s66.4,29.8,66.4,66.4S237,284.4,200.4,284.4z
		"/>
	<path fill="#4F8C4E" d="M169.5,205.1h5.5v-8.3h-5.5v-10h16v27.4h-16C169.5,214.2,169.5,205.1,169.5,205.1z M169.5,241.3h5.5V233
		h-5.5v-9h16v26.7h-16C169.5,250.7,169.5,241.3,169.5,241.3z M214.7,250.7h-19.5V224h3.8v2.8h5.5V224h7.8c2.1,0,2.4,3.8,2.4,3.8
		L214.7,250.7L214.7,250.7z M214.7,208.5L214.7,208.5v1.2c0,0-0.5,4.3-3.3,4.3h-6.9v-3.6H199v3.6h-3.8v-27.4h19.5V208.5z M238.5,242
		c-0.5,1.4-3.1,8.6-5.9,8.6h-0.3h-9.1v-23.3l0,0c-0.2-1.6-0.9-3.3-0.9-3.4h9.7c0.7,0,7.1,2.6,7.1,10.3h-6.2v7.6h5.7V242z M239,204.9
		L239,204.9c0,0-3.4,9.3-6.4,9.3h-0.2H222c0.2-0.3,1.2-2.4,1.2-4.3v-23.1h9c0.2,0,6.9,2.4,6.9,10.5h-6.2v7.6H239z M253.7,197.3H248
		c0,0-1.2-15-12.4-19.8h-12.1v-0.3c0-12.1-8.8-14.5-15.3-14.5c-6.4,0-9.5,2.8-9.5,2.8v8.6c0,0,0.2-3.1,8.4-3.1
		c9.3,0,7.4,6.6,7.4,6.6l0,0h-19.7v-5.3c0-9-4.5-11.4-9.8-11.4h-3.8v9.7h2.2c1.6,0,1.9,1,1.9,1.9v5.2h-30.3v9.3h6.6v10h-6.6v8.3h6.6
		v9.1h-6.6v9.8h6.6v9h-6.6v8.3h6.6v9.5h-6.6v8.3h30.2v2.4c0,1.6-1.4,1.4-1.4,1.4h-2.9v9.7h6c2.4,0,8.1-2.6,8.1-9v-3.4v-1.2h19.7
		c0,4.5-2.2,6.6-8.3,6.6s-7.8-2.9-7.8-2.9v8.8c1.7,2.1,9.1,2.6,9.1,2.6c15,0,15.5-12.6,15.3-14.8h13.4c0,0,9.5-4,10.7-17.1h6.2v-7.6
		h-5.9c0-0.5-0.3-12.8-6.7-16.2c0,0,6.2-3.4,6.2-13.3l0,0h6.4v-7.6H253.7z"/>
</g>
<g>
</g>
<g>
</g>
<g>
</g>
<g>
</g>
<g>
</g>
<g>
</g>
<g>
</g>
<g>
</g>
<g>
</g>
<g>
</g>
<g>
</g>
<g>
</g>
<g>
</g>
<g>
</g>
<g>
</g>
</svg>
