<?xml version="1.0" encoding="utf-8"?>
<!-- Generator: Adobe Illustrator 22.0.1, SVG Export Plug-In . SVG Version: 6.00 Build 0)  -->
<svg version="1.2" width="466" height="567" baseProfile="tiny" id="Capa_1" xmlns="http://www.w3.org/2000/svg" xmlns:xlink="http://www.w3.org/1999/xlink"
	 x="0px" y="0px" viewBox="0 0 400 400" xml:space="preserve">
<g>
	<path fill="#FFFFFF" d="M193.4,399.4c-19.2,0-28.8-6.3-29.9-7l-0.7-0.5l-0.5-0.6c-17.6-19.6-36.2-30.7-40.1-32.9
		c-7.3-1.9-14.3-6.8-21.1-14.5c-5-5.7-7.9-11-8-11.3l-0.1-0.2c-13.1-24.9-39.7-42-41.8-43.3c-8.1-4.5-12.3-18.6-13.7-24.1
		c-13.5-26.8-10.8-41.9-10.4-43.5l0.1-0.5c0.5-6,1.6-11.9,2.8-17.6c2.3-11,4.3-21.3,0.9-32.5l-0.1-0.2c-7.7-27.7-2.3-61.6,3.3-86.9
		c-5.6-2.3-8.7-7.7-9.7-9.5l-0.5-0.8l-0.2-0.9c-2-8.6,3.2-14.9,6.8-19.1c0.6-0.7,1.3-1.5,1.9-2.3l0.4-0.5l1.2-1.1
		c3.6-3.4,9.1-8.6,16.7-8.6c1.6,0,3.2,0.3,4.7,0.7l0.5,0.2l0.5,0.3c4.1,2,7.6,5.3,9.3,9.1l0.1,0.3l0.1,0.3c1.4,4.3,1.3,9.1-0.5,13.3
		l71.1,76.9c-0.7-2-1-4.1-0.8-6.2c0-0.4,0.1-0.8,0.1-1.2c-0.1,0-5.2-3.4-5.2-3.4l2.6-6.3c-1.4-0.7-2.7-1.7-3.9-3.1l-1.1-1.3
		l-0.5-1.6c-0.2-0.7-1.4-1.1-1.7-1.1l-0.4-0.1l-0.3-0.1l0,0c-0.1,0-0.3,0-0.7,0s-1,0-1.4,0c-0.7,0-1.4,0.1-2,0.1
		c-9.4,0-12.1-6.2-12.9-9.8c-0.8-3.6-0.7-6.5-0.1-8.7c-1.1-2.3-2.1-5.2-1.9-8.6v-0.4l0.1-0.4c0.2-1.4,0.5-2.9,1.1-4.4
		c-1.1-3.5-1.2-7.2-0.2-10.6c0.5-1.5,1.2-3,2.1-4.2c-0.1-2.7,0.3-6.2,2.2-9.3c1.4-2.3,3.3-3.9,5.1-5c1.4-5.3,4.9-9.2,9.5-10.7
		c0.4-0.2,0.8-0.3,1.2-0.4c1.2-2.4,3.1-5.2,6.5-6.9c2.2-1.2,4.8-1.8,7.5-1.8c0.5,0,1,0,1.4,0.1c0.5-0.8,0.9-1.5,1.4-2.3l0.4-0.5
		l0.4-0.4c4.3-4.3,9.7-4.3,11.5-4.3c0.5,0,1.2,0,1.8,0h0.4l0.4,0.1c2.7,0.4,5,1.6,6.7,3c1.1-0.4,2.2-0.6,3.2-0.8
		c1-1.9,2.7-4.1,5.6-5.4c1.4-0.8,2.9-1.4,4.5-1.7V11.3h7.5V1.4h21.2v9.8h7.5v14.2c0.1,0,0.2,0,0.3,0c1.6,0,3.2,0.3,4.7,0.8
		c2.7,0.9,5.2,2.6,7.1,4.9c1.4,0.1,3.2,0.4,4.9,0.9c0.9-0.6,1.9-1.2,2.9-1.7l1-0.5l1.2-0.2c1.4-0.2,2.5-0.3,3.6-0.3
		c5,0,8.9,1.6,11.7,4.9c3.5,0.1,6.8,1.3,9.3,3.3c2.1,1.5,3.3,3.4,4.1,5.1c3.1,0.5,5.8,1.9,7.8,4l0.2,0.2c2.3,2.3,3.3,5,3.9,7.4
		c2.5,1.5,4.7,3.7,5.9,6.3l0.1,0.2c1.1,2.3,1.4,4.7,1.4,6.9c2.4,2.7,3.9,6,4.1,9.4c0.4,2.5-0.2,4.6-0.8,6.2l0.6,2.3
		c1.2,4.6,0.3,9.4-2.3,13.3c0.4,5.3-1.7,10.8-5.6,14.3c-3.1,2.9-6.8,2.9-8,2.9c-0.5,0-0.8,0-1.3,0c-0.2,0-0.5,0-0.6,0l-0.7,0.4
		l-1.4,0.1c-1,0-1.7,0.3-2.1,0.5c-1,2.4-2.7,4.4-4.9,5.9l3.5,9.4l-6.1,1.5c0.3,2.2,0.1,4.3-0.4,6.5c33.8,20.7,54.5,57.3,54.5,97.3
		c0,5.2-0.4,10.4-1.1,15.7c5.4,3.8,14.9,11.1,22.1,19l0.1,0.1c10.5,12.4,34.8,35.7,35.1,36l9.3,8.9l-12.4,3.2
		c-8.3,2.2-21.1,6.2-39.5,16.1l42.5,43.8l-27.6,18.3l-42.2-43.6C270.4,376.3,230.2,399.4,193.4,399.4 M65.4,112.1
		c10.5,22.3,25.6,43.3,39.8,61.1c2.4-3.6,5.1-7,8-10.4L65.4,112.1z"/>
	<path fill="#070A0E" d="M364.4,313.8c0,0-24.8-23.7-35.6-36.6c-8-9-20.2-17.6-24.5-20.3c1.1-6.2,1.7-12.5,1.7-19
		c0-41.1-23.2-76.9-57.3-94.7h0.1c1.4-1.2,2.4-2.5,3-4.1c0.9-3.6,0.1-7.7-2.3-10l6.3-1.6l-3.2-8.6c3.1-0.1,6.3-1.7,7.5-4.7
		c1.2-3.3,5.2-4.7,8.4-4.8c2.3-1.1,5.6,0.5,7.5-1.4c3-2.5,4.1-7.1,2.8-11c2.5-2.4,4.1-5.9,3.1-9.6c-4.2-3.2,0.8-5.8,0-9.6
		c0-3-2-5.5-4.2-7.1c0.3-2.3,0.4-5-0.5-6.9c-1.2-2.4-3.6-4-6-4.4c-0.3-2.8-0.6-5.5-2.7-7.7c-2-2-5-2.4-7.9-1.9
		c-0.8-2.4-1.2-5-3.5-6.7c-2.2-1.9-5.5-2.2-8.3-1.4l-1.9-2.8c-2.3-2.7-5.9-2.7-9.1-2.3c-2,0.9-3.9,2.5-5,4.4l-0.5-0.5
		c-2.2-3-6.3-2.4-9.4-2.7c-0.8-2.3-3-4.4-5.2-5c-3.9-1.4-7.9,1.1-10.5,3.2c-1-3.2-3.5-6.2-6.8-7.3v-3.7h7.5v-6.7h-7.5V8.7h-6.7v9.8
		h-7.3v6.7h7.6V29c-2.3,0.8-4.2,2.3-5.5,4.3l-1-0.7c-2.7-1.9-6.7-1.9-9.4-0.1c-3,1.2-3.1,4.4-4.5,6.4c-3.2-0.9-6.6,0.3-8.9,2.7
		c-1.6-2.2-3.6-4.7-6.4-5c-3-0.1-5.8,0-7.9,2.2c-1.4,2-2.4,4.4-2.8,6.8c-2.8-1.7-7.1-2.3-10-0.6c-3,1.4-3.8,4.5-4.7,7.1
		c-1.4,0-2.7,0.1-3.9,0.6c-3.8,1.1-5.2,5.2-5.5,8.8c-2,0.8-4.2,1.9-5.5,3.9c-1.4,2.2-1.4,5.5-0.6,8c-1.4,0.9-2.4,2.3-2.8,3.8
		c-0.9,3.1-0.3,6.3,1.2,8.9c-1.2,1.4-1.6,3.2-1.9,5c-0.2,3.1,1.4,5.6,2.8,7.9c-1.7,2-1.4,5.2-0.9,7.7c1.4,6.7,8.2,3,12.5,4.5
		c3.1,0.8,5.9,2.8,6.8,6.1c2.2,2.4,5.3,2.7,8.3,3.1l-3.5,8.3c1.9,1.2,5,0.6,6.4,1.9c-1.6,1.4-3,3.6-3.1,6c-0.3,3.2,1.4,5.9,3.6,8
		h0.6c-4,2.3-7.8,4.7-11.5,7.4L56.6,66.5c2.7-3.2,4.1-7.7,2.5-12.1c-1.1-2.4-3.5-4.4-5.8-5.5C47,47,42,52.3,38.2,55.9
		c-3.6,4.7-8.8,9.1-7.4,15.4c1.4,2.5,3.9,5.6,6.8,6.4c1.6,0.5,3.8,0.5,5.1,1.1c-6.5,27.1-12.7,62.3-5,90.2c6,19.8-2.7,36.6-3.5,54.5
		c0-0.1-0.1-0.3-0.1-0.4c0,0-3,13.7,10.2,39.4c0,0,4.1,17,10.5,20.4c0,0,29.8,18.3,44.5,46.2c0,0,10.7,19.3,25.4,22.4
		c0,0,22.1,11.7,42.9,34.9c0,0,40.6,28.3,132.5-40.6l42.5,43.8l15.4-10.2l-42.9-44.4C337.6,322.1,353.2,316.8,364.4,313.8
		 M118.6,167.6c-3.6,4.1-6.9,8.6-9.9,13.3c-1,1.5-2,3.2-2.9,4.7c-24.9-30.4-50.1-65.5-58.6-103.2l75.7,80.4
		C121.4,164.3,120,165.9,118.6,167.6"/>
	<path fill="#C00524" d="M213.8,50.1c3.6-1.4,2.3,2.3,3.8,3.6c0.5,1.6,2.3,2.2,3.5,3.1c-0.6,2.7-0.6,5.9,0.9,8
		c1.4,1.4,2.7,3,4.8,3.3c-0.5,2.8,0.6,5.6,2.7,7.4l1.9,1.2c-1.9,0.6-3.2,3-4.1,4.8c-0.5,2.2-0.1,4.4,1.2,6.1
		c-7.1,2.7-16.9,2.8-22.6-2.3c1.9-2,2.8-5,1.7-7.7c-0.6-1.7,2.7-3,3.1-4.8c1.2-2.3,0.5-5.3-0.9-7.4l-2.3-1.9
		c1.4-1.4,2.5-3.3,2.7-5.6c0.2-2.7-1.7-5-3.6-6.3l-2.8-0.8c0-1.4-0.5-2.4-1.4-3.5c1.4-0.5,3.1-1.6,4.1-3.1
		C207.6,46.9,210.7,49.9,213.8,50.1"/>
	<path fill="#C00524" d="M192.2,47.1c-0.8,1.2-1.7,2.3-1.6,3.8c-2.4-0.1-4.2,1.7-5.6,3.5c-0.8,2.3-0.9,5,0.3,7.1l2.3,2.3
		c-1.9,1.4-3.5,3.5-3.5,6c0.1,2.4,1.4,5,3.5,6.1c-1.6,1.9-1.9,5.2-0.9,7.4c0.9,1.1,1.6,2.4,2.8,3.2c-5.9,4.4-15.5,5.6-22.7,2.7
		c1.4-2.2,1.4-4.7,0.8-7.2c-1.2-2.4-3.2-3.9-5.8-4.2c1.6-0.9,3.6-2.5,4.4-4.4c0.9-1.4-0.2-3.1,0.3-4.8c2.2-0.4,4.1-2.2,5.3-4.1
		c1.1-2,1.2-4.8,0.5-6.9c1.4-0.9,3.8-2.3,4.7-4.1l0.5-4.1c2,0.9,5.8,1.4,8.3,0.4c1.6-0.6,3.3-2.4,4.1-4
		C191,45.8,191.4,46.8,192.2,47.1"/>
	<path fill="#C00524" d="M236.9,53.4c1.9,0.9,4.5,1.2,6.7,0.5c1.9,3.3,5.3,5.8,9.5,5.2h0.6c0.4,2.8,2,5.5,4.4,7.1l2.8,0.9
		c-0.3,3.6,1.4,6.7,4.1,8.6c-0.8,3-0.3,6.3,1.7,8.4c-1.6,2.7-2.4,6.7-0.9,9.6c-1.4,1.4-3.6-0.3-4.8,1.7c-0.8,1.2,0.4,3.8-2.2,3.1
		c-0.5,0.3-1.4-0.6-1.4,0.4l-0.1-0.4c-5-0.6-9.7-2.3-13.5-5.8c1.7-0.9,4.2-2.4,5.2-4.8c0.6-1.9,0.3-4.1-0.4-5.9
		c-3.6-2.4-3.6-9.1-9.2-8.6c0.8-2.4,0.9-5.2-0.3-7.5c-5-2.4,1.1-8-2.8-11.3c-0.5-1.6-3.2-2.5-3.1-3.9C235,51,235.2,53.2,236.9,53.4"
		/>
	<path fill="#C00524" d="M157.9,53.5c-1.7,2.8-3.2,6.7-1.4,10l0.5,0.5c-2.4,1.4-3.8,4.2-3.9,7.1c0.1,1.4,1.2,3,1.4,4.1
		c-2,0.9-5,2.3-5,5.3c-1.9,1.1-3.2,3-3.6,4.8c-0.5,2.3,0.4,4.5,1.9,6.1c-2.2,2.7-5.8,5-8.3,6.6l-2.3,0.4c-0.5-1.4-1.4-3-2.7-3.5
		c-1.6-0.3-3.5,0.5-4.8,0.8c1.2-3,1.2-6.8-0.6-9.5c1.7-2.4,3.2-5.6,1.7-8.6c-1.1-1.6,1.6-2.5,2-4.1l0.9-4.2c2.4-0.3,4.4-2.2,5.8-4.2
		l1.2-3.6c2.8-0.4,5.8-0.5,7.9-3c1.4-1.7,2.5-3.6,2.3-6.1C153,53,155.4,54.3,157.9,53.5"/>
	<path fill="#D7B440" d="M192.7,57.1c-1.2,1.2-1.9,2.5-2.2,4.1c-1.2-0.1-2.4-1.4-2.7-2.5c-0.8-1.4,0.5-2.5,1.2-3.6
		C191.4,52.4,191.3,56.3,192.7,57.1"/>
	<path fill="#D7B440" d="M207.1,57.1c0.2,1.9-0.6,3.6-2.3,4.2c-1.1-0.3-1.1-2-1.7-3c-2.8-1.4,0.3-2.7,0.5-4.1
		C205.5,54.2,206.5,56,207.1,57.1"/>
	<path fill="#D7B440" d="M206.8,67.8c0.6,1.1,1.1,3,0.4,4.1c-0.6,1.2-1.9,2-3.3,2c-1.4-0.9-2.5-2.5-4.1-3.5
		c-0.6-2.5,2.4-2.2,3.2-4.1C204.4,65.9,205.5,67,206.8,67.8"/>
	<path fill="#D7B440" d="M195.4,70.1c-1.6,0.8-3.5,1.9-4.4,3.6c-1.6-0.4-2.7-1.4-3.1-3.1c-0.3-1.7,1.1-3.2,2.5-4.1
		C192.6,66.5,194.6,68.6,195.4,70.1"/>
	<path fill="#D7B440" d="M252.7,107.4c1.2,1.4,1.9,3.2,0.9,4.8c-0.9,1.4-2.8,2.5-4.8,1.7c-6-4.1-13.6-5.2-20.7-7.4
		c-28.4-6.1-58.6-2.7-83.7,8.1c-1.9,0-3-1.9-3.8-3.3c-0.6-4.4,4.4-5,7.1-6.6C179.8,92.8,221.7,91.6,252.7,107.4"/>
	<path fill="#D7B440" d="M243.9,132c1.4,1.1,1.9,3.2,1.2,5c-1.1,1.4-3,2-4.7,1.7c-25.4-10.7-59.9-11-84.8,0.9
		c-1.4,0-3.5,0.4-4.2-1.2c-0.9-1.2-1.7-3.2-0.5-4.5c5.6-3.9,12.2-5,18.5-7.4C193,120.1,222.3,122.5,243.9,132"/>
	<path fill="#D7B440" d="M310.8,338.5l-6.8,4.8l1,1.1c8.3,8.5,33.8,34.1,37.5,37.3l0.7,0.6l0.8-0.5c0.4-0.2,0.7-0.4,1.1-0.6
		c1.4-0.7,3-1.6,4-3l0.6-0.9L310.8,338.5z"/>
	<path fill="#C1772F" d="M101.1,207.4c13-41.9,52-72.2,98.1-72.2c1.7,0,3.7,0,5.3,0.1c-12.5,7.5-21.9,19.8-27.1,32.7
		c-16.7,1.6-31.7,8.1-44.3,19.3c-12.2,4.2-22.9,11.5-32.6,21L101.1,207.4z"/>
	<path fill="#C1772F" d="M211.3,228.3c-14,5.9-30.1,15.4-46.5,30.2c-15.9-12.8-30.1-29.5-33.8-49.7c-0.8-6.9,0.5-13.5,5.2-18.5
		c10.8-10.5,24.8-15.7,40.1-17.4c-0.3,12.1,5.6,22.1,12.2,30.6c5.9,9.7,13.6,16.8,22.3,24.4L211.3,228.3z"/>
	<path fill="#C1772F" d="M283.1,179.1c-5.8,13.8-15.9,28.1-29.3,38.9c-6.2-0.1-20.7,0.5-39.3,8c-14.3-12.1-27.5-27.1-32.9-45.6
		c-3-10.7,5-18.7,9.6-27.3c5.5-6.9,13-13.6,20.7-16.9c6.5,0.8,13.1,2.3,19.1,4.2c-12.5,5-22.1,15.1-28.8,26.7
		c3.6,2.4,7.7,4.8,11.5,7.1c12.2,8.1,24.6,18.2,35.8,28.8h0.5c11.1-10.5,18.8-24.3,20.4-38.6C274.2,166.3,283.1,179.1,283.1,179.1"
		/>
	<path fill="#C1772F" d="M286.5,183.9c9.7,15.7,15.4,34.1,15.4,54c0,5.5-0.5,10.9-1.3,16.1l-0.3,0.8c-20.2-10.8-36.4-29.1-41.2-34.9
		C270.6,209.8,280.2,197.1,286.5,183.9"/>
	<path fill="#C1772F" d="M250.4,149.1c-0.8,1.4-1.4,2.7-2.5,4.1c-3,0-2.8-5-5.9-3.1c-1.1,0.8-1.7,2.4-0.6,3.5l4.2,2.5
		c-0.4,1.7-2,3.1-3,4.5c-3.9,0.4-6.8-9.1-10-2.2c0.6,3.9,5,3.3,6.9,6.4l-4.4,5.8c-3-1.4-4.7-3.8-6.9-5.6c-1.1-0.4-2.4-0.9-3.5,0
		c-1.2,1.1-1.6,2.5-1.1,4.1c2.4,1.9,5.5,3.8,7.9,6c-0.8,1.6-2.3,4.1-3.9,3.9c-3.1-2.5-6.8-5-10.2-6.9c-2.5-2.4-6-4.1-8.9-6
		c1.4-3.3,4.7-6.1,6.9-8.9c6.7-6.6,14-11.6,23-13.8C242.8,145,246.4,146.9,250.4,149.1"/>
	<path fill="#C1772F" d="M267,161c-1.2,14-7.7,26.2-17.5,35.8c-6.3-4.7-11.1-9.4-17.4-14.4c0.6-1.6,2-2.5,3-4.1
		c4.5,0.4,6.7,10,11.3,4.1c0.5-1.6,0-3.6-1.6-4.1c-2.4-0.9-3.9-3.1-6-4.7c0.8-2.3,3-4.1,4.3-6c3.1,0.5,3.8,5.5,7.4,3.5
		c1.1-0.9,1.2-2.7,0.5-3.9c-1.9-0.8-3.2-1.9-4.8-3.3c0.3-1.7,2-3.1,3-4.7c2.7-0.3,2.7,4.7,5.8,3.1c0.9-0.8,1.2-2,0.9-3.1
		c-1.2-1.7-3.2-1.4-4.4-3.1l3-4.7C259,154.1,263,157.6,267,161"/>
	<path fill="#C1772F" d="M160.6,261.3c-27,18.3-50.1,19.4-54.7,19.5l-0.3-0.6c-5.9-12.9-9.1-27.3-9.1-42.3c0-6.9,0.7-13.7,2-20.3
		l0.6-2c8.6-9.2,16.3-15.5,28.1-19.7c-4,22.7,15.9,49.4,19,51.3c4.1,5.3,8.8,9.4,14.1,14H160.6z"/>
	<path fill="#FFFFFF" d="M175.2,387c-4.5-1.4-6.4-2.6-6.4-2.6c-18.5-23.2-39.7-35.2-39.7-35.2c-14.2-3.1-26.7-20.8-26.7-20.8
		C96,316.2,88,306.6,81.2,299.7c9.5-5.2,20.5-8.1,32.2-8.1c37.5,0,67.8,30.3,67.8,67.8C181.1,369.1,179,378.5,175.2,387"/>
	<polygon fill="#0067AD" points="197.8,116.6 206.1,113.7 197.9,110 189.5,113.7 	"/>
	<path fill="#D7B440" d="M195.4,51.7c0-1.2,1-2.2,2.2-2.2s2.2,1,2.2,2.2s-1,2.2-2.2,2.2C196.3,53.9,195.4,53,195.4,51.7"/>
	<path fill="#D7B440" d="M195.4,62.4c0-1.2,1-2.2,2.2-2.2s2.2,1,2.2,2.2c0,1.2-1,2.2-2.2,2.2C196.3,64.6,195.4,63.6,195.4,62.4"/>
	<path fill="#D7B440" d="M121.2,70.7c0-2.7,2.2-4.9,4.9-4.9s4.9,2.2,4.9,4.9c0,2.7-2.2,4.9-4.9,4.9
		C123.3,75.6,121.2,73.4,121.2,70.7"/>
	<path fill="#D7B440" d="M268.9,99.4c-2-0.3-3.2-2.8-5.3-1.9c-1.4,0.9,0,2.4-0.4,3.5c-4.7,0.9-10,0.1-14.3-1.6
		c-4.3-2-9.4-6-9.7-10.7c1.1,0,1.9,0.5,3,0.9c1.7,0.5,3.6-0.3,4.5-1.7c0.8-1.6,0.4-3.8-1.2-4.8c-4.8,0,0.1-5.3-4.4-6.4
		c-1.6-0.4-3.2,0-4.4,1.2c-0.1,2.5-2.8,0.9-4.4,1.7c-1.7,0.6-2.8,2.7-2.3,4.4c0,2.4,4.1,1.7,2.8,4.1c-6.8,5-17.4,5.5-24.7,1.2
		c-2.2-1.4-4.5-2.7-5.6-5c0.3-0.4,0.6-0.3,0.9-0.5c1.6-0.8,2.8-2.4,2.3-4.4c-0.1-2.7-3.8-2.4-4.5-4.2c-0.6-1.4-2.4-2.8-4.2-2.4
		c-1.2,0.4-3,1.1-3.1,2.7c-0.5,2.4-4.4,0.4-4.8,3.5c-0.8,1.7,0.1,3.9,1.7,4.8c1.1,0.8,3.6-0.1,3.6,1.4c-2,2.2-4.1,4.1-6.7,5.2
		c-7.9,4.5-19.6,3.3-26.7-1.7l2.5-0.5c1.7-0.8,2.7-2.8,2.3-4.7c-0.6-2.7-3.5-2.5-5.6-2.8c-0.5-1.2-1.4-2.7-3-3
		c-1.4-0.6-3.2,0.3-4.4,1.6c-1.1,1.1,0.6,4.2-1.9,4c-2,0.6-2.2,2.8-2.5,4.4c0.3,1.6,2.2,2.4,2.7,3.6c-3,6-9.1,9.4-15.5,10.3
		c-1.9-0.8,0.3-3-1.4-3.9c-2.3-0.6-3.8,1.4-5.6,2.2c-1.6,0.8-3.6-0.9-4.8,0.6c-0.5,1.1-0.8,2.2,0.1,3c3.9,1.2,7.9,2.5,12.4,1.7
		c8.3-0.5,16.9-6,20.3-14.3l0.9-0.1c2.8,1.9,5.8,3.2,8.9,4.2c10.5,3,21.6,0.3,29.8-6.1c2-3.8,4.3,0.1,6.3,1.1c9.5,6,23,6.8,32.9,1.6
		c0.9,2.2,2.3,4.1,4.1,5.9c6.7,6.7,16.3,10,25.4,6.8c1.9-0.4,3.1-2.4,5.5-1.7c1.1-0.4,3.1-0.5,2.8-2.4
		C272,98.7,270.3,100.2,268.9,99.4 M156.7,87.3c-1.2,0-2.2-1-2.2-2.2c0-1.2,1-2.2,2.2-2.2c1.2,0,2.2,1,2.2,2.2
		C158.9,86.3,157.9,87.3,156.7,87.3 M197.5,81.9c-1.2,0-2.2-1-2.2-2.2c0-1.2,1-2.2,2.2-2.2s2.2,1,2.2,2.2S198.8,81.9,197.5,81.9
		 M236.2,84c0-1.2,1-2.2,2.2-2.2s2.2,1,2.2,2.2c0,1.2-1,2.2-2.2,2.2C237.2,86.2,236.2,85.2,236.2,84"/>
	<path fill="#D7B440" d="M50.7,67c0.2-0.2,0.5-0.5,0.7-0.7c1.5-1.5,3.7-3.7,3.3-8v-0.2l-0.1-0.2c-1.4-3.4-3.8-4.2-5.5-4.3h-0.1H49
		c-2.6,0.4-8.2,5.4-11,9.3c-1.8,2.5-2.5,4.6-2.3,6.2v0.2c1,3,3.4,4.1,5.7,4.8l0.5,0.1c1.5,0,2.6-0.7,3.3-1.3
		c11.8,12.9,78.6,84.7,79.3,85.4l0.8,0.9l6.6-5.4L50.7,67z"/>
	<path fill="#0067AD" d="M63.2,212.8c0.5-2.8,0.9-5.5,1.3-8.1c1.5-18.3,0-35.6-4.4-48.6c-1.3-8.7-1.1-19.4,0.4-29.9v-0.3
		C54,114,48.6,101.7,44.5,88.5c-6,25.3-10.8,54.1-3.6,80.1c5.8,19.1-3.1,35.1-3.8,53c0,0,0.3,9.4,0.1,9.2c0,0,9.1,25.9,34.2,40.5
		C56.3,257.1,60,232.6,63.2,212.8"/>
	<path fill="#FFFFFF" d="M77.1,215.8c0.5-6.3,1.1-12.9,1-19.4c-0.3-2.7-0.6-5.6-1-8.3c-1.4-11.6-3-23.7,0.1-34.7
		c-5.5-8-10.5-16.2-15.1-24.6c-0.4-0.6-0.8-1.3-1.2-1.9c-1.4,10.3-1.5,20.5-0.3,29c4.4,13.1,5.9,30.4,4.4,48.8
		c-0.4,2.6-0.8,5.2-1.3,8.1c-3.2,20.5-7.2,45.9,9.8,59.8c0.1,0,0.2,0.1,0.3,0.1c1.4,0.5,2.9,1.3,4.3,1.9c3.4,1.5,6.8,3.2,10.5,3.8
		c-4.6-7.4-8.1-17.1-11.1-30.3C75.2,237.4,76.2,226.5,77.1,215.8"/>
	<path fill="#0067AD" d="M103.9,189c-9.4-11.6-18.2-23.1-26.3-34.9c-3,10.8-1.4,22.6,0,34c0.4,2.8,0.7,5.6,1,8.4
		c0.2,6.5-0.5,13.1-1,19.4c-0.9,10.5-1.9,21.5,0.5,32c3,13.6,6.6,23.3,11.3,30.7l0.1,0.1c3.6,0.9,7.4,1.6,11.4,2
		C79.6,233.9,103.9,189,103.9,189"/>
	<path fill="#0067AD" d="M147.5,359.4c-2.3-2.1-4.5-4.1-6.8-6.4c-2.4-2.3-5-4.6-7.6-7c0.3-0.1,0.5-0.1,0.7-0.2
		c5.1,4.3,9.1,7.1,12.2,8.9c3,1.7,5.2,2.4,6.8,2.3c3.1-0.3,1.1-3.8-2-6.8c-1.9-1.9-3.7-3.4-5.6-4.4c-1.3-0.7-3.4-1.6-5.9-2.5
		c-1.4-0.5-2.9-1.1-4.3-1.6c-2.1-0.8-4-1.6-5.7-2.4c-1.7-0.8-3.3-1.7-5-2.7c-2.9-1.8-6.2-4.4-9.8-7.8c-4.1-3.9-8.2-8.3-11-12.3
		c-3-4.3-4.5-8.2-3.1-10.2c0.8-1.1,2.6-1.3,4.2-1.4c1.7,0,3.2,0.2,3.3,0.1c0.5-0.6-0.6-2.3-2.9-5c0.3-0.4,0.5-0.7,0.8-1.1
		c4.1,4.3,8,8.6,11.8,12.5c3.6,3.8,7,7.5,10.4,10.9c-0.3,0.2-0.6,0.4-0.9,0.5c-5-4.4-10.1-8.4-14.4-11s-7.6-3.7-8.6-2.3
		c-1.4,1.7,1.8,6.7,6.5,11.3c3,2.8,5.2,4.7,6.9,5.6c1.7,0.9,4.9,2.3,9,3.7c1.8,0.6,3.7,1.4,5.6,2c2.3,0.7,4.6,1.8,6.8,3.2
		c4.3,2.5,8.2,5.8,11.9,9.7c3.2,3.4,5.7,7,6.5,9.6c0.7,2.5,0,4.2-3,4.5c-1.3,0.1-3.1-0.3-5.2-0.9c-0.3-0.1-0.5-0.2-0.9-0.3
		c-0.5-0.1-0.9-0.3-1.1-0.3c-0.6,0.1-0.2,0.7,1,1.9C147.9,359.4,147.6,359.4,147.5,359.4"/>
	<path fill="#0067AD" d="M125.4,297.9c0.1-0.1,0.2-0.2,0.3-0.3c2.3,2.3,4.7,4.5,7.1,6.8c2.4,2.3,5,4.7,7.5,7.1
		c-0.1,0.2-0.3,0.3-0.4,0.5c-4-3.4-7.6-5.8-10.4-7c-2.8-1.3-5-1.4-5.9-0.5c-1.5,1.5,0.3,5.2,3.3,8.4c1,1.1,1.9,1.8,2.9,2.5
		c1.3,0.8,2.6,1.5,4.1,2c1.2,0.5,3.2,0.8,6.3,1.3c2.2,0.4,4.2,0.8,6,1.4s3.5,1.3,5,2.1c2.9,1.7,6.1,4.1,9.6,7.5
		c4.4,4.2,8.2,9,10.7,13.3c2.5,4.5,3.7,8.6,2.7,11.1c-0.6,1.6-1.7,2.4-4.9,2.3c-0.9,0.2-1.4,0.4-1.5,0.7c-0.4,0.7,0.5,2.8,2.8,5.9
		c-0.1,0.3-0.2,0.5-0.3,0.8c-4-4.1-7.7-8.1-11.5-12c-3.6-3.8-7.2-7.5-10.7-11.1c0.1-0.2,0.3-0.5,0.4-0.6c6.2,5.6,11.5,9.4,15.4,11.2
		c4,1.9,6.4,1.8,7.2-0.1c1.2-2.7-2.3-8.5-6.6-12.7c-2.7-2.7-5.2-4.2-8-5.3c-1.5-0.6-3.2-0.9-5.8-1.2c-3.5-0.5-6.3-1.1-8.6-2
		c-2.4-0.9-4.5-2.1-6.8-3.6c-2.1-1.5-4.5-3.5-6.7-5.8c-3.7-3.9-6.5-7.8-7.9-11.2c-1.4-3.2-1.5-5.9-0.1-7.2c0.5-0.5,1.2-0.7,2-0.7
		c1.4-0.2,4.3,0.6,4.8,0.3C128,301.3,127.8,300.7,125.4,297.9"/>
	<path fill="#D7B440" d="M150.9,44.6c0-2.7,2.2-4.9,4.9-4.9s4.9,2.2,4.9,4.9c0,2.7-2.2,4.9-4.9,4.9S150.9,47.3,150.9,44.6"/>
	<path fill="#D7B440" d="M137,53c0-2.7,2.2-4.9,4.9-4.9s4.9,2.2,4.9,4.9c0,2.7-2.2,4.9-4.9,4.9C139.2,57.8,137,55.7,137,53"/>
	<path fill="#D7B440" d="M126.7,60.4c0-2.7,2.2-4.9,4.9-4.9s4.9,2.2,4.9,4.9c0,2.7-2.2,4.9-4.9,4.9S126.7,63.1,126.7,60.4"/>
	<path fill="#D7B440" d="M118.6,81.1c0-2.7,2.2-4.9,4.9-4.9s4.9,2.2,4.9,4.9s-2.2,4.9-4.9,4.9C120.7,85.9,118.6,83.8,118.6,81.1"/>
	<path fill="#D7B440" d="M117.6,92.1c0-2.7,2.2-4.9,4.9-4.9c2.7,0,4.9,2.2,4.9,4.9c0,2.7-2.2,4.9-4.9,4.9
		C119.7,97,117.6,94.8,117.6,92.1"/>
	<path fill="#D7B440" d="M178.1,41c0-2.7,2.2-4.9,4.9-4.9s4.9,2.2,4.9,4.9s-2.2,4.9-4.9,4.9S178.1,43.7,178.1,41"/>
	<path fill="#D7B440" d="M165.5,48.7c0-2.7,2.2-4.9,4.9-4.9s4.9,2.2,4.9,4.9s-2.2,4.9-4.9,4.9S165.5,51.4,165.5,48.7"/>
	<path fill="#D7B440" d="M160.4,59.9c0-2.7,2.2-4.9,4.9-4.9c2.7,0,4.9,2.2,4.9,4.9c0,2.7-2.2,4.9-4.9,4.9
		C162.6,64.7,160.4,62.5,160.4,59.9"/>
	<path fill="#D7B440" d="M156.6,70.6c0-2.2,1.7-3.9,3.9-3.9c2.2,0,3.9,1.7,3.9,3.9c0,2.2-1.7,3.9-3.9,3.9
		C158.3,74.5,156.6,72.8,156.6,70.6"/>
	<path fill="#D7B440" d="M192.4,39.6c0-2.7,2.2-4.9,4.9-4.9s4.9,2.2,4.9,4.9c0,2.7-2.2,4.9-4.9,4.9
		C194.5,44.4,192.4,42.3,192.4,39.6"/>
	<path fill="#D7B440" d="M264.9,68.1c0-2.7,2.2-4.9,4.9-4.9c2.7,0,4.9,2.2,4.9,4.9c0,2.7-2.2,4.9-4.9,4.9
		C267.1,73,264.9,70.8,264.9,68.1"/>
	<path fill="#D7B440" d="M235.9,44.6c0-2.7,2.2-4.9,4.9-4.9s4.9,2.2,4.9,4.9c0,2.7-2.2,4.9-4.9,4.9S235.9,47.3,235.9,44.6"/>
	<path fill="#D7B440" d="M247.7,50.6c0-2.7,2.2-4.9,4.9-4.9c2.7,0,4.9,2.2,4.9,4.9s-2.2,4.9-4.9,4.9
		C249.8,55.4,247.7,53.3,247.7,50.6"/>
	<path fill="#D7B440" d="M257.8,57.9c0-2.7,2.2-4.9,4.9-4.9c2.7,0,4.9,2.2,4.9,4.9c0,2.7-2.2,4.9-4.9,4.9
		C260,62.8,257.8,60.6,257.8,57.9"/>
	<path fill="#D7B440" d="M267.7,78.7c0-2.7,2.2-4.9,4.9-4.9s4.9,2.2,4.9,4.9c0,2.7-2.2,4.9-4.9,4.9
		C269.9,83.5,267.7,81.3,267.7,78.7"/>
	<path fill="#D7B440" d="M268.4,90.5c0-2.7,2.2-4.9,4.9-4.9c2.7,0,4.9,2.2,4.9,4.9s-2.2,4.9-4.9,4.9
		C270.6,95.3,268.4,93.1,268.4,90.5"/>
	<path fill="#D7B440" d="M208.7,41c0-2.7,2.2-4.9,4.9-4.9s4.9,2.2,4.9,4.9s-2.2,4.9-4.9,4.9S208.7,43.7,208.7,41"/>
	<path fill="#D7B440" d="M220.1,48.7c0-2.7,2.2-4.9,4.9-4.9c2.7,0,4.9,2.2,4.9,4.9s-2.2,4.9-4.9,4.9
		C222.3,53.5,220.1,51.4,220.1,48.7"/>
	<path fill="#D7B440" d="M224.7,60.1c0-2.7,2.2-4.9,4.9-4.9c2.7,0,4.9,2.2,4.9,4.9c0,2.7-2.2,4.9-4.9,4.9
		C226.9,65,224.7,62.8,224.7,60.1"/>
	<path fill="#D7B440" d="M229.9,70.6c0-2.2,1.7-3.9,3.9-3.9s3.9,1.7,3.9,3.9c0,2.2-1.7,3.9-3.9,3.9S229.9,72.8,229.9,70.6"/>
	<polygon fill="#0067AD" points="154.8,120.4 144.1,119.4 140.5,128 148.5,129.1 	"/>
	<polygon fill="#0067AD" points="241.4,120.7 251.1,118.1 255.4,127.3 246.6,128 	"/>
	<path fill="#FFFFFF" d="M223.7,315.9l0.7-0.4l0.7-0.5c30.1-18.4,61.2-37.5,98.2-39c-0.8-0.9-1.7-1.7-2.5-2.5c-2-1.8-4-3.5-6.3-5.4
		c-4.3-0.7-8.7-1.2-13.2-1.2c-14.9,0-30.2,4.1-45.8,12.1c-11.8,5.2-23,12.7-33.8,19.8c-14.8,9.7-30,19.8-47,24.7l1.3,2.6
		c0.6,1.3,1.3,2.4,1.8,3.7l2.1,4.3C195.3,330.5,209.8,323.2,223.7,315.9"/>
	<path fill="#FFFFFF" d="M191.4,284.3c26.2-17.6,53.3-35.6,86.6-35.6c2.5,0,5.1,0.1,7.7,0.4c-4.1-2.9-7.8-5.9-11.2-9
		c-15.6-0.5-33,2.3-48.8,7.4c-14.5,3.8-27.2,12.8-39.5,21.4c-6.7,4.7-13.6,9.5-20.8,13.6c-3.4,2.3-7.2,4.3-11,6.4
		c-4.1,2.3-7.9,4.3-11.3,6.6l0.6,0.5c4.4,2.1,8.5,4.7,12.3,7.6c8-2.7,15.9-6.9,23.4-11.2C183.5,289.6,187.5,286.9,191.4,284.3"/>
	<path fill="#FFFFFF" d="M262.7,341.3c25.9-18.2,52.7-37.1,86.2-38c-3.4-3.4-7.3-7.4-11.2-11.4c-19.8,1.5-36.5,9.3-51.5,17.5
		c-29.9,18.9-63.7,40.3-102.3,48.5c0,0.5,0,0.8,0,1.3c0,4.7-0.5,9.2-1.4,13.6c0,0.1,0,0.2,0,0.3c26.7-0.1,49.3-12.4,72-26.1
		C257.3,345.1,260,343.2,262.7,341.3"/>
	<path fill="#0067AD" d="M225.3,315.7l-0.7,0.5l-0.7,0.4c-14,7.2-28.5,14.7-44.4,18.5c2.6,7,4.1,14.6,4.2,22.5
		c38.4-8.2,72.2-29.6,102-48.4c15-8.2,31.6-15.9,51.3-17.6c-4.5-4.8-8.9-9.5-12.2-13.3c-0.5-0.5-0.8-0.9-1.3-1.4
		C286.6,278.1,255.5,297.2,225.3,315.7"/>
	<path fill="#0067AD" d="M349.3,303.8c-33.5,0.8-60.4,19.6-86.3,37.9c-2.7,1.9-5.4,3.8-8.1,5.7c-22.9,13.8-45.6,26.1-72.5,26.2
		c-1,4.9-2.5,9.5-4.5,14c16.7,4.6,57.5,6,128.8-50.5c24.6-14.8,40.1-21.2,51.9-24.2C358.5,312.9,354.6,309.1,349.3,303.8"/>
	<path fill="#0067AD" d="M221.2,298.6c10.9-7.2,22.1-14.6,33.9-19.9c15.6-8,31.1-12.2,46-12.2c4.3,0,8.6,0.4,12.8,1.1
		c-8.2-6.8-15.8-11.4-13.9-10.1c-4.7-2.3-9.3-5.1-13.5-8.1c-2.9-0.3-5.8-0.5-8.6-0.5c-33,0-60.1,18.1-86.3,35.6
		c-3.9,2.6-7.8,5.3-11.8,7.8c-7.4,4.1-15.2,8.4-23.1,11.1c6.9,5.4,12.9,12.1,17.4,19.7C191,318.5,206.3,308.4,221.2,298.6"/>
	<path fill="#0067AD" d="M142.6,295.1c3.4-2.3,7.6-4.7,11.6-6.8c3.7-2.1,7.6-4.1,11-6.4c7.1-4,14-8.8,20.8-13.6
		c12.3-8.6,25.1-17.6,39.7-21.4c15.5-5.1,32.9-7.7,48.3-7.4c-11-9.8-18-18.8-18-18.8s-41.4-2.9-87.6,39c-31.2,22.8-54.1,23-54.1,23
		s-50.1,7.9-76.8-43.8c0,0,2.3,8.3,12.2,29.3c0,0,3.6,13.9,16.5,18.5c0,0,5.6,3.9,13,11.1c10.2-5.7,21.9-8.9,34.3-8.9
		C123.8,288.7,133.6,291,142.6,295.1L142.6,295.1z"/>
	<path fill="#D7B440" d="M145.6,119.5c0,0,0.1,0,0.2-0.1L145.6,119.5L145.6,119.5z"/>
	<path fill="#C00524" d="M217.9,113.7L229,116c2,0.5,3.4,2,3.1,3.5c-0.3,1.5-2.2,2.4-4.2,2l-11.3-2.3c-2-0.5-3.4-2-3.1-3.5
		C214,114.1,215.9,113.2,217.9,113.7"/>
	<path fill="#C00524" d="M174.6,113.7l-11.3,2.4c-2.1,0.5-3.4,2.1-3.1,3.6c0.4,1.5,2.3,2.4,4.2,2l11.3-2.4c2-0.5,3.4-2.1,3.1-3.6
		C178.5,114.1,176.6,113.2,174.6,113.7"/>
	<path fill="#D7B440" d="M249.5,118.3c-30.4-13.8-74.1-14.1-103.8,1.2l9.5,1l-6.1,8.3c18.9-9.3,43.3-12.7,66-9.9
		c-1.3-0.8-2-2-1.7-3.2c0.3-1.4,1.7-2.4,3.5-2.4c0.4,0,0.7,0,1.1,0.1l11.2,2.3c2.2,0.5,3.7,2.3,3.3,3.9c-0.2,1.1-1.1,1.9-2.3,2.3
		c5.5,1.4,10.7,3.3,15.6,5.6c-1.4-2.2-3.5-4.2-4.5-6.7C243.5,119.2,246.9,119.4,249.5,118.3 M178.8,117.7c-0.6,0.9-1.6,1.6-2.9,1.9
		l-11.3,2.4c-0.4,0.1-0.7,0.1-1.1,0.1l0,0c-1.8,0-3.2-1-3.6-2.3c-0.2-0.7,0-1.4,0.5-2.1c0.6-0.9,1.6-1.6,2.9-1.9l11.3-2.4
		c0.4-0.1,0.7-0.1,1.1-0.1c1.8,0,3.2,1,3.6,2.3C179.3,116.3,179.1,117,178.8,117.7 M197.8,117l-9.1-3.2l9.2-4.1l9.1,4.1L197.8,117z"
		/>
</g>
<g>
</g>
<g>
</g>
<g>
</g>
<g>
</g>
<g>
</g>
<g>
</g>
<g>
</g>
<g>
</g>
<g>
</g>
<g>
</g>
<g>
</g>
<g>
</g>
<g>
</g>
<g>
</g>
<g>
</g>
</svg>
