<svg xmlns="http://www.w3.org/2000/svg" width="129" height="292" viewBox="0 0 129 292">
  <g fill="none" transform="translate(-.453 .119)">
    <path fill="#FFD200" d="M62.8125,0.46875 C64.00625,0.46875 65.20625,0.46875 66.40625,0.46875 C66.40625,1.5625 66.40625,2.65 66.40625,3.74375 C67.8625,3.75 69.325,3.75 70.7875,3.7625 C70.78125,4.95 70.78125,6.14375 70.78125,7.3375 C69.31875,7.34375 67.85625,7.34375 66.4,7.35 C66.40625,8.28125 66.4125,9.2125 66.425,10.14375 C68.66875,11.10625 70.15,13.1875 70.7375,15.50625 C68.4875,16.8125 66.39375,18.3875 64.60625,20.29375 C62.83125,18.38125 60.75,16.76875 58.475,15.4875 C59.2125,13.23125 60.525,11.08125 62.80625,10.13125 C62.80625,9.2 62.80625,8.26875 62.80625,7.34375 C61.35,7.34375 59.89375,7.34375 58.4375,7.3375 C58.4375,6.14375 58.4375,4.95 58.43125,3.75625 C59.89375,3.75 61.35625,3.75 62.8125,3.74375 C62.8125,2.65 62.8125,1.5625 62.8125,0.46875 L62.8125,0.46875 Z"/>
    <path fill="#FFF000" d="M11.90625,22.53125 C17.56875,17.16875 25.30625,13.4625 33.23125,13.93125 C35.475,14.03125 37.5875,14.9125 39.45625,16.10625 C42.70625,14.35625 46.4125,13.3375 50.11875,13.81875 C55.7875,14.4875 60.60625,17.975 64.65625,21.775 C68.18125,18.35625 72.325,15.3125 77.18125,14.175 C81.3875,13.14375 85.94375,13.875 89.65,16.10625 C94.3125,13.0875 100.26875,13.48125 105.325,15.225 C112.61875,17.725 119.1625,22.8 122.8625,29.625 C125.7875,35 126.325,41.6125 124.2625,47.38125 C122.83125,51.56875 120.23125,55.25 117.2625,58.4875 C113.61875,62.5875 109.95,66.66875 106.3125,70.78125 C78.55625,70.7875 50.79375,70.76875 23.03125,70.79375 C19.1125,66.54375 15.33125,62.175 11.45625,57.8875 C7.31875,53.30625 4.10625,47.55 3.78125,41.275 C3.3375,34.18125 6.75,27.26875 11.90625,22.53125 L11.90625,22.53125 Z M39.175,26.675 C33.96875,30.4875 32.58125,37.50625 33.2625,43.5875 C31.35625,43.58125 29.45,43.58125 27.54375,43.59375 C26.81875,37.13125 27.06875,30.46875 29.14375,24.2625 C21.89375,25.48125 15.95625,31.35 13.625,38.175 C11.925,42.99375 13.075,48.54375 16.225,52.50625 C19.575,56.7375 23.0625,60.8625 26.375,65.13125 C51.80625,65.24375 77.23125,65.09375 102.65625,65.20625 C105.80625,61.64375 108.65625,57.825 111.7125,54.1875 C113.80625,51.73125 115.56875,48.88125 116.1625,45.66875 C117.075,41.15 115.51875,36.45625 112.90625,32.76875 C109.85625,28.53125 105.35,25.05 100.075,24.26875 C102.26875,30.4375 102.3875,37.11875 101.725,43.56875 C99.81875,43.58125 97.91875,43.5875 96.025,43.5875 C96.25,39.49375 96.125,35.18125 94.1125,31.49375 C92.275,27.725 88.625,25.0625 84.61875,23.99375 C79.1125,22.5 73.08125,23.4125 68.1,26.125 C68.1375,31.94375 67.83125,37.75625 67.95625,43.58125 C65.725,43.58125 63.49375,43.58125 61.2625,43.58125 C61.125,37.69375 61.4875,31.7875 61.06875,25.90625 C54.26875,22.6375 45.475,21.93125 39.175,26.675 L39.175,26.675 Z"/>
    <path fill="#FFD200" d="M34.38125 46.85625C36.25625 44.0625 40.74375 43.94375 42.85625 46.525 44.3625 48.15 44.2875 50.49375 43.8125 52.50625 45.9125 52.98125 47.9875 54.30625 48.525 56.525 49.6375 59.8625 46.69375 63.75625 43.1625 63.4625 41.38125 63.56875 39.95 62.41875 38.7375 61.26875 36.35625 64.33125 30.95625 64.20625 29.29375 60.5 27.50625 57.15625 29.96875 52.95 33.65 52.51875 33.23125 50.61875 33.05 48.45625 34.38125 46.85625L34.38125 46.85625zM61.03125 46.04375C63.4125 43.7 67.86875 44.46875 69.38125 47.425 70.3125 48.9875 70.01875 50.8625 69.65 52.55 71.74375 52.8875 73.75625 54.2125 74.375 56.33125 75.625 59.58125 72.9 63.56875 69.38125 63.4625 67.525 63.69375 65.95 62.5375 64.75625 61.25 63.4125 62.36875 61.9125 63.64375 60.0375 63.46875 56.91875 63.6375 54.21875 60.56875 54.675 57.5 54.775 54.84375 57.1375 52.9 59.64375 52.54375 58.84375 50.33125 59.13125 47.6125 61.03125 46.04375L61.03125 46.04375zM86.1875 46.83125C88.09375 44.08125 92.5875 43.925 94.65 46.575 96.19375 48.15625 96.1125 50.5125 95.58125 52.5 98.04375 52.9375 100.41875 54.825 100.475 57.4875 100.975 60.61875 98.19375 63.7125 95.0125 63.46875 93.2 63.60625 91.75 62.39375 90.5125 61.2375 88.79375 63.2625 85.8125 64.20625 83.38125 62.86875 80.1875 61.30625 79.59375 56.41875 82.21875 54.075 83.06875 53.15 84.33125 52.86875 85.49375 52.55 85.09375 50.64375 84.825 48.4375 86.1875 46.83125L86.1875 46.83125z"/>
    <path fill="#FFF000" d="M22.96875 72.96875C50.78125 72.96875 78.59375 72.96875 106.40625 72.96875 106.40625 76.2 106.40625 79.425 106.40625 82.65625 78.59375 82.65625 50.78125 82.65625 22.96875 82.65625 22.96875 79.425 22.96875 76.2 22.96875 72.96875zM.46875 84.84375C43.23125 84.84375 85.9875 84.84375 128.75 84.84375 128.75625 141.98125 128.74375 199.125 128.75625 256.2625 128.68125 262.425 125.19375 267.9625 120.86875 272.1125 114.13125 278.46875 105.59375 282.525 96.925 285.525 82.9125 290.1875 67.88125 292.20625 53.1875 290.2875 41.79375 288.8 30.525 285.7125 20.28125 280.43125 13.59375 276.85625 7.0875 272.225 3.2 265.55625 1.5875 262.7375.575 259.54375.46875 256.2875.46875 199.1375.46875 141.99375.46875 84.84375L.46875 84.84375zM8.75 93.125C8.75 99.16875 8.75 105.20625 8.75 111.25 45.99375 111.25 83.23125 111.25625 120.475 111.24375 120.4625 105.20625 120.46875 99.16875 120.46875 93.13125 83.23125 93.11875 45.99375 93.125 8.75 93.125L8.75 93.125zM8.75625 119.5125C8.7375 164.475 8.76875 209.4375 8.7375 254.40625 8.56875 257.34375 9.33125 260.2875 11.025 262.7125 15.35 268.7625 21.9625 272.725 28.675 275.65 45.35625 282.55625 64.0875 285.05 81.85 281.30625 92.8 278.96875 103.96875 275.56875 112.8125 268.4375 116.53125 265.38125 120.3 261.375 120.475 256.29375 120.5 210.7 120.475 165.10625 120.4875 119.5125 83.24375 119.51875 46 119.5125 8.75625 119.5125L8.75625 119.5125z"/>
    <path fill="#FFF000" d="M26.25625,127.3625 C51.875,127.35625 77.5,127.35625 103.11875,127.3625 C103.125,151.9875 103.1375,176.6125 103.11875,201.2375 C103.23125,205.19375 101.08125,208.8 98.1375,211.28125 C92.3125,216.325 84.85,218.99375 77.46875,220.78125 C65.15625,223.8375 51.9875,222.1125 40.45,217.04375 C36.1875,215.125 32.00625,212.68125 28.975,209.04375 C27.28125,207.0625 26.175,204.51875 26.24375,201.875 C26.25625,177.0375 26.24375,152.2 26.25625,127.3625 L26.25625,127.3625 Z M34.51875,201.2875 C34.25,203.63125 36.48125,205.06875 38.0875,206.31875 C46.7875,212.28125 57.6375,214.64375 68.08125,214.04375 C76.7,213.28125 85.4125,210.775 92.35625,205.45 C93.64375,204.43125 94.95625,203.0125 94.84375,201.25 C94.85,179.30625 94.8375,157.35625 94.85,135.4125 C74.75,135.4 54.65625,135.44375 34.5625,135.3875 C34.48125,157.35625 34.5625,179.31875 34.51875,201.2875 Z"/>
    <path fill="#FFF000" d="M59.10625,143.75 C62.8,143.75625 66.49375,143.74375 70.1875,143.75625 C69.65,151.21875 69.075,158.6875 68.8125,166.16875 C69.64375,166.825 70.39375,167.58125 71.10625,168.375 C78.0875,167.8625 85.06875,167.35625 92.05625,167.01875 C92.0125,170.64375 92.025,174.2625 92.04375,177.8875 C85.075,177.53125 78.1125,176.86875 71.14375,176.55 C70.30625,177.2375 69.55625,178.025 68.74375,178.7375 C69.03125,186.18125 69.6125,193.60625 70.03125,201.04375 C66.40625,201.03125 62.78125,201.05 59.1625,201.025 C59.7375,193.63125 60.16875,186.21875 60.54375,178.80625 C59.74375,178.0875 58.9875,177.31875 58.28125,176.5125 C51.25,176.9125 44.23125,177.5 37.19375,177.88125 C37.2375,174.25625 37.25625,170.625 37.18125,167 C44.1875,167.3875 51.19375,167.85 58.1875,168.36875 C58.9375,167.575 59.70625,166.8 60.49375,166.05 C60.16875,158.60625 59.575,151.18125 59.10625,143.75 L59.10625,143.75 Z"/>
    <path fill="#FF1400" d="M26.675,3.55 C32.975,-1.19375 41.76875,-0.4875 48.56875,2.78125 C48.9875,8.6625 48.625,14.56875 48.7625,20.45625 C50.99375,20.45625 53.225,20.45625 55.45625,20.45625 C55.33125,14.63125 55.6375,8.81875 55.6,3 C60.58125,0.2875 66.6125,-0.625 72.11875,0.86875 C76.125,1.9375 79.775,4.6 81.6125,8.36875 C83.625,12.05625 83.75,16.36875 83.525,20.4625 C85.41875,20.4625 87.31875,20.45625 89.225,20.44375 C89.8875,13.99375 89.76875,7.3125 87.575,1.14375 C92.85,1.925 97.35625,5.40625 100.40625,9.64375 C103.01875,13.33125 104.575,18.025 103.6625,22.54375 C103.06875,25.75625 101.30625,28.60625 99.2125,31.0625 C96.15625,34.7 93.30625,38.51875 90.15625,42.08125 C64.73125,41.96875 39.30625,42.11875 13.875,42.00625 C10.5625,37.7375 7.075,33.6125 3.725,29.38125 C0.575,25.41875 -0.575,19.86875 1.125,15.05 C3.45625,8.225 9.39375,2.35625 16.64375,1.1375 C14.56875,7.34375 14.31875,14.00625 15.04375,20.46875 C16.95,20.45625 18.85625,20.45625 20.7625,20.4625 C20.08125,14.38125 21.46875,7.3625 26.675,3.55 L26.675,3.55 Z M21.88125,23.73125 C20.55,25.33125 20.73125,27.49375 21.15,29.39375 C17.46875,29.825 15.00625,34.03125 16.79375,37.375 C18.45625,41.08125 23.85625,41.20625 26.2375,38.14375 C27.45,39.29375 28.88125,40.44375 30.6625,40.3375 C34.19375,40.63125 37.1375,36.7375 36.025,33.4 C35.4875,31.18125 33.4125,29.85625 31.3125,29.38125 C31.7875,27.36875 31.8625,25.025 30.35625,23.4 C28.24375,20.81875 23.75625,20.9375 21.88125,23.73125 L21.88125,23.73125 Z M48.53125,22.91875 C46.63125,24.4875 46.34375,27.20625 47.14375,29.41875 C44.6375,29.775 42.275,31.71875 42.175,34.375 C41.71875,37.44375 44.41875,40.5125 47.5375,40.34375 C49.4125,40.51875 50.9125,39.24375 52.25625,38.125 C53.45,39.4125 55.025,40.56875 56.88125,40.3375 C60.4,40.44375 63.125,36.45625 61.875,33.20625 C61.25625,31.0875 59.24375,29.7625 57.15,29.425 C57.51875,27.7375 57.8125,25.8625 56.88125,24.3 C55.36875,21.34375 50.9125,20.575 48.53125,22.91875 L48.53125,22.91875 Z M73.6875,23.70625 C72.325,25.3125 72.59375,27.51875 72.99375,29.425 C71.83125,29.74375 70.56875,30.025 69.71875,30.95 C67.09375,33.29375 67.6875,38.18125 70.88125,39.74375 C73.3125,41.08125 76.29375,40.1375 78.0125,38.1125 C79.25,39.26875 80.7,40.48125 82.5125,40.34375 C85.69375,40.5875 88.475,37.49375 87.975,34.3625 C87.91875,31.7 85.54375,29.8125 83.08125,29.375 C83.6125,27.3875 83.69375,25.03125 82.15,23.45 C80.0875,20.8 75.59375,20.95625 73.6875,23.70625 L73.6875,23.70625 Z" transform="translate(12.5 23.125)"/>
    <g fill="#094CA1" transform="translate(8.75 92.5)">
      <path d="M0,0.625 C37.24375,0.625 74.48125,0.61875 111.71875,0.63125 C111.71875,6.66875 111.7125,12.70625 111.725,18.74375 C74.48125,18.75625 37.24375,18.75 0,18.75 C0,12.70625 0,6.66875 0,0.625 L0,0.625 Z M36.43125,2.0625 C36.45,7.2625 36.425,12.46875 36.45,17.675 C37.0625,17.66875 38.29375,17.65625 38.90625,17.65 C38.9,15.45 38.9,13.25625 38.9125,11.05625 C39.80625,11.05625 40.7,11.05 41.59375,11.04375 C42.675,13.25 43.73125,15.4625 44.7875,17.675 C45.8375,17.6625 46.8875,17.65 47.9375,17.64375 C46.725,15.43125 45.64375,13.15 44.39375,10.9625 C47.75,9.475 48.26875,4.30625 44.9,2.55 C42.19375,1.6 39.24375,2.25 36.43125,2.0625 L36.43125,2.0625 Z M67.81875,2.30625 C65.4375,3.13125 64.08125,5.66875 64.23125,8.1125 C64.275,10.80625 63.69375,14 65.75,16.14375 C68.425,19.075 74.0875,17.975 75.15,14.04375 C75.6,11.36875 75.55,8.6 75.20625,5.9125 C74.41875,2.8 70.74375,1.25625 67.81875,2.30625 L67.81875,2.30625 Z"/>
      <path d="M38.9 4.375C40.93125 4.46875 45 3.64375 44.71875 6.85 44.15625 9.525 40.875 8.59375 38.9 8.75 38.90625 7.2875 38.90625 5.83125 38.9 4.375zM69.025 4.73125C70.81875 4.14375 72.6875 5.6875 72.75 7.50625 72.91875 9.34375 72.98125 11.2375 72.58125 13.05625 72.16875 14.83125 69.9125 15.8125 68.38125 14.76875 66.53125 13.65625 66.925 11.2 66.85625 9.375 66.79375 7.625 67.04375 5.31875 69.025 4.73125zM25.76875 108.7875C25.8125 86.81875 25.73125 64.85625 25.8125 42.8875 45.90625 42.94375 66 42.9 86.1 42.9125 86.0875 64.85625 86.1 86.80625 86.09375 108.75 86.20625 110.5125 84.89375 111.93125 83.60625 112.95 76.6625 118.275 67.95 120.78125 59.33125 121.54375 48.8875 122.14375 38.0375 119.78125 29.3375 113.81875 27.73125 112.56875 25.5 111.13125 25.76875 108.7875L25.76875 108.7875zM50.35625 51.25C50.825 58.68125 51.41875 66.10625 51.74375 73.55 50.95625 74.3 50.1875 75.075 49.4375 75.86875 42.44375 75.35 35.4375 74.8875 28.43125 74.5 28.50625 78.125 28.4875 81.75625 28.44375 85.38125 35.48125 85 42.5 84.4125 49.53125 84.0125 50.2375 84.81875 50.99375 85.5875 51.79375 86.30625 51.41875 93.71875 50.9875 101.13125 50.4125 108.525 54.03125 108.55 57.65625 108.53125 61.28125 108.54375 60.8625 101.10625 60.28125 93.68125 59.99375 86.2375 60.80625 85.525 61.55625 84.7375 62.39375 84.05 69.3625 84.36875 76.325 85.03125 83.29375 85.3875 83.275 81.7625 83.2625 78.14375 83.30625 74.51875 76.31875 74.85625 69.3375 75.3625 62.35625 75.875 61.64375 75.08125 60.89375 74.325 60.0625 73.66875 60.325 66.1875 60.9 58.71875 61.4375 51.25625 57.74375 51.24375 54.05 51.25625 50.35625 51.25L50.35625 51.25zM50.26875 134.75C57.18125 133.075 64.775 134.6375 70.475 138.89375 78.175 144.40625 82.04375 154.58125 79.99375 163.825 78.3625 172.01875 72.1875 179.10625 64.31875 181.8875 60.34375 183.3625 55.9875 183.68125 51.8125 183.03125 44.175 181.8375 37.26875 176.7625 33.8625 169.825 30.46875 163.3 30.35625 155.2 33.44375 148.5375 36.50625 141.6625 42.925 136.4125 50.26875 134.75L50.26875 134.75zM43.1 141.18125C37.73125 144.91875 34.55625 151.2625 34.04375 157.71875 38.65 149.30625 48.2375 144.2625 57.7625 144.775 57.26875 141.96875 56.11875 139.3375 54.51875 136.9875 50.4375 137.38125 46.4125 138.725 43.1 141.18125L43.1 141.18125zM59.36875 137.04375C62.9875 143.9125 62.6625 152.65625 58.18125 159.05625 59.45625 161.5125 61.2125 163.73125 63.4625 165.3625 67.2375 159.74375 68.34375 152.35 65.9 145.98125 64.54375 142.53125 62.45 139.19375 59.36875 137.04375L59.36875 137.04375zM67.8 140.53125C72.53125 148.68125 72.29375 159.48125 66.9625 167.3 69.61875 168.3875 72.50625 168.73125 75.35625 168.475 77.2375 164.3875 78.225 159.75625 77.35625 155.2875 76.40625 149.30625 72.83125 143.8625 67.8 140.53125L67.8 140.53125zM35.325 166.5625C39.45 159.94375 47.23125 155.89375 55.0375 156.5875 56.50625 154.25625 57.43125 151.6375 57.85625 148.925 47.3375 147.75 36.4875 155.94375 35.325 166.5625L35.325 166.5625zM46.39375 161.95C50.66875 171.59375 63.075 177.01875 72.8625 172.65625 65.9375 172.24375 59.08125 168.70625 55.56875 162.5875 55 161.875 54.84375 160.51875 53.725 160.5 51.2125 160.45 48.74375 161.09375 46.39375 161.95L46.39375 161.95zM37.725 170.73125C40.8875 175.50625 45.95625 178.9625 51.58125 180.1 56.3625 181.1125 61.325 180.225 65.75625 178.28125 56.2875 178.15625 46.975 172.73125 42.925 164.05 40.6875 165.8375 38.99375 168.18125 37.725 170.73125L37.725 170.73125z"/>
    </g>
    <g fill="#FFF" transform="translate(8.125 94.375)">
      <path d="M37.05625.1875C39.86875.375 42.81875-.275 45.525.675 48.89375 2.43125 48.375 7.6 45.01875 9.0875 46.26875 11.275 47.35 13.55625 48.5625 15.76875 47.5125 15.775 46.4625 15.7875 45.4125 15.8 44.35625 13.5875 43.3 11.375 42.21875 9.16875 41.325 9.175 40.43125 9.18125 39.5375 9.18125 39.525 11.38125 39.525 13.575 39.53125 15.775 38.91875 15.78125 37.6875 15.79375 37.075 15.8 37.05 10.59375 37.075 5.3875 37.05625.1875L37.05625.1875zM39.525 2.5C39.53125 3.95625 39.53125 5.4125 39.525 6.875 41.5 6.71875 44.78125 7.65 45.34375 4.975 45.625 1.76875 41.55625 2.59375 39.525 2.5zM68.44375.43125C71.36875-.61875 75.04375.925 75.83125 4.0375 76.175 6.725 76.225 9.49375 75.775 12.16875 74.7125 16.1 69.05 17.2 66.375 14.26875 64.31875 12.125 64.9 8.93125 64.85625 6.2375 64.70625 3.79375 66.0625 1.25625 68.44375.43125L68.44375.43125zM69.65 2.85625C67.66875 3.44375 67.41875 5.75 67.48125 7.5 67.55 9.325 67.15625 11.78125 69.00625 12.89375 70.5375 13.9375 72.79375 12.95625 73.20625 11.18125 73.60625 9.3625 73.54375 7.46875 73.375 5.63125 73.3125 3.8125 71.44375 2.26875 69.65 2.85625zM.63125 25.1375C37.875 25.1375 75.11875 25.14375 112.3625 25.1375 112.35 70.73125 112.375 116.325 112.35 161.91875 112.175 167 108.40625 171.00625 104.6875 174.0625 95.84375 181.19375 84.675 184.59375 73.725 186.93125 55.9625 190.675 37.23125 188.18125 20.55 181.275 13.8375 178.35 7.225 174.3875 2.9 168.3375 1.20625 165.9125.44375 162.96875.6125 160.03125.64375 115.0625.6125 70.1.63125 25.1375L.63125 25.1375zM18.13125 32.9875C18.11875 57.825 18.13125 82.6625 18.11875 107.5 18.05 110.14375 19.15625 112.6875 20.85 114.66875 23.88125 118.30625 28.0625 120.75 32.325 122.66875 43.8625 127.7375 57.03125 129.4625 69.34375 126.40625 76.725 124.61875 84.1875 121.95 90.0125 116.90625 92.95625 114.425 95.10625 110.81875 94.99375 106.8625 95.0125 82.2375 95 57.6125 94.99375 32.9875 69.375 32.98125 43.75 32.98125 18.13125 32.9875L18.13125 32.9875zM50.89375 132.875C43.55 134.5375 37.13125 139.7875 34.06875 146.6625 30.98125 153.325 31.09375 161.425 34.4875 167.95 37.89375 174.8875 44.8 179.9625 52.4375 181.15625 56.6125 181.80625 60.96875 181.4875 64.94375 180.0125 72.8125 177.23125 78.9875 170.14375 80.61875 161.95 82.66875 152.70625 78.8 142.53125 71.1 137.01875 65.4 132.7625 57.80625 131.2 50.89375 132.875L50.89375 132.875z"/>
      <path d="M43.725 139.30625C47.0375 136.85 51.0625 135.50625 55.14375 135.1125 56.74375 137.4625 57.89375 140.09375 58.3875 142.9 48.8625 142.3875 39.275 147.43125 34.66875 155.84375 35.18125 149.3875 38.35625 143.04375 43.725 139.30625L43.725 139.30625zM59.99375 135.16875C63.075 137.31875 65.16875 140.65625 66.525 144.10625 68.96875 150.475 67.8625 157.86875 64.0875 163.4875 61.8375 161.85625 60.08125 159.6375 58.80625 157.18125 63.2875 150.78125 63.6125 142.0375 59.99375 135.16875z"/>
      <path d="M68.425 138.65625C73.45625 141.9875 77.03125 147.43125 77.98125 153.4125 78.85 157.88125 77.8625 162.5125 75.98125 166.6 73.13125 166.85625 70.24375 166.5125 67.5875 165.425 72.91875 157.60625 73.15625 146.80625 68.425 138.65625L68.425 138.65625zM35.95 164.6875C37.1125 154.06875 47.9625 145.875 58.48125 147.05 58.05625 149.7625 57.13125 152.38125 55.6625 154.7125 47.85625 154.01875 40.075 158.06875 35.95 164.6875L35.95 164.6875zM47.01875 160.075C49.36875 159.21875 51.8375 158.575 54.35 158.625 55.46875 158.64375 55.625 160 56.19375 160.7125 59.70625 166.83125 66.5625 170.36875 73.4875 170.78125 63.7 175.14375 51.29375 169.71875 47.01875 160.075L47.01875 160.075z"/>
      <path d="M38.35,168.85625 C39.61875,166.30625 41.3125,163.9625 43.55,162.175 C47.6,170.85625 56.9125,176.28125 66.38125,176.40625 C61.95,178.35 56.9875,179.2375 52.20625,178.225 C46.58125,177.0875 41.5125,173.63125 38.35,168.85625 Z"/>
    </g>
  </g>
</svg>
