<svg xmlns="http://www.w3.org/2000/svg" width="331" height="566" viewBox="0 0 331 566">
  <g fill="none">
    <path fill="#FF0700" d="M165.342356,566.001 L0.24236,193.805 L88.830356,193.805 C111.229356,182.071 147.344356,177.505 165.295356,177.464 C183.328356,177.502 219.44236,182.071 241.84136,193.805 L330.43236,193.805 L165.342356,566.001 Z"/>
    <path fill="#FFF" d="M165.340356,522.894 L141.572356,469.305 L141.572356,199.86 C151.445356,198.45 160.250356,197.764 165.378356,197.745 C170.365356,197.764 178.877356,198.42 188.474356,199.767 L188.474356,470.732 L165.340356,522.894 Z"/>
    <polygon fill="#FFF" points="47.234 256.61 47.234 211.292 94.138 211.292 94.138 362.359"/>
    <polygon fill="#FFF" points="282.811 211.292 282.811 258.031 235.908 363.782 235.908 211.292"/>
    <path fill="#E2B900" d="M136.698356 290.613C128.254356 296.964 124.132356 304.602 124.132356 310.633 124.132356 323.297 142.312356 343.141 180.541356 343.141 182.678356 343.141 184.766356 343.04 186.805356 342.861 180.161356 327.527 163.791356 316.582 153.923356 308.033 147.987356 302.612 141.717356 297.304 136.698356 290.613zM227.68536 349.511C222.60336 351.984 217.02536 354.094 211.17336 355.766L211.19036 357.193C211.19036 386.065 187.974356 404.793 163.211356 404.793 148.398356 404.793 130.709356 398.551 119.653356 385.804L129.160356 370.718C138.225356 378.262 148.175356 386.585 162.769356 386.585 177.233356 386.585 188.519356 377.931 189.647356 359.738 186.605356 360.001 183.562356 360.14 180.542356 360.14 142.334356 360.14 101.739356 342.05 101.739356 310.632 101.739356 294.394 112.583356 281.715 128.336356 273.256 127.308356 269.14 126.731356 264.558 126.731356 259.389 126.731356 234.937 146.849356 216.471 170.948356 216.471 187.088356 216.471 200.575356 223.234 209.19836 234.678L199.027356 247.683C191.510356 241.18 181.561356 234.678 172.276356 234.678 156.798356 234.678 148.175356 245.343 148.175356 259.39 148.175356 261.418 148.408356 263.36 148.872356 265.264 158.989356 262.541 169.858356 261.125 180.542356 261.125 196.709356 261.125 212.76336 265.664 226.53036 271.783L219.90036 286.786C210.73436 281.82 196.614356 278.202 180.542356 278.202 172.070356 278.202 164.584356 279.169 158.062356 280.821 162.808356 286.106 169.294356 291.885 177.581356 298.927 192.692356 311.889 203.319354 324.056 208.18836 338.439L209.23236 338.135 209.24036 314.413 227.68636 314.413 227.68636 349.511 227.68536 349.511zM165.459356 169.363C130.020356 169.363 102.441356 177.018 84.843356 187.125L74.737356 169.604C98.451356 156.374 132.212356 149.101 165.460356 149.082 198.709356 149.101 232.46936 156.374 256.18336 169.604L246.07636 187.125C228.47736 177.018 200.899356 169.363 165.498356 169.363L165.459356 169.363z"/>
    <path fill="#E2B900" d="M57.755356,130.898 C51.843356,130.342 45.677356,124.835 45.677356,111.414 C45.677356,94.699 59.226356,81.148 75.940356,81.148 C78.909356,81.148 81.775356,81.577 84.482356,82.374 C88.400356,71.457 97.886356,63.188 109.582356,61.051 C117.752356,59.587 125.977356,58.448 134.196356,57.632 C134.630356,51.609 139.654356,46.855 145.788356,46.855 L157.814356,46.855 C153.007356,44.225 149.744356,39.119 149.744356,33.253 C149.744356,25.785 155.024356,19.554 162.324356,18.068 L162.324356,11.893 L156.496356,11.893 L156.496356,6.061 L162.324356,6.061 L162.324356,0 L168.433356,0 L168.433356,6.061 L174.258356,6.061 L174.258356,11.894 L168.433356,11.894 L168.433356,18.069 C175.730356,19.555 181.013356,25.787 181.013356,33.254 C181.013356,39.12 177.751356,44.226 172.942356,46.856 L184.966356,46.856 C191.103356,46.856 196.127356,51.61 196.561356,57.633 C204.777354,58.449 213.00536,59.588 221.17236,61.052 C232.87136,63.189 242.35636,71.457 246.27336,82.375 C248.97836,81.578 251.84736,81.149 254.81436,81.149 C271.52936,81.149 285.08036,94.7 285.08036,111.415 C285.08036,124.835 278.91336,130.343 273.00136,130.899 C274.36336,131.292 275.65136,131.81 276.83436,132.401 C283.36236,135.926 287.36936,142.657 287.36936,150.079 C287.36936,163.597 267.08836,163.597 267.08836,150.079 C263.07936,156.562 253.88636,164.337 239.71136,159.309 C233.34336,157.05 227.42136,153.026 222.01936,146.833 C202.642354,151.524 184.311356,149.479 165.380356,136.501 C146.452356,149.48 128.113356,151.524 108.738356,146.833 C103.333356,153.026 97.414356,157.05 91.047356,159.309 C76.870356,164.337 67.675356,156.562 63.669356,150.079 C63.669356,163.597 43.389356,163.597 43.389356,150.079 C43.389356,142.657 47.392356,135.926 53.922356,132.401 C55.106356,131.809 56.392356,131.291 57.755356,130.898 L57.755356,130.898 Z"/>
    <path fill="#FF0700" d="M165.570356,88.435 L165.188356,88.435 C160.759356,88.487 156.082356,90.417 153.147356,94.268 C148.990356,91.085 146.119356,85.987 146.119356,78.975 L146.426356,76.976 C135.348356,77.691 124.215356,79.034 113.175356,81.011 C107.288356,82.104 102.824356,87.286 102.824356,93.572 C102.824356,95.234 103.139356,96.804 103.700356,98.236 C104.427356,100.082 104.627356,101.842 104.427356,103.45 C98.266356,101.457 90.963356,103.778 86.980356,108.909 C86.440356,108.353 85.930356,107.718 85.459356,107 C83.780356,103.396 80.138356,100.928 75.941356,100.928 C70.151356,100.928 65.456356,105.622 65.456356,111.414 C65.456356,113.304 65.949356,115.053 66.806356,116.567 C70.382356,122.882 67.576356,128.094 62.980356,130.082 L63.389356,130.077 C70.268356,130.077 76.839356,133.692 80.459356,139.552 C80.579356,139.603 81.772356,140.623 82.119356,140.631 C83.711356,140.664 85.300356,140.165 86.848356,139.297 C86.602356,139.091 86.474356,138.971 86.488356,138.966 C76.083356,134.299 80.357356,120.407 89.352356,119.488 C87.362356,108.034 104.239356,102.949 108.738356,114.027 C115.303356,112.595 123.029356,118.303 121.103356,126.189 C120.924356,126.929 120.659356,127.689 120.301356,128.461 C130.198356,129.733 139.513356,128.184 149.162356,122.769 C148.126356,121.727 147.085356,120.648 146.041356,119.537 C138.489356,111.48 146.974356,100.753 155.377356,102.464 C155.919356,96.617 160.477356,93.63 165.139356,93.507 C170.183356,93.562 174.836356,96.547 175.386356,102.464 C183.787356,100.753 192.272356,111.48 184.720356,119.537 C183.676356,120.649 182.638356,121.728 181.599356,122.769 C191.250356,128.184 200.562356,129.733 210.46236,128.461 C210.10536,127.688 209.83936,126.929 209.65736,126.189 C207.73236,118.303 215.46036,112.595 222.02236,114.027 C226.52336,102.949 243.40236,108.034 241.41136,119.488 C250.40336,120.407 254.67636,134.3 244.27436,138.966 C244.28536,138.971 244.15836,139.091 243.91136,139.297 C245.46036,140.165 247.05136,140.664 248.64336,140.631 C248.98836,140.623 250.18136,139.604 250.30036,139.552 C253.92336,133.692 260.49136,130.077 267.37036,130.077 L267.78236,130.082 C263.18536,128.095 260.37936,122.882 263.95636,116.567 C264.81336,115.053 265.30336,113.304 265.30336,111.414 C265.30336,105.622 260.61036,100.928 254.81836,100.928 C250.62036,100.928 246.98136,103.396 245.30336,107 C244.82836,107.718 244.31836,108.353 243.78036,108.909 C239.79936,103.778 232.49336,101.457 226.33436,103.45 C226.13136,101.842 226.33436,100.082 227.05936,98.236 C227.62336,96.804 227.93436,95.234 227.93436,93.572 C227.93436,87.286 223.47436,82.104 217.58636,81.011 C206.547354,79.034 195.410356,77.692 184.335356,76.976 L184.642356,78.975 C184.642356,85.987 181.769356,91.085 177.609356,94.268 C174.674356,90.417 169.996356,88.487 165.570356,88.435 Z"/>
  </g>
</svg>
