<svg xmlns="http://www.w3.org/2000/svg" width="364" height="567" viewBox="0 0 364 567">
  <g fill="none">
    <path fill="#000" d="M227.00947,201.27013 C255.38047,197.61613 265.98847,191.41213 265.98847,191.41213 L267.63847,184.63613 C271.02547,184.03813 273.49347,182.33313 273.77147,180.05613 C274.01247,178.06913 272.52447,176.10813 270.05347,174.71713 L271.68847,168.00113 C272.66747,167.59313 273.55647,167.10913 274.37347,166.54713 C277.55747,164.35413 279.05847,161.32613 280.51047,158.40013 C282.15447,155.08713 283.85347,151.66013 288.30147,147.84513 L293.44147,143.43913 L287.14447,140.95513 C286.84547,140.83813 286.54447,140.73513 286.24247,140.64513 C288.83047,138.76013 290.51847,135.71613 290.51947,132.26913 C290.51847,129.52313 289.44447,127.03513 287.70247,125.17913 C287.75447,125.18013 287.80447,125.18813 287.85647,125.18813 C293.58247,125.18613 298.22247,120.54613 298.22447,114.82113 C298.22347,110.30013 295.32747,106.46813 291.29247,105.04913 C293.70147,103.32313 295.27647,100.50813 295.27747,97.31714 C295.27547,92.059135 291.01547,87.800135 285.75847,87.799135 C285.27547,87.799135 284.80447,87.846135 284.34047,87.916135 C285.57447,86.558135 286.33347,84.760135 286.33447,82.780135 C286.33247,78.554135 282.90947,75.132135 278.68647,75.130135 C277.75947,75.131135 276.87547,75.304135 276.05447,75.606135 C276.48447,74.651135 276.72747,73.595135 276.72847,72.480135 C276.72647,68.255135 273.30347,64.832135 269.08047,64.831135 C267.07147,64.832135 265.24847,65.612135 263.88447,66.879135 C263.79547,62.732135 260.41347,59.395135 256.24447,59.394135 C253.21747,59.395135 250.60847,61.157135 249.36847,63.708135 C248.13547,61.139135 245.51747,59.361135 242.47747,59.360135 C238.25347,59.361135 234.83147,62.783135 234.82947,67.008135 C234.82947,67.992135 235.02247,68.930135 235.36147,69.794135 C233.46547,67.705135 230.73547,66.386135 227.69147,66.385135 C227.08647,66.385135 226.49647,66.448135 225.91947,66.547135 C227.19047,65.182135 227.97547,63.357135 227.97547,61.342135 C227.97447,57.118135 224.55247,53.696135 220.32947,53.694135 C220.05847,53.694135 219.79147,53.710135 219.52747,53.737135 C220.14247,52.634135 220.49747,51.366135 220.49747,50.012135 C220.49747,45.788135 217.07547,42.366135 212.851455,42.364135 C211.348455,42.365135 209.952455,42.804135 208.769455,43.552135 C208.987455,42.950135 209.113455,42.305135 209.113455,41.628135 C209.111455,38.498135 206.575455,35.964135 203.447455,35.962135 C202.263455,35.963135 201.166455,36.326135 200.258455,36.947135 C199.976455,36.744135 199.702455,36.550135 199.437455,36.365135 C199.538455,35.944135 199.596455,35.508135 199.596455,35.056135 C199.594455,31.926135 197.059455,29.391135 193.930455,29.390135 C193.011455,29.390135 192.147455,29.614135 191.379455,30.002135 C191.813455,28.859135 192.061455,27.625135 192.061455,26.330135 L192.060455,26.330135 C192.060455,20.606135 187.421455,15.968135 181.697455,15.965135 C185.920455,15.961135 189.341455,12.540135 189.342455,8.317136 C189.341455,4.0921355 185.919455,0.6701355 181.695455,0.6701355 C177.470455,0.6701355 174.048455,4.0931355 174.046455,8.317136 C174.047455,12.541135 177.468455,15.962135 181.692455,15.965135 C175.966455,15.967135 171.328455,20.606135 171.328455,26.330135 C171.328455,27.625135 171.576455,28.859135 172.009455,30.002135 C171.241455,29.613135 170.376455,29.390135 169.457455,29.390135 C166.329455,29.391135 163.792455,31.926135 163.792455,35.056135 C163.792455,35.506135 163.851455,35.944135 163.950455,36.364135 C163.685455,36.550135 163.411455,36.744135 163.130455,36.946135 C162.221455,36.326135 161.123455,35.963135 159.939455,35.963135 C156.811455,35.963135 154.276455,38.497135 154.274455,41.629135 C154.274455,42.305135 154.399455,42.950135 154.617455,43.551135 C153.435455,42.803135 152.038455,42.363135 150.536455,42.363135 C146.312455,42.364135 142.890455,45.787135 142.888455,50.012135 C142.888455,51.365135 143.243455,52.633135 143.859455,53.735135 C143.596455,53.708135 143.329455,53.693135 143.058455,53.693135 C138.832455,53.694135 135.411455,57.116135 135.409455,61.341135 C135.409455,63.355135 136.194455,65.180135 137.465455,66.546135 C136.888455,66.445135 136.298455,66.383135 135.693455,66.383135 C132.650455,66.384135 129.921455,67.703135 128.025455,69.792135 C128.363455,68.929135 128.556455,67.991135 128.556455,67.008135 C128.555455,62.782135 125.133456,59.360135 120.907456,59.359135 C117.866456,59.360135 115.250456,61.137135 114.017456,63.707135 C112.777456,61.155135 110.169456,59.393135 107.142456,59.392135 C102.973455,59.394135 99.591455,62.728135 99.501455,66.878135 C98.137455,65.611135 96.315455,64.831135 94.306455,64.830135 C90.080455,64.832135 86.658455,68.254135 86.657455,72.479135 C86.657455,73.594135 86.901455,74.650135 87.330455,75.605135 C86.509455,75.303135 85.625455,75.130135 84.699455,75.129135 C80.474455,75.131135 77.052455,78.554135 77.051455,82.779135 C77.051455,84.758135 77.810455,86.556135 79.044455,87.914135 C78.581455,87.845135 78.110455,87.797135 77.627455,87.797135 C72.369455,87.798135 68.110455,92.058135 68.108455,97.31614 C68.108455,100.50613 69.683455,103.32313 72.092455,105.04813 C68.058455,106.46813 65.163455,110.30013 65.162455,114.82013 C65.163455,120.54613 69.803455,125.18613 75.529455,125.18713 C75.581455,125.18713 75.632455,125.18013 75.684455,125.17913 C73.942455,127.03313 72.867455,129.52313 72.866455,132.26813 C72.867455,135.71513 74.556455,138.76013 77.143455,140.64413 C76.841455,140.73413 76.540455,140.83613 76.242455,140.95413 L69.945455,143.43813 L75.084455,147.84413 C79.532455,151.65813 81.231455,155.08513 82.875455,158.39913 C84.327455,161.32613 85.828455,164.35313 89.012455,166.54613 C89.828455,167.10913 90.718455,167.59213 91.696455,168.00013 L93.331455,174.71613 C90.860455,176.10713 89.372455,178.06813 89.613455,180.05513 C89.889455,182.33213 92.359455,184.03713 95.746455,184.63513 L97.396455,191.41113 C97.396455,191.41113 108.003456,197.61513 136.375455,201.26913 L0.18147,201.26913 C0.18147,298.60613 16.178463,357.91313 42.744455,409.23413 C76.027455,473.53013 125.898456,521.05913 181.691455,566.66813 C237.48347,521.06013 287.35547,473.53013 320.63747,409.23413 C347.20447,357.91313 363.20047,298.60613 363.20047,201.26913 L227.00947,201.26913 L227.00947,201.27013 Z"/>
    <path fill="#BE8A16" d="M356.03447,208.40813 L7.34947,208.40813 C7.70847,251.61113 11.35747,288.50113 18.474455,320.98113 C25.171455,351.54713 34.898455,378.54813 49.084455,405.95413 C82.071455,469.67813 132.027455,516.51613 181.692455,557.43513 C231.35747,516.51513 281.31347,469.67713 314.29947,405.95413 C328.48647,378.54913 338.21247,351.54813 344.90947,320.98113 C352.02647,288.50113 355.67447,251.61113 356.03447,208.40813 L356.03447,208.40813 L356.03447,208.40813 Z"/>
    <path fill="#000" d="M348.80447,215.54613 L14.57847,215.54613 C15.26047,255.16413 18.833455,289.27213 25.446455,319.45313 C32.006455,349.39313 41.531455,375.83713 55.423455,402.67313 C86.824455,463.33413 134.131455,508.62613 181.692455,548.17013 C229.25347,508.62613 276.55947,463.33313 307.96147,402.67313 C321.85347,375.83713 331.37847,349.39413 337.93947,319.45313 C344.54947,289.27213 348.12347,255.16413 348.80447,215.54613 L348.80447,215.54613 Z"/>
    <path fill="#FFF" d="M181.691455,223.70413 L181.691455,537.53513 C226.80447,499.57813 271.11147,456.11213 300.71447,398.92313 C314.26947,372.73813 323.56547,346.93213 329.96747,317.70713 C335.99947,290.17913 339.45847,259.25713 340.45947,223.70413 L181.691455,223.70413 Z"/>
    <path fill="#007CB2" d="M22.922455,223.70413 C23.924455,259.25713 27.383455,290.17913 33.414455,317.70713 C39.817455,346.93213 49.112455,372.73813 62.667455,398.92313 C92.271455,456.11213 136.578455,499.57813 181.691455,537.53513 L181.691455,223.70413 L22.922455,223.70413 Z"/>
    <path fill="#000" d="M181.691455,433.87813 C160.571455,433.88213 143.453455,450.99813 143.452455,472.11713 C143.453455,493.23713 160.572455,510.35513 181.691455,510.35813 C202.811455,510.35513 219.92747,493.23713 219.93047,472.11713 C219.92747,450.99813 202.811455,433.88213 181.691455,433.87813 Z"/>
    <path fill="#BE8A16" d="M181.464455 469.00313C179.886455 466.70613 179.235455 462.47213 179.068455 457.82113 196.107455 458.59413 209.142455 468.36113 213.694455 474.74613 213.397455 478.42213 212.484455 481.91713 211.054455 485.13613 207.093455 480.39813 197.411455 471.03113 181.464455 469.00313zM175.346455 474.21413C175.346455 474.21413 173.515455 477.32113 168.642455 480.40013 164.316455 473.16413 161.054455 459.83113 163.775455 445.45613 166.558455 443.58113 169.652455 442.14013 172.961455 441.20813 168.256455 457.26313 175.346455 474.21413 175.346455 474.21413L175.346455 474.21413zM204.403455 449.40513C209.077455 454.08313 212.308455 460.17513 213.400455 466.99213 208.749455 460.64113 195.285455 451.80813 179.116455 451.05813 179.299455 446.74813 179.715455 442.68913 180.034455 440.03913 180.583455 440.01113 181.135455 439.99613 181.691455 439.99613 190.571455 439.99813 198.581455 443.58813 204.403455 449.40513L204.403455 449.40513zM156.677455 451.97713C156.211455 457.98613 156.568455 468.82113 161.844455 483.67613 159.244455 484.60713 156.197455 485.38213 152.658455 485.86913 150.680455 481.70213 149.572455 477.04513 149.571455 472.11613 149.571455 464.48013 152.232455 457.48913 156.677455 451.97713zM156.597455 492.15713C176.672455 486.14213 182.598455 474.21413 182.598455 474.21413 186.493455 474.74513 190.216455 476.27413 193.600455 478.23813 191.175455 482.47413 181.988455 495.97413 162.607455 497.95313 161.322455 497.00213 160.107455 495.96013 158.978455 494.83113 158.133455 493.98613 157.343455 493.09013 156.597455 492.15713zM181.691455 504.23813C177.257455 504.23813 173.041455 503.34213 169.205455 501.72213 185.331455 499.37113 194.352455 490.54313 199.272455 482.12013 203.115455 485.14913 206.168455 488.36113 208.028455 490.49313 206.946455 492.04213 205.736455 493.49513 204.403455 494.83013 198.581455 500.64813 190.571455 504.23713 181.691455 504.23813z"/>
    <polygon fill="#000" points="256.712 242.271 256.712 254.269 253.466 254.269 253.466 242.271 235.279 242.271 235.279 254.269 232.032 254.269 232.032 242.271 213.843 242.271 213.843 263.14 223.679 273.841 205.788 427.223 282.957 427.223 265.066 273.842 274.903 263.139 274.903 242.271"/>
    <path fill="#BE8A16" d="M226.52647,272.91913 L216.56446,262.08213 L216.56446,244.99113 L229.31247,244.99113 L229.31247,256.99013 L237.99847,256.99013 L237.99847,244.99113 L250.74647,244.99113 L250.74647,256.99013 L259.43447,256.99013 L259.43447,244.99113 L272.18347,244.99113 L272.18347,262.08213 L262.22047,272.92113 L262.29247,273.53813 L279.90147,424.50413 L258.86247,424.50413 L258.86247,396.22913 C258.86247,388.22613 252.37747,381.74013 244.37447,381.73913 C236.37047,381.74013 229.88547,388.22613 229.88347,396.22913 L229.88347,424.50413 L208.844455,424.50413 L226.52647,272.91913 Z"/>
    <path fill="#FFF" d="M232.60346,424.50413 L232.60246,396.22913 C232.61446,389.72913 237.87346,384.46913 244.37346,384.45813 C250.87146,384.47013 256.13246,389.72913 256.14346,396.22913 L256.14346,424.50413 L232.60346,424.50413 L232.60346,424.50413 Z"/>
    <path fill="#000" d="M258.86246,425.86313 L258.86546,425.86313 L258.86246,425.86313 Z"/>
    <polygon fill="#000" points="131.35 254.269 128.104 254.269 128.104 242.271 109.916 242.271 109.916 254.269 106.668 254.269 106.668 242.271 88.481 242.271 88.481 263.139 98.316 273.841 80.425 427.223 157.592 427.223 139.701 273.842 149.538 263.14 149.538 242.271 131.35 242.271"/>
    <path fill="#FFF" d="M107.239456,424.50413 L107.239456,396.22913 C107.251456,389.72913 112.509456,384.46913 119.010456,384.45813 C125.510456,384.47013 130.769455,389.72913 130.781455,396.22913 L130.781455,424.50413 L107.239456,424.50413 Z"/>
    <path fill="#BE8A16" d="M154.537455,424.50413 L133.500455,424.50413 L133.500455,396.22913 C133.499455,388.22613 127.012456,381.74013 119.010456,381.73913 C111.008456,381.74013 104.520455,388.22613 104.520455,396.22913 L104.520455,424.50413 L83.479455,424.50413 L101.162455,272.91913 L91.200455,262.08013 L91.200455,244.99113 L103.948455,244.99113 L103.950455,256.99013 L112.635456,256.99013 L112.635456,244.99113 L125.385456,244.99113 L125.385456,256.99013 L134.072455,256.99013 L134.072455,244.99113 L146.820455,244.99113 L146.820455,262.08213 L136.858455,272.91913 L136.930455,273.53813 L154.537455,424.50413 L154.537455,424.50413 Z"/>
    <polygon fill="#000" points="143.865 298.481 158.882 427.223 204.5 427.223 219.693 296.964 199.959 296.964 199.959 308.793 193.021 308.793 193.021 296.964 170.36 296.964 170.36 308.793 163.422 308.793 163.422 296.964 143.688 296.964"/>
    <path fill="#FFF" d="M200.765455,424.50413 L162.616455,424.50413 L162.616455,377.44113 C162.635455,366.90613 171.158455,358.38413 181.692455,358.36513 C192.223455,358.38513 200.747455,366.90613 200.765455,377.44113 L200.765455,424.50413 Z"/>
    <path fill="#BE8A16" d="M203.484455,412.45513 L203.484455,377.44013 C203.483455,365.40313 193.726455,355.64613 181.692455,355.64613 C169.654455,355.64613 159.898455,365.40313 159.897455,377.44013 L159.897455,412.44713 L146.743455,299.68213 L160.702455,299.68213 L160.703455,311.51213 L173.080455,311.51213 L173.080455,299.68213 L190.300455,299.68213 L190.300455,311.51213 L202.679455,311.51213 L202.679455,299.68213 L216.63846,299.68213 L203.484455,412.45513 L203.484455,412.45513 Z"/>
    <path fill="#000" d="M70.310455 254.67213C70.093455 253.31213 69.386455 252.49613 68.461455 252.00713 67.536455 251.51813 66.394455 251.30013 65.143455 251.30013 62.315455 251.30013 61.064455 252.11513 61.064455 253.52913 61.064455 259.40313 83.580455 255.75913 83.580455 270.00813 83.580455 279.09013 76.020455 283.49513 65.252455 283.49513 54.919455 283.49513 48.175455 277.45813 47.903455 270.38813L60.195455 270.38813C60.466455 271.80213 61.228455 272.83613 62.316455 273.48913 63.349455 274.14113 64.709455 274.46813 65.960455 274.46813 69.169455 274.46813 71.290455 273.43513 71.290455 271.58613 71.290455 265.65713 48.774455 269.73613 48.774455 254.78013 48.774455 246.45913 55.953455 242.27113 65.743455 242.27113 76.620455 242.27113 81.569455 247.81913 82.493455 254.67113L70.310455 254.67113 70.310455 254.67213zM162.874455 282.46313L162.874455 243.30513 180.060455 243.30513C192.678455 243.30513 200.509455 249.17913 200.509455 262.06813 200.509455 276.80713 192.297455 282.46413 179.734455 282.46413L162.874455 282.46413 162.874455 282.46313zM175.709455 273.32613L178.428455 273.32613C184.411455 273.32613 187.674455 270.17213 187.674455 262.77413 187.674455 254.61713 185.009455 252.44113 178.156455 252.44113L175.709455 252.44113 175.709455 273.32613 175.709455 273.32613zM279.91146 282.46313L279.91146 243.30513 298.78346 243.30513C310.04146 243.30513 315.47946 248.47213 315.47946 256.52113 315.47946 264.95113 310.47546 270.28113 299.21846 270.28113L292.74546 270.28113 292.74546 282.46413 279.91146 282.46413 279.91146 282.46313zM298.07646 261.14313C301.06646 261.14313 303.24346 259.94613 303.24346 256.57513 303.24346 252.93113 299.10946 252.44113 296.39046 252.44113L292.74546 252.44113 292.74546 261.14313 298.07646 261.14313 298.07646 261.14313z"/>
    <ellipse cx="181.691" cy="190.846" fill="#E10613" rx="67.641" ry="6.685"/>
    <path fill="#FCFC14" d="M282.20046 106.13613C280.66646 107.13713 279.41746 108.53413 278.58946 110.18013 278.79846 108.69013 278.91646 107.16713 278.91446 105.61113 278.91546 105.02813 278.90046 104.45113 278.87646 103.87713 279.80446 104.84713 280.93346 105.62613 282.20046 106.13613zM277.50146 115.09313C277.57146 117.73013 278.62146 120.11513 280.30546 121.90713 280.25346 121.90613 280.20246 121.89913 280.15146 121.89913 274.42446 121.90113 269.78646 126.54113 269.78446 132.26713 269.78546 134.36913 270.41446 136.32113 271.48846 137.95413 269.31946 136.98513 265.40946 135.59913 260.02246 135.05513 263.01446 133.59513 265.75246 131.76813 268.16246 129.61113 272.50946 125.72613 275.76546 120.75513 277.50146 115.09313L277.50146 115.09313zM278.68646 90.425135C278.87246 90.425135 279.05246 90.410135 279.23546 90.398135 278.27446 91.304135 277.50646 92.410135 276.98746 93.644135 276.51346 92.258135 275.95246 90.921135 275.31446 89.634135 276.33346 90.136135 277.47446 90.425135 278.68646 90.425135L278.68646 90.425135zM271.71246 79.650135C271.28346 80.605135 271.03846 81.663135 271.03846 82.779135 271.03846 82.899135 271.05146 83.016135 271.05646 83.135135 270.40046 82.361135 269.70946 81.615135 268.97946 80.907135 268.67646 80.612135 268.36146 80.329135 268.04446 80.046135 268.38446 80.092135 268.72846 80.124135 269.08046 80.124135 270.00646 80.125135 270.89046 79.952135 271.71246 79.650135zM262.26046 75.912135C261.15446 75.292135 260.00046 74.736135 258.81046 74.234135 259.79346 73.880135 260.68846 73.338135 261.43946 72.639135 261.46446 73.816135 261.76246 74.924135 262.26046 75.912135zM250.27646 71.805135C249.72346 71.714135 249.16646 71.635135 248.60246 71.567135 248.88746 71.183135 249.14146 70.774135 249.35246 70.340135 249.60446 70.865135 249.91746 71.354135 250.27646 71.805135z"/>
    <path fill="#E10613" d="M235.77746,104.84913 C238.96246,103.07913 241.11846,99.68613 241.12046,95.785137 C241.11846,90.820135 237.62946,86.679135 232.96946,85.662135 C235.93246,83.903135 237.94546,80.719135 238.04946,77.050135 C239.90446,76.814135 241.70746,76.697135 243.45146,76.697135 C252.52246,76.706135 259.97046,79.750135 265.19046,84.810135 C270.40346,89.881135 273.46446,97.01614 273.47446,105.61113 C273.46546,113.65613 270.10646,120.55113 264.53346,125.56013 C258.95646,130.55413 251.13546,133.60213 242.27346,133.60213 C240.42146,133.60213 238.52246,133.46013 236.59146,133.18313 C236.74746,132.72213 236.86446,132.24013 236.92846,131.73913 C236.96646,131.42513 236.98646,131.11713 236.98546,130.80813 C236.98546,127.88313 235.25846,125.28413 232.67746,124.09513 C237.48246,123.19013 241.11746,118.98013 241.11946,113.91213 C241.11846,110.01113 238.96246,106.61813 235.77746,104.84913 L235.77746,104.84913 Z"/>
    <path fill="#FF0" d="M191.500455,123.48413 C190.642455,126.17513 189.791455,128.25913 189.086455,129.79013 C189.042455,127.60613 188.056455,125.65813 186.516455,124.33213 C189.810455,122.59613 192.058455,119.14413 192.059455,115.15913 C192.058455,111.63913 190.300455,108.53613 187.620455,106.66213 C190.301455,104.78913 192.058455,101.68413 192.059455,98.16613 C192.058455,94.645135 190.300455,91.541135 187.620455,89.667135 C190.301455,87.793135 192.058455,84.688135 192.059455,81.169135 L192.058455,81.169135 C192.058455,77.229135 189.860455,73.802135 186.621455,72.049135 C188.282455,70.647135 189.339455,68.552135 189.339455,66.207135 C189.339455,63.635135 188.066455,61.365135 186.119455,59.979135 C187.816455,58.770135 189.001455,56.888135 189.277455,54.720135 C192.369455,62.142135 195.839455,74.283135 195.843455,91.432135 C195.843455,106.25513 193.649455,116.74613 191.500455,123.48413 L191.500455,123.48413 Z"/>
    <path fill="#FCFC14" d="M197.414455,39.513135 C197.615455,39.655135 197.820455,39.800135 198.032455,39.952135 C197.869455,40.481135 197.780455,41.043135 197.780455,41.626135 C197.780455,42.212135 197.869455,42.776135 198.034455,43.308135 C197.162455,42.302135 196.307455,41.363135 195.487455,40.496135 C196.197455,40.294135 196.847455,39.957135 197.414455,39.513135 L197.414455,39.513135 Z"/>
    <path fill="#FF0" d="M174.294455,129.79013 C171.821455,124.42613 167.544455,112.16413 167.539455,91.433135 C167.539455,75.767135 170.437455,64.292135 173.292455,56.763135 C173.565455,56.045135 173.836455,55.374135 174.106455,54.727135 C174.383455,56.893135 175.567455,58.772135 177.263455,59.980135 C175.317455,61.366135 174.043455,63.635135 174.042455,66.208135 C174.042455,68.553135 175.100455,70.647135 176.760455,72.050135 C173.523455,73.803135 171.324455,77.229135 171.324455,81.170135 C171.324455,84.690135 173.081455,87.794135 175.762455,89.668135 C173.081455,91.542135 171.323455,94.647135 171.322455,98.16713 C171.323455,101.68613 173.081455,104.79013 175.762455,106.66313 C173.081455,108.53713 171.323455,111.64113 171.322455,115.16013 C171.323455,119.14413 173.572455,122.59713 176.866455,124.33313 C175.325455,125.65813 174.339455,127.60613 174.294455,129.79013 L174.294455,129.79013 Z"/>
    <path fill="#FCFC14" d="M165.350455,39.953135 C165.561455,39.802135 165.767455,39.655135 165.968455,39.515135 C166.533455,39.957135 167.184455,40.294135 167.893455,40.497135 C167.073455,41.362135 166.221455,42.302135 165.348455,43.307135 C165.513455,42.777135 165.602455,42.212135 165.602455,41.628135 C165.602455,41.044135 165.513455,40.482135 165.350455,39.953135 L165.350455,39.953135 Z"/>
    <path fill="#E10613" d="M130.412455,85.662135 C125.753456,86.679135 122.264456,90.821135 122.264456,95.785137 C122.264456,99.68613 124.420456,103.08013 127.604455,104.84913 C124.420456,106.61913 122.264456,110.01113 122.264456,113.91213 C122.264456,118.97813 125.899456,123.18813 130.702455,124.09413 C128.122455,125.28213 126.395456,127.88213 126.394456,130.80813 C126.394456,131.11413 126.413456,131.42613 126.454456,131.74413 C126.517456,132.24313 126.635456,132.72313 126.791456,133.18313 C124.858456,133.46013 122.958456,133.60313 121.106456,133.60313 C112.248456,133.60313 104.425455,130.55413 98.849455,125.56013 C93.276455,120.55113 89.917455,113.65813 89.908455,105.61113 C89.918455,97.01614 92.980455,89.882135 98.192455,84.810135 C103.413455,79.749135 110.859456,76.706135 119.932456,76.697135 C121.674456,76.697135 123.478456,76.813135 125.334456,77.050135 C125.438456,80.719135 127.450455,83.903135 130.412455,85.662135 L130.412455,85.662135 Z"/>
    <path fill="#FCFC14" d="M91.895455 137.95513C92.969455 136.32213 93.599455 134.37013 93.600455 132.26813 93.599455 126.54213 88.958455 121.90213 83.232455 121.90113 83.180455 121.90113 83.129455 121.90813 83.077455 121.90913 84.760455 120.11613 85.811455 117.72913 85.881455 115.09413 87.616455 120.75513 90.873455 125.72813 95.222455 129.61213 97.630455 131.76913 100.370455 133.59613 103.362455 135.05613 97.974455 135.59913 94.064455 136.98513 91.895455 137.95513L91.895455 137.95513zM114.029456 70.340135C114.240456 70.775135 114.493456 71.184135 114.779456 71.569135 114.215456 71.636135 113.657456 71.715135 113.104456 71.806135 113.464456 71.354135 113.777456 70.865135 114.029456 70.340135zM101.942455 72.640135C102.693455 73.337135 103.588455 73.879135 104.571455 74.233135 103.381455 74.735135 102.227455 75.292135 101.121455 75.911135 101.620455 74.924135 101.918455 73.816135 101.942455 72.640135zM94.303455 80.125135C94.655455 80.125135 94.999455 80.093135 95.338455 80.047135 95.023455 80.330135 94.707455 80.614135 94.403455 80.909135 93.673455 81.617135 92.983455 82.362135 92.325455 83.137135 92.330455 83.018135 92.343455 82.900135 92.343455 82.780135 92.343455 81.663135 92.098455 80.606135 91.669455 79.650135 92.491455 79.952135 93.375455 80.125135 94.303455 80.125135L94.303455 80.125135zM84.696455 90.425135C85.908455 90.425135 87.049455 90.135135 88.067455 89.634135 87.430455 90.921135 86.868455 92.258135 86.395455 93.645135 85.874455 92.410135 85.107455 91.304135 84.147455 90.398135 84.329455 90.411135 84.511455 90.425135 84.696455 90.425135L84.696455 90.425135zM84.506455 103.87713C84.481455 104.45013 84.467455 105.02813 84.468455 105.61113 84.466455 107.16813 84.584455 108.69013 84.793455 110.18113 83.965455 108.53513 82.716455 107.13813 81.183455 106.13713 82.449455 105.62613 83.578455 104.84713 84.506455 103.87713L84.506455 103.87713z"/>
    <path fill="#E10613" d="M101.360455 155.32613C97.835455 155.32613 94.763455 153.51813 93.740455 151.10813 94.262455 149.88513 94.732455 148.19613 94.732455 146.06313 94.732455 145.88313 94.719455 145.70813 94.706455 145.53213 94.722455 145.26313 94.732455 144.98813 94.732455 144.70413 94.732455 144.03213 94.632455 143.38513 94.451455 142.77313 96.488455 141.90413 100.335455 140.62113 105.696455 140.32613 105.195455 141.34413 104.905455 142.48413 104.905455 143.69613 104.906455 146.97313 106.970455 149.75913 109.867456 150.84813 107.872456 154.13613 106.120455 155.32613 101.360455 155.32613zM123.963456 153.28613C119.336456 153.28613 117.724456 150.96813 117.443456 150.49513L117.162456 149.78713C119.004456 148.39113 120.199456 146.18613 120.200456 143.69613 120.200456 141.90413 119.579456 140.26013 118.548456 138.95813 119.393456 139.00813 120.244456 139.04213 121.105456 139.04213 121.474456 139.04213 121.847456 139.02713 122.219456 139.01913 122.016456 139.69413 121.902456 140.40613 121.902456 141.13913 121.902456 141.44413 121.922456 141.75613 121.962456 142.07413 122.436456 145.81413 125.617456 148.55113 129.302455 148.55213 129.611455 148.55213 129.920455 148.53113 130.226455 148.49413 131.443455 148.34113 132.555455 147.89813 133.500455 147.24813L132.805455 148.58513C132.563455 148.98713 129.842455 153.28613 123.963456 153.28613z"/>
    <path fill="#FF0" d="M147.587455,152.09613 C142.883455,152.09613 141.281455,150.39813 139.675455,148.17613 L138.705455,146.83513 C139.344455,147.01613 140.014455,147.11713 140.703455,147.11713 C141.012455,147.11713 141.319455,147.09713 141.623455,147.06013 C145.374455,146.58413 148.112455,143.40513 148.112455,139.71813 C148.112455,139.40813 148.092455,139.10013 148.055455,138.79313 C147.602455,135.21513 144.685455,132.56613 141.222455,132.33013 C141.176455,132.27113 141.128455,132.21413 141.080455,132.15613 C141.162455,131.71813 141.205455,131.26813 141.205455,130.81013 C141.205455,130.50413 141.185455,130.20013 141.148455,129.89713 C140.770455,126.89713 138.657455,124.55013 135.943455,123.72813 C140.042455,122.34513 142.997455,118.47713 142.998455,113.91113 C142.997455,110.01013 140.841455,106.61713 137.657455,104.84813 C140.841455,103.07813 142.997455,99.68513 142.998455,95.784137 C142.997455,91.988135 140.951455,88.679135 137.908455,86.872135 C142.567455,85.855135 146.055455,81.714135 146.057455,76.749135 C146.057455,73.642135 144.682455,70.861135 142.516455,68.961135 C142.695455,68.974135 142.873455,68.988135 143.056455,68.988135 C147.280455,68.986135 150.702455,65.564135 150.704455,61.340135 C150.704455,59.987135 150.349455,58.718135 149.732455,57.615135 C149.996455,57.642135 150.263455,57.657135 150.534455,57.657135 C154.759455,57.656135 158.181455,54.235135 158.182455,50.011135 C158.182455,48.820135 157.902455,47.698135 157.416455,46.693135 C158.176455,47.072135 159.030455,47.291135 159.937455,47.291135 C160.905455,47.291135 161.816455,47.047135 162.613455,46.619135 C161.967455,47.441135 161.315455,48.296135 160.664455,49.188135 C152.691455,60.120135 144.678455,76.447135 144.680455,97.71114 C144.687455,116.33113 150.780455,129.05713 153.300455,133.52913 C151.681455,134.93113 150.653455,136.99813 150.652455,139.30813 C150.653455,142.34813 152.430455,144.96513 154.999455,146.19913 L154.742455,146.58813 C153.235455,148.80913 149.919455,152.09613 147.587455,152.09613 L147.587455,152.09613 Z"/>
    <path fill="#E10613" d="M169.681455 151.41713C164.485455 151.41713 161.911455 147.26113 161.694455 146.89313L161.387455 146.30313C164.072455 145.11513 165.946455 142.43513 165.948455 139.31013 165.947455 135.15613 162.635455 131.78413 158.509455 131.67113 156.850455 128.92313 150.113455 116.57513 150.119451 97.71214 150.122455 77.847135 157.571455 62.677135 165.060455 52.392135 168.267455 47.992135 171.474455 44.510135 174.085455 41.968135 174.113455 42.290135 174.161455 42.607135 174.228455 42.916135 172.315455 45.605135 162.094455 61.450135 162.101455 91.433135 162.093455 116.53513 168.198455 130.16513 170.588455 134.53313 169.323455 135.85913 168.544455 137.65213 168.542455 139.63413 168.544455 143.72313 171.858455 147.03513 175.948455 147.03813 176.025455 147.03813 176.098455 147.02913 176.174455 147.02613 174.360455 149.18813 171.863455 151.41713 169.681455 151.41713L169.681455 151.41713zM193.701455 151.41713C191.528455 151.41713 189.017455 149.17213 187.211455 147.02413 187.286455 147.02613 187.359455 147.03513 187.436455 147.03513 191.525455 147.03413 194.838455 143.72213 194.841455 139.63313 194.840455 137.65213 194.060455 135.86013 192.795455 134.53213 195.186455 130.16713 201.290455 116.53613 201.283455 91.432135 201.290455 61.450135 191.068455 45.605135 189.154455 42.915135 189.221455 42.605135 189.268455 42.290135 189.298455 41.968135 192.290455 44.880135 196.065455 49.026135 199.724455 54.374135 206.714455 64.595135 213.260455 79.084135 213.263455 97.71014 213.263455 108.57813 211.035455 117.27313 208.823455 123.23013 207.717455 126.20713 206.615455 128.49913 205.801455 130.02813 205.416455 130.75113 205.100455 131.29813 204.874455 131.67213 200.747455 131.78513 197.436455 135.15413 197.435455 139.31113 197.437455 142.43513 199.312455 145.11713 201.998455 146.30413L201.691455 146.89213C201.474455 147.25713 198.899455 151.41713 193.701455 151.41713z"/>
    <path fill="#FF0" d="M215.795455,152.09613 C213.462455,152.09613 210.147455,148.80913 208.640455,146.58813 L208.378455,146.20113 C210.949455,144.96913 212.729455,142.35013 212.730455,139.30913 C212.729455,136.99713 211.701455,134.93113 210.081455,133.52913 C212.602455,129.05613 218.69547,116.33113 218.70247,97.71014 C218.70547,76.446135 210.691455,60.119135 202.718455,49.188135 C202.067455,48.294135 201.416455,47.441135 200.770455,46.619135 C201.567455,47.047135 202.477455,47.291135 203.446455,47.291135 C204.353455,47.291135 205.208455,47.072135 205.967455,46.693135 C205.482455,47.698135 205.202455,48.820135 205.201455,50.010135 C205.203455,54.236135 208.624455,57.656135 212.849455,57.658135 C213.120455,57.658135 213.386455,57.642135 213.650455,57.616135 C213.034455,58.718135 212.679455,59.987135 212.679455,61.340135 C212.680455,65.566135 216.10245,68.987135 220.32747,68.987135 C220.50947,68.987135 220.68647,68.972135 220.86547,68.960135 C218.69947,70.859135 217.32447,73.641135 217.32347,76.750135 C217.32547,81.713135 220.81447,85.855135 225.47247,86.873135 C222.42947,88.679135 220.38247,91.987135 220.38247,95.784137 C220.38247,99.68513 222.53847,103.07913 225.72447,104.84813 C222.53847,106.61713 220.38247,110.01013 220.38247,113.91113 C220.38247,118.47713 223.33747,122.34513 227.43647,123.72813 C224.72247,124.55013 222.61047,126.89613 222.23247,129.89213 C222.19147,130.19913 222.17447,130.50913 222.17447,130.80913 C222.17347,131.26813 222.21647,131.71913 222.29847,132.15813 C222.25147,132.21513 222.20547,132.27113 222.15947,132.32913 C218.69447,132.56513 215.775455,135.21513 215.323455,138.79113 C215.282455,139.10013 215.264455,139.41713 215.264455,139.71813 C215.267455,143.40413 218.00347,146.58513 221.74847,147.05913 C222.05747,147.09713 222.36547,147.11713 222.67547,147.11713 C223.36447,147.11713 224.03447,147.01513 224.67447,146.83513 L223.70447,148.17613 C222.10147,150.39813 220.49947,152.09613 215.795455,152.09613 L215.795455,152.09613 Z"/>
    <path fill="#E10613" d="M239.41946 153.28613C233.33346 153.28613 230.61246 148.64813 230.58746 148.60113L229.81546 147.19613C230.77446 147.87313 231.90746 148.33613 233.15146 148.49213 233.46246 148.53113 233.76946 148.55013 234.08046 148.55013 237.76546 148.55013 240.94646 145.81413 241.42246 142.06913 241.45946 141.75413 241.47946 141.44913 241.47946 141.14013 241.47946 140.40613 241.36546 139.69413 241.16246 139.01813 241.53346 139.02713 241.90646 139.04113 242.27546 139.04113 242.27746 139.04113 242.28046 139.04113 242.28246 139.04113 243.14146 139.04113 243.99146 139.00713 244.83646 138.95713 243.80446 140.26113 243.18446 141.90413 243.18446 143.69613 243.18446 146.18513 244.37946 148.39013 246.22046 149.78613L245.94146 150.49513C245.65746 150.96813 244.04546 153.28613 239.41946 153.28613L239.41946 153.28613zM262.02246 155.32613C257.26146 155.32613 255.51046 154.13713 253.51546 150.84813 256.41146 149.75913 258.47646 146.97313 258.47746 143.69613 258.47646 142.48413 258.18846 141.34313 257.68646 140.32613 261.56946 140.54013 264.65946 141.26813 266.84046 141.98713 267.67746 142.26313 268.36646 142.53413 268.93146 142.77513 268.74946 143.38613 268.65146 144.03313 268.65146 144.70413 268.65146 144.98813 268.66146 145.26413 268.67746 145.53213 268.66246 145.70813 268.65146 145.88413 268.65146 146.06313 268.65146 148.19613 269.12146 149.88513 269.64246 151.10813 268.61946 153.51813 265.54646 155.32613 262.02246 155.32613z"/>
    <path fill="#B38C0B" d="M181.691455 49.842135C179.532455 49.846135 177.786455 51.592135 177.782455 53.751135 177.786455 55.909135 179.532455 57.656135 181.691455 57.659135 183.848455 57.656135 185.596455 55.909135 185.599455 53.751135 185.596455 51.592135 183.848455 49.845135 181.691455 49.842135zM143.055455 65.250135C145.212455 65.246135 146.960455 63.499135 146.964455 61.341135 146.960455 59.182135 145.212455 57.436135 143.055455 57.433135 140.896455 57.436135 139.149455 59.182135 139.145455 61.341135 139.149455 63.499135 140.896455 65.246135 143.055455 65.250135zM181.691455 62.298135C179.532455 62.302135 177.786455 64.048135 177.782455 66.207135 177.786455 68.365135 179.532455 70.112135 181.691455 70.115135 183.848455 70.112135 185.596455 68.365135 185.599455 66.207135 185.596455 64.048135 183.848455 62.301135 181.691455 62.298135zM158.299455 135.39913C156.141455 135.40413 154.394455 137.14913 154.391455 139.30913 154.394455 141.46613 156.141455 143.21213 158.299455 143.21713 160.457455 143.21213 162.204455 141.46613 162.208455 139.30913 162.205455 137.14913 160.458455 135.40413 158.299455 135.39913zM159.936455 44.572135C161.563455 44.569135 162.879455 43.252135 162.882455 41.628135 162.880455 39.999135 161.563455 38.683135 159.936455 38.681135 158.310455 38.683135 156.994455 39.999135 156.991455 41.628135 156.994455 43.252135 158.310455 44.569135 159.936455 44.572135zM150.533455 53.920135C152.691455 53.916135 154.437455 52.168135 154.442455 50.012135 154.438455 47.853135 152.692455 46.107135 150.533455 46.102135 148.375455 46.107135 146.627455 47.853135 146.623455 50.012135 146.627455 52.168135 148.375455 53.916135 150.533455 53.920135zM169.454455 32.110135C167.827455 32.112135 166.512455 33.428135 166.509455 35.055135 166.512455 36.680135 167.827455 37.997135 169.454455 38.000135 171.081455 37.997135 172.397455 36.680135 172.400455 35.055135 172.397455 33.428135 171.081455 32.112135 169.454455 32.110135zM132.631455 89.156135C128.970455 89.164135 126.009456 92.126135 126.002456 95.785137 126.009456 99.44413 128.970455 102.40613 132.631455 102.41313 136.291455 102.40613 139.253455 99.44413 139.258455 95.785137 139.253455 92.126135 136.291455 89.164135 132.631455 89.156135zM181.690455 32.959135C185.349455 32.952135 188.312455 29.991135 188.318455 26.330135L188.319455 26.330135C188.312455 22.671135 185.349455 19.710135 181.690455 19.703135 178.030455 19.710135 175.068455 22.671135 175.063455 26.330135 175.068455 29.991135 178.030455 32.952135 181.690455 32.959135zM181.691455 37.385135C179.532455 37.388135 177.786455 39.135135 177.782455 41.293135 177.786455 43.452135 179.532455 45.198135 181.691455 45.202135 183.848455 45.198135 185.596455 43.452135 185.599455 41.293135 185.596455 39.135135 183.848455 37.388135 181.691455 37.385135zM185.599455 8.316136C185.596455 6.1591358 183.848455 4.4111355 181.691455 4.4081355 179.532455 4.4111355 177.786455 6.1591358 177.782455 8.316136 177.786455 10.475136 179.532455 12.221135 181.691455 12.225135 183.848455 12.221135 185.596455 10.475136 185.599455 8.316136zM193.927455 38.001135C195.553455 37.998135 196.870455 36.681135 196.873455 35.056135 196.870455 33.428135 195.553455 32.113135 193.927455 32.110135 192.300455 32.113135 190.985455 33.428135 190.982455 35.056135 190.985455 36.680135 192.300455 37.998135 193.927455 38.001135zM94.303455 68.568135C92.145455 68.573135 90.397455 70.318135 90.393455 72.478135 90.397455 74.635135 92.145455 76.383135 94.303455 76.385135 96.460455 76.383135 98.207455 74.635135 98.210455 72.478135 98.207455 70.318135 96.460455 68.573135 94.303455 68.568135zM76.603455 132.26813C76.609455 135.92813 79.570455 138.88913 83.231455 138.89613 86.892455 138.88913 89.853455 135.92813 89.858455 132.26813 89.853455 128.60813 86.891455 125.64613 83.231455 125.64013 79.570455 125.64613 76.609455 128.60813 76.603455 132.26813L76.603455 132.26813zM75.526455 108.19113C71.867455 108.19813 68.904455 111.15913 68.899455 114.82013 68.904455 118.48013 71.867455 121.44113 75.526455 121.44813 79.186455 121.44113 82.149455 118.48013 82.154455 114.82013 82.149455 111.15913 79.186455 108.19813 75.526455 108.19113zM77.624455 91.537135C74.432455 91.542135 71.851455 94.124135 71.845455 97.31514 71.851455 100.50513 74.432455 103.08613 77.624455 103.09213 80.814455 103.08613 83.395455 100.50513 83.401455 97.31514 83.395455 94.124135 80.814455 91.542135 77.624455 91.537135zM112.553456 139.78713C110.394456 139.79113 108.648456 141.53713 108.644456 143.69613 108.648456 145.85313 110.394456 147.60113 112.553456 147.60313 114.712456 147.60113 116.458456 145.85313 116.462456 143.69613 116.458456 141.53713 114.712456 139.79113 112.553456 139.78713zM84.696455 78.869135C82.537455 78.873135 80.790455 80.619135 80.787455 82.779135 80.789455 84.936135 82.537455 86.683135 84.696455 86.686135 86.853455 86.683135 88.601455 84.936135 88.605455 82.779135 88.601455 80.619135 86.853455 78.873135 84.696455 78.869135zM132.631455 107.28513C128.970455 107.29313 126.009456 110.25313 126.002456 113.91313 126.009456 117.57313 128.970455 120.53513 132.631455 120.54213 136.291455 120.53513 139.253455 117.57313 139.258455 113.91313 139.253455 110.25313 136.291455 107.29313 132.631455 107.28513zM133.344455 127.17813C131.489455 127.40713 130.132455 128.99413 130.134455 130.80813 130.134455 130.96213 130.144455 131.11513 130.163455 131.27413 130.238455 131.86713 130.449455 132.39813 130.767455 132.86913L131.472455 133.90613 130.779455 134.95313C130.519455 135.34713 130.319455 135.77013 130.188455 136.21713L129.858455 137.34213 128.702455 137.53613C126.928456 137.83013 125.639456 139.37813 125.640455 141.13913 125.642456 141.29313 125.650456 141.44513 125.671456 141.60213 125.900456 143.45613 127.488455 144.81313 129.301455 144.811132 129.451455 144.811132 129.607455 144.80213 129.765455 144.78313 130.927455 144.63713 131.879455 143.96913 132.446455 143.03213L133.049455 142.03113 134.214455 142.13413C134.364455 142.14813 134.510455 142.15513 134.657455 142.15513 134.844455 142.15513 135.031455 142.14413 135.220455 142.12113 135.553455 142.07913 135.877455 142.00013 136.194455 141.88813L137.298455 141.49513 138.132455 142.31813C138.807455 142.98413 139.720455 143.38113 140.703455 143.38113 140.851455 143.38113 141.009455 143.37113 141.164455 143.35213 143.015455 143.12313 144.374455 141.53413 144.373456 139.72113 144.373456 139.57013 144.363455 139.41413 144.344455 139.25813 144.115455 137.40513 142.531455 136.05513 140.714455 136.05513 140.605455 136.05513 140.506455 136.05913 140.414455 136.06813L139.237455 136.17413 138.635455 135.15713C138.399455 134.75513 138.100455 134.39313 137.751455 134.07813L136.820455 133.23613 137.247455 132.05713C137.390455 131.66013 137.467455 131.24413 137.467455 130.81313 137.467455 130.66513 137.457455 130.51113 137.439455 130.36013 137.210455 128.50613 135.620455 127.150062 133.807455 127.150062 133.651455 127.14913 133.499455 127.15913 133.344455 127.17813L133.344455 127.17813zM120.903456 63.097135C118.745456 63.100135 116.999456 64.846135 116.995456 67.007135 116.999456 69.163135 118.745456 70.911135 120.903456 70.913135 123.062456 70.911135 124.808456 69.163135 124.813456 67.007135 124.809456 64.846135 123.063456 63.100135 120.903456 63.097135zM188.318455 81.169135L188.318455 81.169135C188.312455 77.510135 185.349455 74.549135 181.690455 74.541135 178.030455 74.549135 175.068455 77.510135 175.063455 81.169135 175.068455 84.829135 178.030455 87.791135 181.690455 87.798135 185.349455 87.791135 188.312455 84.829135 188.318455 81.169135zM107.138456 63.131135C104.979455 63.135135 103.233455 64.881135 103.229455 67.040135 103.233455 69.198135 104.979455 70.944135 107.138456 70.948135 109.296456 70.944135 111.042456 69.198135 111.046456 67.040135 111.043456 64.881135 109.296456 63.134135 107.138456 63.131135zM135.690455 70.123135C132.031455 70.129135 129.068455 73.091135 129.063455 76.750135 129.068455 80.409135 132.031455 83.372135 135.690455 83.379135 139.350455 83.372135 142.312455 80.409135 142.318455 76.750135 142.311455 73.091135 139.349455 70.129135 135.690455 70.123135zM227.69146 70.122135C224.03146 70.129135 221.07046 73.090135 221.06446 76.751135 221.07046 80.410135 224.03146 83.372135 227.69146 83.379135 231.35046 83.372135 234.31346 80.410135 234.31946 76.751135 234.31346 73.090135 231.35046 70.129135 227.69146 70.122135zM272.98846 72.478135C272.98546 70.318135 271.23746 68.572135 269.08046 68.569135 266.92246 68.572135 265.17546 70.318135 265.17146 72.478135 265.17546 74.635135 266.92246 76.382135 269.08046 76.386135 271.23746 76.383135 272.98546 74.635135 272.98846 72.478135zM233.21646 131.28113C233.23746 131.11713 233.24646 130.95913 233.24646 130.80813 233.24646 128.99413 231.89146 127.40713 230.03346 127.17713 229.87846 127.15713 229.72646 127.14913 229.57246 127.14813 227.75946 127.14813 226.17146 128.50413 225.94046 130.37413 225.92046 130.51213 225.91346 130.65913 225.91346 130.81213 225.91346 131.24213 225.99046 131.65913 226.13346 132.05613L226.56046 133.23613 225.63046 134.07713C225.28046 134.39313 224.98346 134.75613 224.74546 135.15713L224.14246 136.17313 222.96846 136.06813C222.87046 136.05913 222.77146 136.05513 222.66446 136.05513 220.84846 136.05513 219.26446 137.40613 219.03246 139.27413 219.01346 139.41513 219.00346 139.56313 219.00546 139.72113 219.00346 141.53413 220.36146 143.12413 222.21146 143.35213 222.36746 143.37213 222.52446 143.38113 222.67646 143.38113 223.65846 143.38113 224.57246 142.98313 225.24746 142.31713L226.08146 141.49513 227.18546 141.88813C227.50246 142.00013 227.82746 142.07913 228.15946 142.12113 228.34646 142.14313 228.53446 142.15513 228.72246 142.15513 228.86846 142.15513 229.01646 142.14813 229.16546 142.13513L230.32946 142.03013 230.93346 143.03313C231.50046 143.97013 232.45346 144.63813 233.61346 144.78413 233.76946 144.80413 233.92646 144.81313 234.07846 144.81313 235.89146 144.81313 237.48146 143.45713 237.70846 141.61613 237.72846 141.45013 237.73946 141.29013 237.73746 141.14113 237.73946 139.37913 236.45246 137.83113 234.67746 137.53713L233.52046 137.34413 233.19246 136.21713C233.06246 135.77213 232.86146 135.34713 232.60146 134.95413L231.90746 133.90613 232.61246 132.87013C232.93246 132.39813 233.14346 131.86713 233.21646 131.28113L233.21646 131.28113zM242.47746 63.097135C240.32046 63.100135 238.57246 64.846135 238.56946 67.006135 238.57246 69.163135 240.32046 70.910135 242.47746 70.914135 244.63546 70.910135 246.38246 69.163135 246.38646 67.006135 246.38246 64.846135 244.63546 63.100135 242.47746 63.097135zM230.75146 107.28513C227.09146 107.29313 224.12946 110.25313 224.12346 113.91313 224.12946 117.57313 227.09146 120.53513 230.75146 120.54313 234.41146 120.53513 237.37346 117.57313 237.37946 113.91313 237.37346 110.25313 234.41146 107.29313 230.75146 107.28513zM224.12346 95.785137C224.12946 99.44513 227.09146 102.40713 230.75146 102.41313 234.41146 102.40713 237.37346 99.44513 237.37946 95.785137 237.37346 92.125135 234.41146 89.164135 230.75146 89.157135 227.09046 89.164135 224.12946 92.125135 224.12346 95.785137zM256.24446 63.130135C254.08546 63.135135 252.33846 64.880135 252.33546 67.040135 252.33846 69.197135 254.08546 70.944135 256.24446 70.948135 258.40146 70.944135 260.14946 69.197135 260.15246 67.040135 260.14946 64.880135 258.40146 63.134135 256.24446 63.130135zM188.318455 98.16613C188.312455 94.505135 185.349455 91.544135 181.690455 91.536135 178.030455 91.544135 175.068455 94.505135 175.063455 98.16613 175.068455 101.82413 178.030455 104.78613 181.690455 104.79313 185.349455 104.78613 188.312455 101.82413 188.318455 98.16613zM280.15046 125.63913C276.49146 125.64713 273.52846 128.60813 273.52346 132.26813 273.52846 135.92813 276.49146 138.89013 280.15046 138.89613 283.80946 138.89013 286.77246 135.92813 286.77846 132.26813 286.77246 128.60813 283.80946 125.64713 280.15046 125.63913zM291.53746 97.31514C291.53246 94.124135 288.94946 91.543135 285.75946 91.537135 282.57046 91.543135 279.98746 94.124135 279.98146 97.31514 279.98746 100.50513 282.57046 103.08613 285.75946 103.09213 288.94946 103.08713 291.53246 100.50613 291.53746 97.31514L291.53746 97.31514zM287.85546 121.44813C291.51546 121.44113 294.47746 118.47913 294.48346 114.82013 294.47746 111.16013 291.51546 108.19813 287.85546 108.19213 284.19546 108.19813 281.23346 111.16013 281.22846 114.82013 281.23346 118.47913 284.19546 121.44113 287.85546 121.44813zM282.59346 82.779135C282.59046 80.619135 280.84446 78.873135 278.68646 78.869135 276.52846 78.873135 274.78046 80.619135 274.77846 82.779135 274.78046 84.935135 276.52846 86.682135 278.68646 86.686135 280.84446 86.682135 282.59046 84.935135 282.59346 82.779135zM181.690455 121.78813C185.349455 121.78113 188.312455 118.81913 188.318455 115.15913 188.312455 111.50013 185.349455 108.53913 181.690455 108.53213 178.030455 108.53913 175.068455 111.50013 175.063455 115.15913 175.068455 118.81913 178.030455 121.78113 181.690455 121.78813zM187.587455 135.97513L186.413455 135.92613 185.947455 134.85113C185.761455 134.42313 185.510455 134.02713 185.204455 133.67113L184.384455 132.71913 184.956455 131.60113C185.213455 131.09513 185.356455 130.54113 185.356455 129.94313 185.352455 127.91813 183.712455 126.28113 181.691455 126.27613 179.667455 126.28113 178.028455 127.91813 178.024455 129.94313 178.025455 130.54213 178.168455 131.09513 178.426455 131.60113L178.996455 132.71913 178.177455 133.67113C177.870455 134.02613 177.619455 134.42313 177.434455 134.85113L176.967455 135.92613 175.794455 135.97513C173.842455 136.05313 172.279455 137.65813 172.280455 139.63213 172.284455 141.65313 173.924455 143.29213 175.947455 143.29613 177.119455 143.29513 178.146455 142.75113 178.825455 141.89413L179.550455 140.97313 180.694455 141.22213C181.025455 141.29513 181.356455 141.33313 181.692455 141.33313 182.026455 141.33313 182.358455 141.29513 182.687455 141.22213L183.831455 140.97113 184.558455 141.89213C185.238455 142.75113 186.265455 143.29513 187.437455 143.29613 189.458455 143.29213 191.099455 141.65313 191.103455 139.63213 191.103455 137.65813 189.540455 136.05313 187.587455 135.97513L187.587455 135.97513zM205.082455 135.39913C202.924455 135.40413 201.177455 137.15013 201.173455 139.31013 201.177455 141.46613 202.924455 143.21413 205.082455 143.21713 207.240455 143.21413 208.987455 141.46613 208.990455 139.31013 208.987455 137.15013 207.240455 135.40413 205.082455 135.39913zM250.82946 139.78613C248.67246 139.79113 246.92446 141.53713 246.92146 143.69613 246.92446 145.85313 248.67246 147.60113 250.82946 147.60413 252.98846 147.60113 254.73446 145.85313 254.73646 143.69613 254.73446 141.53713 252.98846 139.79113 250.82946 139.78613zM216.75846 50.010135C216.75346 47.852135 215.006455 46.105135 212.849455 46.102135 210.691455 46.105135 208.944455 47.852135 208.941455 50.010135 208.944455 52.168135 210.691455 53.914135 212.849455 53.919135 215.006455 53.915135 216.75446 52.169135 216.75846 50.010135zM203.445455 38.681135C201.818455 38.682135 200.502455 39.998135 200.499455 41.626135 200.502455 43.252135 201.818455 44.568135 203.445455 44.571135 205.071455 44.568135 206.387455 43.252135 206.390455 41.626135 206.387455 39.999135 205.071455 38.682135 203.445455 38.681135zM224.23647 61.341135C224.23247 59.183135 222.48447 57.436135 220.32847 57.432135 218.16947 57.436135 216.42246 59.183135 216.41846 61.341135 216.42246 63.499135 218.16947 65.246135 220.32847 65.249135 222.48447 65.246135 224.23247 63.499135 224.23647 61.341135z"/>
    <path fill="#B38C0B" d="M275.10947,143.51313 C277.31647,143.51313 279.10247,145.97813 279.10247,145.97813 C279.10247,145.97813 280.76347,144.29113 283.33147,144.29113 C284.03947,144.29113 284.81547,144.42013 285.64647,144.74813 C272.38947,156.11413 279.90747,165.69213 260.15347,165.69213 C252.33547,165.69213 201.179455,160.06913 181.691455,160.06913 C162.203455,160.06913 111.047456,165.69213 103.229455,165.69213 C83.475455,165.69213 90.993455,156.11413 77.736455,144.74813 C78.567455,144.42013 79.343455,144.29113 80.052455,144.29113 C82.618455,144.29213 84.279455,145.97813 84.279455,145.97813 C84.279455,145.97813 86.066455,143.51313 88.273455,143.51313 C89.588455,143.51313 90.652455,144.65413 90.652455,146.06313 C90.652455,149.12213 89.292455,150.73713 89.292455,150.73713 C89.292455,156.27913 94.689455,160.76413 101.359455,160.76413 C108.216456,160.76413 111.046456,158.35913 113.765456,153.62513 C113.765456,153.62513 116.144456,158.72413 123.962456,158.72413 C132.629455,158.72413 136.369455,151.92613 136.369455,151.92613 C138.610455,155.02613 141.386455,157.53413 147.586455,157.53413 C156.084455,157.53413 158.123455,150.22613 158.123455,150.22613 C158.123455,150.22613 159.482455,156.85413 169.680455,156.85413 C176.319455,156.85413 180.346455,153.28513 181.690455,147.67613 C183.035455,153.28413 187.062455,156.85413 193.700455,156.85413 C203.897455,156.85413 205.258455,150.22613 205.258455,150.22613 C205.258455,150.22613 207.297455,157.53413 215.795455,157.53413 C221.99447,157.53413 224.77147,155.02513 227.01247,151.92613 C227.01247,151.92613 230.75047,158.72413 239.41847,158.72413 C247.23647,158.72413 249.61547,153.62513 249.61547,153.62513 C252.33447,158.35813 255.16447,160.76413 262.02147,160.76413 C268.69147,160.76413 274.08847,156.27913 274.08847,150.73713 C274.08847,150.73713 272.72847,149.12213 272.72847,146.06313 C272.72947,144.65413 273.79447,143.51313 275.10947,143.51313"/>
    <path fill="#FF0" d="M253.21247,177.56313 C253.60947,174.28813 258.53347,172.19113 264.21047,172.87913 C264.66847,172.93413 265.11247,173.01113 265.55047,173.09913 L265.89747,171.67513 C265.89747,171.67513 218.85547,164.90013 181.692455,164.90013 C144.529455,164.90013 97.487455,171.67513 97.487455,171.67513 L97.833455,173.09913 C98.271455,173.01113 98.715455,172.93413 99.173455,172.87913 C104.850455,172.19113 109.774456,174.28713 110.171456,177.56313 C110.567456,180.82713 106.316455,184.02813 100.666455,184.73013 L101.153455,186.73113 C106.006455,183.47313 141.583455,178.94913 181.692455,178.94913 C221.80047,178.94913 257.37947,183.47313 262.23047,186.73113 L262.71747,184.73013 C257.06847,184.02813 252.81647,180.82713 253.21247,177.56313 Z"/>
    <ellipse cx="181.691" cy="171.924" fill="#000" rx="12.322" ry="5.846"/>
    <ellipse cx="181.691" cy="172.016" fill="#E10613" rx="8.715" ry="4.135"/>
    <ellipse cx="99.887" cy="178.801" fill="#E10613" rx="6.939" ry="4.003" transform="rotate(-6.915 99.887 178.8)"/>
    <path fill="#000" d="M154.079455,169.26713 L126.781456,171.01913 C124.066456,171.19313 121.995456,173.11313 122.156456,175.30513 C122.317456,177.49713 124.649456,179.13413 127.364455,178.96013 L154.662455,177.20813 C157.377455,177.03313 159.449455,175.11413 159.287455,172.92213 C159.127455,170.73013 156.795455,169.09313 154.079455,169.26713 Z"/>
    <path fill="#E10613" d="M150.672455,171.46813 L130.265455,172.71513 C128.236455,172.83913 126.703456,173.84513 126.843456,174.96213 C126.983456,176.07813 128.742455,176.88313 130.772455,176.75913 L151.178455,175.51213 C153.207455,175.38813 154.740455,174.38213 154.600455,173.26513 C154.461455,172.14913 152.701455,171.34413 150.672455,171.46813 Z"/>
    <ellipse cx="263.506" cy="178.812" fill="#E10613" rx="6.94" ry="4.003" transform="rotate(-173.085 263.506 178.812)"/>
    <path fill="#000" d="M209.303455,169.26713 L236.60147,171.01913 C239.31647,171.19313 241.38747,173.11313 241.22647,175.30513 C241.06647,177.49713 238.73347,179.13413 236.01747,178.96013 L208.719455,177.20813 C206.004455,177.03313 203.933455,175.11413 204.094455,172.92213 C204.254455,170.73013 206.587455,169.09313 209.303455,169.26713 L209.303455,169.26713 Z"/>
    <path fill="#E10613" d="M212.711455,171.46813 L233.11747,172.71513 C235.14647,172.83913 236.67947,173.84513 236.54047,174.96213 C236.39947,176.07813 234.64147,176.88313 232.61147,176.75913 L212.204455,175.51213 C210.175455,175.38813 208.642455,174.38213 208.782455,173.26513 C208.921455,172.14913 210.681455,171.34413 212.711455,171.46813 Z"/>
  </g>
</svg>
