<svg xmlns="http://www.w3.org/2000/svg" viewBox="0 0 595.5 747.4"><title>1Recurso 2</title><g id="Capa_2" data-name="Capa 2"><g id="Capa_1-2" data-name="Capa 1"><path d="M86.3,123.7h78.2c1.6,0,3.4,1.1,4.6,0s.5-3,.7-4.6c3.1-28.4,14.6-53.1,34-74A130.8,130.8,0,0,1,274.9,4.7a125.4,125.4,0,0,1,71.2,5.7,126.8,126.8,0,0,1,59.3,45.4,128.7,128.7,0,0,1,23.3,59.3,43.2,43.2,0,0,1,.5,6.2c0,2,.6,2.6,2.6,2.5h32.4l124.1.2c2.4,0,3.1.6,3.3,3.1a575.5,575.5,0,0,1,1.5,69.5,594.7,594.7,0,0,1-8.4,81A695.1,695.1,0,0,1,550,404.9a751.1,751.1,0,0,1-56.6,117.9,748.6,748.6,0,0,1-52,76.7,694.3,694.3,0,0,1-84.5,91.1,631,631,0,0,1-70,54.1,3,3,0,0,1-3.8,0,561.1,561.1,0,0,1-83.7-68.5,621.7,621.7,0,0,1-78.7-96.4A701.2,701.2,0,0,1,53.4,450.3,734.7,734.7,0,0,1,19.8,341.6c-4.6-20.3-8.2-40.8-11.1-61.4A696.7,696.7,0,0,1,2.2,167.5c.3-13,.9-26.1,2.2-39,.4-4.8.4-4.8,5.3-4.8Zm2.3,1.9H8.9c-1.7,0-2.9.1-3,2.3-1.3,16.3-2.1,32.6-2.3,48.9-.2,18.7.4,37.4,1.7,56.1s3.6,39,6.5,58.3A731.2,731.2,0,0,0,26.6,363a743.9,743.9,0,0,0,28,86,703.2,703.2,0,0,0,35.1,75.8,676.5,676.5,0,0,0,40.6,66.1,604.6,604.6,0,0,0,39.9,51.5,568.2,568.2,0,0,0,55,55.8,574.4,574.4,0,0,0,57.5,44.3,3.5,3.5,0,0,0,4.6-.1c8.5-5.7,16.9-11.5,25.1-17.6a619.7,619.7,0,0,0,66.3-56.9c13.9-13.7,27.1-28,39.8-42.9a736,736,0,0,0,47.6-62.2A737.9,737.9,0,0,0,509,491.9a752.2,752.2,0,0,0,41.5-93.1A690.4,690.4,0,0,0,577,308.6q6.3-28.4,10-57.1c2.6-20.2,4.1-40.4,4.8-60.7a536.7,536.7,0,0,0-1.7-62.1c-.2-2.4-.8-3.2-3.3-3.2H430.3c-1.4,0-2.5,0-2.6-2a118.1,118.1,0,0,0-6.8-34.4A127.2,127.2,0,0,0,272.7,6.8a128.5,128.5,0,0,0-41.5,17.4,131,131,0,0,0-44.5,47A121.4,121.4,0,0,0,171,123.8c-.1,2-1.2,1.8-2.5,1.8Z" style="fill:#1d1d1b;stroke:#000;stroke-miterlimit:10;stroke-width:4px"/><path d="M88.6,125.6h79.9c1.3,0,2.4.2,2.5-1.8a121.4,121.4,0,0,1,15.7-52.6,131,131,0,0,1,44.5-47A128.5,128.5,0,0,1,272.7,6.8,127.3,127.3,0,0,1,420.9,89.1a118.1,118.1,0,0,1,6.8,34.4c.1,2,1.2,2,2.6,2H586.8c2.5,0,3.1.8,3.3,3.2a536.7,536.7,0,0,1,1.7,62.1c-.7,20.3-2.2,40.5-4.8,60.7s-5.8,38.2-10,57.1a690.4,690.4,0,0,1-26.5,90.2A752.2,752.2,0,0,1,509,491.9a737.9,737.9,0,0,1-42.9,70.9A736,736,0,0,1,418.5,625c-12.7,14.9-25.9,29.2-39.8,42.9a619.7,619.7,0,0,1-66.3,56.9c-8.2,6.1-16.6,11.9-25.1,17.6a3.5,3.5,0,0,1-4.6.1,574.4,574.4,0,0,1-57.5-44.3,568.2,568.2,0,0,1-55-55.8,604.6,604.6,0,0,1-39.9-51.5,676.5,676.5,0,0,1-40.6-66.1A703.2,703.2,0,0,1,54.6,449a743.9,743.9,0,0,1-28-86,731.2,731.2,0,0,1-14.8-71.8c-2.9-19.3-5.1-38.8-6.5-58.3s-1.9-37.4-1.7-56.1c.2-16.3,1-32.6,2.3-48.9.1-2.2,1.3-2.3,3-2.3ZM387,124.2c.7-.7.4-1.5.4-2.3a86.9,86.9,0,0,0-3.7-23.8c-6.7-21.6-19.5-38.7-38.9-50.5-22.5-13.6-46.6-16.9-71.9-9.5C249.5,45,232,59.6,220.2,80.9a84.5,84.5,0,0,0-10.7,43.2c.6.8,1.5.5,2.2.5H384.5C385.3,124.6,386.3,124.9,387,124.2Zm113.3,299h-2.5l-67.9-.6-85.4-.7-115.9-.8-80.6-.7L87.8,420c-3,0-3.1.1-1.9,2.8,4.2,9.4,8.2,18.9,12.7,28.2a752.1,752.1,0,0,0,38.6,70.5,808.1,808.1,0,0,0,60.4,84.3c8.4,10.2,17,20.2,25.8,29.9s18.2,19.3,27.7,28.6q19.2,19.1,39.9,36.6c1.1.9,1.7.9,2.8,0,19.9-16.9,38.8-34.7,57-53.5a791.1,791.1,0,0,0,56.2-65,748.4,748.4,0,0,0,47.9-69.7c11.8-19.6,22.7-39.6,32.5-60.3C491.9,442.9,496.3,433.3,500.3,423.2ZM294.6,386.8H432.4c26,0,52.1-.1,78.2,0a3.1,3.1,0,0,0,3.5-2.5c1.7-5.2,3.5-10.3,5.2-15.4,6.6-19.9,12.4-40,17.1-60.4.6-2.9.6-2.9-2.5-2.9l-148.5.5a4.7,4.7,0,0,1-3.7-1.4L370.4,293l-69-70.4c-1-1-1.5-1.4-2.8-.2l-46.5,42.3-44.7,40.6a4.4,4.4,0,0,1-3.4,1.3l-78.3.3H56.6c-4.4.1-4.3,0-3.4,4.3,5.7,24.6,13.5,48.6,21.8,72.4.8,2.4,1.8,3.1,4.4,3.1Q187,386.7,294.6,386.8ZM435.9,148.7H323.6c-2,0-2.7.4-2.7,2.6.1,12.2.1,24.5.1,36.7a3.9,3.9,0,0,0,1.3,3.2l22.8,22.7c9.1,9.1,18.1,18.3,27.2,27.3s19.6,19.4,29.3,29.2a6.3,6.3,0,0,0,5,2h131c5.8,0,5.8,0,6.7-5.7,2.3-15.1,4.2-30.4,5.4-45.6a568.9,568.9,0,0,0,1.4-69.1c-.1-3.2-.1-3.2-3.4-3.2Zm-277.4,0H111.9c-22,0-44,.1-66,0-1.9,0-2.6.5-2.6,2.5,0,5.5-.3,10.9-.4,16.3-.3,16.8.3,33.6,1.4,50.4.4,5.4.9,10.9,1.5,16.4s1.5,12.6,2.3,18.9,1.6,11.2,2.5,16.8c.2,1.6.9,2.4,2.9,2.4,6.8-.2,13.6-.1,20.4-.1H188.4a4.2,4.2,0,0,0,3.5-1.1q39.8-40.1,79.7-79.9a4.9,4.9,0,0,0,1.7-3.9c0-12-.1-24,0-36,.1-2.2-.6-2.8-2.7-2.8C233.2,148.8,195.8,148.7,158.5,148.7Z" style="fill:#f1ca2f"/><path d="M500.3,423.2c-4,10.1-8.4,19.7-12.9,29.2-9.8,20.7-20.7,40.7-32.5,60.3A748.4,748.4,0,0,1,407,582.4a791.1,791.1,0,0,1-56.2,65c-18.2,18.8-37.1,36.6-57,53.5-1.1.9-1.7.9-2.8,0q-20.7-17.5-39.9-36.6c-9.5-9.3-18.8-18.8-27.7-28.6S206,616,197.6,605.8a808.1,808.1,0,0,1-60.4-84.3A752.1,752.1,0,0,1,98.6,451c-4.5-9.3-8.5-18.8-12.7-28.2-1.2-2.7-1.1-2.8,1.9-2.8l60.2.4,80.6.7,115.9.8,85.4.7,67.9.6ZM306,609a27.2,27.2,0,0,0,4.7-.8,74.5,74.5,0,0,0,20.3-9.3,68.1,68.1,0,0,0,25.3-30.1,73.9,73.9,0,0,0,5.2-19.9c1.2-9.1.2-17.8-1.9-26.5a71.2,71.2,0,0,0-6.3-15.4c-1.2-2.2-2.5-3.8-5.5-3.4s-5.8.4-8.8,1a70.2,70.2,0,0,0-18.7,6.4c-1.3.6-1.8,1.2-.8,2.6a66.2,66.2,0,0,1,7.4,14.2,73.1,73.1,0,0,1,2.6,42.4,69.9,69.9,0,0,1-18.2,33.1l-5.5,5.6-.2.3ZM144.1,422.3l-1.9-.2-53-.5c-2.6,0-1.5,1.2-1.1,2.3a729.4,729.4,0,0,0,51.7,98.7c1.4,2.2,2.4,4.6,4.3,6.4s3.8,5.9,5.8,8.8c3,4.7,5.8,9.6,9.2,14s6.4,8.7,9.4,13,8.2,10.7,11.9,16.2,5.8,7.7,8.7,11.5a74.9,74.9,0,0,1,5.1,6.1c.5.7,1.3.9,1.8-.2.3,1.4-.1,2.8,1,4.3a816.3,816.3,0,0,0,55.4,60.8l10.3,9.8a10.4,10.4,0,0,1,.1-1.1V607.4c0-1.5-.7-2-1.8-2.6-20.1-10.5-32.9-26.7-37.9-48.8a68.2,68.2,0,0,1,3.8-42.3c6.8-16.3,18.3-28.3,33.9-36.3,1.5-.8,2.1-1.6,2-3.3,0-16.2,0-32.3.1-48.5,0-2.2-.6-2.8-2.8-2.8-20.3,0-40.6-.2-60.9-.4a6.5,6.5,0,0,0-3.1.3,2.2,2.2,0,0,0-1.6-.4Zm289.5,3.5a2.2,2.2,0,0,0-2.6-1.6H384.1a2.5,2.5,0,0,0-2.3.8c-.2-1.6-1.4-1.1-2.2-1.1l-62.8-.5c-.6,0-1.3-.2-1.9.3a15.7,15.7,0,0,0-2.3-.4H265.1c-1.5,0-2.1.4-2.1,2v48.7c0,2.2.7,2.1,2.4,1.4a57.7,57.7,0,0,1,7.9-2.9,103.4,103.4,0,0,1,14.6-2.4c6-.5,11.8.3,17.7,1.1,3.2.4,6.1,1.8,9.3,2.1s5.9,2.4,8.7,3.8c30.4,15.1,46.2,48,38.1,80.9-6,24.4-21.5,41-44.9,50.2-.7.3-1.8.1-1.9,1.4a12.2,12.2,0,0,0-3.8.3,52,52,0,0,1-11.6,2.4,70.4,70.4,0,0,1-33.9-5.2c-1.9-.9-2.6-.5-2.6,1.6v62.4a4.9,4.9,0,0,0,1.7,4.1l23.4,21.2c4.1,3.6,4.2,3.5,8.4.3l.6-.7c2.4-2.2,4.6-4.5,7.1-6.5s7.2-6.4,10.8-9.7c.5.3.8-.2,1.2-.5a794.5,794.5,0,0,0,64.3-66.7,4.8,4.8,0,0,0,1.3-3.2,1.2,1.2,0,0,0,1.6-.4c3.2-4,6.6-7.9,9.8-11.9,5.4-7,11.2-13.7,16.3-20.9,3.4-4.7,7.1-9.1,10.4-13.9,2.3-3.2,4.2-6.7,6.7-9.8a50.6,50.6,0,0,0,7-10.7c.8.4,1-.2,1.3-.7,2.6-4.9,6.2-9.3,9.1-13.9a697.4,697.4,0,0,0,47-86.1c2.4-5.3,4.7-10.7,7.1-16.3H477.9l-42-.4C434.8,424.2,433.4,423.9,433.6,425.8ZM270.4,606.7l1.2.7a74.1,74.1,0,0,0,22.9,3.1c3.8-.1,6.9-.8,10-3.4a69.5,69.5,0,0,0,16.9-20.5,67,67,0,0,0,8.1-39.5A69.5,69.5,0,0,0,318,514.5c-.9-1.4-1.5-1.3-2.8-.6a68.2,68.2,0,0,0-18.8,17.5c-1.3,1.6-2.3,3.5-3.8,4.9s-.9.9-.7,1.8a75,75,0,0,1-.9,34.6,70.4,70.4,0,0,1-9.8,21.4A85.7,85.7,0,0,1,270.4,606.7Zm53.3-126.2a67.7,67.7,0,0,0-33.2,10.3,69.2,69.2,0,0,0-28.8,35.6c-.5,1.2-.2,1.8.8,2.3a69.7,69.7,0,0,0,16.1,4.9c4,.8,8.2.1,12,1.9.6.2,1-.4,1.3-.9a76.3,76.3,0,0,1,9.1-11.3,67.3,67.3,0,0,1,25.9-17.2,52.5,52.5,0,0,1,11.9-3.4l8-1c2.2-.4,2.4-1.1,1.1-2.8A69.4,69.4,0,0,0,334,485.2C330.6,482.8,327.4,479.3,323.7,480.5Zm-40.1,87.7a33.8,33.8,0,0,1,4.5,0c1.9.2,2.6-.7,2.8-2.3a81.3,81.3,0,0,0-.7-27.4c-.4-1.9-1.1-2.5-3.1-2.5-7.7,0-15-1.8-22.2-4.4-12.3-4.5-22.3-12.2-30.5-22.3-2-2.4-2.5-2.2-4,.7a67.2,67.2,0,0,0-5.4,15c-1,4-2,7.8,1,11.8,6.2,8.4,13.2,15.8,22.2,21.3A69.5,69.5,0,0,0,283.6,568.2Zm-60-31.5a58.1,58.1,0,0,0,.3,15.6,70.4,70.4,0,0,0,15.8,33.8,69.5,69.5,0,0,0,22.9,17.6c5.5,2.7,5.4,2.7,9.7-1.6a66.8,66.8,0,0,0,17.1-30c.6-2-.1-2.2-1.8-2.1a61.9,61.9,0,0,1-15.5-1,71.7,71.7,0,0,1-37.7-19.4C230.3,545.8,227.1,541.2,223.6,536.7Zm98.8-58c-.3-1-1.1-1-1.7-1.3a67.9,67.9,0,0,0-13.2-4.3,70.7,70.7,0,0,0-47.5,6.6,70.2,70.2,0,0,0-17.8,13.9c-2.8,3.1-5.3,6.3-7.9,9.5-.6.8-1.1,1.6-.3,2.8a68.4,68.4,0,0,0,23.6,20.5c1.5.8,2.1.4,2.7-1.1a68.1,68.1,0,0,1,17.9-27.2A70,70,0,0,1,306,481.8,66,66,0,0,1,322.4,478.7Z" style="fill:#1d1d1b;stroke:#000;stroke-miterlimit:10;stroke-width:4px"/><path d="M294.6,386.8q-107.5,0-215.2,0c-2.6,0-3.6-.7-4.4-3.1-8.3-23.8-16.1-47.8-21.8-72.4-.9-4.3-1-4.2,3.4-4.3h69.1l78.3-.3a4.4,4.4,0,0,0,3.4-1.3l44.7-40.6,46.5-42.3c1.3-1.2,1.8-.8,2.8.2l69,70.4,11.3,11.7a4.7,4.7,0,0,0,3.7,1.4l148.5-.5c3.1,0,3.1,0,2.5,2.9-4.7,20.4-10.5,40.5-17.1,60.4-1.7,5.1-3.5,10.2-5.2,15.4a3.1,3.1,0,0,1-3.5,2.5c-26.1-.1-52.2,0-78.2,0ZM68.4,308.9h-11c-2.6,0-3,.5-2.4,3.1s1.1,5.4,1.9,8.1c2.1,7.7,4.4,15.3,6.6,22.9,1.7,5.6,3.2,11.3,5,16.8,2.7,8,5.6,15.8,8.3,23.7a2.2,2.2,0,0,0,2.4,1.8c2-.1,4-.4,6-.4H500.6c3.1,0,6.2.5,9.3.4a2.5,2.5,0,0,0,2.9-2.4,70.1,70.1,0,0,1,3.3-10.1c1.7-4.4,3-8.9,4.6-13.4s3-11.3,5-16.8,3.5-12.6,5.3-18.9c1.3-4.5,2.1-9.2,3.3-13.8.7-2.9.9-2.9-2.2-2.9-16.6.1-33.2.1-49.8.4-19.2.3-38.3,0-57.5.4-13.5.3-27,.1-40.5.1-1,0-2.1.1-2.6-.8s-2.1-2.2-3.1-3.3l-23.6-24-21.2-21.6-25.9-26.3c-1-1-1.9-2.1-2.8-3.2-4.5-5.7-4.7-5.7-10-1l-2.3,2.1c-4.6,4.9-9.9,9.1-14.9,13.7s-10,9.2-15.2,13.7c-7,6-13.4,12.7-20.4,18.8-4.4,3.8-8.9,7.5-13,11.7s-6.7,6.2-10,9.4-7.3,6.1-10.7,9.4a4.9,4.9,0,0,1-3.8,1.6c-12.2-.1-24.4.1-36.6.2C135,308.7,101.7,308,68.4,308.9Z" style="fill:#1d1d1b;stroke:#000;stroke-miterlimit:10;stroke-width:4px"/><path d="M435.9,148.7H547.7c3.3,0,3.3,0,3.4,3.2a568.9,568.9,0,0,1-1.4,69.1c-1.2,15.2-3.1,30.5-5.4,45.6-.9,5.7-.9,5.7-6.7,5.7h-131a6.3,6.3,0,0,1-5-2c-9.7-9.8-19.5-19.4-29.3-29.2s-18.1-18.2-27.2-27.3l-22.8-22.7A3.9,3.9,0,0,1,321,188c0-12.2,0-24.5-.1-36.7,0-2.2.7-2.6,2.7-2.6H435.9Zm.2,1.7H325.5c-2.2,0-2.9.4-2.9,2.8.1,11.3.1,22.5,0,33.8a4,4,0,0,0,1.1,3.2q39.6,39.5,79,79.1a4.9,4.9,0,0,0,3.6,1.5H540c1.7,0,2.2-.6,2.4-2.1,1-7.2,2.1-14.5,3-21.8,1.7-13,2.8-26.1,3.6-39.2,1.1-18.1,1-36.2.6-54.4,0-2.3-.8-2.8-3.1-2.8Z" style="fill:#1d1d1b;stroke:#000;stroke-miterlimit:10;stroke-width:4px"/><path d="M158.5,148.7c37.3,0,74.7.1,112.1,0,2.1,0,2.8.6,2.7,2.8-.1,12,0,24,0,36a4.9,4.9,0,0,1-1.7,3.9q-39.9,39.9-79.7,79.9a4.2,4.2,0,0,1-3.5,1.1H73.9c-6.8,0-13.6-.1-20.4.1-2,0-2.7-.8-2.9-2.4-.9-5.6-1.7-11.2-2.5-16.8s-1.6-12.6-2.3-18.9-1.1-11-1.5-16.4c-1.1-16.8-1.7-33.6-1.4-50.4.1-5.4.4-10.8.4-16.3,0-2,.7-2.5,2.6-2.5,22,.1,44,0,66,0ZM44.6,190.1a1.1,1.1,0,0,0,.1,1.5,21.7,21.7,0,0,0,.1,2.6c.1,5.9,0,11.8.6,17.6.4,3.7.4,7.3.8,11s.4,5.1.7,7.5.6,7.4,1.3,11,.7,9,1.5,13.4,1.2,7.9,1.9,11.8.5,4.2,4.6,4.2H187.9a4.1,4.1,0,0,0,3.4-1.3l79.1-79a4.5,4.5,0,0,0,1.4-3.3c0-11.6-.1-23.1,0-34.6,0-1.8-.4-2.2-2.2-2.2H48.3c-3.5,0-3.4-.8-3.5,3.5C44.4,166,44.2,178.1,44.6,190.1Z" style="fill:#1d1d1b;stroke:#000;stroke-miterlimit:10;stroke-width:4px"/><path d="M209.5,124.1a84.5,84.5,0,0,1,10.7-43.2C232,59.6,249.5,45,272.9,38.1c25.3-7.4,49.4-4.1,71.9,9.5,19.4,11.8,32.2,28.9,38.9,50.5a86.9,86.9,0,0,1,3.7,23.8c0,.8.3,1.6-.4,2.3H209.5Zm88.8-1.4h84.9c1.2,0,2.7.6,2.6-1.8-.4-13.2-3.3-25.8-9.7-37.2C358,51,330.2,34.7,292.8,36.3c-24.8,1.1-45.3,12-61.3,30.9C218.6,82.4,212,100.2,211,120c-.1,2.2.3,2.8,2.6,2.8Z" style="fill:#1d1d1b;stroke:#000;stroke-miterlimit:10;stroke-width:4px"/><path d="M209.5,124.1H387c-.7.7-1.7.4-2.5.4H211.7C211,124.6,210.1,124.9,209.5,124.1Z" style="fill:#b9723c"/><path d="M196.1,422.7a6.5,6.5,0,0,1,3.1-.3c20.3.2,40.6.4,60.9.4,2.2,0,2.8.6,2.8,2.8-.1,16.2-.1,32.3-.1,48.5.1,1.7-.5,2.5-2,3.3-15.6,8-27.1,20-33.9,36.3a68.2,68.2,0,0,0-3.8,42.3c5,22.1,17.8,38.3,37.9,48.8,1.1.6,1.8,1.1,1.8,2.6v64.8a10.4,10.4,0,0,0-.1,1.1l-10.3-9.8A816.3,816.3,0,0,1,197,602.7c-1.1-1.5-.7-2.9-1-4.3s.1-1.5.2-2.2a2.8,2.8,0,0,1-.1-.9V422.7Z" style="fill:#fefefe"/><path d="M314.9,609.4c.1-1.3,1.2-1.1,1.9-1.4,23.4-9.2,38.9-25.8,44.9-50.2,8.1-32.9-7.7-65.8-38.1-80.9-2.8-1.4-5.8-2.5-8.7-3.8,0-1.5.1-3,.1-4.5,0-15,0-30-.1-45,.6-.5,1.3-.3,1.9-.3l62.8.5c.8,0,2-.5,2.2,1.1a30.3,30.3,0,0,0-.2,3.1V598.2c0,3.6.1,7.3.2,11a4.8,4.8,0,0,1-1.3,3.2,794.5,794.5,0,0,1-64.3,66.7c-.4.3-.7.8-1.2.5V616.1C315,613.9,314.9,611.6,314.9,609.4Z" style="fill:#fefefe"/><path d="M381.8,609.2c-.1-3.7-.2-7.4-.2-11V428a30.3,30.3,0,0,1,.2-3.1,2.5,2.5,0,0,1,2.3-.8H431a2.2,2.2,0,0,1,2.6,1.6c0,.9.2,1.8.2,2.6V534.9c0,2.2.3,4.4-.2,6.7a50.6,50.6,0,0,1-7,10.7c-2.5,3.1-4.4,6.6-6.7,9.8-3.3,4.8-7,9.2-10.4,13.9-5.1,7.2-10.9,13.9-16.3,20.9-3.2,4-6.6,7.9-9.8,11.9A1.2,1.2,0,0,1,381.8,609.2Z" style="fill:#eb383c"/><path d="M196.2,596.2c-.1.7-.1,1.5-.2,2.2s-1.3.9-1.8.2a74.9,74.9,0,0,0-5.1-6.1c-2.9-3.8-6-7.5-8.7-11.5s-8.1-10.7-11.9-16.2-6.1-8.7-9.4-13-6.2-9.3-9.2-14c-2-2.9-3.9-5.9-5.8-8.8,0-.7-.1-1.3-.1-2V452.2c0-9.9.1-19.9.1-29.9h50.4a2.2,2.2,0,0,1,1.6.4v2c0,1,.1,1.9.1,2.9V596.2Z" style="fill:#eb383c"/><path d="M433.6,541.6c.5-2.3.2-4.5.2-6.7V428.4c0-.8-.2-1.7-.2-2.6s1.2-1.6,2.3-1.6l42,.4h20.2c-2.4,5.6-4.7,11-7.1,16.3A697.4,697.4,0,0,1,444,527c-2.9,4.6-6.5,9-9.1,13.9C434.6,541.4,434.4,542,433.6,541.6Z" style="fill:#fefefe"/><path d="M314.9,609.4c0,2.2.1,4.5.1,6.7v63.5c-3.6,3.3-7.1,6.7-10.8,9.7s-4.7,4.3-7.1,6.5l-.6.7c-4.2,3.2-4.3,3.3-8.4-.3L264.7,675a4.9,4.9,0,0,1-1.7-4.1V608.5c0-2.1.7-2.5,2.6-1.6a70.4,70.4,0,0,0,33.9,5.2,52,52,0,0,0,11.6-2.4A12.2,12.2,0,0,1,314.9,609.4Z" style="fill:#eb383c"/><path d="M144.1,422.3c0,10-.1,20-.1,29.9V527c0,.7.1,1.3.1,2-1.9-1.8-2.9-4.2-4.3-6.4a729.4,729.4,0,0,1-51.7-98.7c-.4-1.1-1.5-2.3,1.1-2.3l53,.5Z" style="fill:#fefefe"/><path d="M270.4,606.7a85.7,85.7,0,0,0,10.8-12.6,70.4,70.4,0,0,0,9.8-21.4,75,75,0,0,0,.9-34.6c-.2-.9,0-1.2.7-1.8s2.5-3.3,3.8-4.9a68.2,68.2,0,0,1,18.8-17.5c1.3-.7,1.9-.8,2.8.6a69.5,69.5,0,0,1,11.5,32.6,67,67,0,0,1-8.1,39.5,69.5,69.5,0,0,1-16.9,20.5c-3.1,2.6-6.2,3.3-10,3.4a74.1,74.1,0,0,1-22.9-3.1Z" style="fill:#b9723c"/><path d="M305.8,608.9l5.5-5.6a69.9,69.9,0,0,0,18.2-33.1,73.1,73.1,0,0,0-2.6-42.4,66.2,66.2,0,0,0-7.4-14.2c-1-1.4-.5-2,.8-2.6a70.2,70.2,0,0,1,18.7-6.4c3-.6,5.9-.6,8.8-1s4.3,1.2,5.5,3.4a71.2,71.2,0,0,1,6.3,15.4c2.1,8.7,3.1,17.4,1.9,26.5a73.9,73.9,0,0,1-5.2,19.9A68.1,68.1,0,0,1,331,598.9a74.5,74.5,0,0,1-20.3,9.3,27.2,27.2,0,0,1-4.7.8Z" style="fill:#b9723c"/><path d="M314.9,423.6c.1,15,.1,30,.1,45,0,1.5-.1,3-.1,4.5-3.2-.3-6.1-1.7-9.3-2.1-5.9-.8-11.7-1.6-17.7-1.1a103.4,103.4,0,0,0-14.6,2.4,57.7,57.7,0,0,0-7.9,2.9c-1.7.7-2.4.8-2.4-1.4V425.1c0-1.6.6-2,2.1-2h47.5A15.7,15.7,0,0,1,314.9,423.6Z" style="fill:#eb383c"/><path d="M323.7,480.5c3.7-1.2,6.9,2.3,10.3,4.7a69.4,69.4,0,0,1,13.9,13.7c1.3,1.7,1.1,2.4-1.1,2.8l-8,1a52.5,52.5,0,0,0-11.9,3.4A67.3,67.3,0,0,0,301,523.3a76.3,76.3,0,0,0-9.1,11.3c-.3.5-.7,1.1-1.3.9-3.8-1.8-8-1.1-12-1.9a69.7,69.7,0,0,1-16.1-4.9c-1-.5-1.3-1.1-.8-2.3a69.2,69.2,0,0,1,28.8-35.6A67.7,67.7,0,0,1,323.7,480.5Z" style="fill:#b9723c"/><path d="M283.6,568.2a69.5,69.5,0,0,1-35.4-10.1c-9-5.5-16-12.9-22.2-21.3-3-4-2-7.8-1-11.8a67.2,67.2,0,0,1,5.4-15c1.5-2.9,2-3.1,4-.7,8.2,10.1,18.2,17.8,30.5,22.3,7.2,2.6,14.5,4.4,22.2,4.4,2,0,2.7.6,3.1,2.5a81.3,81.3,0,0,1,.7,27.4c-.2,1.6-.9,2.5-2.8,2.3A33.8,33.8,0,0,0,283.6,568.2Z" style="fill:#b9723c"/><path d="M223.6,536.7c3.5,4.5,6.7,9.1,10.8,12.9A71.7,71.7,0,0,0,272.1,569a61.9,61.9,0,0,0,15.5,1c1.7-.1,2.4.1,1.8,2.1a66.8,66.8,0,0,1-17.1,30c-4.3,4.3-4.2,4.3-9.7,1.6a69.5,69.5,0,0,1-22.9-17.6,70.4,70.4,0,0,1-15.8-33.8A58.1,58.1,0,0,1,223.6,536.7Z" style="fill:#b9723c"/><path d="M322.4,478.7a66,66,0,0,0-16.4,3.1,70,70,0,0,0-27.8,16.3,68.1,68.1,0,0,0-17.9,27.2c-.6,1.5-1.2,1.9-2.7,1.1A68.4,68.4,0,0,1,234,505.9c-.8-1.2-.3-2,.3-2.8,2.6-3.2,5.1-6.4,7.9-9.5A70.2,70.2,0,0,1,260,479.7a70.7,70.7,0,0,1,47.5-6.6,67.9,67.9,0,0,1,13.2,4.3C321.3,477.7,322.1,477.7,322.4,478.7Z" style="fill:#b9723c"/><path d="M306,609l-.4.2.2-.3Z" style="fill:#b9723c"/><path d="M68.4,308.9c33.3-.9,66.6-.2,99.8-.6,12.2-.1,24.4-.3,36.6-.2a4.9,4.9,0,0,0,3.8-1.6c3.4-3.3,7.3-6.1,10.7-9.4s6.8-6.1,10-9.4,8.6-7.9,13-11.7c7-6.1,13.4-12.8,20.4-18.8,5.2-4.5,10.2-9.1,15.2-13.7s10.3-8.8,14.9-13.7l2.3-2.1c5.3-4.7,5.5-4.7,10,1,.9,1.1,1.8,2.2,2.8,3.2l25.9,26.3L355,279.8l23.6,24c1,1.1,2.3,1.9,3.1,3.3s1.6.8,2.6.8c13.5,0,27,.2,40.5-.1,19.2-.4,38.3-.1,57.5-.4,16.6-.3,33.2-.3,49.8-.4,3.1,0,2.9,0,2.2,2.9-1.2,4.6-2,9.3-3.3,13.8-1.8,6.3-3.1,12.7-5.3,18.9s-3.1,11.3-5,16.8-2.9,9-4.6,13.4a70.1,70.1,0,0,0-3.3,10.1,2.5,2.5,0,0,1-2.9,2.4c-3.1.1-6.2-.4-9.3-.4H85.2c-2,0-4,.3-6,.4a2.2,2.2,0,0,1-2.4-1.8c-2.7-7.9-5.6-15.7-8.3-23.7-1.8-5.5-3.3-11.2-5-16.8-2.2-7.6-4.5-15.2-6.6-22.9-.8-2.7-1.3-5.4-1.9-8.1s-.2-3.1,2.4-3.1ZM271,334.8h.4v1.6c0,10.9,0,21.9-.1,32.9,0,2.2.7,2.6,2.7,2.6,3.8-.2,7.7-.2,11.5-.1,1.6.1,2.1-.4,2.1-2-.1-15.3-.1-30.7-.1-46,.1-1.7-.5-2-2-2q-11,.2-21.9,0a1.9,1.9,0,0,0-2.2,1.5c-1.1,3-2.3,6-3.4,8.9l-8.9,23.1a9.5,9.5,0,0,1-1.3-2.7l-10.3-29.1a2.2,2.2,0,0,0-2.4-1.7q-11.4.2-22.8,0c-1.4,0-1.9.4-1.9,1.9.1,15.4.1,30.8,0,46.3,0,1.5.6,1.9,2,1.8h12c1.7.1,2.3-.4,2.3-2.2q-.1-15.6,0-31.2v-3.7a3.8,3.8,0,0,1,1,1.7l12.4,33.6c.5,1.3,1,1.9,2.5,1.8h11.5a2.7,2.7,0,0,0,3.2-2c2.8-7.6,5.8-15,8.7-22.5Zm119,12.5,4.6-1.4c4.7-1.8,7.5-5.1,7.7-10.2s-2.2-9.2-6.9-11.6a20.2,20.2,0,0,0-9-2.1H355.9c-1.4,0-2,.3-2,1.9.1,15.5,0,30.9,0,46.3,0,1.3.3,1.9,1.7,1.8h12.9c1.4.1,1.8-.4,1.8-1.7-.1-4.5,0-9,0-13.5,0-6.1,0-6.1,6.2-5.3,8.5,1,9.5,2.3,9.6,10.9,0,2.5-.3,5.1.6,7.6s.8,2.1,2.4,2h13c1.2.1,1.6-.2,1.2-1.4-1.2-4.2-1.1-8.5-1.4-12.8s-1.8-7.2-6.2-8.9C394,348.2,392.2,347.9,390,347.3ZM91.4,371.9h14.4c1.6.1,2.1-.6,2.6-1.8s2-4.9,2.9-7.4a2.4,2.4,0,0,1,2.7-1.9h18.2a2.3,2.3,0,0,1,2.6,1.8c.9,2.5,1.9,4.9,2.7,7.4a2.4,2.4,0,0,0,2.8,1.9h12.9c2,.1,2.3-.3,1.5-2.1-6.5-15.4-12.9-30.7-19.3-46.1a2.5,2.5,0,0,0-2.7-1.8q-8.8.2-17.7,0a2.6,2.6,0,0,0-2.9,1.8c-4.3,10.3-8.8,20.5-13.2,30.8C96.5,360.2,94,365.9,91.4,371.9Zm410.6,0a1.7,1.7,0,0,0-.1-.8c-6.7-16-13.5-31.9-20.2-47.9a1.9,1.9,0,0,0-2.1-1.3c-6.2,0-12.3.1-18.5,0a1.9,1.9,0,0,0-2.1,1.4c-1.3,3.3-2.8,6.5-4.2,9.7l-15.9,36.9c-.7,1.5-.6,2.1,1.3,2h12.5a1.9,1.9,0,0,0,2.2-1.5c1-2.7,2.2-5.3,3.2-8a2,2,0,0,1,2.1-1.6H479a2.3,2.3,0,0,1,2.4,1.7c1,2.7,2.1,5.3,3.1,8a1.7,1.7,0,0,0,1.9,1.4Zm-201.5-25h0c0,7.5.1,15,0,22.5,0,1.9.4,2.6,2.4,2.6h35.5c5.5,0,5.4,0,5.5-5.5,0-1.9-.6-2.3-2.3-2.3H318.8c-1.4,0-2-.3-1.9-1.8q.2-5.4,0-10.8c-.1-1.5.3-1.9,1.8-1.9,5.7.1,11.4,0,17.1,0s5,0,5.2-5.2c0-2.2-.7-2.7-2.7-2.7-6.5.2-12.9,0-19.4.1-1.6,0-2.1-.4-2-2s.1-5.6,0-8.4.4-1.9,1.9-1.9h18.9c5.3,0,5.3,0,5.3-5.3.1-1.9-.4-2.4-2.3-2.4-12.6.1-25.3.1-37.9,0-2,0-2.3.6-2.3,2.4C300.6,331.8,300.5,339.4,300.5,346.9Zm-137.6-25a6.8,6.8,0,0,1,.4,3.1c0,14.8,0,29.7-.1,44.6,0,1.8.5,2.4,2.4,2.3h32.1c6.5,0,6.5,0,6.3-6.4,0-1.5-.6-1.9-2-1.9H183.8c-4.2,0-4.2,0-4.2-4V324.1c0-1.1.4-2.2-1.5-2.2C173.1,322,168.2,321.9,162.9,321.9Zm267.7,25.2v-23c.1-1.5-.2-2.3-2-2.2-4.2.1-8.5.1-12.7,0-1.5,0-1.9.5-1.9,1.9.1,15.4.1,30.8,0,46.3,0,1.4.5,1.9,2,1.8,4.1,0,8.3-.1,12.4.1,1.8,0,2.3-.6,2.3-2.3C430.6,362.2,430.6,354.6,430.6,347.1Z" style="fill:#386cc8"/><path d="M436.1,150.4H546.5c2.3,0,3.1.5,3.1,2.8.4,18.2.5,36.3-.6,54.4-.8,13.1-1.9,26.2-3.6,39.2-.9,7.3-2,14.6-3,21.8-.2,1.5-.7,2.1-2.4,2.1H406.3a4.9,4.9,0,0,1-3.6-1.5q-39.4-39.6-79-79.1a4,4,0,0,1-1.1-3.2c.1-11.3.1-22.5,0-33.8,0-2.4.7-2.8,2.9-2.8Zm-26.7,60h-.1v37.7c0,1.5-.1,2.7,2.2,2.7h49.2a81.2,81.2,0,0,0,22.9-3.2c11.7-3.7,20-10.9,21.8-23.5a82.6,82.6,0,0,0-.8-28.9c-2.1-10.4-8.3-17.2-18.4-20.7a74.6,74.6,0,0,0-24.3-3.6H411.5c-1.6,0-2.2.3-2.2,2.1C409.4,185.3,409.4,197.9,409.4,210.4Z" style="fill:#fefefe"/><path d="M44.6,190.1c-.4-12-.2-24.1.2-36.2.1-4.3,0-3.5,3.5-3.5H269.6c1.8,0,2.2.4,2.2,2.2-.1,11.5,0,23,0,34.6a4.5,4.5,0,0,1-1.4,3.3l-79.1,79a4.1,4.1,0,0,1-3.4,1.3H56.2c-4.1,0-3.9-.1-4.6-4.2s-1.1-7.9-1.9-11.8-.7-9-1.5-13.4-.8-7.4-1.3-11-.4-5-.7-7.5-.4-7.3-.8-11c-.6-5.8-.5-11.7-.6-17.6a21.7,21.7,0,0,1-.1-2.6A7.6,7.6,0,0,1,44.6,190.1Zm140.2,13.2c0-9-.1-17.9,0-26.9,0-2.1-.4-2.9-2.7-2.8-8.2.1-16.3.2-24.5,0-2.5-.1-3,.7-2.9,3.1.1,17.5,0,35,0,52.5,0,6.3-3.1,10.5-9,12.4a34.7,34.7,0,0,1-15.7.9c-7.9-1.3-13-5-12.8-15.4.3-17,0-34.1.1-51.1,0-1.9-.5-2.4-2.4-2.4H89.5c-1.8,0-2.4.4-2.4,2.3.1,18,.1,36.1.1,54.2a18.4,18.4,0,0,0,6.5,14.3c4.9,4.3,10.7,6.4,16.8,7.9,11.4,2.8,23.1,3,34.8,2.3,9-.5,17.9-2,26.2-6.1s13.7-10.7,13.3-21C184.5,219.5,184.8,211.4,184.8,203.3Z" style="fill:#fefefe"/><path d="M44.6,190.1a7.6,7.6,0,0,0,.1,1.5A1.1,1.1,0,0,1,44.6,190.1Z" style="fill:#b9723c"/><path d="M298.3,122.7H213.6c-2.3,0-2.7-.6-2.6-2.8,1-19.8,7.6-37.6,20.5-52.8,16-18.9,36.5-29.8,61.3-30.9C330.2,34.7,358,51,376.1,83.7c6.4,11.4,9.3,24,9.7,37.2.1,2.4-1.4,1.8-2.6,1.8ZM265.9,88.1c-.2,17.7,14.5,32.4,32.3,32.5s32.5-14.3,32.6-31.8a32.5,32.5,0,0,0-32.3-33.2C280.6,55.4,266.1,69.9,265.9,88.1Z" style="fill:#fefefe"/><path d="M196.2,596.2V427.6c0-1-.1-1.9-.1-2.9V595.3A2.8,2.8,0,0,0,196.2,596.2Z" style="fill:#4d412d"/><path d="M271,334.8l-5,12.6c-2.9,7.5-5.9,14.9-8.7,22.5a2.7,2.7,0,0,1-3.2,2H242.6c-1.5.1-2-.5-2.5-1.8l-12.4-33.6a3.8,3.8,0,0,0-1-1.7v3.7q-.1,15.6,0,31.2c0,1.8-.6,2.3-2.3,2.2h-12c-1.4.1-2-.3-2-1.8.1-15.5.1-30.9,0-46.3,0-1.5.5-1.9,1.9-1.9q11.4.2,22.8,0a2.2,2.2,0,0,1,2.4,1.7l10.3,29.1a9.5,9.5,0,0,0,1.3,2.7l8.9-23.1c1.1-2.9,2.3-5.9,3.4-8.9a1.9,1.9,0,0,1,2.2-1.5q10.9.2,21.9,0c1.5,0,2.1.3,2,2,0,15.3,0,30.7.1,46,0,1.6-.5,2.1-2.1,2-3.8-.1-7.7-.1-11.5.1-2,0-2.7-.4-2.7-2.6.1-11,.1-22,.1-32.9v-1.6Z" style="fill:#fefefe"/><path d="M390,347.3c2.2.6,4,.9,5.7,1.5,4.4,1.7,6,4.2,6.2,8.9s.2,8.6,1.4,12.8c.4,1.2,0,1.5-1.2,1.4h-13c-1.6.1-2-.9-2.4-2s-.6-5.1-.6-7.6c-.1-8.6-1.1-9.9-9.6-10.9-6.2-.8-6.2-.8-6.2,5.3,0,4.5-.1,9,0,13.5,0,1.3-.4,1.8-1.8,1.7H355.6c-1.4.1-1.7-.5-1.7-1.8,0-15.4.1-30.8,0-46.3,0-1.6.6-1.9,2-1.9h30.5a20.2,20.2,0,0,1,9,2.1c4.7,2.4,7.1,6.2,6.9,11.6s-3,8.4-7.7,10.2Zm-14.8-17.7h-3.6c-1-.1-1.3.4-1.3,1.4v11.2c0,.6-.1,1.3.7,1.3,3.9-.1,7.8.8,11.5-1.3s3.6-4.3,3.1-7.6-2.1-3.9-5.1-4.6A23.7,23.7,0,0,0,375.2,329.6Z" style="fill:#fefefe"/><path d="M91.4,371.9c2.6-6,5.1-11.7,7.5-17.4,4.4-10.3,8.9-20.5,13.2-30.8a2.6,2.6,0,0,1,2.9-1.8q8.9.2,17.7,0a2.5,2.5,0,0,1,2.7,1.8c6.4,15.4,12.8,30.7,19.3,46.1.8,1.8.5,2.2-1.5,2.1H140.3a2.4,2.4,0,0,1-2.8-1.9c-.8-2.5-1.8-4.9-2.7-7.4a2.3,2.3,0,0,0-2.6-1.8H114a2.4,2.4,0,0,0-2.7,1.9c-.9,2.5-2,4.9-2.9,7.4s-1,1.9-2.6,1.8Zm31.4-40.2-7.5,21.4H129c1.1,0,1.5-.3,1.1-1.4C127.7,345.2,125.3,338.7,122.8,331.7Z" style="fill:#fefefe"/><path d="M502,371.9H486.4a1.7,1.7,0,0,1-1.9-1.4c-1-2.7-2.1-5.3-3.1-8a2.3,2.3,0,0,0-2.4-1.7H460.2a2,2,0,0,0-2.1,1.6c-1,2.7-2.2,5.3-3.2,8a1.9,1.9,0,0,1-2.2,1.5H440.2c-1.9.1-2-.5-1.3-2L454.8,333c1.4-3.2,2.9-6.4,4.2-9.7a1.9,1.9,0,0,1,2.1-1.4c6.2.1,12.3,0,18.5,0a1.9,1.9,0,0,1,2.1,1.3c6.7,16,13.5,31.9,20.2,47.9A1.7,1.7,0,0,1,502,371.9Zm-32.6-40.2L462,353h15.2Z" style="fill:#fefefe"/><path d="M300.5,346.9c0-7.5.1-15.1,0-22.6,0-1.8.3-2.4,2.3-2.4,12.6.1,25.3.1,37.9,0,1.9,0,2.4.5,2.3,2.4,0,5.3,0,5.3-5.3,5.3H318.8c-1.5,0-2,.4-1.9,1.9s.1,5.6,0,8.4.4,2,2,2c6.5-.1,12.9.1,19.4-.1,2,0,2.7.5,2.7,2.7-.2,5.2,0,5.2-5.2,5.2s-11.4.1-17.1,0c-1.5,0-1.9.4-1.8,1.9q.2,5.4,0,10.8c-.1,1.5.5,1.8,1.9,1.8h22.8c1.7,0,2.3.4,2.3,2.3-.1,5.5,0,5.5-5.5,5.5H302.9c-2,0-2.4-.7-2.4-2.6.1-7.5,0-15,0-22.5Z" style="fill:#fefefe"/><path d="M162.9,321.9c5.3,0,10.2.1,15.2,0,1.9,0,1.5,1.1,1.5,2.2v35.5c0,4,0,4,4.2,4H202c1.4,0,2,.4,2,1.9.2,6.4.2,6.4-6.3,6.4H165.6c-1.9.1-2.4-.5-2.4-2.3.1-14.9.1-29.8.1-44.6A6.8,6.8,0,0,0,162.9,321.9Z" style="fill:#fefefe"/><path d="M430.6,347.1c0,7.5,0,15.1.1,22.6,0,1.7-.5,2.3-2.3,2.3-4.1-.2-8.3-.1-12.4-.1-1.5.1-2-.4-2-1.8.1-15.5.1-30.9,0-46.3,0-1.4.4-1.9,1.9-1.9,4.2.1,8.5.1,12.7,0,1.8-.1,2.1.7,2,2.2Z" style="fill:#fefefe"/><path d="M409.4,210.4c0-12.5,0-25.1-.1-37.6,0-1.8.6-2.1,2.2-2.1h50.4a74.6,74.6,0,0,1,24.3,3.6c10.1,3.5,16.3,10.3,18.4,20.7a82.6,82.6,0,0,1,.8,28.9c-1.8,12.6-10.1,19.8-21.8,23.5a81.2,81.2,0,0,1-22.9,3.2H411.5c-2.3,0-2.2-1.2-2.2-2.7V210.4Zm30-27.1c-.9.5-.5,1.4-.5,2.2v49.9c0,.9-.4,1.8.4,2.5s.5.4.8.4c6.1,0,12.2.4,18.2-.2,10.4-.9,14.6-4.6,16.3-13.8a79.4,79.4,0,0,0,.4-26.2c-1.4-9.4-6.3-14-15.5-14.7A168.5,168.5,0,0,0,439.4,183.3Z" style="fill:#eb383c"/><path d="M184.8,203.3c0,8.1-.3,16.2,0,24.2.4,10.3-4.7,16.7-13.3,21s-17.2,5.6-26.2,6.1c-11.7.7-23.4.5-34.8-2.3-6.1-1.5-11.9-3.6-16.8-7.9a18.4,18.4,0,0,1-6.5-14.3c0-18.1,0-36.2-.1-54.2,0-1.9.6-2.3,2.4-2.3h25.4c1.9,0,2.4.5,2.4,2.4-.1,17,.2,34.1-.1,51.1-.2,10.4,4.9,14.1,12.8,15.4a34.7,34.7,0,0,0,15.7-.9c5.9-1.9,9-6.1,9-12.4,0-17.5.1-35,0-52.5-.1-2.4.4-3.2,2.9-3.1,8.2.2,16.3.1,24.5,0,2.3-.1,2.7.7,2.7,2.8C184.7,185.4,184.8,194.3,184.8,203.3Z" style="fill:#eb383c"/><path d="M265.9,88.1c.2-18.2,14.7-32.7,32.6-32.5a32.5,32.5,0,0,1,32.3,33.2c-.1,17.5-14.9,31.9-32.6,31.8S265.7,105.8,265.9,88.1ZM298.2,119a30.9,30.9,0,1,0-30.7-30.7A30.7,30.7,0,0,0,298.2,119Z" style="fill:#1d1d1b;stroke:#000;stroke-miterlimit:10;stroke-width:4px"/><path d="M375.2,329.6a23.7,23.7,0,0,1,5.3.4c3,.7,4.7,2.2,5.1,4.6s-.6,6.2-3.1,7.6-7.6,1.2-11.5,1.3c-.8,0-.7-.7-.7-1.3V331c0-1,.3-1.5,1.3-1.4Z" style="fill:#295fa0"/><path d="M122.8,331.7c2.5,7,4.9,13.5,7.3,20.1.4,1.1,0,1.4-1.1,1.4H115.3Z" style="fill:#295fa0"/><path d="M469.4,331.7l7.8,21.3H462Z" style="fill:#295fa0"/><path d="M439.4,183.3a168.5,168.5,0,0,1,20.1.1c9.2.7,14.1,5.3,15.5,14.7a79.4,79.4,0,0,1-.4,26.2c-1.7,9.2-5.9,12.9-16.3,13.8-6,.6-12.1.2-18.2.2-.3,0-.5-.2-.8-.4s.1-2.9.1-4.3Z" style="fill:#fefefe"/><path d="M439.4,183.3v50.3c0,1.4-.1,2.9-.1,4.3-.8-.7-.4-1.6-.4-2.5V185.5C438.9,184.7,438.5,183.8,439.4,183.3Z" style="fill:#b9723c"/><path d="M298.2,119a30.9,30.9,0,1,1,31-31.3A30.9,30.9,0,0,1,298.2,119Z" style="fill:#f1ca2f"/><path d="M360.6,522.2a69.9,69.9,0,0,0-6.4-15.6c-1.3-2.4-2.9-4.5-6.6-4l-1.9.3,1.3-.2c1.1-.2,2.2-.5,2.6-1.5s-.2-2-.9-2.9a68.6,68.6,0,0,0-14.1-13.9l-1.8-1.4c-2.8-2.2-5.8-4.5-9.3-3.5h-.4v-.2a1,1,0,0,0,.2-.9,3.1,3.1,0,0,0-2-1.8h-.3a62.4,62.4,0,0,0-13.3-4.3,69.4,69.4,0,0,0-28.7-.3A66.6,66.6,0,0,0,241.5,493c-2.8,3-5.2,6.1-8,9.5a3.1,3.1,0,0,0-.3,4l.6.7a2.7,2.7,0,0,0-1.7-.6c-1.1.2-1.8,1.3-2.6,2.9a75,75,0,0,0-5.5,15.3v.3c-.8,3.5-1.7,7.1.4,10.9a1.2,1.2,0,0,0-1-.2.9.9,0,0,0-.7.9,53.7,53.7,0,0,0,.4,15.8,71.7,71.7,0,0,0,15.9,34.2,70.2,70.2,0,0,0,23.3,17.9c4.7,2.3,5.9,2.7,8.6.4l-1.1,1a1,1,0,0,0-.3.9.8.8,0,0,0,.5.7l.5.3.9.4a76.5,76.5,0,0,0,21.3,3.2h1.9c3.4-.1,7.1-.6,10.7-3.6l1.3-1.2-1.4,1.5-.2.2v.3a1,1,0,0,0,1.2,1.4h.2l1.4-.2,3.4-.6a80.5,80.5,0,0,0,20.5-9.4,69.5,69.5,0,0,0,25.7-30.6,72.7,72.7,0,0,0,5.3-20.2A71.4,71.4,0,0,0,360.6,522.2Zm-36.9-40.7h1.4c2.2,0,4.3,1.6,6.5,3.3l1.8,1.4a67.2,67.2,0,0,1,13.7,13.5l.6.9-1,.3-4.2.5-3.9.5a70.4,70.4,0,0,0-38.3,20.9,77.2,77.2,0,0,0-9.2,11.5l-.3.4a19.6,19.6,0,0,0-7.5-1.4,34.4,34.4,0,0,1-4.5-.5,74.1,74.1,0,0,1-15.9-4.8c-.5-.3-.6-.3-.3-1.1a69.1,69.1,0,0,1,28.4-35C300.9,485.4,311.3,482.2,323.7,481.5ZM318.1,513a2.4,2.4,0,0,0-1.5-.6h-.8l2.7-1.5a1.2,1.2,0,0,0-.4.8A2.4,2.4,0,0,0,318.1,513Zm-27.2,24.1-.4-.6h.6A1.4,1.4,0,0,0,290.9,537.1Zm.1,31.1a14.2,14.2,0,0,1-.5,2.2.9.9,0,0,0-.3-.7,1.2,1.2,0,0,0-.7-.5A3.1,3.1,0,0,0,291,568.2Zm-55.9-64.5c2.7-3.4,5.2-6.4,7.8-9.4a65.4,65.4,0,0,1,17.6-13.7,64.5,64.5,0,0,1,19-6.7,66,66,0,0,1,13.3-1.4,68.8,68.8,0,0,1,26.7,5.5,65,65,0,0,0-13.8,2.8,71.8,71.8,0,0,0-28.1,16.5A69.9,69.9,0,0,0,259.3,525c-.2.7-.4.8-.4.8l-.8-.3a67.9,67.9,0,0,1-23.3-20.2C234.4,504.7,234.5,504.6,235.1,503.7Zm26,25.2-2.5-1.1a1.6,1.6,0,0,0,1-.2,2.6,2.6,0,0,0,.9-.5A2,2,0,0,0,261.1,528.9Zm-35.2-3.4v-.3a66.8,66.8,0,0,1,5.3-14.8c.6-1.1.9-1.6,1.1-1.7a8.5,8.5,0,0,1,1.2,1.3c8.7,10.6,19.1,18.2,31,22.5,8.4,3,15.5,4.5,22.4,4.5h.1c1.5,0,1.9.3,2.2,1.8a80,80,0,0,1,.6,26.9c-.2,1.4-.6,1.6-1.6,1.5h-4.7a67.6,67.6,0,0,1-34.8-10c-8.1-4.9-15.1-11.6-22-21C224.2,532.7,225,529.4,225.9,525.5Zm41.8,79c-.9.2-2.2-.5-4.7-1.7a68.8,68.8,0,0,1-38.1-50.7,51.2,51.2,0,0,1-.5-12.7l.5.7a94.1,94.1,0,0,0,8.8,10.3A73.6,73.6,0,0,0,271.9,570a69,69,0,0,0,15.8,1h.9a2.3,2.3,0,0,1-.2.9,67.8,67.8,0,0,1-16.9,29.6C269.6,603.4,268.6,604.4,267.7,604.5Zm36.2,1.8c-3,2.5-5.9,3.1-9.4,3.2a76.5,76.5,0,0,1-22.4-3,84.4,84.4,0,0,0,9.9-11.9,71.6,71.6,0,0,0,10-21.7,76.2,76.2,0,0,0,.9-35c-.1-.4-.1-.4.4-.9a25.4,25.4,0,0,0,2.9-3.6l1-1.4a64.6,64.6,0,0,1,18.6-17.2c.9-.6.9-.6,1.4.2a70.4,70.4,0,0,1,11.3,32.2,66.4,66.4,0,0,1-8,38.9A67.5,67.5,0,0,1,303.9,606.3Zm56.6-57.5a72.9,72.9,0,0,1-5.2,19.6,67.3,67.3,0,0,1-24.9,29.7,78.5,78.5,0,0,1-20,9.2l-2,.4h.1L312,604a71.1,71.1,0,0,0,18.5-33.6,73.4,73.4,0,0,0-2.7-42.9,63.6,63.6,0,0,0-7.4-14.4c-.4-.5-.4-.7-.4-.7s.2-.2.8-.5a68.9,68.9,0,0,1,18.4-6.3,29.6,29.6,0,0,1,5-.6l3.7-.4c2.3-.3,3.3.7,4.5,2.9a65.7,65.7,0,0,1,6.2,15.2A67.7,67.7,0,0,1,360.5,548.8Z"/></g></g></svg>