<?xml version="1.0" encoding="utf-8"?>
<!-- Generator: Adobe Illustrator 22.0.1, SVG Export Plug-In . SVG Version: 6.00 Build 0)  -->
<svg version="1.2" baseProfile="tiny" id="Capa_1" xmlns="http://www.w3.org/2000/svg" xmlns:xlink="http://www.w3.org/1999/xlink"
	 x="0px" y="0px" viewBox="0 0 400 400" xml:space="preserve">
<rect x="1.3" y="1.5" fill="none" width="398.8" height="398.8"/>
<g>
	<path fill="#FFFFFF" d="M200.7,398.9c-30.9,0-79.5-57.1-86.9-67.3c-46.8-63.5-57.7-118.7-61-139.3c-0.7-4.7-1.6-12.5-1.8-22.2v-4.2
		c0.2-20.6,4.4-49.1,21.5-77.9c22.3-38.7,47.6-58.2,63.1-67.5c7.2-4.4,12.1-6.5,13.7-7.2c4.6-2.3,6.7,0.5,6.7,0.5
		c19.2,22,31.3,5.1,31.3,5.1s-2.3-5.3-3.3-10.7c-1.1-5.3,3.7-5.3,5.8-5.3c2.3,0,5.8,4,5.8,4l5.3-0.9l5.3,0.9c0,0,3.5-4,5.8-4
		c2.1,0,6.7,0,5.8,5.3c-1.1,5.3-3.3,10.7-3.3,10.7s12.3,16.9,31.5-5.1c0,0,1.9-3,6.7-0.5c1.4,0.7,7,3.2,14.8,7.9
		c15.5,9.5,40.1,29.2,62.1,67c16.7,29,21.1,57.3,21.5,77.9v4.2c-0.2,9.7-1.1,17.4-1.9,22.2c-3.3,20.6-14.1,75.8-60.8,139.3
		C280.5,341.4,235.9,398.9,200.7,398.9z M267,35.5c-3.9-5.5-8.8-11.3-14.8-17.1l-0.5,1.2c0,0,7.7,7.7,15.5,19.3
		c7.9,11.8,15.6,27.3,15.3,42.9C282.3,81.9,284.8,61.1,267,35.5z M135.7,39c7.7-11.6,15.5-19.3,15.5-19.3l-0.7-1.2
		c-6.2,5.8-10.9,11.6-14.8,17.1c-18.1,25.7-15.5,46.4-15.5,46.4C119.8,66.2,127.7,50.6,135.7,39z M341.6,163.6h-29.4v114.5
		C336.1,227.1,344.7,178.4,341.6,163.6z M71.7,132.2h258.3c-2.5-4.7-5.3-9.5-8.4-14.4C299.2,84,280,88.9,280,88.9
		c-4.2-3.2-8.6-5.1-13-6.2c-19.5-4.2-38.7,10.2-40.4,29.7c0,0,2.6,3.5,0.4,5.6c-2.3,1.9-3.3,0.4-3.3,0.4l-6.3-6.3
		c-11.1,0-16.5,13.9-16.5,13.9s-5.1-13.9-16.4-13.9l-6.2,6.3c0,0-1.1,1.6-3.3-0.4c-2.5-2.1,0.4-5.6,0.4-5.6
		c-1.9-19.2-20.6-33.6-39.6-29.9c-4.7,0.9-9.5,3-14.1,6.2c0,0-19.3-4.9-41.5,28.8C76.8,122.7,74.1,127.6,71.7,132.2z M91.2,280.7
		V163.6H60.4C55.8,193.2,70.3,238.7,91.2,280.7z M154.3,365.3V163.6h-31.6V331C132.5,343.7,143.4,355.5,154.3,365.3z M217.4,387.3
		v-112c15.1-6.3,25.8-21.5,25.8-39c0-17.8-10.7-32.7-25.8-39.2v-33.4h-31.6v33.1c-15.6,6.2-26.7,21.5-26.7,39.6
		c0,17.9,11.1,33.2,26.7,39.4v111.5c5.1,2.3,10,4,14.8,4.6C205.6,391.7,211.3,390.1,217.4,387.3z M249.1,163.6v201
		c10.9-10.2,21.6-22.3,31.5-35V163.8h-31.5V163.6z M241.5,151.2h-3l3.2-8.1l3,8.1H241.5z M108.9,151.2h-3.2l3.2-8.1l3.2,8.1H108.9z"
		/>
	<g>
		<path fill="#FFFFFF" d="M254.9,26.1c2.8,3.3,6.7,8.1,10.5,13.7c7.6,11.4,14.9,26.4,14.9,41v1.1l1.8,1.9l2.1-1.8
			c0,0,0.2-1.2,0.2-3.2c0-6.9-1.6-24.3-15.8-44.5l0,0c-3.9-5.6-9-11.4-15.1-17.4l-1.8-0.5l-1.4,1.1l-0.5,1.2l0.4,2.3
			C250.1,21,252.1,22.8,254.9,26.1z"/>
		<path fill="#FFFFFF" d="M330.6,87.2c-22.2-38.2-46.9-58-62.6-67.7c-7.7-4.7-13.5-7.2-14.8-7.9l-4.2-1.1c-3,0-4.4,1.8-4.7,2.3
			c-7.2,8.3-13.2,10.5-17.6,10.5c-3.3,0-6.2-1.4-7.9-2.8l-2.1-1.9c0.7-1.9,2.3-5.8,3-10l0,0l0.2-1.6c0.2-2.6-1.8-4.7-3.5-5.3
			C214.6,1,213,1,212,1c-2.3,0.2-3.7,1.4-4.9,2.5l-1.4,1.4l-4.2-0.7h-0.7l-4.2,0.7l-1.4-1.4c-1.4-1.1-2.8-2.3-4.9-2.5
			c-0.9,0-2.6,0-4.4,0.5s-3.7,2.5-3.5,5.1l0.2,1.8l0,0c0.9,4,2.3,8.1,3,10l0,0c-1.4,1.6-4.9,4.6-10,4.6c-4.4,0-10.2-2.1-17.6-10.5
			c-0.4-0.4-1.8-2.3-4.9-2.3l-4.2,1.1l0,0c-1.4,0.7-6.7,2.8-13.7,7.4l0,0c-16,9.8-41.5,29.5-64.2,68.6l0,0
			c-17.1,29.4-21.5,58.2-21.6,78.9l0,0v4.2l0,0c0.2,9.7,1.1,17.6,1.8,22.3l0,0c3.5,20.7,14.4,76.3,61.4,140.1l0,0
			c3.9,5.3,17.8,22.2,34.8,37.8c17.1,15.6,36.9,30.2,53.6,30.4c18.6-0.2,38.7-14.8,55.2-30.6c16.5-15.8,29.5-32.7,33.2-37.6l0,0
			c46.9-63.8,57.8-119.2,61.2-140.1l0,0c0.9-4.9,1.8-12.7,1.9-22.5l0,0v-4.2l0,0C352.1,145.2,347.7,116.3,330.6,87.2z M346.5,191.9
			c-3.3,20.6-14.1,75.3-60.5,138.4l0,0c-3.5,4.7-16.4,21.6-32.7,37.1s-36,29.5-52.6,29.5c-14.2,0.2-34.1-13.9-51-29.4
			s-30.8-32.4-34.3-37.3l0,0c-46.6-63.3-57.3-118-60.7-138.4l0,0c-0.7-4.7-1.6-12.3-1.8-21.8v-4c0.2-20.2,4.4-48.4,21.1-77l0,0
			c22.3-38.3,47.3-57.7,62.4-66.8l0,0c7-4.4,12-6.3,13.5-7.2l0,0l2.5-0.7l1.4,0.4l0.4,0.2l0,0l0.2,0.2c7.7,9,14.8,12,20.6,12
			c9,0,13.7-6.9,13.9-7l0.2-1.9c0,0-2.1-5.3-3.2-10.4l0,0l-0.2-1.1l1.1-1.6l3-0.4l2.5,1.6l1.9,1.8l1.8,0.7l4.9-0.9l4.9,0.9l1.8-0.7
			l1.9-1.8l1.6-1.2l0.9-0.4l3,0.4l1.1,1.6l-0.2,0.9l0,0c-1.1,5.1-3.3,10.2-3.3,10.2l0.2,1.9c0.2,0.2,4.9,7,13.9,7
			c5.8,0,12.8-3,20.6-12l0.2-0.2l0,0l1.6-0.7l2.5,0.7c1.6,0.9,6.9,3.2,14.6,7.7c15.3,9.3,39.6,28.7,61.4,66.3
			c16.5,28.7,20.7,56.6,21.1,77v4C348.4,179.6,347.4,187.4,346.5,191.9L346.5,191.9z"/>
		<path fill="#FFFFFF" d="M91.2,161.7H60.4l-1.9,1.6c-0.5,3.9-0.9,7.9-0.9,12.1c0,29.7,13.5,69.1,32,106.2l2.1,1.1l1.6-1.9V163.6
			l-0.5-1.4L91.2,161.7z M62,165.6h27.3v106.7c-16.4-34.5-27.8-70.3-27.8-96.9C61.5,171.9,61.6,168.7,62,165.6z"/>
		<path fill="#FFFFFF" d="M120.4,83.8l1.8-1.9V81c0-14.6,7.6-29.5,15.1-41l-1.6-1.1l0,0l1.6,1.1c3.9-5.6,7.6-10.5,10.5-13.7
			c2.8-3.3,4.7-5.3,4.7-5.3l0.4-2.5l-0.7-1.2l-1.4-0.9l-1.6,0.5c-6.2,5.8-11.1,11.8-14.9,17.4c-14.2,20.4-16,37.8-16,44.7
			c0,1.9,0.2,3,0.2,3L120.4,83.8z"/>
		<path fill="#FFFFFF" d="M108.9,141.1l-1.8,1.2l-3.2,8.1l0.2,1.8l1.6,0.9h3.2h3.2l1.6-0.9l0.2-1.8l-3.2-8.1L108.9,141.1z
			 M108.9,149.2h-0.4l0.4-0.7l0.4,0.7H108.9z"/>
		<path fill="#FFFFFF" d="M280.5,161.7h-31.5l-1.4,0.5l-0.5,1.4v201l1.2,1.8l2.1-0.4c10.9-10.2,21.8-22.5,31.6-35.3l0.4-1.2V163.6
			l-0.5-1.4L280.5,161.7z M251,360V165.6h27.6v163.2C270,340,260.5,350.7,251,360z"/>
		<path fill="#FFFFFF" d="M241.7,141.1l-1.8,1.2l-3.2,8.1l0.2,1.8l1.6,0.9h3h3.2l1.6-0.9l0.2-1.8l-3-8.1L241.7,141.1z M241.5,149.2
			L241.5,149.2l0.2-0.7l0.2,0.7H241.5z"/>
		<path fill="#FFFFFF" d="M331.5,133.2v-1.9c-2.6-4.7-5.5-9.7-8.6-14.6l0,0c-17.4-26.5-33.6-29.9-40.3-29.9c-1.1,0-1.8,0-2.3,0.2
			c-4.2-3-8.6-4.9-13-6l0,0c-2.5-0.5-4.9-0.9-7.4-0.9c-17.9,0-33.8,14.1-35.5,32.2l0.4,1.4l0.5,0.7l0.4,1.6l-0.4,0.7l-0.5,0.4
			l-6.3-6.3l-1.4-0.5c-6.5,0-11.1,4-13.9,7.6c-1.1,1.2-1.9,2.6-2.5,3.7c-0.7-1.1-1.4-2.5-2.5-3.7c-2.8-3.7-7.4-7.6-13.9-7.7
			l-1.4,0.5l-6.2,6.3l-0.5-0.4l-0.4-0.7l0.5-1.6l0.5-0.7l0.4-1.4C175.4,94,159.7,79.9,142,79.9c-2.1,0-4.2,0.2-6.5,0.7l0,0
			c-4.7,0.9-9.7,3-14.2,6.2c-0.5,0-1.4-0.2-2.3-0.2c-6.7,0-23,3.3-40.3,29.9l0,0c-3.3,4.9-6,10-8.6,14.6v1.9l1.8,0.9h258.3
			L331.5,133.2z"/>
		<path fill="#FFFFFF" d="M341.6,161.7h-29.4l-1.4,0.5l-0.5,1.4v114.5l1.6,1.9l2.1-1.1c20.9-44.5,30.2-86.9,30.2-107.6
			c0-3.2-0.2-6-0.7-8.1L341.6,161.7z M314.1,269.1V165.6H340c0.2,1.6,0.4,3.5,0.4,5.8C340.3,189.8,332.1,228.3,314.1,269.1z"/>
		<path fill="#FFFFFF" d="M154.3,161.7h-31.6l-1.4,0.5l-0.5,1.4V331l0.4,1.2c9.8,12.7,20.7,24.6,31.8,34.5l2.1,0.4l1.2-1.8V163.6
			l-0.5-1.4L154.3,161.7z M124.6,330.3V165.6h27.8v195.2C142.7,351.9,133.4,341.4,124.6,330.3z"/>
		<path fill="#FFFFFF" d="M219.4,195.8v-32.2l-0.5-1.4l-1.4-0.5h-31.6l-1.4,0.5l-0.5,1.4v31.8c-15.8,6.7-26.7,22.3-26.7,40.8
			c0,18.3,11.1,33.9,26.7,40.6v110.2l1.1,1.8c5.3,2.5,10.4,4,15.3,4.7h0.4c5.6,0,11.6-1.8,17.8-4.6l1.1-1.8V276.5
			c15.3-6.9,25.8-22.3,25.8-40.3C245.2,218.1,234.6,202.8,219.4,195.8z M216.7,273.5l-1.2,1.8v110.8c-5.5,2.5-10.4,3.7-14.8,3.7
			c-4-0.5-8.4-1.9-12.8-4V275.5l-1.2-1.8c-14.9-5.8-25.5-20.4-25.5-37.5c0-17.2,10.5-31.8,25.5-37.6l1.2-1.8v-31.1h27.8v31.5
			l1.2,1.8c14.4,6.2,24.8,20.4,24.8,37.3C241.3,253,231.1,267.4,216.7,273.5z"/>
	</g>
	<path fill="#FADF2C" d="M201.6,396.3c28.1,1.1,81.9-58.4,110.6-112.9c22.9-43.4,30.4-72.6,31.5-121.7l-286.6-0.5
		c2.1,55.7,12.3,89.1,41.5,136.6C127.7,344.9,161.2,392.4,201.6,396.3z"/>
	<path d="M201.6,396.3L201.6,396.3h0.7c28.5,0,81.4-58.9,109.9-112.9c22.9-43.4,30.4-72.8,31.5-121.8l0,0L57.1,161l0,0
		c2.1,55.7,12.3,89.3,41.5,136.8C127.7,345.1,161.2,392.4,201.6,396.3L201.6,396.3L201.6,396.3c-40.3-3.9-73.8-51.2-102.9-98.5
		c-29.2-47.5-39.4-81.1-41.5-136.6l0,0l0,0l286.6,0.5l0,0l0,0c-1.1,49.1-8.8,78.2-31.5,121.7c-28.5,54-81.4,112.9-109.9,112.9H201.6
		L201.6,396.3z"/>
	<path d="M241.5,138.3h-2.6l-8.4,20.7h5.3l1.6-4.2h4.4h4.4l1.4,4.2h5.5l-8.4-20.7H241.5z M108.9,138.3h-2.6l-8.4,20.7h4.9l1.6-4.2
		h4.4h4.6l1.4,4.2h5.3l-8.3-20.7H108.9z M85.7,159.1h4.6l8.1-20.7h-5.3L87.8,154l-5.3-15.6h-5.3L85.7,159.1z M140.6,155.4h-12v-17.1
		h-5.1v20.7h16.9v-3.7H140.6z M163.4,155.4h-12.8v-5.5h11.3v-3.5h-11.3v-4.2h12.3v-3.7h-17.2v20.7h17.8
		C163.4,159.2,163.4,155.4,163.4,155.4z M173.6,144.1l9.8,14.8h5.1v-20.7H184v14.6l-9.7-14.6h-5.3v20.7h4.6
		C173.6,158.9,173.6,144.1,173.6,144.1z M205.1,159.6c2.6,0,4.9-0.7,6.7-2.1s2.8-3.3,3.3-5.5H210l-1.2,2.5c-0.9,1.1-2.3,1.4-4,1.4
		c-1.6,0-3-0.5-4-1.8c-1.2-1.2-1.6-2.8-1.6-5.3c0-2.3,0.5-4.2,1.4-5.5c1.1-1.2,2.5-1.9,4.2-1.9c1.8,0,3.2,0.5,4,1.4l1.2,2.3h4.9
		l-1.6-3.9c-1.8-2.5-4.6-3.5-8.6-3.5c-3,0-5.3,0.9-7.2,2.6c-2.3,1.9-3.3,4.7-3.3,8.3c0,3.3,1.1,6.2,3,8.1
		C199,158.7,201.6,159.6,205.1,159.6z M221.1,159.1h4.9v-20.7h-4.9V159.1z M276.8,159.6c2.6,0,4.9-0.7,6.7-2.1s2.8-3.3,3.3-5.5h-4.9
		l-1.4,2.5c-0.7,1.1-2.1,1.4-3.9,1.4c-1.6,0-3-0.5-4-1.8c-1.2-1.2-1.6-2.8-1.6-5.3c0-2.3,0.5-4.2,1.4-5.5c1.1-1.2,2.5-1.9,4.2-1.9
		s3.2,0.5,4,1.4l1.2,2.3h4.9l-1.6-3.9c-1.8-2.5-4.6-3.5-8.6-3.5c-3,0-5.3,0.9-7.2,2.6c-2.3,1.9-3.3,4.7-3.3,8.3c0,3.3,1.1,6.2,3,8.1
		C270.7,158.7,273.3,159.6,276.8,159.6z M292.8,159.1h4.9v-4.2h-4.9V159.1z M308.5,150.3H319v-3.5h-10.5V142h12.1v-3.7h-17.1v20.7
		h4.9V150.3z M321.3,159.1h4.9v-4.2h-4.9V159.1z M200.7,398.9c-30.9,0-79.5-57.1-86.9-67.3c-46.8-63.5-57.7-118.7-61-139.3
		c-0.7-4.7-1.6-12.5-1.8-22.2v-4.2c0.2-20.6,4.4-49.1,21.5-77.9c22.3-38.7,47.6-58.2,63.1-67.5c7.2-4.4,12.1-6.5,13.7-7.2
		c4.6-2.3,6.7,0.5,6.7,0.5c19.2,22,31.3,5.1,31.3,5.1s-2.3-5.3-3.3-10.7c-1.1-5.3,3.7-5.3,5.8-5.3c2.3,0,5.8,4,5.8,4l5.3-0.9
		l5.3,0.9c0,0,3.5-4,5.8-4c2.1,0,6.7,0,5.8,5.3c-1.1,5.3-3.3,10.7-3.3,10.7s12.3,16.9,31.5-5.1c0,0,1.9-3,6.7-0.5
		c1.4,0.7,7,3.2,14.8,7.9c15.5,9.5,40.1,29.2,62.1,67c16.7,29,21.1,57.3,21.5,77.9v4.2c-0.2,9.7-1.1,17.4-1.9,22.2
		c-3.3,20.6-14.1,75.8-60.8,139.3C280.5,341.4,235.9,398.9,200.7,398.9z M267,35.5c-3.9-5.5-8.8-11.3-14.8-17.1l-0.5,1.2
		c0,0,7.7,7.7,15.5,19.3c7.9,11.8,15.6,27.3,15.3,42.9C282.3,81.9,284.8,61.1,267,35.5z M135.7,39c7.7-11.6,15.5-19.3,15.5-19.3
		l-0.7-1.2c-6.2,5.8-10.9,11.6-14.8,17.1c-18.1,25.7-15.5,46.4-15.5,46.4C119.8,66.2,127.7,50.6,135.7,39z M341.6,163.6h-29.4v114.5
		C336.1,227.1,344.7,178.4,341.6,163.6z M71.7,132.2h258.3c-2.5-4.7-5.3-9.5-8.4-14.4C299.2,84,280,88.9,280,88.9
		c-4.2-3.2-8.6-5.1-13-6.2c-19.5-4.2-38.7,10.2-40.4,29.7c0,0,2.6,3.5,0.4,5.6c-2.3,1.9-3.3,0.4-3.3,0.4l-6.3-6.3
		c-11.1,0-16.5,13.9-16.5,13.9s-5.1-13.9-16.4-13.9l-6.2,6.3c0,0-1.1,1.6-3.3-0.4c-2.5-2.1,0.4-5.6,0.4-5.6
		c-1.9-19.2-20.6-33.6-39.6-29.9c-4.7,0.9-9.5,3-14.1,6.2c0,0-19.3-4.9-41.5,28.8C76.8,122.7,74.1,127.6,71.7,132.2z M91.2,280.7
		V163.6H60.4C55.8,193.2,70.3,238.7,91.2,280.7z M154.3,365.3V163.6h-31.6V331C132.5,343.7,143.4,355.5,154.3,365.3z M217.4,387.3
		v-112c15.1-6.3,25.8-21.5,25.8-39c0-17.8-10.7-32.7-25.8-39.2v-33.4h-31.6v33.1c-15.6,6.2-26.7,21.5-26.7,39.6
		c0,17.9,11.1,33.2,26.7,39.4v111.5c5.1,2.3,10,4,14.8,4.6C205.6,391.7,211.3,390.1,217.4,387.3z M249.1,163.6v201
		c10.9-10.2,21.6-22.3,31.5-35V163.8h-31.5V163.6z M241.5,151.2h-3l3.2-8.1l3,8.1H241.5z M108.9,151.2h-3.2l3.2-8.1l3.2,8.1H108.9z"
		/>
	<g>
		<g>
			<path fill="none" d="M286.9,152h-4.9l-1.4,2.5c-0.7,1.1-2.1,1.4-3.9,1.4c-1.6,0-3-0.5-4-1.8c-1.2-1.2-1.6-2.8-1.6-5.3
				c0-2.3,0.5-4.2,1.4-5.5c1.1-1.2,2.5-1.9,4.2-1.9s3.2,0.5,4,1.4l1.2,2.3h4.9l-1.6-3.9c-1.8-2.5-4.6-3.5-8.6-3.5
				c-3,0-5.3,0.9-7.2,2.6c-2.3,1.9-3.3,4.7-3.3,8.3c0,3.3,1.1,6.2,3,8.1c1.6,1.9,4.2,2.8,7.7,2.8c2.6,0,4.9-0.7,6.7-2.1
				C285.3,156.1,286.3,154.1,286.9,152z"/>
			<rect x="292.8" y="154.8" fill="none" width="4.9" height="4.2"/>
			<polygon fill="none" points="308.5,150.3 319,150.3 319,146.8 308.5,146.8 308.5,142 320.6,142 320.6,138.3 303.6,138.3 
				303.6,159.1 308.5,159.1 			"/>
			<path fill="none" d="M241.5,138.3h-2.6l-8.4,20.7h5.3l1.6-4.2h4.4h4.4l1.4,4.2h5.5l-8.4-20.7H241.5z M241.5,151.2h-3l3.2-8.1
				l3,8.1H241.5z"/>
			<rect x="221.1" y="138.3" fill="none" width="4.9" height="20.7"/>
			<path fill="none" d="M208.8,154.5c-0.9,1.1-2.3,1.4-4,1.4c-1.6,0-3-0.5-4-1.8c-1.2-1.2-1.6-2.8-1.6-5.3c0-2.3,0.5-4.2,1.4-5.5
				c1.1-1.2,2.5-1.9,4.2-1.9s3.2,0.5,4,1.4l1.2,2.3h4.9l-1.6-3.9c-1.8-2.5-4.6-3.5-8.6-3.5c-3,0-5.3,0.9-7.2,2.6
				c-2.3,1.9-3.3,4.7-3.3,8.3c0,3.3,1.1,6.2,3,8.1c1.8,1.9,4.4,2.8,7.9,2.8c2.6,0,4.9-0.7,6.7-2.1c1.8-1.4,2.8-3.3,3.3-5.5H210
				L208.8,154.5z"/>
			<polygon fill="none" points="128.6,138.3 123.5,138.3 123.5,159.1 140.4,159.1 140.4,155.4 128.6,155.4 			"/>
			<path fill="none" d="M108.9,138.3h-2.6l-8.4,20.7h4.9l1.6-4.2h4.4h4.6l1.4,4.2h5.3l-8.3-20.7H108.9z M108.9,151.2h-3.2l3.2-8.1
				l3.2,8.1H108.9z"/>
			<polygon fill="none" points="184,152.7 174.3,138.1 169.1,138.1 169.1,158.9 173.6,158.9 173.6,144.1 173.6,144.1 183.5,158.9 
				188.6,158.9 188.6,138.1 184,138.1 			"/>
			<polygon fill="none" points="150.6,149.9 161.9,149.9 161.9,146.4 150.6,146.4 150.6,142.2 162.9,142.2 162.9,138.5 145.7,138.5 
				145.7,159.2 163.4,159.2 163.4,155.4 150.6,155.4 			"/>
			<path fill="#3890D1" d="M312.2,164.9v-1.2h12.7v-4.6h-3.5v-4.2h3.5v-22.7H83.1v7.7l4.7,14.1l5.3-15.6h5.3l-8.1,20.7h-4.6
				l-2.6-6.5v11.1h8.1v1.2h31.5v-1.2h31.6v1.2h31.5v-1.2h31.6v1.2h31.6v-1.1h31.5v1.1H312.2z M114.7,159.1l-1.4-4.2h-4.6h-4.4
				l-1.6,4.2h-4.9l8.4-20.7h2.6h2.8l8.3,20.7H114.7z M140.4,159.1h-16.9v-20.7h5.1v17.1h11.8V159.1z M163.4,159.2h-17.8v-20.7h17.2
				v3.7h-12.3v4.2h11.3v3.5h-11.3v5.5h12.8V159.2z M188.6,158.9h-5.1l-9.8-14.8h0v14.8h-4.6v-20.7h5.3l9.7,14.6v-14.6h4.6V158.9z
				 M211.8,157.5c-1.8,1.4-4,2.1-6.7,2.1c-3.5,0-6.2-0.9-7.9-2.8c-1.9-1.9-3-4.7-3-8.1c0-3.5,1.1-6.3,3.3-8.3
				c1.9-1.8,4.2-2.6,7.2-2.6c4,0,6.9,1.1,8.6,3.5l1.6,3.9H210l-1.2-2.3c-0.9-0.9-2.3-1.4-4-1.4s-3.2,0.7-4.2,1.9
				c-0.9,1.2-1.4,3.2-1.4,5.5c0,2.5,0.4,4,1.6,5.3c1.1,1.2,2.5,1.8,4,1.8c1.8,0,3.2-0.4,4-1.4l1.2-2.5h5.1
				C214.6,154.1,213.6,156.1,211.8,157.5z M303.6,138.3h17.1v3.7h-12.1v4.7H319v3.5h-10.5v8.8h-4.9V138.3z M292.8,154.8h4.9v4.2
				h-4.9V154.8z M226,159.1h-4.9v-20.7h4.9V159.1z M247.5,159.1l-1.4-4.2h-4.4h-4.4l-1.6,4.2h-5.3l8.4-20.7h2.6h3l8.4,20.7H247.5z
				 M276.8,159.6c-3.5,0-6.2-0.9-7.7-2.8c-1.9-1.9-3-4.7-3-8.1c0-3.5,1.1-6.3,3.3-8.3c1.9-1.8,4.2-2.6,7.2-2.6c4,0,6.9,1.1,8.6,3.5
				l1.6,3.9h-4.9l-1.2-2.3c-0.9-0.9-2.3-1.4-4-1.4s-3.2,0.7-4.2,1.9c-0.9,1.2-1.4,3.2-1.4,5.5c0,2.5,0.4,4,1.6,5.3
				c1.1,1.2,2.5,1.8,4,1.8c1.8,0,3.2-0.4,3.9-1.4l1.4-2.5h4.9c-0.5,2.1-1.6,4-3.3,5.5C281.8,158.9,279.5,159.6,276.8,159.6z"/>
			<polygon fill="#3890D1" points="238.5,151.2 241.5,151.2 244.7,151.2 241.7,143.1 			"/>
			<polygon fill="#3890D1" points="105.8,151.2 108.9,151.2 112.1,151.2 108.9,143.1 			"/>
		</g>
		<g>
			
				<line fill="none" stroke="#000000" stroke-width="0" stroke-linecap="round" stroke-linejoin="round" x1="185.8" y1="164.9" x2="154.3" y2="164.9"/>
			
				<line fill="none" stroke="#000000" stroke-width="0" stroke-linecap="round" stroke-linejoin="round" x1="91.2" y1="164.9" x2="122.6" y2="164.9"/>
			
				<line fill="none" stroke="#000000" stroke-width="0" stroke-linecap="round" stroke-linejoin="round" x1="312.2" y1="164.9" x2="280.5" y2="164.9"/>
			
				<line fill="none" stroke="#000000" stroke-width="0" stroke-linecap="round" stroke-linejoin="round" x1="217.4" y1="164.9" x2="249.1" y2="164.9"/>
			<rect x="324.8" y="132.2" width="0.2" height="22.7"/>
			<rect x="324.8" y="159.1" width="0.2" height="4.6"/>
			<polygon points="83.1,139.9 83.3,140.4 83.3,132.2 83.1,132.2 			"/>
			<polygon points="83.1,152.6 83.1,163.6 83.3,163.6 83.3,153 			"/>
		</g>
		<g>
			
				<line fill="none" stroke="#C42B1A" stroke-width="0" stroke-linecap="round" stroke-linejoin="round" x1="185.8" y1="163.6" x2="217.4" y2="163.6"/>
			
				<line fill="none" stroke="#C42B1A" stroke-width="0" stroke-linecap="round" stroke-linejoin="round" x1="332.2" y1="163.6" x2="312.2" y2="163.6"/>
			
				<line fill="none" stroke="#C42B1A" stroke-width="0" stroke-linecap="round" stroke-linejoin="round" x1="154.3" y1="163.6" x2="122.6" y2="163.6"/>
			
				<line fill="none" stroke="#C42B1A" stroke-width="0" stroke-linecap="round" stroke-linejoin="round" x1="91.2" y1="163.6" x2="68" y2="163.6"/>
			<path fill="#C42B1A" d="M208.2,390.6c-2.7,0.7-5.2,1-7.6,1c-0.2,0-0.3,0-0.5-0.1c0.1,0,0.2,0,0.3,0.1
				C202.7,391.8,205.3,391.4,208.2,390.6z"/>
			<path fill="#C42B1A" d="M307.8,287.1c1.6-2.9,3-5.9,4.4-9V163.6h-94.8V197c15.1,6.5,25.8,21.5,25.8,39.2
				c0,17.6-10.7,32.7-25.8,39v111.8c9.1-4.3,19.8-11.8,31.5-22.5c0.1-0.1,0.1-0.1,0.2-0.2V163.8h31.5v165.6
				C289.7,317.5,298.8,302.5,307.8,287.1z"/>
			<path fill="#C42B1A" d="M154.3,365.1c1.3,1.2,2.7,2.4,4,3.6c9.8,8.5,18.9,14.4,27.4,18.3V275.6c-15.6-6.2-26.7-21.5-26.7-39.4
				c0-18.1,11.1-33.4,26.7-39.6v-33.1h-31.5V365.1z"/>
			<path fill="#C42B1A" d="M91.2,280.4c0.1,0.2,0.2,0.5,0.4,0.7c3.3,6.7,7,13.5,11.4,20.6c6,9.8,12.4,19.7,19.7,29.2V163.6H91.2
				V280.4z"/>
		</g>
	</g>
	<path fill="#993426" d="M210.2,275.8c4.2-1.8,20.2-9.1,20.4-34.8c0.2-10.5-2.6-26-12.3-32.7c-6.7-0.9-11.1,2.1-12.8,7.6
		c2.6,1.8,11.6,8.8,6.5,24.8l0.5,0.9c4.4,8.6,3.5,19-5.5,24.3l-4.2,1.9C204.2,271.8,206.9,274.2,210.2,275.8z M201.2,281.6
		c-25,0-45.4-20.2-45.4-45.4s20.2-45.5,45.4-45.5c25,0,45.2,20.2,45.2,45.5C246.4,261.2,226.2,281.6,201.2,281.6z M167.1,261
		c4.4,6,10.4,10.9,17.2,13.9c-1.8-2.5-3.2-5.3-3.7-7.9C177,263.2,172.6,260.2,167.1,261z M159,237.5c0.2,8.1,2.8,15.5,6.9,21.8
		c6.2-1.4,11.8,1.4,15.8,6c2.3-1.8,8.8-5.5,20,1.1c11.3-3.2,13.9-14.1,9-23.4l-0.4-0.5C206,243.6,184.5,249.1,159,237.5z
		 M165.7,213.2c-4,6.3-6.5,13.9-6.7,22c13.9,6.5,26.7,7.7,36,7.4c7.2-0.4,12.7-1.8,15.1-2.5c2.6-8.1,1.9-17.8-5.8-22.5
		c-5.6,2.5-12.1,3.5-17.4-0.2c-7.7,3.7-15.6,2.8-21.1-3.7L165.7,213.2z M199.7,193.9c-13.5,0.5-25.3,7.4-32.7,17.6l0.7,0.9
		c5.1,6,11.6,6.3,18.5,3.2C185.8,212.9,186.3,203.9,199.7,193.9z M225.9,201.8c-6.3-4.6-14.2-7.6-22.5-7.9
		c-6.5,4.4-14.8,12-15.1,20.4v1.4l0.7,0.5c4.6,2.6,10,1.9,14.6-0.4c1.9-6.5,7.2-10.5,14.4-9.7l0.5-0.5
		C220.6,203.5,223,202.1,225.9,201.8z M213,276.9c17.4-5.1,30.2-21.3,30.2-40.6c0-13-5.8-24.8-14.9-32.5c-3.2-0.4-6.2,1.1-8.4,3.2
		c3.3,2.5,13,11.4,12.8,33.9C232.5,264.9,219.2,273.7,213,276.9L213,276.9z M201.2,278.5c2.8,0,5.6-0.4,8.3-0.9
		c-3.9-1.8-6.9-4.6-8.4-8.6l-0.4-1.1c-5.8-3.3-12.8-5.3-17.9-0.9l0.7,2.1c0.7,1.9,2.1,4.4,4.4,7
		C192.1,277.7,196.5,278.5,201.2,278.5z"/>
	<path fill="#C18A17" d="M210.2,275.8c4.2-1.8,20.2-9.1,20.4-34.8c0.2-10.5-2.6-26-12.3-32.7c-6.7-0.9-11.1,2.1-12.8,7.6
		c2.6,1.8,11.6,8.8,6.5,24.8l0.5,0.9c4.4,8.6,3.5,19-5.5,24.3l-4.2,1.9C204.2,271.8,206.9,274.2,210.2,275.8z"/>
	<path fill="#C18A17" d="M167.1,261c4.4,6,10.4,10.9,17.2,13.9c-1.8-2.5-3.2-5.3-3.7-7.9C177,263.2,172.6,260.2,167.1,261z"/>
	<path fill="#C18A17" d="M159,237.5c0.2,8.1,2.8,15.5,6.9,21.8c6.2-1.4,11.8,1.4,15.8,6c2.3-1.8,8.8-5.5,20,1.1
		c11.3-3.2,13.9-14.1,9-23.4l-0.4-0.5C206,243.6,184.5,249.1,159,237.5z"/>
	<path fill="#C18A17" d="M165.7,213.2c-4,6.3-6.5,13.9-6.7,22c13.9,6.5,26.7,7.7,36,7.4c7.2-0.4,12.7-1.8,15.1-2.5
		c2.6-8.1,1.9-17.8-5.8-22.5c-5.6,2.5-12.1,3.5-17.4-0.2c-7.7,3.7-15.6,2.8-21.1-3.7L165.7,213.2z"/>
	<path fill="#C18A17" d="M199.7,193.9c-13.5,0.5-25.3,7.4-32.7,17.6l0.7,0.9c5.1,6,11.6,6.3,18.5,3.2
		C185.8,212.9,186.3,203.9,199.7,193.9z"/>
	<path fill="#C18A17" d="M225.9,201.8c-6.3-4.6-14.2-7.6-22.5-7.9c-6.5,4.4-14.8,12-15.1,20.4v1.4l0.7,0.5c4.6,2.6,10,1.9,14.6-0.4
		c1.9-6.5,7.2-10.5,14.4-9.7l0.5-0.5C220.6,203.5,223,202.1,225.9,201.8z"/>
	<path fill="#C18A17" d="M213,276.9c17.4-5.1,30.2-21.3,30.2-40.6c0-13-5.8-24.8-14.9-32.5c-3.2-0.4-6.2,1.1-8.4,3.2
		c3.3,2.5,13,11.4,12.8,33.9C232.5,264.9,219.2,273.7,213,276.9L213,276.9z"/>
	<path fill="#C18A17" d="M201.2,278.5c2.8,0,5.6-0.4,8.3-0.9c-3.9-1.8-6.9-4.6-8.4-8.6l-0.4-1.1c-5.8-3.3-12.8-5.3-17.9-0.9l0.7,2.1
		c0.7,1.9,2.1,4.4,4.4,7C192.1,277.7,196.5,278.5,201.2,278.5z"/>
	<path fill="#3890D1" d="M323.8,163.6h17.8c-2.1-10-6-20.6-11.6-31.5h-6.2v22.7h2.5v4.2h-2.5V163.6z"/>
	<path fill="#3890D1" d="M60.4,163.6H88v-4.6h-2.3l-8.1-20.7h5.3L88,154v-21.6H71.7C66,143.1,62.3,153.6,60.4,163.6z"/>
</g>
<g>
</g>
<g>
</g>
<g>
</g>
<g>
</g>
<g>
</g>
<g>
</g>
<g>
</g>
<g>
</g>
<g>
</g>
<g>
</g>
<g>
</g>
<g>
</g>
<g>
</g>
<g>
</g>
<g>
</g>
</svg>
