<?xml version="1.0" encoding="utf-8"?>
<!-- Generator: Adobe Illustrator 22.0.1, SVG Export Plug-In . SVG Version: 6.00 Build 0)  -->
<svg version="1.2" baseProfile="tiny" id="Capa_1" xmlns="http://www.w3.org/2000/svg" xmlns:xlink="http://www.w3.org/1999/xlink"
	 x="0px" y="0px" viewBox="0 0 400 400" xml:space="preserve">
<rect x="3.5" y="2.6" fill="none" width="394.6" height="394.6"/>
<g>
	<g>
		<g>
			<path fill="none" d="M200.6,245.3"/>
			
				<path fill="none" stroke="#003D6E" stroke-width="0.352" stroke-miterlimit="3.8637" stroke-dasharray="84.8191,14.1366,14.1366,14.1366,14.1366,14.1366" d="
				M200.6,245.3"/>
		</g>
		<g>
			<path fill="#F6E254" d="M200.6,0c5.4,0,9.9,4.5,9.9,10.1c0,1.6-0.3,3.1-1,4.5h0.5c5.6,0,10.1,4.5,10.1,10.1s-4.5,10.1-10.1,10.1
				c-2.1,0-3.8-0.7-5.6-1.7c0,11.5,9.2,20.5,20.5,20.5c9.7,0,17.7-6.6,20-15.7c-1.6,0.5-3.7,0.7-5.4,0.3c-5.4-1.2-8.7-6.6-7.5-12
				c1.2-5.4,6.6-8.7,12-7.5h0.3c-0.3-1.4-0.3-3.1,0-4.7c1.2-5.4,6.6-8.7,12-7.5c5.4,1.2,8.7,6.6,7.5,12c-0.3,1.6-1,3-2.1,4.2
				l0.5,0.2c5.4,1.2,8.7,6.6,7.5,12c-1.2,5.4-6.6,8.7-12,7.5c-1.7-0.3-3.3-1.2-4.5-2.3l-0.2,0.3c-2.6,11,4.3,22.1,15.3,24.5
				c9.6,2.1,15.8-0.7,19-3.8c-1.6-0.3-3.3-1-4.7-2.3c-4.2-3.5-4.9-9.9-1.2-14.1c3.5-4.2,9.9-4.9,14.1-1.2l2.6,2.4
				c3.5-6.1,4-7.1,5.7-9.9c3-4.7,7.7-3.3,12.5-0.2l7.7,5.2l-14.4,15c0.3,0.9,0.5,1.9,0.5,3c0,4.9-4,8.9-8.9,8.9c-1.4,0-2.8,0-4-0.7
				c-8.4,7-19.8,10.1-31.3,7.5c-9.6-2.3-17.2-8-22.3-15.5l0.3-0.3c-7.7,4.5-17.1,6.1-26.3,4c-7.1-1.6-13.2-5.2-17.7-10.1
				c-4.5,4.9-10.6,8.4-17.7,10.1c-9.4,2.1-18.4,1-26.3-3.5l-0.2,0.2c-4.9,7.7-12.4,13-21.9,15.3c-11.5,2.6-23-0.5-31.3-7.5
				c-1.2,0.5-2.4,0.7-3.8,0.7c-4.9,0-8.9-4-8.9-8.9c0-1,0.2-2.1,0.5-3L76,41.4l7.7-5.2c4.9-3.1,9.6-4.5,12.5,0.2
				c1.7,2.8,2.3,3.7,5.7,9.9l2.6-2.4c4.2-3.5,10.6-3,14.1,1.2s3,10.6-1.2,14.1c-1.4,1.2-3.1,1.9-4.7,2.3c3.3,3.3,9.4,5.9,19,3.8
				c11.1-2.4,17.9-13.6,15.3-24.5l-0.2-0.3c-1.2,1-2.8,1.9-4.5,2.3c-5.4,1.2-10.8-2.1-12-7.5c-1.2-5.4,2.1-10.8,7.5-12l0.5-0.2
				c-1-1.2-1.7-2.6-2.1-4.2c-1.2-5.4,2.1-10.8,7.5-12c5.4-1.2,10.8,2.1,12,7.5c0.3,1.6,0.3,3.1,0,4.7h0.3c5.4-1.2,10.8,2.1,12,7.5
				c1.2,5.4-2.1,10.8-7.5,12c-1.7,0.3-3.8,0.2-5.4-0.3c2.1,9,10.3,15.7,20,15.7c11.3,0,20.4-9.2,20.5-20.5c-1.7,1-3.5,1.7-5.6,1.7
				c-5.6,0-10.1-4.5-10.1-10.1s4.5-10.1,10.1-10.1h0.7c-0.7-1.4-1-3-1-4.5C190.7,4.3,195.2,0,200.6,0z"/>
			<path fill="none" stroke="#003D6E" stroke-width="0.8779" stroke-miterlimit="3.8637" d="M200.6,0c5.4,0,9.9,4.5,9.9,10.1
				c0,1.6-0.3,3.1-1,4.5h0.5c5.6,0,10.1,4.5,10.1,10.1s-4.5,10.1-10.1,10.1c-2.1,0-3.8-0.7-5.6-1.7c0,11.5,9.2,20.5,20.5,20.5
				c9.7,0,17.7-6.6,20-15.7c-1.6,0.5-3.7,0.7-5.4,0.3c-5.4-1.2-8.7-6.6-7.5-12c1.2-5.4,6.6-8.7,12-7.5h0.3c-0.3-1.4-0.3-3.1,0-4.7
				c1.2-5.4,6.6-8.7,12-7.5c5.4,1.2,8.7,6.6,7.5,12c-0.3,1.6-1,3-2.1,4.2l0.5,0.2c5.4,1.2,8.7,6.6,7.5,12c-1.2,5.4-6.6,8.7-12,7.5
				c-1.7-0.3-3.3-1.2-4.5-2.3l-0.2,0.3c-2.6,11,4.3,22.1,15.3,24.5c9.6,2.1,15.8-0.7,19-3.8c-1.6-0.3-3.3-1-4.7-2.3
				c-4.2-3.5-4.9-9.9-1.2-14.1c3.5-4.2,9.9-4.9,14.1-1.2l2.6,2.4c3.5-6.1,4-7.1,5.7-9.9c3-4.7,7.7-3.3,12.5-0.2l7.7,5.2l-14.4,15
				c0.3,0.9,0.5,1.9,0.5,3c0,4.9-4,8.9-8.9,8.9c-1.4,0-2.8,0-4-0.7c-8.4,7-19.8,10.1-31.3,7.5c-9.6-2.3-17.2-8-22.3-15.5l0.3-0.3
				c-7.7,4.5-17.1,6.1-26.3,4c-7.1-1.6-13.2-5.2-17.7-10.1c-4.5,4.9-10.6,8.4-17.7,10.1c-9.4,2.1-18.4,1-26.3-3.5l-0.2,0.2
				c-4.9,7.7-12.4,13-21.9,15.3c-11.5,2.6-23-0.5-31.3-7.5c-1.2,0.5-2.4,0.7-3.8,0.7c-4.9,0-8.9-4-8.9-8.9c0-1,0.2-2.1,0.5-3
				L76,41.4l7.7-5.2c4.9-3.1,9.6-4.5,12.5,0.2c1.7,2.8,2.3,3.7,5.7,9.9l2.6-2.4c4.2-3.5,10.6-3,14.1,1.2s3,10.6-1.2,14.1
				c-1.4,1.2-3.1,1.9-4.7,2.3c3.3,3.3,9.4,5.9,19,3.8c11.1-2.4,17.9-13.6,15.3-24.5l-0.2-0.3c-1.2,1-2.8,1.9-4.5,2.3
				c-5.4,1.2-10.8-2.1-12-7.5c-1.2-5.4,2.1-10.8,7.5-12l0.5-0.2c-1-1.2-1.7-2.6-2.1-4.2c-1.2-5.4,2.1-10.8,7.5-12
				c5.4-1.2,10.8,2.1,12,7.5c0.3,1.6,0.3,3.1,0,4.7h0.3c5.4-1.2,10.8,2.1,12,7.5c1.2,5.4-2.1,10.8-7.5,12c-1.7,0.3-3.8,0.2-5.4-0.3
				c2.1,9,10.3,15.7,20,15.7c11.3,0,20.4-9.2,20.5-20.5c-1.7,1-3.5,1.7-5.6,1.7c-5.6,0-10.1-4.5-10.1-10.1s4.5-10.1,10.1-10.1h0.7
				c-0.7-1.4-1-3-1-4.5C190.7,4.3,195.2,0,200.6,0z"/>
		</g>
		<g>
			<g>
				<path fill="#FFFFFF" d="M40.6,226c0-88.6,71.7-160.2,160.2-160.2S361,137.5,361,226s-71.7,160.2-160.2,160.2
					C112.2,386.3,40.6,314.4,40.6,226z"/>
				<path fill="#FFFFFF" d="M200.8,226"/>
			</g>
			<g>
				<path fill="none" stroke="#003D6E" stroke-width="0.8779" stroke-miterlimit="3.8637" d="M40.6,226
					c0-88.6,71.7-160.2,160.2-160.2S361,137.5,361,226s-71.7,160.2-160.2,160.2C112.2,386.3,40.6,314.4,40.6,226z"/>
				<path fill="none" stroke="#003D6E" stroke-width="0.8779" stroke-miterlimit="3.8637" d="M200.8,226"/>
			</g>
		</g>
		<g>
			<g>
				<path fill="#003D6E" d="M46.5,226.9c0-85.1,68.9-154,154-154s154,68.9,154,154s-68.9,154-154,154
					C115.4,380.7,46.5,311.8,46.5,226.9z"/>
				<path fill="#003D6E" d="M200.4,226.9"/>
			</g>
		</g>
		<g>
			<path fill="#FFFFFF" d="M225.5,83.3l34.4,44.9l36.9,0.2v26.1h-16.7l53.6,71.7L218.2,382.8l-34.4,0.2L68,226l54.5-71.5h-19v-26.1
				h38.1l33.9-44.9c0,0,13.2-1.7,24.5-1.7C209.5,81.4,225.5,83.3,225.5,83.3z"/>
		</g>
		<g>
			<g>
				<g>
					<path id="SVGID_1_" fill="#F6E254" d="M154.7,114.7c-15.5-0.3-29.2-8.9-36.4-21.4c-0.7-1.2-0.9-2.6-0.9-4
						c0-3.1,1.7-5.9,4.5-7.1c23.8-11,50.5-17.1,78.5-17.1c27.5,0,53.4,5.9,77.1,16.4h-0.2c2.6,1.2,4.7,4,4.7,7.3
						c0,1.6-0.7,3.5-1.4,4.5c-7.5,12.7-21.4,21.4-37.1,21.4c-1.9,0-5.2,0-5.2,0L154.7,114.7z"/>
				</g>
				<g>
					<path d="M246.6,114.2l-8.9-12.7l5.7-2.7l2.5-5.3l1.9,6l1.8-0.3l3.5-4l2.5,3.7l-1.7,5l7-0.5l7.1-1.8
						c-20.4-10-43.2-15.6-67.4-15.8c-2.2,0-4.4,0-6.5,0.1c-24.2,0.8-47.1,7.2-67.4,17.8c7.4,6.7,17.3,10.8,28,11.1h83.7
						c0,0,3.3,0,5.2,0c8.8,0,17.1-2.8,24-7.5c-6.4,3.8-13.9,6.7-20.9,7L246.6,114.2z"/>
					<path d="M132.5,99.5c-2.7,1.4-4.9,2.5-6.9,3.1c0.4,0.4,0.7,0.7,1.1,1c20.3-10.7,43.1-17,67.4-17.8
						C157.3,86.7,141.9,94.6,132.5,99.5z"/>
					<path d="M268.5,101.3c-2.9-2.2-22.9-15.7-67.2-15.7c-0.3,0-0.5,0-0.8,0c24.1,0.2,47,5.8,67.4,15.8L268.5,101.3z"/>
					<path fill="#F6E254" d="M132.3,99.1c10.1-5.2,26.9-13.9,69.1-13.9c48.1,0,67.6,15.9,67.8,16.1l0.4,0.3l-8.6,2.2l-7.7,0.6
						l1.8-5.4l-2-3l-3.2,3.7l-2.4,0.4l-1.6-5.2l-2,4.4l-5.4,2.5l8.5,12c8.5-0.5,17.7-4.6,24.8-9.7c3.5-3.1,6.6-6.7,9-10.8
						c0.7-1,1.4-3,1.4-4.5c0-3.3-2.1-6.1-4.7-7.3h0.2c-23.7-10.4-49.6-16.4-77.1-16.4c-28,0-54.6,6.1-78.5,17.1
						c-2.8,1.2-4.5,4-4.5,7.1c0,1.4,0.2,2.8,0.9,4c1.9,3.3,4.2,6.3,6.9,8.9C127.2,101.7,129.4,100.6,132.3,99.1z"/>
					<path d="M132.5,99.5c9.4-4.9,24.9-12.8,61.6-13.7c2.1-0.1,4.3-0.1,6.5-0.1c0.3,0,0.5,0,0.8,0c44.3,0,64.2,13.5,67.2,15.7
						l-0.6,0.1l-7.1,1.8l-7,0.5l1.7-5l-2.5-3.7l-3.5,4l-1.8,0.3l-1.9-6l-2.5,5.3l-5.7,2.7l8.9,12.7l0.1,0c7-0.3,14.4-3.2,20.9-7
						c1.4-1,2.8-2,4.1-3.1c-7.1,5.1-16.3,9.2-24.8,9.7l-8.5-12l5.4-2.5l2-4.4l1.6,5.2l2.4-0.4l3.2-3.7l2,3l-1.8,5.4l7.7-0.6l8.6-2.2
						l-0.4-0.3c-0.2-0.2-19.8-16.1-67.8-16.1c-42.1,0-59,8.7-69.1,13.9c-2.9,1.5-5.1,2.6-7.1,3.1c0.1,0.1,0.3,0.2,0.4,0.4
						C127.6,102,129.8,100.9,132.5,99.5z"/>
				</g>
				<g>
					<path id="SVGID_2_" fill="none" stroke="#000000" stroke-width="0.8779" stroke-miterlimit="3.8637" d="M154.7,114.7
						c-15.5-0.3-29.2-8.9-36.4-21.4c-0.7-1.2-0.9-2.6-0.9-4c0-3.1,1.7-5.9,4.5-7.1c23.8-11,50.5-17.1,78.5-17.1
						c27.5,0,53.4,5.9,77.1,16.4h-0.2c2.6,1.2,4.7,4,4.7,7.3c0,1.6-0.7,3.5-1.4,4.5c-7.5,12.7-21.4,21.4-37.1,21.4
						c-1.9,0-5.2,0-5.2,0L154.7,114.7z"/>
				</g>
			</g>
		</g>
		<g>
			<g>
				<g>
					<path id="SVGID_3_" fill="#F6E254" d="M224.8,88l104.4,138L200.6,400L72.2,225.7l104.4-138c0,0,12.9-1.7,23.8-1.7
						C209.5,86.1,224.8,88,224.8,88z"/>
				</g>
				<g>
					<polygon fill="#EC2E38" points="100.1,252.5 127.1,286.2 127.1,166.4 100.1,200.8 					"/>
					<path fill="#EC2E38" d="M129,161.1l-30.7,39.1v53l30.7,38.3V161.1z M127.1,286.2l-27-33.7v-51.7l27-34.4V286.2z"/>
					<polygon fill="#EC2E38" points="156.8,330.4 183.9,365 183.9,91.8 156.8,127.7 					"/>
					<path fill="#EC2E38" d="M185.7,86.7c-0.1,0-0.2,0-0.3,0L155,127.1v204l30.7,39.2V86.7z M183.9,365l-27-34.5V127.7l27-35.8V365z
						"/>
					<polygon fill="#EC2E38" points="300.8,200.9 274.3,166.8 274.3,285.3 300.8,252.1 					"/>
					<path fill="#EC2E38" d="M302.6,252.8v-52.5l-30.2-38.9v129.2L302.6,252.8z M274.3,166.8l26.5,34.2v51.2l-26.5,33.2V166.8z"/>
					<polygon fill="#EC2E38" points="217.9,365.2 244.8,329.7 244.8,127.8 217.4,91 					"/>
					<path fill="#EC2E38" d="M246.6,330.4V127.2l-29.8-40.1c-0.4,0-0.8-0.1-1.3-0.1l0.5,281l0,2.7l30.4-40.1L246.6,330.4z
						 M244.8,329.7l-26.9,35.5L217.4,91l27.4,36.8V329.7z"/>
				</g>
				<g>
					<path id="SVGID_4_" fill="none" stroke="#003D6E" stroke-width="0.8779" stroke-miterlimit="3.8637" d="M224.8,88l104.4,138
						L200.6,400L72.2,225.7l104.4-138c0,0,12.9-1.7,23.8-1.7C209.5,86.1,224.8,88,224.8,88z"/>
				</g>
			</g>
		</g>
		<g>
			<g>
				<path fill="#EC2E38" d="M194.5,22.8c0-3.5,2.8-6.3,6.3-6.3c3.5,0,6.3,2.8,6.3,6.3s-2.8,6.3-6.3,6.3
					C197.3,29.1,194.5,26.3,194.5,22.8z"/>
				<path fill="#EC2E38" d="M200.8,22.8"/>
			</g>
		</g>
		<g>
			<g>
				<path fill="#EC2E38" d="M143.9,29.2c0-3.5,2.8-6.3,6.3-6.3s6.3,2.8,6.3,6.3s-2.8,6.3-6.3,6.3C146.7,35.5,143.9,32.7,143.9,29.2z
					"/>
				<path fill="#EC2E38" d="M150.2,29.2"/>
			</g>
		</g>
		<g>
			<g>
				<path fill="#EC2E38" d="M245.7,29.2c0-3.5,2.8-6.3,6.3-6.3c3.5,0,6.3,2.8,6.3,6.3s-2.8,6.3-6.3,6.3
					C248.5,35.5,245.7,32.7,245.7,29.2z"/>
				<path fill="#EC2E38" d="M251.9,29.2"/>
			</g>
		</g>
		<g>
			<g>
				<path fill="#EC2E38" d="M297.5,61.2c0-3.5,2.8-6.3,6.3-6.3c3.5,0,6.3,2.8,6.3,6.3s-2.8,6.3-6.3,6.3
					C300.3,67.5,297.5,64.5,297.5,61.2z"/>
				<path fill="#EC2E38" d="M303.6,61.2"/>
			</g>
		</g>
		<g>
			<g>
				<polygon fill="#EC2E38" points="200.4,68.7 185.7,74.5 200.4,81.1 215.1,74.6 				"/>
			</g>
		</g>
		<g>
			<polygon fill="#003D6E" points="135,81.4 123.4,92 139.6,92.9 150.9,81.6 			"/>
		</g>
		<g>
			<polygon fill="#003D6E" points="265.3,81.4 277,92 261,92.9 249.5,81.6 			"/>
		</g>
		<g>
			<g>
				<g>
					<path d="M153.3,190.2c-4.9-3-9-4.2-14.4-4.2c-20,0-34.4,17.4-34.4,41.2c0,22.4,14.8,40.2,33.6,40.2c5.6,0,9.7-1.2,15.3-4.2v-23
						c-3.5,3.3-7.1,5-11,5c-9,0-15.1-7.7-15.1-18.8c0-10.4,6.4-18.3,15-18.3c4,0,7.1,1.4,11.3,4.9v-23H153.3z"/>
				</g>
			</g>
			<g>
				<g>
					<polygon points="297.2,204.1 297.2,187 251.3,187 251.3,267.2 272.1,267.2 272.1,234.2 294.9,234.2 294.9,217.1 272.1,217.1 
						272.1,204.1 					"/>
				</g>
			</g>
		</g>
		<g>
			<polygon points="105.8,130.3 105.8,152.1 148.9,152.1 200.1,329.5 249.5,152.1 294.4,152.1 294.4,130.3 233.5,130.3 200.6,250.2 
				167.6,130.3 			"/>
		</g>
		<g>
			<g>
				<polygon fill="#FBE676" points="145.8,97.1 150.3,104 150,110 154.7,109.6 167.6,90.8 				"/>
				<polygon fill="none" stroke="#000000" stroke-width="0.8057" stroke-miterlimit="3.8637" points="145.8,97.1 150.3,104 150,110 
					154.7,109.6 167.6,90.8 				"/>
			</g>
		</g>
		<g>
			<g>
				<path fill="#EC2E38" d="M97.4,61.2"/>
				<path fill="#EC2E38" d="M91.2,61.2c0-3.5,2.8-6.3,6.3-6.3s6.3,2.8,6.3,6.3s-2.8,6.3-6.3,6.3C94,67.3,91.2,64.5,91.2,61.2z"/>
			</g>
		</g>
	</g>
</g>
<g>
</g>
<g>
</g>
<g>
</g>
<g>
</g>
<g>
</g>
<g>
</g>
<g>
</g>
<g>
</g>
<g>
</g>
<g>
</g>
<g>
</g>
<g>
</g>
<g>
</g>
<g>
</g>
<g>
</g>
</svg>
