<svg xmlns="http://www.w3.org/2000/svg" viewBox="0 0 438.5 449.3"><title>1Recurso 1</title><g id="Capa_2" data-name="Capa 2"><g id="Capa_1-2" data-name="Capa 1"><path d="M413.3,293.1c1.2.1,1.9-.8,2.7-1.4,7.3-5.6,13.9-11.7,19.4-20.4,1.7,11.5-.3,21.3-4.6,30.8s-11,17.3-20.1,24.4c9.8-.4,18.6-.9,27.8,1.6-5.4,3.1-10.4,5.6-14.6,9.3s-10.7,9.5-16.2,14a89.4,89.4,0,0,1-19.4,11.9c10.1,1,20.2,1.7,30.1,4.9-7.9,2.8-14.7,7.2-21.3,12.1a71.8,71.8,0,0,1-15.1,9c-12.4,5.6-25.6,6.7-39,6.2a23.2,23.2,0,0,0-4.5.3c14.1,5.5,28.3,10.8,38.7,22.2-.5,1.5-1.5,1.1-2.3,1-16.7-1.1-32.8,1.8-48.9,6.3s-34.7,4-51-4.6a27.1,27.1,0,0,1-8.2-6.4c-1.7-1.9-3.1-2-5.3-1.1a277.9,277.9,0,0,0-31.1,14.9c-2.7,1.6-2.7,2.5-.3,4.1a94.4,94.4,0,0,1,15.5,13.4c.6.7,1.6,1.3,1.2,2.4s-1.7,1-2.7,1.1c-5,.6-9.2-.3-12.8-4.4s-6.2-4.9-9.2-7.5-3.9-1.6-5.9.2c-4,3.5-8.1,6.7-12.2,10.1-1.6,1.3-9.9,2.4-11.6,1.4s-.6-2.2.3-3.1a93,93,0,0,1,15.8-13.6c2.7-1.9,2.1-2.6-.3-4-10.1-6-20.9-10.7-31.7-15.2-1.5-.6-2.7-.8-3.9.5-11.1,11.4-25.4,14.3-40.5,14.5-9,.2-17.6-1.8-26.1-4.4-13.3-4.1-27-5.3-40.9-4.6-1.2,0-3,.8-3.5-.7s1.2-1.9,2.1-2.7c9.4-8.8,20.8-14,32.8-18.1l3-1.1c.2-.1.3-.4.5-.7-1.8-.8-3.5-.1-5.2,0-21.1.7-40.4-4.3-57.1-17.9a47.1,47.1,0,0,0-19-9.4c10.6-3.4,20.6-4,30.9-5.2-19-7.9-31-25.5-49.6-35.2,9.1-2.3,17.8-1.9,27.5-1.6C18.7,319.2,12,311.6,7.7,302s-6-19.3-4.6-30.9c6.2,10.3,14.7,16.9,23.5,23.5-4-8.9-7.9-17.8-7.6-27.8s5-18.7,12.9-25.5c1.3,1.6.7,3,.8,4.4.3,13.4-.7,26.9,1.1,40.3,3.9,27.9,17.3,50.5,38.7,68.4s43.1,28.5,67.6,37.6c17.7,6.5,35.5,12.5,52.9,19.8a201.7,201.7,0,0,1,23.8,11.7c1.5.9,2.7,1.3,4.3.3,19.5-11.4,40.8-18.5,61.8-26.2s39-14.2,56.9-25c19.5-11.7,37.4-25,49.7-44.8a105.7,105.7,0,0,0,16.3-56.2c.1-9.6,0-19.2,0-28.8a1.3,1.3,0,0,1,.8-1.5c8.9,7.8,13.7,17.3,12.8,29.4-.5,6.5-2.5,12.4-5.1,18.3-.5,1.2-.9,2.5-1.3,3.7a.9.9,0,0,0-.9,1.2l.5.2A6.1,6.1,0,0,0,413.3,293.1Z" style="fill:#2a7030"/><path d="M413.3,293.1a6.1,6.1,0,0,1-.7,1l-.5-.2a.9.9,0,0,1,.9-1.2Z" style="fill:#eccb34"/><path d="M82.3,309.4l-.6-.6c-.4-.8-.7-1.7-1.2-2.5-6.8-10.5-9.8-22-9.8-34.4q.1-123.1.1-246.1c0-2.4-.2-4.8-.3-7.2l.7-1.2H363c2.9,0,4.8-.2,4.8,4q-.2,125.5-.1,251.2a60.3,60.3,0,0,1-10.3,34.6c-2.8,4.3-6.6,7.7-9.3,12.1H348a5.9,5.9,0,0,0-3.5,3.4h-.2c-4.6,3.7-9,7.7-14,10.9a230.4,230.4,0,0,1-27.8,15.7c-26.3,12.8-53.7,22.5-81.1,32.3a5.8,5.8,0,0,1-4.5-.1c-23.4-8.4-46.9-16.6-69.6-26.9C122.9,343.6,99.3,331.2,82.3,309.4Zm64.8,9-26.2-4.3c-1.2-.2-2.9-1.1-3.6.3s1.3,2.2,2.2,3c4.9,4.6,10.8,7.9,16.8,10.7,13.2,6.3,26.6,11.8,40.3,16.8,11.8,4.3,23.7,8,35.6,12,2.9.9,4.1.3,5.1-2.1s1-1.9,1.9-1.9,1.4,1.1,1.7,2,1.7,3.2,4.4,2.3c11.5-3.7,23-7.5,34.4-11.6,18.1-6.7,36.1-13.6,52.8-23.4a27.8,27.8,0,0,0,7.9-6.2,1.4,1.4,0,0,0,.5-1.6c-.3-.6-1-.5-1.6-.4l-5.3.7c-7.8,1.4-15.8,2.1-23.6,4-.2-1,.9-1.1,1.3-1.6,14-4.1,27.7-9,40.4-16.2,8.6-4.8,15.2-11.8,18.4-21.4.3-.9,1.5-2,.4-2.9s-1.9,0-3,.3c-4.1,1.1-8.4,1.8-12.6,3-15,4-30.2,7.5-45.2,11.3-12.6,3.2-25,6.9-37.5,9.8-8.3,1.8-13.1,6.2-14.8,14.4-.2,1.3-.8,2.5-.9,3.8-.5,5.2-3.8,8.1-8.1,10a10.2,10.2,0,0,0-5.4,5.2c-2.9,5.6-5,5.7-8.2.1-1.4-2.5-2.9-4.3-5.7-5.3s-6.8-5.2-7.9-9.6a65.9,65.9,0,0,0-2.4-8.7c-1.5-3.7-3.7-6.8-8-8-13.1-3.5-26-7.3-39.1-10.8-20.8-5.5-41.8-10.7-62.6-16.1-1-.2-2.1-.8-2.7.1s.1,1.6.3,2.4c3.1,9.5,9.3,16.6,17.6,21.7,13.2,8.2,27.9,12.4,42.5,17.1l.7.7ZM132.7,38.7c-5.4,0-10.8.3-16.2-.1-3.7-.2-4.6,1.4-4.9,4.7-2.2,20.9-4.5,41.7-6.7,62.6l-3.6,33.3L94.7,201c-.9,8.1-1.2,16.3-2.3,24.3-1.5,11.5-2.6,23-4.1,34.6-.3,2.5.9,3,3.1,2.9,7.6,0,15.1-.1,22.7.1,2.9.1,3.9-.8,4.1-3.8,1.2-15.6,2.8-31.1,4.1-46.6.2-2.3,1-3.1,3.3-3H136c8,0,8,0,8.7,8.1a15.2,15.2,0,0,1,.3,2.1c1.3,13.2,2.7,26.5,3.8,39.7.2,2.7,1.2,3.5,3.7,3.5,7.8-.1,15.6-.2,23.4,0,3.2,0,3.6-1.3,3.3-4.1-1.8-13.5-3.3-26.9-4.9-40.4q-4.4-36.2-8.5-72.5c-2.3-18.9-4.5-37.8-6.8-56.7-1.8-15.7-3.7-31.4-5.5-47.1-.3-2.7-1.3-3.5-3.9-3.4Zm170.9,0H286c-2,0-3.1.6-3.3,2.8-1.1,11.4-2.3,22.7-3.5,34s-1.9,21.2-3.7,31.7-1.9,19.8-3.3,29.7-1.8,18.2-2.7,27.3-2.2,20.7-3.4,31-2.3,20.6-3.4,30.9-2.3,22.6-3.5,33.9c-.1,1.6.1,2.8,2.2,2.8h25.2c1.3,0,2.6-.4,2.3-2-.8-4.2.8-8,1.1-12,1.1-11.9,1.4-23.8,3.1-35.6.4-2.8,1.2-3.9,4.2-3.7s7.9,0,11.9,0,5.2,0,6.1,5.3c.2,1.5.5,3.1.6,4.6,1.4,13.5,2.9,26.9,4.2,40.4.2,2.4,1.1,3.1,3.3,3,8.1,0,16.1-.1,24.1,0,2.5.1,2.8-.9,2.4-3s-1-6.6-1.3-9.9-.7-7-1.2-10.5-1.3-9.6-1.8-14.4-1.2-9.8-1.4-14.8-1.5-10.5-2.2-15.8-.9-13.4-2.2-20-1.9-14.2-2.6-21.4-1.8-14-2.6-21-2-15.4-2.4-23.2-2.1-13.4-2.5-20.1-2-13.7-2.8-20.6c-.9-8.7-1.7-17.4-2.4-26.2-.2-2.6-1.5-3.3-4-3.2ZM181.7,109.1h0v65.5c0,5,0,5,5.1,5h33.8a78.5,78.5,0,0,0,10.8-.8c13.1-2,21.9-9,25.6-21.9a71.8,71.8,0,0,0,2.8-19.5c0-16.6.1-33.1,0-49.7-.1-8.3.1-16.6-1.8-24.9a27.1,27.1,0,0,0-8.7-15.2c-7.5-6.7-16.7-8.7-26.4-8.8-12.3-.2-24.7.1-37-.1-3.4-.1-4.3.9-4.2,4.2C181.8,65,181.7,87,181.7,109.1Zm19.5,87.3H186.8c-1.7,0-2.7.5-2.7,2.4s.1,6,.1,9c0,1.3.4,2.2,1.8,2.1,4.2-.1,8.4,1.1,12.5.3s3.8.6,3,3.4l-.3,1.7c-3.1,14.8-6.1,29.5-9.2,44.3-.6,2.4,0,3.5,2.7,3.3s6.2-.1,9.3,0,3-.5,3.4-2.6c2.1-10.5,4.6-20.8,6.6-31.3s4.9-18.5,4.3-28.3c-.2-3.2-.7-4.6-4.1-4.3S205.5,196.4,201.2,196.4Zm45.7,33.7V205.2c0-8.9,0-8.8-8.8-8.9-2.7-.1-3.7,1-4.3,3.4s-2.5,6-5.6,7.1-3.3,2.9-3.1,5.5a17.1,17.1,0,0,1,0,3.2c-.3,2.7.7,3.9,3.4,3.5s3.4,1.1,3.3,3.6c-.1,5.5,0,11,0,16.5s.2,12.7-.6,19.1c-.4,3,1.1,4.5,4.2,4.6s5.2-.1,7.9.1,3.7-.8,3.7-3.7C246.8,249.5,246.9,239.8,246.9,230.1Zm-16,88.1-6.4,4.7c-1.3.9-.6,1.4.3,2a3.9,3.9,0,0,0,4.6-.1C231.6,323.1,231.6,320.8,230.9,318.2Zm-19,7.4c.6-.6,2,.4,2.6-1s-.8-1.8-1.6-2.4L209,319c-.8-.5-1.5-.7-1.9.6A5,5,0,0,0,211.9,325.6Z" style="fill:#f6d800"/><path d="M385.2,4.7c0-4.7,0-4.7-4.8-4.7H55.8C54-.1,53.2.6,53.3,2.5s.1,4.8.1,7.2q0,131.9,0,263.8c0,6.7.4,13.4,2.4,20.1,4.7,16.1,13.5,29.3,25.6,40.6,19,17.8,41.9,29.2,65.5,39.5,12.6,5.6,25.7,10.2,38.7,15,10.3,3.9,20.8,7.5,31.1,11.5a7.2,7.2,0,0,0,5.2,0l43.5-16c22.3-8.3,44-17.8,64.5-29.9a167.8,167.8,0,0,0,22.5-16.1c12.3-10.2,21.9-22.2,27.7-37.1a79.5,79.5,0,0,0,5.1-29ZM73,15.2l-.8.3ZM318.9,356.5h0a5.8,5.8,0,0,0,2.3-.2A5.8,5.8,0,0,1,318.9,356.5Zm48.8-83.9a60.3,60.3,0,0,1-10.3,34.6c-2.8,4.3-6.6,7.7-9.3,12.1H348c.4,2.7-.1,4.5-3.5,3.4h-.2c-4.6,3.7-9,7.7-14,10.9a230.4,230.4,0,0,1-27.8,15.7c-26.3,12.8-53.7,22.5-81.1,32.3a5.8,5.8,0,0,1-4.5-.1c-23.4-8.4-46.9-16.6-69.6-26.9-24.4-11.2-48-23.6-65-45.4l-.6-.6a2.2,2.2,0,0,1-1.6,0,2.2,2.2,0,0,0,1.6,0c-.4-.8-.7-1.7-1.2-2.5-6.8-10.5-9.8-22-9.8-34.4q.1-123.1.1-246.1c0-2.4-.2-4.8-.3-7.2l.7-1.2H363c2.9,0,4.8-.2,4.8,4Q367.7,147,367.7,272.6Z" style="fill:#2a2a65"/><path d="M344.5,322.8a5.9,5.9,0,0,1,3.5-3.4C348.4,322.1,347.9,323.9,344.5,322.8Z" style="fill:#584a2d"/><path d="M318.9,356.4l-.4-.5.4.5Z" style="fill:#584a2d"/><path d="M350.9,276.6c-.8-.7-1.9,0-3,.3-4.1,1.1-8.4,1.8-12.6,3-15,4-30.2,7.5-45.2,11.3-12.6,3.2-25,6.9-37.5,9.8-8.3,1.8-13.1,6.2-14.8,14.4-.2,1.3-.8,2.5-.9,3.8-.5,5.2-3.8,8.1-8.1,10a10.2,10.2,0,0,0-5.4,5.2c-2.9,5.6-5,5.7-8.2.1-1.4-2.5-2.9-4.3-5.7-5.3s-6.8-5.2-7.9-9.6a65.9,65.9,0,0,0-2.4-8.7c-1.5-3.7-3.7-6.8-8-8-13.1-3.5-26-7.3-39.1-10.8-20.8-5.5-41.8-10.7-62.6-16.1-1-.2-2.1-.8-2.7.1s.1,1.6.3,2.4c3.1,9.5,9.3,16.6,17.6,21.7,13.2,8.2,27.9,12.4,42.5,17.1l.7.7-.8.4h0l-26.2-4.3c-1.2-.2-2.9-1.1-3.6.3s1.3,2.2,2.2,3c4.9,4.6,10.8,7.9,16.8,10.7,13.2,6.3,26.6,11.8,40.3,16.8,11.8,4.3,23.7,8,35.6,12,2.9.9,4.1.3,5.1-2.1s1-1.9,1.9-1.9,1.4,1.1,1.7,2,1.7,3.2,4.4,2.3c11.5-3.7,23-7.5,34.4-11.6,18.1-6.7,36.1-13.6,52.8-23.4a27.8,27.8,0,0,0,7.9-6.2,1.4,1.4,0,0,0,.5-1.6c-.3-.6-1-.5-1.6-.4l-5.3.7c-7.8,1.4-15.8,2.1-23.6,4-.2-1,.9-1.1,1.3-1.6,14-4.1,27.7-9,40.4-16.2,8.6-4.8,15.2-11.8,18.4-21.4C350.8,278.6,352,277.5,350.9,276.6ZM90.6,279.3v-.4h.3v.3Z" style="fill:#2a2a65"/><path d="M230.9,318.2c.7,2.6.7,4.9-1.5,6.6a3.9,3.9,0,0,1-4.6.1c-.9-.6-1.6-1.1-.3-2Z" style="fill:#584a2d"/><path d="M211.9,325.6a5,5,0,0,1-4.8-6c.4-1.3,1.1-1.1,1.9-.6l3.9,3.2c.8.6,2.1,1,1.6,2.4S212.5,325,211.9,325.6Z" style="fill:#584a2d"/><path d="M90.8,279.2h-.2v-.4h.3Z" style="fill:#2b316d"/><path d="M218.3,200.6c-.2-3.2-.7-4.6-4.1-4.3s-8.7.1-13,.1H186.8c-1.7,0-2.7.5-2.7,2.4s.1,6,.1,9c0,1.3.4,2.2,1.8,2.1,4.2-.1,8.4,1.1,12.5.3s3.8.6,3,3.4l-.3,1.7c-3.1,14.8-6.1,29.5-9.2,44.3-.6,2.4,0,3.5,2.7,3.3s6.2-.1,9.3,0,3-.5,3.4-2.6c2.1-10.5,4.6-20.8,6.6-31.3S218.9,210.4,218.3,200.6Z" style="fill:#2a2a65"/><path d="M246.9,230.1V205.2c0-8.9,0-8.8-8.8-8.9-2.7-.1-3.7,1-4.3,3.4s-2.5,6-5.6,7.1-3.3,2.9-3.1,5.5a17.1,17.1,0,0,1,0,3.2c-.3,2.7.7,3.9,3.4,3.5s3.4,1.1,3.3,3.6c-.1,5.5,0,11,0,16.5s.2,12.7-.6,19.1c-.4,3,1.1,4.5,4.2,4.6s5.2-.1,7.9.1,3.7-.8,3.7-3.7C246.8,249.5,246.9,239.8,246.9,230.1Z" style="fill:#2a2a65"/><path d="M131.5,104.2c.5-.7.6-1.8,1.8-1l4.5,46c1,10.2,2.1,20.5,3.2,30.7.3,2.4-.4,3.2-2.9,3.1a52.9,52.9,0,0,0-8.9,0c-3.6.3-4.3-1.2-4-4.4q1.8-18.6,3.3-37.2C129.6,129,130.5,116.6,131.5,104.2Z" style="fill:#eccb34"/><path d="M179.2,258.8c-1.8-13.5-3.3-26.9-4.9-40.4q-4.4-36.2-8.5-72.5c-2.3-18.9-4.5-37.8-6.8-56.7-1.8-15.7-3.7-31.4-5.5-47.1-.3-2.7-1.3-3.5-3.9-3.4H132.7c-5.4,0-10.8.3-16.2-.1-3.7-.2-4.6,1.4-4.9,4.7-2.2,20.9-4.5,41.7-6.7,62.6l-3.6,33.3L94.7,201c-.9,8.1-1.2,16.3-2.3,24.3-1.5,11.5-2.6,23-4.1,34.6-.3,2.5.9,3,3.1,2.9,7.6,0,15.1-.1,22.7.1,2.9.1,3.9-.8,4.1-3.8,1.2-15.6,2.8-31.1,4.1-46.6.2-2.3,1-3.1,3.3-3H136c8,0,8,0,8.7,8.1a15.2,15.2,0,0,1,.3,2.1c1.3,13.2,2.7,26.5,3.8,39.7.2,2.7,1.2,3.5,3.7,3.5,7.8-.1,15.6-.2,23.4,0C179.1,262.9,179.5,261.6,179.2,258.8ZM133.3,103.2c-.1-.3-.1-.6-.2-.9s.1.6.2.9Zm0,0,4.5,46c1,10.2,2.1,20.5,3.2,30.7.3,2.4-.4,3.2-2.9,3.1a52.9,52.9,0,0,0-8.9,0c-3.6.3-4.3-1.2-4-4.4q1.8-18.6,3.3-37.2c1.1-12.4,2-24.8,3-37.2C132,103.5,132.1,102.4,133.3,103.2Z" style="fill:#2a2a65"/><path d="M302.6,103.2a14.6,14.6,0,0,1,.7-3c.4-1,.4.3.7.2,1.2,12.7,2.4,25.4,3.7,38.1,1.5,14.6,3.1,29.2,4.7,43.9a.8.8,0,0,0-.2.5H300.3c-4.5,0-4.4,0-4-4.6Z" style="fill:#eccb34"/><path d="M349.9,259.8c-.6-3.2-1-6.6-1.3-9.9s-.7-7-1.2-10.5-1.3-9.6-1.8-14.4-1.2-9.8-1.4-14.8-1.5-10.5-2.2-15.8-.9-13.4-2.2-20-1.9-14.2-2.6-21.4-1.8-14-2.6-21-2-15.4-2.4-23.2-2.1-13.4-2.5-20.1-2-13.7-2.8-20.6c-.9-8.7-1.7-17.4-2.4-26.2-.2-2.6-1.5-3.3-4-3.2H286c-2,0-3.1.6-3.3,2.8-1.1,11.4-2.3,22.7-3.5,34s-1.9,21.2-3.7,31.7-1.9,19.8-3.3,29.7-1.8,18.2-2.7,27.3-2.2,20.7-3.4,31-2.3,20.6-3.4,30.9-2.3,22.6-3.5,33.9c-.1,1.6.1,2.8,2.2,2.8h25.2c1.3,0,2.6-.4,2.3-2-.8-4.2.8-8,1.1-12,1.1-11.9,1.4-23.8,3.1-35.6.4-2.8,1.2-3.9,4.2-3.7s7.9,0,11.9,0,5.2,0,6.1,5.3c.2,1.5.5,3.1.6,4.6,1.4,13.5,2.9,26.9,4.2,40.4.2,2.4,1.1,3.1,3.3,3,8.1,0,16.1-.1,24.1,0C350,262.9,350.3,261.9,349.9,259.8ZM304,100.4h0c1.2,12.7,2.4,25.4,3.7,38.1,1.5,14.6,3.1,29.2,4.7,43.9a.8.8,0,0,0-.2.5H300.3c-4.5,0-4.4,0-4-4.6l6.3-75.1a14.6,14.6,0,0,1,.7-3C303.7,99.2,303.7,100.5,304,100.4Zm6.1,84h0c.7.1,1.5.1,1.9-.8C311.6,184.5,310.8,184.5,310.1,184.4Z" style="fill:#2a2a65"/><path d="M259.8,87.7c-.1-8.3.1-16.6-1.8-24.9a27.1,27.1,0,0,0-8.7-15.2c-7.5-6.7-16.7-8.7-26.4-8.8-12.3-.2-24.7.1-37-.1-3.4-.1-4.3.9-4.2,4.2.1,22.1,0,44.1,0,66.2h0v65.5c0,5,0,5,5.1,5h33.8a78.5,78.5,0,0,0,10.8-.8c13.1-2,21.9-9,25.6-21.9a71.8,71.8,0,0,0,2.8-19.5C259.8,120.8,259.9,104.3,259.8,87.7Zm-48.1,21.4h.1c0-13.1.1-26.1-.1-39.2-.1-3.4,1-4.3,4.3-4,11.2,1,13.5,3.2,13.6,14.5.1,19.3,0,38.6,0,57.9a10.9,10.9,0,0,1-.1,1.8c-.5,9.7-6.3,14.1-15.9,12.5-2.4-.5-1.8-2.2-1.8-3.6C211.7,135.7,211.7,122.4,211.7,109.1Z" style="fill:#2a2a65"/><path d="M211.8,109.1c0-13.1.1-26.1-.1-39.2-.1-3.4,1-4.3,4.3-4,11.2,1,13.5,3.2,13.6,14.5.1,19.3,0,38.6,0,57.9a10.9,10.9,0,0,1-.1,1.8c-.5,9.7-6.3,14.1-15.9,12.5-2.4-.5-1.8-2.2-1.8-3.6-.1-13.3-.1-26.6-.1-39.9Z" style="fill:#eccb34"/></g></g></svg>